<svg width="24" height="24" viewBox="0 0 24 24" fill="none" xmlns="http://www.w3.org/2000/svg">
<path d="M12 24C9.75 23.9688 7.73438 23.4219 5.95312 22.3594C4.14062 21.2969 2.70312 19.8594 1.64062 18.0469C0.578125 16.2656 0.03125 14.25 0 12C0.03125 9.75 0.578125 7.73438 1.64062 5.95312C2.70312 4.14062 4.14062 2.70313 5.95312 1.64062C7.73438 0.578125 9.75 0.03125 12 0C14.25 0.03125 16.2656 0.578125 18.0469 1.64062C19.8594 2.70313 21.2969 4.14062 22.3594 5.95312C23.4219 7.73438 23.9688 9.75 24 12C23.9688 14.25 23.4219 16.2656 22.3594 18.0469C21.2969 19.8594 19.8594 21.2969 18.0469 22.3594C16.2656 23.4219 14.25 23.9688 12 24ZM10.875 12C10.875 12.4062 11.0469 12.7031 11.3906 12.8906L15.8906 15.8906C16.4844 16.2656 16.9844 16.1719 17.3906 15.6094C17.7656 15.0156 17.6719 14.5 17.1094 14.0625L13.125 11.3906V5.625C13.0625 4.9375 12.6719 4.5625 11.9531 4.5C11.6406 4.5 11.375 4.60937 11.1562 4.82812C10.9375 5.04688 10.8281 5.3125 10.8281 5.625L10.875 12Z" fill="#F93E5E"/>
</svg>
