<svg width="18" height="24" viewBox="0 0 18 24" fill="none" xmlns="http://www.w3.org/2000/svg">
<path d="M18 6H12V0L18 6ZM12 7.5H18V21.75C17.9688 22.375 17.75 22.9062 17.3438 23.3438C16.9062 23.75 16.375 23.9688 15.75 24H2.25C1.625 23.9688 1.09375 23.75 0.65625 23.3438C0.25 22.9062 0.03125 22.375 0 21.75V2.25C0.03125 1.625 0.25 1.09375 0.65625 0.65625C1.09375 0.25 1.625 0.03125 2.25 0H10.5V6C10.5 6.4375 10.6406 6.79688 10.9219 7.07812C11.2031 7.35938 11.5625 7.5 12 7.5ZM11.5312 12.375L7.82812 16.7344L6.42188 15.3281C5.89062 14.8906 5.35938 14.8906 4.82812 15.3281C4.39062 15.8594 4.39062 16.3906 4.82812 16.9219L7.07812 19.1719C7.29688 19.3906 7.5625 19.5 7.875 19.5C7.875 19.5 7.89062 19.5 7.92188 19.5C8.23438 19.4688 8.5 19.3438 8.71875 19.125L13.2188 13.875C13.625 13.3125 13.5938 12.7812 13.125 12.2812C12.5625 11.875 12.0312 11.9062 11.5312 12.375Z" fill="#F93E5E"/>
</svg>
