<svg width="24" height="24" viewBox="0 0 24 24" fill="none" xmlns="http://www.w3.org/2000/svg">
<path d="M24 12C23.9688 14.25 23.4219 16.2656 22.3594 18.0469C21.2969 19.8594 19.8594 21.2969 18.0469 22.3594C16.2656 23.4219 14.25 23.9688 12 24C9.75 23.9688 7.73438 23.4219 5.95312 22.3594C4.14062 21.2969 2.70312 19.8594 1.64062 18.0469C0.578125 16.2656 0.03125 14.25 0 12C0.03125 9.75 0.578125 7.73438 1.64062 5.95312C2.70312 4.14062 4.14062 2.70313 5.95312 1.64062C7.73438 0.578125 9.75 0.03125 12 0C14.25 0.03125 16.2656 0.578125 18.0469 1.64062C19.8594 2.70313 21.2969 4.14062 22.3594 5.95312C23.4219 7.73438 23.9688 9.75 24 12ZM12 13.5C11.9062 13.5 11.8125 13.5 11.7188 13.5L8.10938 6.60938C7.73438 6.01562 7.23438 5.85938 6.60938 6.14062C6.01562 6.51562 5.85938 7.01563 6.14062 7.64062L9.70312 14.5312C9.23438 15.0938 8.98438 15.75 8.95312 16.5C8.98438 17.3438 9.28125 18.0469 9.84375 18.6094C10.4375 19.1719 11.1406 19.4688 11.9531 19.5C12.8281 19.4688 13.5469 19.1719 14.1094 18.6094C14.6719 18.0469 14.9688 17.3438 15 16.5C14.9688 15.6562 14.6719 14.9531 14.1094 14.3906C13.5469 13.8281 12.8281 13.5312 11.9531 13.5H12Z" fill="#F93E5E"/>
</svg>
