<svg width="27" height="18" viewBox="0 0 27 18" fill="none" xmlns="http://www.w3.org/2000/svg">
<path d="M11.8125 6.75C11.8438 6.15625 12.1562 5.84375 12.75 5.8125H13.5C14.0625 5.84375 14.375 6.15625 14.4375 6.75V9.9375H14.625C15.1875 9.96875 15.5 10.2812 15.5625 10.875C15.5 11.4375 15.1875 11.75 14.625 11.8125H12.375C11.7812 11.75 11.4688 11.4375 11.4375 10.875C11.4688 10.2812 11.7812 9.96875 12.375 9.9375H12.5625V7.6875C12.0938 7.5625 11.8438 7.25 11.8125 6.75ZM24 0C24.8438 0.03125 25.5469 0.328125 26.1094 0.890625C26.6719 1.45312 26.9688 2.15625 27 3V15C26.9688 15.8438 26.6719 16.5469 26.1094 17.1094C25.5469 17.6719 24.8438 17.9688 24 18H3C2.15625 17.9688 1.45312 17.6719 0.890625 17.1094C0.328125 16.5469 0.03125 15.8438 0 15V3C0.03125 2.15625 0.328125 1.45312 0.890625 0.890625C1.45312 0.328125 2.15625 0.03125 3 0H24ZM6 15C5.96875 14.1562 5.67188 13.4531 5.10938 12.8906C4.54688 12.3281 3.84375 12.0312 3 12V15H6ZM3 6C3.84375 5.96875 4.54688 5.67188 5.10938 5.10938C5.67188 4.54688 5.96875 3.84375 6 3H3V6ZM24 15V12C23.1562 12.0312 22.4531 12.3281 21.8906 12.8906C21.3281 13.4531 21.0312 14.1562 21 15H24ZM24 3H21C21.0312 3.84375 21.3281 4.54688 21.8906 5.10938C22.4531 5.67188 23.1562 5.96875 24 6V3ZM13.5 3.75C12 3.78125 10.7656 4.29688 9.79688 5.29688C8.79688 6.26562 8.28125 7.5 8.25 9C8.28125 10.5 8.79688 11.7344 9.79688 12.7031C10.7656 13.7031 12 14.2188 13.5 14.25C15 14.2188 16.2344 13.7031 17.2031 12.7031C18.2031 11.7344 18.7188 10.5 18.75 9C18.7188 7.5 18.2031 6.26562 17.2031 5.29688C16.2344 4.29688 15 3.78125 13.5 3.75Z" fill="#F93E5E"/>
</svg>
