<svg width="40" height="40" viewBox="0 0 40 40" fill="none" xmlns="http://www.w3.org/2000/svg">
<path d="M39.626 20.1702L19.6258 5.94798C19.0258 5.52132 18.182 5.94158 18.182 6.66683V15.2738C16.3707 12.7582 13.3786 11.1113 10.0001 11.1113C4.48604 11.1113 0 15.4976 0 20.889C0 26.2805 4.48604 30.6668 10.0001 30.6668C13.3786 30.6668 16.3707 29.02 18.182 26.5043V35.1113C18.182 35.8364 19.0259 36.2569 19.6258 35.8301L39.626 21.6079C40.1253 21.2529 40.1241 20.5243 39.626 20.1702ZM10.0001 28.889C5.48859 28.889 1.8182 25.3002 1.8182 20.889C1.8182 16.4778 5.48859 12.889 10.0001 12.889C14.5116 12.889 18.182 16.4778 18.182 20.889C18.182 25.3002 14.5116 28.889 10.0001 28.889ZM20.0002 33.3657V8.41243L37.5456 20.889L20.0002 33.3657Z" fill="white"/>
<path d="M38.1818 31.1113C38.6839 31.1113 39.0909 30.7133 39.0909 30.2224C39.0909 29.7315 38.6839 29.3335 38.1818 29.3335C37.6797 29.3335 37.2727 29.7315 37.2727 30.2224C37.2727 30.7133 37.6797 31.1113 38.1818 31.1113Z" fill="white"/>
<path d="M11.818 36.4443C12.3201 36.4443 12.7271 36.0463 12.7271 35.5554C12.7271 35.0645 12.3201 34.6665 11.818 34.6665C11.3159 34.6665 10.9089 35.0645 10.9089 35.5554C10.9089 36.0463 11.3159 36.4443 11.818 36.4443Z" fill="white"/>
<path d="M1.81834 8.88862C2.32042 8.88862 2.72744 8.49065 2.72744 7.99973C2.72744 7.50881 2.32042 7.11084 1.81834 7.11084C1.31626 7.11084 0.909241 7.50881 0.909241 7.99973C0.909241 8.49065 1.31626 8.88862 1.81834 8.88862Z" fill="white"/>
<path d="M28.1823 4.44453C28.6844 4.44453 29.0914 4.04656 29.0914 3.55564C29.0914 3.06472 28.6844 2.66675 28.1823 2.66675C27.6802 2.66675 27.2732 3.06472 27.2732 3.55564C27.2732 4.04656 27.6802 4.44453 28.1823 4.44453Z" fill="white"/>
<path d="M27.2729 34.6667C25.7691 34.6667 24.5457 35.863 24.5457 37.3334C24.5457 38.8038 25.7691 40.0001 27.2729 40.0001C28.7768 40.0001 30.0002 38.8038 30.0002 37.3334C30.0002 35.863 28.7768 34.6667 27.2729 34.6667ZM27.2729 38.2223C26.7717 38.2223 26.3639 37.8235 26.3639 37.3334C26.3639 36.8433 26.7717 36.4445 27.2729 36.4445C27.7742 36.4445 28.182 36.8433 28.182 37.3334C28.182 37.8235 27.7742 38.2223 27.2729 38.2223Z" fill="white"/>
<path d="M33.1821 11.5555C34.9366 11.5555 36.3639 10.1598 36.3639 8.44436C36.3639 6.7289 34.9366 5.33325 33.1821 5.33325C31.4276 5.33325 30.0002 6.7289 30.0002 8.44436C30.0002 10.1598 31.4276 11.5555 33.1821 11.5555ZM33.1821 7.11103C33.934 7.11103 34.5457 7.70916 34.5457 8.44436C34.5457 9.17956 33.934 9.7777 33.1821 9.7777C32.4302 9.7777 31.8184 9.17956 31.8184 8.44436C31.8184 7.70916 32.4301 7.11103 33.1821 7.11103Z" fill="white"/>
<path d="M10.9092 7.11111C12.9143 7.11111 14.5456 5.51609 14.5456 3.55556C14.5456 1.59502 12.9143 0 10.9092 0C8.90396 0 7.27277 1.59502 7.27277 3.55556C7.27277 5.51609 8.90396 7.11111 10.9092 7.11111ZM10.9092 1.77778C11.9116 1.77778 12.7274 2.57529 12.7274 3.55556C12.7274 4.53582 11.9116 5.33333 10.9092 5.33333C9.90661 5.33333 9.09096 4.53582 9.09096 3.55556C9.09096 2.57529 9.90661 1.77778 10.9092 1.77778Z" fill="white"/>
</svg>
