<svg width="40" height="40" viewBox="0 0 40 40" fill="none" xmlns="http://www.w3.org/2000/svg">
<path d="M16.6755 2.66846C8.94641 2.66846 2.68079 8.93617 2.68079 16.6678C2.68079 24.3995 8.94641 30.6672 16.6755 30.6672C24.4045 30.6672 30.6702 24.3995 30.6702 16.6678C30.6618 8.93967 24.401 2.67687 16.6755 2.66846ZM16.6755 4.00173C20.7919 4.00498 24.6494 6.01189 27.0156 9.38148L25.3495 11.0481C24.9441 10.8027 24.4799 10.6713 24.006 10.6681C22.5338 10.6681 21.3404 11.862 21.3404 13.3346C21.3427 13.8092 21.4732 14.2743 21.7182 14.6806L17.3546 19.0457C16.5283 18.5417 15.4898 18.5417 14.6636 19.0457L11.6327 16.0138C11.8777 15.6075 12.0083 15.1425 12.0106 14.6679C12.0124 13.1981 10.8229 12.0052 9.35359 12.0034C8.13847 12.0019 7.07679 12.8241 6.7739 14.0013H4.3015C5.56328 8.17262 10.7137 4.01048 16.6755 4.00173ZM25.3389 13.3346C25.3389 14.071 24.7422 14.6679 24.006 14.6679C23.2699 14.6679 22.6732 14.071 22.6732 13.3346C22.6732 12.5983 23.2699 12.0014 24.006 12.0014C24.7422 12.0014 25.3389 12.5983 25.3389 13.3346ZM17.3419 21.3343C17.3419 22.0707 16.7452 22.6675 16.0091 22.6675C15.2729 22.6675 14.6762 22.0707 14.6762 21.3343C14.6762 20.5979 15.2729 20.001 16.0091 20.001C16.7452 20.001 17.3419 20.5979 17.3419 21.3343ZM10.6778 14.6679C10.6778 15.4043 10.0811 16.0012 9.34493 16.0012C8.60879 16.0012 8.0121 15.4043 8.0121 14.6679C8.0121 13.9315 8.60879 13.3346 9.34493 13.3346C10.0811 13.3346 10.6778 13.9315 10.6778 14.6679ZM22.8276 27.7428C20.9457 28.7881 18.8282 29.3357 16.6755 29.3338C9.6873 29.3386 4.01836 23.6756 4.01361 16.6851C4.01328 16.2339 4.03711 15.783 4.08492 15.3345H6.7739C7.07687 16.5082 8.13314 17.3298 9.34493 17.3344C9.81933 17.332 10.2842 17.2015 10.6904 16.9564L13.7213 19.9882C13.4763 20.3946 13.3457 20.8596 13.3434 21.3342C13.3434 22.8069 14.5369 24.0007 16.0091 24.0007C17.4813 24.0007 18.6747 22.8069 18.6747 21.3342C18.6724 20.8596 18.5419 20.3946 18.2969 19.9882L22.6605 15.6231C23.0667 15.8682 23.5316 15.9988 24.006 16.0011C25.4782 16.0011 26.6717 14.8072 26.6717 13.3346C26.6694 12.86 26.5388 12.3949 26.2938 11.9886L27.7466 10.536C31.1382 16.6464 28.9359 24.3501 22.8276 27.7428Z" fill="white"/>
<path d="M33.3358 6.6685C34.5476 6.66392 35.6039 5.84237 35.9069 4.66859H40V3.33532H35.9069C35.6039 2.16154 34.5476 1.34 33.3358 1.33541C31.8636 1.33541 30.6702 2.52928 30.6702 4.00196C30.6725 4.47652 30.803 4.94158 31.048 5.3479L29.8771 6.51918C24.2747 -0.78224 13.816 -2.15801 6.517 3.44632C-0.781979 9.05064 -2.15729 19.5129 3.44517 26.8143C8.7335 33.7063 18.4274 35.3781 25.7174 30.6554L27.7286 32.6673L28.6709 33.6099L34.0356 38.9764C35.4 40.3412 37.612 40.3412 38.9764 38.9764C40.3408 37.6115 40.3408 35.3988 38.9764 34.0339L33.6117 28.6675L32.6694 27.7249L30.6582 25.713C34.2284 20.2119 34.2284 13.1243 30.6582 7.62313L31.991 6.28985C32.3969 6.53501 32.8617 6.66584 33.3358 6.6685ZM33.3358 2.66869C34.072 2.66869 34.6687 3.26557 34.6687 4.00196C34.6687 4.73834 34.072 5.33523 33.3358 5.33523C32.5997 5.33523 32.003 4.73834 32.003 4.00196C32.003 3.26557 32.5998 2.66869 33.3358 2.66869ZM38.0341 34.9765C38.8876 35.8112 38.9031 37.1799 38.0688 38.0337C37.2344 38.8875 35.8661 38.9031 35.0126 38.0685C35.0009 38.0571 34.9894 38.0455 34.9779 38.0337L29.6132 32.6673L32.6694 29.6101L38.0341 34.9765ZM31.7271 28.6675L28.6709 31.7247L26.8263 29.8794C26.9203 29.8074 27.0082 29.7281 27.1009 29.6541C27.1935 29.5801 27.3008 29.4915 27.4001 29.4081C27.546 29.2855 27.69 29.1615 27.8313 29.0341C27.9039 28.9675 27.9732 28.9008 28.0445 28.8342C28.3177 28.5782 28.5823 28.3135 28.8382 28.0402C28.9048 27.9689 28.9715 27.8995 29.0381 27.8269C29.1654 27.6855 29.2894 27.5415 29.412 27.3956C29.4955 27.2969 29.5775 27.1971 29.6579 27.0962C29.7312 27.0042 29.8105 26.9162 29.8825 26.8222L31.7271 28.6675ZM29.1428 25.571C28.9328 25.8643 28.7163 26.1516 28.4877 26.4283C28.421 26.5089 28.3497 26.5869 28.2811 26.6663C28.0772 26.9036 27.8666 27.1338 27.6493 27.3569C27.5547 27.4546 27.4585 27.5509 27.3608 27.6455C27.1386 27.8629 26.9085 28.0735 26.6704 28.2775C26.5911 28.3442 26.5131 28.4168 26.4325 28.4842C26.1559 28.7128 25.8687 28.9295 25.5754 29.1395C18.6767 34.0697 9.08878 32.472 4.16023 25.571C-0.768317 18.67 0.828827 9.07881 7.72754 4.14862C14.6263 -0.781573 24.2142 0.81602 29.1428 7.71712C32.9564 13.057 32.9564 20.2311 29.1428 25.571Z" fill="white"/>
</svg>
