<svg width="40" height="40" viewBox="0 0 40 40" fill="none" xmlns="http://www.w3.org/2000/svg">
<path d="M39.9999 32.2095C39.9999 36.512 31.9539 39.9999 22.0287 39.9999C12.1036 39.9999 4.05762 36.512 4.05762 32.2095C4.05762 27.9069 12.1036 24.419 22.0287 24.419C31.9539 24.419 39.9999 27.9069 39.9999 32.2095Z" fill="#22137B"/>
<path d="M39.9999 31.7512C39.9999 36.0538 31.9539 39.5417 22.0287 39.5417C12.1036 39.5417 4.05762 36.0538 4.05762 31.7512C4.05762 27.4487 12.1036 23.9608 22.0287 23.9608C31.9539 23.9608 39.9999 27.4487 39.9999 31.7512Z" fill="#22137B"/>
<path d="M39.9999 31.293C39.9999 35.5955 31.9539 39.0834 22.0287 39.0834C12.1036 39.0834 4.05762 35.5955 4.05762 31.293C4.05762 26.9904 12.1036 23.5025 22.0287 23.5025C31.9539 23.5025 39.9999 26.9904 39.9999 31.293Z" fill="#22137B"/>
<path d="M39.9999 30.8347C39.9999 35.1372 31.9539 38.6251 22.0287 38.6251C12.1036 38.6251 4.05762 35.1372 4.05762 30.8347C4.05762 26.5322 12.1036 23.0443 22.0287 23.0443C31.9539 23.0443 39.9999 26.5322 39.9999 30.8347Z" fill="#22137B"/>
<path d="M39.9999 30.3764C39.9999 34.679 31.9539 38.1669 22.0287 38.1669C12.1036 38.1669 4.05762 34.679 4.05762 30.3764C4.05762 26.0739 12.1036 22.586 22.0287 22.586C31.9539 22.586 39.9999 26.0739 39.9999 30.3764Z" fill="#22137B"/>
<path d="M39.9999 29.9182C39.9999 34.2207 31.9539 37.7086 22.0287 37.7086C12.1036 37.7086 4.05762 34.2207 4.05762 29.9182C4.05762 25.6156 12.1036 22.1277 22.0287 22.1277C31.9539 22.1277 39.9999 25.6156 39.9999 29.9182Z" fill="#22137B"/>
<path d="M39.9999 29.4599C39.9999 33.7625 31.9539 37.2504 22.0287 37.2504C12.1036 37.2504 4.05762 33.7625 4.05762 29.4599C4.05762 25.1574 12.1036 21.6695 22.0287 21.6695C31.9539 21.6695 39.9999 25.1574 39.9999 29.4599Z" fill="#22137B"/>
<path d="M39.9999 29.0017C39.9999 33.3042 31.9539 36.7921 22.0287 36.7921C12.1036 36.7921 4.05762 33.3042 4.05762 29.0017C4.05762 24.6991 12.1036 21.2112 22.0287 21.2112C31.9539 21.2112 39.9999 24.6991 39.9999 29.0017Z" fill="#22137B"/>
<path d="M39.9999 28.5434C39.9999 32.8459 31.9539 36.3338 22.0287 36.3338C12.1036 36.3338 4.05762 32.8459 4.05762 28.5434C4.05762 24.2408 12.1036 20.7529 22.0287 20.7529C31.9539 20.7529 39.9999 24.2408 39.9999 28.5434Z" fill="#22137B"/>
<path d="M39.9999 28.0851C39.9999 32.3877 31.9539 35.8756 22.0287 35.8756C12.1036 35.8756 4.05762 32.3877 4.05762 28.0851C4.05762 23.7826 12.1036 20.2947 22.0287 20.2947C31.9539 20.2947 39.9999 23.7826 39.9999 28.0851Z" fill="#22137B"/>
<path d="M39.9999 27.6269C39.9999 31.9294 31.9539 35.4173 22.0287 35.4173C12.1036 35.4173 4.05762 31.9294 4.05762 27.6269C4.05762 23.3243 12.1036 19.8364 22.0287 19.8364C31.9539 19.8364 39.9999 23.3243 39.9999 27.6269Z" fill="#22137B"/>
<path d="M39.9999 30.9449C39.9999 35.2474 31.9539 38.7353 22.0287 38.7353C12.1036 38.7353 4.05762 35.2474 4.05762 30.9449C4.05762 26.6424 12.1036 23.1545 22.0287 23.1545C31.9539 23.1545 39.9999 26.6424 39.9999 30.9449Z" fill="#836FFD"/>
<path d="M39.9999 30.4866C39.9999 34.7892 31.9539 38.2771 22.0287 38.2771C12.1036 38.2771 4.05762 34.7892 4.05762 30.4866C4.05762 26.1841 12.1036 22.6962 22.0287 22.6962C31.9539 22.6962 39.9999 26.1841 39.9999 30.4866Z" fill="#836FFD"/>
<path d="M39.9999 30.0284C39.9999 34.3309 31.9539 37.8188 22.0287 37.8188C12.1036 37.8188 4.05762 34.3309 4.05762 30.0284C4.05762 25.7258 12.1036 22.2379 22.0287 22.2379C31.9539 22.2379 39.9999 25.7258 39.9999 30.0284Z" fill="#836FFD"/>
<path d="M39.9999 29.5701C39.9999 33.8727 31.9539 37.3606 22.0287 37.3606C12.1036 37.3606 4.05762 33.8727 4.05762 29.5701C4.05762 25.2676 12.1036 21.7797 22.0287 21.7797C31.9539 21.7797 39.9999 25.2676 39.9999 29.5701Z" fill="#836FFD"/>
<path d="M39.9999 29.1119C39.9999 33.4144 31.9539 36.9023 22.0287 36.9023C12.1036 36.9023 4.05762 33.4144 4.05762 29.1119C4.05762 24.8093 12.1036 21.3214 22.0287 21.3214C31.9539 21.3214 39.9999 24.8093 39.9999 29.1119Z" fill="#836FFD"/>
<path d="M39.9999 28.6536C39.9999 32.9561 31.9539 36.444 22.0287 36.444C12.1036 36.444 4.05762 32.9561 4.05762 28.6536C4.05762 24.351 12.1036 20.8631 22.0287 20.8631C31.9539 20.8631 39.9999 24.351 39.9999 28.6536Z" fill="#836FFD"/>
<path d="M39.9999 28.1953C39.9999 32.4979 31.9539 35.9858 22.0287 35.9858C12.1036 35.9858 4.05762 32.4979 4.05762 28.1953C4.05762 23.8928 12.1036 20.4049 22.0287 20.4049C31.9539 20.4049 39.9999 23.8928 39.9999 28.1953Z" fill="#836FFD"/>
<path d="M39.9999 27.7371C39.9999 32.0396 31.9539 35.5275 22.0287 35.5275C12.1036 35.5275 4.05762 32.0396 4.05762 27.7371C4.05762 23.4345 12.1036 19.9466 22.0287 19.9466C31.9539 19.9466 39.9999 23.4345 39.9999 27.7371Z" fill="#836FFD"/>
<path d="M39.9999 27.2788C39.9999 31.5814 31.9539 35.0693 22.0287 35.0693C12.1036 35.0693 4.05762 31.5814 4.05762 27.2788C4.05762 22.9763 12.1036 19.4884 22.0287 19.4884C31.9539 19.4884 39.9999 22.9763 39.9999 27.2788Z" fill="#836FFD"/>
<path d="M39.9999 26.8205C39.9999 31.1231 31.9539 34.611 22.0287 34.611C12.1036 34.611 4.05762 31.1231 4.05762 26.8205C4.05762 22.518 12.1036 19.0301 22.0287 19.0301C31.9539 19.0301 39.9999 22.518 39.9999 26.8205Z" fill="#836FFD"/>
<path d="M39.9999 26.3623C39.9999 30.6648 31.9539 34.1527 22.0287 34.1527C12.1036 34.1527 4.05762 30.6648 4.05762 26.3623C4.05762 22.0597 12.1036 18.5718 22.0287 18.5718C31.9539 18.5718 39.9999 22.0597 39.9999 26.3623Z" fill="#836FFD"/>
<ellipse cx="22.0287" cy="26.0005" rx="17.9711" ry="7.42866" fill="white"/>
<path d="M26.0867 27.3419C26.0867 27.7361 25.8117 28.0694 25.2618 28.342C24.7218 28.6096 23.9902 28.7824 23.0671 28.8602V29.2763C23.0671 29.4077 22.9837 29.5123 22.8167 29.5902C22.6596 29.6729 22.4485 29.7143 22.1834 29.7143C21.928 29.7143 21.7169 29.6729 21.55 29.5902C21.3831 29.5123 21.2996 29.4077 21.2996 29.2763V28.8821C20.7595 28.8578 20.2341 28.8018 19.7235 28.7142C19.2227 28.6266 18.7808 28.5147 18.3979 28.3785C18.2407 28.3298 18.1278 28.2763 18.0591 28.2179C18.0002 28.1546 17.9707 28.0767 17.9707 27.9843C17.9707 27.8626 18.0444 27.7556 18.1916 27.6631C18.3488 27.5706 18.5255 27.5244 18.7219 27.5244C18.9085 27.5244 19.1392 27.5633 19.4142 27.6412C19.8659 27.7726 20.2931 27.8699 20.6957 27.9332C21.1081 27.9916 21.5353 28.0208 21.9771 28.0208C22.5663 28.0208 23.018 27.9672 23.3323 27.8602C23.6465 27.7483 23.8036 27.5925 23.8036 27.393C23.8036 27.2714 23.7103 27.1716 23.5237 27.0937C23.347 27.0159 23.1261 26.955 22.8609 26.9112C22.5958 26.8675 22.2128 26.8115 21.712 26.7434C20.9854 26.6509 20.3864 26.5584 19.915 26.466C19.4437 26.3735 19.0361 26.2275 18.6925 26.028C18.3586 25.8285 18.1916 25.5608 18.1916 25.2251C18.1916 24.8309 18.4715 24.4927 19.0312 24.2104C19.6008 23.9282 20.3422 23.7481 21.2554 23.6703V23.2542C21.2554 23.1228 21.3389 23.0182 21.5058 22.9403C21.6727 22.8576 21.8839 22.8162 22.1392 22.8162C22.4043 22.8162 22.6154 22.8576 22.7725 22.9403C22.9395 23.0182 23.0229 23.1228 23.0229 23.2542V23.6557C23.9067 23.7141 24.7365 23.8795 25.5122 24.152C25.6595 24.2007 25.7626 24.2567 25.8216 24.3199C25.8903 24.3832 25.9247 24.4586 25.9247 24.5462C25.9247 24.6679 25.8461 24.7749 25.689 24.8674C25.5417 24.9598 25.3699 25.0061 25.1735 25.0061C25.0654 25.0061 24.9623 24.9988 24.8641 24.9842C24.7758 24.9696 24.6481 24.9379 24.4812 24.8893C24.0786 24.7628 23.7152 24.6679 23.3912 24.6046C23.077 24.5413 22.6891 24.5097 22.2275 24.5097C21.6973 24.5097 21.2701 24.5681 20.9461 24.6849C20.6318 24.8017 20.4747 24.9574 20.4747 25.1521C20.4747 25.2883 20.568 25.4003 20.7546 25.4878C20.9412 25.5706 21.1768 25.6363 21.4616 25.6849C21.7464 25.7336 22.1441 25.7896 22.6547 25.8528C23.3715 25.9404 23.9558 26.0304 24.4075 26.1229C24.8691 26.2105 25.2618 26.3541 25.5859 26.5536C25.9198 26.7482 26.0867 27.011 26.0867 27.3419Z" fill="#6B61FC"/>
<path d="M39.9999 22.4543C39.9999 26.7568 31.9539 30.2447 22.0287 30.2447C12.1036 30.2447 4.05762 26.7568 4.05762 22.4543C4.05762 18.1518 12.1036 14.6639 22.0287 14.6639C31.9539 14.6639 39.9999 18.1518 39.9999 22.4543Z" fill="#836FFD"/>
<path d="M39.9999 21.996C39.9999 26.2986 31.9539 29.7865 22.0287 29.7865C12.1036 29.7865 4.05762 26.2986 4.05762 21.996C4.05762 17.6935 12.1036 14.2056 22.0287 14.2056C31.9539 14.2056 39.9999 17.6935 39.9999 21.996Z" fill="#836FFD"/>
<path d="M39.9999 21.5378C39.9999 25.8403 31.9539 29.3282 22.0287 29.3282C12.1036 29.3282 4.05762 25.8403 4.05762 21.5378C4.05762 17.2352 12.1036 13.7473 22.0287 13.7473C31.9539 13.7473 39.9999 17.2352 39.9999 21.5378Z" fill="#836FFD"/>
<path d="M39.9999 21.0795C39.9999 25.3821 31.9539 28.87 22.0287 28.87C12.1036 28.87 4.05762 25.3821 4.05762 21.0795C4.05762 16.777 12.1036 13.2891 22.0287 13.2891C31.9539 13.2891 39.9999 16.777 39.9999 21.0795Z" fill="#836FFD"/>
<path d="M39.9999 20.6213C39.9999 24.9238 31.9539 28.4117 22.0287 28.4117C12.1036 28.4117 4.05762 24.9238 4.05762 20.6213C4.05762 16.3187 12.1036 12.8308 22.0287 12.8308C31.9539 12.8308 39.9999 16.3187 39.9999 20.6213Z" fill="#836FFD"/>
<path d="M39.9999 20.163C39.9999 24.4655 31.9539 27.9534 22.0287 27.9534C12.1036 27.9534 4.05762 24.4655 4.05762 20.163C4.05762 15.8604 12.1036 12.3725 22.0287 12.3725C31.9539 12.3725 39.9999 15.8604 39.9999 20.163Z" fill="#836FFD"/>
<path d="M39.9999 19.7047C39.9999 24.0073 31.9539 27.4952 22.0287 27.4952C12.1036 27.4952 4.05762 24.0073 4.05762 19.7047C4.05762 15.4022 12.1036 11.9143 22.0287 11.9143C31.9539 11.9143 39.9999 15.4022 39.9999 19.7047Z" fill="#836FFD"/>
<path d="M39.9999 19.2465C39.9999 23.549 31.9539 27.0369 22.0287 27.0369C12.1036 27.0369 4.05762 23.549 4.05762 19.2465C4.05762 14.9439 12.1036 11.456 22.0287 11.456C31.9539 11.456 39.9999 14.9439 39.9999 19.2465Z" fill="#836FFD"/>
<path d="M39.9999 18.7882C39.9999 23.0907 31.9539 26.5786 22.0287 26.5786C12.1036 26.5786 4.05762 23.0907 4.05762 18.7882C4.05762 14.4857 12.1036 10.9978 22.0287 10.9978C31.9539 10.9978 39.9999 14.4857 39.9999 18.7882Z" fill="#836FFD"/>
<path d="M39.9999 18.3299C39.9999 22.6325 31.9539 26.1204 22.0287 26.1204C12.1036 26.1204 4.05762 22.6325 4.05762 18.3299C4.05762 14.0274 12.1036 10.5395 22.0287 10.5395C31.9539 10.5395 39.9999 14.0274 39.9999 18.3299Z" fill="#836FFD"/>
<path d="M39.9999 17.8717C39.9999 22.1742 31.9539 25.6621 22.0287 25.6621C12.1036 25.6621 4.05762 22.1742 4.05762 17.8717C4.05762 13.5691 12.1036 10.0812 22.0287 10.0812C31.9539 10.0812 39.9999 13.5691 39.9999 17.8717Z" fill="#836FFD"/>
<ellipse cx="22.0287" cy="17.5099" rx="17.9711" ry="7.42866" fill="white"/>
<path d="M26.0867 18.8524C26.0867 19.2466 25.8117 19.5799 25.2618 19.8525C24.7218 20.1201 23.9902 20.2929 23.0671 20.3707V20.7868C23.0671 20.9182 22.9837 21.0228 22.8167 21.1007C22.6596 21.1834 22.4485 21.2248 22.1834 21.2248C21.928 21.2248 21.7169 21.1834 21.55 21.1007C21.3831 21.0228 21.2996 20.9182 21.2996 20.7868V20.3926C20.7595 20.3683 20.2341 20.3123 19.7235 20.2247C19.2227 20.1371 18.7808 20.0252 18.3979 19.8889C18.2407 19.8403 18.1278 19.7868 18.0591 19.7284C18.0002 19.6651 17.9707 19.5872 17.9707 19.4948C17.9707 19.3731 18.0444 19.2661 18.1916 19.1736C18.3488 19.0811 18.5255 19.0349 18.7219 19.0349C18.9085 19.0349 19.1392 19.0738 19.4142 19.1517C19.8659 19.2831 20.2931 19.3804 20.6957 19.4437C21.1081 19.5021 21.5353 19.5313 21.9771 19.5313C22.5663 19.5313 23.018 19.4777 23.3323 19.3707C23.6465 19.2588 23.8036 19.103 23.8036 18.9035C23.8036 18.7819 23.7103 18.6821 23.5237 18.6042C23.347 18.5264 23.1261 18.4655 22.8609 18.4217C22.5958 18.378 22.2128 18.322 21.712 18.2539C20.9854 18.1614 20.3864 18.0689 19.915 17.9765C19.4437 17.884 19.0361 17.738 18.6925 17.5385C18.3586 17.339 18.1916 17.0713 18.1916 16.7356C18.1916 16.3414 18.4715 16.0032 19.0312 15.7209C19.6008 15.4387 20.3422 15.2586 21.2554 15.1808V14.7647C21.2554 14.6333 21.3389 14.5287 21.5058 14.4508C21.6727 14.3681 21.8839 14.3267 22.1392 14.3267C22.4043 14.3267 22.6154 14.3681 22.7725 14.4508C22.9395 14.5287 23.0229 14.6333 23.0229 14.7647V15.1662C23.9067 15.2246 24.7365 15.39 25.5122 15.6625C25.6595 15.7112 25.7626 15.7672 25.8216 15.8304C25.8903 15.8937 25.9247 15.9691 25.9247 16.0567C25.9247 16.1784 25.8461 16.2854 25.689 16.3779C25.5417 16.4703 25.3699 16.5166 25.1735 16.5166C25.0654 16.5166 24.9623 16.5093 24.8641 16.4947C24.7758 16.4801 24.6481 16.4484 24.4812 16.3998C24.0786 16.2733 23.7152 16.1784 23.3912 16.1151C23.077 16.0518 22.6891 16.0202 22.2275 16.0202C21.6973 16.0202 21.2701 16.0786 20.9461 16.1954C20.6318 16.3122 20.4747 16.4679 20.4747 16.6626C20.4747 16.7988 20.568 16.9107 20.7546 16.9983C20.9412 17.0811 21.1768 17.1468 21.4616 17.1954C21.7464 17.2441 22.1441 17.3001 22.6547 17.3633C23.3715 17.4509 23.9558 17.5409 24.4075 17.6334C24.8691 17.721 25.2618 17.8646 25.5859 18.0641C25.9198 18.2587 26.0867 18.5215 26.0867 18.8524Z" fill="#6B61FC"/>
<path d="M35.9422 12.3731C35.9422 16.6756 27.8963 20.1635 17.9711 20.1635C8.04594 20.1635 0 16.6756 0 12.3731C0 8.07052 8.04594 4.58261 17.9711 4.58261C27.8963 4.58261 35.9422 8.07052 35.9422 12.3731Z" fill="#836FFD"/>
<path d="M35.9422 11.9148C35.9422 16.2173 27.8963 19.7052 17.9711 19.7052C8.04594 19.7052 0 16.2173 0 11.9148C0 7.61225 8.04594 4.12435 17.9711 4.12435C27.8963 4.12435 35.9422 7.61225 35.9422 11.9148Z" fill="#836FFD"/>
<path d="M35.9422 11.4565C35.9422 15.7591 27.8963 19.247 17.9711 19.247C8.04594 19.247 0 15.7591 0 11.4565C0 7.15399 8.04594 3.66609 17.9711 3.66609C27.8963 3.66609 35.9422 7.15399 35.9422 11.4565Z" fill="#836FFD"/>
<path d="M35.9422 10.9983C35.9422 15.3008 27.8963 18.7887 17.9711 18.7887C8.04594 18.7887 0 15.3008 0 10.9983C0 6.69573 8.04594 3.20783 17.9711 3.20783C27.8963 3.20783 35.9422 6.69573 35.9422 10.9983Z" fill="#836FFD"/>
<path d="M35.9422 10.54C35.9422 14.8426 27.8963 18.3305 17.9711 18.3305C8.04594 18.3305 0 14.8426 0 10.54C0 6.23747 8.04594 2.74957 17.9711 2.74957C27.8963 2.74957 35.9422 6.23747 35.9422 10.54Z" fill="#836FFD"/>
<path d="M35.9422 10.0818C35.9422 14.3843 27.8963 17.8722 17.9711 17.8722C8.04594 17.8722 0 14.3843 0 10.0818C0 5.77921 8.04594 2.29131 17.9711 2.29131C27.8963 2.29131 35.9422 5.77921 35.9422 10.0818Z" fill="#836FFD"/>
<path d="M35.9422 9.62349C35.9422 13.926 27.8963 17.4139 17.9711 17.4139C8.04594 17.4139 0 13.926 0 9.62349C0 5.32095 8.04594 1.83305 17.9711 1.83305C27.8963 1.83305 35.9422 5.32095 35.9422 9.62349Z" fill="#836FFD"/>
<path d="M35.9422 9.16523C35.9422 13.4678 27.8963 16.9557 17.9711 16.9557C8.04594 16.9557 0 13.4678 0 9.16523C0 4.86269 8.04594 1.37478 17.9711 1.37478C27.8963 1.37478 35.9422 4.86269 35.9422 9.16523Z" fill="#836FFD"/>
<path d="M35.9422 8.70697C35.9422 13.0095 27.8963 16.4974 17.9711 16.4974C8.04594 16.4974 0 13.0095 0 8.70697C0 4.40442 8.04594 0.916523 17.9711 0.916523C27.8963 0.916523 35.9422 4.40442 35.9422 8.70697Z" fill="#836FFD"/>
<path d="M35.9422 8.24871C35.9422 12.5513 27.8963 16.0392 17.9711 16.0392C8.04594 16.0392 0 12.5513 0 8.24871C0 3.94616 8.04594 0.458261 17.9711 0.458261C27.8963 0.458261 35.9422 3.94616 35.9422 8.24871Z" fill="#836FFD"/>
<path d="M35.9422 7.79044C35.9422 12.093 27.8963 15.5809 17.9711 15.5809C8.04594 15.5809 0 12.093 0 7.79044C0 3.4879 8.04594 0 17.9711 0C27.8963 0 35.9422 3.4879 35.9422 7.79044Z" fill="#836FFD"/>
<ellipse cx="17.9711" cy="7.42866" rx="17.9711" ry="7.42866" fill="white"/>
<path d="M22.0291 8.771C22.0291 9.16517 21.7541 9.49852 21.2042 9.77103C20.6641 10.0387 19.9326 10.2114 19.0095 10.2893V10.7054C19.0095 10.8368 18.926 10.9414 18.7591 11.0192C18.602 11.102 18.3909 11.1433 18.1257 11.1433C17.8704 11.1433 17.6593 11.102 17.4924 11.0192C17.3254 10.9414 17.242 10.8368 17.242 10.7054V10.3112C16.7019 10.2869 16.1765 10.2309 15.6659 10.1433C15.1651 10.0557 14.7232 9.94379 14.3402 9.80753C14.1831 9.75886 14.0702 9.70533 14.0015 9.64694C13.9425 9.58368 13.9131 9.50582 13.9131 9.41335C13.9131 9.2917 13.9867 9.18464 14.134 9.09218C14.2911 8.99972 14.4679 8.95349 14.6643 8.95349C14.8509 8.95349 15.0816 8.99242 15.3566 9.07028C15.8083 9.20167 16.2354 9.299 16.6381 9.36226C17.0505 9.42065 17.4776 9.44985 17.9195 9.44985C18.5087 9.44985 18.9604 9.39632 19.2746 9.28926C19.5889 9.17734 19.746 9.02161 19.746 8.82209C19.746 8.70044 19.6527 8.60068 19.4661 8.52281C19.2894 8.44495 19.0684 8.38412 18.8033 8.34033C18.5382 8.29653 18.1552 8.24057 17.6544 8.17244C16.9277 8.07998 16.3287 7.98752 15.8574 7.89506C15.386 7.8026 14.9785 7.65661 14.6348 7.45709C14.301 7.25757 14.134 6.98992 14.134 6.65414C14.134 6.25997 14.4139 5.92175 14.9736 5.63951C15.5432 5.35726 16.2845 5.1772 17.1978 5.09934V4.68327C17.1978 4.55188 17.2812 4.44725 17.4482 4.36939C17.6151 4.28666 17.8262 4.2453 18.0816 4.2453C18.3467 4.2453 18.5578 4.28666 18.7149 4.36939C18.8819 4.44725 18.9653 4.55188 18.9653 4.68327V5.08474C19.8491 5.14314 20.6789 5.3086 21.4546 5.58111C21.6019 5.62977 21.705 5.68574 21.7639 5.749C21.8327 5.81226 21.8671 5.88769 21.8671 5.97528C21.8671 6.09694 21.7885 6.204 21.6314 6.29646C21.4841 6.38892 21.3122 6.43515 21.1158 6.43515C21.0078 6.43515 20.9047 6.42785 20.8065 6.41326C20.7181 6.39866 20.5905 6.36702 20.4236 6.31836C20.0209 6.19184 19.6576 6.09694 19.3336 6.03368C19.0193 5.97042 18.6315 5.93879 18.1699 5.93879C17.6397 5.93879 17.2125 5.99718 16.8885 6.11398C16.5742 6.23077 16.4171 6.38649 16.4171 6.58114C16.4171 6.7174 16.5104 6.82933 16.697 6.91692C16.8835 6.99965 17.1192 7.06535 17.404 7.11401C17.6888 7.16267 18.0865 7.21863 18.5971 7.2819C19.3139 7.36949 19.8982 7.45952 20.3499 7.55198C20.8114 7.63957 21.2042 7.78313 21.5283 7.98265C21.8621 8.1773 22.0291 8.44009 22.0291 8.771Z" fill="#6B61FC"/>
</svg>
