<svg width="30" height="40" viewBox="0 0 30 40" fill="none" xmlns="http://www.w3.org/2000/svg">
<path d="M20.3133 13.5526L17.1328 13.0908L15.7103 10.208C15.6334 10.0522 15.5073 9.92616 15.3515 9.84919C14.9602 9.65594 14.4863 9.81655 14.293 10.208L12.8705 13.0908L9.68913 13.5526C9.51692 13.5775 9.35773 13.6584 9.23627 13.783C8.93144 14.0954 8.93769 14.5958 9.25009 14.9005L11.5516 17.144L11.008 20.3122C11.0004 20.3563 10.9967 20.4009 10.9967 20.4456C10.9967 20.8821 11.3505 21.2359 11.7869 21.2359C11.9154 21.235 12.0416 21.2028 12.1549 21.1419L15 19.6492L17.845 21.1419C17.9988 21.2235 18.1752 21.2519 18.3468 21.223C18.7771 21.1503 19.0671 20.7426 18.9945 20.3122L18.4509 17.144L20.7524 14.9005C20.8769 14.779 20.9579 14.6199 20.9828 14.4476C21.0449 14.0156 20.7453 13.6149 20.3133 13.5526ZM17.0485 16.2957C16.8613 16.4779 16.7762 16.7408 16.8211 16.9982L17.1636 18.9977L15.3679 18.0537C15.2542 17.9951 15.1279 17.9649 15 17.9658C14.8715 17.9668 14.7453 17.999 14.632 18.0598L12.8363 19.0038L13.1797 17.0044C13.2246 16.747 13.1395 16.4841 12.9523 16.3019L11.4999 14.8855L13.5072 14.594C13.7646 14.5567 13.9872 14.3952 14.1025 14.162L15 12.3426L15.8974 14.162C16.0126 14.3952 16.2353 14.5568 16.4928 14.594L18.5009 14.8803L17.0485 16.2957Z" fill="white"/>
<path d="M15 5.39233C9.32018 5.39233 4.71576 9.99676 4.71576 15.6765C4.71576 21.3563 9.32018 25.9607 15 25.9607C20.6771 25.9544 25.2779 21.3537 25.2842 15.6765C25.2842 9.99676 20.6797 5.39233 15 5.39233ZM15 24.3802C10.1931 24.3802 6.29632 20.4834 6.29632 15.6765C6.29632 10.8697 10.1931 6.97289 15 6.97289C19.8047 6.97824 23.6982 10.8719 23.7036 15.6765C23.7036 20.4835 19.8068 24.3802 15 24.3802Z" fill="white"/>
<path d="M29.4744 17.8077L27.9957 18.367C28.2258 18.9755 28.5121 19.7325 28.4137 20.0354C28.303 20.3761 27.6331 20.8126 27.0412 21.198C26.3387 21.6564 25.5397 22.1762 24.9908 22.9313C24.442 23.6865 24.183 24.6217 23.9608 25.4383C23.7852 26.0802 23.5692 26.8793 23.2891 27.083C23.009 27.2867 22.1976 27.2419 21.5329 27.2103C20.6838 27.1699 19.7214 27.1225 18.8161 27.4193C17.938 27.7038 17.2083 28.2974 16.562 28.8181C16.008 29.266 15.3792 29.7735 15.0008 29.7735C14.6224 29.7735 13.9936 29.266 13.4387 28.8164C12.7924 28.2939 12.0602 27.7021 11.1856 27.4185C10.6851 27.256 10.124 27.1806 9.4189 27.1806C9.09312 27.1806 8.77439 27.1955 8.46707 27.2104C7.80766 27.242 6.98747 27.2807 6.71618 27.0831C6.44489 26.8855 6.21917 26.0785 6.04357 25.4366C5.82142 24.6191 5.57029 23.6936 5.01442 22.9296C4.45855 22.1657 3.66743 21.6555 2.96316 21.1963C2.37225 20.8109 1.70223 20.3744 1.59156 20.0338C1.49319 19.7326 1.78035 18.9748 2.01044 18.3654C2.31517 17.5601 2.65932 16.6478 2.65932 15.6766C2.65932 14.7054 2.31419 13.7931 2.00955 12.9879C1.77946 12.3794 1.49319 11.6216 1.59066 11.3195C1.70134 10.9788 2.37127 10.5424 2.96316 10.156C3.66564 9.69765 4.46382 9.17782 5.01353 8.42361C5.56324 7.66932 5.82133 6.73327 6.04357 5.91664C6.21917 5.27471 6.43517 4.47565 6.71529 4.27196C6.9954 4.06827 7.80677 4.11304 8.46707 4.14461C9.31616 4.18501 10.2795 4.23245 11.1891 3.93566C12.0672 3.65117 12.796 3.05758 13.4432 2.53685C13.9929 2.08729 14.6216 1.58056 15 1.58056C15.3784 1.58056 16.0073 2.0872 16.5612 2.53676C17.2075 3.05918 17.9398 3.65108 18.8153 3.93557C19.7215 4.22969 20.6847 4.18403 21.5374 4.14452C22.1968 4.11375 23.017 4.07514 23.2883 4.27187C23.5596 4.4686 23.7809 5.27373 23.9565 5.91655C24.1787 6.73407 24.4298 7.6596 24.9857 8.42352C25.5415 9.18745 26.3327 9.69855 27.0369 10.1568C27.6279 10.5423 28.2978 10.9787 28.4094 11.3194C28.5078 11.6215 28.2206 12.3792 27.9905 12.9878C27.6858 13.793 27.3408 14.7062 27.3408 15.6765C27.3408 16.6468 27.6859 17.56 27.9905 18.3653L28.7298 18.086L29.4692 17.8068C29.1873 17.0622 28.9212 16.3589 28.9212 15.6765C28.9212 14.9942 29.1847 14.2909 29.4683 13.5463C29.8344 12.5803 30.1813 11.661 29.9117 10.8312C29.6281 9.95931 28.7491 9.38677 27.8991 8.83269C27.2845 8.42968 26.6417 8.01347 26.2633 7.49363C25.8848 6.97379 25.6767 6.22128 25.4809 5.50212C25.2042 4.48528 24.9435 3.52462 24.2138 2.99426C23.4841 2.4639 22.505 2.5166 21.4584 2.56574C20.7093 2.60088 19.934 2.63771 19.3027 2.43224C18.7056 2.23818 18.1199 1.7649 17.5544 1.3074C16.7561 0.664757 15.9377 0 15 0C14.0622 0 13.2438 0.664757 12.4447 1.30838C11.8792 1.76588 11.2936 2.23827 10.6964 2.43233C10.0651 2.63691 9.32392 2.60266 8.54074 2.56583C7.49402 2.51669 6.50535 2.47014 5.78441 2.99435C5.06347 3.51856 4.79396 4.48706 4.51732 5.50302C4.32148 6.22217 4.11958 6.96594 3.73494 7.49452C3.3503 8.0231 2.71809 8.43057 2.09909 8.83358C1.2491 9.38766 0.370131 9.9602 0.0865345 10.8321C-0.18306 11.662 0.163765 12.5778 0.529943 13.5481C0.810953 14.2927 1.07698 14.996 1.07698 15.6774C1.07698 16.3589 0.81354 17.0621 0.529943 17.8077C0.163765 18.7736 -0.18306 19.6939 0.0865345 20.5227C0.370131 21.3956 1.2491 21.9681 2.09909 22.5222C2.71372 22.9252 3.35654 23.3414 3.73405 23.8612C4.11164 24.3811 4.32059 25.1336 4.51643 25.8527C4.68499 26.4744 4.84926 27.0751 5.11796 27.5694L1.91644 35.7568C1.7577 36.1633 1.95863 36.6216 2.3652 36.7804C2.48631 36.8276 2.61723 36.8443 2.74627 36.8289L7.22451 36.2933L10.1495 39.7231C10.433 40.0549 10.9319 40.0941 11.2637 39.8105C11.3635 39.7252 11.4405 39.6164 11.4877 39.4939L14.6796 31.3277C14.8921 31.3631 15.109 31.3631 15.3215 31.3277L18.5125 39.4939C18.6715 39.9004 19.1299 40.101 19.5364 39.9419C19.6577 39.8945 19.7653 39.8178 19.8499 39.7187L22.7749 36.2889L27.2531 36.8245C27.6865 36.8758 28.0794 36.5659 28.1307 36.1325C28.1458 36.0053 28.1297 35.8764 28.0838 35.7568L24.8811 27.5677C25.1498 27.0734 25.313 26.4727 25.4826 25.851C25.6775 25.1319 25.8794 24.3881 26.265 23.8595C26.6504 23.331 27.2818 22.9235 27.9008 22.5205C28.7508 21.9664 29.6307 21.3939 29.9134 20.5219C30.183 19.6921 29.837 18.7771 29.4744 17.8077ZM10.4926 37.693L8.15075 34.9454C7.97898 34.7443 7.71795 34.6424 7.45531 34.6741L3.86916 35.1035L6.38844 28.6601C7.01627 28.8603 7.76174 28.8251 8.53975 28.7883C8.8295 28.7742 9.12897 28.7602 9.41783 28.7602C9.95167 28.7602 10.3582 28.8111 10.6963 28.9209C11.2934 29.115 11.8783 29.5874 12.4446 30.0458C12.7081 30.2574 12.9715 30.4708 13.2419 30.6604L10.4926 37.693ZM26.1306 35.1035L22.5453 34.6741C22.2826 34.6427 22.0215 34.7448 21.8499 34.9463L19.5071 37.6939L16.756 30.6621C17.0265 30.4707 17.2916 30.2573 17.5533 30.0475C18.1188 29.59 18.7045 29.1176 19.3016 28.9235C19.9321 28.7189 20.6723 28.7532 21.4582 28.79C22.244 28.8269 22.9817 28.8611 23.6095 28.6618L26.1306 35.1035Z" fill="white"/>
</svg>
