<svg width="34" height="40" viewBox="0 0 34 40" fill="none" xmlns="http://www.w3.org/2000/svg">
<path d="M23.6667 28.3333H27C27.221 28.3333 27.433 28.2455 27.5893 28.0893C27.7455 27.933 27.8333 27.721 27.8333 27.5C27.8333 27.279 27.7455 27.067 27.5893 26.9107C27.433 26.7545 27.221 26.6667 27 26.6667H25.3333V25.8333C25.3333 25.6123 25.2455 25.4004 25.0893 25.2441C24.933 25.0878 24.721 25 24.5 25C24.279 25 24.067 25.0878 23.9107 25.2441C23.7545 25.4004 23.6667 25.6123 23.6667 25.8333V26.6667C23.0036 26.6667 22.3677 26.9301 21.8989 27.3989C21.4301 27.8677 21.1667 28.5036 21.1667 29.1667C21.1667 29.8297 21.4301 30.4656 21.8989 30.9344C22.3677 31.4033 23.0036 31.6667 23.6667 31.6667H25.3333C25.5544 31.6667 25.7663 31.7545 25.9226 31.9107C26.0789 32.067 26.1667 32.279 26.1667 32.5C26.1667 32.721 26.0789 32.933 25.9226 33.0893C25.7663 33.2455 25.5544 33.3333 25.3333 33.3333H22C21.779 33.3333 21.567 33.4211 21.4107 33.5774C21.2545 33.7337 21.1667 33.9457 21.1667 34.1667C21.1667 34.3877 21.2545 34.5996 21.4107 34.7559C21.567 34.9122 21.779 35 22 35H23.6667V35.8333C23.6667 36.0543 23.7545 36.2663 23.9107 36.4226C24.067 36.5789 24.279 36.6667 24.5 36.6667C24.721 36.6667 24.933 36.5789 25.0893 36.4226C25.2455 36.2663 25.3333 36.0543 25.3333 35.8333V35C25.9964 35 26.6323 34.7366 27.1011 34.2678C27.5699 33.7989 27.8333 33.163 27.8333 32.5C27.8333 31.837 27.5699 31.2011 27.1011 30.7322C26.6323 30.2634 25.9964 30 25.3333 30H23.6667C23.4457 30 23.2337 29.9122 23.0774 29.7559C22.9211 29.5996 22.8333 29.3877 22.8333 29.1667C22.8333 28.9457 22.9211 28.7337 23.0774 28.5774C23.2337 28.4211 23.4457 28.3333 23.6667 28.3333Z" fill="white"/>
<path d="M22.8333 21.825V9.16665C25.0917 9.16665 25.8333 9.36665 26.1083 8.63332C26.3833 7.89998 26.3583 8.13332 17.5583 0.216652C17.4052 0.0784522 17.2063 0.00195313 17 0.00195313C16.7937 0.00195312 16.5948 0.0784522 16.4417 0.216652L8.10834 7.71665C7.984 7.82966 7.89673 7.97762 7.85798 8.1411C7.81922 8.30459 7.83079 8.47597 7.89117 8.63277C7.95154 8.78957 8.0579 8.92445 8.1963 9.01972C8.33469 9.115 8.49865 9.16621 8.66667 9.16665H11.1667V18.3333H2.41667C1.86414 18.3333 1.33423 18.5528 0.94353 18.9435C0.55283 19.3342 0.333336 19.8641 0.333336 20.4167C0.333336 23.2417 0.24167 23.4833 0.758336 24.1667C0.225003 24.875 0.333336 25.2167 0.333336 27.9167C0.336338 28.3683 0.485435 28.8068 0.758336 29.1667C0.485435 29.5265 0.336338 29.965 0.333336 30.4167C0.333336 33.2416 0.24167 33.4833 0.758336 34.1667C0.225003 34.875 0.333336 35.2167 0.333336 37.9167C0.333336 38.1902 0.387223 38.4611 0.49192 38.7139C0.596618 38.9667 0.750075 39.1963 0.94353 39.3898C1.13699 39.5832 1.36665 39.7367 1.61941 39.8414C1.87217 39.9461 2.14308 40 2.41667 40H16.5833C16.8583 40 17.1306 39.9456 17.3845 39.8398C17.6383 39.7341 17.8687 39.5791 18.0624 39.3839C18.2561 39.1887 18.4092 38.9571 18.5129 38.7024C18.6166 38.4477 18.6689 38.175 18.6667 37.9C19.855 38.8831 21.2721 39.5505 22.7869 39.8403C24.3017 40.1302 25.8651 40.0332 27.3324 39.5583C28.7998 39.0834 30.1235 38.246 31.1812 37.1236C32.2389 36.0011 32.9963 34.63 33.3833 33.137C33.7702 31.6441 33.7743 30.0777 33.395 28.5828C33.0157 27.0879 32.2654 25.7129 31.2135 24.585C30.1617 23.4571 28.8422 22.6129 27.3773 22.1304C25.9125 21.648 24.3496 21.5429 22.8333 21.825ZM12 7.49999H10.8417L17 1.95832L23.1583 7.49999H22C21.779 7.49999 21.567 7.58778 21.4107 7.74406C21.2545 7.90034 21.1667 8.1123 21.1667 8.33332V22.3C20.0945 22.7358 19.1136 23.369 18.275 24.1667C18.7917 23.4417 18.6667 23 18.6667 20.4583C18.6722 20.1812 18.6224 19.9058 18.5202 19.6483C18.418 19.3907 18.2654 19.1561 18.0714 18.9582C17.8774 18.7603 17.6459 18.6031 17.3903 18.4958C17.1348 18.3885 16.8605 18.3333 16.5833 18.3333H12.8333V8.33332C12.8333 8.1123 12.7455 7.90034 12.5893 7.74406C12.433 7.58778 12.221 7.49999 12 7.49999ZM2 32.9167C2 30.4167 1.86667 30 2.41667 30H15.375C15.2652 31.1211 15.3727 32.2529 15.6917 33.3333C1.54167 33.3333 2 33.5083 2 32.9167ZM2 27.9167C2 25.4167 1.86667 25 2.41667 25C17.3667 25 17 24.8167 17 25.4167C17 25.8333 16.2583 26.325 15.6917 28.3333C1.54167 28.3333 2 28.5083 2 27.9167ZM2 20.4167C2 19.8167 1.41667 20 16.5833 20C17.1333 20 17 20.4333 17 22.9167C17 23.5167 17.5833 23.3333 2.41667 23.3333C1.86667 23.3333 2 22.9 2 20.4167ZM16.5833 38.3333C1.63334 38.3333 2 38.5167 2 37.9167C2 35.4167 1.86667 35 2.41667 35H16.35C16.5388 35.3771 16.7561 35.7393 17 36.0833C17 37.8666 17.1083 38.3333 16.5833 38.3333ZM24.5 38.3333C23.0166 38.3333 21.5666 37.8935 20.3332 37.0693C19.0999 36.2452 18.1386 35.0739 17.5709 33.7034C17.0032 32.333 16.8547 30.825 17.1441 29.3701C17.4335 27.9153 18.1478 26.5789 19.1967 25.53C20.2456 24.4811 21.582 23.7668 23.0368 23.4774C24.4917 23.188 25.9997 23.3366 27.3701 23.9042C28.7406 24.4719 29.9119 25.4332 30.736 26.6665C31.5601 27.8999 32 29.35 32 30.8333C32 32.8224 31.2098 34.7301 29.8033 36.1366C28.3968 37.5431 26.4891 38.3333 24.5 38.3333Z" fill="white"/>
</svg>
