<svg width="23" height="41" viewBox="0 0 23 41" fill="none" xmlns="http://www.w3.org/2000/svg">
<path d="M22.3591 19.6311C22.2157 19.5467 22.042 19.4822 21.8669 19.4242C21.8656 19.423 21.8656 19.423 21.8644 19.423C21.8446 19.415 21.8259 19.4071 21.8051 19.3993C21.4643 19.2608 21.1208 19.1295 20.7747 19.0053C20.8185 18.9447 20.7787 18.8616 20.7244 18.7814C20.7887 18.7763 20.851 18.7561 20.906 18.7226C20.9563 18.7265 21.0068 18.7181 21.053 18.6981C21.0993 18.6782 21.1399 18.6472 21.1713 18.608C21.2747 18.5961 21.3529 18.5578 21.4591 18.4802C21.4625 18.4776 21.4649 18.4741 21.4661 18.4701C21.4672 18.466 21.4671 18.4618 21.4656 18.4578C21.0173 17.7437 19.7877 17.5909 18.9981 17.7674C18.5791 17.3948 18.2038 16.9795 17.8522 16.5394C17.5447 16.1574 17.274 15.7001 16.9094 15.3589C16.8046 15.0099 16.6959 14.6502 16.5062 14.3537C16.2794 13.9967 16.0182 13.6766 15.79 13.3274C15.7147 12.569 15.5312 11.825 15.245 11.118C14.9862 10.4828 14.5486 10.222 13.9465 9.95062C13.6573 9.73491 13.2607 9.72001 12.8576 9.66608C12.8549 9.65412 12.8523 9.64235 12.8497 9.62922C12.8497 9.45136 12.8523 9.2735 12.8869 9.09682C13.7621 8.7162 14.1502 7.9375 14.2025 7.03115C14.2635 6.72269 14.3032 6.41305 14.3012 6.10479C14.609 5.26962 14.6607 4.42112 14.1992 3.60281C13.8079 2.91256 13.2516 2.31701 12.5122 2.03405C12.8306 1.60264 13.2177 0.83257 12.8717 0.372726C12.4911 -0.134377 11.2005 0.001322 10.6886 0.067014C10.43 0.099958 10.1162 0.167217 9.85835 0.305661L9.83447 0.317428C9.77435 0.347132 9.71857 0.384798 9.66865 0.429398C9.66369 0.434128 9.65842 0.438519 9.65286 0.442537C9.49494 0.575686 9.38617 0.753545 9.37295 0.989448C9.34649 1.42419 9.72432 1.84835 10.1231 2.11856C9.53087 2.56115 9.00223 3.03276 8.83247 3.78537C8.69587 4.39543 8.71719 5.29001 8.96788 5.94242C8.9487 5.94081 8.92938 5.9426 8.91083 5.94772C8.68007 6.01361 8.70515 6.4009 8.74759 6.56954C8.78707 6.72112 8.86168 6.82446 8.95466 6.94761C9.12837 7.18077 9.18127 7.4153 9.32182 7.65787C9.43335 7.85024 9.57528 7.9128 9.75432 7.8975C9.8439 8.20353 9.94973 8.50463 10.0713 8.79954C9.60706 9.29743 9.08988 9.58392 8.47044 9.88238C8.14019 10.0418 7.90548 10.2224 7.67729 10.5162C7.29275 11.0115 6.8565 11.6414 6.67055 12.2844C6.26608 12.9048 5.87207 13.5082 5.34284 14.0365C5.07774 14.3 4.8296 14.5569 4.63477 14.8587C4.21569 15.3672 3.84301 15.9074 3.46222 16.4449C3.22218 16.7822 2.98261 17.1195 2.74349 17.4568C2.59485 17.665 2.41581 17.8686 2.29243 18.0931C2.23276 18.1517 2.17616 18.2133 2.12287 18.2776C1.74208 18.4133 1.3615 18.6531 1.13725 18.9455C0.900375 19.254 0.953081 19.5534 1.10547 19.856C0.950317 20.1537 0.80049 20.4541 0.6479 20.7439C0.446356 20.9773 0.272841 21.2302 0.155981 21.5161C0.0511616 21.7664 -0.130445 22.3005 0.146703 22.5107C0.149269 22.5124 0.152249 22.5132 0.155291 22.5132C0.158333 22.5132 0.161311 22.5124 0.163877 22.5107C0.186588 22.501 0.207276 22.4872 0.224875 22.4699C0.256656 22.5543 0.316468 22.6109 0.426419 22.5978C0.597564 22.5782 0.658559 22.458 0.689156 22.3184C0.724885 22.3644 0.781934 22.3772 0.877476 22.3237C0.983479 22.2631 1.07231 22.0168 1.12936 21.914C1.20832 21.7664 1.28195 21.6161 1.3465 21.463C1.44066 21.2391 1.51369 21.0137 1.63292 20.8159C1.88954 21.2849 2.19926 21.7571 2.63295 21.9173C3.05479 22.7053 4.16358 23.1967 5.08267 23.0635C5.61308 23.6669 6.78958 23.551 7.60524 23.2863C7.64008 23.322 7.67727 23.3554 7.71657 23.3863C7.83994 25.2492 8.47774 27.016 8.92742 28.8211C8.82655 29.3798 8.72725 29.9239 8.66093 30.4683C8.65678 30.4838 8.65452 30.4997 8.65421 30.5157C8.63033 30.6673 8.61178 30.8175 8.59717 30.9689C8.57303 31.2231 8.56683 31.4786 8.57861 31.7337C8.57983 32.1097 8.61085 32.4851 8.67139 32.8563C8.81608 33.7284 8.99236 34.582 9.05336 35.4675C9.08257 35.8793 9.10922 36.2817 9.1718 36.6796C8.97696 37.6638 8.73949 38.7561 8.79121 39.7442C8.82043 40.3186 9.05652 40.7851 9.64792 40.9365C10.1347 41.0618 10.9371 41.0327 11.2421 40.5639C11.4987 40.1685 11.4079 39.5691 11.2688 39.0606V39.0592C11.2592 38.903 11.2596 38.7463 11.27 38.5902C12.0937 38.8141 12.8509 39.303 13.6905 39.4216C14.1587 39.4889 15.0353 39.4848 15.3563 39.0475C15.5871 38.7337 15.4092 38.328 15.1666 38.0856C14.5632 37.4809 13.5724 37.0961 12.8403 36.6694C12.8379 36.6679 12.8352 36.667 12.8324 36.6667C12.6095 36.527 12.3748 36.4117 12.2382 36.3413C12.2025 36.1674 12.1705 35.9935 12.1652 35.8129C12.1612 35.6903 12.1586 35.5705 12.1519 35.4519C12.2309 34.7982 12.2897 34.1421 12.3284 33.4836C12.5255 32.496 12.6131 31.4899 12.5896 30.4834C12.8032 29.9314 13.0167 29.3741 13.1255 28.7944C13.4198 28.2569 13.7011 27.7127 13.9198 27.1462C14.2872 26.1975 14.4651 25.1949 14.6121 24.1922C14.849 24.153 15.0859 24.0975 15.3164 24.0369C15.3228 24.0364 15.329 24.035 15.335 24.0328C15.4716 24.0012 15.6082 23.9683 15.7436 23.9348C16.6203 24.3154 17.4399 24.1138 18.2474 23.745C18.8696 23.8306 19.491 23.7924 20.0937 23.5975C20.3085 23.5277 20.6373 23.4314 20.8071 23.2733C20.8551 23.23 20.8939 23.1776 20.9212 23.1192C21.0199 23.0902 21.1176 23.0572 21.2157 23.0212C21.6387 22.9196 22.1632 22.776 22.4041 22.4625C22.591 22.2174 22.6879 21.8262 22.6984 21.4651V21.4638C22.8602 21.2636 22.953 20.9961 22.9876 20.7116C23.0634 20.0962 22.7848 19.8366 22.3591 19.6311ZM5.16795 17.3728C5.43858 17.1146 5.7025 16.8538 5.97432 16.6008C6.33912 16.3927 6.67332 16.1398 6.95046 15.8051C7.32315 15.3572 7.64412 14.8669 7.9266 14.3557C8.15874 14.9328 8.31252 15.5297 8.44122 16.1402C8.47577 16.3035 8.49156 16.6039 8.53992 16.8622C7.39876 16.8905 6.26578 17.0621 5.16795 17.3728ZM15.0859 17.2411C15.0725 17.0355 15.0474 16.8293 15.0353 16.6724C15.0328 16.6224 15.03 16.5775 15.03 16.5392V15.7278C15.5825 16.492 16.228 17.1855 16.9519 17.7923C16.3285 17.6087 15.7051 17.4281 15.0859 17.2411Z" fill="#6B2AE6"/>
</svg>
