<svg width="26" height="40" viewBox="0 0 26 40" fill="none" xmlns="http://www.w3.org/2000/svg">
<path d="M17.3341 23.5828C16.4652 24.9779 16.0051 26.5841 16.0051 28.2224C16.0051 29.8607 16.4652 31.4669 17.3341 32.8621H8.66797C9.53685 31.4669 9.99689 29.8607 9.99689 28.2224C9.99689 26.5841 9.53685 24.9779 8.66797 23.5828H17.3341Z" fill="#6B61FC"/>
<path d="M25.941 10.3063L25.3726 12.4034C25.2939 12.6938 25.2939 12.9995 25.3726 13.2899L25.941 15.387C26.0195 15.6774 26.0195 15.983 25.9408 16.2733C25.862 16.5636 25.7074 16.8283 25.4925 17.0409L23.9391 18.5763C23.7242 18.7891 23.5696 19.0539 23.4906 19.3443L22.9223 21.4414C22.8437 21.7325 22.6888 21.998 22.4732 22.211C22.2577 22.4241 21.9891 22.5772 21.6946 22.6549L19.5728 23.2166C19.279 23.2942 19.0112 23.4471 18.7965 23.6599L17.2431 25.1952C17.0279 25.4078 16.76 25.5607 16.4661 25.6385C16.1723 25.7163 15.8629 25.7163 15.5691 25.6385L13.4473 25.0768C13.1535 24.999 12.8442 24.999 12.5504 25.0768L10.4286 25.6385C10.1348 25.7163 9.82539 25.7163 9.53154 25.6385C9.23769 25.5607 8.96974 25.4078 8.75462 25.1952L7.20121 23.6599C6.98646 23.4471 6.71864 23.2942 6.42488 23.2166L4.30529 22.6549C4.01077 22.5772 3.74218 22.4241 3.52663 22.211C3.31108 21.998 3.15619 21.7325 3.07759 21.4414L2.50924 19.3443C2.43029 19.0539 2.27565 18.7891 2.06077 18.5763L0.507368 17.043C0.292406 16.8305 0.137806 16.5658 0.0590872 16.2755C-0.0196313 15.9852 -0.0196967 15.6795 0.0588971 15.3892L0.627249 13.2921C0.705951 13.0017 0.705951 12.6959 0.627249 12.4055L0.0610631 10.3063C-0.017666 10.0158 -0.0176693 9.71004 0.0610528 9.41961C0.139775 9.12917 0.29445 8.86433 0.509534 8.6517L2.06293 7.11633C2.27782 6.9035 2.43246 6.63867 2.51141 6.3483L3.07976 4.25118C3.15836 3.96007 3.31325 3.6946 3.5288 3.48156C3.74435 3.26851 4.01293 3.11542 4.30746 3.03773L6.42921 2.48026C6.72297 2.40267 6.99079 2.24976 7.20555 2.03699L8.75895 0.501628C8.97408 0.289041 9.24203 0.136162 9.53587 0.0583535C9.82972 -0.0194548 10.1391 -0.0194511 10.433 0.058364L12.5547 0.620832C12.8485 0.698619 13.1578 0.698619 13.4516 0.620832L15.5734 0.058364C15.8672 -0.0194511 16.1766 -0.0194548 16.4705 0.0583535C16.7643 0.136162 17.0323 0.289041 17.2474 0.501628L18.8008 2.03699C19.0156 2.24976 19.2834 2.40267 19.5771 2.48026L21.6989 3.04273C21.9934 3.12042 22.262 3.27351 22.4776 3.48655C22.6931 3.6996 22.848 3.96507 22.9266 4.25617L23.4949 6.35329C23.5739 6.64367 23.7285 6.9085 23.9434 7.12133L25.4946 8.65384C25.709 8.86649 25.863 9.13106 25.9414 9.42107C26.0197 9.71108 26.0195 10.0163 25.941 10.3063Z" fill="white"/>
<path d="M22.3889 12.8758C22.3889 14.7111 21.8383 16.5052 20.8067 18.0311C19.7751 19.5571 18.3088 20.7465 16.5933 21.4488C14.8778 22.1511 12.9902 22.3349 11.169 21.9768C9.34788 21.6188 7.67505 20.735 6.36207 19.4373C5.0491 18.1396 4.15495 16.4862 3.7927 14.6861C3.43045 12.8861 3.61637 11.0204 4.32695 9.32482C5.03753 7.62925 6.24085 6.18002 7.78474 5.1604C9.32864 4.14078 11.1438 3.59656 13.0006 3.59656C15.4905 3.59656 17.8785 4.57419 19.6391 6.3144C21.3998 8.0546 22.3889 10.4148 22.3889 12.8758Z" fill="#6B61FC"/>
<path d="M13.3341 7.46614L14.8131 10.9637L18.6406 11.2721C18.7117 11.2776 18.7796 11.3039 18.8356 11.3476C18.8916 11.3912 18.9333 11.4503 18.9554 11.5173C18.9775 11.5844 18.979 11.6564 18.9598 11.7243C18.9405 11.7922 18.9013 11.8529 18.8471 11.8988L15.9332 14.3749L16.8186 18.0667C16.835 18.1352 16.8305 18.207 16.8057 18.273C16.7809 18.3391 16.7369 18.3964 16.6792 18.4378C16.6216 18.4791 16.5528 18.5027 16.4816 18.5055C16.4104 18.5083 16.3399 18.4902 16.2791 18.4535L13.0011 16.4792L9.72318 18.4521C9.66235 18.4888 9.59189 18.5069 9.52069 18.5041C9.44948 18.5013 9.38071 18.4777 9.32303 18.4363C9.26535 18.395 9.22135 18.3377 9.19656 18.2716C9.17176 18.2056 9.1673 18.1338 9.18371 18.0652L10.0691 14.3749L7.15729 11.9031C7.10313 11.8572 7.06395 11.7964 7.04467 11.7286C7.0254 11.6607 7.02691 11.5886 7.04901 11.5216C7.0711 11.4546 7.1128 11.3955 7.16883 11.3518C7.22486 11.3082 7.29271 11.2819 7.36383 11.2764L11.1914 10.968L12.6704 7.47042C12.6978 7.40607 12.7437 7.35109 12.8025 7.31228C12.8612 7.27347 12.9301 7.25254 13.0008 7.25208C13.0714 7.25163 13.1407 7.27166 13.1999 7.30971C13.2591 7.34776 13.3058 7.40215 13.3341 7.46614Z" fill="white"/>
<path d="M19.5001 33.5759V36.4311H6.50098V33.5759C6.50098 33.1973 6.65315 32.8342 6.92402 32.5664C7.19489 32.2987 7.56226 32.1483 7.94533 32.1483H18.0558C18.4389 32.1483 18.8062 32.2987 19.0771 32.5664C19.348 32.8342 19.5001 33.1973 19.5001 33.5759Z" fill="white"/>
<path d="M23.1115 37.1449V40H2.89062V37.1449C2.89062 36.7662 3.0428 36.4031 3.31367 36.1354C3.58453 35.8677 3.95191 35.7173 4.33498 35.7173H21.6672C22.0503 35.7173 22.4176 35.8677 22.6885 36.1354C22.9594 36.4031 23.1115 36.7662 23.1115 37.1449Z" fill="#6B61FC"/>
</svg>
