<svg width="50" height="40" viewBox="0 0 50 40" fill="none" xmlns="http://www.w3.org/2000/svg">
<path d="M41.7021 18.7234C39.6707 18.7234 37.7224 19.5304 36.286 20.9668C34.8495 22.4033 34.0426 24.3515 34.0426 26.383C34.0426 29.8894 38.9872 36.2979 40.6043 38.2979H32.3404V1.70213H34.8936V0H4.25532V1.70213H6.80851V38.2979H5.10638V26.383H0.851064C0.625348 26.383 0.408876 26.4726 0.249271 26.6322C0.0896654 26.7919 0 27.0083 0 27.234V39.1489C0 39.3747 0.0896654 39.5911 0.249271 39.7507C0.408876 39.9103 0.625348 40 0.851064 40H49.3617V38.2979H42.8C44.417 36.2979 49.3617 29.8894 49.3617 26.383C49.3617 24.3515 48.5547 22.4033 47.1183 20.9668C45.6818 19.5304 43.7336 18.7234 41.7021 18.7234ZM20.4255 5.10638H23.8298V6.80851H20.4255V5.10638ZM20.4255 9.3617H23.8298V11.0638H20.4255V9.3617ZM20.4255 13.617H23.8298V15.3191H20.4255V13.617ZM20.4255 17.8723H23.8298V19.5745H20.4255V17.8723ZM20.4255 22.1277H23.8298V23.8298H20.4255V22.1277ZM10.2128 5.10638H13.617V6.80851H10.2128V5.10638ZM10.2128 9.3617H13.617V11.0638H10.2128V9.3617ZM10.2128 13.617H13.617V15.3191H10.2128V13.617ZM10.2128 17.8723H13.617V19.5745H10.2128V17.8723ZM10.2128 22.1277H13.617V23.8298H10.2128V22.1277ZM18.7234 38.2979H13.617V30.6383C13.617 30.4126 13.7067 30.1961 13.8663 30.0365C14.0259 29.8769 14.2424 29.7872 14.4681 29.7872H18.7234V38.2979ZM18.7234 23.8298H15.3191V22.1277H18.7234V23.8298ZM18.7234 19.5745H15.3191V17.8723H18.7234V19.5745ZM18.7234 15.3191H15.3191V13.617H18.7234V15.3191ZM18.7234 11.0638H15.3191V9.3617H18.7234V11.0638ZM18.7234 6.80851H15.3191V5.10638H18.7234V6.80851ZM25.5319 38.2979H20.4255V29.7872H24.6809C24.9066 29.7872 25.123 29.8769 25.2826 30.0365C25.4423 30.1961 25.5319 30.4126 25.5319 30.6383V38.2979ZM28.9362 23.8298H25.5319V22.1277H28.9362V23.8298ZM28.9362 19.5745H25.5319V17.8723H28.9362V19.5745ZM28.9362 15.3191H25.5319V13.617H28.9362V15.3191ZM28.9362 11.0638H25.5319V9.3617H28.9362V11.0638ZM28.9362 6.80851H25.5319V5.10638H28.9362V6.80851ZM41.7021 28.9362C41.1972 28.9362 40.7035 28.7864 40.2837 28.5059C39.8638 28.2253 39.5365 27.8266 39.3433 27.36C39.15 26.8935 39.0995 26.3801 39.198 25.8849C39.2965 25.3896 39.5397 24.9347 39.8968 24.5776C40.2538 24.2205 40.7088 23.9774 41.204 23.8788C41.6993 23.7803 42.2127 23.8309 42.6792 24.0241C43.1457 24.2174 43.5445 24.5446 43.825 24.9645C44.1056 25.3844 44.2553 25.878 44.2553 26.383C44.2553 27.0601 43.9863 27.7095 43.5075 28.1884C43.0287 28.6672 42.3793 28.9362 41.7021 28.9362Z" fill="white"/>
</svg>
