<svg width="17" height="20" viewBox="0 0 17 20" fill="none" xmlns="http://www.w3.org/2000/svg">
<g clip-path="url(#clip0_66_367)">
<path d="M14.1271 10.5713C14.1271 8.92316 15.0589 7.48538 16.4413 6.7239C15.7195 5.86761 14.6336 5.1002 13.4367 4.87501C11.8045 4.56761 10.8735 5.07946 10.2712 5.28464C9.6689 5.48983 8.8689 5.67427 8.8689 5.67427C8.8689 5.67427 8.06967 5.48983 7.4666 5.28464C6.86507 5.07946 5.93403 4.56687 4.30185 4.87427C2.66967 5.18168 1.24438 6.49798 0.665068 7.67131C-0.452174 9.93575 0.00759654 12.7846 0.796869 14.8335C1.58537 16.8832 3.67043 19.7469 5.28729 19.9772C6.43748 20.1409 7.14936 19.3728 8.8689 19.178C10.5884 19.3728 11.3003 20.1409 12.4505 19.9772C14.0674 19.7469 16.1524 16.8832 16.9409 14.8335C16.9601 14.7832 16.98 14.7313 16.9992 14.6795C15.3156 14.0261 14.1271 12.4328 14.1271 10.5713ZM8.46047 4.5002C8.46047 4.5002 10.0597 4.70538 11.5118 3.11131C12.9639 1.51724 12.5509 0.00908851 12.5509 0.00908851C12.5509 0.00908851 10.9517 -0.196097 9.49955 1.39798C8.04744 2.99205 8.46047 4.5002 8.46047 4.5002Z" fill="white"/>
</g>
<defs>
<clipPath id="clip0_66_367">
<rect width="17" height="20" fill="white"/>
</clipPath>
</defs>
</svg>
