<svg width="40" height="40" viewBox="0 0 40 40" fill="none" xmlns="http://www.w3.org/2000/svg">
<g clip-path="url(#clip0_390_4040)">
<path d="M39.875 17.75C36.375 9.75 30 3.375 22.125 0.125C21.5 -0.125 20.75 0.125 20.5 0.875C20.25 1.5 20.5 2.375 21.25 2.625C28.625 5.75 34.375 11.5 37.625 18.875C37.875 19.375 38.25 19.625 38.75 19.625C38.875 19.625 39.125 19.625 39.25 19.5C39.875 19.25 40.125 18.5 39.875 17.75Z" fill="white"/>
<path d="M20.4992 9.75C24.9992 11.625 28.4992 15.125 30.4992 19.625C30.7492 20.125 31.1242 20.375 31.6242 20.375C31.7492 20.375 31.9992 20.375 32.1242 20.25C32.7492 20 32.9992 19.25 32.7492 18.5C30.4992 13.375 26.4992 9.375 21.4992 7.25C20.8742 7 20.1242 7.25 19.8742 8C19.4992 8.625 19.8742 9.375 20.4992 9.75Z" fill="white"/>
<path d="M33.1246 25.25C32.3746 24.5 31.6246 24.25 30.8746 24.25C30.1246 24.25 29.2496 24.625 28.6246 25.25C27.4996 26.375 26.4996 27.375 25.3746 28.5C25.2496 28.625 24.9996 28.75 24.8746 28.75C24.7496 28.75 24.6246 28.75 24.4996 28.625C23.7496 28.25 22.9996 27.875 22.3746 27.5C19.2496 25.5 16.6246 23 14.3746 20.125C13.2496 18.75 12.2496 17.25 11.4996 15.5C11.1246 15.25 11.2496 15 11.4996 14.75C12.6246 13.75 13.6246 12.625 14.7496 11.625C16.2496 10.125 16.2496 8.375 14.7496 6.875C13.8746 6 13.1246 5.25 12.2496 4.375C11.2496 3.375 10.3746 2.5 9.49961 1.75C8.87461 1 7.99961 0.625 7.24961 0.625C6.49961 0.625 5.62461 1 4.99961 1.625C3.87461 2.75 2.74961 3.875 1.62461 4.875C0.624612 5.875 0.124612 7.125 -0.000388283 8.5C-0.125388 10.75 0.374612 12.875 1.12461 15C2.74961 19.25 5.12461 23.125 8.12461 26.625C12.1246 31.375 16.8746 35.125 22.3746 37.75C24.8746 39 27.4996 39.875 30.2496 40H30.7496C32.4996 40 33.9996 39.5 35.2496 38.125C36.1246 37.125 37.2496 36.125 38.2496 35.125C39.7496 33.625 39.7496 31.875 38.2496 30.375C36.4996 28.75 34.8746 27 33.1246 25.25Z" fill="white"/>
</g>
<defs>
<clipPath id="clip0_390_4040">
<rect width="40" height="40" fill="white"/>
</clipPath>
</defs>
</svg>
