<svg width="20" height="20" viewBox="0 0 20 20" fill="none" xmlns="http://www.w3.org/2000/svg">
<path d="M19.3578 17.013C19.232 17.5744 18.9198 18.0773 18.4714 18.4408C17.9507 18.9692 17.3217 19.3801 16.6273 19.6459C16.0198 19.8802 15.3738 20.0003 14.7222 20.0003H14.3961C12.9316 19.9222 11.4975 19.5537 10.1782 18.9168H10.168C9.86235 18.7751 9.54652 18.6333 9.24081 18.4612C7.70156 17.6017 6.28905 16.535 5.04327 15.2915C3.42763 13.7837 2.10192 11.9959 1.13099 10.0158C0.61559 8.93047 0.271936 7.77249 0.112165 6.58289C-0.125495 5.33801 0.0164332 4.05096 0.519717 2.88678C0.837063 2.3615 1.22432 1.88122 1.671 1.45897C1.86726 1.23817 2.10632 1.05908 2.37393 0.932407C2.65503 0.80138 2.96017 0.728977 3.27051 0.719727C3.60029 0.756511 3.91948 0.857782 4.20974 1.01767C4.49999 1.17755 4.75562 1.39292 4.9618 1.65136C5.42027 2.14756 5.98058 2.664 6.43905 3.13995L7.07084 3.75764C7.44223 4.08484 7.67206 4.54194 7.71259 5.03356C7.71272 5.48528 7.54599 5.92131 7.24397 6.25884C7.0484 6.49523 6.84099 6.72169 6.62249 6.93733L6.41878 7.14997C6.30025 7.25889 6.20944 7.39427 6.15387 7.54491C6.10376 7.69138 6.08293 7.84618 6.09268 8.00058C6.25509 8.43065 6.50874 8.82092 6.83641 9.1449C7.34583 9.83343 7.85525 10.4309 8.37486 11.079C9.31503 12.1633 10.4306 13.0839 11.6759 13.803C11.8024 13.8957 11.9489 13.9581 12.1038 13.9853C12.2392 13.9948 12.375 13.9741 12.5011 13.9245C12.8571 13.7169 13.1743 13.4497 13.4385 13.1346C13.7948 12.7015 14.3059 12.4221 14.8648 12.3549C15.4023 12.3626 15.915 12.5809 16.2912 12.9625C16.4949 13.1346 16.7191 13.3676 16.933 13.5904L17.2387 13.9043L17.5545 14.2081L18.0945 14.7548C18.4169 15.0382 18.7198 15.3428 19.0013 15.6663C19.2843 16.0556 19.4114 16.5356 19.3578 17.013Z" fill="#4661FF"/>
<path d="M15.7017 10.0755C15.4999 10.0729 15.307 9.99205 15.1643 9.8502C15.0216 9.70834 14.9402 9.51665 14.9376 9.31608C14.9389 8.74249 14.8262 8.17437 14.606 7.64424C14.3858 7.11411 14.0625 6.63247 13.6544 6.22693C13.2464 5.82138 12.7618 5.49994 12.2284 5.28108C11.6951 5.06221 11.1234 4.95025 10.5464 4.95158C10.3437 4.95158 10.1494 4.87154 10.0061 4.72911C9.86286 4.58668 9.78223 4.39353 9.78223 4.1921C9.78223 3.99068 9.86286 3.7975 10.0061 3.65507C10.1494 3.51264 10.3437 3.43263 10.5464 3.43263C11.3241 3.4313 12.0944 3.58256 12.8133 3.87775C13.532 4.17295 14.1851 4.60626 14.735 5.15286C15.285 5.69945 15.7209 6.34857 16.018 7.06298C16.315 7.77739 16.4671 8.54301 16.4658 9.31608C16.4658 9.51745 16.3853 9.71064 16.242 9.85309C16.0987 9.99554 15.9044 10.0755 15.7017 10.0755Z" fill="#4661FF"/>
<path d="M19.236 9.72134C19.0341 9.71865 18.8413 9.6378 18.6986 9.49595C18.5558 9.35409 18.4745 9.1624 18.4718 8.96183C18.4732 7.9849 18.2806 7.01727 17.9054 6.11432C17.5302 5.21137 16.9797 4.39081 16.2851 3.69954C15.5906 3.00828 14.7657 2.45988 13.8577 2.08572C12.9498 1.71155 11.9765 1.51896 10.9936 1.51896C10.7909 1.51896 10.5966 1.43894 10.4533 1.29651C10.3099 1.15409 10.2295 0.960904 10.2295 0.759478C10.2295 0.558053 10.3099 0.364871 10.4533 0.22244C10.5966 0.0800081 10.7909 0 10.9936 0C12.1772 0 13.3493 0.23188 14.4426 0.682371C15.536 1.13287 16.5293 1.79315 17.3656 2.62547C18.2021 3.45779 18.8654 4.44582 19.3174 5.53306C19.7694 6.6203 20.0014 7.78542 20.0001 8.96183C20.0001 9.1633 19.9195 9.35649 19.7762 9.49884C19.6329 9.64129 19.4385 9.72134 19.236 9.72134Z" fill="#4661FF"/>
</svg>
