<svg width="20" height="18" viewBox="0 0 20 18" fill="none" xmlns="http://www.w3.org/2000/svg">
<path d="M9.12231 17.9998C9.06181 17.9998 9.00196 17.987 8.94654 17.9622C8.89111 17.9375 8.8413 17.9012 8.80024 17.8558L0.116526 8.25886C0.0586384 8.19488 0.0202624 8.11504 0.00609499 8.02912C-0.00807238 7.9432 0.00258336 7.85493 0.0367582 7.7751C0.0709331 7.69528 0.127145 7.62736 0.198513 7.57967C0.269881 7.53197 0.353311 7.50657 0.43859 7.50657H4.61845C4.68121 7.50658 4.74323 7.52034 4.80034 7.54692C4.85745 7.57351 4.90832 7.6123 4.94951 7.66067L7.85164 11.0719C8.16528 10.3869 8.77243 9.24636 9.83788 7.85659C11.413 5.80199 14.3427 2.78033 19.3552 0.0525856C19.4521 -0.000124824 19.5648 -0.0138053 19.6711 0.0142458C19.7774 0.0422968 19.8695 0.11004 19.9293 0.204099C19.989 0.298158 20.0121 0.411696 19.9939 0.522292C19.9758 0.632888 19.9177 0.732505 19.8311 0.80147C19.812 0.816751 17.8794 2.3717 15.6551 5.21985C13.6081 7.84086 10.8869 12.1266 9.54792 17.6594C9.5244 17.7566 9.46969 17.843 9.39253 17.9047C9.31536 17.9664 9.22018 18 9.12217 18L9.12231 17.9998Z" fill="#7444FD"/>
</svg>
