<svg width="30" height="30" viewBox="0 0 30 30" fill="none" xmlns="http://www.w3.org/2000/svg">
<path fill-rule="evenodd" clip-rule="evenodd" d="M15 5C9.47715 5 5 9.47715 5 15C5 20.5229 9.47715 25 15 25C20.5229 25 25 20.5229 25 15C25 14.3571 24.9395 13.7296 24.8242 13.1224C24.6955 12.4441 25.141 11.7899 25.8191 11.6612C26.4974 11.5324 27.1516 11.9779 27.2804 12.6561C27.4246 13.4163 27.5 14.1999 27.5 15C27.5 21.9035 21.9035 27.5 15 27.5C8.09644 27.5 2.5 21.9035 2.5 15C2.5 8.09644 8.09644 2.5 15 2.5C16.9934 2.5 18.8811 2.96751 20.5562 3.80001C21.1745 4.10724 21.4266 4.85746 21.1194 5.47569C20.8121 6.09391 20.0619 6.34603 19.4438 6.03879C18.1065 5.37425 16.5988 5 15 5ZM27.3296 6.24504C27.6775 6.84135 27.4761 7.60675 26.8797 7.9546L26.6027 8.11621C22.1091 10.7375 18.4988 14.6386 16.2327 19.3214C16.0565 19.6856 15.715 19.9419 15.3161 20.0094C14.9173 20.0769 14.5104 19.9473 14.2241 19.6613L9.2073 14.6498C8.71889 14.1619 8.71846 13.3705 9.20636 12.882C9.69425 12.3936 10.4857 12.3932 10.9741 12.8811L14.7872 16.6903C17.2816 12.2452 20.9221 8.5356 25.343 5.95676L25.6201 5.79515C26.2164 5.4473 26.9818 5.64873 27.3296 6.24504Z" fill="#4661FF"/>
</svg>
