<svg width="56" height="56" viewBox="0 0 56 56" fill="none" xmlns="http://www.w3.org/2000/svg">
<path d="M38 12H18C16.8955 12 16 12.8954 16 14V42C16 43.1045 16.8955 44 18 44H38C39.1046 44 40 43.1045 40 42V14C40 12.8954 39.1046 12 38 12ZM25.6406 32.2324C26.0645 32.5859 26.1221 33.2168 25.7686 33.6406C25.5703 33.877 25.2861 34 24.999 34C24.7734 34 24.5469 33.9238 24.3594 33.7676L18.3594 28.7676C18.1318 28.5781 18 28.2969 18 28C18 27.7031 18.1318 27.4219 18.3594 27.2324L24.3594 22.2324C24.7842 21.8789 25.4131 21.9375 25.7686 22.3594C26.1221 22.7832 26.0645 23.4141 25.6406 23.7676L20.5625 28L25.6406 32.2324ZM37.6409 28.7676L31.6409 33.7676C31.4534 33.9238 31.2268 34 31.0012 34C30.7141 34 30.4299 33.877 30.2317 33.6406C29.8782 33.2168 29.9358 32.5859 30.3596 32.2324L35.4377 28L30.3596 23.7676C29.9358 23.4141 29.8782 22.7832 30.2317 22.3594C30.5872 21.9375 31.2161 21.8789 31.6409 22.2324L37.6409 27.2324C37.8684 27.4219 38.0002 27.7031 38.0002 28C38.0002 28.2969 37.8684 28.5781 37.6409 28.7676Z" fill="#6B61FC"/>
<path d="M54 26H53.8987C52.9218 13.2601 42.7406 3.07825 30 2.10132V2C30 0.894531 29.1045 0 28 0C26.8955 0 26 0.894531 26 2V2.10132C13.2594 3.07825 3.07825 13.2601 2.10132 26H2C0.895508 26 0 26.8945 0 28C0 29.1055 0.895508 30 2 30H2.10132C3.07825 42.7399 13.2594 52.9218 26 53.8987V54C26 55.1055 26.8955 56 28 56C29.1045 56 30 55.1055 30 54V53.8987C42.7406 52.9218 52.9218 42.7399 53.8987 30H54C55.1045 30 56 29.1055 56 28C56 26.8945 55.1045 26 54 26ZM49.8998 29.9797C48.9526 40.532 40.532 48.9526 29.9797 49.8998C29.9247 48.8437 29.069 48 28 48C26.931 48 26.0753 48.8438 26.0203 49.8998C15.468 48.9526 7.04736 40.532 6.10022 29.9797C7.1554 29.9247 8 29.0698 8 28C8 26.9302 7.1554 26.0753 6.10022 26.0203C7.04736 15.468 15.468 7.04736 26.0203 6.10022C26.0753 7.15625 26.931 8 28 8C29.069 8 29.9247 7.15625 29.9797 6.10022C40.532 7.04736 48.9526 15.468 49.8998 26.0203C48.8446 26.0753 48 26.9302 48 28C48 29.0698 48.8446 29.9247 49.8998 29.9797Z" fill="#6B61FC"/>
</svg>
