<svg width="140" height="120" viewBox="0 0 140 120" fill="none" xmlns="http://www.w3.org/2000/svg">
<path d="M106.249 0.247192C100.542 1.19761 95.7485 4.62591 92.8462 9.378C91.4766 11.6183 88.9983 12.8063 86.4873 12.399C85.4438 12.2293 84.3677 12.1953 83.2916 12.3311C80.0306 12.7045 77.2261 14.3338 75.2369 16.7438C74.0956 18.1354 72.2368 18.5428 70.6064 17.796C65.2583 15.3181 58.5081 19.4253 58.8016 26.1801C58.9973 30.6267 62.3887 34.3265 66.6606 34.5641C68.3563 34.6659 69.9215 34.2586 71.2259 33.5119C72.726 32.6633 74.5847 33.0027 75.8239 34.2586C78.3675 36.9402 82.0524 38.3997 85.933 37.9924C87.6613 37.7887 89.2918 37.2457 90.7266 36.3971C92.9115 35.1072 95.6181 35.209 97.6399 36.7704C101.455 39.7235 106.314 41.251 111.401 40.674C121.608 39.5199 129.108 30.423 128.88 19.9344C128.554 7.64688 117.825 -1.65365 106.249 0.247192Z" fill="#E4F2F6"/>
<path d="M37.0183 31.0679C33.2029 27.8432 28.3767 25.8745 23.1265 25.7727C10.7021 25.5351 0.299624 35.8879 0.00613627 48.8203C-0.287352 62.1262 9.98473 73.0221 22.7026 73.0221C24.3983 73.0221 26.0614 72.8184 27.6592 72.4451C31.8007 71.4946 36.1052 71.6983 40.1162 73.1239C42.4641 73.9386 44.975 74.4138 47.649 74.4138C59.1929 74.4138 68.5519 65.86 68.5519 55.3036C68.5519 45.0526 59.8451 37.0419 49.3774 36.2612C44.8446 35.8879 40.5401 34.0549 37.0183 31.0679Z" fill="#C8E6EB"/>
<path d="M71.6825 80.7952C73.9 76.145 73.476 71.2232 70.7694 69.7975C69.5302 69.1526 68.6824 67.8967 68.552 66.4371C67.8998 59.2411 64.5409 53.7762 60.1712 53.4707C56.4537 53.1991 52.9645 56.7971 51.0731 62.2621C50.5187 63.8235 49.41 65.0794 47.9426 65.7582C44.3555 67.4215 43.3772 73.2258 45.7251 78.7247C45.8555 79.0641 45.7903 79.4375 45.562 79.6751C44.4533 80.8292 43.7359 82.3566 43.6381 84.1217C43.5076 85.9207 44.0946 87.6179 45.1055 88.9417C46.1164 90.2315 46.6056 91.8269 46.5077 93.4901C46.2795 97.2918 49.0513 100.584 52.7036 100.856C53.6819 100.924 54.6602 100.754 55.508 100.415C56.9755 99.8376 58.5407 99.566 60.106 99.6678C64.2801 99.9394 67.8671 96.6808 68.1606 92.336C68.1606 92.1324 68.1932 91.8948 68.1606 91.6911C70.1172 90.6049 71.4868 88.5344 71.6499 86.0565C71.7151 85.2758 71.6173 84.4951 71.4216 83.7823C71.1607 82.764 71.2586 81.7117 71.6825 80.7952Z" fill="#39AE96"/>
<path d="M62.5191 81.3722C60.5951 81.9832 58.9973 83.4428 58.1494 85.3775L57.7907 86.1922L57.9211 64.2646H56.9755L56.9102 78.487L56.5189 77.5705C55.5732 75.2963 53.8449 73.4633 51.7253 72.3772L51.3666 73.09C53.3232 74.1083 54.8884 75.8055 55.8015 77.91C56.5189 79.5053 56.8776 81.2364 56.8776 82.9675L56.8124 95.6624L56.0298 94.2707C55.0189 92.5057 53.5188 91.114 51.7253 90.2654L51.3992 91.0122C53.0623 91.7929 54.4319 93.0827 55.345 94.712C56.2907 96.3752 56.8124 98.2761 56.7798 100.211L56.7146 112.329H57.6603L57.7581 90.9443C57.7581 89.1453 58.1494 87.3463 58.8668 85.717C59.6169 84.0198 61.0191 82.696 62.7474 82.1529L62.5191 81.3722Z" fill="#177D74"/>
<path d="M57.8559 118.405H56.5189C52.9645 118.405 50.0948 115.418 50.0948 111.718V106.287H64.3127V111.718C64.28 115.418 61.4104 118.405 57.8559 118.405Z" fill="#B48255"/>
<path d="M64.3127 108.12H50.0948V110.156H64.3127V108.12Z" fill="#A56941"/>
<path d="M64.3127 108.12H50.0948V108.663H64.3127V108.12Z" fill="#DCBE82"/>
<path d="M129.597 118.405H75.987C73.6065 118.405 71.6825 116.402 71.6825 113.924V15.0466C71.6825 12.5687 73.6065 10.566 75.987 10.566H129.565C131.945 10.566 133.869 12.5687 133.869 15.0466V113.89C133.902 116.402 131.978 118.405 129.597 118.405Z" fill="#5046AF"/>
<path d="M125.521 118.405H71.9433C69.5628 118.405 67.6389 116.402 67.6389 113.924V15.0466C67.6389 12.5687 69.5628 10.566 71.9433 10.566H125.521C127.902 10.566 129.826 12.5687 129.826 15.0466V113.89C129.826 116.402 127.902 118.405 125.521 118.405Z" fill="#6E64C3"/>
<path d="M124.543 14.9786H72.5303V107.746H124.543V14.9786Z" fill="#32285F"/>
<path d="M124.543 14.9786H72.5303V16.9813H124.543V14.9786Z" fill="#1E1632"/>
<path d="M88.4765 115.452H79.7371C78.3675 115.452 77.2587 114.297 77.2587 112.872C77.2587 111.446 78.3675 110.292 79.7371 110.292H88.4765C89.8461 110.292 90.9548 111.446 90.9548 112.872C90.9548 114.297 89.8461 115.452 88.4765 115.452Z" fill="#41378C"/>
<path d="M116.814 115.452H108.075C106.705 115.452 105.597 114.297 105.597 112.872C105.597 111.446 106.705 110.292 108.075 110.292H116.814C118.184 110.292 119.293 111.446 119.293 112.872C119.293 114.297 118.184 115.452 116.814 115.452Z" fill="#41378C"/>
<path d="M104.586 13.5869H92.3896C92.0961 13.5869 91.8353 13.3154 91.8353 13.0099C91.8353 12.7044 92.0961 12.4329 92.3896 12.4329H104.586C104.879 12.4329 105.14 12.7044 105.14 13.0099C105.14 13.3154 104.879 13.5869 104.586 13.5869Z" fill="#5046AF"/>
<path d="M124.543 42.3032L72.4977 66.1316V81.4062L124.543 57.5439V42.3032Z" fill="#41378C"/>
<path d="M124.543 60.7686L72.4977 84.5969V97.9367L124.543 74.0744V60.7686Z" fill="#41378C"/>
<path opacity="0.25" d="M116.325 20.1381H65.2258V105.54H116.325V20.1381Z" fill="black"/>
<path d="M115.217 18.984H64.117V104.386H115.217V18.984Z" fill="white"/>
<path d="M75.8239 51.4341H69.7259C69.0737 51.4341 68.5519 50.891 68.5519 50.2121V43.8647C68.5519 43.1858 69.0737 42.6427 69.7259 42.6427H75.8239C76.4761 42.6427 76.9979 43.1858 76.9979 43.8647V50.2121C76.9979 50.891 76.4435 51.4341 75.8239 51.4341Z" stroke="#B4D7DC" stroke-width="3.4001" stroke-miterlimit="10"/>
<path d="M82.2806 42.6427H94.9658" stroke="#B4D7DC" stroke-width="3.4001" stroke-miterlimit="10"/>
<path d="M82.2806 47.4626H109.51" stroke="#B4D7DC" stroke-width="3.4001" stroke-miterlimit="10"/>
<path d="M82.085 51.0607H109.314" stroke="#B4D7DC" stroke-width="3.4001" stroke-miterlimit="10"/>
<path d="M75.8239 35.243H69.7259C69.0737 35.243 68.5519 34.6999 68.5519 34.0211V27.6736C68.5519 26.9948 69.0737 26.4517 69.7259 26.4517H75.8239C76.4761 26.4517 76.9979 26.9948 76.9979 27.6736V34.0211C76.9979 34.666 76.4435 35.243 75.8239 35.243Z" stroke="#B4D7DC" stroke-width="3.4001" stroke-miterlimit="10"/>
<path d="M82.2806 26.4517H94.9658" stroke="#B4D7DC" stroke-width="3.4001" stroke-miterlimit="10"/>
<path d="M82.2806 31.2377H109.51" stroke="#B4D7DC" stroke-width="3.4001" stroke-miterlimit="10"/>
<path d="M82.085 34.8357H109.314" stroke="#B4D7DC" stroke-width="3.4001" stroke-miterlimit="10"/>
<path d="M75.8239 67.6591H69.7259C69.0737 67.6591 68.5519 67.116 68.5519 66.4371V60.0896C68.5519 59.4108 69.0737 58.8677 69.7259 58.8677H75.8239C76.4761 58.8677 76.9979 59.4108 76.9979 60.0896V66.4371C76.9979 67.116 76.4435 67.6591 75.8239 67.6591Z" stroke="#B4D7DC" stroke-width="3.4001" stroke-miterlimit="10"/>
<path d="M82.2806 59.0034H94.9658" stroke="#B4D7DC" stroke-width="3.4001" stroke-miterlimit="10"/>
<path d="M82.2806 63.8235H109.51" stroke="#B4D7DC" stroke-width="3.4001" stroke-miterlimit="10"/>
<path d="M82.085 67.4214H109.314" stroke="#B4D7DC" stroke-width="3.4001" stroke-miterlimit="10"/>
<path d="M75.8239 83.884H69.7259C69.0737 83.884 68.5519 83.3409 68.5519 82.6621V76.3146C68.5519 75.6358 69.0737 75.0927 69.7259 75.0927H75.8239C76.4761 75.0927 76.9979 75.6358 76.9979 76.3146V82.6621C76.9979 83.3409 76.4435 83.884 75.8239 83.884Z" stroke="#B4D7DC" stroke-width="3.4001" stroke-miterlimit="10"/>
<path d="M82.2806 75.3643H94.9658" stroke="#B4D7DC" stroke-width="3.4001" stroke-miterlimit="10"/>
<path d="M82.2806 80.1503H109.51" stroke="#B4D7DC" stroke-width="3.4001" stroke-miterlimit="10"/>
<path d="M82.085 83.7483H109.314" stroke="#B4D7DC" stroke-width="3.4001" stroke-miterlimit="10"/>
<path d="M90.857 92.5736C90.857 93.8974 89.8135 94.9836 88.5417 94.9836C87.2699 94.9836 86.2264 93.8974 86.2264 92.5736C86.2264 91.2498 87.2699 90.1636 88.5417 90.1636C89.8135 90.1636 90.857 91.2158 90.857 92.5736Z" fill="#B4D7DC"/>
<path d="M98.879 92.5736C98.879 93.8974 97.8355 94.9836 96.5637 94.9836C95.2919 94.9836 94.2484 93.8974 94.2484 92.5736C94.2484 91.2498 95.2919 90.1636 96.5637 90.1636C97.8355 90.1636 98.879 91.2158 98.879 92.5736Z" fill="#B4D7DC"/>
<path d="M106.901 92.5736C106.901 93.8974 105.858 94.9836 104.586 94.9836C103.314 94.9836 102.27 93.8974 102.27 92.5736C102.27 91.2498 103.314 90.1636 104.586 90.1636C105.858 90.1636 106.901 91.2158 106.901 92.5736Z" fill="#B4D7DC"/>
<path d="M82.8351 92.5736C82.8351 93.8974 81.7915 94.9836 80.5198 94.9836C79.248 94.9836 78.2045 93.8974 78.2045 92.5736C78.2045 91.2498 79.248 90.1636 80.5198 90.1636C81.7915 90.1636 82.8351 91.2158 82.8351 92.5736Z" fill="#B4D7DC"/>
<path d="M74.8456 92.5736C74.8456 93.8974 73.8021 94.9836 72.5303 94.9836C71.2585 94.9836 70.215 93.8974 70.215 92.5736C70.215 91.2498 71.2585 90.1636 72.5303 90.1636C73.8021 90.1636 74.8456 91.2158 74.8456 92.5736Z" fill="#B4D7DC"/>
<path d="M38.7792 57.8833C38.7792 57.8833 52.2796 60.4291 53.3558 45.3582" stroke="#F9C388" stroke-width="3.84" stroke-miterlimit="10" stroke-linecap="round"/>
<path d="M34.9844 115.649H38.3758V92.0246H34.9844V115.649Z" fill="#F9C388"/>
<path d="M28.5214 115.649H31.9128L31.9128 92.0246H28.5214L28.5214 115.649Z" fill="#F9C388"/>
<path d="M34.9844 115.643H38.3758V110.144H34.9844V115.643Z" fill="white"/>
<path d="M28.5214 115.643H31.9128V110.144H28.5214V115.643Z" fill="white"/>
<path d="M34.9844 111.723H38.3758V110.943H34.9844V111.723Z" fill="#5AA7E0"/>
<path d="M28.5214 111.723H31.9128V110.943H28.5214V111.723Z" fill="#5AA7E0"/>
<path d="M34.9844 112.641H38.3758V112.336H34.9844V112.641Z" fill="#408DBC"/>
<path d="M28.5214 112.641H31.9128V112.336H28.5214V112.641Z" fill="#408DBC"/>
<path d="M34.0719 114.159H39.5829L39.5829 77.3307H34.0719L34.0719 114.159Z" fill="#3C142D"/>
<path d="M27.6266 114.162H33.1376V81.8475L27.6266 77.333V114.162Z" fill="#3C142D"/>
<path d="M27.6161 89.7037H39.5839V77.3143H27.6161V89.7037Z" fill="#3C142D"/>
<path d="M34.0646 115.385H40.2604V113.552H34.0646V115.385Z" fill="#50374B"/>
<path d="M27.5455 115.385H34.1979V113.552H27.5455V115.385Z" fill="#695A6E"/>
<path d="M34.3044 118.394H44.87V117.682H34.3044V118.394Z" fill="#2B2E2F"/>
<path d="M37.4096 117.692H26.844V118.405H37.4096V117.692Z" fill="#434749"/>
<path d="M34.5725 117.692H44.1924V117.115C44.1924 116.13 43.4098 115.316 42.4641 115.316H34.5399V117.692H34.5725Z" fill="#132736"/>
<path d="M27.3005 117.692H36.9204V117.115C36.9204 116.13 36.1378 115.316 35.1921 115.316H27.3005V117.692Z" fill="#172F40"/>
<path d="M27.1375 81.2365H40.3444V55.6091H30.1049C28.4745 55.6091 27.1375 57.0008 27.1375 58.698V81.2365Z" fill="white"/>
<path d="M27.1375 58.7659C27.1375 57.0348 28.344 55.6091 29.8115 55.6091H33.4964V78.2834C33.4964 81.9154 30.6593 84.8685 27.1701 84.8685V58.7659H27.1375Z" fill="#50374B"/>
<path d="M33.4311 55.4395L34.9638 65.1813L33.3985 79.1321L32.5181 62.0584L33.4637 61.2438L31.8985 59.8182L31.605 55.7449L33.4311 55.4395Z" fill="#695A6E"/>
<path d="M39.2031 57.9512C41.5184 58.2228 52.3775 58.8337 53.3558 45.3582" stroke="#50374B" stroke-width="4.47" stroke-miterlimit="10" stroke-linecap="round"/>
<path d="M28.9962 57.8833C28.9962 62.1602 28.181 68.4737 25.3765 69.8993C22.1482 71.5286 18.2676 71.1552 15.2023 60.5309" stroke="#50374B" stroke-width="4.47" stroke-miterlimit="10" stroke-linecap="round"/>
<path d="M40.638 58.3246V84.1557C38.5509 83.0695 37.1161 80.8292 37.1161 78.2495L36.9857 61.4814L37.3118 55.5752H38.0292C39.464 55.6091 40.638 56.8311 40.638 58.3246Z" fill="#50374B"/>
<path d="M37.2791 55.1339L35.616 65.1812L37.1812 79.132L38.0617 62.0584L37.1486 61.2437L38.6813 59.8181L39.0726 55.711L37.2791 55.1339Z" fill="#695A6E"/>
<path d="M41.0293 72.8524H38.4205V76.6201C38.4205 78.2155 39.5618 79.5393 41.0293 79.7769V72.8524Z" fill="#695A6E"/>
<path d="M63.5439 34.9418L10.9807 58.3324L13.4035 64.2313L65.9667 40.8407L63.5439 34.9418Z" fill="#E4F2F6"/>
<path d="M65.9757 40.8098L67.6062 40.0969C69.1715 39.4181 69.8889 37.5172 69.2367 35.8879C68.5845 34.2587 66.7584 33.5119 65.1931 34.1908L63.5626 34.9036L65.9757 40.8098Z" fill="#55C7A6"/>
<path d="M64.5296 37.3489L11.9664 60.7395L13.4021 64.2351L65.9653 40.8445L64.5296 37.3489Z" fill="#C8E6EB"/>
<path d="M65.5538 39.8175L12.9906 63.2081L13.4008 64.2069L65.964 40.8162L65.5538 39.8175Z" fill="#B4D7DC"/>
<path d="M15.0066 63.5179C14.1261 63.9252 13.1152 63.484 12.7239 62.5675L10.9956 58.3246L7.6368 59.8181C6.75633 60.1915 6.36502 61.2437 6.72372 62.1602L8.45204 66.3352C8.81075 67.2517 9.82165 67.659 10.7021 67.2856L31.2789 58.1209C32.1268 57.7475 32.5181 56.7292 32.1594 55.8467L15.0066 63.5179Z" fill="#6C9BAA"/>
<path d="M25.3765 69.8993C22.1482 71.5286 18.2676 71.1552 15.2023 60.5309" stroke="#F9C388" stroke-width="3.84" stroke-miterlimit="10" stroke-linecap="round"/>
<path d="M27.2027 68.9828C26.7135 67.9306 25.507 67.4893 24.4961 67.9985C23.0612 68.7113 22.2786 68.5076 21.7895 68.304C20.9742 67.9306 19.5394 66.7086 18.0067 62.5675L14.3544 64.5023C15.9197 68.5755 17.8111 71.1213 20.1264 72.1735C20.9416 72.5469 21.7895 72.7506 22.6699 72.7506C23.8113 72.7506 24.9852 72.4451 26.2244 71.8341C27.2679 71.291 27.6918 70.0351 27.2027 68.9828Z" fill="#50374B"/>
<path d="M31.2463 77.0614C31.2463 78.5549 30.0724 79.7769 28.6375 79.7769H26.7462V72.8524H31.2463V77.0614Z" fill="#695A6E"/>
<path d="M35.2573 57.9512C36.2682 57.9512 37.0835 57.1026 37.0835 56.0503V51.7395H33.4638V56.0503C33.4638 57.1026 34.2791 57.9512 35.2573 57.9512Z" fill="#DD9F6B"/>
<path d="M38.7792 47.1572C38.7792 48.2094 39.5944 49.058 40.6053 49.058C41.6162 49.058 42.4315 48.2094 42.4315 47.1572C42.4315 46.1049 41.6162 45.2563 40.6053 45.2563C39.627 45.2563 38.7792 46.1049 38.7792 47.1572Z" fill="#DD9F6B"/>
<path d="M35.3225 54.7266H37.8335C39.9857 54.7266 41.7141 52.9276 41.7141 50.6873V39.5878H29.2897V48.447C29.2897 51.9432 31.9963 54.7266 35.3225 54.7266Z" fill="#F2B47C"/>
<path d="M39.627 49.4653C39.8227 49.4653 39.9205 49.7029 39.8227 49.9066C39.4313 50.6873 38.6813 51.2304 37.8661 51.2304C37.0182 51.2304 36.3008 50.6873 35.9095 49.8727C35.8117 49.669 35.9421 49.4314 36.1052 49.4314L39.627 49.4653Z" fill="#654932"/>
<mask id="mask0_40_2197" style="mask-type:luminance" maskUnits="userSpaceOnUse" x="35" y="49" width="5" height="3">
<path d="M39.627 49.4653C39.8227 49.4653 39.9205 49.7029 39.8227 49.9066C39.4313 50.6873 38.6813 51.2304 37.8661 51.2304C37.0182 51.2304 36.3008 50.6873 35.9095 49.8727C35.8117 49.669 35.9421 49.4314 36.1052 49.4314L39.627 49.4653Z" fill="white"/>
</mask>
<g mask="url(#mask0_40_2197)">
<path d="M36.2356 51.9432C36.2356 52.9955 36.953 53.878 37.8335 53.878C38.7139 53.878 39.4314 53.0294 39.4314 51.9432C39.4314 50.891 38.7139 50.0084 37.8335 50.0084C36.9856 50.0424 36.2356 50.891 36.2356 51.9432Z" fill="#D34C4C"/>
</g>
<path d="M42.7249 40.64C42.7249 39.8253 42.3989 39.1125 41.9097 38.6034C41.6814 36.431 39.3661 35.3448 36.3986 35.1751L36.6595 34.9375C36.7574 34.8696 36.7574 34.7338 36.6921 34.632C36.6269 34.5301 36.4965 34.5301 36.3986 34.598L36.0725 34.9035V34.4962C36.0725 34.2586 35.9095 34.0889 35.6812 34.0889C35.453 34.0889 35.2899 34.2586 35.2899 34.4962V34.8696L34.9964 34.598C34.9312 34.5301 34.8008 34.5301 34.7029 34.598C34.6377 34.6659 34.6377 34.8017 34.7029 34.9035L34.9638 35.1411C31.6702 35.2429 29.0614 36.3631 28.931 38.7731C28.5071 39.2822 28.2788 39.9272 28.2788 40.64C28.2788 42.2353 29.518 43.5591 31.0833 43.5591V47.4966C31.0833 47.836 31.3441 48.1076 31.6702 48.1076H31.9637C32.2898 48.1076 32.5507 47.836 32.5507 47.4966V43.3215C33.4312 43.6609 34.4095 43.8307 35.453 43.8307C36.6269 43.8307 37.703 43.5931 38.6487 43.1857C39.04 43.3894 39.4966 43.5252 39.9531 43.5252C40.2792 43.5252 40.6053 43.4573 40.9314 43.3555V44.6453C40.9314 44.9847 41.1923 45.2563 41.5184 45.2563H41.8119C42.138 45.2563 42.3989 44.9847 42.3989 44.6453V42.0317C42.5945 41.6243 42.7249 41.1491 42.7249 40.64Z" fill="#422505"/>
<path d="M30.6593 48.9223H31.3115V41.0813H28.5397V46.7159C28.5397 47.9379 29.4854 48.9223 30.6593 48.9223Z" fill="#422505"/>
<path d="M31.1159 45.2563C31.1811 45.2563 31.2789 45.2563 31.3442 45.2903V49.092C31.2789 49.092 31.1811 49.1259 31.1159 49.1259C30.105 49.1259 29.2897 48.2773 29.2897 47.2251C29.2897 46.1049 30.105 45.2563 31.1159 45.2563Z" fill="#F2B47C"/>
<path d="M40.5075 46.1729C40.8662 46.1729 41.1923 46.4105 41.388 46.8178C41.4206 46.9196 41.4206 47.0554 41.3553 47.1233C41.2901 47.1912 41.1923 47.1572 41.1597 47.0893C40.9966 46.7838 40.7684 46.6141 40.5075 46.6141C40.2466 46.6141 40.0183 46.7838 39.8553 47.0893C39.8227 47.1572 39.7901 47.1912 39.7249 47.1912C39.6922 47.1912 39.6596 47.1912 39.627 47.1572C39.5618 47.0893 39.5618 46.9536 39.5944 46.8517C39.8227 46.4444 40.1488 46.1729 40.5075 46.1729Z" fill="#654932"/>
<path d="M33.9856 46.8517C34.279 46.4444 34.7356 46.2068 35.2247 46.2068C35.7139 46.2068 36.1704 46.4444 36.4639 46.8517C36.5291 46.9535 36.4965 47.0893 36.4313 47.1572C36.3335 47.2251 36.203 47.1911 36.1378 47.1233C35.9422 46.8178 35.5834 46.6481 35.2247 46.6481C34.866 46.6481 34.5399 46.8178 34.3117 47.1233C34.279 47.1911 34.2138 47.2251 34.1486 47.2251C34.116 47.2251 34.0834 47.2251 34.0182 47.1912C33.953 47.0554 33.9203 46.9196 33.9856 46.8517Z" fill="#654932"/>
<path d="M75.1717 45.9691L72.3673 48.8883L70.802 47.259" stroke="#3C5A73" stroke-miterlimit="10" stroke-linecap="round" stroke-linejoin="round"/>
<path d="M75.1717 62.2621L72.3673 65.1473L70.802 63.518" stroke="#3C5A73" stroke-miterlimit="10" stroke-linecap="round" stroke-linejoin="round"/>
<path d="M75.1717 78.2155L72.3673 81.1346L70.802 79.5053" stroke="#3C5A73" stroke-miterlimit="10" stroke-linecap="round" stroke-linejoin="round"/>
<path d="M139.217 120H22.3764C21.9525 120 21.5938 119.627 21.5938 119.185C21.5938 118.744 21.9525 118.371 22.3764 118.371H139.217C139.641 118.371 140 118.744 140 119.185C140 119.661 139.641 120 139.217 120Z" fill="#C8E6EB"/>
</svg>
