<svg width="121" height="120" viewBox="0 0 121 120" fill="none" xmlns="http://www.w3.org/2000/svg">
<path d="M46.0917 94.0765H43.9318C43.7607 94.0765 43.6232 93.9294 43.6232 93.7465C43.6232 93.5637 43.7607 93.4166 43.9318 93.4166H46.0917C46.2627 93.4166 46.4002 93.5637 46.4002 93.7465C46.3968 93.9294 46.2593 94.0765 46.0917 94.0765Z" fill="#DAD9ED"/>
<path d="M48.4834 91.538L44.8613 93.5494L45.0716 93.9822L48.6936 91.9707L48.4834 91.538Z" fill="#DAD9ED"/>
<path d="M50.9111 109.6C50.9111 110.579 50.1666 111.376 49.251 111.376C48.3354 111.376 47.5908 110.579 47.5908 109.6C47.5908 108.621 48.3354 107.825 49.251 107.825C50.1699 107.829 50.9111 108.621 50.9111 109.6Z" fill="#DAD9ED"/>
<path d="M39.9071 109.6C39.9071 110.579 39.1626 111.376 38.247 111.376C37.3314 111.376 36.5869 110.579 36.5869 109.6C36.5869 108.621 37.3314 107.825 38.247 107.825C39.1626 107.829 39.9071 108.621 39.9071 109.6Z" fill="#DAD9ED"/>
<path d="M61.915 109.6C61.915 110.579 61.1704 111.376 60.2548 111.376C59.3392 111.376 58.5947 110.579 58.5947 109.6C58.5947 108.621 59.3392 107.825 60.2548 107.825C61.1738 107.829 61.915 108.621 61.915 109.6Z" fill="#DAD9ED"/>
<path d="M53.5237 90.3219H44.9782C43.6065 90.3219 42.4963 89.1349 42.4963 87.6682H56.0022C56.0056 89.1349 54.8954 90.3219 53.5237 90.3219Z" fill="#B7B6CE"/>
<path d="M51.2565 90.3219H47.2487V91.6416H51.2565V90.3219Z" fill="#DAD9ED"/>
<path d="M50.0793 91.6451H48.4125V96.4218H50.0793V91.6451Z" fill="#B7B6CE"/>
<path d="M50.9748 96.4218H47.527V107.377H50.9748V96.4218Z" fill="#B7B6CE"/>
<path d="M63.3337 109.192H35.1682C35.1682 107.685 36.3119 106.463 37.7205 106.463H60.7848C62.1934 106.463 63.3337 107.685 63.3337 109.192Z" fill="#B7B6CE"/>
<path d="M61.7071 87.9048C64.4539 87.9048 66.5634 83.1999 66.2951 77.7957C65.896 69.7737 66.4024 61.9382 67.962 54.3178C68.569 51.3486 67.469 48.1068 65.8491 48.1068L46.8865 49.0284C46.1688 49.0643 45.5483 49.6524 45.3505 50.4951C42.9625 60.6329 43.7004 73.5929 43.8412 87.9012H61.7071" fill="#DAD9ED"/>
<path d="M33.0151 81.8229H54.9257V87.9048H33.0151C31.6434 87.9048 31.5964 86.5134 31.5964 84.8459C31.5998 83.1748 31.6434 81.8229 33.0151 81.8229Z" fill="#E6E5F3"/>
<path d="M67.9787 54.0274C66.2515 62.9064 65.8692 72.0831 66.6137 81.5073C66.758 83.3362 66.4528 85.0718 65.8759 86.2731C65.3963 87.2736 64.7322 87.9048 63.9843 87.9048H54.2985C53.8893 87.9048 53.5305 87.5677 53.2756 87.019C53.0173 86.4704 52.863 85.7101 52.863 84.8638C52.863 83.1712 53.4801 81.7691 54.2951 81.7691H60.872C63.2465 81.7691 63.4947 81.7906 63.4947 76.121C63.4947 65.3234 64.1319 55.8957 66.0402 48.1068C67.5159 48.1104 68.5288 51.1944 67.9787 54.0274Z" fill="#B7B6CE"/>
<path d="M20.9816 110.877L25.3315 110.838L27.4142 103.432L24.8183 96.2352L20.9816 110.877Z" fill="#FBC9BE"/>
<path d="M25.4858 109.877C24.4628 110.174 22.1487 111.139 21.0553 109.457L13.7239 113.746L26.6931 113.599L26.076 110.289C26.0324 109.991 25.7574 109.798 25.4858 109.877Z" fill="#0C0E0E"/>
<path d="M13.7383 114.954L26.7063 114.807L26.6944 113.606L13.7265 113.752L13.7383 114.954Z" fill="#6163AD"/>
<path d="M13.7876 101.32L17.393 103.927L19.4153 96.4683L15.8133 93.8649L13.7876 101.32Z" fill="#FBC9BE"/>
<path d="M17.7083 103.002C16.7088 102.626 14.2907 102.02 14.2806 99.972L5.96985 99.0647L16.7323 106.803L17.9799 103.701C18.1006 103.433 17.9766 103.103 17.7083 103.002Z" fill="#0C0E0E"/>
<path d="M5.3423 100.058L16.1042 107.798L16.7312 106.801L5.96934 99.0616L5.3423 100.058Z" fill="#6163AD"/>
<path d="M28.1118 70.0786L12.4494 98.3188L19.1638 102.511L36.6238 76.2861L28.1118 70.0786Z" fill="#323644"/>
<path d="M55.412 67.2026C55.9184 68.4434 57.3807 72.4777 55.9788 77.075C55.3717 79.0653 54.4192 80.532 53.6646 81.4895C50.9782 82.8091 47.9933 83.2753 45.0654 82.8414L33.0319 81.0484L27.9508 107.435L20.3141 106.054L25.8144 71.8358C25.9855 70.8676 26.4483 70.0213 27.0922 69.3937C27.2733 69.218 28.038 68.508 29.4869 68.2605C31.6501 67.884 41.7015 67.4465 55.412 67.2026Z" fill="#45495A"/>
<path d="M57.659 73.0551C56.1632 75.6012 48.4192 75.4004 44.891 71.2979C43.8278 70.0607 43.4555 68.8271 41.9497 68.2677C39.6322 67.4035 37.4354 69.1822 37.0162 68.4936C36.6339 67.8625 38.1967 65.944 39.2498 64.9434C40.7758 63.4947 41.8189 62.8205 41.8189 62.8205C42.4997 62.3974 43.0967 61.9634 43.2811 61.5331C43.4254 61.1924 43.4153 60.4501 43.318 59.4962C43.3013 59.3169 43.2811 59.1341 43.2577 58.9404C43.147 59.1843 43.0095 59.4353 42.8519 59.6899C42.4561 60.3246 41.9329 60.9665 41.4097 61.4937C40.7691 62.1427 40.1319 62.6269 39.7328 62.7309C39.4645 62.799 39.1995 62.7631 38.9312 62.652C38.2236 62.3579 37.5427 61.5259 36.9994 60.7227C36.872 60.5326 36.7512 60.3425 36.6406 60.1668C36.2716 59.568 36.0067 59.0695 35.9094 58.9512C35.6076 58.5926 37.1235 57.8861 37.744 57.359C38.3644 56.8282 40.806 46.5255 40.806 46.5255C40.8597 45.7115 41.0643 44.5603 41.7417 43.4415C43.4857 40.5655 47.0777 40.3898 48.4527 40.318C49.365 40.2678 53.1045 40.0634 55.8714 42.6741C59.6881 46.2745 60.0771 53.737 58.5545 58.5065C57.9072 60.5326 56.7266 62.6627 57.2096 65.5351C57.3605 66.4352 57.6758 67.4107 57.8133 69.2037C57.9877 71.3051 58.0682 72.3558 57.659 73.0551Z" fill="#6163AD"/>
<path d="M43.251 57.6708C42.8552 58.9367 42.1509 60.3317 41.4131 61.49C40.7725 62.1391 40.1353 62.6232 39.7362 62.7272C39.4678 62.7953 39.2029 62.7594 38.9346 62.6483C38.2269 62.3542 37.5461 61.5223 37.0028 60.719C36.8753 60.5289 36.7546 60.3389 36.6439 60.1631C38.5288 58.5458 42.104 54.8414 42.4762 49.7744C42.9894 42.8533 43.2778 57.99 43.251 57.6708Z" fill="#494F8C"/>
<path d="M54.6339 49.3297C54.6339 49.3297 53.1515 65.2589 46.5914 67.4464C46.5511 67.4213 46.5143 67.3962 46.4774 67.3747C45.5349 66.783 44.2102 66.5033 42.9491 66.281C41.3427 66.0013 39.8435 65.8112 39.3639 65.198C38.7937 64.4664 40.474 63.656 41.8223 62.8168C42.5031 62.3937 43.1001 61.9598 43.2845 61.5295C43.4287 61.1888 43.4187 60.4465 43.3214 59.4926C49.687 56.9752 54.6339 49.3297 54.6339 49.3297Z" fill="#494F8C"/>
<path d="M46.6752 60.9558C39.7529 61.5726 36.6171 60.902 33.7764 60.6402C32.7602 60.5469 32.7334 57.7964 33.7395 57.6207C33.7395 57.6207 40.5746 56.8461 45.9843 56.2222L46.6752 60.9558Z" fill="#F8A583"/>
<path d="M34.4673 56.1217C33.8234 55.4834 32.455 54.2175 32.0727 53.8446C31.8044 53.59 31.1873 54.2211 31.5897 54.9168C31.8782 55.426 32.1901 55.7811 32.1901 55.7811L32.7502 56.5987C32.7502 56.5987 33.0151 57.1294 31.8379 57.5346C31.4388 57.6745 33.8871 58.5997 33.8871 58.5997C33.8871 58.5997 35.99 58.4383 35.829 58.008C35.6646 57.5848 35.1146 56.7134 34.4673 56.1217Z" fill="#F8A583"/>
<path d="M36.3589 58.8328C36.2851 59.7257 36.2247 60.5039 34.8932 61.4972C34.4036 61.863 33.9072 62.1965 33.2801 62.365C31.63 62.8061 31.9486 61.6442 31.9486 61.6442C31.9486 61.6442 30.7278 61.2892 31.2443 60.5541C30.332 60.2744 30.493 59.385 30.6372 59.1663C30.104 58.8686 30.0537 58.1299 30.6037 57.9255C30.8686 57.8251 31.5461 57.3481 32.7367 57.0362C33.6255 56.8066 34.588 56.5413 35.0341 56.821C35.403 57.0505 36.4326 57.9542 36.3589 58.8328Z" fill="#F8A583"/>
<path d="M31.2443 60.5505C31.2108 60.6007 31.184 60.6473 31.1672 60.6903C31.469 60.676 31.8514 60.6509 32.0157 60.3712C31.6334 60.4106 31.0431 60.3281 30.7916 60.2887C30.8989 60.3927 31.0431 60.4859 31.2443 60.5505Z" fill="#EF8564"/>
<path d="M31.9486 61.6407C31.9486 61.6407 31.9251 61.7231 31.9251 61.8415C32.2136 61.8307 32.6227 61.759 32.7435 61.4578C32.2203 61.5653 31.573 61.4757 31.5629 61.4757C31.7574 61.5869 31.9486 61.6407 31.9486 61.6407Z" fill="#EF8564"/>
<path d="M30.6373 59.1626C30.6037 59.2128 30.5736 59.2953 30.5501 59.3957C30.7916 59.3957 31.2108 59.3635 31.3818 59.1483C31.0733 59.0981 30.6976 59.0515 30.4495 59.0264C30.5065 59.0802 30.5668 59.1232 30.6373 59.1626Z" fill="#EF8564"/>
<path d="M38.0123 55.8491C38.0123 55.8491 36.1509 60.9592 38.3812 62.9029C40.6081 64.8465 45.4444 64.1938 50.7434 56.2938C56.0425 48.3937 58.1956 44.094 55.4455 42.8389C52.6953 41.5838 50.4214 43.5525 49.0128 46.6258C47.5472 49.821 44.844 54.2426 43.2241 54.4111C41.6009 54.5761 38.0123 55.8491 38.0123 55.8491Z" fill="#6163AD"/>
<path d="M52.9335 40.8989C50.7099 40.1244 48.2784 39.9056 45.8166 40.5798C45.3605 41.6413 44.3141 44.8651 47.886 44.9297C50.8876 44.9835 52.3063 42.4338 52.9335 40.8989Z" fill="#F8A583"/>
<path d="M43.9888 35.1003C43.9888 35.1039 43.9888 35.1039 43.9888 35.1075C43.9586 35.5988 44.123 36.0829 44.4449 36.4307C44.7132 36.7212 45.0419 36.9614 45.4075 37.1443C47.0341 37.9763 49.1436 37.9871 50.8642 37.5137C51.8636 37.2376 52.8127 36.6638 53.5103 35.8462C53.7585 35.5557 53.9664 35.2401 54.1341 34.9031C54.607 33.9743 54.7848 32.9056 54.6842 31.8549C54.5064 30.044 54.0536 28.0573 53.2085 26.7556C52.5243 25.7048 50.5657 24.0588 47.1381 25.3857C47.1381 25.3857 43.5394 24.7832 42.5903 27.7274C41.9094 29.8324 44.1028 33.2822 43.9888 35.1003Z" fill="#241E22"/>
<path d="M51.8602 25.4932C52.7456 24.3564 54.6238 21.8067 57.7931 23.3738C60.9658 24.941 60.5198 30.1873 59.1447 33.2247C57.5919 36.653 60.5902 37.8256 60.5902 37.8256C60.5902 37.8256 57.5885 39.7191 56.1229 35.9896C54.6573 32.2601 57.0788 28.258 52.816 28.2222C48.5533 28.1863 51.8602 25.4932 51.8602 25.4932Z" fill="#241E22"/>
<path d="M52.7423 25.8733C53.7853 25.1203 54.9894 24.2632 56.3141 24.525C57.4846 24.7545 58.1688 25.8877 58.749 26.8918C58.8161 27.0065 58.9871 26.9025 58.9201 26.7842C58.313 25.7371 57.5852 24.5644 56.3644 24.3206C54.9793 24.0445 53.7317 24.9015 52.6417 25.6905C52.5377 25.7693 52.635 25.9522 52.7423 25.8733Z" fill="#161C38"/>
<path d="M53.564 26.7878C54.6339 25.6295 56.3544 26.1351 57.1962 27.3221C58.1923 28.7243 58.1118 30.5711 57.8502 32.2171C57.8301 32.3497 58.0179 32.4071 58.0414 32.2744C58.3265 30.4778 58.3902 28.4374 57.1895 26.9814C56.2471 25.8375 54.493 25.4825 53.4265 26.6408C53.336 26.7376 53.4768 26.8846 53.564 26.7878Z" fill="#161C38"/>
<path d="M51.9038 25.6833C52.8395 26.1818 53.5237 27.0675 53.792 28.1469C53.8591 28.4087 54.2381 28.2975 54.171 28.0358C53.8759 26.8559 53.1246 25.8626 52.1017 25.3211C51.877 25.1992 51.6758 25.5614 51.9038 25.6833Z" fill="white"/>
<path d="M46.9335 41.8349C47.2253 42.735 48.1241 42.9179 48.9123 42.882C49.7843 42.8426 50.9279 42.588 51.2096 41.5588C51.4042 40.8487 51.2264 40.0454 51.1996 39.3211C51.1828 38.8405 51.1828 38.3564 51.2063 37.8759C51.2197 37.5818 51.2398 37.2842 51.2734 36.9901C51.3002 36.7535 51.327 36.5168 51.3606 36.2801C51.384 36.1223 51.4075 35.9609 51.4377 35.8031C51.4578 35.692 51.5718 35.3943 51.4511 35.3226C51.3404 35.2581 51.1191 35.4732 51.0285 35.5342C49.7004 36.4451 48.3119 37.2555 46.8765 37.9476C46.8195 37.9727 46.7625 38.005 46.7289 38.0624C46.6987 38.1162 46.6987 38.1843 46.7021 38.2452C46.7155 38.7509 46.7323 39.2565 46.7457 39.7621C46.7524 39.9594 46.7524 40.1566 46.7558 40.3538C46.7558 40.8559 46.7759 41.3544 46.9335 41.8349Z" fill="#F8A583"/>
<path d="M46.749 40.3574C48.0034 39.9414 49.2007 39.3461 50.2907 38.5679C50.5925 38.3528 50.9044 38.1233 51.2063 37.8794C51.2197 37.5854 51.2398 37.2877 51.2734 36.9937C51.3002 36.757 51.327 36.5203 51.3606 36.2836C51.384 36.1258 51.4075 35.9645 51.4377 35.8067C51.4578 35.6955 51.5718 35.3979 51.4511 35.3262C51.3404 35.2616 51.1191 35.4768 51.0285 35.5377C49.7004 36.4486 48.3119 37.259 46.8765 37.9511C46.8195 37.9762 46.7625 38.0085 46.7289 38.0659C46.6987 38.1197 46.6987 38.1878 46.7021 38.2488C46.7155 38.7544 46.7323 39.2601 46.7457 39.7657C46.7457 39.9629 46.7457 40.1602 46.749 40.3574Z" fill="#B35E47"/>
<path d="M51.5215 34.2468C51.8803 34.4978 52.3667 34.5265 52.749 34.3149C53.071 34.1356 53.3057 33.7913 53.3762 33.4112C53.3896 33.3431 53.3963 33.2714 53.3963 33.1996C53.3996 33.0741 53.3829 32.9522 53.3393 32.8374C53.2319 32.5541 52.9536 32.3605 52.6685 32.3497C52.3834 32.339 52.1017 32.5039 51.9374 32.755L51.7797 33.3287L51.5215 34.2468Z" fill="#F8A583"/>
<path d="M47.3426 38.8513C49.4589 39.3282 51.4343 36.1223 51.6188 35.8211C51.7697 35.5736 52.4103 34.4153 52.6886 32.7406C52.8932 31.5106 52.8228 30.2483 52.3231 29.0936C52.1218 28.6239 51.8435 28.1899 51.5081 27.8134C50.0928 26.232 47.7317 26.0276 46.0984 27.3508C45.2465 28.0393 44.626 29.0542 44.3108 30.1372C44.2269 30.3882 44.1263 30.7504 44.0592 31.1915C43.7574 33.1423 44.3946 34.7237 44.6864 35.4158C45.3169 36.9256 45.9977 38.55 47.3426 38.8513Z" fill="#F8A583"/>
<path d="M45.8905 33.6874C45.8469 33.8847 45.6657 34.0066 45.4813 33.96C45.2968 33.9133 45.1828 33.7197 45.2264 33.5225C45.27 33.3252 45.4511 33.2033 45.6356 33.2499C45.8167 33.293 45.9307 33.4902 45.8905 33.6874Z" fill="#121212"/>
<path d="M48.768 33.6515C48.7244 33.8488 48.5433 33.9707 48.3588 33.9241C48.1744 33.8775 48.0604 33.6838 48.104 33.4866C48.1476 33.2893 48.3287 33.1674 48.5131 33.214C48.6942 33.2607 48.8083 33.4543 48.768 33.6515Z" fill="#121212"/>
<path d="M46.4841 34.3185L46.1755 35.1971L46.7256 35.3369" stroke="#D3603A" stroke-width="0.2" stroke-miterlimit="10" stroke-linecap="round" stroke-linejoin="round"/>
<path d="M47.7954 30.8544C47.7417 31.0982 47.8993 31.3349 48.1308 31.3672C48.4829 31.4138 48.9893 31.5214 49.4421 31.7473C49.6098 31.8334 49.811 31.7653 49.8982 31.5895C49.9821 31.421 49.915 31.2273 49.7741 31.109C49.4857 30.8652 49.0296 30.503 48.1911 30.5245C48.0033 30.5316 47.839 30.6607 47.7954 30.8544Z" fill="#121212"/>
<path d="M46.1285 30.8866C46.152 31.1305 46.038 31.36 45.8803 31.3851C45.6456 31.4245 45.3068 31.5142 44.9949 31.7258C44.8776 31.8047 44.7501 31.7329 44.7032 31.5572C44.6562 31.3851 44.7099 31.1986 44.8071 31.0839C45.0084 30.8508 45.327 30.5065 45.8837 30.546C46.0078 30.5603 46.1118 30.6894 46.1285 30.8866Z" fill="#121212"/>
<path d="M52.5277 26.96C51.8334 26.4795 50.4617 25.6977 48.6607 25.73C47.8625 25.7443 45.6288 25.8125 44.4248 27.6987C43.422 29.2694 43.7775 31.0911 43.8748 31.5286C44.4986 30.2556 45.1258 28.9825 45.7496 27.7059C45.8099 27.7417 45.8703 27.7812 45.934 27.8171C46.3398 28.3012 46.9938 28.961 47.943 29.4846C49.4891 30.3416 50.9446 30.3596 51.6456 30.3201C51.6188 30.4528 51.498 31.0839 51.8602 31.7043C52.1453 32.192 52.5612 32.3857 52.7054 32.4431C52.9201 32.1167 53.5003 31.1557 53.4869 29.7894C53.4801 28.2761 52.7524 27.2505 52.5277 26.96Z" fill="#241E22"/>
<path d="M48.1107 36.5563C48.1577 36.6925 47.2957 37.3237 46.4908 36.9758C46.3701 36.9221 46.1521 36.8073 46.1554 36.7212C46.1554 36.628 46.4271 36.6244 47.1247 36.5886C48.0537 36.5419 48.0973 36.524 48.1107 36.5563Z" fill="white"/>
<path d="M88.6585 94.0763H86.4986C86.3276 94.0763 86.1901 93.9293 86.1901 93.7464C86.1901 93.5635 86.3276 93.4165 86.4986 93.4165H88.6585C88.8295 93.4165 88.967 93.5635 88.967 93.7464C88.967 93.9293 88.8295 94.0763 88.6585 94.0763Z" fill="#DAD9ED"/>
<path d="M91.0523 91.5399L87.4303 93.5514L87.6405 93.9842L91.2625 91.9727L91.0523 91.5399Z" fill="#DAD9ED"/>
<path d="M93.4813 109.6C93.4813 110.579 92.7368 111.376 91.8212 111.376C90.9056 111.376 90.161 110.579 90.161 109.6C90.161 108.621 90.9056 107.825 91.8212 107.825C92.7368 107.829 93.4813 108.621 93.4813 109.6Z" fill="#DAD9ED"/>
<path d="M82.4774 109.6C82.4774 110.579 81.7328 111.376 80.8172 111.376C79.9017 111.376 79.1571 110.579 79.1571 109.6C79.1571 108.621 79.9017 107.825 80.8172 107.825C81.7328 107.829 82.4774 108.621 82.4774 109.6Z" fill="#DAD9ED"/>
<path d="M104.485 109.6C104.485 110.579 103.741 111.376 102.825 111.376C101.909 111.376 101.165 110.579 101.165 109.6C101.165 108.621 101.909 107.825 102.825 107.825C103.744 107.829 104.485 108.621 104.485 109.6Z" fill="#DAD9ED"/>
<path d="M96.0939 90.3218H87.5484C86.1766 90.3218 85.0665 89.1348 85.0665 87.6681H98.5724C98.5758 89.1348 97.4656 90.3218 96.0939 90.3218Z" fill="#B7B6CE"/>
<path d="M93.8234 90.3218H89.8156V91.6414H93.8234V90.3218Z" fill="#DAD9ED"/>
<path d="M92.6495 91.645H90.9827V96.4216H92.6495V91.645Z" fill="#B7B6CE"/>
<path d="M93.545 96.4216H90.0972V107.377H93.545V96.4216Z" fill="#B7B6CE"/>
<path d="M105.904 109.192H77.7384C77.7384 107.685 78.8821 106.463 80.2907 106.463H103.355C104.764 106.463 105.904 107.685 105.904 109.192Z" fill="#B7B6CE"/>
<path d="M104.277 87.9048C107.024 87.9048 109.134 83.1999 108.865 77.7957C108.466 69.7737 108.973 61.9382 110.532 54.3178C111.139 51.3486 110.039 48.1068 108.419 48.1068L89.4567 49.0284C88.739 49.0643 88.1185 49.6524 87.9206 50.4951C85.5327 60.6329 86.2706 73.5929 86.4114 87.9012H104.277" fill="#DAD9ED"/>
<path d="M75.5852 81.8229H97.4958V87.9048H75.5852C74.2135 87.9048 74.1666 86.5134 74.1666 84.8459C74.1699 83.1748 74.2135 81.8229 75.5852 81.8229Z" fill="#E6E5F3"/>
<path d="M110.546 54.0274C108.818 62.9064 108.436 72.0831 109.181 81.5073C109.325 83.3362 109.016 85.0718 108.443 86.2731C107.963 87.2736 107.299 87.9048 106.551 87.9048H96.8653C96.4561 87.9048 96.0973 87.5677 95.8424 87.019C95.5841 86.4704 95.4299 85.7101 95.4299 84.8638C95.4299 83.1712 96.047 81.7691 96.862 81.7691H103.439C105.813 81.7691 106.062 81.7906 106.062 76.121C106.062 65.3234 106.699 55.8957 108.607 48.1068C110.086 48.1104 111.099 51.1944 110.546 54.0274Z" fill="#B7B6CE"/>
<path d="M93.4377 43.9793C93.2532 43.4091 93.2264 42.821 93.2197 42.2257C93.2163 41.9926 93.2163 41.7596 93.2096 41.5265C93.1929 40.9276 93.1761 40.3287 93.1593 39.7298C93.156 39.6545 93.156 39.5756 93.1929 39.5111C93.2298 39.443 93.3002 39.4071 93.3673 39.3748C95.0677 38.5536 96.711 37.5961 98.284 36.5167C98.3913 36.4414 98.6495 36.1868 98.7837 36.2657C98.9279 36.3518 98.7904 36.7068 98.7703 36.8359C98.7368 37.0224 98.7066 37.2124 98.6797 37.3989C98.6395 37.6786 98.606 37.9583 98.5758 38.2416C98.5389 38.5895 98.512 38.9373 98.4986 39.2888C98.4718 39.8589 98.4718 40.4291 98.4919 40.9993C98.5221 41.8564 98.73 42.8067 98.502 43.6458C98.17 44.8651 96.815 45.1627 95.7854 45.2093C94.8463 45.2595 93.7831 45.0444 93.4377 43.9793Z" fill="#F7A08D"/>
<path d="M93.2197 42.2294C93.2163 41.9963 93.2163 41.7632 93.2096 41.5301C93.1929 40.9312 93.1761 40.3324 93.1593 39.7335C93.156 39.6582 93.156 39.5793 93.1929 39.5148C93.2298 39.4466 93.3002 39.4108 93.3673 39.3785C95.0677 38.5573 96.711 37.5998 98.284 36.5204C98.3913 36.4451 98.6495 36.1905 98.7837 36.2694C98.9279 36.3554 98.7904 36.7105 98.7703 36.8396C98.7368 37.026 98.7066 37.2161 98.6797 37.4026C98.6395 37.6823 98.606 37.962 98.5758 38.2453C98.5389 38.5931 98.512 38.941 98.4986 39.2924C98.1398 39.5793 97.7709 39.8518 97.4153 40.1065C96.1241 41.0317 94.7054 41.7381 93.2197 42.2294Z" fill="#D9897D"/>
<path d="M90.9861 33.7089C90.2314 33.4794 89.4467 33.9456 89.232 34.7524C89.0174 35.5593 89.4534 36.3984 90.208 36.6279C90.9626 36.8574 91.7474 36.3912 91.962 35.5844C92.1767 34.7775 91.7407 33.9384 90.9861 33.7089Z" fill="#F7A08D"/>
<path d="M90.5131 30.3882C93.4276 26.7089 99.2532 28.6131 98.2806 35.4481C97.6333 39.9881 94.7859 40.1889 94.7859 40.1889C92.3309 40.7483 90.7915 39.5003 90.1409 37.4886C89.4902 35.4768 90.5131 30.3918 90.5131 30.3882Z" fill="#F7A08D"/>
<path d="M98.7434 34.2324C98.1196 34.0424 97.4689 34.4297 97.2912 35.0967C97.1134 35.7637 97.4756 36.4594 98.0995 36.6494C98.7233 36.8395 99.3739 36.4522 99.5517 35.7852C99.7328 35.1182 99.3706 34.4225 98.7434 34.2324Z" fill="#F7A08D"/>
<path d="M97.868 35.8354C98.0827 34.817 98.948 35.0644 98.948 35.0644" stroke="#ED8B62" stroke-width="1.9535" stroke-linecap="round" stroke-linejoin="round"/>
<path d="M91.3281 33.4507C91.1168 33.3969 90.9021 33.5332 90.8518 33.7591C90.8015 33.985 90.929 34.2145 91.1403 34.2683C91.3516 34.3221 91.5662 34.1858 91.6165 33.9599C91.6702 33.734 91.5394 33.5045 91.3281 33.4507Z" fill="#141414"/>
<path d="M94.6652 33.4614C94.4539 33.4076 94.2392 33.5439 94.1889 33.7698C94.1386 33.9957 94.2661 34.2253 94.4774 34.279C94.6887 34.3328 94.9033 34.1966 94.9536 33.9706C95.0073 33.7447 94.8798 33.5188 94.6652 33.4614Z" fill="#141414"/>
<path d="M92.4013 35.8533L91.7775 35.4552L92.4785 34.3579" stroke="#895250" stroke-width="0.2" stroke-miterlimit="10"/>
<path d="M95.0878 30.3416C95.5305 31.36 96.0738 31.8549 96.4829 32.1203C97.0229 32.4681 97.5428 32.5506 97.6736 33.0204C97.744 33.2678 97.687 33.5296 97.4857 34.0209C97.2845 34.5122 97.0766 34.9138 96.9189 35.1899C96.8183 35.3621 96.7647 35.4625 96.6909 35.5701C96.6909 35.5701 96.2616 36.212 95.5774 36.6279C94.5478 37.2483 93.5115 36.3662 91.7809 36.6208C90.9994 36.7355 90.3957 37.0367 90.0469 37.2412C90.3823 38.7509 91.422 39.9522 92.7703 40.3574C94.5176 40.881 96.3421 39.9271 97.1537 38.4066C97.7473 37.2914 97.6434 36.1546 97.583 35.7207C97.7574 35.0142 97.8681 34.4476 98.284 34.2719C98.6596 34.1105 99.1794 34.3114 99.4075 34.6735C99.8133 35.319 99.1627 36.2801 99.0084 36.4917C98.9983 36.506 98.9916 36.5168 98.9849 36.5239C98.7703 36.7929 98.3343 36.7463 98.0156 36.671C97.905 36.9794 97.7909 37.2842 97.6803 37.5926C97.4388 38.256 97.7004 39.3067 98.1263 39.4502C98.237 39.4896 98.4584 39.5004 100.082 37.8257C100.457 37.4384 100.642 37.2483 100.749 37.1264C102.121 35.5342 102.117 32.8231 102.117 32.0235C102.117 30.7145 102.114 28.4625 100.762 27.4728C100.756 27.4656 100.759 27.4692 100.732 27.4512C100.189 27.0568 99.5685 26.5153 99.5685 26.5153C99.1794 26.1782 98.7602 26.0312 98.0291 25.7765C96.7479 25.3319 94.7725 24.6434 92.5657 25.3677C91.7004 25.651 90.3119 26.1065 89.5405 27.5194C88.7222 29.0148 89.0743 30.7074 89.2253 31.464C89.4231 32.443 89.7854 33.1817 90.0537 33.6479C90.1912 32.8196 90.332 31.9912 90.4695 31.1664C90.6372 31.2955 91.697 32.088 93.0956 31.7653C94.303 31.4855 94.9435 30.5603 95.0878 30.3416Z" fill="#11153B"/>
<path d="M92.0559 37.7002C92.0559 37.7002 91.9922 38.3134 92.9212 38.378C93.8502 38.4425 93.8771 37.8401 93.8771 37.8401L92.0559 37.7002Z" fill="white"/>
<path d="M88.0715 71.1688L87.5483 45.1807L103.945 47.2068L103.187 71.1688H88.0715Z" fill="#E5E5E5"/>
<path d="M91.7742 70.2507L91.3315 66.8188L94.1923 45.4603H94.8966L95.8659 66.8188L95.2219 70.2507H91.7742Z" fill="#6163AD"/>
<path d="M93.7161 49.0214L93.9106 47.5654L95.0609 49.0465L95.1414 50.8574C94.6686 50.2442 94.1923 49.631 93.7161 49.0214Z" fill="#DAD9ED"/>
<path d="M93.052 53.9808L93.2868 52.2236L95.3259 54.845L95.4265 57.0361C94.6317 56.0177 93.8402 54.9992 93.052 53.9808Z" fill="#DAD9ED"/>
<path d="M91.7138 63.9715L91.9486 62.2144C93.2331 63.8675 94.5176 65.5207 95.8021 67.1703L95.4902 68.8306L91.7138 63.9715Z" fill="#DAD9ED"/>
<path d="M91.7742 70.2508L91.3516 66.9839C92.1968 68.074 93.042 69.1606 93.8905 70.2508H91.7742Z" fill="#DAD9ED"/>
<path d="M92.3846 58.9439L92.6529 56.9501L95.5908 60.7298L95.7049 63.2149C94.5981 61.7877 93.4913 60.364 92.3846 58.9439Z" fill="#DAD9ED"/>
<path d="M93.7999 43.7212H95.7854L96.0839 45.629L94.5344 47.0168L93.0185 45.5608L93.7999 43.7212Z" fill="#6163AD"/>
<path d="M95.7955 43.7714L95.9698 44.8902L94.2426 46.737L93.5987 46.1202C94.3298 45.3349 95.061 44.5531 95.7955 43.7714Z" fill="#DAD9ED"/>
<path d="M95.0475 71.1688L98.9279 43.5634L105.77 45.4604L103.6 71.1688H95.0475Z" fill="#45495A"/>
<path d="M103.449 70.8138C103.429 63.6094 103.429 54.4004 103.449 47.2821" stroke="#2E313C" stroke-width="1.5114" stroke-miterlimit="10" stroke-linecap="round"/>
<path d="M103.476 52.2918C103.714 50.8108 103.952 49.3261 104.19 47.8451" stroke="#2E313C" stroke-width="1.5114" stroke-miterlimit="10" stroke-linecap="round"/>
<path d="M87.4981 71.1688L86.3309 45.7042L91.9687 43.5634V71.1688H87.4981Z" fill="#45495A"/>
<path d="M87.4411 47.7626C87.3706 54.9132 87.8502 63.6093 87.5786 70.7994" stroke="#2E313C" stroke-width="1.5114" stroke-miterlimit="10" stroke-linecap="round"/>
<path d="M86.3309 47.9061C86.7267 49.8283 87.1224 51.754 87.5182 53.6761" stroke="#2E313C" stroke-width="1.5114" stroke-miterlimit="10" stroke-linecap="round"/>
<path d="M99.2297 40.9025L94.7926 43.6924L96.5131 47.2067L100.189 43.6171L99.2297 40.9025Z" fill="white"/>
<path d="M94.7926 43.6924L92.8776 47.3251L91.4857 43.4055L92.9513 40.9025L94.7926 43.6924Z" fill="white"/>
<path d="M67.848 67.0197C67.7105 66.4101 68.4852 66.4639 68.9178 66.4245C69.3673 66.3814 69.9173 66.2667 70.7189 66.3205C70.9469 66.3348 71.8558 66.4388 72.4092 67.1273C72.5769 67.3353 70.8865 67.719 70.6618 67.7692C70.6618 67.7692 69.5014 67.4465 69.1023 67.407C68.6965 67.3604 67.9587 67.5146 67.848 67.0197Z" fill="#F7A08D"/>
<path d="M69.5282 68.4613C69.773 68.4111 70.3163 67.285 70.0715 67.3352L66.7344 68.1995C66.4896 68.2497 66.285 68.4218 66.3253 68.6657C66.3622 68.9095 66.5902 69.035 66.8351 68.9848L69.5282 68.4613Z" fill="#F7A08D"/>
<path d="M70.8865 69.9137C70.7859 69.6913 70.5478 69.6662 70.3197 69.7738L67.7976 70.9142C67.5696 71.0182 67.4522 71.2405 67.5528 71.4628C67.6534 71.6852 68.0123 71.7461 68.2437 71.6421L71.0274 70.5448C71.2554 70.4336 70.9871 70.136 70.8865 69.9137Z" fill="#F7A08D"/>
<path d="M70.1386 68.5761C70.0749 68.3107 69.7965 68.1601 69.5148 68.2426L66.5098 69.1929C66.2314 69.2718 66.0134 69.4869 66.0771 69.7523C66.1442 70.0177 66.4025 70.1109 66.6808 70.0284L69.7496 69.2C70.0313 69.1212 70.2057 68.8414 70.1386 68.5761Z" fill="#F7A08D"/>
<path d="M70.6014 69.2359C70.5176 68.9777 70.2258 68.845 69.9508 68.9418L66.9961 70.0894C66.7244 70.1862 66.5232 70.387 66.607 70.6452C66.6909 70.907 67.0061 70.9465 67.2811 70.8496L70.4304 69.9567C70.7054 69.8635 70.6853 69.4941 70.6014 69.2359Z" fill="#F7A08D"/>
<path d="M69.3874 67.5756C69.3874 67.5756 69.2566 71.0791 70.9402 70.6093C73.2745 69.9101 73.2543 68.3358 72.5366 67.2743C71.8223 66.2128 70.2627 67.3927 69.3874 67.5756Z" fill="#F7A08D"/>
<path d="M64.3902 100.331L68.6563 101.388L66.436 112.649L61.8681 112.67L64.3902 100.331Z" fill="#FBCABF"/>
<path d="M66.6004 111.641C66.8888 111.559 67.1772 111.763 67.2208 112.079L67.8547 115.557L54.2281 115.654L61.9486 111.182C63.0923 112.95 65.5271 111.946 66.6004 111.641Z" fill="#0F1011"/>
<path d="M67.849 115.565L54.2224 115.662L54.2302 116.924L67.8568 116.828L67.849 115.565Z" fill="#6163AD"/>
<path d="M82.0581 71.7748L78.0436 81.6508L69.0654 108.822L60.8787 107.786L68.6495 80.0801C69.3806 77.6451 71.1481 75.723 73.4119 74.9018L82.0581 71.7748Z" fill="#45495A"/>
<path d="M82.4942 101.421L87.0655 101.399L89.4366 112.641L84.8654 112.659L82.4942 101.421Z" fill="#FBCABF"/>
<path d="M89.1985 111.641C89.4869 111.558 89.7754 111.763 89.819 112.078L90.4528 115.557L76.8262 115.654L84.5467 111.182C85.6904 112.95 88.1253 111.946 89.1985 111.641Z" fill="#0F1011"/>
<path d="M90.4476 115.569L76.821 115.665L76.8289 116.928L90.4555 116.831L90.4476 115.569Z" fill="#6163AD"/>
<path d="M83.8558 70.6847L76.6484 75.0597C74.2806 76.4977 73.2342 79.5602 74.1834 82.2927L82.0917 108.55L89.7217 107.653L83.4768 83.0207C95.4534 83.7236 100.306 82.0704 100.306 82.0704C106.662 79.2661 103.372 70.6847 103.372 70.6847H83.8558Z" fill="#45495A"/>
<path d="M85.4757 46.8554C84.2985 51.0188 83.6311 62.7165 83.6311 62.7165L88.7423 63.3871C89.336 61.0705 90.7681 51.6966 91.2108 47.9169C91.5897 44.7217 86.2068 44.2663 85.4757 46.8554Z" fill="#45495A"/>
<path d="M89.1348 54.8487C89.118 54.8487 89.118 54.8164 89.1348 54.8164C89.1549 54.8164 89.1549 54.8487 89.1348 54.8487Z" fill="#020202"/>
<path d="M72.9659 69.7129L72.3924 66.862L75.6657 64.9829L76.4539 68.9096L72.9659 69.7129Z" fill="white"/>
<path d="M73.5092 68.7841C73.5561 69.01 73.7641 69.1535 73.9754 69.1068C74.1866 69.0566 74.3208 68.8343 74.2772 68.6084C74.2302 68.3825 74.0223 68.239 73.811 68.2856C73.5964 68.3358 73.4622 68.5582 73.5092 68.7841Z" fill="#45495A"/>
<path d="M90.4729 66.8763C90.3689 66.2559 91.1403 66.3599 91.573 66.3492C92.0224 66.3348 92.5791 66.2559 93.3773 66.3563C93.602 66.385 94.5042 66.5464 95.0174 67.2672C95.1716 67.4859 93.4645 67.7621 93.2365 67.7979C93.2365 67.7979 92.0962 67.4035 91.7004 67.3353C91.3013 67.2672 90.5601 67.3748 90.4729 66.8763Z" fill="#F7A08D"/>
<path d="M92.0727 68.4183C92.3208 68.3824 92.9245 67.2958 92.6764 67.3281L89.2957 67.9772C89.0475 68.0095 88.8329 68.1708 88.8597 68.4183C88.8832 68.6657 89.1045 68.802 89.3494 68.7661L92.0727 68.4183Z" fill="#F7A08D"/>
<path d="M93.3471 69.9567C93.2599 69.7272 93.0252 69.6878 92.7904 69.781L90.208 70.76C89.9732 70.8497 89.8457 71.0612 89.9329 71.2908C90.0201 71.5203 90.379 71.6027 90.6138 71.5131L93.4545 70.5915C93.6892 70.4982 93.4343 70.1862 93.3471 69.9567Z" fill="#F7A08D"/>
<path d="M92.6764 68.5725C92.6261 68.3036 92.3578 68.135 92.0727 68.1996L89.0207 68.9598C88.739 69.0244 88.5076 69.2216 88.5579 69.4905C88.6082 69.7595 88.8631 69.8671 89.1448 69.8061L92.2538 69.175C92.5389 69.1104 92.7267 68.8415 92.6764 68.5725Z" fill="#F7A08D"/>
<path d="M93.1023 69.261C93.0319 68.9957 92.7502 68.8486 92.4718 68.9275L89.46 69.885C89.1817 69.9639 88.9704 70.154 89.0408 70.4157C89.1112 70.6811 89.4232 70.7421 89.7015 70.6632L92.8944 69.9711C93.1694 69.8922 93.1694 69.5228 93.1023 69.261Z" fill="#F7A08D"/>
<path d="M91.9822 67.529C91.9822 67.529 91.6602 71.0182 93.3673 70.656C95.7351 70.1037 95.8055 68.5331 95.1448 67.4286C94.4841 66.3205 92.8609 67.3963 91.9822 67.529Z" fill="#F7A08D"/>
<path d="M95.4366 69.8849L95.0207 67.0017L98.3879 65.3342L98.9614 69.3076L95.4366 69.8849Z" fill="white"/>
<path d="M96.0269 68.9921C96.0604 69.2216 96.2583 69.3758 96.4729 69.3435C96.6876 69.3076 96.8318 69.0961 96.8016 68.8666C96.7681 68.6371 96.5702 68.4829 96.3556 68.5151C96.1409 68.551 95.9967 68.7626 96.0269 68.9921Z" fill="#45495A"/>
<path d="M118.212 66.2775C118.866 66.1663 119.567 66.4388 120 66.9732" stroke="#2E313C" stroke-width="1.5114" stroke-miterlimit="10" stroke-linecap="round"/>
<path d="M83.4499 61.4327C84.2381 60.1847 85.8345 59.862 87.0184 60.7227C88.199 61.5797 88.5209 63.2903 87.7328 64.5382C86.9413 65.7897 85.3449 66.1089 84.1643 65.2518C82.9804 64.3912 82.6584 62.6842 83.4499 61.4327Z" fill="#45495A"/>
<path d="M74.6093 69.2789C79.204 68.7841 84.9961 66.5141 86.7535 65.4455L84.5936 60.4393C80.4181 62.6555 78.9894 63.0105 73.3717 66.1878L74.6093 69.2789Z" fill="#45495A"/>
<path d="M105.78 61.8522C106.568 60.6043 108.164 60.2816 109.348 61.1422C110.529 61.9993 110.851 63.7098 110.063 64.9578C109.271 66.2093 107.675 66.5285 106.494 65.6714C105.31 64.8107 104.988 63.1038 105.78 61.8522Z" fill="#45495A"/>
<path d="M96.9391 69.702C101.534 69.2072 107.326 66.9372 109.083 65.8686L106.923 60.8624C102.748 63.0786 101.319 63.4336 95.7015 66.6109L96.9391 69.702Z" fill="#45495A"/>
<path d="M110.381 62.6734L105.317 63.6811C104.593 61.4075 102.62 52.1484 101.96 48.4009C101.4 45.238 106.773 44.4132 107.624 46.9629C109.325 52.0515 110.408 60.7118 110.381 62.6734Z" fill="#45495A"/>
<path d="M105.636 64.4342C104.871 63.1684 105.23 61.4722 106.434 60.6474C107.638 59.8262 109.234 60.1848 109.996 61.4506C110.76 62.7237 110.401 64.4199 109.201 65.2411C107.993 66.0659 106.397 65.7073 105.636 64.4342Z" fill="#45495A"/>
<path d="M70.3063 118.185L77.5036 72.8363H74.066L66.8653 118.185H70.3063Z" fill="#B7B6CE"/>
<path d="M66.8955 118.185L74.0928 72.8363H70.6551L63.4578 118.185H66.8955Z" fill="#DAD9ED"/>
<path d="M97.6534 118.541L90.3958 72.8363H93.8234L101.081 118.541H97.6534Z" fill="#B7B6CE"/>
<path d="M94.2426 118.541L86.9883 72.8363H90.4159L97.6702 118.541H94.2426Z" fill="#DAD9ED"/>
<path d="M40.2895 118.541L33.0319 72.8363H36.4595L43.7172 118.541H40.2895Z" fill="#B7B6CE"/>
<path d="M36.8787 118.541L29.6244 72.8363H33.052L40.3063 118.541H36.8787Z" fill="#DAD9ED"/>
<path d="M3.41089 118.541L10.6652 72.8363H14.0928L6.8385 118.541H3.41089Z" fill="#B7B6CE"/>
<path d="M0 118.541L7.25433 72.8363H10.6819L3.42761 118.541H0Z" fill="#DAD9ED"/>
<path d="M32.9178 69.5264V75.2067H101.608C101.913 75.2067 102.158 74.9413 102.158 74.6186V70.1181C102.158 69.7917 101.909 69.53 101.608 69.53H32.9178V69.5264Z" fill="#B7B6CE"/>
<path d="M1.83453 69.9853V74.744C1.83453 74.9986 2.0257 75.203 2.26382 75.203H32.9145V69.5227H2.26382C2.0257 69.5263 1.83453 69.7307 1.83453 69.9853Z" fill="#9E9EB6"/>
<path d="M96.5802 107.936C96.7647 108.134 96.9358 108.284 97.1135 108.367C97.2678 108.18 97.3382 107.908 97.3818 107.567C97.4791 106.807 97.5361 106.05 97.4388 105.286C97.3181 104.297 97.1202 103.314 96.8519 102.36C96.1308 99.8105 94.6853 97.2572 94.246 97.4258C94.0012 97.519 94.1252 98.437 93.9609 98.4514C93.8435 98.4621 93.6691 98.0103 93.4813 97.5262C93.3639 97.4042 93.2499 97.3182 93.1593 97.3505C92.6932 97.5118 93.0084 100.621 93.924 103.235C94.2661 104.218 94.6887 105.168 95.175 106.075C95.5506 106.778 96.047 107.37 96.5802 107.936Z" fill="#6163AD"/>
<path d="M83.7955 98.9427C83.8256 99.0252 83.8592 99.1077 83.9263 99.1579C84.0202 99.2225 84.1308 99.2009 84.1845 99.1938C84.5266 99.1292 84.6976 99.0969 84.8888 99.036C85.4959 98.8423 86.2907 99.4663 86.2538 99.5846C86.2438 99.6169 86.1733 99.599 85.9017 99.6062C85.9017 99.6062 85.1102 99.6205 84.5702 99.9253C84.5232 99.954 84.4394 100.004 84.4092 100.097C84.3757 100.198 84.4226 100.309 84.4696 100.406C84.8016 101.084 85.1672 101.743 85.5696 102.375C85.6367 102.479 85.7105 102.59 85.8245 102.629C85.9956 102.69 86.1532 102.579 86.2572 102.532C86.8072 102.292 87.7295 103.013 87.6691 103.235C87.6222 103.411 87.0017 103.146 86.7804 103.454C86.4282 103.942 87.4578 105.344 87.7697 105.767C88.4439 106.685 88.9604 106.979 89.5137 107.295C90.1376 107.65 90.6272 106.549 90.9961 106.76C91.2577 106.907 91.1035 107.323 91.2879 107.768C91.7239 108.829 93.5283 108.801 96.426 108.654C96.644 108.643 96.8117 108.596 96.9425 108.517C96.8519 108.464 96.7647 108.399 96.6809 108.327C96.6809 108.327 96.5534 108.22 96.4394 108.091C96.1577 107.772 95.9363 106.057 95.9363 106.057C95.7753 104.81 94.682 104.989 93.7362 103.311C93.4075 102.726 93.3539 103.12 92.8709 99.7388C92.7737 99.0647 92.6462 97.8669 92.8676 97.3792C92.9246 97.2537 93.0017 97.1748 93.1023 97.139C93.1124 97.1354 93.1258 97.1318 93.1359 97.1282C93.2063 97.1139 93.2767 97.121 93.3438 97.1497C93.2901 97.017 93.2398 96.8915 93.1895 96.7804C93.1728 96.7445 93.1426 96.6764 93.0889 96.5903C93.0185 96.4755 92.9212 96.3536 92.7602 96.1958C92.1197 95.5611 91.3617 95.0806 90.6104 94.6072C90.2113 94.3562 89.8089 94.1016 89.4098 93.8506C89.3628 93.8219 89.3125 93.7896 89.2588 93.7788C89.1079 93.7466 88.9604 93.8828 88.9101 94.0406C88.843 94.2486 88.9637 94.3669 88.9033 94.5319C88.8329 94.7256 88.5478 94.8295 88.3533 94.8224C87.753 94.808 87.7362 93.7932 86.8843 93.2983C86.4819 93.0652 86.0828 93.0222 85.2913 93.058C84.8486 93.0796 84.4092 93.1262 83.9699 93.1943C83.6781 93.2373 83.0844 93.223 82.8631 93.4668C82.6451 93.7035 82.7994 94.1948 82.8363 94.4781C83.0476 95.995 83.2823 97.5012 83.7955 98.9427Z" fill="#6163AD"/>
<path d="M84.9894 96.9775C85.6669 97.0062 86.3444 97.0134 87.0252 97.0062C86.1599 96.3034 85.2745 95.622 84.379 94.9658C84.2482 94.8725 84.4092 94.6753 84.5367 94.7685C85.469 95.4499 86.3846 96.1563 87.2801 96.8879C87.2868 96.54 87.1694 96.1814 87.0956 95.8551C86.9916 95.4033 86.891 94.9514 86.7871 94.4996C86.7502 94.3382 86.9816 94.2521 87.0185 94.4135C87.1292 94.9012 87.2398 95.3889 87.3505 95.873C87.4377 96.2603 87.5652 96.6691 87.5115 97.0743C88.4908 97.8848 89.4467 98.7311 90.3623 99.624C90.2583 98.6522 90.0872 97.6876 89.8424 96.7444C89.8022 96.5831 90.0302 96.497 90.0738 96.6584C90.3455 97.7091 90.5333 98.7849 90.6373 99.8715C90.6373 99.8786 90.6339 99.8822 90.6339 99.8894C90.711 99.9683 90.7915 100.044 90.8687 100.119C91.4288 100.682 91.9754 101.266 92.502 101.869C92.5288 101.869 92.559 101.869 92.5858 101.869C92.5993 100.969 92.6093 100.069 92.6227 99.165C92.6261 99.0001 92.8676 98.9821 92.8676 99.1507C92.8541 100.097 92.8407 101.044 92.8307 101.991C92.8307 102.055 92.7904 102.116 92.7267 102.127C93.3673 102.873 93.981 103.644 94.5545 104.447C94.5612 104.365 94.5612 104.264 94.5612 104.236C94.578 104.046 94.5948 103.856 94.6082 103.669C94.6417 103.221 94.6652 102.769 94.682 102.321C94.7088 101.478 94.7055 100.635 94.6686 99.7962C94.6619 99.6276 94.9033 99.6133 94.9134 99.7818C94.9738 101.205 94.9436 102.629 94.8228 104.049C94.8061 104.225 94.7927 104.401 94.7725 104.576C94.7658 104.627 94.7591 104.673 94.739 104.716C95.128 105.268 95.497 105.831 95.8491 106.409C95.8525 106.402 95.8558 106.398 95.8558 106.391C95.8961 106.294 95.9095 106.172 95.933 106.068C95.9833 105.853 96.0369 105.638 96.0872 105.419C96.1979 104.96 96.3052 104.501 96.4159 104.042C96.4562 103.881 96.6943 103.931 96.654 104.092C96.5266 104.619 96.4025 105.143 96.2751 105.67C96.2147 105.925 96.1577 106.183 96.0906 106.438C96.0671 106.524 96.0403 106.599 95.9967 106.66C96.0235 106.706 96.0503 106.75 96.0772 106.796C96.8888 108.177 97.5864 109.633 98.1465 111.153C98.2035 111.311 97.9721 111.393 97.9151 111.239C97.3449 109.686 96.6239 108.205 95.7887 106.8C95.6076 106.85 95.3963 106.839 95.2119 106.846C94.9905 106.854 94.7658 106.854 94.5445 106.846C94.0884 106.832 93.6322 106.782 93.1828 106.703C93.0285 106.674 93.0755 106.42 93.2298 106.448C94.0079 106.585 94.7994 106.628 95.5842 106.563C95.6043 106.563 95.6244 106.559 95.6412 106.556C95.2857 105.968 94.91 105.398 94.5143 104.838C94.4539 104.838 94.3902 104.824 94.3332 104.813C94.1554 104.781 93.9743 104.748 93.7966 104.716C93.1191 104.587 92.4416 104.447 91.7709 104.293C91.0095 104.117 90.2516 103.927 89.497 103.719C89.346 103.676 89.393 103.422 89.5439 103.465C91.1034 103.895 92.6797 104.254 94.2695 104.541C94.2795 104.544 94.2963 104.548 94.3131 104.551C94.1353 104.304 93.9542 104.06 93.7697 103.82C93.327 103.242 92.8676 102.683 92.3947 102.138C91.3919 102.145 90.3924 102.055 89.4064 101.869C89.2521 101.84 89.2991 101.586 89.4534 101.614C90.3488 101.783 91.2544 101.872 92.1599 101.88C91.583 101.231 90.9861 100.603 90.369 99.9934C89.3729 99.8213 88.3936 99.5308 87.4545 99.1327C87.3069 99.0718 87.4176 98.8387 87.5618 98.8997C88.36 99.2367 89.1851 99.4914 90.0269 99.6635C89.3729 99.0359 88.7021 98.4263 88.0146 97.8382C87.7899 97.6445 87.5618 97.4581 87.3337 97.268C86.5557 97.2859 85.7776 97.2752 85.0028 97.2429C84.8486 97.2286 84.8318 96.9704 84.9894 96.9775Z" fill="#092A18"/>
<path d="M99.099 107.524C98.9548 107.754 98.8139 107.94 98.6563 108.058C98.4685 107.908 98.3511 107.657 98.2471 107.334C98.009 106.61 97.8145 105.882 97.7642 105.111C97.7004 104.114 97.7071 103.113 97.7943 102.116C98.0291 99.4663 98.9682 96.6548 99.4277 96.7265C99.6859 96.766 99.7362 97.6912 99.8972 97.6732C100.015 97.6589 100.102 97.1784 100.192 96.6656C100.283 96.5221 100.38 96.4145 100.477 96.4253C100.964 96.4827 101.232 99.599 100.826 102.357C100.672 103.389 100.437 104.411 100.129 105.405C99.8938 106.169 99.5182 106.854 99.099 107.524Z" fill="#6163AD"/>
<path d="M109.952 95.9842C109.939 96.0703 109.922 96.1599 109.865 96.2209C109.788 96.3034 109.674 96.3069 109.62 96.3105C109.271 96.3213 109.097 96.3249 108.902 96.3033C108.268 96.2424 107.611 97.0242 107.668 97.1353C107.685 97.1676 107.752 97.1353 108.017 97.0815C108.017 97.0815 108.798 96.9273 109.382 97.1138C109.432 97.1317 109.523 97.164 109.573 97.2501C109.623 97.3433 109.6 97.4617 109.57 97.5656C109.372 98.3008 109.134 99.0252 108.859 99.7316C108.812 99.85 108.758 99.9719 108.657 100.036C108.503 100.133 108.329 100.054 108.215 100.033C107.631 99.9145 106.86 100.818 106.96 101.023C107.041 101.184 107.598 100.793 107.869 101.048C108.302 101.449 107.557 103.042 107.329 103.526C106.84 104.569 106.387 104.967 105.907 105.394C105.364 105.878 104.676 104.899 104.354 105.186C104.126 105.387 104.354 105.76 104.257 106.237C104.026 107.37 102.255 107.725 99.3874 108.198C99.1727 108.234 98.9983 108.223 98.8575 108.177C99.0185 108.033 99.1493 107.847 99.27 107.653C99.6456 107.051 100.065 106.323 100.326 105.476C100.642 104.462 100.88 103.422 101.031 102.392C101.202 101.238 101.269 99.893 101.212 98.706C101.182 98.0282 101.081 96.8233 100.776 96.393C100.699 96.2818 100.605 96.2209 100.501 96.2101C100.487 96.2101 100.477 96.2065 100.464 96.2065C100.39 96.2065 100.326 96.2316 100.263 96.2711C100.29 96.1276 100.316 95.995 100.347 95.8766C100.357 95.8408 100.373 95.7654 100.41 95.6686C100.457 95.5431 100.531 95.4033 100.658 95.2096C101.165 94.4529 101.819 93.8218 102.47 93.1978C102.815 92.8643 103.16 92.5344 103.506 92.2009C103.546 92.1615 103.59 92.122 103.64 92.0969C103.784 92.0324 103.952 92.1328 104.032 92.2762C104.136 92.4663 104.039 92.6061 104.13 92.7567C104.234 92.9325 104.532 92.9719 104.723 92.9253C105.31 92.7854 105.139 91.7849 105.88 91.1179C106.233 90.8024 106.615 90.6768 107.396 90.5442C107.832 90.4724 108.275 90.4222 108.714 90.3971C109.006 90.3792 109.586 90.2393 109.848 90.4258C110.106 90.6123 110.046 91.1251 110.063 91.412C110.136 92.9396 110.187 94.4637 109.952 95.9842Z" fill="#6163AD"/>
<path d="M108.416 94.3131C107.759 94.4852 107.095 94.6358 106.427 94.7721C107.145 93.8971 107.883 93.0436 108.641 92.2081C108.751 92.0861 108.557 91.9284 108.449 92.0503C107.665 92.9181 106.897 93.8039 106.155 94.7147C106.082 94.3776 106.132 94.0011 106.145 93.664C106.162 93.1978 106.179 92.7352 106.196 92.269C106.202 92.1041 105.961 92.0682 105.954 92.2368C105.937 92.7388 105.917 93.2373 105.901 93.7393C105.887 94.1374 105.837 94.5677 105.968 94.9478C105.159 95.9519 104.381 96.9847 103.65 98.0533C103.573 97.0779 103.56 96.0989 103.623 95.1199C103.633 94.955 103.392 94.9191 103.382 95.0877C103.311 96.1778 103.328 97.268 103.429 98.3546C103.429 98.3617 103.432 98.3653 103.435 98.3725C103.372 98.4657 103.308 98.5554 103.248 98.6486C102.802 99.3228 102.379 100.008 101.973 100.711C101.946 100.718 101.92 100.721 101.889 100.729C101.708 99.8499 101.531 98.9678 101.349 98.0892C101.316 97.9278 101.074 97.9601 101.108 98.1251C101.296 99.0503 101.487 99.9755 101.675 100.901C101.688 100.965 101.738 101.015 101.802 101.012C101.313 101.88 100.856 102.765 100.441 103.676C100.42 103.597 100.4 103.497 100.394 103.472C100.34 103.289 100.29 103.11 100.239 102.927C100.122 102.493 100.015 102.059 99.9173 101.621C99.7329 100.804 99.5819 99.9755 99.4612 99.1435C99.4377 98.9785 99.1963 99.0144 99.2197 99.1794C99.4243 100.585 99.7194 101.976 100.102 103.343C100.149 103.511 100.196 103.68 100.249 103.848C100.266 103.895 100.283 103.942 100.306 103.977C100.028 104.601 99.7698 105.233 99.535 105.875C99.5316 105.871 99.5283 105.864 99.5249 105.86C99.4679 105.771 99.431 105.656 99.3874 105.559C99.2969 105.358 99.2063 105.157 99.1158 104.956C98.9212 104.53 98.7301 104.103 98.5355 103.68C98.4685 103.529 98.2438 103.63 98.3108 103.78C98.5322 104.268 98.7536 104.759 98.9749 105.247C99.0822 105.484 99.1862 105.727 99.2969 105.961C99.3338 106.039 99.374 106.108 99.431 106.158C99.4143 106.208 99.3941 106.258 99.3774 106.308C98.8408 107.836 98.4282 109.41 98.1633 111.017C98.1364 111.182 98.3779 111.214 98.4048 111.049C98.6764 109.407 99.1057 107.8 99.6624 106.244C99.8503 106.255 100.055 106.201 100.236 106.165C100.457 106.126 100.675 106.079 100.893 106.025C101.339 105.914 101.775 105.767 102.201 105.595C102.349 105.534 102.255 105.297 102.107 105.355C101.37 105.652 100.605 105.864 99.8201 105.968C99.7999 105.971 99.7798 105.971 99.7631 105.975C100.001 105.326 100.266 104.684 100.544 104.053C100.605 104.038 100.662 104.01 100.719 103.988C100.89 103.92 101.058 103.848 101.229 103.777C101.869 103.508 102.506 103.224 103.137 102.93C103.851 102.597 104.559 102.245 105.26 101.883C105.401 101.812 105.307 101.571 105.166 101.643C103.717 102.396 102.242 103.085 100.736 103.705C100.726 103.709 100.712 103.716 100.695 103.723C100.823 103.443 100.954 103.167 101.091 102.891C101.416 102.231 101.762 101.586 102.128 100.951C103.11 100.743 104.073 100.442 105.005 100.051C105.149 99.9898 105.055 99.7495 104.911 99.8105C104.066 100.169 103.194 100.445 102.309 100.646C102.755 99.8858 103.221 99.1435 103.714 98.4191C104.66 98.0354 105.562 97.5441 106.41 96.956C106.541 96.8628 106.394 96.6584 106.263 96.748C105.545 97.2501 104.78 97.6732 103.989 98.0211C104.512 97.2644 105.055 96.5257 105.619 95.8049C105.803 95.5682 105.991 95.3351 106.179 95.102C106.944 94.9514 107.705 94.7793 108.46 94.582C108.6 94.5318 108.567 94.2736 108.416 94.3131Z" fill="#092A18"/>
<path d="M95.6747 111.017C95.6747 111.017 94.9872 111.221 93.4176 109.895C92.6093 109.213 90.9458 110.533 90.4729 111.677C89.9967 112.821 89.0475 112.742 88.407 112.541C87.7664 112.337 87.2901 112.39 86.72 113.635C86.1498 114.879 85.1772 116.124 84.1543 115.564C83.1314 115.005 83.6076 113.811 83.4433 112.821C83.2756 111.831 83.0174 111.107 84.1073 110.425C85.2007 109.748 85.7407 109.518 85.734 108.729C85.7239 107.94 86.0928 107.008 87.5283 106.875C89.4299 106.696 93.0721 103.468 96.1744 110.888L95.6747 111.017Z" fill="#092A18"/>
<path d="M93.7429 109.414C92.8072 109.339 92.9011 108.586 91.9721 108.338C90.8385 108.037 90.047 108.98 89.6412 109.894C89.2354 110.809 88.5277 111.211 87.6423 111.193C86.7569 111.175 86.4919 112.025 86.3678 112.781C86.2437 113.538 86.227 114.822 85.4824 115.374C85.9754 114.987 86.4081 114.309 86.7166 113.631C87.2868 112.387 87.763 112.337 88.4036 112.537C89.0442 112.742 89.9967 112.817 90.4696 111.673C90.9458 110.529 92.606 109.209 93.4142 109.891C94.9838 111.214 95.6714 111.013 95.6714 111.013L96.1711 110.888C95.829 110.224 94.682 109.489 93.7429 109.414Z" fill="#6163AD"/>
<path d="M84.5131 114.653C84.5098 114.653 84.5064 114.653 84.5031 114.653C84.4695 114.646 84.4461 114.614 84.4494 114.574C84.9156 111.429 86.2605 109.543 88.4405 108.973C91.0934 108.277 94.3667 109.608 95.4533 110.547C95.4802 110.572 95.4835 110.612 95.4634 110.644C95.4399 110.673 95.403 110.676 95.3728 110.655C94.4975 109.898 91.2644 108.374 88.4707 109.106C86.341 109.665 85.0296 111.512 84.5735 114.596C84.5702 114.632 84.5433 114.653 84.5131 114.653Z" fill="#6163AD"/>
<path d="M99.2566 109.375C98.4517 110.224 98.4517 110.224 98.4517 110.224H103.449L104.267 109.156L99.2566 109.375Z" fill="#092A18"/>
<path d="M93.0721 111.748H103.204" stroke="#00253E" stroke-width="4.812" stroke-miterlimit="10" stroke-linecap="round" stroke-linejoin="round"/>
<path d="M99.2566 109.374C99.2566 109.374 101.608 107.026 103.714 107.208C105.428 104.264 109.358 107.599 109.529 108.772C112.34 109.765 112.062 114.571 112.062 114.571C112.062 114.571 107.96 113.197 107.172 111.748C105.109 111.774 103.238 110.131 102.956 109.374C101.946 109.701 99.2566 109.374 99.2566 109.374Z" fill="#6163AD"/>
<path d="M101.031 102.385C100.88 103.415 100.642 104.455 100.327 105.469C100.065 106.316 99.6457 107.044 99.2701 107.646C99.1493 107.84 99.0152 108.026 98.8575 108.17C98.7838 108.145 98.7167 108.105 98.6563 108.058C98.8173 107.94 98.9548 107.754 99.099 107.524C99.5149 106.854 99.8939 106.169 100.132 105.401C100.441 104.408 100.675 103.386 100.83 102.353C101.239 99.5954 100.967 96.4791 100.481 96.4217C100.384 96.411 100.29 96.5186 100.196 96.662C100.219 96.5293 100.243 96.3966 100.266 96.2675C100.327 96.2281 100.394 96.203 100.467 96.203C100.481 96.203 100.491 96.203 100.504 96.2066C100.608 96.2173 100.699 96.2819 100.779 96.3895C101.084 96.8198 101.185 98.0211 101.215 98.7025C101.266 99.8859 101.202 101.227 101.031 102.385Z" fill="#092A18"/>
<path d="M100.826 102.349C100.672 103.382 100.437 104.404 100.129 105.398C99.8905 106.165 99.5149 106.853 99.0956 107.52C98.9514 107.75 98.8106 107.936 98.6529 108.055C98.4148 108.23 98.1331 108.263 97.7273 108.076C94.9335 106.796 93.2164 105.946 93.26 104.73C93.2768 104.218 93.5987 103.906 93.4176 103.637C93.1594 103.257 92.227 104.06 91.791 103.418C91.4053 102.851 91.0431 102.321 90.8016 101.123C90.6876 100.571 90.3187 98.7454 90.8553 98.4549C91.194 98.272 91.6636 98.8243 91.7843 98.6844C91.9386 98.5015 91.3751 97.3719 90.7547 97.3289C90.6373 97.3217 90.4394 97.3504 90.3053 97.2105C90.2181 97.1173 90.1912 96.9775 90.1745 96.8448C90.0638 96.0523 90.0001 95.249 89.9766 94.4493C89.9732 94.3345 89.9766 94.209 90.0504 94.1301C90.1208 94.0548 90.2214 94.0477 90.2784 94.0441C90.9157 94.019 91.6703 94.3919 91.6703 94.3919C91.9285 94.521 91.9889 94.5712 92.0124 94.5425C92.0962 94.4457 91.6166 93.4703 90.9593 93.3555C90.7547 93.3197 90.5803 93.2659 90.2281 93.1619C90.1745 93.144 90.0604 93.1081 90.0001 93.0041C89.9565 92.9252 89.9598 92.8284 89.9699 92.7387C90.1007 91.1286 90.5233 89.5938 90.9693 88.0625C91.0532 87.7757 91.1202 87.2377 91.4254 87.1194C91.7373 87.0011 92.2907 87.3023 92.5859 87.4027C93.0286 87.5533 93.4646 87.7255 93.8905 87.9191C94.6518 88.2705 95.0107 88.5036 95.2891 88.9232C95.8793 89.8054 95.4635 90.7736 96.0235 91.0784C96.2047 91.1788 96.5166 91.2218 96.6675 91.0712C96.7949 90.9421 96.7312 90.7736 96.8855 90.6086C96.9995 90.4867 97.1974 90.4293 97.3282 90.5333C97.3751 90.5692 97.4087 90.623 97.4422 90.6768C97.7139 91.1107 97.9822 91.5446 98.2538 91.9785C98.7603 92.7925 99.2701 93.6137 99.6021 94.5246C99.6859 94.7541 99.7228 94.9155 99.7429 95.0589C99.7564 95.1665 99.7563 95.2454 99.7563 95.2884C99.7597 95.9841 99.5987 97.1675 99.7765 97.2392C99.8804 97.2823 100.031 96.9093 100.199 96.6511C100.29 96.5077 100.387 96.4001 100.484 96.4109C100.964 96.4754 101.235 99.5917 100.826 102.349Z" fill="#DAD9ED"/>
<path d="M91.9386 91.473C92.5658 91.8316 93.203 92.1687 93.8469 92.4914C93.3304 91.4049 92.7871 90.3326 92.2237 89.2712C92.1432 89.117 92.378 89.013 92.4585 89.1636C93.0454 90.2609 93.6088 91.3762 94.1387 92.5058C94.293 92.183 94.3366 91.785 94.407 91.4407C94.5043 90.9638 94.5982 90.4868 94.6955 90.0099C94.729 89.8377 94.9839 89.87 94.9504 90.0422C94.8464 90.555 94.7424 91.0714 94.6418 91.5842C94.5579 91.993 94.5043 92.4412 94.2796 92.7927C94.8564 94.037 95.3964 95.3029 95.8794 96.5903C96.1946 95.622 96.4462 94.6287 96.6206 93.621C96.6507 93.4489 96.9056 93.4812 96.8754 93.6533C96.6809 94.7793 96.3992 95.8838 96.0336 96.9561C96.0303 96.9632 96.0269 96.9668 96.0236 96.974C96.0638 97.0852 96.1074 97.1963 96.1477 97.3075C96.4361 98.1144 96.701 98.932 96.9392 99.7568C96.966 99.7711 96.9928 99.7855 97.0197 99.7962C97.4154 98.9535 97.8112 98.1072 98.2103 97.2645C98.2841 97.1103 98.5222 97.2107 98.445 97.3685C98.0292 98.2542 97.6133 99.14 97.1941 100.029C97.1672 100.09 97.1001 100.13 97.0398 100.105C97.3249 101.119 97.573 102.149 97.7743 103.189C97.8145 103.113 97.8581 103.02 97.8715 102.995C97.9688 102.826 98.0661 102.654 98.16 102.482C98.3847 102.077 98.5993 101.665 98.8073 101.245C99.1929 100.463 99.5484 99.6671 99.8738 98.8567C99.9375 98.6953 100.176 98.7993 100.109 98.9607C99.5585 100.334 98.9213 101.665 98.2002 102.941C98.1097 103.099 98.0225 103.26 97.9285 103.415C97.9017 103.458 97.8715 103.501 97.838 103.529C97.9688 104.239 98.0761 104.953 98.16 105.67C98.1633 105.667 98.17 105.663 98.1734 105.659C98.2539 105.584 98.3176 105.477 98.3847 105.39C98.5255 105.211 98.6664 105.035 98.8073 104.856C99.1057 104.476 99.4076 104.099 99.7061 103.719C99.8134 103.587 100.015 103.752 99.9107 103.884C99.5686 104.318 99.2231 104.756 98.881 105.19C98.7133 105.401 98.549 105.616 98.378 105.824C98.3209 105.892 98.2639 105.953 98.1935 105.989C98.2002 106.047 98.2069 106.1 98.2136 106.158C98.388 107.858 98.4249 109.572 98.3008 111.279C98.2874 111.454 98.0359 111.422 98.0459 111.246C98.17 109.504 98.1231 107.754 97.9386 106.018C97.7474 105.975 97.5529 105.864 97.3752 105.781C97.1605 105.681 96.9492 105.573 96.7446 105.455C96.3221 105.218 95.9129 104.949 95.5205 104.655C95.3863 104.555 95.5406 104.336 95.6748 104.437C96.3522 104.946 97.08 105.373 97.8481 105.695C97.8682 105.702 97.8883 105.71 97.9051 105.717C97.8212 104.989 97.7105 104.264 97.5764 103.544C97.5194 103.511 97.4657 103.468 97.4154 103.429C97.2611 103.311 97.1035 103.192 96.9492 103.074C96.3657 102.622 95.7855 102.159 95.2187 101.682C94.5747 101.145 93.9408 100.592 93.317 100.026C93.1929 99.911 93.3472 99.6958 93.4713 99.807C94.7592 100.976 96.0906 102.088 97.4691 103.131C97.4791 103.138 97.4926 103.149 97.506 103.16C97.4422 102.841 97.3785 102.522 97.3081 102.206C97.137 101.446 96.9425 100.693 96.7279 99.9468C95.7787 99.4627 94.8766 98.8889 94.0247 98.2291C93.8905 98.1251 94.0448 97.91 94.179 98.0104C94.9504 98.6092 95.7653 99.1328 96.6206 99.5846C96.3522 98.6917 96.0605 97.806 95.7351 96.931C94.8699 96.2783 94.0716 95.5288 93.3539 94.6933C93.2432 94.5642 93.4445 94.3956 93.5552 94.5247C94.1622 95.2348 94.833 95.8767 95.554 96.4504C95.2052 95.536 94.833 94.6359 94.4372 93.7466C94.3064 93.4561 94.1723 93.1656 94.0381 92.8787C93.2969 92.5129 92.5658 92.1256 91.8481 91.7133C91.6971 91.6451 91.7944 91.3905 91.9386 91.473Z" fill="#014F28"/>
<path d="M103.751 112.878H92.0828C92.0224 112.878 91.9721 112.824 91.9721 112.76V109.952C91.9721 109.887 92.0224 109.833 92.0828 109.833H103.751C103.811 109.833 103.861 109.887 103.861 109.952V112.76C103.858 112.824 103.811 112.878 103.751 112.878Z" fill="#DAD9ED"/>
<path d="M100.367 120H95.4668C95.118 120 94.8094 119.749 94.7189 119.387L93.0856 112.875H102.741L101.108 119.387C101.021 119.749 100.716 120 100.367 120Z" fill="#393B50"/>
<path d="M52.6316 67.2922H26.7636C26.1163 67.2922 25.5864 67.8588 25.5864 68.5509C25.5864 69.2431 26.1163 69.8097 26.7636 69.8097H52.9402C53.4198 69.8097 53.8088 69.3937 53.8088 68.8809V68.5474C53.8088 67.8588 53.2789 67.2922 52.6316 67.2922Z" fill="#DAD9ED"/>
<path d="M39.4947 69.8096H14.2906C13.6065 69.8096 13.0162 69.2967 12.872 68.5831L8.3812 46.0233C8.19003 45.0586 8.87756 44.1514 9.79987 44.1514H35.7954C36.4997 44.1514 37.1034 44.6929 37.2241 45.4352L40.9234 67.995C41.0777 68.9417 40.3968 69.8096 39.4947 69.8096Z" fill="#DAD9ED"/>
<path d="M38.5523 69.8096H13.3315C12.6507 69.8096 12.0637 69.3003 11.9195 68.5903L7.42539 46.0125C7.23422 45.0551 7.9184 44.1514 8.83735 44.1514H34.8496C35.5506 44.1514 36.1476 44.6893 36.2683 45.428L39.9709 68.0058C40.1286 68.9453 39.4511 69.8096 38.5523 69.8096Z" fill="#393B50"/>
<path d="M99.7664 67.2922H73.9016C73.2543 67.2922 72.7244 67.8588 72.7244 68.5509C72.7244 69.2431 73.2543 69.8097 73.9016 69.8097H100.078C100.558 69.8097 100.947 69.3937 100.947 68.8809V68.5474C100.944 67.8588 100.414 67.2922 99.7664 67.2922Z" fill="#DAD9ED"/>
<path d="M86.6327 69.8096H61.4287C60.7445 69.8096 60.1543 69.2967 60.01 68.5831L55.5193 46.0233C55.3281 45.0586 56.0156 44.1514 56.9379 44.1514H82.9335C83.6378 44.1514 84.2414 44.6929 84.3622 45.4352L88.0615 67.995C88.2157 68.9417 87.5316 69.8096 86.6327 69.8096Z" fill="#DAD9ED"/>
<path d="M85.6903 69.8096H60.4695C59.7887 69.8096 59.2018 69.3003 59.0576 68.5903L54.5635 46.0125C54.3723 45.0551 55.0565 44.1514 55.9754 44.1514H81.9877C82.6887 44.1514 83.2856 44.6893 83.4064 45.428L87.109 68.0058C87.2633 68.9453 86.5858 69.8096 85.6903 69.8096Z" fill="#393B50"/>
<path d="M45.4746 25.0915C45.3773 25.1202 45.2599 25.1668 45.1392 25.2457C44.8005 25.4681 44.6462 25.798 44.5858 25.9522C44.881 25.7549 45.1761 25.5577 45.4746 25.3605L46.9368 24.9409L45.4746 25.0915Z" fill="#3F4478"/>
<path d="M45.2097 25.3748C45.2097 25.3748 48.3086 25.1919 50.1767 26.8487C52.0414 28.5055 51.6926 33.2068 51.6926 33.2068L52.625 33.135C52.625 33.135 53.2454 28.6597 51.0923 26.6873C48.9425 24.715 46.5445 24.9553 46.5445 24.9553L45.2097 25.3748Z" fill="#3F4478"/>
<path d="M45.4746 25.0917C45.4746 25.0917 48.5735 24.9088 50.4416 26.5655C52.3064 28.2223 51.9576 32.9236 51.9576 32.9236L52.8899 32.8519C52.8899 32.8519 53.5104 28.0932 51.3572 26.1209C49.2074 24.1485 46.8094 24.6721 46.8094 24.6721L45.4746 25.0917Z" fill="#6163AD"/>
<path d="M52.7323 35.1325C53.6862 35.1325 54.4595 34.1435 54.4595 32.9235C54.4595 31.7035 53.6862 30.7145 52.7323 30.7145C51.7784 30.7145 51.0051 31.7035 51.0051 32.9235C51.0051 34.1435 51.7784 35.1325 52.7323 35.1325Z" fill="#103644"/>
<path d="M52.8396 34.8385C53.6824 34.8385 54.3656 33.9651 54.3656 32.8877C54.3656 31.8103 53.6824 30.9369 52.8396 30.9369C51.9968 30.9369 51.3136 31.8103 51.3136 32.8877C51.3136 33.9651 51.9968 34.8385 52.8396 34.8385Z" fill="#3F4478"/>
<path d="M53.3729 34.8385C54.2156 34.8385 54.8988 33.9651 54.8988 32.8877C54.8988 31.8103 54.2156 30.9369 53.3729 30.9369C52.5301 30.9369 51.8469 31.8103 51.8469 32.8877C51.8469 33.9651 52.5301 34.8385 53.3729 34.8385Z" fill="#6163AD"/>
<path d="M53.5808 33.9742C54.0494 33.9742 54.4293 33.4877 54.4293 32.8876C54.4293 32.2875 54.0494 31.801 53.5808 31.801C53.1122 31.801 52.7323 32.2875 52.7323 32.8876C52.7323 33.4877 53.1122 33.9742 53.5808 33.9742Z" fill="#3F4478"/>
<path d="M53.6613 32.8339C52.9939 33.716 51.9039 34.9102 50.284 35.8282C49.6434 36.1904 49.0296 36.4486 48.4796 36.6315" stroke="#092A33" stroke-width="0.2" stroke-miterlimit="10" stroke-linecap="round"/>
<path d="M91.0163 25.8554C90.9022 25.8876 90.7681 25.9414 90.6306 26.0311C90.2348 26.2857 90.0571 26.673 89.9866 26.8487C90.3287 26.6192 90.6742 26.3897 91.0163 26.1602L92.7133 25.6725L91.0163 25.8554Z" fill="#3F4478"/>
<path d="M90.7077 26.1854C90.7077 26.1854 94.303 25.9738 96.4662 27.8959C98.6294 29.818 98.2236 35.2724 98.2236 35.2724L99.3069 35.1899C99.3069 35.1899 100.025 30.0009 97.5294 27.713C95.0341 25.4251 92.2538 25.7012 92.2538 25.7012L90.7077 26.1854Z" fill="#3F4478"/>
<path d="M91.0162 25.8554C91.0162 25.8554 94.6115 25.6438 96.7748 27.5659C98.938 29.4881 98.5322 34.9424 98.5322 34.9424L99.6154 34.86C99.6154 34.86 100.333 29.341 97.8379 27.0531C95.3427 24.7652 92.5623 25.3713 92.5623 25.3713L91.0162 25.8554Z" fill="#6163AD"/>
<path d="M99.431 37.4993C100.537 37.4993 101.433 36.3529 101.433 34.9389C101.433 33.5248 100.537 32.3784 99.431 32.3784C98.3252 32.3784 97.4288 33.5248 97.4288 34.9389C97.4288 36.3529 98.3252 37.4993 99.431 37.4993Z" fill="#103644"/>
<path d="M99.5584 37.1622C100.535 37.1622 101.326 36.1491 101.326 34.8994C101.326 33.6497 100.535 32.6366 99.5584 32.6366C98.5823 32.6366 97.791 33.6497 97.791 34.8994C97.791 36.1491 98.5823 37.1622 99.5584 37.1622Z" fill="#3F4478"/>
<path d="M100.179 37.1622C101.155 37.1622 101.946 36.1491 101.946 34.8994C101.946 33.6497 101.155 32.6366 100.179 32.6366C99.2028 32.6366 98.4114 33.6497 98.4114 34.8994C98.4114 36.1491 99.2028 37.1622 100.179 37.1622Z" fill="#6163AD"/>
<path d="M100.417 36.158C100.962 36.158 101.403 35.5945 101.403 34.8993C101.403 34.2042 100.962 33.6406 100.417 33.6406C99.8724 33.6406 99.431 34.2042 99.431 34.8993C99.431 35.5945 99.8724 36.158 100.417 36.158Z" fill="#3F4478"/>
<path d="M100.423 34.8339C99.756 35.716 98.666 36.9102 97.0461 37.8282C96.4055 38.1904 95.7918 38.4486 95.2418 38.6315" stroke="#092A33" stroke-width="0.2" stroke-miterlimit="10" stroke-linecap="round"/>
<path d="M35.2689 4.10242H21.5081C18.8116 4.10242 16.588 6.2397 16.2258 9.01531H27.3371C30.2851 9.01531 32.6764 11.5722 32.6764 14.7243V23.5998C32.6764 23.8723 32.6529 24.1341 32.6193 24.3959H34.9469L39.1962 28.3154V22.5491C40.0716 21.5306 40.6115 20.1787 40.6115 18.6869V9.81141C40.6082 6.65927 38.2169 4.10242 35.2689 4.10242Z" fill="#393B50"/>
<path d="M32.6764 14.7244C32.6764 11.5722 30.2851 9.01538 27.3371 9.01538H16.2258C16.1923 9.27716 16.1688 9.54253 16.1688 9.81148V18.687C16.1688 21.8391 18.5601 24.396 21.5081 24.396H32.6194C32.6529 24.1342 32.6764 23.8688 32.6764 23.5998V14.7244Z" fill="#393B50"/>
<path d="M83.9531 5.70899C83.9531 2.55685 86.3443 0 89.2923 0H103.053C106.001 0 108.392 2.55685 108.392 5.70899V14.5845C108.392 17.7366 106.001 20.2935 103.053 20.2935H89.6143L85.365 24.213V18.4466C84.4897 17.4282 83.9497 16.0763 83.9497 14.5845V5.70899H83.9531Z" fill="#6163AD"/>
<path d="M103.694 6.6378H88.9C88.3802 6.6378 87.9576 6.18237 87.9576 5.63012C87.9576 5.07428 88.3835 4.62244 88.9 4.62244H103.694C104.214 4.62244 104.636 5.07787 104.636 5.63012C104.636 6.18237 104.21 6.6378 103.694 6.6378Z" fill="white"/>
<path d="M103.694 11.1849H88.9C88.3802 11.1849 87.9576 10.7295 87.9576 10.1772C87.9576 9.6214 88.3835 9.16956 88.9 9.16956H103.694C104.214 9.16956 104.636 9.62499 104.636 10.1772C104.636 10.7295 104.21 11.1849 103.694 11.1849Z" fill="white"/>
<path d="M103.694 15.7104H88.9C88.3802 15.7104 87.9576 15.255 87.9576 14.7027C87.9576 14.1469 88.3835 13.6951 88.9 13.6951H103.694C104.214 13.6951 104.636 14.1505 104.636 14.7027C104.636 15.2586 104.21 15.7104 103.694 15.7104Z" fill="white"/>
</svg>
