<svg width="60" height="60" viewBox="0 0 60 60" fill="none" xmlns="http://www.w3.org/2000/svg">
<path d="M26.3061 29.8653C22.4168 29.8653 18.7501 29.0813 15.9808 27.6599C13.0714 26.1653 11.4688 24.1266 11.4688 21.9199C11.4688 19.7133 13.0714 17.6746 15.9808 16.1799C18.7501 14.7573 22.4168 13.9746 26.3061 13.9746C30.1954 13.9746 33.8621 14.7586 36.6314 16.1799C39.5421 17.6746 41.1434 19.7133 41.1434 21.9199C41.1434 24.1266 39.5408 26.1653 36.6314 27.6599C33.8621 29.0813 30.1954 29.8653 26.3061 29.8653ZM26.3061 15.3053C18.9861 15.3053 12.8021 18.3333 12.8021 21.9186C12.8021 25.5026 18.9861 28.5319 26.3061 28.5319C33.6261 28.5319 39.8101 25.5039 39.8101 21.9186C39.8101 18.3346 33.6261 15.3053 26.3061 15.3053Z" fill="#6B61FC"/>
<path d="M26.3061 39.7653C22.4168 39.7653 18.7501 38.9813 15.9808 37.56C13.0714 36.0653 11.4688 34.0267 11.4688 31.82C11.4688 31.452 11.7674 31.1533 12.1354 31.1533C12.5034 31.1533 12.8021 31.452 12.8021 31.82C12.8021 35.404 18.9861 38.4333 26.3061 38.4333C27.7394 38.4333 29.1528 38.3213 30.5088 38.0987C30.8728 38.0387 31.2154 38.2853 31.2741 38.6493C31.3341 39.0133 31.0874 39.356 30.7234 39.4147C29.2981 39.6467 27.8114 39.7653 26.3061 39.7653Z" fill="#6B61FC"/>
<path d="M26.3061 49.6653C22.4167 49.6653 18.7501 48.8813 15.9808 47.46C13.0714 45.9653 11.4688 43.9267 11.4688 41.72C11.4688 41.352 11.7674 41.0533 12.1354 41.0533C12.5034 41.0533 12.8021 41.352 12.8021 41.72C12.8021 45.304 18.9861 48.3333 26.3061 48.3333C27.7794 48.3333 29.2314 48.2147 30.6221 47.98C30.9847 47.92 31.3287 48.164 31.3901 48.5267C31.4514 48.8893 31.2061 49.2333 30.8434 49.2947C29.3807 49.54 27.8541 49.6653 26.3061 49.6653Z" fill="#6B61FC"/>
<path d="M26.3061 59.5653C22.4168 59.5653 18.7501 58.7813 15.9808 57.36C13.0714 55.8653 11.4688 53.8266 11.4688 51.62V21.9186C11.4688 21.5506 11.7674 21.252 12.1354 21.252C12.5034 21.252 12.8021 21.5506 12.8021 21.9186V51.6186C12.8021 55.2026 18.9861 58.2319 26.3061 58.2319C30.9728 58.2319 35.2608 57.0466 37.7768 55.0613C38.0661 54.8333 38.4848 54.8826 38.7128 55.172C38.9408 55.4613 38.8914 55.8799 38.6021 56.1079C35.8608 58.2733 31.2634 59.5653 26.3061 59.5653ZM40.4768 31.6213C40.1088 31.6213 39.8101 31.3226 39.8101 30.9546V21.92C39.8101 21.552 40.1088 21.2533 40.4768 21.2533C40.8448 21.2533 41.1434 21.552 41.1434 21.92V30.9546C41.1434 31.3226 40.8461 31.6213 40.4768 31.6213Z" fill="#6B61FC"/>
<path d="M26.3053 22.5853C25.9373 22.5853 25.6387 22.2866 25.6387 21.9186V11.3279C25.6387 10.9599 25.9373 10.6613 26.3053 10.6613C26.6733 10.6613 26.972 10.9599 26.972 11.3279V21.9186C26.972 22.2866 26.6747 22.5853 26.3053 22.5853Z" fill="#6B61FC"/>
<path d="M37.6857 6.988H31.7217C31.3537 6.988 31.0551 6.68933 31.0551 6.32133C31.0551 5.95333 31.3537 5.65466 31.7217 5.65466H37.6857C38.0537 5.65466 38.3524 5.95333 38.3524 6.32133C38.3524 6.68933 38.0551 6.988 37.6857 6.988ZM21.6777 6.988H14.9284C14.5604 6.988 14.2617 6.68933 14.2617 6.32133C14.2617 5.95333 14.5604 5.65466 14.9284 5.65466H21.6777C22.0457 5.65466 22.3444 5.95333 22.3444 6.32133C22.3444 6.68933 22.0457 6.988 21.6777 6.988Z" fill="#6B61FC"/>
<path d="M9.90613 12.0106C6.7688 12.0106 4.2168 9.45862 4.2168 6.32129C4.2168 3.18396 6.7688 0.631958 9.90613 0.631958C13.0435 0.631958 15.5955 3.18396 15.5955 6.32129C15.5955 9.45862 13.0421 12.0106 9.90613 12.0106ZM9.90613 1.96529C7.5048 1.96529 5.55013 3.91862 5.55013 6.32129C5.55013 8.72396 7.50346 10.6773 9.90613 10.6773C12.3088 10.6773 14.2621 8.72396 14.2621 6.32129C14.2621 3.91862 12.3075 1.96529 9.90613 1.96529Z" fill="#6B61FC"/>
<path d="M42.7069 12.0106C39.5696 12.0106 37.0176 9.45862 37.0176 6.32129C37.0176 3.18396 39.5696 0.631958 42.7069 0.631958C45.8442 0.631958 48.3962 3.18396 48.3962 6.32129C48.3962 9.45862 45.8442 12.0106 42.7069 12.0106ZM42.7069 1.96529C40.3056 1.96529 38.3509 3.91862 38.3509 6.32129C38.3509 8.72396 40.3056 10.6773 42.7069 10.6773C45.1082 10.6773 47.0629 8.72396 47.0629 6.32129C47.0629 3.91862 45.1096 1.96529 42.7069 1.96529Z" fill="#6B61FC"/>
<path d="M26.6991 12.0106C23.5618 12.0106 21.0098 9.45862 21.0098 6.32129C21.0098 3.18396 23.5618 0.631958 26.6991 0.631958C29.8364 0.631958 32.3884 3.18396 32.3884 6.32129C32.3884 9.45862 29.8351 12.0106 26.6991 12.0106ZM26.6991 1.96529C24.2978 1.96529 22.3431 3.91862 22.3431 6.32129C22.3431 8.72396 24.2964 10.6773 26.6991 10.6773C29.1004 10.6773 31.0551 8.72396 31.0551 6.32129C31.0551 3.91862 29.1004 1.96529 26.6991 1.96529Z" fill="#6B61FC"/>
<path d="M42.4323 56.976C35.0337 56.976 29.0137 50.956 29.0137 43.5573C29.0137 36.1587 35.0337 30.1387 42.4323 30.1387C49.831 30.1387 55.851 36.1587 55.851 43.5573C55.851 50.956 49.8323 56.976 42.4323 56.976ZM42.4323 31.472C35.7683 31.472 30.347 36.8933 30.347 43.5573C30.347 50.2213 35.7683 55.6427 42.4323 55.6427C49.0963 55.6427 54.5177 50.2213 54.5177 43.5573C54.5177 36.8933 49.0963 31.472 42.4323 31.472Z" fill="#6B61FC"/>
<path d="M49.3387 54.9453C48.9707 54.9453 48.672 54.6466 48.672 54.2786V51.1293C48.672 48.58 47.068 46.2426 44.6813 45.312C44.3387 45.1786 44.168 44.792 44.3027 44.4493C44.436 44.1066 44.8227 43.936 45.1653 44.0706C48.06 45.1986 50.0053 48.036 50.0053 51.1306V54.28C50.0053 54.6466 49.708 54.9453 49.3387 54.9453ZM35.528 54.9453C35.16 54.9453 34.8613 54.6466 34.8613 54.2786V51.1293C34.8613 48.0346 36.8067 45.1986 39.7013 44.0693C40.044 43.9346 40.4307 44.1053 40.564 44.4479C40.6973 44.7906 40.528 45.1773 40.1853 45.3106C37.7987 46.2413 36.1947 48.5786 36.1947 51.128V54.2773C36.1947 54.6466 35.896 54.9453 35.528 54.9453Z" fill="#6B61FC"/>
<path d="M39.4909 56.6346C39.1229 56.6346 38.8242 56.336 38.8242 55.968V50.2666C38.8242 49.8986 39.1229 49.6 39.4909 49.6C39.8589 49.6 40.1576 49.8986 40.1576 50.2666V55.968C40.1576 56.336 39.8589 56.6346 39.4909 56.6346Z" fill="#6B61FC"/>
<path d="M45.3757 56.6346C45.0077 56.6346 44.709 56.336 44.709 55.968V50.2666C44.709 49.8986 45.0077 49.6 45.3757 49.6C45.7437 49.6 46.0423 49.8986 46.0423 50.2666V55.968C46.0423 56.336 45.7437 56.6346 45.3757 56.6346Z" fill="#6B61FC"/>
<path d="M42.4322 45.9893C39.1869 45.9893 36.5469 43.3493 36.5469 40.104C36.5469 36.8586 39.1869 34.2186 42.4322 34.2186C45.6775 34.2186 48.3175 36.8586 48.3175 40.104C48.3175 43.3493 45.6775 45.9893 42.4322 45.9893ZM42.4322 35.552C39.9229 35.552 37.8802 37.5946 37.8802 40.104C37.8802 42.6133 39.9215 44.656 42.4322 44.656C44.9429 44.656 46.9842 42.6146 46.9842 40.104C46.9842 37.5933 44.9429 35.552 42.4322 35.552Z" fill="#6B61FC"/>
</svg>
