<svg width="60" height="60" viewBox="0 0 60 60" fill="none" xmlns="http://www.w3.org/2000/svg">
<path fill-rule="evenodd" clip-rule="evenodd" d="M23.8983 15.4659C23.6093 15.1405 23.6361 14.6436 23.9655 14.3552C24.2883 14.0675 24.7859 14.0977 25.0749 14.4224L27.7778 17.477L34.9922 11.1285C35.3217 10.8421 35.8193 10.8738 36.1016 11.1998C36.3908 11.5259 36.3571 12.0228 36.0344 12.3092L28.2283 19.1747C27.9026 19.4636 27.4086 19.4279 27.1189 19.1061L23.8983 15.4659ZM47.7066 40.4939L30.7833 48.9071V31.5992L48.3857 22.8477V39.3992C48.3857 39.8799 48.1369 40.2787 47.7066 40.4939ZM11.6143 39.3992V22.8477L29.2099 31.5992V48.9071L12.2934 40.4939C11.8631 40.2787 11.6143 39.8799 11.6143 39.3992ZM29.9966 25.5231C25.2296 25.5231 21.2022 22.2877 19.9987 17.8973L12.596 21.5791L29.9967 30.2324L47.4042 21.5791L40.0015 17.8973C38.7911 22.2877 34.7703 25.5231 29.9966 25.5231ZM29.9966 6.35409C25.1489 6.35409 21.2022 10.3002 21.2022 15.1526C21.2022 20.003 25.1489 23.9504 29.9966 23.9504C34.8511 23.9504 38.7978 20.003 38.7978 15.1526C38.7978 10.3002 34.8511 6.35409 29.9966 6.35409ZM53.3208 16.2876C53.7578 16.2876 54.1074 15.9353 54.1074 15.5016V7.79025C54.1074 7.35657 53.7578 7.00365 53.3208 7.00365H45.6089C45.1718 7.00365 44.8223 7.35669 44.8223 7.79025C44.8223 8.22465 45.1719 8.57625 45.6089 8.57625H51.4248L42.5766 17.4218L40.304 16.2943C40.3511 15.9185 40.3712 15.5379 40.3712 15.1526C40.3712 9.43281 35.7185 4.78149 29.9967 4.78149C23.8403 4.78149 19.0278 10.1317 19.6895 16.2943L17.4236 17.4218L8.5753 8.57625H14.3912C14.8215 8.57625 15.1778 8.22465 15.1778 7.79025C15.1778 7.35657 14.8214 7.00365 14.3912 7.00365H6.67918C6.24214 7.00365 5.89258 7.35669 5.89258 7.79025V15.5016C5.89258 15.9353 6.24226 16.2876 6.67918 16.2876C7.11622 16.2876 7.46578 15.9353 7.46578 15.5016V9.68901L15.9375 18.1601L10.478 20.8743C10.2091 21.0074 10.041 21.2804 10.041 21.579V39.3992C10.041 40.4831 10.6193 41.4189 11.5941 41.9017L15.9375 44.0613L7.46578 52.5337V46.7211C7.46578 46.2861 7.11622 45.9344 6.67918 45.9344C6.24214 45.9344 5.89258 46.286 5.89258 46.7211V54.4325C5.89258 54.8661 6.24226 55.2185 6.67918 55.2185H14.3911C14.8214 55.2185 15.1777 54.8661 15.1777 54.4325C15.1777 53.9967 14.8213 53.6459 14.3911 53.6459H8.5753L17.4235 44.8003L29.6469 50.8805C29.8689 50.9885 30.1301 50.9889 30.3462 50.8805L42.5765 44.8003L51.4247 53.6459H45.6087C45.1717 53.6459 44.8221 53.9969 44.8221 54.4325C44.8221 54.8661 45.1718 55.2185 45.6087 55.2185H53.3207C53.7577 55.2185 54.1073 54.8661 54.1073 54.4325V46.7211C54.1073 46.2861 53.7577 45.9344 53.3207 45.9344C52.8836 45.9344 52.5339 46.286 52.5339 46.7211V52.5337L44.0622 44.0613L48.4056 41.9017C49.3805 41.4189 49.9587 40.4831 49.9587 39.3992V21.579C49.9587 21.2804 49.7906 21.0074 49.5217 20.8743L44.0621 18.1601L52.5338 9.68901V15.5016C52.5341 15.9353 52.8837 16.2876 53.3208 16.2876Z" fill="black"/>
</svg>
