<svg width="60" height="60" viewBox="0 0 60 60" fill="none" xmlns="http://www.w3.org/2000/svg">
<path d="M4.94141 13.147V53.4705C4.94141 56.1176 7.05905 58.2352 9.70611 58.2352H40.412C43.0591 58.2352 45.1767 56.1176 45.1767 53.4705V48.9705C50.5591 48.4411 54.7943 43.9411 54.7943 38.3823C54.7943 35.7352 53.8238 33.2646 52.1473 31.4117L52.9414 30.6176L53.5591 31.2352C53.912 31.5882 54.4414 31.5882 54.7943 31.2352C55.1473 30.8823 55.1473 30.3529 54.7943 29.9999L52.3238 27.5294C51.9708 27.1764 51.4414 27.1764 51.0885 27.5294C50.7355 27.8823 50.7355 28.4117 51.0885 28.7646L51.7061 29.3823L50.912 30.1764C49.3238 28.8529 47.2943 27.9705 45.0885 27.7941V26.8235C46.2355 26.4705 47.0296 25.4117 47.0296 24.1764C47.0296 22.5882 45.7943 21.3529 44.2061 21.3529C42.6179 21.3529 41.3826 22.5882 41.3826 24.1764C41.3826 25.4117 42.1767 26.4705 43.3238 26.8235V27.7941C37.8532 28.2352 33.6179 32.8235 33.6179 38.3823C33.6179 43.9411 37.9414 48.5294 43.5002 48.9705V53.4705C43.5002 55.147 42.1767 56.4705 40.5002 56.4705H9.70611C8.02964 56.4705 6.70611 55.147 6.70611 53.4705V13.147C6.70611 11.4705 8.02964 10.147 9.70611 10.147H15.0002V10.5882C15.0002 12.3529 16.412 13.7646 18.1767 13.7646H31.8532C33.6179 13.7646 35.0296 12.3529 35.0296 10.5882V10.147H40.3238C42.0002 10.147 43.3238 11.4705 43.3238 13.147V18.3529C43.3238 18.8823 43.6767 19.2352 44.2061 19.2352C44.7355 19.2352 45.0885 18.8823 45.0885 18.3529V13.147C45.0885 10.4999 42.9708 8.3823 40.3238 8.3823H35.0296V8.11759C35.0296 6.8823 34.0591 5.91171 32.8238 5.91171H29.1179C28.9414 5.91171 28.8532 5.82347 28.8532 5.647C28.8532 3.44112 27.0885 1.76465 24.9708 1.76465C22.8532 1.76465 21.0885 3.52935 21.0885 5.647C21.0885 5.82347 21.0002 5.91171 20.8238 5.91171H17.1179C15.8826 5.91171 14.912 6.8823 14.912 8.11759V8.47053H9.61788C7.05905 8.3823 4.94141 10.5882 4.94141 13.147ZM43.1473 24.1764C43.1473 23.5588 43.5885 23.1176 44.2061 23.1176C44.8238 23.1176 45.2649 23.5588 45.2649 24.1764C45.2649 24.7058 44.8238 25.2352 44.2061 25.2352C43.5885 25.2352 43.1473 24.7941 43.1473 24.1764ZM35.2944 38.3823C35.2944 33.5294 39.2649 29.5588 44.1179 29.5588C48.9708 29.5588 52.9414 33.5294 52.9414 38.3823C52.9414 43.2352 48.9708 47.2058 44.1179 47.2058C39.2649 47.2058 35.2944 43.2352 35.2944 38.3823ZM16.7649 8.11759C16.7649 7.85288 16.9414 7.67641 17.2061 7.67641H20.912C22.0591 7.67641 22.9414 6.79406 22.9414 5.647C22.8532 4.49994 23.8238 3.52935 25.0591 3.52935C26.2943 3.52935 27.1767 4.49994 27.1767 5.647C27.1767 6.79406 28.0591 7.67641 29.2061 7.67641H32.912C33.1767 7.67641 33.3532 7.85288 33.3532 8.11759V10.5882C33.3532 11.3823 32.7355 11.9999 31.9414 11.9999H18.1767C17.3826 11.9999 16.7649 11.3823 16.7649 10.5882V8.11759Z" fill="#6B61FC"/>
<path d="M13.5889 31.4117C10.9419 31.4117 8.82422 33.5294 8.82422 36.1765C8.82422 38.8235 10.9419 40.9412 13.5889 40.9412C16.236 40.9412 18.3536 38.8235 18.3536 36.1765C18.2654 33.5294 16.1477 31.4117 13.5889 31.4117ZM13.5889 39.1765C11.9125 39.1765 10.5889 37.8529 10.5889 36.1765C10.5889 34.5 11.9125 33.1764 13.5889 33.1764C15.2654 33.1764 16.5889 34.5 16.5889 36.1765C16.5007 37.8529 15.1772 39.1765 13.5889 39.1765Z" fill="#6B61FC"/>
<path d="M13.5889 43.0587C10.9419 43.0587 8.82422 45.1764 8.82422 47.8234C8.82422 50.4705 10.9419 52.5881 13.5889 52.5881C16.236 52.5881 18.3536 50.4705 18.3536 47.8234C18.2654 45.1764 16.1477 43.0587 13.5889 43.0587ZM13.5889 50.8234C11.9125 50.8234 10.5889 49.4999 10.5889 47.8234C10.5889 46.147 11.9125 44.8234 13.5889 44.8234C15.2654 44.8234 16.5889 46.147 16.5889 47.8234C16.5007 49.4999 15.1772 50.8234 13.5889 50.8234Z" fill="#6B61FC"/>
<path d="M20.5581 34.7647H32.0287C32.5581 34.7647 32.9111 34.4118 32.9111 33.8824C32.9111 33.3529 32.5581 33 32.0287 33H20.5581C20.0287 33 19.6758 33.3529 19.6758 33.8824C19.6758 34.4118 20.0287 34.7647 20.5581 34.7647Z" fill="#6B61FC"/>
<path d="M20.5581 39.3528H29.3817C29.9111 39.3528 30.264 38.9999 30.264 38.4705C30.264 37.9411 29.9111 37.5881 29.3817 37.5881H20.5581C20.0287 37.5881 19.6758 37.9411 19.6758 38.4705C19.6758 38.9999 20.0287 39.3528 20.5581 39.3528Z" fill="#6B61FC"/>
<path d="M32.8232 45.5293C32.8232 44.9999 32.4702 44.647 31.9408 44.647H20.4702C19.9408 44.647 19.5879 44.9999 19.5879 45.5293C19.5879 46.0587 19.9408 46.4117 20.4702 46.4117H31.9408C32.4702 46.4117 32.8232 45.9705 32.8232 45.5293Z" fill="#6B61FC"/>
<path d="M28.4995 50.9999H37.5878C38.1172 50.9999 38.4701 50.647 38.4701 50.1176C38.4701 49.5882 38.1172 49.2352 37.5878 49.2352H28.4995C27.9701 49.2352 27.6172 49.5882 27.6172 50.1176C27.6172 50.647 28.0584 50.9999 28.4995 50.9999Z" fill="#6B61FC"/>
<path d="M20.5581 49.2352C20.0287 49.2352 19.6758 49.5882 19.6758 50.1176C19.6758 50.647 20.0287 50.9999 20.5581 50.9999H25.1464C25.6758 50.9999 26.0287 50.647 26.0287 50.1176C26.0287 49.5882 25.6758 49.2352 25.1464 49.2352H20.5581Z" fill="#6B61FC"/>
<path d="M46.5877 38.3823C46.5877 37.0588 45.5288 35.9117 44.1171 35.9117C42.7053 35.9117 41.6465 36.9706 41.6465 38.3823C41.6465 39.7941 42.7053 40.8529 44.1171 40.8529C45.5288 40.8529 46.5877 39.7059 46.5877 38.3823ZM43.4994 38.3823C43.4994 38.0294 43.7641 37.6764 44.2053 37.6764C44.6465 37.6764 44.9112 37.9412 44.9112 38.3823C44.9112 38.8235 44.6465 39.0882 44.2053 39.0882C43.7641 39.0882 43.4994 38.7353 43.4994 38.3823Z" fill="#6B61FC"/>
<path d="M11.8228 28.147H11.9993C12.1757 28.147 12.4404 28.0588 12.6169 27.8823L17.911 23.2058C18.264 22.8529 18.264 22.3235 17.9993 21.9705C17.6463 21.6176 17.1169 21.6176 16.764 21.8823L12.264 25.8529L11.1169 23.8235C10.8522 23.3823 10.3228 23.2058 9.88161 23.4705C9.44043 23.7352 9.26396 24.2646 9.52867 24.7058L11.2051 27.7058C11.2934 27.9705 11.5581 28.147 11.8228 28.147Z" fill="#6B61FC"/>
<path d="M37.8532 22.2353C37.8532 21.7058 37.5002 21.3529 36.9708 21.3529H32.8238C32.2943 21.3529 31.9414 21.7058 31.9414 22.2353C31.9414 22.7647 32.2943 23.1176 32.8238 23.1176H36.9708C37.5002 23.1176 37.8532 22.7647 37.8532 22.2353Z" fill="#6B61FC"/>
<path d="M20.5581 23.1176H28.8523C29.3817 23.1176 29.7346 22.7647 29.7346 22.2353C29.7346 21.7058 29.3817 21.3529 28.8523 21.3529H20.5581C20.0287 21.3529 19.6758 21.7058 19.6758 22.2353C19.6758 22.7647 20.0287 23.1176 20.5581 23.1176Z" fill="#6B61FC"/>
<path d="M32.5581 25.9412H20.5581C20.0287 25.9412 19.6758 26.2941 19.6758 26.8235C19.6758 27.3529 20.0287 27.7059 20.5581 27.7059H32.5581C33.0875 27.7059 33.4405 27.3529 33.4405 26.8235C33.4405 26.2941 32.9993 25.9412 32.5581 25.9412Z" fill="#6B61FC"/>
</svg>
