<svg width="52" height="58" viewBox="0 0 52 58" fill="none" xmlns="http://www.w3.org/2000/svg">
<path d="M0.941406 12.147V52.4705C0.941406 55.1176 3.05905 57.2352 5.70611 57.2352H36.412C39.0591 57.2352 41.1767 55.1176 41.1767 52.4705V47.9705C46.5591 47.4411 50.7943 42.9411 50.7943 37.3823C50.7943 34.7352 49.8238 32.2646 48.1473 30.4117L48.9414 29.6176L49.5591 30.2352C49.912 30.5882 50.4414 30.5882 50.7943 30.2352C51.1473 29.8823 51.1473 29.3529 50.7943 28.9999L48.3238 26.5294C47.9708 26.1764 47.4414 26.1764 47.0885 26.5294C46.7355 26.8823 46.7355 27.4117 47.0885 27.7646L47.7061 28.3823L46.912 29.1764C45.3238 27.8529 43.2943 26.9705 41.0885 26.7941V25.8235C42.2355 25.4705 43.0296 24.4117 43.0296 23.1764C43.0296 21.5882 41.7943 20.3529 40.2061 20.3529C38.6179 20.3529 37.3826 21.5882 37.3826 23.1764C37.3826 24.4117 38.1767 25.4705 39.3238 25.8235V26.7941C33.8532 27.2352 29.6179 31.8235 29.6179 37.3823C29.6179 42.9411 33.9414 47.5294 39.5002 47.9705V52.4705C39.5002 54.147 38.1767 55.4705 36.5002 55.4705H5.70611C4.02964 55.4705 2.70611 54.147 2.70611 52.4705V12.147C2.70611 10.4705 4.02964 9.147 5.70611 9.147H11.0002V9.58818C11.0002 11.3529 12.412 12.7646 14.1767 12.7646H27.8532C29.6179 12.7646 31.0296 11.3529 31.0296 9.58818V9.147H36.3238C38.0002 9.147 39.3238 10.4705 39.3238 12.147V17.3529C39.3238 17.8823 39.6767 18.2352 40.2061 18.2352C40.7355 18.2352 41.0885 17.8823 41.0885 17.3529V12.147C41.0885 9.49994 38.9708 7.3823 36.3238 7.3823H31.0296V7.11759C31.0296 5.8823 30.0591 4.91171 28.8238 4.91171H25.1179C24.9414 4.91171 24.8532 4.82347 24.8532 4.647C24.8532 2.44112 23.0885 0.764648 20.9708 0.764648C18.8532 0.764648 17.0885 2.52935 17.0885 4.647C17.0885 4.82347 17.0002 4.91171 16.8238 4.91171H13.1179C11.8826 4.91171 10.912 5.8823 10.912 7.11759V7.47053H5.61788C3.05905 7.3823 0.941406 9.58818 0.941406 12.147ZM39.1473 23.1764C39.1473 22.5588 39.5885 22.1176 40.2061 22.1176C40.8238 22.1176 41.2649 22.5588 41.2649 23.1764C41.2649 23.7058 40.8238 24.2352 40.2061 24.2352C39.5885 24.2352 39.1473 23.7941 39.1473 23.1764ZM31.2944 37.3823C31.2944 32.5294 35.2649 28.5588 40.1179 28.5588C44.9708 28.5588 48.9414 32.5294 48.9414 37.3823C48.9414 42.2352 44.9708 46.2058 40.1179 46.2058C35.2649 46.2058 31.2944 42.2352 31.2944 37.3823ZM12.7649 7.11759C12.7649 6.85288 12.9414 6.67641 13.2061 6.67641H16.912C18.0591 6.67641 18.9414 5.79406 18.9414 4.647C18.8532 3.49994 19.8238 2.52935 21.0591 2.52935C22.2943 2.52935 23.1767 3.49994 23.1767 4.647C23.1767 5.79406 24.0591 6.67641 25.2061 6.67641H28.912C29.1767 6.67641 29.3532 6.85288 29.3532 7.11759V9.58818C29.3532 10.3823 28.7355 10.9999 27.9414 10.9999H14.1767C13.3826 10.9999 12.7649 10.3823 12.7649 9.58818V7.11759Z" fill="black"/>
<path d="M9.58844 30.4117C6.94138 30.4117 4.82373 32.5294 4.82373 35.1765C4.82373 37.8235 6.94138 39.9412 9.58844 39.9412C12.2355 39.9412 14.3531 37.8235 14.3531 35.1765C14.2649 32.5294 12.1473 30.4117 9.58844 30.4117ZM9.58844 38.1765C7.91197 38.1765 6.58844 36.8529 6.58844 35.1765C6.58844 33.5 7.91197 32.1764 9.58844 32.1764C11.2649 32.1764 12.5884 33.5 12.5884 35.1765C12.5002 36.8529 11.1767 38.1765 9.58844 38.1765Z" fill="black"/>
<path d="M9.58844 42.0587C6.94138 42.0587 4.82373 44.1764 4.82373 46.8234C4.82373 49.4705 6.94138 51.5881 9.58844 51.5881C12.2355 51.5881 14.3531 49.4705 14.3531 46.8234C14.2649 44.1764 12.1473 42.0587 9.58844 42.0587ZM9.58844 49.8234C7.91197 49.8234 6.58844 48.4999 6.58844 46.8234C6.58844 45.147 7.91197 43.8234 9.58844 43.8234C11.2649 43.8234 12.5884 45.147 12.5884 46.8234C12.5002 48.4999 11.1767 49.8234 9.58844 49.8234Z" fill="black"/>
<path d="M16.5591 33.7647H28.0297C28.5591 33.7647 28.9121 33.4118 28.9121 32.8824C28.9121 32.3529 28.5591 32 28.0297 32H16.5591C16.0297 32 15.6768 32.3529 15.6768 32.8824C15.6768 33.4118 16.0297 33.7647 16.5591 33.7647Z" fill="black"/>
<path d="M16.5591 38.3528H25.3826C25.9121 38.3528 26.265 37.9999 26.265 37.4705C26.265 36.9411 25.9121 36.5881 25.3826 36.5881H16.5591C16.0297 36.5881 15.6768 36.9411 15.6768 37.4705C15.6768 37.9999 16.0297 38.3528 16.5591 38.3528Z" fill="black"/>
<path d="M28.8237 44.5293C28.8237 43.9999 28.4707 43.647 27.9413 43.647H16.4707C15.9413 43.647 15.5884 43.9999 15.5884 44.5293C15.5884 45.0587 15.9413 45.4117 16.4707 45.4117H27.9413C28.4707 45.4117 28.8237 44.9705 28.8237 44.5293Z" fill="black"/>
<path d="M24.5 49.9999H33.5883C34.1177 49.9999 34.4706 49.647 34.4706 49.1176C34.4706 48.5882 34.1177 48.2352 33.5883 48.2352H24.5C23.9706 48.2352 23.6177 48.5882 23.6177 49.1176C23.6177 49.647 24.0589 49.9999 24.5 49.9999Z" fill="black"/>
<path d="M16.5591 48.2352C16.0297 48.2352 15.6768 48.5882 15.6768 49.1176C15.6768 49.647 16.0297 49.9999 16.5591 49.9999H21.1473C21.6768 49.9999 22.0297 49.647 22.0297 49.1176C22.0297 48.5882 21.6768 48.2352 21.1473 48.2352H16.5591Z" fill="black"/>
<path d="M42.5886 37.3823C42.5886 36.0588 41.5298 34.9117 40.118 34.9117C38.7063 34.9117 37.6475 35.9706 37.6475 37.3823C37.6475 38.7941 38.7063 39.8529 40.118 39.8529C41.5298 39.8529 42.5886 38.7059 42.5886 37.3823ZM39.5004 37.3823C39.5004 37.0294 39.7651 36.6764 40.2063 36.6764C40.6475 36.6764 40.9122 36.9412 40.9122 37.3823C40.9122 37.8235 40.6475 38.0882 40.2063 38.0882C39.7651 38.0882 39.5004 37.7353 39.5004 37.3823Z" fill="black"/>
<path d="M7.82376 27.147H8.00023C8.1767 27.147 8.44141 27.0588 8.61788 26.8823L13.912 22.2058C14.2649 21.8529 14.2649 21.3235 14.0002 20.9705C13.6473 20.6176 13.1179 20.6176 12.7649 20.8823L8.26494 24.8529L7.11788 22.8235C6.85317 22.3823 6.32376 22.2058 5.88259 22.4705C5.44141 22.7352 5.26494 23.2646 5.52964 23.7058L7.20612 26.7058C7.29435 26.9705 7.55906 27.147 7.82376 27.147Z" fill="black"/>
<path d="M33.8532 21.2353C33.8532 20.7058 33.5002 20.3529 32.9708 20.3529H28.8238C28.2943 20.3529 27.9414 20.7058 27.9414 21.2353C27.9414 21.7647 28.2943 22.1176 28.8238 22.1176H32.9708C33.5002 22.1176 33.8532 21.7647 33.8532 21.2353Z" fill="black"/>
<path d="M16.5591 22.1176H24.8532C25.3826 22.1176 25.7356 21.7647 25.7356 21.2353C25.7356 20.7058 25.3826 20.3529 24.8532 20.3529H16.5591C16.0297 20.3529 15.6768 20.7058 15.6768 21.2353C15.6768 21.7647 16.0297 22.1176 16.5591 22.1176Z" fill="black"/>
<path d="M28.5591 24.9412H16.5591C16.0297 24.9412 15.6768 25.2941 15.6768 25.8235C15.6768 26.3529 16.0297 26.7059 16.5591 26.7059H28.5591C29.0885 26.7059 29.4415 26.3529 29.4415 25.8235C29.4415 25.2941 29.0003 24.9412 28.5591 24.9412Z" fill="black"/>
</svg>
