<svg width="120" height="120" viewBox="0 0 120 120" fill="none" xmlns="http://www.w3.org/2000/svg">
<path d="M112.116 81.6207L64.1956 53.4945C62.4454 52.4655 59.6113 52.4655 57.8612 53.4945L8.58153 82.4934L4.42026 82.0032V85.8173C4.30922 86.5661 4.7428 87.3364 5.7157 87.9075L59.0667 119.228C60.8169 120.257 63.651 120.257 65.4011 119.228L117.552 88.5378C118.424 88.0206 118.863 87.3472 118.863 86.6738V82.4072L112.116 81.6207Z" fill="url(#paint0_linear_36_794)"/>
<path d="M117.552 80.5487L64.2011 49.2279C62.4509 48.1989 59.6168 48.1989 57.8666 49.2279L5.72117 79.9184C3.971 80.9473 3.971 82.6173 5.72117 83.6463L59.0722 114.967C60.8223 115.996 63.6565 115.996 65.4066 114.967L117.557 84.2766C119.302 83.2476 119.302 81.5776 117.552 80.5487Z" fill="url(#paint1_linear_36_794)"/>
<path d="M119.995 64.6782C119.995 67.7219 116.23 71.5468 113.644 70.0276L69.5254 40.5008C66.9398 38.9816 64.8459 35.2806 64.8459 32.2423L62.5088 4.69249C62.5088 1.64876 66.7177 0.65753 69.5306 2.41912L115.321 29.3548C117.906 30.874 120 34.5749 120 37.6133V64.6782H119.995Z" fill="#191919"/>
<path d="M117.557 66.8977C117.557 69.9414 115.463 71.1697 112.878 69.6505L67.0878 42.7149C64.5022 41.1957 62.4031 37.4947 62.4031 34.4564V5.76453C62.4031 2.7208 64.5022 1.49254 67.0878 3.01171L112.878 29.9474C115.463 31.4665 117.557 35.1675 117.557 38.2058V66.8977Z" fill="#666666"/>
<path d="M116.293 64.7266C116.293 67.6303 114.295 68.8047 111.826 67.3555L68.1295 41.6535C65.6655 40.199 63.6615 36.6758 63.6615 33.7722V7.93548C63.6615 5.03181 65.6602 3.85742 68.1295 5.30656L111.826 31.0086C114.295 32.4631 116.293 35.9863 116.293 38.8899V64.7266Z" fill="url(#paint2_linear_36_794)"/>
<path d="M69.2874 35.6739L71.9153 38.222L80.3119 43.162C80.8512 43.4798 81.491 43.5876 82.1043 43.4529C84.0449 43.0381 88.1691 41.9822 87.6932 40.5762C86.8631 38.1088 81.7131 40.1236 81.7131 40.1236L74.448 36.1803C74.0356 35.4314 74.0356 34.0685 75.3681 34.6988L80.0105 36.7944C80.9411 37.1122 81.4381 37.3008 81.4381 36.3257C81.4381 35.3506 80.7983 34.5695 80.0105 34.1062L72.793 29.7372L69.2874 29.7157V35.6739Z" fill="#FFD297"/>
<path d="M65.9563 27.0598L69.2874 29.0207V39.5364L65.951 37.5701" fill="#1A437D"/>
<path d="M68.4414 37.7856C68.4414 38.1412 68.2247 38.3028 67.955 38.1466C67.6853 37.9904 67.4685 37.5702 67.4685 37.2146C67.4685 36.8591 67.6853 36.6974 67.955 36.8591C68.2247 37.0153 68.4414 37.4301 68.4414 37.7856Z" fill="white"/>
<path d="M91.1037 37.3116C91.1037 38.2112 90.4851 38.5776 89.7184 38.125L80.7085 32.8295C79.9418 32.377 79.3231 31.2834 79.3231 30.3837V25.0128C79.3231 24.1131 79.9418 23.7468 80.7085 24.1993L89.7184 29.4949C90.4851 29.9474 91.1037 31.041 91.1037 31.9406V37.3116Z" fill="url(#paint3_linear_36_794)"/>
<path d="M77.2293 19.6633C77.2293 20.5629 76.6106 20.9293 75.844 20.4767L66.834 15.1758C66.0673 14.7233 65.4487 13.6297 65.4487 12.7301V7.35908C65.4487 6.45943 66.0673 6.09311 66.834 6.54563L75.844 11.8466C76.6106 12.2991 77.2293 13.3927 77.2293 14.2923V19.6633Z" fill="url(#paint4_linear_36_794)"/>
<path d="M76.0872 14.8634C76.0872 15.0627 75.9497 15.1381 75.7805 15.0412L73.8083 13.8775C73.6391 13.7806 73.5069 13.5381 73.5069 13.3388V12.159C73.5069 11.9597 73.6443 11.8843 73.8083 11.9813L75.7805 13.1449C75.9497 13.2419 76.0819 13.4843 76.0819 13.6836V14.8634H76.0872Z" fill="#F5D451"/>
<path d="M76.0872 18.1603L65.6126 11.9975V11.3348L76.0872 17.4977V18.1603Z" fill="white"/>
<path d="M78.7521 15.0735C78.7521 15.0735 81.7184 16.4095 84.6476 23.2081" stroke="url(#paint5_linear_36_794)" stroke-width="9.397" stroke-miterlimit="10" stroke-linecap="round"/>
<path d="M81.914 21.134L84.2775 22.3784L85.7157 21.0155L85.7104 26.4296L81.914 21.134Z" fill="url(#paint6_linear_36_794)"/>
<path d="M78.7415 29.2147C78.7415 29.2147 75.8757 28.5144 72.2643 21.9636" stroke="url(#paint7_linear_36_794)" stroke-width="9.397" stroke-miterlimit="10" stroke-linecap="round"/>
<path d="M75.0297 23.5151L72.719 22.7609L71.6139 24.571L70.8473 18.7798L75.0297 23.5151Z" fill="url(#paint8_linear_36_794)"/>
<path d="M87.836 32.7055C87.836 34.4132 86.6622 35.1028 85.2134 34.2516C83.7646 33.4004 82.5908 31.3264 82.5908 29.6187C82.5908 27.9109 83.7646 27.2214 85.2134 28.0725C86.6622 28.9237 87.836 30.9978 87.836 32.7055Z" fill="url(#paint9_linear_36_794)"/>
<path d="M85.335 33.4382V34.1224L85.0548 33.9608V33.3035C84.6741 33.0773 84.3621 32.8079 84.1295 32.4847V31.9352C84.2352 32.1022 84.3727 32.2746 84.5525 32.4524C84.7322 32.6301 84.9014 32.7648 85.0548 32.8564V31.2403C84.6635 30.7877 84.4044 30.4322 84.2881 30.1736C84.1718 29.915 84.1136 29.6618 84.1136 29.4033C84.1136 29.0962 84.2035 28.8861 84.378 28.7676C84.5525 28.6491 84.7798 28.6491 85.0495 28.7622V28.1965L85.3297 28.3581V28.913C85.6787 29.1339 85.9219 29.3332 86.0541 29.5164V30.0551C85.8744 29.7803 85.6311 29.5487 85.3297 29.3548V31.0194C85.6999 31.445 85.9537 31.7951 86.0911 32.0699C86.2286 32.3446 86.2974 32.6086 86.2974 32.8564C86.2974 33.1527 86.2128 33.3574 86.0436 33.4598C85.8796 33.5675 85.6417 33.5567 85.335 33.4382ZM85.0601 30.6854V29.2147C84.912 29.1608 84.7904 29.1716 84.7058 29.2416C84.6159 29.3117 84.5736 29.4302 84.5736 29.6026C84.5736 29.7857 84.6106 29.9527 84.6794 30.109C84.7481 30.2706 84.875 30.4591 85.0601 30.6854ZM85.335 31.5689V32.9965C85.6787 33.1096 85.8532 32.9965 85.8532 32.6463C85.8532 32.35 85.684 31.9945 85.335 31.5689Z" fill="url(#paint10_linear_36_794)"/>
<path d="M113.845 39.4448C113.845 39.7519 113.634 39.8758 113.375 39.7249L95.1753 29.0207C94.9162 28.8699 94.7047 28.4928 94.7047 28.1857C94.7047 27.8786 94.9162 27.7547 95.1753 27.9056L113.375 38.6098C113.634 38.766 113.845 39.1377 113.845 39.4448Z" fill="url(#paint11_linear_36_794)"/>
<path d="M113.845 42.1223C113.845 42.4294 113.634 42.5533 113.375 42.4024L95.1752 31.6982C94.9161 31.5474 94.7046 31.1703 94.7046 30.8632C94.7046 30.5561 94.9161 30.4322 95.1752 30.5831L113.375 41.2873C113.634 41.4435 113.845 41.8152 113.845 42.1223Z" fill="url(#paint12_linear_36_794)"/>
<path d="M105.38 39.8381C105.38 40.1452 105.168 40.2691 104.909 40.1183L95.1698 34.3756C94.9107 34.2247 94.6992 33.8476 94.6992 33.5406C94.6992 33.2335 94.9107 33.1096 95.1698 33.2604L104.909 39.0031C105.174 39.1593 105.38 39.5311 105.38 39.8381Z" fill="url(#paint13_linear_36_794)"/>
<path d="M113.845 48.339C113.845 48.646 113.634 48.7699 113.375 48.6191L95.1752 37.9149C94.9161 37.764 94.7046 37.3869 94.7046 37.0799C94.7046 36.7728 94.9161 36.6489 95.1752 36.7997L113.375 47.504C113.634 47.6602 113.845 48.0319 113.845 48.339Z" fill="url(#paint14_linear_36_794)"/>
<path d="M113.845 51.0164C113.845 51.3234 113.634 51.4473 113.375 51.2965L95.1752 40.5869C94.9161 40.436 94.7046 40.0589 94.7046 39.7519C94.7046 39.4448 94.9161 39.3209 95.1752 39.4717L113.375 50.176C113.634 50.3376 113.845 50.7093 113.845 51.0164Z" fill="url(#paint15_linear_36_794)"/>
<path d="M110.123 51.4851C110.123 51.7922 109.911 51.9161 109.652 51.7652L95.1752 43.2697C94.9161 43.1189 94.7046 42.7418 94.7046 42.4347C94.7046 42.1277 94.9161 42.0038 95.1752 42.1546L109.652 50.6501C109.911 50.8063 110.123 51.1781 110.123 51.4851Z" fill="url(#paint16_linear_36_794)"/>
<path d="M98.5908 53.4622C98.5908 54.1195 99.0456 54.9222 99.606 55.2508L106.728 59.442C107.289 59.7706 107.744 59.5066 107.744 58.844C107.744 58.1868 107.289 57.3841 106.728 57.0555L99.606 52.8643C99.0456 52.5357 98.5908 52.805 98.5908 53.4622Z" fill="url(#paint17_linear_36_794)"/>
<path d="M93.2081 83.7755C93.2081 83.7755 92.7111 84.7721 93.0231 85.3162C93.3297 85.8603 94.1916 85.8872 94.916 85.5155C95.6351 85.1384 97.6179 84.2711 98.1995 83.6785C98.7812 83.0913 98.3106 81.5829 97.7025 81.6907C97.0945 81.7984 95.1804 82.4556 94.6992 81.9654C94.2128 81.4752 93.2081 83.7755 93.2081 83.7755Z" fill="#212121"/>
<path d="M93.5307 79.5251C93.5307 79.5251 92.415 80.1123 91.955 79.6436C91.495 79.1749 90.0674 80.721 90.0674 80.721C90.0674 80.721 89.7184 82.2618 90.1308 82.9405C90.5485 83.6247 91.8281 82.7789 92.7111 82.1109C93.5941 81.4429 95.191 80.8503 95.4553 80.5864C95.7144 80.3224 96.1321 79.8214 95.4395 79.7298C94.7468 79.649 94.1863 79.2126 93.5307 79.5251Z" fill="#212121"/>
<path d="M90.3212 59.9106C90.3212 59.9106 90.3212 62.9867 90.3212 66.1759C90.3212 69.365 89.2108 70.3994 89.2108 74.596C89.2108 78.7925 89.9299 80.8773 89.9299 80.8773C89.9299 80.8773 91.5479 80.8073 91.7911 80.1662C92.0343 79.5252 92.0713 79.0511 92.0713 78.3939C92.0713 77.7366 92.7111 69.3058 94.3714 66.8816C96.0317 64.4574 95.4553 56.6353 95.4553 56.6353L90.3212 59.9106Z" fill="url(#paint18_linear_36_794)"/>
<path d="M91.992 59.4634C91.992 59.4634 94.382 64.258 93.8109 68.6916C93.2399 73.1252 92.9544 74.8653 92.9544 79.0618C92.9544 83.2584 93.0918 83.8133 93.0918 83.8133C93.0918 83.8133 93.5043 84.2227 94.2392 83.7432C94.9742 83.2638 95.0165 82.585 95.0165 82.1918C95.0165 81.7985 96.809 72.5003 97.38 70.103C97.9511 67.7058 98.924 65.6479 98.924 61.7961C98.9187 57.9497 92.2617 56.5652 91.992 59.4634Z" fill="url(#paint19_linear_36_794)"/>
<path d="M89.9405 57.3624C89.9405 57.3624 90.1097 57.691 89.9405 58.2082C89.7713 58.7254 89.6814 59.3395 89.7766 60.3253C89.877 61.3112 89.8295 61.8445 90.0092 61.8445C90.1943 61.8445 90.2789 61.2627 90.2789 60.8479C90.2789 60.4331 90.5644 60.0829 90.6014 60.0506C90.6332 60.0183 90.9081 57.0769 90.9081 57.0769L89.9405 57.3624Z" fill="#F2BF81"/>
<path d="M89.7713 56.9691C89.7713 56.9691 89.803 57.5294 89.9722 57.5294C90.1414 57.5294 91.1037 57.2493 91.1037 57.2493L91.0297 56.6405L89.7713 56.9691Z" fill="url(#paint20_linear_36_794)"/>
<path d="M106.326 45.0743C106.326 45.0743 106.501 44.1047 106.194 43.5767C105.888 43.0434 105.845 42.8118 105.845 42.1599C105.845 41.5081 105.941 40.5761 106.147 40.5761C106.353 40.5761 106.549 40.7539 106.549 41.1256C106.549 41.4973 106.48 41.8528 106.549 41.9229C106.617 41.9929 107.083 39.9135 107.236 39.0892C107.389 38.265 107.463 38.1519 107.712 38.1896C107.96 38.2327 107.744 39.1162 107.654 39.6549C107.558 40.1936 107.469 40.9209 107.469 40.9209C107.469 40.9209 107.585 40.4145 107.865 40.5061C108.145 40.5923 108.119 41.131 108.119 41.131C108.119 41.131 108.256 40.7377 108.521 40.8077C108.79 40.8832 108.722 41.4003 108.722 41.4003C108.722 41.4003 108.748 41.1471 109.055 41.2333C109.356 41.3249 109.224 42.5424 109.055 43.0973C108.886 43.6521 108.547 44.0131 108.309 44.3794C108.071 44.7403 107.971 44.972 107.971 45.5592C107.971 46.1518 107.257 45.7747 107.257 45.7747L106.326 45.0743Z" fill="#F2BF81"/>
<path d="M106.263 44.9504C106.263 44.9504 106.258 44.5841 106.459 44.5841C106.66 44.5841 107.892 44.778 108.013 44.9774C108.13 45.1713 108.077 45.6454 108.077 45.6454C108.077 45.6454 106.263 45.0743 106.263 44.9504Z" fill="url(#paint21_linear_36_794)"/>
<path d="M92.3569 41.2334C92.3569 41.2334 91.9127 42.4186 91.6061 42.4994C91.6061 42.4994 91.4739 43.5607 93.2769 43.8462C95.0852 44.1317 95.725 43.6253 95.725 43.6253C95.725 43.6253 95.3232 42.7256 95.4977 41.7614C95.6721 40.7917 95.7885 40.7863 96.5129 40.7863V40.0159C96.5129 40.0159 95.7356 39.6604 94.4402 39.9351C93.1394 40.2099 92.3569 41.2334 92.3569 41.2334Z" fill="#F2BF81"/>
<path d="M97.4805 34.8173C97.4805 34.8173 98.0885 36.3958 97.8189 37.3385C97.5492 38.2812 97.6179 38.1358 97.6179 38.9977C97.6179 39.8597 97.0839 40.5115 96.7191 40.727C96.3595 40.9479 95.9048 40.5923 95.6616 39.6657C95.4289 38.7392 97.2901 34.4941 97.4805 34.8173Z" fill="#FFD297"/>
<path d="M92.3674 41.1634C92.3674 41.1634 92.6054 40.0483 91.4844 39.2294C90.3582 38.4106 89.1844 33.3143 92.7957 32.9642C96.4071 32.6086 96.9517 30.9063 97.877 31.8437C98.7971 32.7864 98.0833 34.7689 97.4858 35.3776C96.8883 35.9864 96.9676 36.5197 97.1844 37.1608C97.4012 37.7964 96.9464 37.4786 97.1051 37.9796C97.2637 38.4806 97.2214 38.917 97.2214 38.917L96.9623 39.0085C96.9623 39.0085 96.5763 37.748 96.1956 38.5345C95.8096 39.3264 95.7832 39.8328 95.9418 40.3122C96.0952 40.7809 92.0819 42.3917 92.3674 41.1634Z" fill="#282828"/>
<path d="M95.7197 43.6307C95.7197 43.6307 97.5703 44.6974 99.6378 46.3512C101.705 48.0051 104.846 50.3269 105.11 49.7666C105.38 49.201 106.215 44.8644 106.215 44.8644C106.215 44.8644 106.998 44.7943 107.818 45.1176C108.637 45.4462 107.463 50.968 107.067 52.638C106.675 54.308 105.607 54.4912 103.466 53.1821C101.324 51.873 98.686 50.4562 98.5115 51.1835C98.337 51.9107 98.3 57.0339 98.76 59.3234C99.2253 61.613 99.1513 61.7584 99.1513 61.7584C99.1513 61.7584 94.953 62.6742 92.9755 61.7584L92.5736 59.4258L92.1454 61.4675C92.1454 61.4675 90.9398 61.0581 90.3476 60.4493C89.7501 59.8406 90.2577 59.1241 90.4904 58.1221C90.723 57.1255 90.7072 56.9962 90.7072 56.9962C90.7072 56.9962 89.8559 57.3625 89.6761 56.9423C89.4963 56.5275 88.92 54.0548 88.4917 50.6017C88.0634 47.1485 88.3066 44.1802 89.1315 43.3344C89.9669 42.4886 93.0601 41.8691 95.7197 43.6307Z" fill="url(#paint22_linear_36_794)"/>
<path d="M90.8446 42.7363C90.8446 42.7363 91.22 41.8475 92.5207 42.0845C93.8215 42.3215 94.3608 42.2838 95.6457 43.1404C96.9305 43.9969 96.9305 44.4872 96.9305 44.4872L90.8446 42.7363Z" fill="url(#paint23_linear_36_794)"/>
<path d="M19.1195 75.237V75.7057V86.5284C19.3469 86.5284 19.5743 86.4799 19.7488 86.3722L28.0554 81.486C28.2299 81.3837 28.3145 81.249 28.3145 81.1143L29.6258 69.1172C29.5994 69.2465 29.5042 69.3704 29.335 69.4674L19.8386 75.0646C19.643 75.1831 19.3786 75.237 19.1195 75.237Z" fill="url(#paint24_linear_36_794)"/>
<path d="M8.61323 69.1279C8.63967 69.2572 8.74013 69.3757 8.90405 69.4727L18.4004 75.0645C18.6013 75.183 18.8604 75.2423 19.1195 75.2423C19.3786 75.2423 19.643 75.183 19.8386 75.0645L29.3403 69.4727C29.5095 69.3757 29.6047 69.2518 29.6311 69.1225V69.1171L29.6364 69.0471C29.6364 68.8909 29.5359 68.74 29.3403 68.6215L19.8439 63.0351C19.4473 62.8034 18.8023 62.8034 18.4004 63.0351L8.90405 68.6215C8.6714 68.767 8.57093 68.9501 8.61323 69.1279Z" fill="url(#paint25_linear_36_794)"/>
<path d="M9.92985 69.1173C9.95629 69.2304 10.0409 69.3327 10.1837 69.4189L18.4903 74.3051C18.6648 74.4074 18.8922 74.4613 19.1196 74.4613C19.3469 74.4613 19.5743 74.4128 19.7488 74.3051L28.0554 69.4189C28.2035 69.3327 28.2881 69.225 28.3092 69.1119L28.3145 69.0526C28.3145 68.9179 28.2299 68.7832 28.0554 68.6809L19.7488 63.7948C19.3998 63.5901 18.834 63.5901 18.4851 63.7948L10.1784 68.6809C9.97744 68.7994 9.89284 68.961 9.92985 69.1173Z" fill="url(#paint26_linear_36_794)"/>
<path d="M8.60269 69.1226L9.91928 81.1197C9.91928 81.2544 10.0092 81.3891 10.1784 81.4914L18.4851 86.3775C18.6595 86.4799 18.8869 86.5338 19.1196 86.5338V75.711V75.2423C18.8605 75.2423 18.6014 75.1831 18.4005 75.0646L8.90408 69.4781C8.74017 69.3811 8.64499 69.2572 8.61327 69.1333L8.60269 69.1226Z" fill="url(#paint27_linear_36_794)"/>
<path d="M19.1195 69.0525C19.1195 69.0525 18.7283 62.3832 12.5049 62.3832C12.5049 62.3832 13.7051 62.3832 14.5141 62.3832C15.3231 62.3832 16.2114 59.7974 10.3 59.7974C10.3 59.7974 8.14795 59.6627 11.1565 59.2155C14.1704 58.7684 6.33433 54.0008 0.169089 56.8452C0.169089 56.8452 -1.15279 60.1852 3.5954 60.7886C8.34359 61.3866 2.81285 61.3866 1.63902 60.9125C0.465191 60.4384 0.830029 62.7333 3.13539 63.7569C5.43545 64.7805 7.46586 64.9044 8.60796 64.9044C9.75006 64.9044 8.13208 65.4754 5.77914 65.2276C3.4262 64.9798 2.56962 64.3279 2.56962 64.3279C2.56962 64.3279 7.73552 69.144 11.5531 68.6161C15.376 68.0935 19.1195 69.0525 19.1195 69.0525Z" fill="url(#paint28_linear_36_794)"/>
<path d="M19.5584 69.9145C19.5478 69.9145 19.5373 69.9091 19.5267 69.8983C19.5055 69.8714 17.2002 67.0054 13.8426 64.0479C10.7441 61.3166 6.08582 57.9497 1.49098 57.384C1.46983 57.384 1.45396 57.3625 1.45396 57.3409C1.45396 57.3194 1.47511 57.3032 1.49626 57.3032C6.11226 57.8689 10.7811 61.252 13.8902 63.9887C17.2583 66.9516 19.5637 69.8175 19.5848 69.8445C19.6007 69.8606 19.5954 69.8876 19.5796 69.9037C19.5743 69.9091 19.5637 69.9145 19.5584 69.9145Z" fill="#4E6DC4"/>
<path d="M9.3535 66.5637C8.60268 66.5637 7.79369 66.5045 6.92125 66.359C6.9001 66.3536 6.88423 66.3321 6.88952 66.3105C6.89481 66.289 6.91596 66.2728 6.93711 66.2782C11.9761 67.1132 15.0323 65.1038 15.0587 65.0876C15.0799 65.0769 15.101 65.0822 15.1116 65.0984C15.1222 65.1146 15.1169 65.1415 15.101 65.1523C15.0799 65.1738 12.9596 66.5637 9.3535 66.5637Z" fill="#4E6DC4"/>
<path d="M12.5049 62.9057C12.4996 62.9057 12.4943 62.9057 12.489 62.9003C12.4678 62.8896 12.4626 62.868 12.4731 62.8465C12.4784 62.8303 13.1869 61.3919 12.0184 59.862C12.0025 59.8458 12.0078 59.8189 12.0237 59.8027C12.0396 59.7866 12.066 59.792 12.0819 59.8081C13.2821 61.3812 12.5524 62.868 12.5472 62.8842C12.5313 62.8949 12.5207 62.9057 12.5049 62.9057Z" fill="#4E6DC4"/>
<path d="M5.63637 62.4265C4.98071 62.4265 4.2669 62.3618 3.51607 62.1948C3.49492 62.1894 3.47906 62.1679 3.48435 62.1463C3.48963 62.1248 3.51078 62.1086 3.53193 62.114C7.46056 62.9759 10.2101 61.1497 10.2365 61.1282C10.2577 61.1174 10.2788 61.1228 10.2894 61.1389C10.3 61.1551 10.2947 61.182 10.2788 61.1928C10.2629 61.2144 8.43346 62.4265 5.63637 62.4265Z" fill="#4E6DC4"/>
<path d="M6.77318 59.0971C6.75203 59.0971 6.73617 59.081 6.73088 59.0594C6.73088 59.0379 6.59869 57.1577 5.02301 56.2796C5.00186 56.2689 4.99657 56.2419 5.00715 56.2258C5.01772 56.2042 5.04416 56.1988 5.06002 56.2096C6.678 57.1093 6.81019 59.0379 6.81019 59.054C6.81548 59.0756 6.79433 59.0917 6.77318 59.0971Z" fill="#4E6DC4"/>
<path d="M1.70776 58.6984C1.37465 58.6984 1.02567 58.6553 0.676696 58.553C0.655545 58.5476 0.64497 58.526 0.650258 58.5045C0.655545 58.4829 0.676695 58.4722 0.697845 58.4776C2.44272 58.9893 4.13473 57.9442 4.15059 57.9335C4.17174 57.9227 4.19289 57.9281 4.20347 57.9442C4.21404 57.9658 4.20875 57.9873 4.19289 57.9981C4.18232 58.0035 3.06665 58.6984 1.70776 58.6984Z" fill="#4E6DC4"/>
<path d="M19.2834 69.0579C19.2834 69.0579 21.4883 62.1354 18.6965 57.05C18.6965 57.05 18.2577 56.4682 18.2577 58.7038C18.2577 60.9395 18.6278 56.8237 15.762 53.9039C12.8961 50.9841 9.15257 50.0144 9.15257 50.0144C9.15257 50.0144 7.2332 56.8022 10.6225 58.7038C10.6225 58.7038 11.3099 59.6574 9.30062 58.7038C7.29136 57.7503 10.6859 61.8392 14.0329 63.3368C14.0329 63.3368 14.641 64.4573 12.875 63.6492C11.1037 62.8358 12.4784 67.2963 19.2834 69.0579Z" fill="url(#paint29_linear_36_794)"/>
<path d="M19.5584 70.2969C19.5372 70.2969 19.5214 70.2808 19.5214 70.2592C19.5161 70.2323 19.1565 67.4795 17.7924 63.8108C16.5339 60.4277 14.144 55.5469 9.89811 51.5335C9.88225 51.5174 9.88225 51.4904 9.89811 51.4743C9.91397 51.4581 9.94041 51.4581 9.95628 51.4743C14.2127 55.4985 16.6133 60.39 17.8717 63.7839C19.2359 67.4633 19.6007 70.2215 19.606 70.2484C19.6007 70.2754 19.5848 70.2915 19.5584 70.2969Z" fill="#4E6DC4"/>
<path d="M17.8558 66.0843C17.1208 66.0843 15.8095 65.8095 13.906 64.4089C13.8902 64.3981 13.8849 64.3712 13.8955 64.3496C13.906 64.3335 13.9325 64.3281 13.9536 64.3389C16.9834 66.5691 18.5167 65.9011 18.5326 65.8957C18.5538 65.885 18.5749 65.8957 18.5855 65.9173C18.5961 65.9388 18.5855 65.9604 18.5643 65.9712C18.5379 65.9819 18.3052 66.0843 17.8558 66.0843Z" fill="#4E6DC4"/>
<path d="M17.3059 62.5233C17.2901 62.5233 17.2742 62.5126 17.2689 62.4964C17.2636 62.4749 17.2742 62.4533 17.2901 62.4425C17.3006 62.4371 18.5009 61.9254 18.5009 57.9227C18.5009 57.9012 18.5168 57.8796 18.5432 57.8796C18.5696 57.8796 18.5855 57.8958 18.5855 57.9227C18.5855 61.9954 17.3747 62.4964 17.3218 62.518C17.3165 62.5233 17.3112 62.5233 17.3059 62.5233Z" fill="#4E6DC4"/>
<path d="M15.7091 59.5765C14.879 59.5765 11.8651 59.3988 9.89283 56.9692C9.87697 56.953 9.88226 56.9261 9.89812 56.9099C9.91398 56.8937 9.94042 56.8991 9.95628 56.9153C12.2246 59.7112 15.8889 59.4903 15.9259 59.4903C15.9523 59.4903 15.9682 59.5065 15.9682 59.528C15.9682 59.5496 15.9523 59.5711 15.9312 59.5711C15.9206 59.5711 15.8466 59.5765 15.7091 59.5765Z" fill="#4E6DC4"/>
<path d="M13.7527 56.0049C13.7421 56.0049 13.7316 55.9996 13.7263 55.9942C13.7104 55.978 13.7104 55.9511 13.7263 55.9349C13.7316 55.9295 14.4401 55.1376 13.7157 52.7619C13.7104 52.7403 13.721 52.7188 13.7421 52.7134C13.7633 52.708 13.7844 52.7188 13.7897 52.7403C14.53 55.1699 13.8109 55.9619 13.7792 55.9942C13.7739 55.9996 13.7633 56.0049 13.7527 56.0049Z" fill="#4E6DC4"/>
<path d="M19.8122 65.5725C19.8122 65.5725 15.3125 59.9376 19.9444 53.3545C19.9444 53.3545 17.3059 56.9477 17.3059 53.877C17.3059 50.8064 20.9014 43.0974 29.6787 42.7257C38.456 42.354 34.1255 49.1633 30.3026 52.1532L33.7765 51.4044C33.7871 51.4044 33.0415 61.6237 19.8122 65.5725Z" fill="url(#paint30_linear_36_794)"/>
<path d="M19.9444 68.3846C19.9232 68.3846 19.9074 68.3684 19.9021 68.3469C19.8968 68.2984 19.4949 63.3853 20.8908 57.9821C21.7104 54.8036 22.9741 52.0831 24.6608 49.8852C26.7653 47.1378 29.5253 45.2199 32.8671 44.1748C32.8882 44.1694 32.9093 44.1802 32.9146 44.2018C32.9199 44.2233 32.9093 44.2449 32.8882 44.2503C25.3535 46.6044 22.2497 53.0205 20.9701 57.9928C19.5795 63.3853 19.9814 68.2822 19.9867 68.3307C19.9867 68.3631 19.9708 68.3846 19.9444 68.3846C19.9497 68.3846 19.9497 68.3846 19.9444 68.3846Z" fill="#4E6DC4"/>
<path d="M20.1083 62.6203C20.0872 62.6203 20.0713 62.6041 20.0713 62.588C20.066 62.5664 20.0819 62.5449 20.103 62.5395C20.1506 62.5287 25.0944 61.5806 29.8215 55.7948C29.8373 55.7787 29.8585 55.7733 29.8796 55.7894C29.8955 55.8056 29.9008 55.8271 29.8849 55.8487C25.1367 61.656 20.1665 62.6095 20.1189 62.6203C20.1083 62.6203 20.1083 62.6203 20.1083 62.6203Z" fill="#5AE595"/>
<path d="M20.7587 58.7361C20.7428 58.7361 20.727 58.7254 20.7217 58.7092C20.7005 58.6392 18.4639 51.7544 20.727 47.9888C20.7375 47.9673 20.764 47.9619 20.7798 47.978C20.801 47.9888 20.8063 48.0157 20.7904 48.0319C18.5485 51.7652 20.7693 58.6122 20.7957 58.6823C20.801 58.7038 20.7904 58.7254 20.7693 58.7361C20.7693 58.7361 20.764 58.7361 20.7587 58.7361Z" fill="#4E6DC4"/>
<path d="M22.2286 55.4769C21.9007 55.4769 21.7368 55.4392 21.7315 55.4392C21.7104 55.4338 21.6945 55.4123 21.6998 55.3907C21.7051 55.3692 21.7263 55.353 21.7474 55.3584C21.7738 55.3638 24.4176 55.9402 29.6258 52.3147C29.6417 52.3039 29.6681 52.3093 29.684 52.3255C29.6945 52.3416 29.6892 52.3686 29.6734 52.3847C25.7183 55.1375 23.2279 55.4769 22.2286 55.4769Z" fill="#4E6DC4"/>
<path d="M24.6239 50.0467C24.5974 50.0467 24.5816 50.0252 24.5816 50.0036C24.5868 49.9605 24.9887 45.6562 26.9398 43.6684C26.9556 43.6522 26.9821 43.6522 26.9979 43.6684C27.0138 43.6845 27.0138 43.7115 26.9979 43.7276C25.068 45.6939 24.6662 49.9713 24.6609 50.0144C24.6609 50.0306 24.645 50.0467 24.6239 50.0467Z" fill="#4E6DC4"/>
<path d="M31.0958 47.4987C28.9808 47.4987 28.0766 46.6313 28.066 46.6206C28.0502 46.6044 28.0502 46.5775 28.066 46.5613C28.0819 46.5452 28.1083 46.5452 28.1242 46.5613C28.14 46.5775 29.7633 48.1236 33.7765 47.0192C33.7977 47.0138 33.8188 47.0246 33.8241 47.0462C33.8294 47.0677 33.8188 47.0893 33.7977 47.0946C32.7349 47.3909 31.8413 47.4987 31.0958 47.4987Z" fill="#4E6DC4"/>
<path d="M19.6377 68.3145C19.6377 68.3145 26.6172 66.7684 29.5253 61.7476C29.5253 61.7476 29.8003 61.0634 27.9021 62.1947C26.0039 63.3206 29.6787 61.5698 30.7098 57.5833C31.7408 53.5915 30.678 49.8043 30.678 49.8043C30.678 49.8043 23.9576 51.5336 24.0528 55.4716C24.0528 55.4716 23.5875 56.5598 23.3865 54.308C23.1856 52.0615 21.4249 57.1039 21.8426 60.8048C21.8426 60.8048 21.1975 61.9038 20.9966 59.9429C20.7957 57.982 17.7025 61.4351 19.6377 68.3145Z" fill="url(#paint31_linear_36_794)"/>
<path d="M19.1195 70.604C19.1142 70.604 19.1089 70.604 19.1037 70.5986C19.0825 70.5878 19.0719 70.5663 19.0825 70.5447C19.1407 70.3939 25.0785 55.6763 29.8267 52.3147C29.8426 52.3039 29.869 52.3039 29.8849 52.3255C29.8955 52.3416 29.8955 52.3686 29.8743 52.3847C25.1473 55.7301 19.2147 70.4262 19.1565 70.5771C19.1512 70.5932 19.1354 70.604 19.1195 70.604Z" fill="#4E6DC4"/>
<path d="M20.3304 67.7596C20.3092 67.7596 20.2934 67.7434 20.2934 67.7273C20.2881 67.7057 20.3039 67.6842 20.3251 67.6788C20.3568 67.6734 23.5135 67.0431 27.717 64.0909C27.7329 64.0802 27.7593 64.0802 27.7752 64.1017C27.7858 64.1179 27.7858 64.1448 27.7646 64.161C23.5452 67.1239 20.3727 67.7542 20.3409 67.7596C20.3357 67.7596 20.3357 67.7596 20.3304 67.7596Z" fill="#5AE595"/>
<path d="M22.2339 63.6816C22.2127 63.6816 22.1969 63.6654 22.1969 63.6492C22.1916 63.6169 21.5835 60.1584 22.456 57.6372C22.4612 57.6156 22.4877 57.6049 22.5088 57.6103C22.53 57.6156 22.5406 57.6426 22.5353 57.6641C21.6734 60.1638 22.2762 63.6008 22.2815 63.6331C22.2868 63.6546 22.2709 63.6762 22.2497 63.6816C22.2392 63.6816 22.2392 63.6816 22.2339 63.6816Z" fill="#4E6DC4"/>
<path d="M25.7236 60.0345C24.6926 60.0345 24.3383 59.6682 24.3119 59.6412C24.296 59.6251 24.296 59.5981 24.3119 59.582C24.3277 59.5658 24.3542 59.5658 24.37 59.582C24.3806 59.5981 25.4487 60.6755 29.372 59.0163C29.3932 59.0055 29.4143 59.0163 29.4249 59.0379C29.4355 59.0594 29.4249 59.081 29.4037 59.0917C27.6853 59.819 26.5115 60.0345 25.7236 60.0345Z" fill="#4E6DC4"/>
<path d="M26.6014 56.0049C26.5855 56.0049 26.5697 55.9941 26.5644 55.9779C26.5591 55.9564 25.8611 53.9578 27.4633 52.3255C27.4791 52.3093 27.5055 52.3093 27.5214 52.3255C27.5373 52.3416 27.5373 52.3686 27.5214 52.3847C25.9563 53.9793 26.6331 55.9348 26.6384 55.951C26.6437 55.9726 26.6331 55.9941 26.6172 56.0049C26.612 56.0049 26.6067 56.0049 26.6014 56.0049Z" fill="#4E6DC4"/>
<path d="M19.1195 69.0526C19.1195 69.0526 19.992 60.3954 24.3383 59.6628C24.3912 59.652 24.4441 59.6466 24.497 59.6412C24.497 59.6412 25.0046 60.5894 24.497 61.7368C23.9893 62.8843 28.0026 55.6171 34.4322 58.7039C34.4322 58.7039 35.1354 59.1456 33.2636 60.6432C31.3919 62.1409 36.0713 58.2621 39.9682 62.4479C43.8651 66.6337 43.8651 66.6337 43.8651 66.6337C43.8651 66.6337 40.4758 70.8734 36.8909 68.4815C33.3059 66.0843 33.1262 66.429 33.5386 66.9624C33.9563 67.4957 36.3463 69.1334 36.3463 69.1334C36.3463 69.1334 31.4342 71.2721 29.0601 67.4256C29.0601 67.4256 28.9808 68.0937 30.3079 69.1334C31.6298 70.1623 24.4494 65.1846 19.1195 69.0526Z" fill="url(#paint32_linear_36_794)"/>
<path d="M18.8869 69.7583C18.8763 69.7583 18.871 69.7583 18.8657 69.7529C18.8499 69.7421 18.8446 69.7152 18.8552 69.6936C18.8763 69.6613 21.0918 66.5314 24.8935 64.4358C27.1248 63.2075 29.4619 62.5665 31.8307 62.5395C34.7917 62.5072 37.8215 63.4284 40.8354 65.2923C40.8565 65.3031 40.8618 65.3301 40.8512 65.3462C40.8406 65.3678 40.8142 65.3732 40.7983 65.3624C34.0092 61.1712 28.4256 62.588 24.9358 64.5112C21.15 66.596 18.9451 69.7152 18.9239 69.7475C18.9133 69.7529 18.8975 69.7583 18.8869 69.7583Z" fill="#4E6DC4"/>
<path d="M21.409 67.0215C21.4037 67.0215 21.4037 67.0215 21.409 67.0215C21.3826 67.0215 21.3667 67 21.3667 66.9784C21.372 66.9353 21.7474 62.7388 23.5452 60.9071C23.561 60.891 23.5875 60.891 23.6033 60.9071C23.6192 60.9233 23.6192 60.9502 23.6033 60.9664C21.8215 62.7819 21.4513 66.9461 21.446 66.9892C21.446 67.0054 21.4249 67.0215 21.409 67.0215Z" fill="#4E6DC4"/>
<path d="M31.6562 67.5333H31.6509C27.3522 66.8923 25.0786 64.4303 25.0521 64.4034C25.0363 64.3872 25.0363 64.3603 25.0521 64.3442C25.068 64.328 25.0944 64.328 25.1103 64.3442C25.1314 64.3711 27.3892 66.8115 31.6615 67.4471C31.6827 67.4525 31.6985 67.4687 31.6932 67.4956C31.6932 67.5172 31.6774 67.5333 31.6562 67.5333Z" fill="#4E6DC4"/>
<path d="M28.9384 62.9597C28.912 62.9597 28.8961 62.9381 28.8961 62.9166C28.8961 62.8842 28.9596 62.1408 29.5677 61.2896C30.1228 60.5085 31.2649 59.4957 33.5333 59.1079C33.5544 59.1025 33.5756 59.1186 33.5809 59.1402C33.5862 59.1617 33.5703 59.1833 33.5492 59.1887C29.261 59.9213 28.9807 62.895 28.9807 62.9219C28.9755 62.9435 28.9596 62.9597 28.9384 62.9597Z" fill="#4E6DC4"/>
<path d="M36.7217 67.0215C36.7164 67.0215 36.7111 67.0215 36.7058 67.0161C34.7071 66.0895 34.0303 64.9636 33.8082 64.1825C33.5703 63.3313 33.8082 62.7118 33.8188 62.6848C33.8294 62.6633 33.8505 62.6525 33.8717 62.6633C33.8928 62.6741 33.9034 62.6956 33.8928 62.7172C33.8928 62.7225 33.6549 63.3421 33.8876 64.1663C34.0991 64.9259 34.7706 66.0302 36.7375 66.9407C36.7587 66.9514 36.764 66.973 36.7587 66.9945C36.7534 67.0107 36.7375 67.0215 36.7217 67.0215Z" fill="#4E6DC4"/>
<path d="M40.5921 63.5469C40.5868 63.5469 40.5816 63.5469 40.5763 63.5415C38.07 62.3509 37.1341 63.52 37.1235 63.5307C37.1077 63.5469 37.0865 63.5523 37.0654 63.5361C37.0495 63.52 37.0442 63.4984 37.0601 63.4769C37.0706 63.4661 38.0383 62.2432 40.608 63.4661C40.6291 63.4769 40.6344 63.4984 40.6291 63.5199C40.6239 63.5361 40.608 63.5469 40.5921 63.5469Z" fill="#4E6DC4"/>
<path d="M19.1195 69.0526C19.1195 69.0526 23.7725 64.3227 26.6331 69.0526C26.6331 69.0526 27.8809 70.561 25.2848 69.963C22.6886 69.3651 25.5544 70.3348 26.7018 70.7388C27.8545 71.1374 29.5306 75.4418 25.676 77.8283C25.676 77.8283 25.0098 78.4208 24.37 76.7724C23.7302 75.1239 23.725 77.7474 24.37 78.868C25.0151 79.9885 17.2319 85.117 18.4427 77.5589C18.4427 77.5589 17.7448 79.2828 17.7448 80.0262C17.7448 80.775 14.144 76.5838 16.9358 73.7394C16.9358 73.7394 16.9728 72.7482 15.6879 74.4613C14.4084 76.1744 13.5201 68.2661 19.1195 69.0526Z" fill="url(#paint33_linear_36_794)"/>
<path d="M20.6159 79.7945C20.6 79.7945 20.5842 79.7837 20.5789 79.7676C17.9721 71.9939 18.3264 69.8337 18.7706 69.2357C18.9398 69.0041 19.1195 69.0148 19.1248 69.0148C19.146 69.0148 19.1618 69.0364 19.1618 69.0579C19.1618 69.0795 19.1407 69.0957 19.1195 69.0957C19.1142 69.0957 18.9715 69.0903 18.8287 69.2896C18.4004 69.8822 18.0673 72.0263 20.6529 79.7406C20.6582 79.7622 20.6476 79.7837 20.6265 79.7945C20.6212 79.7945 20.6159 79.7945 20.6159 79.7945Z" fill="#4E6DC4"/>
<path d="M23.4024 78.3615C23.3866 78.3615 23.3707 78.3507 23.3654 78.3345C22.1176 75.1561 19.3575 75.5548 19.331 75.5548C19.3099 75.5602 19.2887 75.544 19.2835 75.5225C19.2782 75.5009 19.294 75.4794 19.3152 75.474C19.3416 75.4686 22.1652 75.0645 23.4394 78.3022C23.45 78.3238 23.4394 78.3453 23.4183 78.3561C23.413 78.3561 23.4077 78.3615 23.4024 78.3615Z" fill="#4E6DC4"/>
<path d="M16.9675 78.3615C16.9464 78.3615 16.9305 78.3507 16.9305 78.3291C16.37 75.4955 18.6807 72.872 18.7018 72.8504C18.7177 72.8343 18.7441 72.8343 18.76 72.845C18.7759 72.8612 18.7759 72.8881 18.7653 72.9043C18.7441 72.9312 16.4599 75.5224 17.0151 78.313C17.0204 78.3345 17.0045 78.3561 16.9834 78.3615C16.9728 78.3615 16.9675 78.3615 16.9675 78.3615Z" fill="#4E6DC4"/>
<path d="M25.7289 74.5043C25.7131 74.5043 25.7025 74.4936 25.6919 74.4828C24.6608 72.4034 22.7679 71.6168 21.3561 71.3206C19.8281 71.0027 18.5273 71.1751 18.5115 71.1805C18.4903 71.1859 18.4692 71.1697 18.4639 71.1482C18.4586 71.1266 18.4745 71.1051 18.4956 71.0997C18.5062 71.0997 19.8228 70.9219 21.3667 71.2451C22.7944 71.5414 24.7137 72.3387 25.7554 74.4505C25.7659 74.472 25.7554 74.4936 25.7395 74.5043C25.7448 74.5043 25.7395 74.5043 25.7289 74.5043Z" fill="#4E6DC4"/>
<path d="M15.2861 73.0552C15.2808 73.0552 15.2755 73.0552 15.2702 73.0552C15.2491 73.0498 15.2385 73.0229 15.2491 73.0013C16.2749 70.2593 18.5326 69.8391 18.5591 69.8337C18.5802 69.8283 18.6014 69.8445 18.6067 69.866C18.612 69.8876 18.5961 69.9091 18.5749 69.9145C18.5538 69.9199 16.3383 70.3347 15.3284 73.0283C15.3178 73.0444 15.3073 73.0552 15.2861 73.0552Z" fill="#4E6DC4"/>
<path d="M25.7289 71.4821C25.7184 71.4821 25.7078 71.4767 25.7025 71.4713C22.2868 67.9912 18.7759 69.3973 18.7441 69.4134C18.723 69.4242 18.7018 69.4134 18.6913 69.3919C18.6807 69.3703 18.6913 69.3488 18.7124 69.338C18.723 69.3326 19.6166 68.9663 20.9279 69.0417C22.1334 69.1118 23.9523 69.575 25.7554 71.4121C25.7712 71.4282 25.7712 71.4552 25.7554 71.4713C25.7501 71.4767 25.7395 71.4821 25.7289 71.4821Z" fill="#4E6DC4"/>
<path d="M80.1004 70.4047H77.8162C77.7739 70.3616 77.7263 70.3185 77.684 70.2754C77.6047 70.3185 77.5254 70.3616 77.4408 70.4047H77.0548V70.5771C75.2888 71.2936 72.957 71.2451 71.5029 70.394C69.8691 69.435 69.9696 67.8189 71.6933 66.7576C71.6827 66.7522 71.6721 66.7522 71.6616 66.7469H71.6933V63.4553H68.0396V65.7125C67.3258 65.5617 66.6014 65.4378 65.8665 65.3408C65.8136 66.8115 63.9418 67.9913 61.6311 67.9913C59.3258 67.9913 57.4487 66.8115 57.3959 65.3408C56.8089 65.4216 56.2273 65.5132 55.651 65.6263V63.4553H51.5637V66.7469H51.5902C51.5796 66.7522 51.5743 66.7522 51.5637 66.7576C53.2927 67.8189 53.3879 69.435 51.7594 70.394C50.7389 70.9973 49.2742 71.1966 47.8836 71.0135V70.4047H45.8215C45.7369 70.3616 45.6576 70.3239 45.5783 70.2754C45.5307 70.3185 45.4884 70.3616 45.4461 70.4047H43.1619V73.7124H43.3998C45.7845 73.8094 47.6668 74.8814 47.6668 76.1959C47.6668 76.6592 47.4342 77.0955 47.0218 77.4673V75.3878H43.1566V78.6901C43.6219 79.8861 44.4256 81.0443 45.573 82.1163C47.376 81.0982 50.1202 81.0443 51.7541 82.0032C51.9286 82.1056 52.0872 82.2187 52.2247 82.3372H51.5637V85.6341H51.5743C51.569 85.6341 51.569 85.6395 51.5637 85.6395C53.3879 86.3129 55.3602 86.787 57.3959 87.0617C57.4487 85.591 59.3205 84.4113 61.6311 84.4113C63.9365 84.4113 65.8136 85.591 65.8665 87.0617C67.9021 86.787 69.8744 86.3129 71.6933 85.6395C71.688 85.6395 71.688 85.6341 71.6827 85.6341H71.6933V82.3372H71.0323C71.1698 82.2187 71.3232 82.1056 71.5029 82.0032C73.1368 81.0443 75.881 81.0982 77.684 82.1163C78.8261 81.0443 79.6351 79.8861 80.0951 78.6901C79.9154 78.6901 79.7409 78.6794 79.5717 78.6686H80.0951V75.3878H75.9762V77.2033C75.7277 76.8962 75.5849 76.5568 75.5849 76.2013C75.5849 74.8437 77.5942 73.7394 80.0899 73.7124C80.0899 73.707 80.0846 73.7016 80.0846 73.6963H80.0899V70.4047H80.1004ZM67.2782 79.5197C64.1639 81.3514 59.109 81.3514 55.9947 79.5197C52.875 77.6881 52.875 74.7144 55.9947 72.8828C59.109 71.0512 64.1639 71.0512 67.2835 72.8828C70.3926 74.709 70.3926 77.6827 67.2782 79.5197Z" fill="url(#paint34_linear_36_794)"/>
<path d="M45.5839 66.9731C44.4365 68.0451 43.6328 69.2034 43.1675 70.4047C45.6685 70.437 47.6777 71.536 47.6725 72.8936C47.6725 74.2511 45.6632 75.3555 43.1675 75.3824C43.6328 76.5784 44.4365 77.742 45.5839 78.814C47.3869 77.7958 50.1311 77.742 51.765 78.7009C53.3988 79.6598 53.3037 81.2759 51.5746 82.3372C53.3988 83.0106 55.3711 83.4847 57.4068 83.7594C57.4596 82.2887 59.3314 81.1089 61.6421 81.1089C63.9474 81.1089 65.8245 82.2887 65.8774 83.7594C67.9131 83.4847 69.8853 83.0106 71.7042 82.3372C69.9752 81.2759 69.88 79.6598 71.5139 78.7009C73.1477 77.742 75.8919 77.7958 77.695 78.814C78.8371 77.742 79.646 76.5837 80.1061 75.3878C77.6104 75.3555 75.6011 74.2511 75.6011 72.8936C75.6011 71.536 77.6104 70.4316 80.1061 70.4047C79.6408 69.2088 78.8371 68.0451 77.6897 66.9731C75.8866 67.9913 73.1424 68.0451 71.5086 67.0862C69.8747 66.1273 69.9752 64.5112 71.6989 63.4499C69.8747 62.7765 67.9078 62.3025 65.8721 62.0277C65.8192 63.4984 63.9474 64.6782 61.6368 64.6782C59.3314 64.6782 57.4544 63.4984 57.4015 62.0277C55.3658 62.3025 53.3935 62.7765 51.5694 63.4445C53.2984 64.5058 53.3935 66.1219 51.765 67.0808C50.1311 68.0505 47.3869 67.9913 45.5839 66.9731ZM55.9897 69.5751C59.1041 67.7435 64.1589 67.7435 67.2786 69.5751C70.3929 71.4067 70.3929 74.3804 67.2786 76.2174C64.1642 78.049 59.1093 78.049 55.995 76.2174C52.8754 74.3804 52.8754 71.4067 55.9897 69.5751Z" fill="url(#paint35_linear_36_794)"/>
<path d="M68.4256 89.0603H66.9662C66.9398 89.0334 66.9081 89.0065 66.8816 88.9795C66.8288 89.0065 66.7759 89.0334 66.723 89.0603H66.4798V89.1681C65.3536 89.626 63.8625 89.5937 62.9372 89.0496C61.8955 88.4354 61.959 87.4065 63.0588 86.7277C63.0535 86.7277 63.0482 86.7223 63.0376 86.7223H63.0588V84.6213H60.7217V86.0597C60.267 85.9627 59.8017 85.8819 59.3364 85.8227C59.2994 86.76 58.1044 87.5142 56.6344 87.5142C55.1592 87.5142 53.9642 86.76 53.9325 85.8227C53.5571 85.8711 53.187 85.9358 52.8169 86.0058V84.6213H50.2048V86.7223H50.2207C50.2154 86.7223 50.2101 86.7277 50.2048 86.7277C51.3099 87.4065 51.3681 88.4354 50.3264 89.0496C49.6761 89.432 48.7402 89.5613 47.8519 89.4428V89.0549H46.5406C46.4877 89.028 46.4348 89.0011 46.382 88.9741C46.3555 89.0011 46.3238 89.028 46.2974 89.0549H44.838V91.1667H44.9913C46.5141 91.226 47.7197 91.9155 47.7144 92.7559C47.7144 93.0522 47.5664 93.3323 47.302 93.5694V92.2387H44.8327V94.3451C45.1288 95.1101 45.6417 95.8481 46.3767 96.5323C47.5293 95.8804 49.2795 95.8481 50.3212 96.4622C50.4322 96.5269 50.5327 96.6023 50.6225 96.6777H50.1995V98.7841H50.2048L50.1995 98.7895C51.3628 99.2205 52.6212 99.5221 53.922 99.6945C53.9537 98.7572 55.1539 98.003 56.6239 98.003C58.0991 98.003 59.2941 98.7572 59.3258 99.6945C60.6265 99.5168 61.8849 99.2151 63.0482 98.7895L63.0429 98.7841H63.0482V96.6777H62.6252C62.7098 96.6023 62.8103 96.5323 62.9266 96.4622C63.9682 95.8481 65.7184 95.8858 66.8764 96.5323C67.606 95.8481 68.1189 95.1047 68.415 94.3451C68.304 94.3451 68.1877 94.3397 68.0819 94.3289H68.415V92.2334H65.7871V93.3916C65.6285 93.1976 65.5386 92.9768 65.5386 92.7505C65.5386 91.8832 66.8235 91.1775 68.415 91.1613C68.415 91.1559 68.4097 91.1559 68.4097 91.1505H68.415V89.0603H68.4256ZM60.2352 94.8784C58.2471 96.0474 55.0165 96.0474 53.0284 94.8784C51.035 93.7094 51.035 91.8078 53.0284 90.6388C55.0165 89.4698 58.2471 89.4698 60.2352 90.6388C62.2233 91.8078 62.2233 93.7094 60.2352 94.8784Z" fill="#EAB91F"/>
<path d="M46.3821 86.8678C45.6524 87.5519 45.1395 88.2954 44.8382 89.0603C46.435 89.0819 47.7199 89.7822 47.7146 90.6495C47.7146 91.5169 46.435 92.2226 44.8382 92.2387C45.1343 93.0037 45.6472 93.7417 46.3821 94.4313C47.5348 93.7795 49.285 93.7471 50.3266 94.3613C51.3682 94.9754 51.3101 96.0043 50.205 96.6831C51.3682 97.1141 52.6267 97.4158 53.9274 97.5882C53.9591 96.6508 55.1594 95.8966 56.6293 95.8966C58.1045 95.8966 59.2995 96.6508 59.3312 97.5882C60.632 97.4104 61.8904 97.1087 63.0536 96.6831C61.9485 96.0043 61.8904 94.9754 62.932 94.3613C63.9737 93.7471 65.7238 93.7848 66.8818 94.4313C67.6115 93.7471 68.1244 93.0037 68.4205 92.2441C66.8236 92.2226 65.5441 91.5223 65.5441 90.6549C65.5441 89.7876 66.8289 89.0819 68.4205 89.0657C68.1244 88.3007 67.6115 87.5627 66.8765 86.8732C65.7238 87.525 63.9737 87.5573 62.932 86.9486C61.8904 86.3344 61.9538 85.3055 63.0536 84.6267C61.8904 84.1957 60.632 83.8941 59.3312 83.7217C59.2942 84.659 58.0992 85.4132 56.6293 85.4132C55.1541 85.4132 53.9591 84.659 53.9274 83.7217C52.6267 83.8941 51.3682 84.2011 50.205 84.6267C51.3101 85.3055 51.3682 86.3344 50.3266 86.9486C49.2902 87.5519 47.5348 87.5196 46.3821 86.8678ZM53.0285 88.527C55.0166 87.358 58.2473 87.358 60.2354 88.527C62.2235 89.696 62.2235 91.5977 60.2354 92.7667C58.2473 93.9357 55.0166 93.9357 53.0285 92.7667C51.0404 91.5977 51.0351 89.7014 53.0285 88.527Z" fill="#F5D451"/>
<path d="M50.6701 3.07622L49.9669 2.65063C49.9669 2.65063 49.9352 3.11932 50.0832 3.20551C50.2313 3.2917 50.6701 3.07622 50.6701 3.07622Z" fill="#20B5D8"/>
<path d="M38.5512 10.9308V23.8114C38.5512 24.3986 38.953 24.6356 39.4553 24.3447L50.0092 18.1334C50.5062 17.8425 50.9134 17.126 50.9134 16.5388V3.65816C50.9134 3.07096 50.5115 2.83393 50.0092 3.12483L39.4553 9.3362C38.9583 9.6271 38.5512 10.3436 38.5512 10.9308Z" fill="#EAEAEA"/>
<path d="M38.5512 10.9308V13.2688L50.9134 5.99618V3.65816C50.9134 3.07096 50.5115 2.83393 50.0092 3.12483L39.4553 9.3362C38.9583 9.6271 38.5512 10.3436 38.5512 10.9308Z" fill="url(#paint36_linear_36_794)"/>
<path d="M45.2874 12.7193L47.0958 11.6581V9.53552L45.2874 10.5968V12.7193Z" fill="url(#paint37_linear_36_794)"/>
<path d="M42.5538 14.33L44.3568 13.2688V11.1462L42.5538 12.2075V14.33Z" fill="url(#paint38_linear_36_794)"/>
<path d="M39.8149 15.9408L41.6232 14.8795V12.757L39.8149 13.8182V15.9408Z" fill="url(#paint39_linear_36_794)"/>
<path d="M48.0264 14.4162L49.8294 13.355V11.2324L48.0264 12.2937V14.4162Z" fill="url(#paint40_linear_36_794)"/>
<path d="M45.2927 16.0269L47.0958 14.9657V12.8431L45.2874 13.9044L45.2927 16.0269Z" fill="url(#paint41_linear_36_794)"/>
<path d="M42.5538 17.6377L44.3568 16.5764V14.4539L42.5538 15.5151V17.6377Z" fill="url(#paint42_linear_36_794)"/>
<path d="M39.8149 19.2485L41.6232 18.1872V16.0647L39.8149 17.126V19.2485Z" fill="url(#paint43_linear_36_794)"/>
<path d="M48.0264 17.724L49.8294 16.6627V14.5402L48.0264 15.6014V17.724Z" fill="url(#paint44_linear_36_794)"/>
<path d="M45.2927 19.3347L47.0958 18.2734V16.1509L45.2874 17.2121L45.2927 19.3347Z" fill="url(#paint45_linear_36_794)"/>
<path d="M42.5538 20.9454L44.3568 19.8841V17.7616L42.5538 18.8229V20.9454Z" fill="url(#paint46_linear_36_794)"/>
<path d="M41.9986 16.9051C41.9986 17.8532 42.6543 18.2357 43.458 17.7616C44.2617 17.2875 44.9173 16.1347 44.9173 15.1866C44.9173 14.2384 44.267 13.8559 43.458 14.33C42.649 14.8041 41.9986 15.9569 41.9986 16.9051Z" stroke="url(#paint47_linear_36_794)" stroke-width="3.2016" stroke-miterlimit="10"/>
<path d="M40.7983 10.0527C40.7983 10.2143 40.9094 10.2789 41.0468 10.1981L48.4229 5.86147C48.5604 5.78066 48.6714 5.58673 48.6714 5.42511C48.6714 5.2635 48.5604 5.19885 48.4229 5.27966L41.0468 9.6163C40.9094 9.69711 40.7983 9.89643 40.7983 10.0527Z" fill="white"/>
<path d="M42.1255 10.3058C42.1255 10.4674 42.2365 10.5321 42.374 10.4513L47.0905 7.6769C47.2279 7.5961 47.339 7.40216 47.339 7.24054C47.339 7.07893 47.2279 7.01428 47.0905 7.09509L42.374 9.86946C42.2365 9.95027 42.1255 10.1496 42.1255 10.3058Z" fill="white"/>
<path d="M48.8512 4.05138C48.8512 4.43925 49.1209 4.59548 49.4487 4.40154C49.7765 4.20761 50.0462 3.73354 50.0462 3.34566V2.40292C50.0462 2.01504 49.7765 1.85882 49.4487 2.05275C49.1209 2.24669 48.8512 2.72076 48.8512 3.10863V4.05138Z" fill="white" stroke="url(#paint48_linear_36_794)" stroke-width="1.8336" stroke-miterlimit="10"/>
<path d="M39.4236 9.60021C39.4236 9.98808 39.6933 10.1443 40.0211 9.95037C40.3489 9.75643 40.6186 9.28237 40.6186 8.89449V7.95174C40.6186 7.56387 40.3489 7.40764 40.0211 7.60158C39.6933 7.79552 39.4236 8.26958 39.4236 8.65746V9.60021Z" fill="white" stroke="url(#paint49_linear_36_794)" stroke-width="1.8336" stroke-miterlimit="10"/>
<path d="M39.4976 47.2778L51.4897 40.2206V19.5448L39.4976 26.5966V47.2778Z" fill="#F2F2F2"/>
<path d="M41.5439 30.7393L49.4434 26.0956V25.1959L41.5439 29.8396V30.7393Z" fill="url(#paint50_linear_36_794)"/>
<path d="M45.2821 30.1467L49.4434 27.7009V26.8013L45.2821 29.2524V30.1467Z" fill="url(#paint51_linear_36_794)"/>
<path d="M42.9292 28.0133L48.0581 24.9965V23.682L42.9292 26.6988V28.0133Z" fill="url(#paint52_linear_36_794)"/>
<path d="M41.5439 42.4778L49.4434 37.8341V36.9344L41.5439 41.5835V42.4778Z" fill="url(#paint53_linear_36_794)"/>
<path d="M45.2821 41.8852L49.4434 39.4394V38.5398L45.2821 40.9909V41.8852Z" fill="url(#paint54_linear_36_794)"/>
<path d="M42.4533 33.7076L43.3311 33.1904V32.2961L42.4533 32.8079V33.7076Z" fill="url(#paint55_linear_36_794)"/>
<path d="M42.4533 35.3129L43.3311 34.7958V33.9015L42.4533 34.4133V35.3129Z" fill="url(#paint56_linear_36_794)"/>
<path d="M42.4533 36.9183L43.3311 36.4011V35.5068L42.4533 36.0186V36.9183Z" fill="url(#paint57_linear_36_794)"/>
<path d="M42.4533 38.5236L43.3311 38.0065V37.1068L42.4533 37.624V38.5236Z" fill="url(#paint58_linear_36_794)"/>
<path d="M42.4533 40.129L43.3311 39.6118V38.7122L42.4533 39.2293V40.129Z" fill="url(#paint59_linear_36_794)"/>
<path d="M44.2141 32.6733L49.0627 29.8181V28.9238L44.2141 31.7736V32.6733Z" fill="url(#paint60_linear_36_794)"/>
<path d="M44.2141 34.2786L49.0627 31.4234V30.5292L44.2141 33.379V34.2786Z" fill="url(#paint61_linear_36_794)"/>
<path d="M44.2141 35.884L49.0627 33.0288V32.1345L44.2141 34.9843V35.884Z" fill="url(#paint62_linear_36_794)"/>
<path d="M44.2141 37.4839L49.0627 34.6341V33.7399L44.2141 36.5897V37.4839Z" fill="url(#paint63_linear_36_794)"/>
<path d="M44.2141 39.0893L49.0627 36.2395V35.3452L44.2141 38.195V39.0893Z" fill="url(#paint64_linear_36_794)"/>
<path d="M42.5379 33.0881L42.8023 33.3736L43.2412 32.6733L43.2041 32.614L42.7917 33.2012L42.5538 33.0719L42.5379 33.0881Z" fill="white"/>
<path d="M42.5379 34.7042L42.8023 34.9843L43.2412 34.284L43.2041 34.2301L42.7917 34.8119L42.5538 34.6826L42.5379 34.7042Z" fill="white"/>
<path d="M42.5379 36.3149L42.8023 36.595L43.2412 35.8947L43.2041 35.8408L42.7917 36.4226L42.5538 36.2933L42.5379 36.3149Z" fill="white"/>
<path d="M42.5379 37.8718L42.8023 38.1519L43.2412 37.4516L43.2041 37.3977L42.7917 37.9795L42.5538 37.8502L42.5379 37.8718Z" fill="white"/>
<path d="M42.5379 39.4664L42.8023 39.7519L43.2412 39.0516L43.2041 38.9923L42.7917 39.5795L42.5538 39.4502L42.5379 39.4664Z" fill="white"/>
<path d="M61.2452 15.86C61.2452 17.8532 59.8704 18.6613 58.1731 17.6646C56.4758 16.668 55.1011 14.2438 55.1011 12.2506C55.1011 10.2573 56.4758 9.44927 58.1731 10.4459C59.8704 11.4425 61.2452 13.8667 61.2452 15.86Z" fill="#A9A7A8"/>
<path d="M60.875 15.6445C60.875 16.4418 60.6265 17.0182 60.2194 17.3361C59.7276 17.7185 58.9927 17.7185 58.1731 17.2337C57.3536 16.7543 56.6239 15.8923 56.1268 14.928C55.7144 14.1307 55.4712 13.258 55.4712 12.4607C55.4712 10.7045 56.682 9.9934 58.1731 10.8715C59.6642 11.755 60.875 13.8883 60.875 15.6445Z" fill="#DBD9DA"/>
<path d="M59.0773 13.2742C59.0773 13.8614 58.6701 14.0985 58.1731 13.8076C57.6708 13.5113 57.2689 12.8002 57.2689 12.213C57.2689 11.6258 57.6761 11.3887 58.1731 11.6796C58.6754 11.9759 59.0773 12.687 59.0773 13.2742Z" fill="#1F2034"/>
<path d="M60.2194 17.3361C59.7276 17.7186 58.9927 17.7186 58.1731 17.2337C57.3535 16.7543 56.6239 15.8923 56.1268 14.928C56.3595 13.9907 57.1843 13.6836 58.1731 14.26C59.1566 14.8418 59.9867 16.1294 60.2194 17.3361Z" fill="#1F2034"/>
<path d="M60.3405 36.2813C61.5392 35.5762 61.5392 33.2897 60.3404 31.1744C59.1417 29.059 57.1982 27.9158 55.9995 28.621C54.8008 29.3261 54.8008 31.6125 55.9995 33.7279C57.1983 35.8432 59.1418 36.9864 60.3405 36.2813Z" fill="#A9A7A8"/>
<path d="M60.875 34.0416C60.875 35.7978 59.6642 36.5089 58.1731 35.6308C56.682 34.7527 55.4712 32.6194 55.4712 30.8632C55.4712 29.107 56.682 28.3959 58.1731 29.274C59.6642 30.1521 60.875 32.2908 60.875 34.0416Z" fill="#DBD9DA"/>
<path d="M58.2947 31.2133C57.3694 30.6692 56.6186 30.7877 56.6186 31.4773C56.6186 31.7305 56.719 32.0214 56.8882 32.3177C56.8406 32.5385 56.719 32.8187 56.3753 32.6948C56.3753 32.6948 56.8724 33.1473 57.2266 32.7971C57.5174 33.1473 57.8876 33.4705 58.2894 33.7075C59.2147 34.2516 59.9603 34.1331 59.9603 33.4436C59.9656 32.754 59.22 31.752 58.2947 31.2133ZM57.6655 32.3177C57.5597 32.253 57.4751 32.1022 57.4751 31.9783C57.4751 31.8544 57.5597 31.8005 57.6655 31.8651C57.7712 31.9244 57.8558 32.0806 57.8558 32.2045C57.8611 32.3284 57.7712 32.3769 57.6655 32.3177ZM58.2947 32.684C58.189 32.6193 58.1044 32.4685 58.1044 32.3446C58.1044 32.2207 58.189 32.1668 58.2947 32.2315C58.4005 32.2907 58.4851 32.4469 58.4851 32.5708C58.4851 32.6948 58.4005 32.7486 58.2947 32.684ZM58.9239 33.0557C58.8182 32.9964 58.7336 32.8402 58.7336 32.7163C58.7336 32.5924 58.8235 32.5439 58.9239 32.6032C59.0297 32.6678 59.1143 32.8187 59.1143 32.9426C59.1143 33.0665 59.0297 33.115 58.9239 33.0557Z" fill="#1F1F32"/>
<path d="M60.3421 27.0854C61.5408 26.3803 61.5407 24.0938 60.342 21.9785C59.1432 19.8631 57.1997 18.7199 56.001 19.425C54.8023 20.1302 54.8024 22.4166 56.0011 24.532C57.1998 26.6473 59.1434 27.7905 60.3421 27.0854Z" fill="#A9A7A8"/>
<path d="M60.875 24.8458C60.875 26.602 59.6642 27.3131 58.1731 26.435C56.682 25.5569 55.4712 23.4236 55.4712 21.6674C55.4712 19.9112 56.682 19.2001 58.1731 20.0782C59.6642 20.9563 60.875 23.0896 60.875 24.8458Z" fill="#DBD9DA"/>
<path d="M59.4738 22.5939L56.8777 21.0639C56.7455 20.9885 56.6397 21.0478 56.6397 21.204V22.1683V22.6424V23.7683L57.0945 23.1865L59.4738 24.5871C59.606 24.6625 59.7118 24.6033 59.7118 24.4471V23.0087C59.7065 22.8578 59.6007 22.6747 59.4738 22.5939ZM59.3417 23.9407L57.0099 22.5669V22.3838L59.3417 23.7575V23.9407ZM59.3417 23.5366L57.0099 22.1629V21.9797L59.3417 23.3535V23.5366ZM59.3417 23.138L57.0099 21.7643V21.5811L59.3417 22.9548V23.138Z" fill="#1F1F32"/>
<path d="M60.3403 8.93707C61.539 8.23194 61.539 5.94549 60.3402 3.83014C59.1415 1.7148 57.198 0.571586 55.9993 1.27672C54.8006 1.98185 54.8006 4.26829 55.9994 6.38364C57.1981 8.49899 59.1416 9.6422 60.3403 8.93707Z" fill="#A9A7A8"/>
<path d="M60.875 6.69657C60.875 7.49386 60.6265 8.07567 60.2194 8.38813C60.0184 8.54435 59.7858 8.63594 59.5214 8.65748C59.1249 8.68981 58.6701 8.57668 58.1784 8.28577C57.3588 7.80632 56.6239 6.94438 56.1321 5.98008C55.7197 5.18278 55.4765 4.31546 55.4765 3.51816C55.4765 2.21447 56.1374 1.48721 57.0892 1.55724C57.0945 1.55724 57.0997 1.55186 57.1103 1.55724C57.4329 1.58418 57.7977 1.7027 58.1784 1.92896C59.6695 2.80706 60.875 4.94575 60.875 6.69657Z" fill="#DBD9DA"/>
<path d="M57.8982 6.87425V6.40557C57.6179 6.2278 57.343 5.9746 57.1844 5.77528L57.3113 5.27428C57.4857 5.48976 57.7343 5.74296 58.0092 5.89918C58.2471 6.03925 58.4111 6.02847 58.4111 5.82915C58.4111 5.6406 58.2789 5.44666 57.9669 5.1396C57.5175 4.69785 57.2108 4.27227 57.2108 3.79281C57.2108 3.35646 57.4699 3.17329 57.9193 3.32952V2.86084L58.3317 3.10326V3.53962C58.612 3.71739 58.8023 3.90056 58.9398 4.06217L58.8182 4.54701C58.7072 4.4285 58.5168 4.20224 58.2154 4.02446C57.9405 3.86285 57.8559 3.94904 57.8559 4.08911C57.8559 4.25072 58.0039 4.44466 58.3582 4.81098C58.8552 5.31198 59.0614 5.69986 59.0614 6.14699C59.0614 6.58874 58.797 6.80422 58.3159 6.62106V7.12206L57.8982 6.87425Z" fill="#1F2034"/>
<defs>
<linearGradient id="paint0_linear_36_794" x1="-14.2243" y1="73.5462" x2="138.344" y2="98.3846" gradientUnits="userSpaceOnUse">
<stop stop-color="#20B5D8"/>
<stop offset="1" stop-color="#8CEE98"/>
</linearGradient>
<linearGradient id="paint1_linear_36_794" x1="-13.5162" y1="69.3972" x2="138.231" y2="94.102" gradientUnits="userSpaceOnUse">
<stop stop-color="#E2E3E5"/>
<stop offset="1" stop-color="#EFEFEF"/>
</linearGradient>
<linearGradient id="paint2_linear_36_794" x1="132.133" y1="43.7708" x2="67.9683" y2="32.8613" gradientUnits="userSpaceOnUse">
<stop stop-color="#E2E3E5"/>
<stop offset="1" stop-color="#EFEFEF"/>
</linearGradient>
<linearGradient id="paint3_linear_36_794" x1="79.3214" y1="31.1596" x2="91.1025" y2="31.1596" gradientUnits="userSpaceOnUse">
<stop stop-color="#20B5D8"/>
<stop offset="1" stop-color="#8CEE98"/>
</linearGradient>
<linearGradient id="paint4_linear_36_794" x1="65.4488" y1="10.0485" x2="77.2299" y2="10.0485" gradientUnits="userSpaceOnUse">
<stop stop-color="#131B2F"/>
<stop offset="1" stop-color="#2581F3"/>
</linearGradient>
<linearGradient id="paint5_linear_36_794" x1="78.5366" y1="17.2765" x2="84.8633" y2="17.2765" gradientUnits="userSpaceOnUse">
<stop stop-color="#12233D"/>
<stop offset="1" stop-color="#2271D3"/>
</linearGradient>
<linearGradient id="paint6_linear_36_794" x1="83.8152" y1="21.0756" x2="83.9799" y2="26.484" gradientUnits="userSpaceOnUse">
<stop stop-color="#131B2F"/>
<stop offset="1" stop-color="#2581F3"/>
</linearGradient>
<linearGradient id="paint7_linear_36_794" x1="78.6243" y1="26.8068" x2="72.8117" y2="27.5802" gradientUnits="userSpaceOnUse">
<stop stop-color="#12233D"/>
<stop offset="1" stop-color="#2271D3"/>
</linearGradient>
<linearGradient id="paint8_linear_36_794" x1="73.3206" y1="24.0433" x2="71.6125" y2="18.545" gradientUnits="userSpaceOnUse">
<stop stop-color="#131B2F"/>
<stop offset="1" stop-color="#2581F3"/>
</linearGradient>
<linearGradient id="paint9_linear_36_794" x1="82.5874" y1="31.1594" x2="87.8366" y2="31.1594" gradientUnits="userSpaceOnUse">
<stop stop-color="#E2E3E5"/>
<stop offset="1" stop-color="#EFEFEF"/>
</linearGradient>
<linearGradient id="paint10_linear_36_794" x1="84.1192" y1="31.1595" x2="86.3047" y2="31.1595" gradientUnits="userSpaceOnUse">
<stop stop-color="#20B5D8"/>
<stop offset="1" stop-color="#8CEE98"/>
</linearGradient>
<linearGradient id="paint11_linear_36_794" x1="94.7017" y1="33.8165" x2="113.846" y2="33.8165" gradientUnits="userSpaceOnUse">
<stop stop-color="#20B5D8"/>
<stop offset="1" stop-color="#8CEE98"/>
</linearGradient>
<linearGradient id="paint12_linear_36_794" x1="94.7016" y1="36.4935" x2="113.846" y2="36.4935" gradientUnits="userSpaceOnUse">
<stop stop-color="#20B5D8"/>
<stop offset="1" stop-color="#8CEE98"/>
</linearGradient>
<linearGradient id="paint13_linear_36_794" x1="94.7015" y1="36.6896" x2="105.383" y2="36.6896" gradientUnits="userSpaceOnUse">
<stop stop-color="#20B5D8"/>
<stop offset="1" stop-color="#8CEE98"/>
</linearGradient>
<linearGradient id="paint14_linear_36_794" x1="94.7016" y1="42.7094" x2="113.846" y2="42.7094" gradientUnits="userSpaceOnUse">
<stop stop-color="#20B5D8"/>
<stop offset="1" stop-color="#8CEE98"/>
</linearGradient>
<linearGradient id="paint15_linear_36_794" x1="94.7016" y1="45.3863" x2="113.846" y2="45.3863" gradientUnits="userSpaceOnUse">
<stop stop-color="#20B5D8"/>
<stop offset="1" stop-color="#8CEE98"/>
</linearGradient>
<linearGradient id="paint16_linear_36_794" x1="94.7016" y1="46.9589" x2="110.121" y2="46.9589" gradientUnits="userSpaceOnUse">
<stop stop-color="#20B5D8"/>
<stop offset="1" stop-color="#8CEE98"/>
</linearGradient>
<linearGradient id="paint17_linear_36_794" x1="102.786" y1="56.9973" x2="103.98" y2="54.4455" gradientUnits="userSpaceOnUse">
<stop stop-color="#131B2F"/>
<stop offset="1" stop-color="#2581F3"/>
</linearGradient>
<linearGradient id="paint18_linear_36_794" x1="84.3481" y1="70.3964" x2="97.1916" y2="68.0047" gradientUnits="userSpaceOnUse">
<stop stop-color="#131B2F"/>
<stop offset="1" stop-color="#2581F3"/>
</linearGradient>
<linearGradient id="paint19_linear_36_794" x1="87.4011" y1="72.1753" x2="100.092" y2="69.8121" gradientUnits="userSpaceOnUse">
<stop stop-color="#131B2F"/>
<stop offset="1" stop-color="#2581F3"/>
</linearGradient>
<linearGradient id="paint20_linear_36_794" x1="89.3508" y1="57.3085" x2="91.0448" y2="56.993" gradientUnits="userSpaceOnUse">
<stop stop-color="#131B2F"/>
<stop offset="1" stop-color="#2581F3"/>
</linearGradient>
<linearGradient id="paint21_linear_36_794" x1="106.265" y1="45.1139" x2="108.088" y2="45.1139" gradientUnits="userSpaceOnUse">
<stop stop-color="#131B2F"/>
<stop offset="1" stop-color="#2581F3"/>
</linearGradient>
<linearGradient id="paint22_linear_36_794" x1="88.2887" y1="52.3311" x2="108.107" y2="52.3311" gradientUnits="userSpaceOnUse">
<stop stop-color="#131B2F"/>
<stop offset="1" stop-color="#2581F3"/>
</linearGradient>
<linearGradient id="paint23_linear_36_794" x1="90.8421" y1="43.2652" x2="96.9265" y2="43.2652" gradientUnits="userSpaceOnUse">
<stop stop-color="#131B2F"/>
<stop offset="1" stop-color="#2581F3"/>
</linearGradient>
<linearGradient id="paint24_linear_36_794" x1="19.1194" y1="77.8275" x2="29.6306" y2="77.8275" gradientUnits="userSpaceOnUse">
<stop stop-color="#E2E3E5"/>
<stop offset="1" stop-color="#EFEFEF"/>
</linearGradient>
<linearGradient id="paint25_linear_36_794" x1="26.21" y1="72.4941" x2="8.60414" y2="64.2583" gradientUnits="userSpaceOnUse">
<stop stop-color="#F3F7FF"/>
<stop offset="1" stop-color="#CDD9FF"/>
</linearGradient>
<linearGradient id="paint26_linear_36_794" x1="9.92128" y1="69.0516" x2="28.3205" y2="69.0516" gradientUnits="userSpaceOnUse">
<stop stop-color="#F5995B"/>
<stop offset="1" stop-color="#FB5F5C"/>
</linearGradient>
<linearGradient id="paint27_linear_36_794" x1="8.60366" y1="77.8275" x2="19.1217" y2="77.8275" gradientUnits="userSpaceOnUse">
<stop stop-color="#E2E3E5"/>
<stop offset="1" stop-color="#EFEFEF"/>
</linearGradient>
<linearGradient id="paint28_linear_36_794" x1="0.00113184" y1="62.4966" x2="19.1216" y2="62.4966" gradientUnits="userSpaceOnUse">
<stop stop-color="#20B5D8"/>
<stop offset="1" stop-color="#8CEE98"/>
</linearGradient>
<linearGradient id="paint29_linear_36_794" x1="8.60336" y1="59.5355" x2="20.107" y2="59.5355" gradientUnits="userSpaceOnUse">
<stop stop-color="#20B5D8"/>
<stop offset="1" stop-color="#8CEE98"/>
</linearGradient>
<linearGradient id="paint30_linear_36_794" x1="17.3085" y1="54.139" x2="34.8182" y2="54.139" gradientUnits="userSpaceOnUse">
<stop stop-color="#20B5D8"/>
<stop offset="1" stop-color="#8CEE98"/>
</linearGradient>
<linearGradient id="paint31_linear_36_794" x1="35.0716" y1="55.878" x2="14.7643" y2="62.18" gradientUnits="userSpaceOnUse">
<stop stop-color="#20B5D8"/>
<stop offset="1" stop-color="#8CEE98"/>
</linearGradient>
<linearGradient id="paint32_linear_36_794" x1="19.1217" y1="63.8214" x2="43.8639" y2="63.8214" gradientUnits="userSpaceOnUse">
<stop stop-color="#20B5D8"/>
<stop offset="1" stop-color="#8CEE98"/>
</linearGradient>
<linearGradient id="paint33_linear_36_794" x1="14.7312" y1="74.2796" x2="28.0814" y2="74.2796" gradientUnits="userSpaceOnUse">
<stop stop-color="#20B5D8"/>
<stop offset="1" stop-color="#8CEE98"/>
</linearGradient>
<linearGradient id="paint34_linear_36_794" x1="43.1654" y1="75.2572" x2="80.101" y2="75.2572" gradientUnits="userSpaceOnUse">
<stop stop-color="#FFB888"/>
<stop offset="0.2875" stop-color="#FF9B57"/>
<stop offset="1" stop-color="#FF6801"/>
</linearGradient>
<linearGradient id="paint35_linear_36_794" x1="80.5055" y1="72.4428" x2="17.3968" y2="73.906" gradientUnits="userSpaceOnUse">
<stop stop-color="#FFB888"/>
<stop offset="1" stop-color="white"/>
</linearGradient>
<linearGradient id="paint36_linear_36_794" x1="50.735" y1="4.19783" x2="36.0666" y2="13.0262" gradientUnits="userSpaceOnUse">
<stop stop-color="#20B5D8"/>
<stop offset="1" stop-color="#8CEE98"/>
</linearGradient>
<linearGradient id="paint37_linear_36_794" x1="47.0943" y1="11.1276" x2="45.2898" y2="11.1276" gradientUnits="userSpaceOnUse">
<stop stop-color="#20B5D8"/>
<stop offset="1" stop-color="#8CEE98"/>
</linearGradient>
<linearGradient id="paint38_linear_36_794" x1="44.3577" y1="12.7375" x2="42.5532" y2="12.7375" gradientUnits="userSpaceOnUse">
<stop stop-color="#20B5D8"/>
<stop offset="1" stop-color="#8CEE98"/>
</linearGradient>
<linearGradient id="paint39_linear_36_794" x1="41.621" y1="14.3471" x2="39.8166" y2="14.3471" gradientUnits="userSpaceOnUse">
<stop stop-color="#20B5D8"/>
<stop offset="1" stop-color="#8CEE98"/>
</linearGradient>
<linearGradient id="paint40_linear_36_794" x1="49.8312" y1="12.8262" x2="48.0268" y2="12.8262" gradientUnits="userSpaceOnUse">
<stop stop-color="#20B5D8"/>
<stop offset="1" stop-color="#8CEE98"/>
</linearGradient>
<linearGradient id="paint41_linear_36_794" x1="47.0943" y1="14.4358" x2="45.2898" y2="14.4358" gradientUnits="userSpaceOnUse">
<stop stop-color="#20B5D8"/>
<stop offset="1" stop-color="#8CEE98"/>
</linearGradient>
<linearGradient id="paint42_linear_36_794" x1="44.3577" y1="16.0454" x2="42.5532" y2="16.0454" gradientUnits="userSpaceOnUse">
<stop stop-color="#20B5D8"/>
<stop offset="1" stop-color="#8CEE98"/>
</linearGradient>
<linearGradient id="paint43_linear_36_794" x1="41.621" y1="17.6553" x2="39.8166" y2="17.6553" gradientUnits="userSpaceOnUse">
<stop stop-color="#20B5D8"/>
<stop offset="1" stop-color="#8CEE98"/>
</linearGradient>
<linearGradient id="paint44_linear_36_794" x1="49.8312" y1="16.1342" x2="48.0268" y2="16.1342" gradientUnits="userSpaceOnUse">
<stop stop-color="#20B5D8"/>
<stop offset="1" stop-color="#8CEE98"/>
</linearGradient>
<linearGradient id="paint45_linear_36_794" x1="47.0943" y1="17.7438" x2="45.2898" y2="17.7438" gradientUnits="userSpaceOnUse">
<stop stop-color="#20B5D8"/>
<stop offset="1" stop-color="#8CEE98"/>
</linearGradient>
<linearGradient id="paint46_linear_36_794" x1="44.3579" y1="19.3536" x2="42.5532" y2="19.3536" gradientUnits="userSpaceOnUse">
<stop stop-color="#20B5D8"/>
<stop offset="1" stop-color="#8CEE98"/>
</linearGradient>
<linearGradient id="paint47_linear_36_794" x1="44.9986" y1="16.0457" x2="41.9121" y2="16.0457" gradientUnits="userSpaceOnUse">
<stop stop-color="#F5995B"/>
<stop offset="1" stop-color="#FB5F5C"/>
</linearGradient>
<linearGradient id="paint48_linear_36_794" x1="42.8854" y1="25.8125" x2="41.3151" y2="31.0182" gradientUnits="userSpaceOnUse">
<stop stop-color="#00C6FF"/>
<stop offset="1" stop-color="#0072FF"/>
</linearGradient>
<linearGradient id="paint49_linear_36_794" x1="40.6656" y1="8.77702" x2="39.3733" y2="8.77702" gradientUnits="userSpaceOnUse">
<stop stop-color="#00C6FF"/>
<stop offset="1" stop-color="#0072FF"/>
</linearGradient>
<linearGradient id="paint50_linear_36_794" x1="49.4441" y1="27.9678" x2="41.5445" y2="27.9678" gradientUnits="userSpaceOnUse">
<stop stop-color="#20B5D8"/>
<stop offset="1" stop-color="#8CEE98"/>
</linearGradient>
<linearGradient id="paint51_linear_36_794" x1="49.4441" y1="28.4743" x2="45.2799" y2="28.4743" gradientUnits="userSpaceOnUse">
<stop stop-color="#20B5D8"/>
<stop offset="1" stop-color="#8CEE98"/>
</linearGradient>
<linearGradient id="paint52_linear_36_794" x1="48.0588" y1="25.8467" x2="42.9296" y2="25.8467" gradientUnits="userSpaceOnUse">
<stop stop-color="#20B5D8"/>
<stop offset="1" stop-color="#8CEE98"/>
</linearGradient>
<linearGradient id="paint53_linear_36_794" x1="49.4443" y1="39.7065" x2="41.5447" y2="39.7065" gradientUnits="userSpaceOnUse">
<stop stop-color="#20B5D8"/>
<stop offset="1" stop-color="#8CEE98"/>
</linearGradient>
<linearGradient id="paint54_linear_36_794" x1="49.4443" y1="40.213" x2="45.2801" y2="40.213" gradientUnits="userSpaceOnUse">
<stop stop-color="#20B5D8"/>
<stop offset="1" stop-color="#8CEE98"/>
</linearGradient>
<linearGradient id="paint55_linear_36_794" x1="43.3284" y1="33.0013" x2="42.4509" y2="33.0013" gradientUnits="userSpaceOnUse">
<stop stop-color="#F5995B"/>
<stop offset="1" stop-color="#FB5F5C"/>
</linearGradient>
<linearGradient id="paint56_linear_36_794" x1="43.3284" y1="34.6061" x2="42.4509" y2="34.6061" gradientUnits="userSpaceOnUse">
<stop stop-color="#F5995B"/>
<stop offset="1" stop-color="#FB5F5C"/>
</linearGradient>
<linearGradient id="paint57_linear_36_794" x1="43.3284" y1="36.2112" x2="42.4509" y2="36.2112" gradientUnits="userSpaceOnUse">
<stop stop-color="#F5995B"/>
<stop offset="1" stop-color="#FB5F5C"/>
</linearGradient>
<linearGradient id="paint58_linear_36_794" x1="43.3286" y1="37.816" x2="42.4509" y2="37.816" gradientUnits="userSpaceOnUse">
<stop stop-color="#F5995B"/>
<stop offset="1" stop-color="#FB5F5C"/>
</linearGradient>
<linearGradient id="paint59_linear_36_794" x1="43.3286" y1="39.4211" x2="42.4509" y2="39.4211" gradientUnits="userSpaceOnUse">
<stop stop-color="#F5995B"/>
<stop offset="1" stop-color="#FB5F5C"/>
</linearGradient>
<linearGradient id="paint60_linear_36_794" x1="49.0612" y1="30.797" x2="44.2144" y2="30.797" gradientUnits="userSpaceOnUse">
<stop stop-color="#F5995B"/>
<stop offset="1" stop-color="#FB5F5C"/>
</linearGradient>
<linearGradient id="paint61_linear_36_794" x1="49.0612" y1="32.402" x2="44.2144" y2="32.402" gradientUnits="userSpaceOnUse">
<stop stop-color="#F5995B"/>
<stop offset="1" stop-color="#FB5F5C"/>
</linearGradient>
<linearGradient id="paint62_linear_36_794" x1="49.0612" y1="34.0071" x2="44.2144" y2="34.0071" gradientUnits="userSpaceOnUse">
<stop stop-color="#F5995B"/>
<stop offset="1" stop-color="#FB5F5C"/>
</linearGradient>
<linearGradient id="paint63_linear_36_794" x1="49.0614" y1="35.6119" x2="44.2144" y2="35.6119" gradientUnits="userSpaceOnUse">
<stop stop-color="#F5995B"/>
<stop offset="1" stop-color="#FB5F5C"/>
</linearGradient>
<linearGradient id="paint64_linear_36_794" x1="49.0614" y1="37.2171" x2="44.2144" y2="37.2171" gradientUnits="userSpaceOnUse">
<stop stop-color="#F5995B"/>
<stop offset="1" stop-color="#FB5F5C"/>
</linearGradient>
</defs>
</svg>
