<svg width="52" height="60" viewBox="0 0 52 60" fill="none" xmlns="http://www.w3.org/2000/svg">
<path d="M22.3066 29.8653C18.4172 29.8653 14.7506 29.0813 11.9812 27.6599C9.07191 26.1653 7.46924 24.1266 7.46924 21.9199C7.46924 19.7133 9.07191 17.6746 11.9812 16.1799C14.7506 14.7573 18.4172 13.9746 22.3066 13.9746C26.1959 13.9746 29.8626 14.7586 32.6319 16.1799C35.5426 17.6746 37.1439 19.7133 37.1439 21.9199C37.1439 24.1266 35.5412 26.1653 32.6319 27.6599C29.8626 29.0813 26.1959 29.8653 22.3066 29.8653ZM22.3066 15.3053C14.9866 15.3053 8.80257 18.3333 8.80257 21.9186C8.80257 25.5026 14.9866 28.5319 22.3066 28.5319C29.6266 28.5319 35.8106 25.5039 35.8106 21.9186C35.8106 18.3346 29.6266 15.3053 22.3066 15.3053Z" fill="black"/>
<path d="M22.3066 39.7653C18.4172 39.7653 14.7506 38.9813 11.9812 37.56C9.07191 36.0653 7.46924 34.0267 7.46924 31.82C7.46924 31.452 7.7679 31.1533 8.1359 31.1533C8.50391 31.1533 8.80257 31.452 8.80257 31.82C8.80257 35.404 14.9866 38.4333 22.3066 38.4333C23.7399 38.4333 25.1532 38.3213 26.5092 38.0987C26.8732 38.0387 27.2159 38.2853 27.2746 38.6493C27.3346 39.0133 27.0879 39.356 26.7239 39.4147C25.2986 39.6467 23.8119 39.7653 22.3066 39.7653Z" fill="black"/>
<path d="M22.3066 49.6653C18.4172 49.6653 14.7506 48.8813 11.9812 47.46C9.07191 45.9653 7.46924 43.9267 7.46924 41.72C7.46924 41.352 7.7679 41.0533 8.1359 41.0533C8.5039 41.0533 8.80257 41.352 8.80257 41.72C8.80257 45.304 14.9866 48.3333 22.3066 48.3333C23.7799 48.3333 25.2319 48.2147 26.6226 47.98C26.9852 47.92 27.3292 48.164 27.3906 48.5267C27.4519 48.8893 27.2066 49.2333 26.8439 49.2947C25.3812 49.54 23.8546 49.6653 22.3066 49.6653Z" fill="black"/>
<path d="M22.3066 59.5653C18.4172 59.5653 14.7506 58.7813 11.9812 57.36C9.07191 55.8653 7.46924 53.8266 7.46924 51.62V21.9186C7.46924 21.5506 7.7679 21.252 8.1359 21.252C8.50391 21.252 8.80257 21.5506 8.80257 21.9186V51.6186C8.80257 55.2026 14.9866 58.2319 22.3066 58.2319C26.9732 58.2319 31.2612 57.0466 33.7772 55.0613C34.0666 54.8333 34.4852 54.8826 34.7132 55.172C34.9412 55.4613 34.8919 55.8799 34.6026 56.1079C31.8612 58.2733 27.2639 59.5653 22.3066 59.5653ZM36.4772 31.6213C36.1092 31.6213 35.8106 31.3226 35.8106 30.9546V21.92C35.8106 21.552 36.1092 21.2533 36.4772 21.2533C36.8452 21.2533 37.1439 21.552 37.1439 21.92V30.9546C37.1439 31.3226 36.8466 31.6213 36.4772 31.6213Z" fill="black"/>
<path d="M22.3068 22.5853C21.9388 22.5853 21.6401 22.2866 21.6401 21.9186V11.3279C21.6401 10.9599 21.9388 10.6613 22.3068 10.6613C22.6748 10.6613 22.9735 10.9599 22.9735 11.3279V21.9186C22.9735 22.2866 22.6761 22.5853 22.3068 22.5853Z" fill="black"/>
<path d="M33.6852 6.988H27.7212C27.3532 6.988 27.0546 6.68933 27.0546 6.32133C27.0546 5.95333 27.3532 5.65466 27.7212 5.65466H33.6852C34.0532 5.65466 34.3519 5.95333 34.3519 6.32133C34.3519 6.68933 34.0546 6.988 33.6852 6.988ZM17.6772 6.988H10.9279C10.5599 6.988 10.2612 6.68933 10.2612 6.32133C10.2612 5.95333 10.5599 5.65466 10.9279 5.65466H17.6772C18.0452 5.65466 18.3439 5.95333 18.3439 6.32133C18.3439 6.68933 18.0452 6.988 17.6772 6.988Z" fill="black"/>
<path d="M5.90662 12.0106C2.76929 12.0106 0.217285 9.45862 0.217285 6.32129C0.217285 3.18396 2.76929 0.631958 5.90662 0.631958C9.04395 0.631958 11.596 3.18396 11.596 6.32129C11.596 9.45862 9.04262 12.0106 5.90662 12.0106ZM5.90662 1.96529C3.50529 1.96529 1.55062 3.91862 1.55062 6.32129C1.55062 8.72396 3.50395 10.6773 5.90662 10.6773C8.30929 10.6773 10.2626 8.72396 10.2626 6.32129C10.2626 3.91862 8.30795 1.96529 5.90662 1.96529Z" fill="black"/>
<path d="M38.7079 12.0106C35.5706 12.0106 33.0186 9.45862 33.0186 6.32129C33.0186 3.18396 35.5706 0.631958 38.7079 0.631958C41.8452 0.631958 44.3972 3.18396 44.3972 6.32129C44.3972 9.45862 41.8452 12.0106 38.7079 12.0106ZM38.7079 1.96529C36.3066 1.96529 34.3519 3.91862 34.3519 6.32129C34.3519 8.72396 36.3066 10.6773 38.7079 10.6773C41.1092 10.6773 43.0639 8.72396 43.0639 6.32129C43.0639 3.91862 41.1106 1.96529 38.7079 1.96529Z" fill="black"/>
<path d="M22.7001 12.0106C19.5627 12.0106 17.0107 9.45862 17.0107 6.32129C17.0107 3.18396 19.5627 0.631958 22.7001 0.631958C25.8374 0.631958 28.3894 3.18396 28.3894 6.32129C28.3894 9.45862 25.8361 12.0106 22.7001 12.0106ZM22.7001 1.96529C20.2987 1.96529 18.3441 3.91862 18.3441 6.32129C18.3441 8.72396 20.2974 10.6773 22.7001 10.6773C25.1014 10.6773 27.0561 8.72396 27.0561 6.32129C27.0561 3.91862 25.1014 1.96529 22.7001 1.96529Z" fill="black"/>
<path d="M38.4333 56.976C31.0346 56.976 25.0146 50.956 25.0146 43.5573C25.0146 36.1587 31.0346 30.1387 38.4333 30.1387C45.832 30.1387 51.852 36.1587 51.852 43.5573C51.852 50.956 45.8333 56.976 38.4333 56.976ZM38.4333 31.472C31.7693 31.472 26.348 36.8933 26.348 43.5573C26.348 50.2213 31.7693 55.6427 38.4333 55.6427C45.0973 55.6427 50.5187 50.2213 50.5187 43.5573C50.5187 36.8933 45.0973 31.472 38.4333 31.472Z" fill="black"/>
<path d="M45.3387 54.9453C44.9707 54.9453 44.672 54.6466 44.672 54.2786V51.1293C44.672 48.58 43.068 46.2426 40.6813 45.312C40.3387 45.1786 40.168 44.792 40.3027 44.4493C40.436 44.1066 40.8227 43.936 41.1653 44.0706C44.06 45.1986 46.0053 48.036 46.0053 51.1306V54.28C46.0053 54.6466 45.708 54.9453 45.3387 54.9453ZM31.528 54.9453C31.16 54.9453 30.8613 54.6466 30.8613 54.2786V51.1293C30.8613 48.0346 32.8067 45.1986 35.7013 44.0693C36.044 43.9346 36.4307 44.1053 36.564 44.4479C36.6973 44.7906 36.528 45.1773 36.1853 45.3106C33.7987 46.2413 32.1947 48.5786 32.1947 51.128V54.2773C32.1947 54.6466 31.896 54.9453 31.528 54.9453Z" fill="black"/>
<path d="M35.4904 56.6346C35.1224 56.6346 34.8237 56.336 34.8237 55.968V50.2666C34.8237 49.8986 35.1224 49.6 35.4904 49.6C35.8584 49.6 36.1571 49.8986 36.1571 50.2666V55.968C36.1571 56.336 35.8584 56.6346 35.4904 56.6346Z" fill="black"/>
<path d="M41.3761 56.6346C41.0081 56.6346 40.7095 56.336 40.7095 55.968V50.2666C40.7095 49.8986 41.0081 49.6 41.3761 49.6C41.7441 49.6 42.0428 49.8986 42.0428 50.2666V55.968C42.0428 56.336 41.7441 56.6346 41.3761 56.6346Z" fill="black"/>
<path d="M38.4332 45.9893C35.1879 45.9893 32.5479 43.3493 32.5479 40.104C32.5479 36.8586 35.1879 34.2186 38.4332 34.2186C41.6785 34.2186 44.3185 36.8586 44.3185 40.104C44.3185 43.3493 41.6785 45.9893 38.4332 45.9893ZM38.4332 35.552C35.9239 35.552 33.8812 37.5946 33.8812 40.104C33.8812 42.6133 35.9225 44.656 38.4332 44.656C40.9439 44.656 42.9852 42.6146 42.9852 40.104C42.9852 37.5933 40.9439 35.552 38.4332 35.552Z" fill="black"/>
</svg>
