<svg width="120" height="120" viewBox="0 0 120 120" fill="none" xmlns="http://www.w3.org/2000/svg">
<path d="M56.9406 103.789C56.9656 99.2906 50.5118 95.6098 42.5256 95.5676C34.5394 95.5253 28.0451 99.1375 28.0201 103.636C27.9951 108.134 34.4489 111.815 42.4351 111.857C50.4213 111.899 56.9156 108.287 56.9406 103.789Z" fill="#F2F2F2"/>
<path d="M92.1484 105.91L60.1102 87.8524C59.4273 87.4756 59.5163 86.78 60.2883 86.3452L62.0996 85.3308C62.9013 84.896 64.089 84.838 64.7719 85.2148L96.8101 103.272C97.4931 103.649 97.404 104.345 96.632 104.779L94.8207 105.794C94.019 106.258 92.8313 106.287 92.1484 105.91Z" fill="#F2F2F2"/>
<path d="M95.2958 17.1878L65.8112 0.579659C65.247 0.260828 64.7719 0.260829 64.3563 0.463721L61.4464 2.11584L64.861 4.72446L65.6924 4.52157V72.7514C65.6924 74.3455 66.702 76.2005 67.9194 76.8962L93.7815 95.3594V96.4898L96.7805 94.7797C97.2258 94.4898 97.4931 93.9101 97.4931 93.0696V21.3616C97.5228 19.7385 96.5132 17.8835 95.2958 17.1878Z" fill="#999999"/>
<path d="M90.7826 23.3036V20.0863L87.8727 22.2022L75.194 17.0139L65.6924 10.2605V4.52157L64.861 4.72446L61.4464 2.11584L64.3563 0.463721C64.7423 0.260829 65.247 0.260828 65.8112 0.579659L95.2958 17.2168C96.0975 17.6806 96.8102 18.6371 97.1962 19.6805L90.7826 23.3036Z" fill="#E6E6E6"/>
<path d="M92.3562 96.3739L62.8716 79.7657C61.6542 79.0701 60.6447 77.2151 60.6447 75.6209V3.88396C60.6447 2.28981 61.6542 1.53621 62.8716 2.23184L92.3562 18.84C93.5736 19.5357 94.5832 21.3907 94.5832 22.9848V94.6928C94.5832 96.3159 93.6033 97.0695 92.3562 96.3739Z" fill="#CCCCCC"/>
<path d="M61.2979 76.0267V4.20276C61.2979 3.04338 62.0105 2.49267 62.9309 3.0144L92.3265 19.5936C93.2173 20.0863 93.9596 21.4486 93.9596 22.608V94.4029C93.9596 95.5623 93.247 96.113 92.3265 95.5913L62.9309 79.0121C62.0105 78.5483 61.2979 77.1861 61.2979 76.0267Z" fill="#333333"/>
<path d="M93.0688 23.3616V92.9247C93.0688 93.9682 92.3265 94.374 91.406 93.8522L63.8217 78.3165C62.9012 77.7948 62.1589 76.5484 62.1589 75.505V5.94188C62.1589 4.89843 62.9012 4.49265 63.8217 5.01437L68.8694 7.85486C69.0773 7.9708 69.2554 8.23166 69.3148 8.49253L69.5524 9.53597C69.7305 10.5214 70.5322 11.6519 71.4527 12.1736L83.7454 19.1009C84.6955 19.6226 85.4972 19.4197 85.6457 18.6371L85.8832 17.8546C85.9426 17.6517 86.1208 17.6227 86.3286 17.7386L91.3764 20.5791C92.3265 21.0719 93.0688 22.3182 93.0688 23.3616Z" fill="#80C5FF"/>
<path d="M86.8928 40.6364C87.3679 40.8973 87.7539 41.5639 87.7539 42.1146V45.071C87.7539 45.6218 87.3679 45.8246 86.8631 45.5638L69.1961 35.5641C68.721 35.3032 68.335 34.6366 68.335 34.0859V31.1294C68.335 30.5787 68.721 30.3758 69.2258 30.6367L86.8928 40.6364Z" fill="#57B2FF"/>
<path d="M86.8928 50.9259C87.3679 51.1868 87.7539 51.8535 87.7539 52.4042V55.3606C87.7539 55.9113 87.3679 56.1142 86.8631 55.8533L69.1961 45.8536C68.721 45.5928 68.335 44.9261 68.335 44.3754V41.419C68.335 40.8683 68.721 40.6654 69.2258 40.9263L86.8928 50.9259Z" fill="#57B2FF"/>
<path d="M62.159 48.868V53.8534L60.6447 52.9838V48.0275L62.159 48.868Z" fill="#B3B3B3"/>
<path d="M87.7539 64.6067V66.9544C87.7539 67.6791 87.2194 67.9689 86.5662 67.6211L62.1589 53.8534V48.868L86.5959 62.6357C87.2491 63.0125 87.7539 63.8821 87.7539 64.6067Z" fill="#57B2FF"/>
<path d="M73.5609 68.4616C74.0359 68.7225 74.3922 69.3602 74.3922 69.8819L74.3626 77.9396C74.3626 78.4613 73.9766 78.6642 73.5015 78.4034L66.3159 74.3455C65.8408 74.0847 65.4845 73.447 65.4845 72.9253L65.5142 64.8675C65.5142 64.3458 65.9002 64.1429 66.3456 64.4038L73.5609 68.4616Z" fill="#57B2FF"/>
<path d="M86.9225 75.9687C87.3976 76.2296 87.7539 76.8672 87.7539 77.389L87.7242 85.4467C87.7242 85.9684 87.3382 86.1713 86.8928 85.9105L79.7072 81.8526C79.2322 81.5917 78.8759 80.9541 78.8759 80.4323L78.9055 72.3746C78.9055 71.8529 79.2915 71.65 79.7666 71.9109L86.9225 75.9687Z" fill="#57B2FF"/>
<path d="M86.4177 24.521C87.16 24.9557 87.7835 25.9702 87.7835 26.8108L87.7538 33.7091C87.7538 34.5497 87.1303 34.8975 86.388 34.4627L65.9595 22.9558C65.2172 22.521 64.5937 21.5066 64.5937 20.666L64.6234 13.7677C64.6234 12.9271 65.2469 12.5793 65.9892 13.0141L86.4177 24.521Z" fill="#57B2FF"/>
<path d="M62.159 27.3035V40.8393L60.6447 39.9698V26.434L62.159 27.3035Z" fill="#B3B3B3"/>
<path d="M64.4156 29.8832L64.3859 40.7524C64.3859 41.477 63.8514 41.7669 63.1982 41.3901L62.1589 40.8104V27.2745L63.2576 27.8832C63.9108 28.289 64.4156 29.1585 64.4156 29.8832Z" fill="#57B2FF"/>
<path d="M72.581 11.13C72.581 11.6807 72.195 11.9126 71.6902 11.6228C71.1854 11.3329 70.7994 10.6663 70.7994 10.1156C70.7994 9.56486 71.1854 9.33298 71.6902 9.62283C72.195 9.91267 72.581 10.5793 72.581 11.13Z" fill="#666666"/>
<path d="M72.195 10.8982C72.195 11.188 71.9872 11.333 71.6903 11.159C71.423 11.0141 71.1855 10.6373 71.1855 10.3475C71.1855 10.0576 71.3933 9.9127 71.6903 10.0866C71.9575 10.2315 72.195 10.6083 72.195 10.8982Z" fill="#333333"/>
<path d="M81.9044 15.1589L73.1452 10.2315C72.9967 10.1445 72.8779 9.94165 72.8779 9.73876V9.39094C72.8779 9.21703 72.9967 9.13008 73.1452 9.18805L81.9044 14.1154C82.0529 14.2024 82.1717 14.4053 82.1717 14.6082V14.956C82.1717 15.1589 82.0529 15.2458 81.9044 15.1589Z" fill="black"/>
<path d="M96.6914 32.4048C96.5132 32.3178 96.2757 32.3178 96.0084 32.4628C95.474 32.7526 95.0583 33.4772 95.0583 34.0859L95.088 42.6074C95.088 42.8972 95.2068 43.1001 95.3552 43.2161L95.8897 43.5059C95.7115 43.419 95.6224 43.1871 95.6224 42.8972L95.5927 34.3758C95.5927 33.7961 96.0084 33.0714 96.5429 32.7526C96.8101 32.6077 97.0477 32.5787 97.2258 32.6946L96.6914 32.4048Z" fill="#E6E6E6"/>
<path d="M96.5428 32.7816C97.0773 32.4918 97.493 32.7237 97.493 33.3034L97.5227 41.8248C97.5227 42.4045 97.107 43.1292 96.5725 43.448C96.0381 43.7378 95.6224 43.506 95.6224 42.9263L95.5927 34.4048C95.5927 33.7961 96.0084 33.0715 96.5428 32.7816Z" fill="#BFBFBF"/>
<path d="M96.6913 33.7381C97.1367 33.5062 97.4633 33.6801 97.4633 34.1729L97.493 41.1582C97.493 41.6509 97.1367 42.2306 96.721 42.4915C96.2756 42.7233 95.949 42.5494 95.949 42.0567L95.9193 35.0714C95.9193 34.5497 96.2756 33.97 96.6913 33.7381Z" fill="#CCCCCC"/>
<path d="M59.7242 10.3185L52.5386 6.26062C52.3011 6.1157 52.0932 6.1157 51.9447 6.20265L50.5789 6.95625C50.7274 6.8693 50.9352 6.8693 51.1727 7.01422L58.3583 11.0721C58.8334 11.3329 59.1897 11.9706 59.1897 12.4923L59.16 20.55C59.16 20.8109 59.0709 20.9848 58.9225 21.0718L60.2883 20.3182C60.4368 20.2312 60.5259 20.0573 60.5259 19.7964L60.5556 11.7387C60.5556 11.217 60.1993 10.5793 59.7242 10.3185Z" fill="#8482FF"/>
<path d="M58.388 11.101C58.8631 11.3619 59.2194 11.9996 59.2194 12.5213L59.1897 20.579C59.1897 21.1007 58.8037 21.3036 58.3287 21.0428L51.1431 16.9849C50.668 16.7241 50.3117 16.0864 50.3117 15.5647L50.3414 7.50695C50.3414 6.98523 50.7274 6.78233 51.1728 7.0432L58.388 11.101Z" fill="#4D4BB7"/>
<path d="M54.2608 14.4634L53.5779 16.2314L50.7571 14.6373L52.5089 12.2316C52.7465 11.8837 53.37 12.2316 53.6076 12.8402L54.2608 14.4634Z" fill="white"/>
<path d="M55.3594 17.2459L53.5778 16.2314L54.2607 14.4634L55.3594 17.2459Z" fill="#E6E6E6"/>
<path d="M58.1802 18.84L55.3594 17.2459L54.2608 14.4633L55.1219 12.2315C55.3891 11.5649 56.3986 12.1446 56.6659 13.1011L58.1802 18.84Z" fill="white"/>
<path d="M54.2608 11.304C54.2608 11.6808 53.9935 11.8547 53.6372 11.6518C53.2809 11.4489 53.0137 10.9852 53.0137 10.5794C53.0137 10.2026 53.2809 10.0287 53.6372 10.2316C53.9935 10.4634 54.2608 10.9272 54.2608 11.304Z" fill="#E6E6E6"/>
<path d="M86.2099 41.0422L68.5131 31.0715C68.2756 30.9266 68.0381 30.9266 67.8896 31.0136L66.5237 31.7672C66.6722 31.6802 66.9097 31.6802 67.1473 31.8251L84.844 41.7958C85.3191 42.0567 85.7051 42.7234 85.7051 43.2741V46.2305C85.7051 46.4914 85.616 46.6942 85.4379 46.7812L86.8037 46.0276C86.9522 45.9406 87.071 45.7378 87.071 45.4769V42.5205C87.071 41.9698 86.6849 41.3031 86.2099 41.0422Z" fill="#8482FF"/>
<path d="M84.844 41.7958C85.3191 42.0566 85.7051 42.7233 85.7051 43.274V46.2304C85.7051 46.7811 85.3191 46.984 84.8143 46.7232L67.1176 36.7524C66.6425 36.4916 66.2565 35.8249 66.2565 35.2742V32.3178C66.2565 31.7671 66.6425 31.5642 67.1473 31.8251L84.844 41.7958Z" fill="#4D4BB7"/>
<path d="M84.2502 43.5928L68.038 34.4047C67.8599 34.2887 67.7114 34.4047 67.7114 34.6655C67.7114 34.8974 67.8599 35.1873 68.038 35.3032L84.2502 44.4913C84.4283 44.6073 84.5768 44.4913 84.5768 44.2305C84.6065 43.9986 84.458 43.7087 84.2502 43.5928Z" fill="white"/>
<path d="M86.2099 51.3318L68.5131 41.3611C68.2756 41.2162 68.0381 41.2162 67.8896 41.3031L66.5237 42.0567C66.6722 41.9698 66.9097 41.9698 67.1473 42.1147L84.844 52.0854C85.3191 52.3463 85.7051 53.0129 85.7051 53.5636V56.52C85.7051 56.7809 85.616 56.9838 85.4379 57.0708L86.8037 56.3172C86.9522 56.2302 87.071 56.0273 87.071 55.7664V52.81C87.071 52.2593 86.6849 51.6216 86.2099 51.3318Z" fill="#8482FF"/>
<path d="M84.844 52.1144C85.3191 52.3752 85.7051 53.0419 85.7051 53.5926V56.549C85.7051 57.0997 85.3191 57.3026 84.8143 57.0418L67.1176 47.071C66.6425 46.8102 66.2565 46.1435 66.2565 45.5928V42.6364C66.2565 42.0857 66.6425 41.8828 67.1473 42.1437L84.844 52.1144Z" fill="#4D4BB7"/>
<path d="M84.2502 53.7375L68.038 44.5493C67.8599 44.4334 67.7114 44.5493 67.7114 44.8102C67.7114 45.0421 67.8599 45.3319 68.038 45.4479L84.2502 54.636C84.4283 54.7519 84.5768 54.636 84.5768 54.3751C84.6065 54.1143 84.458 53.8534 84.2502 53.7375Z" fill="white"/>
<path d="M59.7242 61.4764L52.5386 57.4186C52.3011 57.2737 52.0932 57.2737 51.9447 57.3606L50.5789 58.1142C50.7274 58.0273 50.9352 58.0273 51.1727 58.1722L58.3583 62.23C58.8334 62.4909 59.1897 63.1286 59.1897 63.6503L59.16 71.708C59.16 71.9689 59.0709 72.1428 58.9225 72.2297L60.2883 71.4761C60.4368 71.3892 60.5259 71.2153 60.5259 70.9544L60.5556 62.8967C60.5556 62.3749 60.1993 61.7373 59.7242 61.4764Z" fill="#8482FF"/>
<path d="M58.388 62.259C58.8631 62.5199 59.2194 63.1575 59.2194 63.6792L59.1897 71.737C59.1897 72.2587 58.8037 72.4616 58.3287 72.2007L51.1431 68.1429C50.668 67.882 50.3117 67.2444 50.3117 66.7226L50.3414 58.6649C50.3414 58.1432 50.7274 57.9403 51.1728 58.2012L58.388 62.259Z" fill="#4D4BB7"/>
<path d="M58.1505 64.9836L54.7359 65.2734L51.2619 61.0996C51.2619 60.9547 51.3509 60.9257 51.4697 60.9837L57.9427 64.6357C58.0318 64.6937 58.1505 64.8676 58.1505 64.9836Z" fill="white"/>
<path d="M54.7062 65.5343L58.1208 65.2444V69.3312C58.1208 69.4762 58.0317 69.5052 57.913 69.4472L51.44 65.7951C51.3212 65.7371 51.2321 65.5632 51.2321 65.4473V61.3605L54.6468 65.4763L54.7062 65.5343Z" fill="white"/>
<path d="M85.9129 63.0416L53.9044 44.9842C53.5778 44.8102 53.2809 44.7813 53.073 44.8972L51.7072 45.6508C51.915 45.5349 52.212 45.5349 52.5386 45.7378L84.5471 63.7952C85.2003 64.172 85.7051 65.0415 85.7051 65.7661V68.1139C85.7051 68.4617 85.5863 68.7226 85.3488 68.8385L86.7146 68.0849C86.9225 67.969 87.0413 67.7081 87.071 67.3603V65.0125C87.071 64.2879 86.5365 63.4184 85.9129 63.0416Z" fill="#8482FF"/>
<path d="M84.5471 63.8241C85.2003 64.2009 85.7051 65.0704 85.7051 65.7951V68.1428C85.7051 68.8674 85.1707 69.1573 84.5174 68.8095L52.5089 50.752C51.8557 50.3752 51.3509 49.5057 51.3509 48.7811V46.4333C51.3509 45.7087 51.8854 45.4189 52.5386 45.7667L84.5471 63.8241Z" fill="#4D4BB7"/>
<path d="M83.7157 65.5921L52.8949 48.1144C52.7168 47.9985 52.5683 48.1144 52.5683 48.3753C52.5683 48.6071 52.7168 48.897 52.8949 49.0129L83.7157 66.4907C83.8939 66.6066 84.0423 66.4906 84.0423 66.2298C84.0423 65.9689 83.8939 65.6791 83.7157 65.5921Z" fill="white"/>
<path d="M72.878 68.8675L65.6924 64.8097C65.4549 64.6648 65.247 64.6648 65.0986 64.7517L63.7327 65.5053C63.8812 65.4184 64.089 65.4184 64.3265 65.5633L71.5121 69.6211C71.9872 69.882 72.3435 70.5197 72.3435 71.0414L72.3138 79.0991C72.3138 79.36 72.2248 79.5339 72.0763 79.6208L73.4421 78.8672C73.5906 78.7803 73.6797 78.6064 73.6797 78.3455L73.7094 70.2878C73.7094 69.7661 73.3234 69.1284 72.878 68.8675Z" fill="#8482FF"/>
<path d="M71.5121 69.6501C71.9872 69.911 72.3435 70.5486 72.3435 71.0704L72.3138 79.1281C72.3138 79.6498 71.9278 79.8527 71.4527 79.5918L64.2671 75.534C63.7921 75.2731 63.4358 74.6355 63.4358 74.1137L63.4655 66.056C63.4655 65.5343 63.8515 65.3314 64.2968 65.5923L71.5121 69.6501Z" fill="#4D4BB7"/>
<path d="M70.8589 76.8962L64.9204 73.534C64.564 73.3311 64.2671 72.8384 64.2671 72.4326V69.2443C64.2671 68.8385 64.564 68.6936 64.9204 68.8965L70.8589 72.2587C71.2152 72.4616 71.5121 72.9543 71.5121 73.3601V76.5484C71.5121 76.9252 71.2152 77.0991 70.8589 76.8962ZM64.9204 69.1863C64.7125 69.0704 64.5344 69.1573 64.5344 69.3892V72.5775C64.5344 72.8094 64.7125 73.0992 64.9204 73.2152L70.8589 76.5774C71.0667 76.6933 71.2449 76.6064 71.2449 76.3745V73.1862C71.2449 72.9543 71.0667 72.6645 70.8589 72.5485L64.9204 69.1863Z" fill="white"/>
<path d="M67.8896 74.6934C67.0285 74.2007 66.3159 73.0123 66.3159 72.0268C66.3159 71.0414 67.0285 70.6646 67.8896 71.1573C68.7507 71.65 69.4633 72.8384 69.4633 73.8239C69.4633 74.7804 68.7804 75.1862 67.8896 74.6934ZM67.8896 71.4471C67.177 71.0414 66.5832 71.3602 66.5832 72.1718C66.5832 72.9833 67.177 73.9688 67.8896 74.3746C68.6022 74.7804 69.1961 74.4615 69.1961 73.65C69.1961 72.8674 68.6022 71.8529 67.8896 71.4471Z" fill="white"/>
<path d="M69.7602 71.8819L66.019 69.766V69.0124C66.019 68.7516 66.1971 68.6356 66.4347 68.7805L69.3445 70.4037C69.5821 70.5486 69.7602 70.8674 69.7602 71.1283V71.8819ZM66.2862 69.5921L69.493 71.3892V70.9254C69.493 70.8384 69.4336 70.7225 69.3445 70.6645L66.4347 69.0414C66.3456 68.9834 66.2862 69.0414 66.2862 69.1284V69.5921Z" fill="white"/>
<path d="M86.2396 76.3745L79.054 72.3166C78.8165 72.1717 78.6086 72.1717 78.4602 72.2587L77.0943 73.0123C77.2428 72.9253 77.4506 72.9253 77.6881 73.0703L84.8737 77.1281C85.3488 77.389 85.7051 78.0266 85.7051 78.5483L85.6754 86.6061C85.6754 86.8669 85.5864 87.0408 85.4379 87.1278L86.8037 86.3742C86.9522 86.2872 87.0413 86.1133 87.0413 85.8525L87.071 77.7948C87.071 77.273 86.685 76.6643 86.2396 76.3745Z" fill="#8482FF"/>
<path d="M84.8737 77.1571C85.3488 77.4179 85.7051 78.0556 85.7051 78.5773L85.6754 86.635C85.6754 87.1568 85.2894 87.3597 84.844 87.0988L77.6584 83.0409C77.1834 82.7801 76.8271 82.1424 76.8271 81.6207L76.8567 73.563C76.8567 73.0413 77.2428 72.8384 77.7178 73.0992L84.8737 77.1571Z" fill="#4D4BB7"/>
<path d="M81.2809 76.9832C79.6478 76.0557 78.3117 76.5484 78.3117 78.0556C78.3117 79.0411 78.8758 80.2295 79.7072 81.186C79.6775 81.4468 79.4994 81.9975 78.7571 81.5628C78.7571 81.5628 79.7963 82.6932 80.7761 82.1424C80.9543 82.2584 81.1028 82.3743 81.2809 82.4903C82.914 83.4178 84.2502 82.925 84.2502 81.4178C84.2799 79.8816 82.9437 77.9107 81.2809 76.9832Z" fill="white"/>
<path d="M85.7052 24.9267L65.2767 13.4198C64.8907 13.2169 64.5641 13.188 64.2969 13.3329L62.9607 14.1155C63.1982 13.9705 63.5545 13.9995 63.9405 14.2024L84.369 25.7093C85.1113 26.1441 85.7348 27.1585 85.7348 27.9991L85.7052 34.8974C85.7052 35.3032 85.5567 35.6221 85.3191 35.738L86.685 34.9844C86.9225 34.8395 87.071 34.5496 87.071 34.1438L87.1007 27.2455C87.071 26.376 86.4772 25.3615 85.7052 24.9267Z" fill="#8482FF"/>
<path d="M84.369 25.7093C85.1113 26.1441 85.7348 27.1586 85.7348 27.9991L85.7051 34.8974C85.7051 35.738 85.0816 36.0858 84.3393 35.6511L63.9108 24.1442C63.1685 23.7094 62.545 22.6949 62.545 21.8544L62.5747 14.956C62.5747 14.1155 63.1982 13.7677 63.9405 14.2024L84.369 25.7093Z" fill="#4D4BB7"/>
<path d="M83.8345 27.3615L64.5641 16.4633C64.3859 16.3473 64.2375 16.4633 64.2375 16.7241C64.2375 16.956 64.3859 17.2459 64.5641 17.3618L83.8345 28.26C84.0127 28.376 84.1611 28.26 84.1611 27.9992C84.1908 27.7383 84.0424 27.4774 83.8345 27.3615Z" fill="white"/>
<path d="M83.8345 29.9701L64.564 19.0719C64.3859 18.956 64.2374 19.0719 64.2374 19.3328C64.2374 19.5647 64.3859 19.8545 64.564 19.9704L83.8345 30.8687C84.0126 30.9846 84.1611 30.8687 84.1611 30.6078C84.1908 30.3469 84.0423 30.0861 83.8345 29.9701Z" fill="white"/>
<path d="M83.8345 32.5787L64.564 21.6804C64.3859 21.5645 64.2374 21.6804 64.2374 21.9413C64.2374 22.1732 64.3859 22.463 64.564 22.579L83.8345 33.4772C84.0126 33.5931 84.1611 33.4772 84.1611 33.2163C84.1908 32.9555 84.0423 32.6946 83.8345 32.5787Z" fill="white"/>
<path d="M52.6871 27.6224C52.6574 27.5644 52.6277 27.5064 52.6277 27.4484C52.6277 27.3905 52.6277 27.3035 52.6277 27.2456C52.6277 27.1006 52.5683 26.9557 52.4199 26.8398C52.3605 26.8108 52.3011 26.7818 52.2714 26.7238C52.2417 26.6948 52.212 26.6369 52.1823 26.5789C52.0339 26.347 51.7073 26.2891 51.4103 26.318C50.8165 26.376 50.2523 26.6079 49.7475 26.8688C49.0349 27.2456 48.4114 27.7673 47.966 28.4049C47.7878 28.6658 47.6394 28.9267 47.5503 29.2165C47.4612 29.4774 47.3721 29.7382 47.2831 29.9701C47.2237 30.144 47.1643 30.3179 47.1346 30.4918C47.1049 30.5788 47.1049 30.6657 47.1049 30.7527C47.1049 30.8396 47.1049 30.8976 47.0752 30.9846C47.0158 31.0715 41.5524 37.738 41.1664 38.2017C40.8101 38.6075 40.5429 39.1292 40.1569 39.4771C39.3255 40.2307 38.2565 40.7524 37.247 41.2451C36.4156 41.6219 34.9904 41.9987 35.3467 43.2161C35.4655 43.5639 35.7624 43.8537 36.0296 44.1146C36.475 44.5784 36.8313 45.1291 37.0985 45.7088C37.1282 45.7377 37.1282 45.7957 37.1579 45.7957C37.2173 45.8247 37.2767 45.7957 37.3064 45.7667C38.7316 45.0131 42.651 42.3465 43.3043 41.9408C43.3043 41.9118 43.3043 41.9118 43.3043 41.8828C43.5121 41.7958 43.6606 41.5929 43.809 41.419C44.2841 40.7814 44.7295 40.1437 45.1749 39.4771C45.5906 38.8104 46.0063 38.1148 46.3923 37.4481C46.7783 36.7525 47.1346 36.0569 47.4909 35.3323C47.8472 34.6366 48.6786 32.8976 48.738 32.7816C48.7974 32.6657 48.8271 32.5208 48.9459 32.4628C49.0349 32.4338 49.124 32.4338 49.1834 32.3758C49.2725 32.3179 49.3615 32.2599 49.4209 32.2019C50.2226 31.4773 50.668 30.4628 51.2916 29.6223C51.4103 29.4774 51.5291 29.3035 51.6776 29.1875C51.9745 28.9556 52.3605 28.8397 52.5386 28.5499C52.6277 28.4339 52.6574 28.289 52.6871 28.1441C52.6871 27.9702 52.7465 27.7963 52.6871 27.6224Z" fill="#FFB78C"/>
<path d="M31.6352 105.62C31.6649 106.113 31.843 106.548 32.1993 106.808C32.4072 106.953 32.6744 107.011 32.9416 107.011C33.6543 107.04 34.3966 106.779 34.9607 106.345C35.5843 105.823 35.9703 105.069 36.6235 104.606C36.9798 104.345 37.3955 104.2 37.7815 104.026C38.7614 103.591 39.6818 103.011 40.4835 102.316C40.6617 102.171 40.8695 101.968 40.9586 101.765C41.1071 101.417 40.9586 101.011 40.632 100.838C40.4242 100.722 40.2163 100.664 39.9788 100.635C39.1771 100.49 38.3457 100.548 37.544 100.606C36.5047 100.693 35.4655 100.838 34.4857 101.185C34.07 101.33 33.6543 101.533 33.298 101.794C33.1495 101.881 32.9416 102.142 32.7932 102.171C32.7338 102.171 32.3478 102.055 32.3478 102.026C32.1102 102.722 31.9024 103.446 31.7539 104.171C31.6946 104.519 31.6055 105.098 31.6352 105.62Z" fill="#4D4BB7"/>
<path d="M39.1474 68.1428C39.1177 67.8819 38.9692 67.6211 38.8207 67.3602C37.93 65.7081 37.5143 63.8531 36.861 62.085C36.5344 61.2445 36.1781 60.4039 35.6733 59.6503C35.3764 59.2155 34.545 57.9982 33.8324 58.259C33.7433 58.288 33.6542 58.375 33.5652 58.4329C32.2587 59.6793 31.1601 61.1285 30.3584 62.7227C29.527 64.3458 29.141 65.911 29.141 67.737C29.141 69.0993 29.3488 70.4326 29.7942 71.7369C29.9427 72.2006 30.1208 72.6354 30.2099 73.0992C30.299 73.5919 30.3287 74.1136 30.3287 74.6064C30.3584 76.5773 30.3584 78.5483 30.3881 80.4902C30.3881 81.3888 30.3881 82.2873 30.4772 83.1858C30.5365 84.0843 30.5662 85.0408 30.299 85.9104C30.0318 86.8379 29.8536 87.7654 29.7348 88.7219C29.4379 91.2146 29.9724 93.7072 30.5068 96.1419C30.9819 98.3448 31.457 100.548 31.9618 102.75C31.9915 102.866 32.0212 103.011 32.1102 103.098C32.1993 103.185 32.2884 103.214 32.3775 103.243C33.001 103.417 33.6839 103.301 34.2481 103.069C34.842 102.808 35.3467 102.432 35.8218 101.997C35.9406 101.881 36.089 101.765 36.1484 101.62C36.3266 101.243 36.1484 100.808 36 100.432C34.5747 97.0115 34.6638 93.1275 35.5546 89.5335C35.8515 88.3161 36.2375 87.0987 36.4157 85.8234C36.4157 85.7365 36.4453 85.6205 36.4453 85.5336C36.4453 85.5336 36.4453 85.5336 36.4453 85.5046C37.8112 79.9685 38.5238 74.2875 39.1474 68.6066C39.1474 68.4906 39.1771 68.3167 39.1474 68.1428Z" fill="#333333"/>
<path d="M49.5694 99.968C48.738 99.939 47.9066 99.939 47.1049 100.026C46.4814 100.113 45.7984 100.316 45.3234 100.722C44.9967 101.011 44.7592 101.359 44.5217 101.707C43.8981 102.664 42.7698 104.953 44.4029 105.591C44.6998 105.707 44.9967 105.707 45.2937 105.649C46.3329 105.504 47.2237 104.808 48.2629 104.635C48.6489 104.577 49.0349 104.577 49.4209 104.577C50.8165 104.548 52.2417 104.287 53.4294 103.533C53.9936 103.185 54.3796 102.664 54.528 102.026C54.7359 101.156 54.2014 100.606 53.37 100.432C52.1526 100.171 50.8759 100.026 49.5694 99.968Z" fill="#8482FF"/>
<path d="M48.2333 99.3593C47.4019 96.6638 46.9862 93.8233 46.9862 91.0118C46.9862 88.751 46.6893 86.3742 46.9862 84.1424C47.2831 81.8816 47.105 79.4179 46.6893 77.1861C46.036 73.563 44.4029 70.1428 44.0763 66.4908C43.9575 65.0995 44.0169 63.7083 43.7794 62.346C42.1166 63.1865 40.1272 63.4184 38.2863 63.0126C37.3361 62.7807 36.4157 62.4039 35.5249 62.0851C35.1389 61.9402 34.7232 61.8822 34.3372 61.7663C33.9809 61.6503 33.773 61.4475 33.4761 61.2156C32.0212 62.9257 31.1601 65.0995 31.071 67.3023C30.9819 68.9835 31.3382 70.6935 32.0806 72.2007C32.8526 73.7949 34.0996 74.9253 35.4358 76.0557C36.7423 77.1571 38.0784 78.2296 39.0286 79.6498C39.8303 80.8672 40.2757 82.4323 40.6617 83.7946C41.1071 85.3598 41.4634 86.9539 41.5228 88.606C41.5822 90.1132 41.3743 91.5045 41.6415 93.0117C41.7603 93.7073 41.9385 94.374 42.1463 95.0406C42.948 97.4464 44.3436 99.7651 44.2545 102.287C44.2545 102.403 44.2545 102.519 44.3139 102.606C44.3732 102.664 44.4623 102.693 44.5217 102.722C45.5906 103.069 46.7486 102.606 47.6394 101.939C47.9363 101.707 48.2333 101.446 48.3817 101.098C48.5896 100.548 48.3817 99.939 48.2333 99.3593Z" fill="#424242"/>
<path d="M29.1707 42.8683C28.844 44.5204 29.0222 46.3464 29.3488 47.9116C29.8239 50.1724 30.4771 52.4042 31.3382 54.578C31.6945 55.4476 32.0508 56.3461 32.1399 57.3026C32.2884 58.9547 31.457 60.5199 30.6553 61.9981C30.5662 62.143 30.5068 62.288 30.5068 62.4329C30.5068 62.5488 30.5959 62.6648 30.6553 62.7807C31.6351 64.143 33.1198 65.0995 34.6935 65.6502C36.2969 66.2009 38.019 66.3748 39.7115 66.3458C41.1664 66.3168 42.6214 66.1719 43.9278 65.5342C43.9872 63.4763 44.0763 61.4184 44.0466 59.3315C44.0169 57.3896 43.5418 55.3606 44.0169 53.4187C44.1951 52.723 44.492 52.0564 44.6701 51.3897C44.878 50.6651 44.9374 49.8825 44.878 49.1289C44.8186 48.5203 44.6405 47.8246 44.106 47.5058C43.9278 47.4188 43.7497 47.3609 43.5715 47.2739C42.7401 46.8391 42.5323 45.7087 41.7306 45.216C41.4337 45.0421 41.1071 44.9841 40.7804 44.8972C37.2767 43.9407 34.6341 39.7379 30.7147 40.3466C30.5068 40.3756 30.299 40.4046 30.1208 40.5205C29.9427 40.6364 29.8239 40.8393 29.7051 41.0422C29.4676 41.6219 29.2894 42.2306 29.1707 42.8683Z" fill="#D9D9D9"/>
<path d="M30.8928 41.535C30.8334 41.622 30.8038 41.7379 30.7741 41.8249C30.5365 42.5495 31.2194 43.0422 31.8133 43.3611C32.7338 43.8538 33.8324 44.0857 34.9013 44.0857C35.5546 44.0857 36.1781 43.9987 36.8313 43.8828C37.0689 43.8248 37.247 43.8248 37.3658 43.6219C37.5143 43.3611 37.5143 43.0712 37.5439 42.7814C37.5736 42.1437 37.6033 41.535 37.6033 40.8974C37.633 39.9119 37.6627 38.9554 37.6924 37.9699C37.6924 37.5641 37.1283 37.6801 36.8016 37.6221C36.3562 37.5641 35.8812 37.5062 35.4358 37.4192C34.545 37.2453 33.6542 37.0134 32.8525 36.6076C32.6447 36.4917 32.2884 36.2308 32.0508 36.2308C31.7539 36.2019 31.7539 36.6076 31.7242 36.8395C31.6351 37.5062 31.6351 38.1728 31.6351 38.8395C31.6054 39.622 31.5164 40.4336 31.1601 41.1292C31.0413 41.2742 30.9522 41.4191 30.8928 41.535Z" fill="#FFB78C"/>
<path d="M39.3552 31.8251C39.4443 31.97 39.5333 32.1149 39.563 32.2888C39.5927 32.4338 39.5333 32.6077 39.5333 32.7526C39.5333 33.3033 40.0975 33.6801 40.5429 34.0279C40.721 34.1728 40.8992 34.3467 40.8695 34.5496C40.8695 34.6366 40.8101 34.7235 40.7804 34.7815C40.4538 35.3902 40.4538 36.0858 40.4835 36.7815C40.5132 37.2162 40.8398 38.3466 40.3944 38.6365C39.86 38.9553 39.2958 39.2162 38.702 39.3901C38.3456 39.506 37.93 39.564 37.6033 39.3901C37.3064 39.2162 37.1283 38.8973 36.861 38.6944C36.5641 38.4336 36.1187 38.8104 35.7921 38.9263C35.3467 39.0712 34.9013 39.1582 34.4262 39.1872C33.5355 39.2451 32.615 39.1292 31.7836 38.8104C31.2491 38.6075 30.7444 38.3466 30.3287 37.9698C29.8536 37.5351 29.527 37.0133 29.2004 36.4626C28.7847 35.738 28.369 34.9554 28.2799 34.1439C28.1908 33.2743 28.458 32.3758 28.8737 31.6222C29.2894 30.8686 29.8239 30.2889 30.5365 29.7672C31.8133 28.8107 33.5355 28.6078 35.1685 28.6078C35.7624 28.6078 36.2375 28.6658 36.8016 28.8686C37.3658 29.1005 37.8409 29.4773 38.0784 30.028C38.3753 30.6657 38.9692 31.2164 39.3552 31.8251Z" fill="#FFE5CC"/>
<path d="M35.8218 35.941C36.0296 35.6221 36.3266 35.3903 36.7423 35.1584C37.6033 34.6946 37.7518 33.6802 37.8409 32.8396C37.9893 31.7672 37.9597 30.5498 37.5737 29.5354C37.2173 28.6078 36.0296 28.231 35.1092 28.1151C33.9809 27.9702 32.8229 28.1151 31.7539 28.5209C30.1802 29.1296 28.8738 30.5788 28.1611 32.057C27.3001 33.8541 27.2704 35.6801 27.4188 37.6221C27.4782 38.2597 27.4782 38.7235 27.9533 39.2452C28.2502 39.564 28.6065 39.7959 28.9628 39.9988C30.9819 41.1292 33.5355 41.3321 35.7327 40.5495C36.0593 40.4336 36.386 40.2887 36.6532 40.0858C37.3064 39.5351 37.2173 38.7815 36.6829 38.1728C36.4156 37.8539 35.9406 37.825 35.7327 37.4482C35.6436 37.2743 35.6139 37.0424 35.6139 36.8395C35.6139 36.4627 35.6733 36.1728 35.8218 35.941Z" fill="#733118"/>
<path d="M62.5451 28.3179L52.2418 22.521C51.9152 22.3471 51.6182 22.3181 51.4104 22.4341L50.0445 23.1877C50.2524 23.0717 50.5493 23.0717 50.8759 23.2746L61.2089 29.1005C61.8621 29.4773 62.3669 30.3469 62.3669 31.0715L62.3372 41.9407C62.3372 42.2885 62.2184 42.5494 61.9809 42.6653L63.3468 41.9117C63.5546 41.7958 63.6734 41.5349 63.7031 41.1871L63.7328 30.3179C63.7328 29.5933 63.1983 28.6947 62.5451 28.3179Z" fill="#8482FF"/>
<path d="M61.2089 29.1005C61.8621 29.4773 62.3669 30.3469 62.3669 31.0715L62.3372 41.9407C62.3372 42.6653 61.8027 42.9552 61.1495 42.6074L50.8165 36.7815C50.1633 36.4047 49.6585 35.5351 49.6585 34.8105L49.6882 23.9413C49.6882 23.2167 50.2226 22.9268 50.8759 23.2746L61.2089 29.1005Z" fill="#4D4BB7"/>
<path d="M55.6564 29.3034C53.8452 28.289 52.3605 29.1005 52.3605 31.1295C52.3605 33.1584 53.8452 35.6511 55.6564 36.6655C57.4676 37.68 58.9523 36.8684 58.9523 34.8395C58.9523 32.7816 57.4973 30.3179 55.6564 29.3034ZM54.8547 34.2308V30.9266L57.4083 34.0279L54.8547 34.2308Z" fill="white"/>
<path d="M45.2343 52.3462C48.5005 52.6071 51.7667 52.3752 55.0329 52.1144C55.0625 52.1144 55.0625 52.1144 55.0922 52.1144C55.9236 52.0274 56.1018 51.3608 56.4284 50.7231C56.7253 50.1724 56.9629 49.5927 57.2301 49.013C58.5959 45.8827 59.7837 42.7233 60.8229 39.4771C61.001 39.1872 61.3277 38.9843 61.5949 38.7814C62.7232 37.9119 63.6437 36.7525 64.2672 35.4772C64.4751 35.0714 64.6235 34.5787 64.4157 34.1729C64.3563 34.0569 64.2375 33.941 64.2078 33.8251C64.1485 33.6801 64.1781 33.5062 64.1188 33.3323C64 32.9845 63.5843 32.7816 63.4061 32.4628C63.3468 32.3179 63.2874 32.1729 63.1389 32.115C63.0201 32.057 62.8717 32.1439 62.8123 32.2309C62.7232 32.3179 62.6935 32.4338 62.6341 32.5497C62.3669 33.2164 61.8324 33.7671 61.1792 34.0859C61.0604 34.1439 60.8823 34.2019 60.7932 34.1149C61.001 33.7961 61.1495 33.4483 61.2386 33.1004C61.298 32.8975 61.3277 32.6657 61.2386 32.4628C61.1495 32.2599 60.912 32.115 60.7041 32.2309C60.4963 32.3179 60.4666 32.5787 60.4072 32.7816C60.3181 33.1294 60.1697 33.4483 59.9915 33.7381C59.7837 34.0279 59.5164 34.2888 59.3086 34.6076C59.1304 34.8685 59.0116 35.1583 58.9226 35.4482C58.7741 35.9699 58.7147 36.5496 58.685 37.1003C58.685 37.3902 58.6256 37.709 58.5663 37.9988C58.5663 38.0278 58.5366 38.0568 58.5366 38.0858C58.2099 39.0133 53.6373 47.4188 52.9544 48.4043C52.7465 48.4043 52.5684 48.4043 52.3902 48.3753C50.2227 48.1435 48.0551 47.7956 46.0657 46.9261C45.0562 46.4913 44.106 45.9116 43.0668 45.6218C41.9978 45.303 40.7805 45.303 39.8897 45.9406C39.1771 46.4623 38.8207 47.2739 38.6426 48.0855C37.9894 51.2448 42.0869 52.0274 44.4029 52.3172C44.6702 52.2883 44.9374 52.3172 45.2343 52.3462Z" fill="#FFE5CC"/>
<path d="M48.7084 49.7956C48.7084 50.897 48.4411 51.9405 47.9067 52.897C47.7285 53.2448 47.5207 53.3607 47.105 53.3607C46.808 53.3607 46.5111 53.3317 46.2142 53.2738C44.5514 53.0419 42.8886 52.6941 41.2852 52.2013C40.5132 51.9695 39.86 51.7956 39.1771 51.3608C38.7911 51.1289 38.4644 50.8101 38.2566 50.4333C37.8706 49.8246 37.7518 49.1 37.8706 48.3754C38.1081 47.1 38.9989 45.9407 40.246 45.4479C40.3945 45.39 40.5726 45.332 40.7508 45.303C41.1071 45.245 41.4634 45.274 41.8494 45.303C42.8589 45.4479 43.8685 45.7957 44.8186 46.1436C45.8579 46.4914 46.8971 46.8682 47.9067 47.245C48.352 47.4189 48.3817 47.7957 48.5005 48.2015C48.649 48.7232 48.7084 49.2449 48.7084 49.7956Z" fill="#F2F2F2"/>
<path d="M48.7974 27.7093C48.5005 27.8832 48.2036 28.0282 47.9957 28.289C47.6691 28.6658 47.6097 29.1875 47.6691 29.6513C47.6988 29.8542 47.7582 30.0571 47.877 30.231C47.9957 30.4049 48.2036 30.5208 48.4114 30.5208C48.6193 30.4918 48.7677 30.3759 48.9162 30.202C49.035 30.0281 49.1537 29.8542 49.2131 29.6513C49.3319 29.2455 49.3022 28.8107 49.5397 28.4629C49.6585 28.318 49.807 28.2021 49.9554 28.0571C50.1336 27.9122 50.3117 27.7383 50.4602 27.5354C50.5493 27.3905 50.6384 27.2456 50.6681 27.0717C50.6977 26.8978 50.6681 26.7238 50.579 26.5789C50.3117 26.1731 49.9851 26.7528 49.807 26.9267C49.4804 27.2166 49.1537 27.4774 48.7974 27.7093Z" fill="#FFE5CC"/>
<path d="M92.3266 63.8821C94.2566 64.3169 96.1569 64.7517 98.0869 65.2154C99.2449 65.4763 100.403 65.7372 101.472 66.2009C102.571 66.6647 103.58 67.3023 104.293 68.2298C104.322 68.2878 104.382 68.3458 104.322 68.4037C104.293 68.4327 104.263 68.4617 104.204 68.4617C102.719 68.7516 101.205 69.0414 99.6903 68.9255C98.5323 68.8095 97.404 68.4617 96.3351 68.0269C95.1474 67.5342 93.9597 66.9545 92.8611 66.2879C91.9703 65.7661 91.1092 65.1285 90.6341 64.2589C90.5747 64.143 90.5153 64.0271 90.545 63.9111C90.5747 63.8242 90.6638 63.7372 90.7529 63.6793C90.9904 63.5343 91.228 63.3604 91.4952 63.5343C91.7624 63.7082 92.0297 63.7952 92.3266 63.8821Z" fill="#FFB78C"/>
<path d="M116.318 75.9108C116.318 78.4904 114.448 81.6207 112.161 82.925C111.003 83.5917 109.934 83.6497 109.192 83.1859C109.162 83.1859 109.162 83.1859 109.133 83.1569C107.767 82.3454 106.163 81.9106 104.619 81.6497C102.452 81.3019 100.195 81.3019 97.9979 81.128C97.0477 81.07 96.0975 80.9541 95.2068 80.6063C94.1972 80.2295 93.3361 79.5628 92.5047 78.8672C91.7921 78.2585 91.1092 77.6209 90.4263 76.9832C88.4072 75.0992 86.3881 73.1862 84.3393 71.3022C84.1018 71.0703 83.8345 70.8385 83.6861 70.5776C83.5079 70.3167 83.6267 69.9689 83.7455 69.7081C83.8939 69.4472 84.1315 69.2443 84.3393 69.0414L84.369 69.0124C84.3987 68.9834 84.4284 68.9255 84.3987 68.8965C84.3987 68.8675 84.369 68.8675 84.3393 68.8385L84.3096 68.8095C83.8345 68.4327 83.3595 68.0559 82.8844 67.6791C82.5874 67.4473 82.2905 67.1864 82.2014 66.8386C82.1124 66.5198 82.2608 66.1719 82.5281 65.9401C82.6468 65.8241 82.7953 65.7372 82.9438 65.7082C83.0031 65.6792 83.0625 65.6792 83.1219 65.6792C83.2407 65.6792 83.3298 65.7082 83.4485 65.6792C83.211 65.5053 82.9735 65.3604 82.7359 65.1865C82.5281 65.0126 82.2905 64.8676 82.0827 64.7227C81.8451 64.5488 81.6076 64.2879 81.6076 63.9981C81.5779 63.5343 81.9045 63.0996 82.2905 62.9257C82.8547 62.6648 83.597 62.8967 84.1018 63.2155C84.1612 63.2445 84.2205 63.3025 84.2799 63.3314C84.2205 63.3025 84.1908 63.1575 84.1315 63.0996C84.0721 63.0126 84.0127 62.9257 83.9236 62.8387C83.8939 62.7807 83.8642 62.7518 83.8048 62.6938C83.6861 62.5778 83.597 62.4329 83.5079 62.288C83.3001 61.9402 83.1219 61.5054 83.3595 61.1286C83.5673 60.8388 83.9236 60.6938 84.2799 60.6938C84.6956 60.6938 85.0816 60.8098 85.4676 60.9257C86.8335 61.3605 88.1993 61.8822 89.5058 62.4619C90.0996 62.7228 90.7232 63.0126 91.2577 63.3604C91.8515 63.7372 92.3266 64.172 92.8611 64.6068C94.5832 65.969 96.7508 66.7806 98.948 66.8966C100.017 66.9545 101.086 66.8676 102.125 67.0415C103.194 67.2444 104.204 67.7081 105.154 68.1719C106.757 68.9545 111.567 71.5051 114.685 73.1283C114.834 73.2152 114.982 73.2732 115.13 73.3601C115.902 73.8529 116.318 74.7224 116.318 75.9108Z" fill="#FFE5CC"/>
<path d="M116.318 75.9107C116.318 78.4904 114.447 81.6207 112.161 82.925C111.003 83.5916 109.934 83.6496 109.192 83.1859C109.162 83.1859 109.162 83.1859 109.133 83.1569C108.42 82.7221 108.004 81.8236 108.004 80.6062C108.004 78.0266 109.875 74.8963 112.161 73.592C113.171 73.0123 114.091 72.8963 114.804 73.1572C114.952 73.2152 115.101 73.3021 115.249 73.3891C115.902 73.8528 116.318 74.7224 116.318 75.9107Z" fill="#FFB78C"/>
<path d="M83.597 61.1865C83.4485 61.3604 83.3891 61.5923 83.3891 61.8242C83.3891 61.9112 83.3891 61.9981 83.4188 62.0851C83.4485 62.172 83.5079 62.259 83.5673 62.3169C83.8642 62.6937 84.2502 62.9836 84.6362 63.2445C84.9035 62.8677 84.9628 62.3749 84.9925 61.9112C84.9925 61.8822 84.9925 61.8532 84.9925 61.8242C84.9925 61.7952 84.9628 61.7662 84.9331 61.7372C84.7847 61.5633 84.6362 61.3604 84.4878 61.1865C84.369 61.0416 84.2799 60.9257 84.0721 60.9547C83.8939 60.9547 83.7158 61.0416 83.597 61.1865Z" fill="#FFB78C"/>
<path d="M81.6967 63.8822C81.667 64.0561 81.667 64.23 81.6967 64.4039C81.6967 64.4908 81.7264 64.6068 81.7858 64.6647C81.8155 64.7227 81.8749 64.7517 81.9342 64.7807C82.3796 65.0125 82.825 65.2154 83.3298 65.3314C83.4486 64.9836 83.4783 64.6068 83.4783 64.23C83.4783 64.172 83.4783 64.114 83.4486 64.085C83.4486 64.0561 83.4189 64.0271 83.3892 63.9981C83.1516 63.7082 82.7953 63.5054 82.439 63.4184C82.2609 63.3604 82.1421 63.3314 81.9936 63.4474C81.8452 63.5343 81.7264 63.7082 81.6967 63.8822Z" fill="#FFB78C"/>
<path d="M82.3499 66.8385C82.3202 66.9834 82.2608 67.1283 82.3202 67.2733C82.3499 67.3602 82.4093 67.4182 82.4984 67.5052C82.8844 67.882 83.3594 68.2298 83.8642 68.4616C83.8939 68.2298 83.9236 67.9689 83.9236 67.737C83.8939 67.5052 83.8345 67.2443 83.6861 67.0704C83.5079 66.8385 83.211 66.6936 82.9437 66.6066C82.8547 66.5776 82.6765 66.4617 82.5577 66.5197C82.439 66.5197 82.3796 66.7226 82.3499 66.8385Z" fill="#FFB78C"/>
<path d="M83.9236 70.7225C84.2502 70.9254 84.5472 71.1573 84.8738 71.3602C84.9035 71.3602 84.9035 71.3891 84.9332 71.3602C84.9629 71.3602 84.9629 71.3312 84.9629 71.3022C84.9926 71.0703 84.9925 70.8094 84.9035 70.5776C84.8144 70.4037 84.6659 70.2587 84.5175 70.1138C84.369 69.9979 84.2205 69.824 84.0127 69.766C83.6861 69.679 83.4188 69.9689 83.5376 70.2877C83.5673 70.4906 83.7752 70.6065 83.9236 70.7225Z" fill="#FFB78C"/>
<path d="M93.5143 78.0266C92.4454 77.5919 91.614 76.7513 90.8123 75.9397C89.5355 74.6644 88.2884 73.4181 87.0117 72.1428C86.5366 71.679 86.0615 71.1863 85.6458 70.6645C85.2004 70.1138 84.8738 69.5631 84.369 69.0994C84.3987 69.0704 84.4284 69.0124 84.3987 68.9834C84.3987 68.9545 84.369 68.9545 84.3393 68.9255L84.3096 68.8965C84.9035 69.2443 85.4083 69.795 85.8536 70.2877C87.0117 71.5921 88.1103 72.9253 89.3574 74.1137C90.7529 75.447 92.2969 76.6064 93.5143 78.0266Z" fill="#FFB78C"/>
<path d="M92.7422 74.5484C91.5249 73.6789 90.545 72.6064 89.5355 71.534C88.6744 70.6065 87.843 69.708 87.0116 68.7805C86.6553 68.3747 86.299 67.9979 85.8833 67.6501C85.4973 67.3312 85.0816 67.0414 84.6659 66.7515C84.1908 66.4327 83.7454 66.0849 83.2703 65.824C83.2406 65.795 83.211 65.795 83.1813 65.7661C83.3 65.7661 83.3891 65.795 83.5079 65.7661C83.2703 65.5921 83.0328 65.4472 82.7953 65.2733C83.9236 65.795 84.9628 66.6066 85.8536 67.4182C86.3287 67.8529 86.7444 68.3167 87.1898 68.7515C89.001 70.6934 90.8716 72.6354 92.7422 74.5484Z" fill="#FFB78C"/>
<path d="M93.2471 70.4906C92.5641 70.1428 92.0297 69.6211 91.4952 69.1283C89.773 67.5342 87.9321 66.056 85.9724 64.6937C85.3785 64.2879 84.7253 63.8531 84.2205 63.3604C84.1908 63.3314 84.1612 63.3024 84.1612 63.2734C84.2205 63.3024 84.2799 63.3604 84.3393 63.3894C84.2799 63.3604 84.2502 63.2155 84.1908 63.1575C84.1315 63.0705 84.0721 62.9836 84.0127 62.8966C83.983 62.8387 83.9533 62.8097 83.8939 62.7517C84.0721 62.8676 84.2502 62.9836 84.4284 63.0995C86.0615 64.2009 87.5164 65.4763 89.001 66.7516C89.5355 67.2153 90.07 67.6791 90.6044 68.1429C91.4655 68.9254 92.3563 69.708 93.2471 70.4906Z" fill="#FFB78C"/>
<path d="M96.0678 70.8673C96.246 70.8963 96.3945 70.8963 96.5726 70.8673C96.6617 70.8673 96.7508 70.8384 96.8102 70.8094C96.8695 70.7804 96.8992 70.6934 96.9289 70.6355C97.018 70.4326 96.9883 70.1717 96.8992 69.9688C96.6617 69.4181 95.7709 68.6065 95.2365 69.3022C94.7614 69.9108 95.3849 70.7804 96.0678 70.8673Z" fill="#FFB78C"/>
<path d="M94.8504 75.476C94.9395 75.476 95.0583 75.476 95.1473 75.447C95.3552 75.389 95.474 75.1281 95.474 74.9253C95.4146 74.2296 94.1675 73.8818 93.6627 74.3456C93.0095 74.9253 94.405 75.418 94.8504 75.476Z" fill="#FFB78C"/>
<path d="M94.8802 78.4033C95.2068 78.2584 94.5535 76.6933 93.8409 77.3019C93.6628 77.4469 93.5143 77.7077 93.6331 77.9396C93.7815 78.1715 94.5832 78.5193 94.8802 78.4033Z" fill="#FFB78C"/>
<path d="M94.7614 79.8817C94.7911 79.8527 94.7911 79.8237 94.7911 79.7947C94.7911 79.4179 93.93 78.7803 93.7519 79.302C93.7222 79.4469 93.7816 79.6788 93.9003 79.7657C94.0488 79.9107 94.6426 80.0266 94.7614 79.8817Z" fill="#FFB78C"/>
<path d="M111.419 11.0431C109.726 10.0866 108.182 9.99963 107.084 10.6373L105.332 11.6228C106.431 10.9851 107.975 11.0721 109.667 12.0286C113.022 13.9126 115.754 18.5211 115.724 22.2891C115.724 24.1731 115.041 25.4774 113.943 26.0861L115.695 25.1006C116.793 24.4919 117.476 23.1586 117.476 21.3036C117.476 17.5356 114.774 12.9271 111.419 11.0431Z" fill="#4D4D4D"/>
<path d="M109.667 12.0286C113.022 13.9126 115.754 18.5212 115.724 22.2892C115.724 26.0572 112.993 27.5644 109.608 25.6804C106.252 23.7964 103.521 19.1878 103.55 15.4198C103.58 11.6518 106.312 10.1446 109.667 12.0286Z" fill="black"/>
<path d="M109.815 14.7821C107.707 13.5938 105.985 14.5503 105.985 16.898C105.985 19.2747 107.707 22.1442 109.815 23.3326C111.924 24.521 113.646 23.5645 113.646 21.2167C113.646 18.869 111.953 15.9995 109.815 14.7821ZM108.895 20.5211V16.6661L111.864 20.2602L108.895 20.5211Z" fill="white"/>
<path d="M114.329 31.0135L108.598 27.7962C107.707 27.3035 106.876 27.2455 106.312 27.5644L104.56 28.5498C105.154 28.231 105.955 28.26 106.846 28.7817L112.577 31.999C114.358 33.0135 115.784 35.4482 115.784 37.4481L115.754 43.8537C115.754 44.8392 115.398 45.5348 114.804 45.8826L116.556 44.8972C117.15 44.5783 117.506 43.8827 117.506 42.8682L117.536 36.4626C117.536 34.4337 116.11 31.999 114.329 31.0135Z" fill="#FFD166"/>
<path d="M112.577 31.999C114.358 33.0135 115.784 35.4482 115.784 37.4481L115.754 43.8537C115.754 45.8536 114.299 46.6652 112.517 45.6508L106.787 42.4335C105.005 41.419 103.55 38.9843 103.58 36.9843L103.61 30.5787C103.61 28.5788 105.065 27.7672 106.846 28.7817L112.577 31.999Z" fill="#FFAD66"/>
<path d="M109.815 33.0425C107.707 31.8541 105.985 32.8106 105.985 35.1584C105.985 37.5351 107.707 40.4046 109.815 41.593C111.924 42.7813 113.646 41.8248 113.646 39.4771C113.646 37.1004 111.953 34.2309 109.815 33.0425ZM108.895 38.7525V34.8975L111.864 38.4916L108.895 38.7525Z" fill="white"/>
<path d="M116.853 52.1433L106.134 46.1145C105.926 45.9985 105.748 45.9985 105.599 46.0565L103.847 47.042C103.996 46.955 104.174 46.984 104.382 47.1L115.101 53.1288C115.516 53.3606 115.843 53.9113 115.843 54.3751L115.813 66.3747C115.813 66.6066 115.724 66.7515 115.605 66.8385L117.357 65.853C117.476 65.7661 117.565 65.6211 117.565 65.3893L117.595 53.3896C117.595 52.9259 117.268 52.3752 116.853 52.1433Z" fill="#8482FF"/>
<path d="M115.13 53.1288C115.546 53.3607 115.873 53.9114 115.873 54.3751L115.843 66.3748C115.843 66.8385 115.516 67.0125 115.101 66.7806L104.382 60.7518C103.966 60.5199 103.639 59.9692 103.639 59.5344L103.669 47.5348C103.669 47.071 103.996 46.8971 104.411 47.129L115.13 53.1288Z" fill="#4D4BB7"/>
<path d="M109.815 52.636C107.707 51.4476 105.985 52.4041 105.985 54.7519C105.985 57.1286 107.707 59.9981 109.815 61.1865C111.924 62.3748 113.646 61.4184 113.646 59.0706C113.646 56.7228 111.953 53.8244 109.815 52.636ZM108.895 58.375V54.52L111.864 58.1141L108.895 58.375Z" fill="white"/>
<path fill-rule="evenodd" clip-rule="evenodd" d="M113.913 67.7661V66.9835L112.785 66.3458V67.1284L113.913 67.7661Z" fill="#231F20"/>
<path fill-rule="evenodd" clip-rule="evenodd" d="M115.932 68.8964V68.1139L114.804 67.4762V68.2878L115.932 68.8964Z" fill="#231F20"/>
<path fill-rule="evenodd" clip-rule="evenodd" d="M118.07 70.1138L117.714 69.1283L116.734 68.5776L116.853 69.4472C117.268 69.6501 117.654 69.882 118.07 70.1138Z" fill="#231F20"/>
<path fill-rule="evenodd" clip-rule="evenodd" d="M107.826 64.3459V63.5633L106.698 62.9257V63.7082L107.826 64.3459Z" fill="#231F20"/>
<path fill-rule="evenodd" clip-rule="evenodd" d="M109.845 65.4763V64.6937L108.717 64.056V64.8386L109.845 65.4763Z" fill="#231F20"/>
<path fill-rule="evenodd" clip-rule="evenodd" d="M111.864 66.6066V65.8241L110.736 65.1864V65.998L111.864 66.6066Z" fill="#231F20"/>
<path fill-rule="evenodd" clip-rule="evenodd" d="M102.244 59.6504L102.927 59.5344V58.433L102.214 58.2881C102.214 58.7518 102.214 59.1866 102.244 59.6504Z" fill="#231F20"/>
<path fill-rule="evenodd" clip-rule="evenodd" d="M103.639 61.9401L104.055 61.4184C103.728 61.2444 103.402 60.8676 103.194 60.4908L102.6 60.7807C102.867 61.2734 103.253 61.7082 103.639 61.9401Z" fill="#231F20"/>
<path fill-rule="evenodd" clip-rule="evenodd" d="M105.777 63.1864L105.807 62.4328L104.827 61.8531L104.56 62.5198L105.777 63.1864Z" fill="#231F20"/>
<path fill-rule="evenodd" clip-rule="evenodd" d="M102.214 52.6651L102.897 53.0419V51.7956L102.214 51.3898V52.6651Z" fill="#231F20"/>
<path fill-rule="evenodd" clip-rule="evenodd" d="M102.214 54.9258L102.897 55.3316V54.0563L102.214 53.6505V54.9258Z" fill="#231F20"/>
<path fill-rule="evenodd" clip-rule="evenodd" d="M102.214 57.1866L102.897 57.5344V56.317L102.214 55.9113V57.1866Z" fill="#231F20"/>
<path fill-rule="evenodd" clip-rule="evenodd" d="M102.214 45.8537L102.897 46.2595V45.1001L102.214 44.5204V45.8537Z" fill="#231F20"/>
<path fill-rule="evenodd" clip-rule="evenodd" d="M102.214 48.1144L102.897 48.5202V47.2449L102.214 46.8391V48.1144Z" fill="#231F20"/>
<path fill-rule="evenodd" clip-rule="evenodd" d="M102.214 50.3753L102.897 50.7811V49.5058L102.214 49.1V50.3753Z" fill="#231F20"/>
<path fill-rule="evenodd" clip-rule="evenodd" d="M105.183 42.9552L105.332 43.8247L106.371 44.4044V43.5929L105.183 42.9552Z" fill="#231F20"/>
<path fill-rule="evenodd" clip-rule="evenodd" d="M103.075 41.9408L103.58 42.9553C103.877 42.9553 104.233 43.2161 104.56 43.39L104.233 42.4335C103.847 42.2017 103.432 41.9408 103.075 41.9408Z" fill="#231F20"/>
<path fill-rule="evenodd" clip-rule="evenodd" d="M102.214 43.4479L102.897 44.2305C102.897 44.0566 102.897 43.8537 102.897 43.6798C102.897 43.5059 102.956 43.3609 103.016 43.216L102.392 42.2595C102.303 42.4044 102.244 42.5783 102.214 42.7812C102.214 43.0131 102.214 43.216 102.214 43.4479Z" fill="#231F20"/>
<path fill-rule="evenodd" clip-rule="evenodd" d="M111.33 46.4044V47.187L112.458 47.8247V47.0421L111.33 46.4044Z" fill="#231F20"/>
<path fill-rule="evenodd" clip-rule="evenodd" d="M109.311 45.245V46.0566L110.439 46.6942V45.8827L109.311 45.245Z" fill="#231F20"/>
<path fill-rule="evenodd" clip-rule="evenodd" d="M107.292 44.1146V44.8972L108.42 45.5349V44.7523L107.292 44.1146Z" fill="#231F20"/>
<path fill-rule="evenodd" clip-rule="evenodd" d="M117.476 49.8826L117.239 50.5492C117.565 50.7231 117.892 50.926 118.218 51.0999L118.664 50.6072C118.278 50.3173 117.892 50.1144 117.476 49.8826Z" fill="#231F20"/>
<path fill-rule="evenodd" clip-rule="evenodd" d="M115.368 48.6942V49.4768L116.467 50.0855L116.526 49.3319L115.368 48.6942Z" fill="#231F20"/>
<path fill-rule="evenodd" clip-rule="evenodd" d="M113.349 47.5348V48.3464L114.477 48.984V48.1725L113.349 47.5348Z" fill="#231F20"/>
<path fill-rule="evenodd" clip-rule="evenodd" d="M120 56.4041L119.287 55.9983V57.2446L120 57.6504V56.4041Z" fill="#231F20"/>
<path fill-rule="evenodd" clip-rule="evenodd" d="M119.97 54.0273L119.287 53.9114V55.0128L120 55.3896L119.97 54.0273Z" fill="#231F20"/>
<path fill-rule="evenodd" clip-rule="evenodd" d="M119.525 51.5347L118.931 51.8535C119.169 52.2303 119.287 52.6941 119.287 53.0419L119.97 52.9549C119.97 52.5201 119.792 51.9984 119.525 51.5347Z" fill="#231F20"/>
<path fill-rule="evenodd" clip-rule="evenodd" d="M120 63.1865L119.287 62.8097V64.056L120 64.4618V63.1865Z" fill="#231F20"/>
<path fill-rule="evenodd" clip-rule="evenodd" d="M120 60.9257L119.287 60.5199V61.7952L120 62.201V60.9257Z" fill="#231F20"/>
<path fill-rule="evenodd" clip-rule="evenodd" d="M120 58.6649L119.287 58.2881V59.5344L120 59.9402V58.6649Z" fill="#231F20"/>
<path fill-rule="evenodd" clip-rule="evenodd" d="M119.822 70.0849L119.169 69.1573C119.05 69.4182 118.783 69.5631 118.486 69.5052L118.99 70.5196C119.376 70.5486 119.673 70.4037 119.822 70.0849Z" fill="#231F20"/>
<path fill-rule="evenodd" clip-rule="evenodd" d="M120 67.7951L119.287 67.2444V68.3458L119.97 69.1284C120 68.6936 120 68.2589 120 67.7951Z" fill="#231F20"/>
<path fill-rule="evenodd" clip-rule="evenodd" d="M120 65.4762L119.287 65.0704V66.3458L120 66.7515V65.4762Z" fill="#231F20"/>
<path d="M20.5598 42.9841L21.6882 43.6218C20.4411 44.2884 19.6097 44.3174 19.0752 43.9986L17.9469 43.3609C18.4814 43.6508 19.3128 43.6218 20.5598 42.9841Z" fill="#FFD166"/>
<path d="M15.5418 45.216L14.4135 44.5783C13.7009 44.1726 12.9883 43.4769 12.335 42.4335L13.4633 43.0711C14.1166 44.1436 14.8292 44.8392 15.5418 45.216Z" fill="#FFD166"/>
<path d="M8.71249 31.8541L19.9066 25.5355C20.3816 25.2746 20.7973 25.2456 21.124 25.4196L22.2523 26.0572C21.9553 25.8833 21.51 25.9123 21.0349 26.1732L9.84081 32.4918C8.89065 33.0135 8.14834 34.2888 8.14834 35.3613L8.17803 44.1436C8.17803 44.6653 8.35618 45.0421 8.6828 45.2161L7.55449 44.5784C7.25756 44.4045 7.04971 44.0277 7.04971 43.506L7.02002 34.7236C7.02002 33.6512 7.79203 32.3759 8.71249 31.8541Z" fill="#FFD166"/>
<path d="M9.84082 32.4917C8.89066 33.0135 8.14835 34.2888 8.14835 35.3612L8.17804 44.1436C8.17804 45.187 8.95004 45.6218 9.87051 45.1001L13.4336 43.1001C15.5715 46.5493 18.1547 45.9696 19.8769 45.0131C20.9458 44.4044 21.6287 43.6798 21.6881 43.6218C17.8281 45.6508 18.0063 41.6509 18.125 40.4335L21.0646 38.7814C22.0147 38.2597 22.7571 36.9844 22.7571 35.9119L22.7274 27.1296C22.7274 26.0861 21.9554 25.6514 21.0349 26.1731L9.84082 32.4917Z" fill="#FFAD66"/>
<path d="M10.0783 39.419C10.0783 39.3031 10.0487 39.1872 10.0487 39.0422C10.0487 38.9263 10.0486 38.7814 10.0783 38.6364L9.60326 38.7234C9.54388 38.7234 9.48449 38.6654 9.51418 38.5785L9.78142 37.535C9.81111 37.4481 9.8408 37.3901 9.90019 37.3611C9.90019 37.3611 9.92988 37.3611 9.92988 37.3321L10.405 37.2452C10.5237 36.9553 10.6425 36.6655 10.8207 36.4046L10.5237 36.1148C10.4643 36.0568 10.494 35.9699 10.5534 35.8829L11.2364 34.9554C11.266 34.9264 11.2957 34.8974 11.3254 34.8684C11.3551 34.8395 11.4145 34.8395 11.4442 34.8684L11.7411 35.1583C11.949 34.9264 12.1568 34.7235 12.3944 34.5496V33.9699C12.3944 33.883 12.4537 33.767 12.5428 33.738L13.3742 33.2743C13.4633 33.2453 13.5227 33.2743 13.5227 33.3612V33.9409C13.7602 33.854 13.9681 33.825 14.1759 33.796L14.4728 33.1584C14.5025 33.1004 14.5322 33.0424 14.5916 33.0424C14.6213 33.0134 14.651 33.0134 14.6807 33.0134L15.3636 33.1873C15.423 33.2163 15.4527 33.3033 15.3933 33.3902L15.0964 34.0279C15.2448 34.1148 15.3933 34.2598 15.5121 34.4337L15.9872 33.9699L16.0168 33.9409C16.0762 33.912 16.1356 33.912 16.1356 33.9699L16.4028 34.7235C16.4325 34.7815 16.3732 34.8974 16.3138 34.9554L15.8387 35.4192C15.8387 35.5351 15.8684 35.651 15.8684 35.796C15.8684 35.9409 15.8684 36.0568 15.8387 36.2017L16.3138 36.1148C16.3732 36.1148 16.4325 36.1728 16.4028 36.2597L16.1356 37.3032C16.1059 37.3901 16.0762 37.4481 16.0168 37.4771C16.0168 37.4771 15.9872 37.4771 15.9872 37.506L15.5121 37.593C15.3933 37.8828 15.2745 38.1727 15.0964 38.4336L15.3933 38.7234C15.4527 38.7814 15.423 38.8683 15.3636 38.9553L14.6807 39.8828C14.651 39.9118 14.6213 39.9408 14.5916 39.9697C14.5619 39.9987 14.5025 39.9987 14.4728 39.9697L14.1759 39.6799C13.9681 39.9118 13.7602 40.1147 13.5227 40.2886V40.8683C13.5227 40.9552 13.4633 41.0712 13.3742 41.1001L12.5428 41.5639C12.4537 41.5929 12.3944 41.5639 12.3944 41.4769V40.8972C12.1568 40.9842 11.949 41.0132 11.7411 41.0132L11.4442 41.6508C11.4145 41.7088 11.3848 41.7668 11.3254 41.7668C11.2957 41.7958 11.266 41.7958 11.2364 41.7958L10.5534 41.6219C10.494 41.5929 10.4643 41.5059 10.5237 41.419L10.8207 40.7813C10.6722 40.6654 10.5237 40.5494 10.405 40.3755L9.92988 40.8393L9.90019 40.8683C9.8408 40.8972 9.78142 40.8972 9.78142 40.8393L9.51418 40.0857C9.48449 40.0277 9.54388 39.9118 9.60326 39.8538L10.0783 39.419ZM12.9585 39.6799C14.0868 39.0422 14.9776 37.535 14.9776 36.2597C14.9776 35.0134 14.0571 34.4916 12.9585 35.1293C11.8302 35.767 10.9394 37.2742 10.9394 38.5495C10.9097 39.7958 11.8302 40.3176 12.9585 39.6799Z" fill="white"/>
<path d="M16.967 34.9554C16.9967 34.7525 17.0561 34.5496 17.1155 34.3468L16.8186 34.2598C16.7889 34.2598 16.7592 34.1728 16.7889 34.1149L17.1452 33.3613C17.1749 33.3323 17.2046 33.2743 17.2343 33.2743C17.2639 33.2743 17.2639 33.2453 17.2936 33.2743L17.5906 33.3613C17.7093 33.1584 17.8578 32.9845 17.9766 32.8106L17.8578 32.4917C17.8281 32.4338 17.8578 32.3758 17.9172 32.3178L18.4813 31.7961L18.511 31.7671C18.5407 31.7381 18.6001 31.7381 18.6001 31.7961L18.7189 32.1149C18.808 32.057 18.8673 31.999 18.9564 31.97C19.0455 31.912 19.1346 31.8831 19.194 31.8541L19.3127 31.3903C19.3127 31.3324 19.3721 31.2744 19.4018 31.2744H19.4315L19.9957 31.1584C20.055 31.1584 20.0847 31.1874 20.055 31.2744L19.9363 31.7381C20.0847 31.7381 20.2035 31.7961 20.3223 31.8251L20.6192 31.4193C20.6489 31.3903 20.6489 31.3903 20.6786 31.3613C20.7083 31.3324 20.738 31.3324 20.7677 31.3613L21.124 31.7092C21.1537 31.7381 21.1537 31.8251 21.0943 31.8831L20.7974 32.2888C20.8567 32.4048 20.9161 32.5497 20.9458 32.7236L21.3021 32.5207C21.3615 32.4917 21.3912 32.5207 21.3912 32.5787V33.2453C21.3912 33.3033 21.3615 33.3903 21.3021 33.4192L20.9458 33.6221C20.9161 33.825 20.8567 34.0279 20.7974 34.2308L21.0943 34.3178C21.124 34.3178 21.1537 34.4047 21.124 34.4627L20.7677 35.2163C20.738 35.2453 20.7083 35.3032 20.6786 35.3032C20.6489 35.3032 20.6489 35.3322 20.6192 35.3032L20.3223 35.2163C20.2035 35.4192 20.055 35.5931 19.9363 35.767L20.055 36.0858C20.0847 36.1438 20.055 36.2018 19.9957 36.2597L19.4315 36.7815L19.4018 36.8104C19.3721 36.8394 19.3127 36.8394 19.3127 36.7815L19.194 36.4626C19.1049 36.5206 19.0455 36.5786 18.9564 36.6076C18.8673 36.6655 18.7783 36.6945 18.7189 36.7235L18.6001 37.1873C18.6001 37.2452 18.5407 37.3032 18.511 37.3032H18.4813L17.9172 37.4191C17.8578 37.4191 17.8281 37.3901 17.8578 37.3032L17.9766 36.8394C17.8281 36.8394 17.7093 36.7815 17.5906 36.7525L17.2936 37.1583C17.2639 37.1872 17.2639 37.1872 17.2343 37.2162C17.2046 37.2452 17.1749 37.2452 17.1452 37.2162L16.7889 36.8684C16.7592 36.8394 16.7592 36.7525 16.8186 36.6945L17.1155 36.2887C17.0561 36.1728 16.9967 36.0279 16.967 35.854L16.6107 36.0568C16.5513 36.0858 16.5216 36.0568 16.5216 35.9989V35.3322C16.5216 35.2743 16.5513 35.1873 16.6107 35.1583L16.967 34.9554ZM18.9861 35.8829C19.7878 35.4192 20.441 34.3468 20.441 33.4482C20.441 32.5497 19.7878 32.2019 18.9861 32.6367C18.1844 33.1004 17.5312 34.1728 17.5312 35.0714C17.5609 35.9699 18.1844 36.3177 18.9861 35.8829Z" fill="white"/>
<path d="M12.4241 78.2874L0.161068 71.3891C-0.0764717 71.2442 -0.046779 71.0123 0.220453 70.8674L12.2459 64.085C12.5131 63.94 12.9288 63.911 13.1664 64.056L25.4294 70.9543C25.6669 71.0992 25.6372 71.3311 25.37 71.476L13.3445 78.2584C13.0773 78.4034 12.6616 78.4323 12.4241 78.2874Z" fill="#F2F2F2"/>
<path d="M12.8991 71.679L1.17059 65.0995L12.8101 58.52L24.5386 65.1285L12.8991 71.679Z" fill="#F2F2F2"/>
<path d="M12.8991 70.9834L2.44739 65.0995L12.8101 59.2446L23.2618 65.1285L12.8991 70.9834Z" fill="#E6E6E6"/>
<path d="M12.8991 77.5049V71.6789L24.5386 65.1284V70.9253L12.8991 77.5049Z" fill="#BFBFBF"/>
<path d="M1.17059 65.0995V70.8964L12.8991 77.5049V71.679L1.17059 65.0995Z" fill="#E6E6E6"/>
<path d="M5.00093 66.5198L4.16954 66.056L4.02108 64.201L3.75385 60.2301L4.55554 60.6069L4.79308 63.7662L5.00093 66.5198Z" fill="#4D4D4D"/>
<path d="M4.55554 60.6069L3.75385 60.2301L13.9681 54.4622L14.7698 54.8679L4.55554 60.6069Z" fill="#737373"/>
<path d="M15.6606 66.7516L11.2364 69.2443L10.5238 69.6501L10.4941 69.6791L10.4644 69.6211L10.0487 69.3602L9.2173 68.8965L8.77191 68.6646L7.94052 68.2008L7.52482 67.94L6.69343 67.4762L6.27774 67.2443L5.44635 66.7806L5.00096 66.5197L4.79311 63.7662L4.55557 60.6069L14.7698 54.8679L14.8292 55.4186L14.8886 56.2302L14.9183 56.8099L14.9776 57.6215L15.037 58.2012L15.0964 59.0127L15.1261 59.5924L15.1855 60.404L15.2152 60.6069V60.9547L15.3043 61.7952L15.6606 66.7516Z" fill="#1F2125"/>
<path d="M6.27772 67.2444L5.44633 66.7806L5.1791 63.5633L5.00095 60.9547L5.83234 61.3605L5.95111 63.1286L6.27772 67.2444Z" fill="#4D4D4D"/>
<path d="M5.83234 61.3604L5.00095 60.9547L15.2152 55.2157L16.0466 55.5925L5.83234 61.3604Z" fill="#737373"/>
<path d="M16.9374 67.5052L11.8303 70.3747L11.2958 70.0848L10.5238 69.6501L10.4941 69.6791L10.4644 69.6211L10.0487 69.3602L9.21731 68.8965L8.77192 68.6646L7.94053 68.2008L7.52484 67.94L6.69345 67.4762L6.27775 67.2443L5.95114 63.1285L5.83237 61.3605L14.8886 56.2302L16.0466 55.5925L16.0763 56.1722L16.1357 56.9838L16.1951 57.5345L16.2544 58.3751L16.2841 58.9258L16.3435 59.7373L16.3732 60.317L16.4623 61.1286V61.3025L16.9374 67.5052Z" fill="#1F2125"/>
<path d="M7.52483 67.94L6.69344 67.4762L6.33713 62.8967L6.27774 61.6793L7.07944 62.0851L7.10913 62.4619L7.52483 67.94Z" fill="#4D4D4D"/>
<path d="M7.07941 62.085L6.24802 61.6793L16.4622 55.9403L17.2936 56.3171L7.07941 62.085Z" fill="#737373"/>
<path d="M18.1547 67.9979L12.8992 70.9834L11.8302 70.3747L11.2958 70.0848L10.5238 69.6501L10.4941 69.6791L10.4644 69.6211L10.0487 69.3602L9.2173 68.8965L8.77191 68.6646L7.94052 68.2008L7.52482 67.94L7.10913 62.4619L7.07944 62.0851L14.9776 57.6214L17.2937 56.3171L17.353 56.8968L17.4124 57.7084L17.4421 58.2591V58.2881L17.5015 59.0997L17.5312 59.6504L17.6203 60.4619L17.7094 61.9981L18.1547 67.9979Z" fill="#1F2125"/>
<path d="M8.77189 68.6646L7.9405 68.2008L7.52481 62.4329L8.3562 62.8097L8.77189 68.6646Z" fill="#4D4D4D"/>
<path d="M8.35617 62.8097L7.52478 62.4329L17.739 56.6649L18.5704 57.0417L8.35617 62.8097Z" fill="#737373"/>
<path d="M19.3127 67.3312L18.1547 67.9979L12.8992 70.9833L11.8302 70.3746L11.2958 70.0848L10.5238 69.65L10.4941 69.679L10.4644 69.621L10.0487 69.3602L9.21728 68.8964L8.7719 68.6645L8.3562 62.8096L13.7305 59.7662L15.0964 59.0126L16.2544 58.375L17.4124 57.7083L18.5704 57.0707L18.6001 57.6214L18.6595 58.433L18.7189 59.0126L18.7783 59.8242L18.9861 62.7227L19.3127 67.3312Z" fill="#1F2125"/>
<path d="M10.0487 69.3602L9.2173 68.8964L8.77191 63.1575L9.6033 63.5343L10.0487 69.3602Z" fill="#4D4D4D"/>
<path d="M9.60333 63.5343L8.77194 63.1575L18.9862 57.3895L19.8176 57.7953L9.60333 63.5343Z" fill="#737373"/>
<path d="M20.4708 66.6936L19.3127 67.3312L18.1547 67.9979L12.8992 70.9833L11.8302 70.3746L11.2958 70.0848L10.5238 69.65L10.4941 69.679L10.4644 69.621L10.0487 69.3602L9.6033 63.5342L15.0073 60.4909L15.1855 60.4039L16.3435 59.7373L17.5015 59.0996L18.6595 58.4329L19.8175 57.7953L19.8472 58.346L19.9363 59.1576V59.1866L20.2332 63.4183L20.4708 66.6936Z" fill="#1F2125"/>
<path d="M11.2958 70.0848L10.5238 69.65L10.4941 69.679L10.4644 69.621L10.0487 63.8821L10.8801 64.2879L11.2364 69.2442L11.2958 70.0848Z" fill="#4D4D4D"/>
<path d="M10.88 64.2879L10.0486 63.8821L20.2629 58.1432L21.0943 58.52L10.88 64.2879Z" fill="#737373"/>
<path d="M21.6287 66.027L20.4707 66.6937L19.3127 67.3313L18.1547 67.998L12.8991 70.9834L11.8302 70.3747L11.2957 70.0849L11.2363 69.2443L10.88 64.288L15.3042 61.7953L16.3138 61.2156L16.4622 61.1286L17.4718 60.5489L17.6202 60.462L18.7782 59.8243L19.9362 59.1867L21.0943 58.52L21.51 64.143L21.6287 66.027Z" fill="#1F2125"/>
<path d="M13.7602 67.882L15.2449 68.0269V68.6646L12.7507 68.4617L15.2449 65.4473V66.0849L13.7602 67.882Z" fill="#F2F2F2"/>
<path d="M16.3435 68.8965L15.8684 69.1574C16.3435 67.4762 16.6998 66.2009 16.9374 65.3604L17.4718 63.4474L17.9469 63.1865L16.3435 68.8965Z" fill="#F2F2F2"/>
<path d="M19.9363 64.3749L18.4517 64.2299V63.5923L20.9459 63.7952L18.4517 66.8096V66.1719L19.9363 64.3749Z" fill="#F2F2F2"/>
<path d="M71.2449 118.808C68.3944 120.402 63.7921 120.402 60.9416 118.779C58.0911 117.156 58.0614 114.576 60.9119 112.953C63.7624 111.359 68.3647 111.359 71.2152 112.982C74.0657 114.605 74.0657 117.185 71.2449 118.808Z" fill="#F2F2F2"/>
<path d="M72.2589 115.473C72.2697 113.536 69.5 111.951 66.0726 111.933C62.6453 111.915 59.8582 113.47 59.8474 115.407C59.8367 117.344 62.6064 118.929 66.0337 118.947C69.461 118.965 72.2482 117.41 72.2589 115.473Z" fill="#C4C4C4"/>
<path d="M72.0763 103.997H60.0805V114.982C60.0508 115.881 60.6447 116.779 61.8621 117.446C64.2078 118.779 68.0084 118.779 70.3541 117.475C71.5715 116.779 72.1357 115.881 72.106 114.982L72.0763 103.997Z" fill="#D9D9D9"/>
<path d="M72.2793 104.237C72.2898 102.3 69.5199 100.715 66.0925 100.696C62.6652 100.678 59.8783 102.233 59.8678 104.17C59.8573 106.107 62.6272 107.692 66.0545 107.711C69.4818 107.729 72.2688 106.174 72.2793 104.237Z" fill="#F2F2F2"/>
<path d="M67.3552 107.62C65.3658 107.852 63.2279 107.533 61.6839 106.663C61.4167 106.518 61.1495 106.345 60.9416 106.171L62.0106 105.591L67.1474 106.866L67.3552 107.62Z" fill="#FFD166"/>
<path d="M70.948 105.272C70.6807 105.649 70.2947 105.997 69.7603 106.287C67.7115 107.446 64.4156 107.446 62.3371 106.287C61.8027 105.968 61.387 105.62 61.1494 105.243C60.4368 104.2 60.8228 102.953 62.3371 102.113C64.3859 100.953 67.6818 100.953 69.7603 102.113C71.2746 102.953 71.6903 104.2 70.948 105.272Z" fill="#999999"/>
<path d="M70.948 105.272C70.6808 105.649 70.2948 105.997 69.7603 106.287C67.7115 107.446 64.4157 107.446 62.3372 106.287C61.8027 105.968 61.387 105.62 61.1495 105.243C61.4167 104.866 61.8027 104.519 62.3372 104.229C64.386 103.069 67.6818 103.069 69.7603 104.229C70.2948 104.519 70.7105 104.895 70.948 105.272Z" fill="#FFAD66"/>
<path d="M62.3372 102.635C64.3859 101.475 67.7115 101.504 69.7603 102.635C70.6808 103.156 71.1855 103.794 71.2746 104.461C71.4231 103.62 70.9183 102.751 69.7603 102.084C67.7115 100.925 64.3859 100.925 62.3372 102.084C61.2088 102.722 60.7041 103.591 60.8228 104.432C60.9416 103.794 61.4464 103.127 62.3372 102.635Z" fill="#D9D9D9"/>
<path d="M67.2068 117.996H67.1771C67.0583 117.996 66.9395 117.938 66.8802 117.851C66.6426 117.62 66.5535 117.243 66.316 116.982C66.1081 116.779 65.8409 116.663 65.6331 116.46C65.4846 116.315 65.3955 116.112 65.2471 115.967C65.0986 115.823 64.8611 115.707 64.6829 115.823C64.5641 115.909 64.4454 116.083 64.2969 116.054C64.2672 116.054 64.2078 116.025 64.1781 115.996C63.9406 115.794 63.8515 115.504 63.8218 115.185C63.7921 114.895 63.8515 114.576 63.8515 114.286C63.8515 114.141 63.8218 113.996 63.7921 113.852C63.6734 113.533 63.3171 113.33 63.1686 113.011C63.0795 112.837 63.0795 112.634 62.931 112.518C62.7826 112.402 62.6044 112.402 62.4263 112.431C62.3669 112.431 62.3372 112.431 62.3075 112.46C62.2481 112.489 62.2481 112.547 62.2184 112.605C61.9809 113.736 62.2184 114.953 61.7433 116.025C61.6543 116.199 61.5355 116.402 61.3573 116.431C61.2683 116.46 61.1792 116.431 61.1198 116.402C60.8823 116.286 61.001 115.852 61.001 115.62V106.113C61.2089 106.287 61.4464 106.46 61.7433 106.605C63.2874 107.475 65.4549 107.794 67.4146 107.562V116.547C67.3552 116.866 67.5037 117.938 67.2068 117.996Z" fill="#FFAD66"/>
<path d="M89.4389 108.783C89.4512 106.509 86.1909 104.649 82.1568 104.627C78.1227 104.605 74.8425 106.43 74.8301 108.703C74.8178 110.976 78.0781 112.837 82.1122 112.859C86.1463 112.881 89.4265 111.056 89.4389 108.783Z" fill="#F2F2F2"/>
<path d="M88.3301 108.321C88.3409 106.385 85.5712 104.8 82.1439 104.782C78.7165 104.763 75.9294 106.319 75.9187 108.256C75.9079 110.193 78.6776 111.778 82.1049 111.796C85.5322 111.814 88.3194 110.258 88.3301 108.321Z" fill="#C4C4C4"/>
<path d="M88.1103 96.8376H76.1145V107.823C76.0848 108.721 76.6787 109.62 77.8961 110.287C80.2418 111.62 84.0424 111.62 86.3881 110.315C87.6055 109.62 88.1697 108.721 88.14 107.823L88.1103 96.8376Z" fill="#D9D9D9"/>
<path d="M88.3206 97.0855C88.3311 95.1486 85.5613 93.5633 82.1339 93.5448C78.7066 93.5262 75.9197 95.0813 75.9092 97.0182C75.8987 98.9552 78.6686 100.54 82.0959 100.559C85.5232 100.578 88.3101 99.0225 88.3206 97.0855Z" fill="#F2F2F2"/>
<path d="M83.4188 100.49C81.4294 100.722 79.2915 100.403 77.7475 99.5333C77.4803 99.3883 77.2131 99.2144 77.0052 99.0405L78.0742 98.4608L83.211 99.7361L83.4188 100.49Z" fill="#8482FF"/>
<path d="M87.0116 98.113C86.7444 98.4898 86.3584 98.8376 85.8239 99.1274C83.7751 100.287 80.4793 100.287 78.4008 99.1274C77.8663 98.8086 77.4506 98.4608 77.2131 98.084C76.5005 97.0405 76.8865 95.7942 78.4008 94.9536C80.4496 93.7943 83.7455 93.7943 85.8239 94.9536C87.3382 95.8232 87.7242 97.0695 87.0116 98.113Z" fill="#999999"/>
<path d="M87.0116 98.1129C86.7444 98.4897 86.3584 98.8375 85.8239 99.1274C83.7751 100.287 80.4792 100.287 78.4008 99.1274C77.8663 98.8086 77.4506 98.4608 77.2131 98.084C77.4803 97.7072 77.8663 97.3593 78.4008 97.0695C80.4496 95.9101 83.7454 95.9101 85.8239 97.0695C86.3584 97.3883 86.7444 97.7361 87.0116 98.1129Z" fill="#4D4BB7"/>
<path d="M78.4008 95.5044C80.4495 94.345 83.7751 94.374 85.8239 95.5044C86.7444 96.0261 87.2491 96.6637 87.3382 97.3304C87.4867 96.4898 86.9819 95.6203 85.8239 94.9536C83.7751 93.7943 80.4495 93.7943 78.4008 94.9536C77.2724 95.5913 76.7677 96.4608 76.8864 97.3014C77.0052 96.6348 77.51 95.9971 78.4008 95.5044Z" fill="#D9D9D9"/>
<path d="M83.2704 110.866H83.2407C83.1219 110.866 83.0031 110.808 82.9437 110.721C82.7062 110.489 82.6171 110.113 82.3796 109.852C82.1717 109.649 81.9045 109.533 81.6967 109.33C81.5482 109.185 81.4591 108.982 81.3107 108.837C81.1622 108.692 80.9247 108.576 80.7465 108.692C80.6277 108.779 80.509 108.953 80.3605 108.924C80.3308 108.924 80.2714 108.895 80.2417 108.866C80.0042 108.663 79.9151 108.374 79.8854 108.055C79.8557 107.765 79.9151 107.446 79.9151 107.156C79.9151 107.011 79.8854 106.866 79.8557 106.721C79.737 106.403 79.3806 106.2 79.2322 105.881C79.1431 105.707 79.1431 105.504 78.9946 105.388C78.8462 105.272 78.668 105.272 78.4899 105.301C78.4305 105.301 78.4008 105.301 78.3711 105.33C78.3117 105.359 78.3117 105.417 78.282 105.475C78.0445 106.606 78.282 107.823 77.8069 108.895C77.7179 109.069 77.5991 109.272 77.4209 109.301C77.3319 109.33 77.2428 109.301 77.1834 109.272C76.9459 109.156 77.0646 108.721 77.0646 108.49V98.9825C77.2725 99.1565 77.51 99.3304 77.8069 99.4753C79.351 100.345 81.5185 100.664 83.4782 100.432V109.417C83.4188 109.707 83.5673 110.808 83.2704 110.866Z" fill="#4D4BB7"/>
<path d="M115.962 107.997C113.111 109.591 108.509 109.591 105.659 107.968C102.808 106.345 102.778 103.765 105.629 102.142C108.479 100.548 113.082 100.548 115.932 102.171C118.783 103.794 118.812 106.403 115.962 107.997Z" fill="#F2F2F2"/>
<path d="M115.22 107.127C112.814 108.49 108.865 108.49 106.431 107.098C103.996 105.736 103.996 103.504 106.401 102.142C108.806 100.78 112.755 100.78 115.19 102.171C117.625 103.562 117.625 105.765 115.22 107.127Z" fill="#C4C4C4"/>
<path d="M116.793 93.2146H104.797V104.2C104.768 105.098 105.362 105.997 106.579 106.663C108.925 107.997 112.725 107.997 115.071 106.692C116.288 105.997 116.853 105.098 116.823 104.2L116.793 93.2146Z" fill="#D9D9D9"/>
<path d="M116.992 93.4351C117.002 91.4982 114.232 89.9129 110.805 89.8944C107.377 89.8758 104.591 91.4309 104.58 93.3679C104.57 95.3048 107.339 96.8901 110.767 96.9086C114.194 96.9272 116.981 95.3721 116.992 93.4351Z" fill="#F2F2F2"/>
<path d="M112.102 96.8376C110.112 97.0695 107.975 96.7507 106.431 95.8812C106.163 95.7362 105.896 95.5623 105.688 95.3884L106.757 94.8087L111.894 96.084L112.102 96.8376Z" fill="#737373"/>
<path d="M115.695 94.4609C115.427 94.8377 115.041 95.1855 114.507 95.4753C112.458 96.6347 109.162 96.6347 107.084 95.4753C106.549 95.1565 106.134 94.8087 105.896 94.4319C105.183 93.3884 105.57 92.1421 107.084 91.3015C109.133 90.1422 112.428 90.1422 114.507 91.3015C116.021 92.1711 116.407 93.4174 115.695 94.4609Z" fill="#999999"/>
<path d="M115.695 94.461C115.427 94.8378 115.041 95.1856 114.507 95.4754C112.458 96.6348 109.162 96.6348 107.084 95.4754C106.549 95.1566 106.134 94.8088 105.896 94.432C106.163 94.0552 106.549 93.7074 107.084 93.4175C109.133 92.2581 112.428 92.2581 114.507 93.4175C115.041 93.7363 115.427 94.0842 115.695 94.461Z" fill="#1F2125"/>
<path d="M107.084 91.8523C109.133 90.6929 112.458 90.7219 114.507 91.8523C115.427 92.374 115.932 93.0116 116.021 93.6783C116.17 92.8377 115.665 91.9682 114.507 91.3015C112.458 90.1422 109.133 90.1422 107.084 91.3015C105.955 91.9392 105.451 92.8087 105.569 93.6493C105.688 92.9827 106.193 92.345 107.084 91.8523Z" fill="#D9D9D9"/>
<path d="M111.953 107.214H111.924C111.805 107.214 111.686 107.156 111.627 107.069C111.389 106.837 111.3 106.461 111.063 106.2C110.855 105.997 110.587 105.881 110.38 105.678C110.231 105.533 110.142 105.33 109.994 105.185C109.845 105.04 109.608 104.924 109.429 105.04C109.311 105.127 109.192 105.301 109.043 105.272C109.014 105.272 108.954 105.243 108.925 105.214C108.687 105.011 108.598 104.721 108.568 104.403C108.539 104.113 108.598 103.794 108.598 103.504C108.598 103.359 108.568 103.214 108.539 103.069C108.42 102.751 108.064 102.548 107.915 102.229C107.826 102.055 107.826 101.852 107.678 101.736C107.529 101.62 107.351 101.62 107.173 101.649C107.113 101.649 107.084 101.649 107.054 101.678C106.995 101.707 106.995 101.765 106.965 101.823C106.727 102.953 106.965 104.171 106.49 105.243C106.401 105.417 106.282 105.62 106.104 105.649C106.015 105.678 105.926 105.649 105.866 105.62C105.629 105.504 105.748 105.069 105.748 104.837V95.3304C105.955 95.5044 106.193 95.6783 106.49 95.8232C108.034 96.6927 110.201 97.0116 112.161 96.7797V105.765C112.102 106.084 112.25 107.156 111.953 107.214Z" fill="#1F2125"/>
<path d="M15.1261 101.475C14.7401 101.707 14.1165 101.707 13.7305 101.475L3.51631 95.6783C3.13031 95.4754 3.13031 95.0986 3.51631 94.8957L13.7899 89.0988C14.1759 88.8959 14.7995 88.8669 15.1855 89.0988L25.3997 94.8957C25.7857 95.1276 25.7857 95.4754 25.3997 95.6783L15.1261 101.475Z" fill="#F2F2F2"/>
<path d="M15.0667 100.577L24.3902 95.3304C24.5683 95.2435 24.6574 95.0985 24.6574 94.9536V94.0261C24.6574 94.171 24.5683 94.287 24.3902 94.4029L15.0667 99.6491C14.7104 99.852 14.1463 99.852 13.79 99.6491L4.5259 94.4029C4.34774 94.316 4.25867 94.171 4.25867 94.0551V94.9826C4.25867 95.0986 4.34774 95.2435 4.5259 95.3304L13.79 100.577C14.1463 100.78 14.7104 100.78 15.0667 100.577Z" fill="#FFAD66"/>
<path d="M15.0667 99.6781C14.7104 99.881 14.1463 99.881 13.79 99.6781L4.5259 94.4029C4.16959 94.2 4.16959 93.8812 4.5259 93.6783L13.8493 88.4321C14.2057 88.2292 14.7698 88.2292 15.1261 88.4321L24.3902 93.6783C24.7465 93.8812 24.7465 94.2 24.3902 94.4029L15.0667 99.6781Z" fill="#FFD166"/>
<path d="M16.2247 92.2871C17.2639 92.0262 18.1844 91.9103 19.0752 91.9103L19.3721 92.49C18.5407 92.519 17.6796 92.6639 16.8186 92.8958C15.9278 93.1276 15.0964 93.4465 14.3244 93.9102C13.5524 94.345 12.9288 94.8377 12.5428 95.3305C12.1271 95.8232 11.9193 96.3159 11.8599 96.7797L10.8207 96.6058C10.8504 96.1131 11.0879 95.5913 11.5333 95.0116C11.9787 94.4319 12.6319 93.9102 13.4633 93.4175C14.2353 92.8958 15.1855 92.519 16.2247 92.2871Z" fill="white"/>
<path d="M32.8525 21.9994L30.685 23.2167C30.685 23.2167 30.685 23.2167 30.7147 23.1878L32.8525 21.9994Z" fill="black"/>
<path d="M27.8345 17.3329L30.002 16.1155C30.0317 16.1155 30.0614 16.0866 30.0911 16.1155L27.9236 17.3039C27.8939 17.3039 27.8642 17.3039 27.8345 17.3329Z" fill="black"/>
<path d="M31.16 22.782L33.3276 21.5356L32.8822 21.9994L30.7147 23.2168L31.16 22.782Z" fill="black"/>
<path d="M27.9235 17.3038L30.0911 16.0864L30.8334 16.2313L28.6658 17.4487L27.9235 17.3038Z" fill="black"/>
<path d="M35.9702 24.4341L33.8026 25.6515C33.8323 25.6225 33.862 25.5935 33.862 25.5065L36.0295 24.2892C36.0295 24.3761 35.9999 24.4051 35.9702 24.4341Z" fill="black"/>
<path d="M33.862 24.666L36.0296 23.4486V24.3181L33.862 25.5355V24.666Z" fill="black"/>
<path d="M28.2502 13.9996L30.4177 12.7822C30.4474 12.7533 30.5068 12.7533 30.5662 12.7822C30.5959 12.7822 30.5959 12.8112 30.6256 12.8402L28.458 14.0576C28.4283 14.0286 28.4283 14.0286 28.3986 13.9996C28.3392 13.9996 28.2798 13.9706 28.2502 13.9996Z" fill="black"/>
<path d="M28.458 14.0576L30.6255 12.8402L31.3678 13.5358L29.2003 14.7532L28.458 14.0576Z" fill="black"/>
<path d="M30.8631 15.6517L33.0307 14.4343C32.4665 14.7532 32.1399 15.4198 32.1399 16.3763C32.1399 18.2893 33.5057 20.6081 35.2279 21.5645L33.0604 22.7819C31.3679 21.8254 29.9723 19.5066 29.9723 17.5937C29.9426 16.6372 30.299 15.9705 30.8631 15.6517Z" fill="black"/>
<path d="M37.3658 21.7675L35.1982 22.9848C34.6341 23.3037 33.8621 23.2457 33.001 22.7819L35.1685 21.5646C36.0296 22.0573 36.8313 22.0863 37.3658 21.7675Z" fill="black"/>
<path d="M38.8504 24.55L36.6828 25.7673C36.7422 25.7383 36.7719 25.5934 36.7125 25.4775L38.88 24.2601C38.9394 24.3761 38.9097 24.492 38.8504 24.55Z" fill="black"/>
<path d="M36.2672 24.521L38.405 23.2747L38.8801 24.2601L36.7125 25.4775L36.2672 24.521Z" fill="black"/>
<path d="M36.8907 23.9123L39.0582 22.6949C38.8801 22.9558 38.6722 23.1297 38.4347 23.3036L36.2672 24.521C36.5047 24.3471 36.7125 24.1442 36.8907 23.9123Z" fill="black"/>
<path d="M30.7443 12.8402L32.9118 11.6228L33.3572 12.5793L31.1897 13.7966L30.7443 12.8402Z" fill="black"/>
<path d="M32.7337 11.42C32.704 11.391 32.6447 11.391 32.615 11.391L31.5757 11.6519H31.546L29.3785 12.8692H29.4082L30.4474 12.6083C30.4771 12.6083 30.5365 12.6083 30.5662 12.6373C30.6256 12.6663 30.685 12.7533 30.7443 12.8402L32.9119 11.6229C32.8525 11.5359 32.7931 11.449 32.7337 11.42Z" fill="#666666"/>
<path d="M39.9787 23.4197L37.8112 24.637C37.8408 24.637 37.8408 24.608 37.8705 24.5791L40.0381 23.3617C40.0381 23.3907 40.0084 23.4197 39.9787 23.4197Z" fill="black"/>
<path d="M31.1897 13.7967L33.3573 12.5793C33.6839 12.5793 34.0105 12.6663 34.3668 12.7822L32.1993 13.9996C31.843 13.8837 31.5163 13.8257 31.1897 13.7967Z" fill="black"/>
<path d="M38.2862 23.4486L40.4538 22.2312L40.0381 23.3616L37.8705 24.579L38.2862 23.4486Z" fill="black"/>
<path d="M40.3053 21.8544L39.563 21.1588L37.3955 22.3762L38.1378 23.0718C38.2566 23.1877 38.3159 23.3327 38.2863 23.4486L40.4538 22.2312C40.4835 22.1153 40.4241 21.9414 40.3053 21.8544Z" fill="#666666"/>
<path d="M37.3955 21.2167L39.563 19.9994C39.5927 20.2023 39.5927 20.4052 39.5927 20.6081C39.5927 20.811 39.5927 21.0139 39.563 21.1878L37.3955 22.4051C37.4252 22.2312 37.4252 22.0283 37.4252 21.8254C37.4549 21.6225 37.4252 21.4196 37.3955 21.2167Z" fill="black"/>
<path d="M33.8917 14.9561L36.0593 13.7388C36.4156 13.9996 36.7422 14.3185 37.0688 14.6663L34.9013 15.8836C34.5746 15.5648 34.248 15.246 33.8917 14.9561Z" fill="black"/>
<path d="M33.8917 14.0865L36.0593 12.8691V13.7387L33.8917 14.956V14.0865Z" fill="black"/>
<path d="M35.8515 12.5214L34.5747 11.7968C34.5153 11.7678 34.4559 11.7678 34.4262 11.7968L32.2587 13.0141C32.2884 12.9851 32.3477 12.9851 32.4071 13.0141L33.6839 13.7387C33.8027 13.7967 33.8918 13.9706 33.8918 14.0865L36.0593 12.8692C36.0593 12.7243 35.9702 12.5793 35.8515 12.5214Z" fill="#666666"/>
<path d="M36.2672 17.7966L38.4347 16.5792C38.6722 17.014 38.8801 17.4488 39.0582 17.8835L36.8907 19.1009C36.7125 18.6371 36.5047 18.2024 36.2672 17.7966Z" fill="black"/>
<path d="M40.3944 20.1154L38.2268 21.3327C38.2862 21.3037 38.3159 21.2168 38.2862 21.1298L40.4538 19.9125C40.4835 19.9994 40.4538 20.0864 40.3944 20.1154Z" fill="black"/>
<path d="M37.9003 19.5357L40.0678 18.3184L40.4538 19.9125L38.2863 21.1299L37.9003 19.5357Z" fill="black"/>
<path d="M39.86 18.0285C39.8303 18.0285 39.8303 17.9995 39.8006 17.9995L39.0583 17.8546L36.8907 19.072L37.633 19.2169C37.6627 19.2169 37.6627 19.2169 37.6924 19.2459C37.7815 19.3038 37.8706 19.3908 37.9003 19.5067L40.0678 18.2894C40.0381 18.2024 39.949 18.0865 39.86 18.0285Z" fill="#666666"/>
<path d="M36.7422 17.3328L38.9098 16.1155L38.4347 16.5792L36.2672 17.7966L36.7422 17.3328Z" fill="black"/>
<path d="M38.1378 23.0718C38.2566 23.1877 38.3159 23.3327 38.2863 23.4486L37.8706 24.608C37.8409 24.6949 37.7518 24.6949 37.6627 24.6659C37.633 24.6659 37.633 24.637 37.6033 24.608L36.861 23.9123C36.6829 24.1732 36.475 24.3471 36.2375 24.521L36.6829 25.4775C36.7422 25.6224 36.7422 25.7674 36.6235 25.7674L35.5842 26.0282C35.5545 26.0282 35.4952 26.0282 35.4655 25.9992C35.4061 25.9703 35.3467 25.8833 35.2873 25.7963L34.8419 24.8399C34.5153 24.8399 34.1887 24.7529 33.8324 24.637V25.5065C33.8324 25.6514 33.7433 25.6804 33.6245 25.6224L32.3478 24.8978C32.229 24.8399 32.1399 24.6659 32.1399 24.55V23.6805C31.7836 23.4196 31.457 23.1008 31.1304 22.753L30.6553 23.2167C30.6256 23.2457 30.5365 23.2457 30.4771 23.2167C30.4474 23.1877 30.3881 23.1587 30.3584 23.1008L29.3191 21.6805C29.23 21.5646 29.2004 21.3907 29.2597 21.3327L29.7348 20.8979C29.4973 20.4632 29.2894 20.0284 29.1113 19.5936L28.369 19.4487C28.3393 19.4487 28.3393 19.4487 28.3096 19.4197C28.2205 19.3618 28.1314 19.2458 28.1017 19.1589L27.7157 17.5647C27.686 17.4198 27.7454 17.3328 27.8642 17.3328L28.6065 17.4778C28.5768 17.2749 28.5768 17.072 28.5768 16.8691C28.5768 16.6662 28.5768 16.4923 28.6065 16.2894L27.8642 15.5938C27.7454 15.4778 27.686 15.3329 27.7157 15.217L28.1314 14.0576C28.1611 13.9706 28.2502 13.9706 28.3393 13.9996C28.369 13.9996 28.369 14.0286 28.3987 14.0576L29.141 14.7532C29.3191 14.4923 29.527 14.2895 29.7645 14.1445L29.3191 13.188C29.2597 13.0431 29.2597 12.8982 29.3785 12.8982L30.4177 12.6373C30.4474 12.6373 30.5068 12.6373 30.5365 12.6663C30.5959 12.6953 30.6553 12.7823 30.7147 12.8692L31.1601 13.8257C31.4867 13.8257 31.8133 13.9127 32.1696 14.0286V13.1591C32.1696 13.0431 32.2587 12.9851 32.3774 13.0431L33.6542 13.7677C33.773 13.8257 33.8621 13.9996 33.8621 14.1155V14.9851C34.2184 15.2459 34.545 15.5648 34.8716 15.9126L35.317 15.4488C35.3467 15.4199 35.4358 15.4199 35.4952 15.4488C35.5249 15.4778 35.5842 15.5068 35.6139 15.5648L36.6532 16.985C36.7422 17.101 36.7719 17.2749 36.7126 17.3328L36.2375 17.7676C36.475 18.2024 36.6829 18.6371 36.861 19.0719L37.6033 19.2168C37.633 19.2168 37.633 19.2168 37.6627 19.2458C37.7518 19.3038 37.8409 19.3907 37.8706 19.5067L38.2566 21.1008C38.2863 21.2458 38.2269 21.3327 38.1081 21.3327L37.3658 21.1878C37.3955 21.3907 37.3955 21.5936 37.3955 21.7965C37.3955 21.9994 37.3955 22.2023 37.3658 22.3762L38.1378 23.0718ZM33.0307 22.7819C34.7232 23.7384 36.1187 22.9848 36.1187 21.0719C36.1187 19.1589 34.7528 16.8401 33.0307 15.8836C31.3382 14.9271 29.9427 15.6807 29.9427 17.5937C29.9427 19.5067 31.3085 21.8255 33.0307 22.7819Z" fill="#333333"/>
<path d="M38.8504 15.7676L37.8112 14.3474C37.7815 14.2894 37.7221 14.2604 37.6924 14.2315C37.633 14.2025 37.5736 14.2025 37.544 14.2315L35.3764 15.4488C35.4061 15.4198 35.4655 15.4198 35.5249 15.4488C35.5546 15.4778 35.6139 15.5068 35.6436 15.5647L36.6829 16.985C36.7719 17.1009 36.8016 17.2748 36.7423 17.3328L38.9098 16.1155C38.9692 16.0575 38.9395 15.8836 38.8504 15.7676Z" fill="#666666"/>
<path d="M29.0518 7.18824L31.635 5.73901C31.635 5.73901 31.635 5.73901 31.6647 5.73901L29.0518 7.18824Z" fill="#4D4BB7"/>
<path d="M34.9012 10.3186L32.318 11.7678C32.3477 11.7678 32.3477 11.7388 32.3477 11.7099L34.9309 10.2606C34.9309 10.2896 34.9012 10.2896 34.9012 10.3186Z" fill="#4D4BB7"/>
<path d="M29.0815 7.18815L31.635 5.70993L32.1992 5.59399L29.6159 7.04323L29.0815 7.18815Z" fill="#4D4BB7"/>
<path d="M32.5555 11.1301L35.1388 9.65186L34.9309 10.2605L32.3477 11.7098L32.5555 11.1301Z" fill="#4D4BB7"/>
<path d="M28.547 3.91299L31.1303 2.46376C31.16 2.43477 31.2193 2.43477 31.249 2.46376L28.6658 3.91299C28.6361 3.91299 28.5767 3.884 28.547 3.91299Z" fill="#4D4BB7"/>
<path d="M28.6955 3.94196L31.249 2.46375L31.9319 2.84054L29.3487 4.28978L28.6955 3.94196Z" fill="#4D4BB7"/>
<path d="M37.5735 11.4489L34.9903 12.8982C35.0497 12.8692 35.0497 12.8112 35.02 12.7243L37.6032 11.275C37.6329 11.362 37.6329 11.4199 37.5735 11.4489Z" fill="#4D4BB7"/>
<path d="M34.8418 11.9127L37.425 10.4344L37.6329 11.275L35.0496 12.7242L34.8418 11.9127Z" fill="#4D4BB7"/>
<path d="M37.4548 8.86934L34.8715 10.3186C34.3965 10.5794 33.7432 10.5505 33.0009 10.1447L35.5842 8.69543C36.3265 9.10122 36.9797 9.1302 37.4548 8.86934Z" fill="#4D4BB7"/>
<path d="M31.16 4.05787L33.7432 2.60864C33.2681 2.8695 32.9712 3.4492 32.9712 4.26077C32.9712 5.88391 34.1292 7.88385 35.5842 8.69541L33.0009 10.1446C31.546 9.33308 30.388 7.33314 30.388 5.71C30.388 4.89843 30.6849 4.31874 31.16 4.05787Z" fill="#4D4BB7"/>
<path d="M29.7051 1.826L32.2883 0.376774C32.318 0.347789 32.3774 0.376774 32.4071 0.376774C32.4368 0.405758 32.4665 0.434744 32.5259 0.463728L29.9426 1.91296C29.9129 1.85499 29.8832 1.826 29.8238 1.826C29.7942 1.79702 29.7645 1.79702 29.7051 1.826Z" fill="#9996FF"/>
<path d="M38.9097 11.1011L36.3265 12.5503C36.3265 12.5503 36.3265 12.5503 36.3562 12.5503L38.9097 11.1011Z" fill="#4D4BB7"/>
<path d="M29.9426 1.91298L32.5258 0.463745L33.0603 1.21734L30.4771 2.66658L29.9426 1.91298Z" fill="#4D4BB7"/>
<path d="M30.477 2.6666L33.0603 1.21736C33.2681 1.10143 33.5353 1.04346 33.7729 1.04346L31.1896 2.49269C30.9521 2.49269 30.7146 2.55066 30.477 2.6666Z" fill="#4D4BB7"/>
<path d="M37.0093 11.9127L39.5629 10.4635L38.9394 11.1012L36.3561 12.5504L37.0093 11.9127Z" fill="#4D4BB7"/>
<path d="M39.5332 10.1736L38.9988 9.42004L36.4155 10.8693L36.95 11.6229C37.0391 11.7388 37.0391 11.8548 36.9797 11.9127L39.5629 10.4635C39.6223 10.4055 39.6223 10.2606 39.5332 10.1736Z" fill="#9996FF"/>
<path d="M36.7125 10.0867L39.2957 8.63745C39.2363 8.9273 39.1472 9.21714 39.0285 9.44902L36.4452 10.8983C36.564 10.6374 36.6531 10.3765 36.7125 10.0867Z" fill="#4D4BB7"/>
<path d="M32.3773 1.94196L34.9606 0.463745L35.1684 1.3043L32.5852 2.75353L32.3773 1.94196Z" fill="#4D4BB7"/>
<path d="M34.7824 0.231877C34.7527 0.231877 34.7527 0.202893 34.723 0.202893L33.6838 0C33.6541 0 33.6244 0 33.6244 0L31.0412 1.44923C31.0709 1.44923 31.0709 1.42025 31.1006 1.44923L32.1398 1.65212C32.1695 1.65212 32.1695 1.65212 32.1992 1.68111C32.2883 1.71009 32.3476 1.82603 32.3773 1.91299L34.9606 0.463755C34.9309 0.376801 34.8715 0.289846 34.7824 0.231877Z" fill="#9996FF"/>
<path d="M40.0677 9.01425L37.4845 10.4635C37.5142 10.4345 37.5439 10.4055 37.5439 10.3475L40.1271 8.89832C40.1271 8.95628 40.0974 8.98527 40.0677 9.01425Z" fill="#4D4BB7"/>
<path d="M32.5852 2.75355L35.1684 1.30432C35.3169 1.36229 35.4653 1.44924 35.6138 1.5362C35.7623 1.62315 35.9107 1.71011 36.0592 1.82604L33.4759 3.27528C33.3275 3.15934 33.179 3.07238 33.0306 2.98543C32.8821 2.89848 32.7336 2.81152 32.5852 2.75355Z" fill="#4D4BB7"/>
<path d="M36.4452 7.33314L39.0285 5.88391C39.1472 6.26071 39.2363 6.63751 39.2957 6.98533L36.7125 8.43456C36.6531 8.08674 36.564 7.70994 36.4452 7.33314Z" fill="#4D4BB7"/>
<path d="M37.5439 9.13014L40.1271 7.68091V8.89826L37.5439 10.3475V9.13014Z" fill="#4D4BB7"/>
<path d="M39.9489 7.36203L39.2957 6.98523L36.7125 8.43446L37.3657 8.81126C37.4548 8.86923 37.5438 9.01415 37.5438 9.10111L40.1271 7.65187C40.1271 7.56492 40.038 7.42 39.9489 7.36203Z" fill="#9996FF"/>
<path d="M34.8715 4.55055L37.4548 3.10132C37.722 3.42015 37.9595 3.73898 38.1674 4.0868L35.5841 5.53603C35.3763 5.18821 35.1388 4.8404 34.8715 4.55055Z" fill="#4D4BB7"/>
<path d="M35.0794 3.94191L37.6329 2.49268L37.4251 3.07237L34.8715 4.55058L35.0794 3.94191Z" fill="#4D4BB7"/>
<path d="M37.5439 2.17384L36.5046 1.21735C36.4749 1.18836 36.4749 1.18836 36.4452 1.18836C36.3859 1.15938 36.3562 1.15938 36.3265 1.18836L33.7432 2.6376C33.7729 2.60861 33.8323 2.60861 33.862 2.6376C33.8917 2.6376 33.8917 2.66658 33.9214 2.66658L34.9606 3.62307C35.0497 3.71003 35.1091 3.85495 35.0794 3.9419L37.6626 2.49267C37.6626 2.40572 37.6329 2.26079 37.5439 2.17384Z" fill="#9996FF"/>
<path d="M35.5842 5.53605L38.1674 4.08682L38.7019 3.94189L36.1186 5.42011L35.5842 5.53605Z" fill="#4D4BB7"/>
<path d="M37.3657 8.8403C37.4548 8.89827 37.5439 9.04319 37.5439 9.13015V10.3475C37.5439 10.4634 37.4548 10.4924 37.3657 10.4345L36.7125 10.0577C36.6531 10.3475 36.564 10.6373 36.4453 10.8692L36.9797 11.6228C37.0688 11.7388 37.0688 11.8547 37.0094 11.9127L36.3562 12.5503C36.3265 12.5793 36.2671 12.5793 36.2077 12.5503C36.178 12.5213 36.1483 12.4924 36.0889 12.4634L35.5545 11.7098C35.3466 11.8257 35.0794 11.8837 34.8419 11.8837L35.0497 12.6953C35.0794 12.8112 35.02 12.8981 34.9309 12.8692L33.8917 12.6663C33.862 12.6663 33.862 12.6663 33.8323 12.6373C33.7432 12.6083 33.6839 12.4924 33.6542 12.4054L33.4463 11.5938C33.2979 11.5359 33.1494 11.4489 33.0009 11.362C32.8525 11.275 32.704 11.1881 32.5555 11.0721L32.3477 11.6518C32.318 11.7098 32.2586 11.7388 32.1695 11.6808C32.1398 11.6808 32.1398 11.6518 32.1102 11.6518L31.0709 10.6953C30.9818 10.6084 30.9225 10.4634 30.9521 10.3765L31.16 9.79679C30.8928 9.47796 30.6552 9.15913 30.4474 8.81131L29.9129 8.95624C29.8832 8.95624 29.8535 8.95624 29.7941 8.92725C29.7348 8.89827 29.6754 8.8403 29.6457 8.75334L28.9924 7.39107C28.9331 7.27513 28.9627 7.15919 29.0221 7.13021L29.5566 6.98528C29.4378 6.60848 29.3488 6.23168 29.2894 5.88387L28.6361 5.50707C28.5471 5.4491 28.458 5.30417 28.458 5.21722V3.99987C28.458 3.88393 28.5471 3.85494 28.6361 3.91291L29.2894 4.28971C29.3488 3.99987 29.4378 3.71002 29.5566 3.47814L29.0221 2.72454C28.9331 2.6086 28.9331 2.49267 28.9924 2.4347L29.6457 1.79703C29.6754 1.76805 29.7348 1.76805 29.7941 1.79703C29.8238 1.82602 29.8535 1.855 29.9129 1.88399L30.4474 2.63759C30.6552 2.52165 30.9225 2.46368 31.16 2.46368L30.9521 1.65211C30.9225 1.53617 30.9818 1.44922 31.0709 1.44922L32.1102 1.65211C32.1398 1.65211 32.1398 1.65211 32.1695 1.6811C32.2586 1.71008 32.318 1.82602 32.3477 1.91297L32.5555 2.72454C32.704 2.78251 32.8525 2.86947 33.0009 2.95642C33.1494 3.04337 33.2979 3.13033 33.4463 3.24627L33.6542 2.66657C33.6839 2.6086 33.7432 2.57962 33.8323 2.6086C33.862 2.6086 33.862 2.63759 33.8917 2.63759L34.9309 3.59408C35.02 3.68104 35.0794 3.82596 35.0497 3.91291L34.8419 4.49261C35.1091 4.81144 35.3466 5.13027 35.5545 5.47808L36.0889 5.33316C36.1186 5.33316 36.1483 5.33316 36.2077 5.36214C36.2671 5.39113 36.3265 5.4491 36.3562 5.53605L37.0094 6.89833C37.0688 7.01427 37.0391 7.13021 36.9797 7.15919L36.4453 7.30411C36.564 7.68091 36.6531 8.05771 36.7125 8.40553L37.3657 8.8403ZM33.0306 10.1446C34.4856 10.9562 35.6733 10.3185 35.6733 8.66639C35.6733 7.04325 34.5152 5.04331 33.0603 4.23174C31.6054 3.42017 30.4177 4.05784 30.4177 5.70996C30.388 7.3331 31.5757 9.33304 33.0306 10.1446Z" fill="#6865F7"/>
<path d="M39.5927 5.47813L38.9394 4.11586C38.9097 4.0289 38.8504 3.97093 38.791 3.94195C38.7613 3.91296 38.7316 3.91296 38.6722 3.91296L36.089 5.3622C36.1187 5.3622 36.1483 5.3622 36.2077 5.39118C36.2671 5.42016 36.3265 5.47813 36.3562 5.56509L37.0094 6.92736C37.0688 7.0433 37.0391 7.13026 36.9797 7.18823L39.563 5.73899C39.6224 5.71001 39.6521 5.59407 39.5927 5.47813Z" fill="#9996FF"/>
</svg>
