<svg width="165" height="101" viewBox="0 0 165 101" fill="none" xmlns="http://www.w3.org/2000/svg">
<path d="M2.9994 1.02631C3.01393 0.474213 2.57814 0.0148749 2.02605 0.000346065C1.47396 -0.0141827 1.01462 0.4216 1.00009 0.973693L2.9994 1.02631ZM164.798 92.6027C165.131 92.162 165.043 91.5349 164.602 91.202L157.421 85.7776C156.98 85.4448 156.353 85.5322 156.02 85.9729C155.687 86.4136 155.775 87.0407 156.215 87.3735L162.599 92.1952L157.777 98.5789C157.445 99.0196 157.532 99.6467 157.973 99.9796C158.413 100.312 159.04 100.225 159.373 99.7843L164.798 92.6027ZM1.00009 0.973693C0.974424 1.94897 0.969536 2.9454 0.986514 3.96095L2.98623 3.92752C2.96973 2.94021 2.9745 1.97248 2.9994 1.02631L1.00009 0.973693ZM1.32743 9.94197C1.51352 11.8769 1.77634 13.8615 2.12225 15.8844L4.09364 15.5473C3.75597 13.5726 3.49964 11.6366 3.31824 9.7505L1.32743 9.94197ZM3.33975 21.7485C3.8037 23.6468 4.34159 25.568 4.95828 27.5035L6.86389 26.8964C6.26129 25.0051 5.73577 23.128 5.28257 21.2737L3.33975 21.7485ZM6.97025 33.1446C7.6939 34.9738 8.49066 36.8083 9.36454 38.6411L11.1698 37.7803C10.3158 35.9893 9.53719 34.1965 8.83001 32.4089L6.97025 33.1446ZM12.1184 43.9441C13.0827 45.6558 14.1184 47.3599 15.2288 49.0504L16.9004 47.9524C15.8153 46.3004 14.8032 44.6352 13.8609 42.9625L12.1184 43.9441ZM18.6811 53.9354C19.8695 55.5011 21.1272 57.0496 22.4572 58.5758L23.965 57.2619C22.665 55.77 21.4356 54.2565 20.2742 52.7262L18.6811 53.9354ZM26.5359 62.9521C27.9214 64.343 29.3731 65.7099 30.8933 67.0485L32.2151 65.5476C30.7277 64.2378 29.3078 62.9008 27.9528 61.5406L26.5359 62.9521ZM35.5034 70.8539C37.053 72.0527 38.6645 73.2232 40.3396 74.362L41.464 72.708C39.8227 71.5922 38.2444 70.4457 36.7272 69.272L35.5034 70.8539ZM45.3755 77.5714C47.0551 78.574 48.7916 79.5461 50.5865 80.485L51.5136 78.7128C49.7516 77.7912 48.0478 76.8373 46.4006 75.8541L45.3755 77.5714ZM55.951 83.1097C57.7319 83.9234 59.5649 84.7058 61.451 85.4549L62.1892 83.5961C60.334 82.8594 58.5321 82.0901 56.7822 81.2906L55.951 83.1097ZM67.0568 87.5267C68.8948 88.1572 70.7791 88.7573 72.7108 89.3255L73.2751 87.4067C71.3715 86.8469 69.5154 86.2557 67.7058 85.6349L67.0568 87.5267ZM78.4495 90.8825C80.3474 91.3556 82.2877 91.7991 84.2711 92.2114L84.6783 90.2533C82.72 89.8462 80.8053 89.4086 78.9332 88.9419L78.4495 90.8825ZM90.1358 93.3175C92.0472 93.6421 93.9961 93.9389 95.9832 94.207L96.2505 92.2249C94.2856 91.9599 92.3592 91.6664 90.4707 91.3457L90.1358 93.3175ZM101.904 94.9077C103.849 95.1064 105.828 95.2785 107.842 95.4231L107.985 93.4283C105.991 93.2851 104.032 93.1147 102.108 92.918L101.904 94.9077ZM113.742 95.7627C115.707 95.8484 117.703 95.9087 119.731 95.943L119.765 93.9433C117.754 93.9093 115.776 93.8495 113.83 93.7646L113.742 95.7627ZM125.625 95.969C127.583 95.9537 129.569 95.9148 131.583 95.8517L131.521 93.8527C129.521 93.9153 127.551 93.9538 125.61 93.969L125.625 95.969ZM137.505 95.6004C139.454 95.4964 141.428 95.3704 143.429 95.2218L143.281 93.2273C141.294 93.3748 139.333 93.5 137.398 93.6032L137.505 95.6004ZM149.349 94.7232C151.29 94.5407 153.255 94.3375 155.244 94.1132L155.02 92.1258C153.043 92.3487 151.09 92.5506 149.162 92.732L149.349 94.7232ZM161.139 93.3954C162.133 93.2656 163.132 93.1306 164.138 92.9904L163.862 91.0096C162.862 91.149 161.868 91.2832 160.879 91.4123L161.139 93.3954Z" fill="#4661FF"/>
</svg>
