<svg width="96" height="38" viewBox="0 0 96 38" fill="none" xmlns="http://www.w3.org/2000/svg">
<path d="M1.87026 0.507402C1.5982 0.0267722 0.988031 -0.142311 0.507402 0.129743C0.0267722 0.401798 -0.142311 1.01197 0.129743 1.4926L1.87026 0.507402ZM95.348 27.8246L87.8246 24.652L84.652 32.1754L92.1754 35.348L95.348 27.8246ZM0.129743 1.4926C0.374346 1.92473 0.631489 2.36398 0.901059 2.80948L2.61219 1.77409C2.35241 1.34476 2.10508 0.922248 1.87026 0.507402L0.129743 1.4926ZM2.55924 5.3927C3.11342 6.20981 3.70545 7.04159 4.33484 7.88341L5.93665 6.68583C5.32538 5.86824 4.75118 5.06145 4.21447 4.2701L2.55924 5.3927ZM6.22275 10.2978C6.85441 11.0713 7.51626 11.8495 8.20795 12.629L9.70396 11.3016C9.03044 10.5426 8.38627 9.78512 7.77179 9.03273L6.22275 10.2978ZM10.2782 14.8707C10.9724 15.5932 11.6921 16.3141 12.437 17.0307L13.8236 15.5894C13.0978 14.8911 12.3966 14.1888 11.7203 13.4849L10.2782 14.8707ZM14.6799 19.1053C15.432 19.774 16.2066 20.4366 17.0033 21.0905L18.2722 19.5446C17.4961 18.9076 16.7416 18.2622 16.0089 17.6107L14.6799 19.1053ZM19.4042 22.9823C20.2093 23.5909 21.0346 24.1896 21.8799 24.7762L23.0202 23.1331C22.1975 22.5622 21.3942 21.9794 20.6103 21.3869L19.4042 22.9823ZM24.4275 26.4674C25.2813 27.009 26.1535 27.5375 27.0441 28.051L28.0432 26.3185C27.1775 25.8192 26.3293 25.3053 25.4988 24.7785L24.4275 26.4674ZM29.7266 29.5221C30.6244 29.9895 31.5393 30.4412 32.4711 30.8754L33.3159 29.0626C32.4111 28.641 31.5225 28.2023 30.6501 27.7481L29.7266 29.5221ZM35.2737 32.1062C36.21 32.4926 37.1621 32.861 38.1297 33.2098L38.8079 31.3283C37.8692 30.9899 36.9454 30.6325 36.0366 30.2575L35.2737 32.1062ZM41.0342 34.182C42.0024 34.4814 42.9849 34.7609 43.9818 35.0191L44.4833 33.083C43.5168 32.8327 42.564 32.5616 41.6252 32.2713L41.0342 34.182ZM46.9669 35.7183C47.9571 35.926 48.9605 36.1124 49.9769 36.2764L50.2954 34.3019C49.31 34.143 48.3373 33.9622 47.3773 33.7609L46.9669 35.7183ZM53.0072 36.693C54.0109 36.8073 55.0265 36.8996 56.054 36.9687L56.1882 34.9732C55.1916 34.9062 54.2067 34.8167 53.2334 34.7059L53.0072 36.693ZM59.1117 37.1042C60.1223 37.1259 61.1435 37.1251 62.1754 37.101L62.1286 35.1015C61.1266 35.125 60.1353 35.1257 59.1547 35.1046L59.1117 37.1042ZM65.241 36.9612C66.2441 36.8934 67.2567 36.8034 68.2787 36.6904L68.0588 34.7025C67.065 34.8124 66.0807 34.8999 65.1061 34.9658L65.241 36.9612ZM71.3043 36.2917C72.3004 36.1395 73.305 35.9654 74.318 35.7687L73.9367 33.8053C72.9499 33.997 71.9717 34.1665 71.0022 34.3147L71.3043 36.2917ZM77.3182 35.1248C78.2919 34.896 79.2729 34.6464 80.2614 34.3752L79.7322 32.4465C78.7674 32.7112 77.8102 32.9547 76.8608 33.1778L77.3182 35.1248ZM83.1871 33.5156C84.1508 33.2139 85.1212 32.8916 86.0982 32.5484L85.4352 30.6614C84.4797 30.9972 83.531 31.3122 82.5894 31.607L83.1871 33.5156ZM88.9415 31.4969C89.4184 31.3117 89.8968 31.1215 90.3768 30.9263L89.6232 29.0737C89.1531 29.2649 88.6845 29.4512 88.2176 29.6325L88.9415 31.4969Z" fill="#4661FF"/>
</svg>
