<svg width="16" height="20" viewBox="0 0 16 20" fill="none" xmlns="http://www.w3.org/2000/svg">
<path d="M14.4241 2.6745C13.5947 1.82895 12.5991 1.15615 11.4971 0.696549C10.395 0.236947 9.2094 0 8.01132 0C6.81334 0 5.62766 0.236947 4.52564 0.696549C3.4236 1.15615 2.42796 1.82895 1.59853 2.6745C0.0374191 4.67051 -0.442139 7.66452 0.435351 10.7384C1.33325 14.0618 3.73103 16.467 5.65946 18.3931L6.59815 19.3911C6.78049 19.5803 6.99884 19.7329 7.24097 19.8402C7.4835 19.9456 7.74593 20 8.01132 20C8.27671 20 8.53914 19.9456 8.78168 19.8402C9.01931 19.7347 9.23409 19.5857 9.41428 19.4011L10.3632 18.4031C12.2916 16.4769 14.6894 14.0717 15.5873 10.7484C16.4138 7.66453 15.9853 4.67051 14.4241 2.6745ZM8.00622 10.9081C7.30392 10.9081 6.61744 10.7044 6.0335 10.3227C5.44962 9.94109 4.99451 9.39867 4.72576 8.76404C4.45701 8.12951 4.3867 7.43115 4.5237 6.75744C4.66071 6.08373 4.99888 5.46488 5.49547 4.97916C5.99207 4.49344 6.62468 4.16267 7.31351 4.02867C8.00234 3.89466 8.71627 3.96343 9.3651 4.2263C10.0139 4.48917 10.5684 4.93431 10.9586 5.50545C11.3487 6.0766 11.557 6.74807 11.557 7.43498C11.557 7.8906 11.4651 8.34179 11.2865 8.76255C11.1079 9.18341 10.8462 9.56554 10.5165 9.8873C10.1866 10.209 9.79507 10.4638 9.36429 10.6373C8.9336 10.8108 8.47211 10.8994 8.00622 10.8981V10.9081Z" fill="#4661FF"/>
</svg>
