<svg width="20" height="18" viewBox="0 0 20 18" fill="none" xmlns="http://www.w3.org/2000/svg">
<path d="M15.25 0H4.75C3.49022 0 2.28204 0.486915 1.39124 1.35364C0.50045 2.22035 0 3.39589 0 4.62162V13.3784C0 14.6041 0.50045 15.7797 1.39124 16.6464C2.28204 17.5131 3.49022 18 4.75 18H15.25C16.509 17.9975 17.7156 17.5097 18.6058 16.6435C19.4961 15.7773 19.9974 14.6034 20 13.3784V4.62162C19.9974 3.39668 19.4961 2.22265 18.6058 1.35649C17.7156 0.49032 16.509 0.00256865 15.25 0ZM11.6 8.09513C11.108 8.36815 10.5514 8.51176 9.985 8.51176C9.4186 8.51176 8.862 8.36815 8.37 8.09513L1.52 4.27135C1.60858 3.49813 1.98701 2.78382 2.58292 2.26505C3.17883 1.74628 3.95038 1.45946 4.75 1.45946H15.25C16.049 1.46159 16.8194 1.74915 17.4148 2.26752C18.0103 2.78588 18.3893 3.49897 18.48 4.27135L11.6 8.09513Z" fill="#4661FF"/>
</svg>
