<svg width="40" height="40" viewBox="0 0 40 40" fill="none" xmlns="http://www.w3.org/2000/svg">
<path d="M39.4557 10.1622C39.4557 9.40543 39.2394 8.70273 38.9151 8.05408L27.6719 20.1622C30.0503 22.7027 31.9962 24.8649 33.8881 26.973C35.4016 28.6487 36.9692 30.3243 38.6989 32.2703C39.1854 31.5676 39.4557 30.7568 39.4557 29.8919V10.1622Z" fill="white"/>
<path d="M16.9721 22.0541C17.7829 22.919 18.81 23.3514 19.9992 23.3514C21.1343 23.3514 22.2154 22.8649 23.0262 22.0541L37.4046 6.48654C36.7559 6.05411 35.9451 5.83789 35.1343 5.83789H4.86402C3.99916 5.83789 3.2424 6.10816 2.59375 6.48654L16.9721 22.0541Z" fill="white"/>
<path d="M32.3227 28.4325C30.4849 26.3784 28.539 24.2703 26.2146 21.7838L24.593 23.5136C23.4038 24.8109 21.7281 25.5136 19.9984 25.5136C18.2687 25.5136 16.593 24.7568 15.4038 23.5136L13.7822 21.7838C11.4579 24.2703 9.56598 26.3784 7.67409 28.4325C6.16058 30.1082 4.59301 31.7838 2.86328 33.7298C3.45788 34.0541 4.10652 34.2163 4.86328 34.2163H35.1335C35.8363 34.2163 36.539 34.0541 37.1335 33.7298C35.3498 31.7838 33.8363 30.1082 32.3227 28.4325Z" fill="white"/>
<path d="M12.3228 20.1622L1.0796 8.05411C0.755279 8.6487 0.539062 9.40546 0.539062 10.1622V29.8919C0.539062 30.7568 0.809333 31.6217 1.29582 32.2703C3.0796 30.3244 4.59312 28.6487 6.10663 26.973C7.99852 24.8649 9.94447 22.7568 12.3228 20.1622Z" fill="white"/>
</svg>
