<svg width="60" height="60" viewBox="0 0 60 60" fill="none" xmlns="http://www.w3.org/2000/svg">
<path d="M55 35.292V26.158C55.6419 25.4277 55.9972 24.4893 56 23.517V13C56 11.9391 55.5786 10.9217 54.8284 10.1716C54.0783 9.42143 53.0609 9 52 9H42V7C41.9976 5.14422 41.2594 3.36512 39.9471 2.05288C38.6349 0.740644 36.8558 0.00238142 35 0L21 0C19.1442 0.00238142 17.3651 0.740644 16.0529 2.05288C14.7406 3.36512 14.0024 5.14422 14 7V9H4C2.93913 9 1.92172 9.42143 1.17157 10.1716C0.421427 10.9217 0 11.9391 0 13L0 23.517C0.00279864 24.4893 0.358093 25.4277 1 26.158V46C1 47.0609 1.42143 48.0783 2.17157 48.8284C2.92172 49.5786 3.93913 50 5 50H32.59C33.2116 52.0919 34.3138 54.0095 35.8086 55.5995C37.3033 57.1895 39.1492 58.408 41.1988 59.1574C43.2484 59.9069 45.4448 60.1667 47.6127 59.9161C49.7806 59.6654 51.8598 58.9113 53.6842 57.7139C55.5087 56.5164 57.0279 54.9089 58.1203 53.0198C59.2128 51.1306 59.8484 49.0121 59.9762 46.8335C60.1041 44.655 59.7207 42.4767 58.8566 40.4727C57.9926 38.4688 56.6719 36.6946 55 35.292ZM16 7C16.0016 5.67441 16.5289 4.40356 17.4662 3.46622C18.4036 2.52888 19.6744 2.00159 21 2H35C36.3256 2.00159 37.5964 2.52888 38.5338 3.46622C39.4711 4.40356 39.9984 5.67441 40 7V9H38V7C38 6.20435 37.6839 5.44129 37.1213 4.87868C36.5587 4.31607 35.7957 4 35 4H21C20.2044 4 19.4413 4.31607 18.8787 4.87868C18.3161 5.44129 18 6.20435 18 7V9H16V7ZM36 9H20V7C20 6.73478 20.1054 6.48043 20.2929 6.29289C20.4804 6.10536 20.7348 6 21 6H35C35.2652 6 35.5196 6.10536 35.7071 6.29289C35.8946 6.48043 36 6.73478 36 7V9ZM2 13C2 12.4696 2.21071 11.9609 2.58579 11.5858C2.96086 11.2107 3.46957 11 4 11H52C52.5304 11 53.0391 11.2107 53.4142 11.5858C53.7893 11.9609 54 12.4696 54 13V23.517C54.0011 23.8896 53.8979 24.2551 53.7018 24.5721C53.5058 24.889 53.2249 25.1446 52.891 25.31C50.849 26.29 45.421 27.91 31.999 27.992C31.9969 27.1979 31.68 26.4371 31.1179 25.8762C30.5557 25.3154 29.7941 25.0003 29 25H27C26.2057 25 25.4439 25.315 24.8815 25.8759C24.3191 26.4367 24.0021 27.1977 24 27.992C10.578 27.914 5.15 26.292 3.108 25.31C2.77426 25.1445 2.49357 24.8888 2.29773 24.5719C2.1019 24.255 1.99876 23.8895 2 23.517V13ZM30 28V32C30 32.5304 29.7893 33.0391 29.4142 33.4142C29.0391 33.7893 28.5304 34 28 34C27.4696 34 26.9609 33.7893 26.5858 33.4142C26.2107 33.0391 26 32.5304 26 32V28C26 27.7348 26.1054 27.4804 26.2929 27.2929C26.4804 27.1054 26.7348 27 27 27H29C29.2652 27 29.5196 27.1054 29.7071 27.2929C29.8946 27.4804 30 27.7348 30 28ZM5 48C4.46957 48 3.96086 47.7893 3.58579 47.4142C3.21071 47.0391 3 46.5304 3 46V27.441C5.977 28.641 11.98 29.924 24 29.993V32C24 33.0609 24.4214 34.0783 25.1716 34.8284C25.9217 35.5786 26.9391 36 28 36C29.0609 36 30.0783 35.5786 30.8284 34.8284C31.5786 34.0783 32 33.0609 32 32V29.993C44.02 29.924 50.023 28.643 53 27.441V33.894C50.7299 32.556 48.1268 31.8894 45.493 31.9716C42.8592 32.0538 40.3027 32.8816 38.1205 34.3586C35.9383 35.8357 34.2199 37.9015 33.1648 40.3162C32.1098 42.7308 31.7613 45.3952 32.16 48H5ZM46 58C43.6266 58 41.3065 57.2962 39.3332 55.9776C37.3598 54.6591 35.8217 52.7849 34.9134 50.5922C34.0052 48.3995 33.7676 45.9867 34.2306 43.6589C34.6936 41.3312 35.8365 39.193 37.5147 37.5147C39.1929 35.8365 41.3311 34.6936 43.6589 34.2306C45.9867 33.7676 48.3995 34.0052 50.5922 34.9134C52.7849 35.8217 54.6591 37.3598 55.9776 39.3332C57.2962 41.3066 58 43.6266 58 46C57.9966 49.1815 56.7312 52.2318 54.4815 54.4815C52.2318 56.7312 49.1815 57.9966 46 58Z" fill="white"/>
</svg>
