<svg width="60" height="60" viewBox="0 0 60 60" fill="none" xmlns="http://www.w3.org/2000/svg">
<path d="M57.0233 17.6541V42.4536C57.0233 45.8507 54.2694 48.6046 50.8723 48.6046H9.12762C5.73047 48.6046 2.97656 45.8507 2.97656 42.4536V17.6541C2.97656 14.257 5.73047 11.5031 9.12762 11.5031H50.8723C54.2694 11.5032 57.0233 14.2571 57.0233 17.6541Z" fill="#7E9E7E"/>
<path d="M2.97656 39.9476V42.4536C2.97656 45.8507 5.73047 48.6046 9.12762 48.6046H50.8723C54.2694 48.6046 57.0233 45.8507 57.0233 42.4536V39.9476H2.97656Z" fill="#7E9E7E"/>
<path d="M35.7167 48.6046L38.483 58.596H22.959L25.7253 48.6046H35.7167Z" fill="#7E9E7E"/>
<path d="M41.0533 12.3987C41.0533 14.7407 40.3248 16.9141 39.0725 18.7023C38.8798 18.9792 38.6751 19.2502 38.4523 19.509C36.4354 21.9233 33.395 23.4526 29.9994 23.4526C26.6038 23.4526 23.5633 21.9173 21.5463 19.503C21.3235 19.2442 21.1128 18.9732 20.9202 18.6962C19.6739 16.908 18.9453 14.7407 18.9453 12.3986C18.9453 6.29367 23.8944 1.3446 29.9993 1.3446C36.1043 1.34472 41.0533 6.29378 41.0533 12.3987Z" fill="#7E9E7E"/>
<path d="M45.6165 26.9431V28.8494C45.6165 29.353 45.2082 29.7614 44.7044 29.7614H15.2959C14.7922 29.7614 14.3838 29.3532 14.3838 28.8494V26.9431C14.3838 26.4394 14.7921 26.031 15.2959 26.031H44.7045C45.2082 26.031 45.6165 26.4393 45.6165 26.9431Z" fill="#7E9E7E"/>
<path d="M45.6165 34.2392V36.1455C45.6165 36.6492 45.2082 37.0576 44.7044 37.0576H15.2959C14.7922 37.0576 14.3838 36.6493 14.3838 36.1455V34.2392C14.3838 33.7355 14.7921 33.3271 15.2959 33.3271H44.7045C45.2082 33.3273 45.6165 33.7355 45.6165 34.2392Z" fill="#7E9E7E"/>
<path d="M38.4529 19.509C36.436 21.9233 33.3956 23.4526 30 23.4526C26.6043 23.4526 23.5639 21.9173 21.5469 19.503C23.4012 16.8358 26.4959 15.0898 30 15.0898C33.498 15.0898 36.5926 16.8358 38.4529 19.509Z" fill="#7E9E7E"/>
<path d="M33.4918 8.39503C33.4918 10.3201 31.9248 11.8871 29.9998 11.8871C28.0669 11.8871 26.5078 10.3201 26.5078 8.39503C26.5078 6.46214 28.0669 4.90308 29.9998 4.90308C31.9248 4.90296 33.4918 6.46202 33.4918 8.39503Z" fill="#7E9E7E"/>
<path d="M50.8722 49.3049C54.6339 49.3049 57.6951 46.2459 57.6951 42.4835V17.6821C57.6951 13.9209 54.6351 10.8612 50.8742 10.8612H43.7045C43.3338 10.8612 43.0336 11.1617 43.0336 11.5321C43.0336 11.9025 43.3339 12.203 43.7045 12.203H50.8742C53.8955 12.203 56.3533 14.6608 56.3533 17.6821V39.3064H3.64637V17.6821C3.64637 14.6608 6.10414 12.203 9.12547 12.203H16.2952C16.6659 12.203 16.9661 11.9025 16.9661 11.5321C16.9661 11.1617 16.6658 10.8612 16.2952 10.8612H9.12559C5.36457 10.8612 2.30469 13.921 2.30469 17.6821V42.4835C2.30469 46.2453 5.36527 49.3049 9.12758 49.3049H24.8436L22.4486 57.9548H20.1157C19.745 57.9548 19.4448 58.2552 19.4448 58.6257C19.4448 58.9961 19.7451 59.2966 20.1157 59.2966H41.3267C41.6974 59.2966 41.9976 58.9961 41.9976 58.6257C41.9976 58.2552 41.6973 57.9548 41.3267 57.9548H38.9937L36.599 49.3049H50.8722ZM3.6473 40.6482H56.3521V42.4831C56.3521 45.5028 53.8957 47.9627 50.8741 47.9627H9.12559C6.11117 47.9627 3.6473 45.5098 3.6473 42.4831V40.6482ZM37.6013 57.9548H23.8411L26.236 49.3049H35.2066L37.6013 57.9548Z" fill="white"/>
<path d="M37.0186 44.9767H39.8175C40.1881 44.9767 40.4884 44.6762 40.4884 44.3058C40.4884 43.9354 40.188 43.6349 39.8175 43.6349H37.0186C36.6479 43.6349 36.3477 43.9354 36.3477 44.3058C36.3477 44.6762 36.6479 44.9767 37.0186 44.9767Z" fill="white"/>
<path d="M42.7471 44.9767H45.5459C45.9165 44.9767 46.2168 44.6762 46.2168 44.3058C46.2168 43.9354 45.9164 43.6349 45.5459 43.6349H42.7471C42.3764 43.6349 42.0762 43.9354 42.0762 44.3058C42.0761 44.6762 42.3764 44.9767 42.7471 44.9767Z" fill="white"/>
<path d="M48.4746 44.9767H51.2735C51.6442 44.9767 51.9444 44.6762 51.9444 44.3058C51.9444 43.9354 51.6441 43.6349 51.2735 43.6349H48.4746C48.1039 43.6349 47.8037 43.9354 47.8037 44.3058C47.8037 44.6762 48.1041 44.9767 48.4746 44.9767Z" fill="white"/>
<path d="M30.0002 0.703491C23.535 0.703491 18.2754 5.96334 18.2754 12.4283C18.2754 18.8926 23.5364 24.1532 30.0002 24.1532C36.4205 24.1532 41.7251 18.9256 41.7251 12.4283C41.7251 5.96334 36.4655 0.703491 30.0002 0.703491ZM22.4304 19.5191C22.4229 19.5111 22.416 19.5024 22.4086 19.4944C24.2237 17.1658 27.0237 15.7903 30.0004 15.7903C32.9729 15.7903 35.7732 17.168 37.592 19.5007C37.5858 19.5074 37.58 19.5145 37.5738 19.5212C35.6872 21.5524 32.9555 22.8114 30.0002 22.8114C27.0507 22.8113 24.3308 21.562 22.4304 19.5191ZM38.4555 18.4406C36.3813 15.9279 33.285 14.4484 30.0002 14.4484C26.7102 14.4484 23.6125 15.927 21.5416 18.4378C20.2657 16.6573 19.6172 14.5671 19.6172 12.4283C19.6172 6.70326 24.2749 2.04541 30.0001 2.04541C35.7253 2.04541 40.3832 6.70337 40.3832 12.4283C40.3833 14.5786 39.7403 16.6349 38.4555 18.4406Z" fill="white"/>
<path d="M29.9998 4.2616C27.7044 4.2616 25.8369 6.12933 25.8369 8.42468C25.8369 10.72 27.7044 12.5873 29.9998 12.5873C32.2951 12.5873 34.1626 10.72 34.1626 8.42468C34.1626 6.12933 32.2951 4.2616 29.9998 4.2616ZM29.9998 11.2454C28.4443 11.2454 27.1787 9.97999 27.1787 8.42457C27.1787 6.86867 28.4443 5.60328 29.9998 5.60328C31.5552 5.60328 32.8208 6.86867 32.8208 8.42457C32.8208 9.97999 31.5552 11.2454 29.9998 11.2454Z" fill="white"/>
<path d="M13.7129 26.9726V28.8788C13.7129 29.7515 14.4229 30.4618 15.2959 30.4618H44.7047C45.5776 30.4618 46.2876 29.7515 46.2876 28.8788V26.9726C46.2876 26.0999 45.5776 25.3896 44.7047 25.3896H15.2959C14.4229 25.3896 13.7129 26.0999 13.7129 26.9726ZM44.9457 26.9726V28.8788C44.9457 29.0116 44.8375 29.1198 44.7047 29.1198H15.2959C15.1629 29.1198 15.0548 29.0116 15.0548 28.8788V26.9726C15.0548 26.8398 15.163 26.7316 15.2959 26.7316H44.7047C44.8375 26.7316 44.9457 26.8398 44.9457 26.9726Z" fill="white"/>
<path d="M15.2959 37.7578H44.7047C45.5776 37.7578 46.2876 37.0475 46.2876 36.1748V34.2686C46.2876 33.3959 45.5776 32.6857 44.7047 32.6857H15.2959C14.4229 32.6857 13.7129 33.3959 13.7129 34.2686V36.1748C13.7129 37.0476 14.4229 37.7578 15.2959 37.7578ZM15.0547 34.2688C15.0547 34.136 15.1629 34.0277 15.2957 34.0277H44.7045C44.8375 34.0277 44.9456 34.136 44.9456 34.2688V36.1749C44.9456 36.3077 44.8374 36.416 44.7045 36.416H15.2959C15.1629 36.416 15.0548 36.3077 15.0548 36.1749V34.2688H15.0547Z" fill="white"/>
</svg>
