<svg width="60" height="60" viewBox="0 0 60 60" fill="none" xmlns="http://www.w3.org/2000/svg">
<path d="M9.52977 2.26877H44.0195C45.9513 2.26877 47.5229 3.84037 47.5229 5.77221V7.05143C47.5229 7.4699 47.862 7.80916 48.2806 7.80916C48.6991 7.80916 49.0384 7.47002 49.0384 7.05143V5.77221C49.0384 3.00494 46.787 0.753418 44.0196 0.753418H9.52977C6.76215 0.753418 4.51074 3.00482 4.51074 5.77221V48.148C4.51074 50.5344 6.20516 52.6036 8.53953 53.0677C8.58922 53.0774 8.63902 53.0824 8.68813 53.0822C9.04215 53.0822 9.35879 52.8327 9.43039 52.4722C9.51207 52.0617 9.24535 51.6631 8.83484 51.5814C7.20734 51.258 6.02609 49.8139 6.02609 48.1481V5.77221C6.02609 3.84037 7.59805 2.26877 9.52977 2.26877Z" fill="white"/>
<path d="M55.489 54.4634V17.7857C55.489 17.6361 55.4111 17.3941 55.2671 17.25L45.0721 7.05508C44.9358 6.91879 44.7025 6.83313 44.5364 6.83313H15.7444C13.1068 6.83313 10.9609 8.97895 10.9609 11.6166V54.4635C10.9609 57.1009 13.1068 59.2466 15.7444 59.2466H50.7055C53.3432 59.2466 55.489 57.1008 55.489 54.4634ZM52.9022 17.028H46.7491C45.9467 17.028 45.2941 16.3754 45.2941 15.573V9.41981L52.9022 17.028ZM50.7055 57.7313H15.7444C13.9423 57.7313 12.4763 56.2654 12.4763 54.4635V11.6165C12.4763 9.81438 13.9422 8.34836 15.7444 8.34836H43.7787V15.573C43.7787 17.2109 45.1111 18.5433 46.7491 18.5433H53.9737V54.4634C53.9737 56.2653 52.5078 57.7313 50.7055 57.7313Z" fill="white"/>
<path d="M17.7568 13.4459H29.0889C29.5074 13.4459 29.8466 13.1067 29.8466 12.6882C29.8466 12.2696 29.5075 11.9304 29.0889 11.9304H17.7568C17.3383 11.9304 16.999 12.2696 16.999 12.6882C16.999 13.1067 17.3383 13.4459 17.7568 13.4459Z" fill="white"/>
<path d="M24.1805 16.6689C24.1805 16.2504 23.8414 15.9111 23.4228 15.9111H17.7568C17.3383 15.9111 16.999 16.2503 16.999 16.6689C16.999 17.0875 17.3382 17.4266 17.7568 17.4266H23.4228C23.8414 17.4266 24.1805 17.0875 24.1805 16.6689Z" fill="white"/>
<path d="M33.2217 22.696C25.0298 22.696 18.3652 29.3604 18.3652 37.5523C18.3652 45.7476 25.0299 52.4153 33.2217 52.4153C41.4171 52.4153 48.0847 45.7476 48.0847 37.5523C48.0847 29.3604 41.4171 22.696 33.2217 22.696ZM33.2217 50.8999C25.8654 50.8999 19.8806 44.9121 19.8806 37.5523C19.8806 30.1962 25.8654 24.2114 33.2217 24.2114C40.5815 24.2114 46.5693 30.1962 46.5693 37.5523C46.5693 44.9121 40.5815 50.8999 33.2217 50.8999Z" fill="white"/>
<path d="M28.6412 36.0321H29.1236V40.2571C29.1236 41.3175 29.9864 42.1802 31.0466 42.1802H35.4044C36.4646 42.1802 37.3274 41.3175 37.3274 40.2571V36.0321H37.8098C38.3825 36.0321 38.8927 35.7116 39.1411 35.1954C39.3894 34.6789 39.3217 34.0801 38.9641 33.6323L34.8113 28.4339C34.4239 27.9491 33.8458 27.6709 33.2256 27.6709C32.6053 27.6709 32.0272 27.9491 31.6398 28.4339L27.4868 33.6326C27.1296 34.0801 27.0617 34.6788 27.31 35.1953C27.5583 35.7116 28.0685 36.0321 28.6412 36.0321ZM32.8236 29.38C32.958 29.2116 33.1332 29.1864 33.2256 29.1864C33.3179 29.1864 33.4931 29.2116 33.6275 29.38L37.7312 34.5168H36.5699C36.1514 34.5168 35.8121 34.8559 35.8121 35.2745V40.2572C35.8121 40.4821 35.6292 40.665 35.4045 40.665H31.0467C30.822 40.665 30.6391 40.4821 30.6391 40.2572V35.2745C30.6391 34.856 30.3 34.5168 29.8814 34.5168H28.72L32.8236 29.38Z" fill="white"/>
<path d="M37.3059 43.4731H29.1454C28.0518 43.4731 27.1621 44.3632 27.1621 45.4568C27.1621 46.5504 28.0518 47.4401 29.1454 47.4401H37.3059C38.3995 47.4401 39.2891 46.5504 39.2891 45.4568C39.2891 44.3632 38.3995 43.4731 37.3059 43.4731ZM37.3059 45.9246H29.1454C28.8873 45.9246 28.6775 45.7147 28.6775 45.4567C28.6775 45.1986 28.8873 44.9884 29.1454 44.9884H37.3059C37.5639 44.9884 37.7738 45.1985 37.7738 45.4567C37.7738 45.7148 37.5639 45.9246 37.3059 45.9246Z" fill="white"/>
</svg>
