<svg width="64" height="64" viewBox="0 0 64 64" fill="none" xmlns="http://www.w3.org/2000/svg">
<g clip-path="url(#clip0_370_395)">
<path d="M49.9998 60.0002C49.0198 60.0002 49.4798 60.1402 38.7598 51.5602C38.3477 51.2302 38.0828 50.7506 38.0228 50.2261C37.9629 49.7016 38.1128 49.1746 38.4398 48.7602C38.7698 48.3481 39.2493 48.0832 39.7738 48.0232C40.2984 47.9633 40.8253 48.1131 41.2398 48.4402L50.2398 55.6402L51.6198 54.9602L48.5998 44.4202C48.5067 44.1013 48.4946 43.7643 48.5644 43.4396C48.6343 43.1148 48.7839 42.8126 48.9998 42.5602C49.2667 42.286 49.6028 42.0892 49.9725 41.9906C50.3423 41.892 50.7318 41.8953 51.0998 42.0002C52.9321 42.1619 54.7643 41.6873 56.2876 40.6562C57.8109 39.6251 58.9324 38.1006 59.4631 36.3393C59.9939 34.578 59.9014 32.6877 59.2014 30.9866C58.5013 29.2855 57.2364 27.8777 55.6198 27.0002C55.377 26.873 55.163 26.6973 54.991 26.484C54.819 26.2707 54.6926 26.0243 54.6198 25.7602C54.1598 24.0002 55.9998 23.3802 55.9998 20.0002C55.9924 18.6494 55.6432 17.3225 54.9846 16.1432C54.3261 14.9638 53.3796 13.9704 52.2335 13.2556C51.0874 12.5407 49.7789 12.1278 48.4301 12.0551C47.0813 11.9825 45.736 12.2526 44.5198 12.8402C44.2533 12.9753 43.9599 13.049 43.6611 13.0558C43.3624 13.0627 43.0659 13.0025 42.7935 12.8797C42.5211 12.757 42.2796 12.5747 42.0869 12.3463C41.8941 12.118 41.755 11.8493 41.6798 11.5602C41.1238 9.41577 39.8716 7.51668 38.1196 6.16096C36.3676 4.80525 34.215 4.06966 31.9998 4.06966C29.7845 4.06966 27.6319 4.80525 25.8799 6.16096C24.1279 7.51668 22.8757 9.41577 22.3198 11.5602C22.2445 11.8493 22.1054 12.118 21.9127 12.3463C21.7199 12.5747 21.4785 12.757 21.2061 12.8797C20.9336 13.0025 20.6372 13.0627 20.3384 13.0558C20.0397 13.049 19.7463 12.9753 19.4798 12.8402C17.9349 12.1169 16.1992 11.9064 14.5262 12.2394C12.8532 12.5724 11.3304 13.4314 10.1802 14.6911C9.02994 15.9508 8.31247 17.5451 8.13249 19.2414C7.95252 20.9377 8.31946 22.6472 9.17977 24.1202C9.31933 24.3545 9.40947 24.6149 9.44467 24.8854C9.47987 25.1559 9.45937 25.4307 9.38444 25.6929C9.30951 25.9552 9.18173 26.1993 9.00896 26.4104C8.83618 26.6214 8.62206 26.7949 8.37977 26.9202C6.80498 27.7483 5.55119 29.0778 4.8167 30.6983C4.0822 32.3189 3.9089 34.1381 4.32422 35.8682C4.73954 37.5983 5.71976 39.1406 7.10988 40.2511C8.49999 41.3617 10.2207 41.9771 11.9998 42.0002C12.5302 42.0002 13.0389 42.2109 13.414 42.5859C13.7891 42.961 13.9998 43.4697 13.9998 44.0002C13.9998 44.5306 13.7891 45.0393 13.414 45.4144C13.0389 45.7894 12.5302 46.0002 11.9998 46.0002C9.4863 45.9876 7.04021 45.1862 5.00666 43.7089C2.97311 42.2316 1.45478 40.153 0.665912 37.7665C-0.122959 35.38 -0.142541 32.8061 0.60993 30.4079C1.3624 28.0096 2.84893 25.9082 4.85977 24.4002C4.03962 22.3295 3.8119 20.0714 4.20211 17.8787C4.59232 15.686 5.58506 13.6451 7.06921 11.9845C8.55337 10.3239 10.4704 9.10915 12.6057 8.47611C14.741 7.84307 17.0104 7.81677 19.1598 8.40016C20.247 5.89835 22.0414 3.76866 24.3224 2.27277C26.6035 0.776886 29.2719 -0.0200195 31.9998 -0.0200195C34.7276 -0.0200195 37.396 0.776886 39.6771 2.27277C41.9582 3.76866 43.7526 5.89835 44.8398 8.40016C46.9892 7.81677 49.2585 7.84307 51.3938 8.47611C53.5292 9.10915 55.4462 10.3239 56.9303 11.9845C58.4145 13.6451 59.4072 15.686 59.7974 17.8787C60.1876 20.0714 59.9599 22.3295 59.1398 24.4002C61.0923 25.8399 62.5626 27.8376 63.3569 30.1298C64.1511 32.4221 64.2319 34.9012 63.5886 37.2404C62.9454 39.5795 61.6083 41.6687 59.7536 43.2325C57.899 44.7963 55.6139 45.7613 53.1998 46.0002L55.9998 55.4402C56.129 55.8879 56.0979 56.3668 55.9116 56.794C55.7254 57.2213 55.3958 57.5701 54.9798 57.7802C50.4998 60.0002 50.6398 60.0002 49.9998 60.0002Z" fill="#1F1F1F"/>
<path d="M37.9995 56.0001H25.9995C25.5081 56.0037 25.0327 55.8262 24.6638 55.5016C24.2949 55.177 24.0585 54.728 23.9995 54.2401C23.301 50.4633 21.4902 46.9811 18.7995 44.2401C16.4126 41.674 14.8268 38.4669 14.2366 35.0123C13.6464 31.5577 14.0775 28.006 15.477 24.793C16.8765 21.5799 19.1835 18.8453 22.115 16.9247C25.0465 15.004 28.4749 13.981 31.9795 13.981C35.4841 13.981 38.9125 15.004 41.844 16.9247C44.7755 18.8453 47.0825 21.5799 48.482 24.793C49.8815 28.006 50.3126 31.5577 49.7224 35.0123C49.1322 38.4669 47.5464 41.674 45.1595 44.2401C42.4879 46.9922 40.6862 50.4703 39.9795 54.2401C39.8917 54.7117 39.6495 55.1406 39.291 55.4593C38.9325 55.778 38.4781 55.9683 37.9995 56.0001ZM27.6395 52.0001H36.3595C37.3989 48.0661 39.4303 44.4646 42.2595 41.5401C44.1133 39.5433 45.3442 37.0489 45.8012 34.3628C46.2582 31.6767 45.9214 28.9156 44.8322 26.4181C43.7429 23.9206 41.9486 21.7952 39.6691 20.3025C37.3897 18.8099 34.7242 18.0148 31.9995 18.0148C29.2748 18.0148 26.6093 18.8099 24.3299 20.3025C22.0504 21.7952 20.2561 23.9206 19.1668 26.4181C18.0776 28.9156 17.7408 31.6767 18.1978 34.3628C18.6548 37.0489 19.8857 39.5433 21.7395 41.5401C24.5687 44.4646 26.6001 48.0661 27.6395 52.0001Z" fill="#4661FF"/>
<path d="M31.999 64C29.8773 64 27.8425 63.1571 26.3422 61.6569C24.8419 60.1566 23.999 58.1217 23.999 56V54C23.999 53.4696 24.2097 52.9609 24.5848 52.5858C24.9599 52.2107 25.4686 52 25.999 52H37.999C38.5295 52 39.0382 52.2107 39.4132 52.5858C39.7883 52.9609 39.999 53.4696 39.999 54V56C39.999 58.1217 39.1562 60.1566 37.6559 61.6569C36.1556 63.1571 34.1208 64 31.999 64ZM27.999 56C27.999 57.0609 28.4205 58.0783 29.1706 58.8284C29.9207 59.5786 30.9382 60 31.999 60C33.0599 60 34.0773 59.5786 34.8274 58.8284C35.5776 58.0783 35.999 57.0609 35.999 56H27.999Z" fill="#4661FF"/>
<path d="M31.9994 56.0004C31.469 56.0004 30.9603 55.7897 30.5852 55.4146C30.2101 55.0395 29.9994 54.5308 29.9994 54.0004C29.9994 48.1804 30.5594 45.4004 26.5794 41.4204C26.2028 41.0438 25.9912 40.533 25.9912 40.0004C25.9912 39.4678 26.2028 38.957 26.5794 38.5804C26.956 38.2038 27.4668 37.9922 27.9994 37.9922C28.532 37.9922 29.0428 38.2038 29.4194 38.5804C34.5594 43.7204 33.9994 47.7604 33.9994 54.0004C33.9994 54.5308 33.7887 55.0395 33.4136 55.4146C33.0385 55.7897 32.5298 56.0004 31.9994 56.0004Z" fill="#4661FF"/>
<path d="M31.9994 56.0004C31.4689 56.0004 30.9602 55.7897 30.5852 55.4146C30.2101 55.0395 29.9994 54.5308 29.9994 54.0004C29.9994 47.6804 29.4394 43.7404 34.5794 38.5804C34.956 38.2038 35.4668 37.9922 35.9994 37.9922C36.532 37.9922 37.0428 38.2038 37.4194 38.5804C37.796 38.957 38.0076 39.4678 38.0076 40.0004C38.0076 40.533 37.796 41.0438 37.4194 41.4204C33.4194 45.4204 33.9994 48.1604 33.9994 54.0004C33.9994 54.5308 33.7887 55.0395 33.4136 55.4146C33.0385 55.7897 32.5298 56.0004 31.9994 56.0004Z" fill="#4661FF"/>
</g>
<defs>
<clipPath id="clip0_370_395">
<rect width="64" height="64" fill="white"/>
</clipPath>
</defs>
</svg>
