<svg width="64" height="64" viewBox="0 0 64 64" fill="none" xmlns="http://www.w3.org/2000/svg">
<path d="M25 16C26.1046 16 27 16.8954 27 18V32H30V23C30 21.8954 30.8954 21 32 21C33.1046 21 34 21.8954 34 23V32H37V27C37 25.8954 37.8954 25 39 25C40.1046 25 41 25.8954 41 27V32H44C45.1046 32 46 32.8954 46 34C46 35.1046 45.1046 36 44 36H20C18.8954 36 18 35.1046 18 34C18 32.8954 18.8954 32 20 32H23V18C23 16.8954 23.8954 16 25 16Z" fill="#F3BA0E"/>
<path fill-rule="evenodd" clip-rule="evenodd" d="M62 11C62 7.68629 59.3137 5 56 5H8C4.68629 5 2 7.68629 2 11V41C2 44.3137 4.68629 47 8 47H24.6391L24.5711 47.4081C24.2433 49.3747 23.6233 51.2812 22.7317 53.0644L21.7639 55H19C17.8954 55 17 55.8954 17 57C17 58.1046 17.8954 59 19 59H45C46.1046 59 47 58.1046 47 57C47 55.8954 46.1046 55 45 55H42.2361L41.2683 53.0644C40.3767 51.2812 39.7567 49.3747 39.4289 47.4081L39.3609 47H56C59.3137 47 62 44.3137 62 41V11ZM37.6906 54.8533L37.7639 55H26.2361L26.3094 54.8533C27.3794 52.7134 28.1233 50.4256 28.5166 48.0657L28.6943 47H35.3057L35.4834 48.0657C35.8767 50.4256 36.6206 52.7134 37.6906 54.8533ZM8 43H56C57.1046 43 58 42.1046 58 41V11C58 9.89543 57.1046 9 56 9H8C6.89543 9 6 9.89543 6 11V41C6 42.1046 6.89543 43 8 43Z" fill="#1F1F1F"/>
</svg>
