<svg width="80" height="80" viewBox="0 0 80 80" fill="none" xmlns="http://www.w3.org/2000/svg">
<path d="M33.3333 26.6668C33.3333 32.9522 33.3333 36.0948 31.3807 38.0475C29.4281 40.0002 26.2854 40.0002 20 40.0002C13.7146 40.0002 10.5719 40.0002 8.61929 38.0475C6.66666 36.0948 6.66666 32.9522 6.66666 26.6668C6.66666 20.3814 6.66666 17.2387 8.61929 15.2861C10.5719 13.3335 13.7146 13.3335 20 13.3335C26.2854 13.3335 29.4281 13.3335 31.3807 15.2861C33.3333 17.2387 33.3333 20.3814 33.3333 26.6668Z" stroke="#6B61FC" stroke-width="1.5"/>
<path d="M33.3333 23.3335V38.2738C33.3333 51.5158 24.9476 62.7458 13.3333 66.6668" stroke="#6B61FC" stroke-width="1.5" stroke-linecap="round"/>
<path d="M73.3333 26.6668C73.3333 32.9522 73.3333 36.0948 71.3807 38.0475C69.428 40.0002 66.2853 40.0002 60 40.0002C53.7147 40.0002 50.572 40.0002 48.6193 38.0475C46.6667 36.0948 46.6667 32.9522 46.6667 26.6668C46.6667 20.3814 46.6667 17.2387 48.6193 15.2861C50.572 13.3335 53.7147 13.3335 60 13.3335C66.2853 13.3335 69.428 13.3335 71.3807 15.2861C73.3333 17.2387 73.3333 20.3814 73.3333 26.6668Z" stroke="#6B61FC" stroke-width="1.5"/>
<path d="M73.3333 23.3335V38.2738C73.3333 51.5158 64.9477 62.7458 53.3333 66.6668" stroke="#6B61FC" stroke-width="1.5" stroke-linecap="round"/>
</svg>
