<svg width="40" height="40" viewBox="0 0 40 40" fill="none" xmlns="http://www.w3.org/2000/svg">
<path d="M19.9978 0C16.5676 0.000372148 13.1952 0.882954 10.2046 2.56293C7.21405 4.24291 4.7058 6.66382 2.92092 9.59301C1.13604 12.5222 0.134533 15.8612 0.012635 19.2892C-0.109263 22.7172 0.652546 26.1189 2.22486 29.1675L1.10053 38.1837C1.06949 38.4112 1.08779 38.6428 1.15418 38.8626C1.22056 39.0824 1.33349 39.2853 1.48527 39.4576C1.63706 39.6299 1.82416 39.7676 2.03385 39.8611C2.24354 39.9547 2.47092 40.002 2.70053 39.9999H2.89513L12.9924 38.7459C15.7339 39.7653 18.6655 40.171 21.5808 39.9344C24.4961 39.6978 27.324 38.8246 29.8651 37.3765C32.4063 35.9284 34.599 33.9405 36.2885 31.553C37.9781 29.1655 39.1234 26.4365 39.6438 23.5583C40.1642 20.6801 40.047 17.7228 39.3004 14.8949C38.5538 12.0669 37.196 9.43712 35.3228 7.19085C33.4496 4.94458 31.1065 3.13651 28.4586 1.89408C25.8108 0.651651 22.9226 0.0050994 19.9978 0ZM18.9167 32.1729C18.596 32.1729 18.2825 32.0778 18.0158 31.8996C17.7491 31.7214 17.5413 31.4682 17.4185 31.1719C17.2958 30.8756 17.2637 30.5495 17.3263 30.2349C17.3888 29.9204 17.5433 29.6314 17.7701 29.4046C17.9969 29.1779 18.2858 29.0234 18.6004 28.9608C18.9149 28.8983 19.241 28.9304 19.5373 29.0531C19.8336 29.1759 20.0869 29.3837 20.265 29.6504C20.4432 29.9171 20.5383 30.2306 20.5383 30.5513C20.5327 30.9796 20.3601 31.3889 20.0572 31.6918C19.7543 31.9947 19.3451 32.1673 18.9167 32.1729ZM22.8302 21.2108C22.1613 21.4371 21.5803 21.8677 21.1691 22.4418C20.7579 23.0159 20.5373 23.7046 20.5383 24.4108V25.1459C20.5383 25.576 20.3675 25.9884 20.0634 26.2926C19.7593 26.5967 19.3468 26.7675 18.9167 26.7675C18.4866 26.7675 18.0742 26.5967 17.7701 26.2926C17.466 25.9884 17.2951 25.576 17.2951 25.1459V24.4108C17.276 23.0191 17.705 21.6582 18.5187 20.5291C19.3324 19.4 20.4878 18.5626 21.814 18.1405C22.3862 17.9501 22.8841 17.5846 23.2372 17.0957C23.5902 16.6068 23.7807 16.0193 23.7816 15.4162C23.7816 14.4127 23.3829 13.4503 22.6733 12.7407C21.9637 12.0311 21.0013 11.6324 19.9978 11.6324C18.9943 11.6324 18.0319 12.0311 17.3223 12.7407C16.6127 13.4503 16.214 14.4127 16.214 15.4162C16.214 15.8463 16.0432 16.2587 15.7391 16.5628C15.4349 16.867 15.0225 17.0378 14.5924 17.0378C14.1623 17.0378 13.7499 16.867 13.4457 16.5628C13.1416 16.2587 12.9708 15.8463 12.9708 15.4162C12.9708 13.5525 13.7111 11.7652 15.029 10.4473C16.3468 9.12952 18.1341 8.38918 19.9978 8.38918C21.8615 8.38918 23.6488 9.12952 24.9667 10.4473C26.2845 11.7652 27.0248 13.5525 27.0248 15.4162C27.0219 16.7 26.6153 17.9504 25.8625 18.9903C25.1097 20.0302 24.0489 20.807 22.8302 21.2108Z" fill="white"/>
</svg>
