<svg width="37" height="37" viewBox="0 0 37 37" fill="none" xmlns="http://www.w3.org/2000/svg">
<path d="M27.2266 1.69531C28.0234 0.945312 28.9609 0.570312 30.0391 0.570312C31.0703 0.570312 31.9844 0.945312 32.7812 1.69531L35.8047 4.71875C36.5547 5.51562 36.9297 6.42969 36.9297 7.46094C36.9297 8.53906 36.5547 9.47656 35.8047 10.2734L13.7969 32.2812C13 33.0781 12.0625 33.6406 10.9844 33.9688L2.47656 36.4297C2.00781 36.5234 1.63281 36.4297 1.35156 36.1484C1.02344 35.8672 0.929688 35.5156 1.07031 35.0938L3.53125 26.5859C3.85938 25.4609 4.42188 24.5 5.21875 23.7031L27.2266 1.69531ZM31.2344 3.3125C30.4375 2.65625 29.6406 2.65625 28.8438 3.3125L24.9766 7.10938L30.3906 12.4531L34.1875 8.65625C34.8438 7.85938 34.8438 7.0625 34.1875 6.26562L31.2344 3.3125ZM5.71094 27.2188L3.8125 33.6875L10.2812 31.7891C11.0312 31.5547 11.6875 31.1797 12.25 30.6641L28.7031 14.1406L23.3594 8.72656L6.83594 25.25C6.32031 25.8125 5.94531 26.4688 5.71094 27.2188ZM13.1641 2.39844L18.1562 7.39062L16.6094 9.00781L14.3594 6.75781L11.8984 9.14844C11.3828 9.61719 10.8672 9.61719 10.3516 9.14844C9.88281 8.63281 9.88281 8.11719 10.3516 7.60156L12.7422 5.14062L11.6172 4.01562C11.1484 3.59375 10.6094 3.38281 10 3.38281C9.39062 3.38281 8.85156 3.59375 8.38281 4.01562L4.51562 7.88281C4.09375 8.35156 3.88281 8.89062 3.88281 9.5C3.88281 10.1094 4.09375 10.6484 4.51562 11.1172L9.50781 16.1094L7.89062 17.6562L2.89844 12.6641C2.05469 11.7734 1.63281 10.7187 1.63281 9.5C1.63281 8.28125 2.05469 7.22656 2.89844 6.33594L6.83594 2.39844C7.72656 1.55469 8.78125 1.13281 10 1.13281C11.2188 1.13281 12.2734 1.55469 13.1641 2.39844ZM24.8359 34.6016L19.8438 29.6094L21.4609 27.9922L26.3828 32.9844C26.8516 33.4062 27.3906 33.6172 28 33.6172C28.6094 33.6172 29.1484 33.4062 29.6172 32.9844L33.4844 29.1172C33.9062 28.6484 34.1172 28.1094 34.1172 27.5C34.1172 26.8906 33.9062 26.3516 33.4844 25.8828L32.3594 24.6875L29.8984 27.1484C29.3828 27.6172 28.8672 27.6172 28.3516 27.1484C27.8828 26.6328 27.8828 26.1172 28.3516 25.6016L30.7422 23.1406L28.4922 20.9609L30.1094 19.3438L35.1016 24.3359C35.9453 25.2266 36.3672 26.2812 36.3672 27.5C36.3672 28.7188 35.9453 29.7734 35.1016 30.6641L31.1641 34.6016C30.2734 35.4453 29.2188 35.8672 28 35.8672C26.7812 35.8672 25.7266 35.4453 24.8359 34.6016Z" fill="#7E9E7E"/>
</svg>
