<svg width="41" height="37" viewBox="0 0 41 37" fill="none" xmlns="http://www.w3.org/2000/svg">
<path d="M36 0.5C37.2656 0.546875 38.3203 0.992188 39.1641 1.83594C40.0078 2.67969 40.4531 3.73438 40.5 5V25.25C40.4531 26.5156 40.0078 27.5703 39.1641 28.4141C38.3203 29.2578 37.2656 29.7031 36 29.75H25.4531L26.8594 34.25H30.375C31.0781 34.2969 31.4531 34.6719 31.5 35.375C31.4531 36.0781 31.0781 36.4531 30.375 36.5H10.125C9.42188 36.4531 9.04688 36.0781 9 35.375C9.04688 34.6719 9.42188 34.2969 10.125 34.25H13.7109L15.0469 29.75H4.5C3.23438 29.7031 2.17969 29.2578 1.33594 28.4141C0.492188 27.5703 0.046875 26.5156 0 25.25V5C0.046875 3.73438 0.492188 2.67969 1.33594 1.83594C2.17969 0.992188 3.23438 0.546875 4.5 0.5H36ZM16.0312 34.25H24.4688L23.1328 29.75H17.3672L16.0312 34.25ZM38.25 25.25V5C38.25 4.34375 38.0391 3.80469 37.6172 3.38281C37.1953 2.96094 36.6562 2.75 36 2.75H4.5C3.84375 2.75 3.30469 2.96094 2.88281 3.38281C2.46094 3.80469 2.25 4.34375 2.25 5V25.25C2.25 25.9062 2.46094 26.4453 2.88281 26.8672C3.30469 27.2891 3.84375 27.5 4.5 27.5H36C36.6562 27.5 37.1953 27.2891 37.6172 26.8672C38.0391 26.4453 38.25 25.9062 38.25 25.25ZM16.5234 9.85156C16.9922 10.3672 16.9922 10.8828 16.5234 11.3984L12.8672 15.125L16.5234 18.8516C16.9922 19.3672 16.9922 19.8828 16.5234 20.3984C16.2891 20.6328 16.0312 20.75 15.75 20.75C15.4688 20.75 15.2109 20.6328 14.9766 20.3984L10.4766 15.8984C10.0078 15.3828 10.0078 14.8672 10.4766 14.3516L14.9766 9.85156C15.4922 9.38281 16.0078 9.38281 16.5234 9.85156ZM25.5234 9.85156L30.0234 14.3516C30.4922 14.8672 30.4922 15.3828 30.0234 15.8984L25.5234 20.3984C25.2891 20.6328 25.0312 20.75 24.75 20.75C24.4688 20.75 24.2109 20.6328 23.9766 20.3984C23.5078 19.8828 23.5078 19.3672 23.9766 18.8516L27.6328 15.125L23.9766 11.3984C23.5078 10.8828 23.5078 10.3672 23.9766 9.85156C24.4922 9.38281 25.0078 9.38281 25.5234 9.85156Z" fill="#7E9E7E"/>
</svg>
