<svg width="38" height="33" viewBox="0 0 38 33" fill="none" xmlns="http://www.w3.org/2000/svg">
<path d="M36.7188 1.10156C37.1406 1.66406 37.1172 2.20313 36.6484 2.71875L24.2734 13.9688C23.7109 14.3438 23.1953 14.3203 22.7266 13.8984L14.3594 5.53125L2.75781 14.0391C2.19531 14.3672 1.67969 14.2734 1.21094 13.7578C0.882812 13.1953 0.976562 12.6797 1.49219 12.2109L13.8672 3.21094C14.3359 2.88281 14.8047 2.92969 15.2734 3.35156L23.5703 11.5781L35.1016 1.03125C35.6641 0.609375 36.2031 0.632812 36.7188 1.10156ZM8.875 24.375V28.875C8.82812 29.8125 8.5 30.6094 7.89062 31.2656C7.23438 31.875 6.4375 32.2031 5.5 32.25C4.5625 32.2031 3.76562 31.875 3.10938 31.2656C2.5 30.6094 2.17188 29.8125 2.125 28.875V24.375C2.17188 23.4375 2.5 22.6406 3.10938 21.9844C3.76562 21.3281 4.5625 20.9766 5.5 20.9297C6.4375 20.9766 7.23438 21.3281 7.89062 21.9844C8.5 22.6406 8.82812 23.4375 8.875 24.375ZM6.625 28.875V24.375C6.57812 23.6719 6.20312 23.2969 5.5 23.25C4.79688 23.2969 4.42188 23.6719 4.375 24.375V28.875C4.42188 29.5781 4.79688 29.9531 5.5 30C6.20312 29.9531 6.57812 29.5781 6.625 28.875ZM11.125 17.5547C11.1719 16.6172 11.5 15.8438 12.1094 15.2344C12.7656 14.5781 13.5625 14.2266 14.5 14.1797C15.4375 14.2266 16.2344 14.5781 16.8906 15.2344C17.5 15.8438 17.8281 16.6172 17.875 17.5547V28.875C17.8281 29.8125 17.5 30.6094 16.8906 31.2656C16.2344 31.875 15.4375 32.2031 14.5 32.25C13.5625 32.2031 12.7656 31.875 12.1094 31.2656C11.5 30.6094 11.1719 29.8125 11.125 28.875V17.5547ZM14.5 16.4297C13.7969 16.5234 13.4219 16.8984 13.375 17.5547V28.875C13.4219 29.5781 13.7969 29.9531 14.5 30C15.2031 29.9531 15.5781 29.5781 15.625 28.875V17.5547C15.5781 16.8984 15.2031 16.5234 14.5 16.4297ZM26.875 22.125V28.875C26.8281 29.8125 26.5 30.6094 25.8906 31.2656C25.2344 31.875 24.4375 32.2031 23.5 32.25C22.5625 32.2031 21.7656 31.875 21.1094 31.2656C20.5 30.6094 20.1719 29.8125 20.125 28.875V22.125C20.1719 21.1875 20.5 20.3906 21.1094 19.7344C21.7656 19.0781 22.5625 18.7266 23.5 18.6797C24.4375 18.7266 25.2344 19.0781 25.8906 19.7344C26.5 20.3906 26.8281 21.1875 26.875 22.125ZM24.625 28.875V22.125C24.5781 21.4219 24.2031 21.0234 23.5 20.9297C22.7969 21.0234 22.4219 21.4219 22.375 22.125V28.875C22.4219 29.5781 22.7969 29.9531 23.5 30C24.2031 29.9531 24.5781 29.5781 24.625 28.875ZM29.125 17.5547C29.1719 16.6172 29.5 15.8438 30.1094 15.2344C30.7656 14.5781 31.5625 14.2266 32.5 14.1797C33.4375 14.2266 34.2344 14.5781 34.8906 15.2344C35.5 15.8438 35.8281 16.6172 35.875 17.5547V28.875C35.8281 29.8125 35.5 30.6094 34.8906 31.2656C34.2344 31.875 33.4375 32.2031 32.5 32.25C31.5625 32.2031 30.7656 31.875 30.1094 31.2656C29.5 30.6094 29.1719 29.8125 29.125 28.875V17.5547ZM32.5 16.4297C31.7969 16.5234 31.4219 16.8984 31.375 17.5547V28.875C31.4219 29.5781 31.7969 29.9531 32.5 30C33.2031 29.9531 33.5781 29.5781 33.625 28.875V17.5547C33.5781 16.8984 33.2031 16.5234 32.5 16.4297Z" fill="#7E9E7E"/>
</svg>
