<svg width="37" height="37" viewBox="0 0 37 37" fill="none" xmlns="http://www.w3.org/2000/svg">
<path d="M36.25 14C36.25 15.0781 35.9219 15.9922 35.2656 16.7422C34.6562 17.5391 33.8594 18.0781 32.875 18.3594V25.1797C32.7812 28.3203 31.6797 30.9453 29.5703 33.0547C27.4609 35.1641 24.8125 36.2656 21.625 36.3594C18.4375 36.3125 15.7891 35.2344 13.6797 33.125C11.5703 31.0156 10.4688 28.3672 10.375 25.1797V25.1094C7.46875 24.7344 5.07812 23.5156 3.20312 21.4531C1.28125 19.4375 0.296875 16.9297 0.25 13.9297V3.875C0.25 3.45312 0.460938 3.10156 0.882812 2.82031L5.38281 0.640625C6.03906 0.359375 6.53125 0.523437 6.85938 1.13281C7.14062 1.78906 6.97656 2.28125 6.36719 2.60938L2.5 4.57812V14C2.54688 16.5312 3.4375 18.6406 5.17188 20.3281C6.85938 22.0156 8.96875 22.8828 11.5 22.9297C14.0312 22.8828 16.1406 22.0156 17.8281 20.3281C19.5625 18.6406 20.4531 16.5312 20.5 14V4.57812L16.6328 2.60938C16.0234 2.23438 15.8594 1.78906 16.1406 1.27344C16.4688 0.664062 16.9609 0.476563 17.6172 0.710938L22.1172 2.96094C22.5391 3.14844 22.75 3.47656 22.75 3.94531V14C22.7031 16.9531 21.7188 19.4609 19.7969 21.5234C17.9219 23.5859 15.5312 24.7812 12.625 25.1094V25.25C12.6719 27.7812 13.5625 29.8906 15.2969 31.5781C16.9844 33.2656 19.0938 34.1328 21.625 34.1797C24.1562 34.1328 26.2656 33.2656 27.9531 31.5781C29.6875 29.8906 30.5781 27.7812 30.625 25.25V18.3594C29.6406 18.0781 28.8438 17.5391 28.2344 16.7422C27.5781 15.9922 27.25 15.0781 27.25 14C27.2969 12.7344 27.7422 11.7031 28.5859 10.9062C29.4297 10.0625 30.4844 9.61719 31.75 9.57031C33.0156 9.61719 34.0703 10.0391 34.9141 10.8359C35.7578 11.6797 36.2031 12.7344 36.25 14ZM31.75 16.25C32.4062 16.25 32.9453 16.0391 33.3672 15.6172C33.7891 15.1953 34 14.6797 34 14.0703C34 13.4609 33.7891 12.9453 33.3672 12.5234C32.9453 12.1016 32.4062 11.8906 31.75 11.8906C31.0938 11.8906 30.5547 12.1016 30.1328 12.5234C29.7109 12.8984 29.5 13.4141 29.5 14.0703C29.5 14.6797 29.7109 15.1953 30.1328 15.6172C30.5547 16.0391 31.0938 16.25 31.75 16.25Z" fill="#7E9E7E"/>
</svg>
