<svg width="36" height="37" viewBox="0 0 36 37" fill="none" xmlns="http://www.w3.org/2000/svg">
<path d="M11.8125 7.03906C11.9062 7.13281 12.0234 7.20312 12.1641 7.25C11.0859 7.29688 10.0312 7.39062 9 7.53125V6.125C9.09375 5.04688 9.53906 4.17969 10.3359 3.52344C11.1328 2.86719 12.1406 2.32812 13.3594 1.90625C15.8438 1.01562 18.8906 0.546875 22.5 0.5C26.0625 0.546875 29.1094 1.01562 31.6406 1.90625C32.8594 2.32812 33.8672 2.86719 34.6641 3.52344C35.4609 4.17969 35.9062 5.04688 36 6.125V13.4375V21.4531C35.9531 22.5312 35.5078 23.4219 34.6641 24.125C33.8203 24.8281 32.8125 25.3906 31.6406 25.8125C30.9375 26.0938 30.1406 26.3516 29.25 26.5859V24.2656C29.8125 24.0781 30.3516 23.8906 30.8672 23.7031C31.8984 23.3281 32.6719 22.9062 33.1875 22.4375C33.6094 22.0156 33.7969 21.6875 33.75 21.4531V16.8125C33.1406 17.1875 32.4375 17.5156 31.6406 17.7969C30.9375 18.0781 30.1406 18.3359 29.25 18.5703V16.25C29.8125 16.0625 30.3516 15.8984 30.8672 15.7578C31.8984 15.3359 32.6719 14.8906 33.1875 14.4219C33.6094 13.9531 33.7969 13.625 33.75 13.4375V9.35938C33.1406 9.73437 32.4375 10.0625 31.6406 10.3438C30.4219 10.8125 29.0156 11.1641 27.4219 11.3984C27.3281 11.2578 27.2344 11.1641 27.1406 11.1172C27.0938 11.0703 27.0469 11.0469 27 11.0469C26.2969 10.3906 25.5234 9.85156 24.6797 9.42969C27.1641 9.24219 29.2031 8.84375 30.7969 8.23438C31.9219 7.85938 32.7188 7.46094 33.1875 7.03906C33.6094 6.61719 33.7969 6.3125 33.75 6.125C33.7969 5.9375 33.6094 5.63281 33.1875 5.21094C32.7188 4.78906 31.9219 4.39062 30.7969 4.01562C28.6875 3.21875 25.9219 2.79688 22.5 2.75C19.0781 2.79688 16.2891 3.21875 14.1328 4.01562C13.1016 4.39062 12.3281 4.78906 11.8125 5.21094C11.3438 5.63281 11.1328 5.9375 11.1797 6.125C11.1328 6.3125 11.3438 6.61719 11.8125 7.03906ZM0 15.125C0.09375 14.0469 0.539063 13.1562 1.33594 12.4531C2.13281 11.8437 3.14062 11.3281 4.35938 10.9062C6.84375 10.0156 9.89062 9.54688 13.5 9.5C17.0625 9.54688 20.1094 10.0156 22.6406 10.9062C23.8594 11.3281 24.8672 11.8437 25.6641 12.4531C26.4609 13.1562 26.9062 14.0469 27 15.125V30.4531C26.9531 31.5312 26.5078 32.4219 25.6641 33.125C24.8203 33.8281 23.8125 34.3906 22.6406 34.8125C20.1562 35.75 17.1094 36.2188 13.5 36.2188C9.84375 36.2188 6.79688 35.75 4.35938 34.8125C3.14062 34.3906 2.13281 33.8281 1.33594 33.125C0.492188 32.4219 0.046875 31.5312 0 30.4531V15.125ZM2.8125 16.0391C3.32812 16.4609 4.10156 16.8594 5.13281 17.2344C7.28906 18.0312 10.0781 18.4531 13.5 18.5C16.9219 18.4531 19.6875 18.0312 21.7969 17.2344C22.9219 16.8594 23.7188 16.4609 24.1875 16.0391C24.6094 15.6172 24.7969 15.3125 24.75 15.125C24.7969 14.9375 24.6094 14.6328 24.1875 14.2109C23.7188 13.7891 22.9219 13.3906 21.7969 13.0156C19.6875 12.1719 16.9219 11.75 13.5 11.75C10.0781 11.75 7.28906 12.1719 5.13281 13.0156C4.10156 13.3906 3.32812 13.7891 2.8125 14.2109C2.39062 14.6328 2.20312 14.9375 2.25 15.125C2.20312 15.3125 2.39062 15.6172 2.8125 16.0391ZM22.6406 19.3438C20.1094 20.2344 17.0625 20.7031 13.5 20.75C9.89062 20.7031 6.84375 20.2344 4.35938 19.3438C3.5625 19.0625 2.85938 18.7344 2.25 18.3594V22.4375C2.20312 22.625 2.41406 22.9531 2.88281 23.4219C3.35156 23.8906 4.10156 24.3359 5.13281 24.7578C7.28906 25.5547 10.0781 25.9766 13.5 26.0234C16.9219 25.9766 19.7109 25.5547 21.8672 24.7578C22.8984 24.3359 23.6719 23.8906 24.1875 23.4219C24.6094 22.9531 24.7969 22.625 24.75 22.4375V18.3594C24.1406 18.7344 23.4375 19.0625 22.6406 19.3438ZM2.88281 31.4375C3.35156 31.9062 4.10156 32.3281 5.13281 32.7031C7.28906 33.5469 10.0781 33.9688 13.5 33.9688C16.9219 33.9688 19.7109 33.5469 21.8672 32.7031C22.8984 32.3281 23.6719 31.9062 24.1875 31.4375C24.6094 31.0156 24.7969 30.6875 24.75 30.4531V25.8125C24.1406 26.1875 23.4375 26.5156 22.6406 26.7969C20.1562 27.7344 17.1094 28.2266 13.5 28.2734C9.84375 28.2266 6.79688 27.7344 4.35938 26.7969C3.5625 26.5156 2.83594 26.1875 2.17969 25.8125V30.4531C2.17969 30.6875 2.41406 31.0156 2.88281 31.4375Z" fill="#7E9E7E"/>
</svg>
