<svg width="36" height="37" viewBox="0 0 36 37" fill="none" xmlns="http://www.w3.org/2000/svg">
<path d="M34.875 9.92188C35.5781 10.3438 35.9531 10.9766 36 11.8203C36 12.4297 35.7891 12.9453 35.3672 13.3672C34.9453 13.7891 34.4297 14 33.8203 14H2.17969C1.57031 14 1.05469 13.7891 0.632812 13.3672C0.210938 12.9453 0 12.4297 0 11.8203C0.046875 10.9766 0.421875 10.3438 1.125 9.92188L17.4375 0.640625C17.7656 0.453125 18.1406 0.453125 18.5625 0.640625L34.875 9.92188ZM33.6094 11.75L18 2.89062L2.39062 11.75H14.4141C14.1797 11.2344 14.0625 10.6719 14.0625 10.0625C14.1094 8.9375 14.4844 8 15.1875 7.25C15.9375 6.54688 16.875 6.17188 18 6.125C19.125 6.17188 20.0625 6.54688 20.8125 7.25C21.5156 8 21.8906 8.9375 21.9375 10.0625C21.9375 10.6719 21.8203 11.2344 21.5859 11.75H33.6094ZM18 11.75C19.0312 11.6563 19.5938 11.0938 19.6875 10.0625C19.5938 9.03125 19.0312 8.46875 18 8.375C16.9688 8.46875 16.4062 9.03125 16.3125 10.0625C16.4062 11.0938 16.9688 11.6563 18 11.75ZM4.5 16.25H6.75V25.25H12.375V16.25H14.625V25.25H21.375V16.25H23.625V25.25H29.25V16.25H31.5V25.25C32.2031 25.2969 32.5781 25.6719 32.625 26.375C32.5781 27.0781 32.2031 27.4531 31.5 27.5H4.5C3.79688 27.4531 3.42188 27.0781 3.375 26.375C3.42188 25.6719 3.79688 25.2969 4.5 25.25V16.25ZM33.1875 29.75C33.8906 29.7969 34.2656 30.1719 34.3125 30.875C34.2656 31.5781 33.8906 31.9531 33.1875 32H2.8125C2.10938 31.9531 1.73438 31.5781 1.6875 30.875C1.73438 30.1719 2.10938 29.7969 2.8125 29.75H33.1875ZM34.875 34.25C35.5781 34.2969 35.9531 34.6719 36 35.375C35.9531 36.0781 35.5781 36.4531 34.875 36.5H1.125C0.421875 36.4531 0.046875 36.0781 0 35.375C0.046875 34.6719 0.421875 34.2969 1.125 34.25H34.875Z" fill="#7E9E7E"/>
</svg>
