<svg width="36" height="37" viewBox="0 0 36 37" fill="none" xmlns="http://www.w3.org/2000/svg">
<path d="M13.4297 16.25L13.5 25.25C13.5 25.8594 13.2891 26.375 12.8672 26.7969C12.4453 27.2188 11.9062 27.4531 11.25 27.5H9C7.73438 27.4531 6.67969 27.0078 5.83594 26.1641C4.99219 25.3203 4.54688 24.2656 4.5 23L4.42969 18.4297C4.47656 17.1641 4.92188 16.1328 5.76562 15.3359C6.60938 14.4922 7.66406 14.0469 8.92969 14H11.1797C11.8359 14 12.375 14.2109 12.7969 14.6328C13.2188 15.0547 13.4297 15.5938 13.4297 16.25ZM11.1797 25.25V16.25H8.92969C8.32031 16.25 7.78125 16.4609 7.3125 16.8828C6.89062 17.3047 6.67969 17.8438 6.67969 18.5V23C6.67969 23.6094 6.89062 24.125 7.3125 24.5469C7.78125 24.9688 8.32031 25.2031 8.92969 25.25H11.1797ZM26.9297 27.5V27.5703H24.75C24.0938 27.5234 23.5547 27.2891 23.1328 26.8672C22.7109 26.4453 22.5 25.9297 22.5 25.3203V16.3203C22.5 15.6641 22.7109 15.125 23.1328 14.7031C23.5547 14.2812 24.0938 14.0703 24.75 14.0703H26.9297C28.1953 14.0703 29.25 14.4922 30.0938 15.3359C30.9375 16.1797 31.3828 17.2344 31.4297 18.5V23C31.3828 24.2656 30.9375 25.3203 30.0938 26.1641C29.25 27.0078 28.1953 27.4531 26.9297 27.5ZM24.6797 16.25L24.6094 25.25H26.8594C27.5156 25.2031 28.0547 24.9688 28.4766 24.5469C28.8984 24.125 29.1094 23.6094 29.1094 23V18.5C29.1094 17.8438 28.8984 17.3047 28.4766 16.8828C28.0547 16.4609 27.5156 16.25 26.8594 16.25H24.6797ZM19.6875 0.570312C22.8281 0.898438 25.6172 1.92969 28.0547 3.66406C30.4922 5.39844 32.4141 7.60156 33.8203 10.2734C35.1797 12.8984 35.8594 15.8047 35.8594 18.9922V30.9453C35.8125 32.4922 35.2734 33.8047 34.2422 34.8828C33.1641 35.9141 31.8281 36.4531 30.2344 36.5H16.8047C15.7734 36.4531 14.9297 36.0547 14.2734 35.3047C13.6172 34.5078 13.3828 33.5469 13.5703 32.4219C13.7578 31.625 14.1562 30.9922 14.7656 30.5234C15.4219 30.0078 16.1719 29.75 17.0156 29.75L21.0234 29.6797C22.5234 29.7266 23.6484 30.3594 24.3984 31.5781C24.8203 32.5625 24.8672 33.4297 24.5391 34.1797H30.375C31.3125 34.1797 32.1094 33.8516 32.7656 33.1953C33.375 32.5859 33.7031 31.7891 33.75 30.8047V18.9219C33.6562 14.7031 32.2969 11.0938 29.6719 8.09375C27.0469 5.04688 23.6484 3.28906 19.4766 2.82031C16.2891 2.58594 13.4062 3.14844 10.8281 4.50781C8.29688 5.86719 6.25781 7.78906 4.71094 10.2734C3.21094 12.7109 2.39062 15.4531 2.25 18.5V19.625C2.20312 20.3281 1.82812 20.7031 1.125 20.75C0.421875 20.7031 0.046875 20.3281 0 19.625V18.5C0.140625 15.0312 1.07813 11.8906 2.8125 9.07812C4.59375 6.21875 6.9375 4.01562 9.84375 2.46875C12.7969 0.921875 16.0781 0.289062 19.6875 0.570312ZM21.3047 34.25C22.0078 34.2031 22.3828 33.8281 22.4297 33.125C22.3828 32.4219 22.0078 32.0469 21.3047 32H16.8047C16.1016 32.0469 15.7266 32.4219 15.6797 33.125C15.7266 33.8281 16.1016 34.2031 16.8047 34.25H21.3047Z" fill="#7E9E7E"/>
</svg>
