<svg width="36" height="37" viewBox="0 0 36 37" fill="none" xmlns="http://www.w3.org/2000/svg">
<path d="M24.75 9.5C25.4062 9.5 25.9453 9.71094 26.3672 10.1328C26.7891 10.5547 27 11.0938 27 11.75V25.25C27 25.9062 26.7891 26.4453 26.3672 26.8672C25.9453 27.2891 25.4062 27.5 24.75 27.5H11.25C10.5938 27.5 10.0547 27.2891 9.63281 26.8672C9.21094 26.4453 9 25.9062 9 25.25V11.75C9 11.0938 9.21094 10.5547 9.63281 10.1328C10.0547 9.71094 10.5938 9.5 11.25 9.5H24.75ZM24.75 25.25V11.75H11.25V25.25H24.75ZM34.875 19.625H31.5V24.125H34.875C35.5781 24.1719 35.9531 24.5469 36 25.25C35.9531 25.9531 35.5781 26.3281 34.875 26.375H31.5V27.5C31.4531 28.7656 31.0078 29.8203 30.1641 30.6641C29.3203 31.5078 28.2656 31.9531 27 32H25.875V35.375C25.8281 36.0781 25.4531 36.4531 24.75 36.5C24.0469 36.4531 23.6719 36.0781 23.625 35.375V32H19.125V35.375C19.0781 36.0781 18.7031 36.4531 18 36.5C17.2969 36.4531 16.9219 36.0781 16.875 35.375V32H12.375V35.375C12.3281 36.0781 11.9531 36.4531 11.25 36.5C10.5469 36.4531 10.1719 36.0781 10.125 35.375V32H9C7.73438 31.9531 6.67969 31.5078 5.83594 30.6641C4.99219 29.8203 4.54688 28.7656 4.5 27.5V26.375H1.125C0.421875 26.3281 0.046875 25.9531 0 25.25C0.046875 24.5469 0.421875 24.1719 1.125 24.125H4.5V19.625H1.125C0.421875 19.5781 0.046875 19.2031 0 18.5C0.046875 17.7969 0.421875 17.4219 1.125 17.375H4.5V12.875H1.125C0.421875 12.8281 0.046875 12.4531 0 11.75C0.046875 11.0469 0.421875 10.6719 1.125 10.625H4.5V9.5C4.54688 8.23438 4.99219 7.17969 5.83594 6.33594C6.67969 5.49219 7.73438 5.04688 9 5H10.125V1.625C10.1719 0.921875 10.5469 0.546875 11.25 0.5C11.9531 0.546875 12.3281 0.921875 12.375 1.625V5H16.875V1.625C16.9219 0.921875 17.2969 0.546875 18 0.5C18.7031 0.546875 19.0781 0.921875 19.125 1.625V5H23.625V1.625C23.6719 0.921875 24.0469 0.546875 24.75 0.5C25.4531 0.546875 25.8281 0.921875 25.875 1.625V5H27C28.2656 5.04688 29.3203 5.49219 30.1641 6.33594C31.0078 7.17969 31.4531 8.23438 31.5 9.5V10.625H34.875C35.5781 10.6719 35.9531 11.0469 36 11.75C35.9531 12.4531 35.5781 12.8281 34.875 12.875H31.5V17.375H34.875C35.5781 17.4219 35.9531 17.7969 36 18.5C35.9531 19.2031 35.5781 19.5781 34.875 19.625ZM29.25 27.5V9.5C29.25 8.84375 29.0391 8.30469 28.6172 7.88281C28.1953 7.46094 27.6562 7.25 27 7.25H9C8.34375 7.25 7.80469 7.46094 7.38281 7.88281C6.96094 8.30469 6.75 8.84375 6.75 9.5V27.5C6.75 28.1562 6.96094 28.6953 7.38281 29.1172C7.80469 29.5391 8.34375 29.75 9 29.75H27C27.6562 29.75 28.1953 29.5391 28.6172 29.1172C29.0391 28.6953 29.25 28.1562 29.25 27.5Z" fill="#7E9E7E"/>
</svg>
