<svg width="57" height="57" viewBox="0 0 57 57" fill="none" xmlns="http://www.w3.org/2000/svg">
<path d="M24.9375 19.0002H20.1875C19.532 19.0002 18.9999 19.5323 18.9999 20.1878V34.4378C18.9999 35.0933 19.532 35.6253 20.1875 35.6253H24.9375C25.593 35.6253 26.1251 35.0933 26.1251 34.4378V20.1878C26.1251 19.5323 25.593 19.0002 24.9375 19.0002Z" fill="#6B61FC"/>
<path d="M15.4375 26.1255H10.6875C10.032 26.1255 9.49995 26.6575 9.49995 27.313V34.438C9.49995 35.0935 10.032 35.6256 10.6875 35.6256H15.4375C16.093 35.6256 16.6251 35.0935 16.6251 34.438V27.313C16.625 26.6575 16.093 26.1255 15.4375 26.1255Z" fill="#6B61FC"/>
<path d="M34.4375 11.8752H29.6874C29.0319 11.8752 28.4999 12.4073 28.4999 13.0628V34.4378C28.4999 35.0933 29.0319 35.6253 29.6874 35.6253H34.4375C35.093 35.6253 35.625 35.0933 35.625 34.4378V13.0628C35.625 12.4073 35.093 11.8752 34.4375 11.8752Z" fill="#6B61FC"/>
<path d="M56.3041 52.9461L42.1278 38.7697C45.4813 34.6752 47.5 29.4454 47.5 23.7502C47.5 10.6545 36.8458 0.000244141 23.7501 0.000244141C10.6543 0.000244141 0 10.6545 0 23.7502C0 36.846 10.6542 47.5002 23.75 47.5002C29.4452 47.5002 34.6749 45.4815 38.7695 42.1279L52.9459 56.3043C53.409 56.7675 54.017 57.0002 54.625 57.0002C55.2331 57.0002 55.8411 56.7675 56.3042 56.3043C57.2328 55.3757 57.2328 53.8747 56.3041 52.9461ZM23.75 42.7502C13.2739 42.7502 4.74993 34.2264 4.74993 23.7502C4.74993 13.274 13.2739 4.75017 23.75 4.75017C34.226 4.75017 42.75 13.2741 42.75 23.7502C42.75 34.2263 34.2262 42.7502 23.75 42.7502Z" fill="#6B61FC"/>
</svg>
