<svg width="50" height="50" viewBox="0 0 50 50" fill="none" xmlns="http://www.w3.org/2000/svg">
<path fill-rule="evenodd" clip-rule="evenodd" d="M12.9941 33.0623L17.1079 40.1875C17.6872 41.191 17.3402 42.4859 16.3368 43.0652C15.3334 43.6445 14.0385 43.2976 13.4591 42.2941L8.80996 34.2415C10.2051 33.8514 11.5955 33.4401 12.994 33.0622L12.9941 33.0623ZM42.1205 25.6273C41.8877 25.4935 41.8074 25.1963 41.9412 24.9635C42.075 24.7307 42.3722 24.6504 42.605 24.7842L47.0843 27.3704C47.3171 27.5041 47.3974 27.8013 47.2636 28.0341C47.1298 28.2669 46.8326 28.3472 46.5998 28.2134L42.1205 25.6273ZM39.7267 14.0369C39.5929 14.2697 39.2957 14.3499 39.0629 14.2162C38.8301 14.0824 38.7498 13.7852 38.8836 13.5524L41.4697 9.07309C41.6035 8.84028 41.9007 8.76 42.1335 8.89379C42.3663 9.02758 42.4466 9.32475 42.3128 9.55756L39.7267 14.0369ZM43.3231 19.338C43.063 19.4076 42.7956 19.253 42.7262 18.9928C42.6567 18.7327 42.8112 18.4653 43.0714 18.3958L48.0674 17.0572C48.3275 16.9876 48.5949 17.1422 48.6644 17.4024C48.7339 17.6625 48.5793 17.9299 48.3191 17.9994L43.3231 19.338ZM29.3557 6.71772C28.3611 6.98422 27.7654 8.01586 28.0319 9.01039L34.9919 34.9855C35.2584 35.98 36.29 36.5756 37.2846 36.3092C38.2791 36.0427 38.8747 35.011 38.6083 34.0165L31.6483 8.04135C31.3819 7.04692 30.3502 6.45131 29.3557 6.71772ZM15.2387 31.4931L12.6713 21.9117C10.0961 22.7096 7.45567 23.2871 4.85098 23.9849C2.29932 24.6686 0.770999 27.3157 1.50088 30.0394C2.23076 32.7631 4.87774 34.2914 7.4294 33.6077C10.0342 32.9097 12.6094 32.0896 15.2387 31.4931ZM13.6007 21.6117C20.7282 19.2138 25.3802 15.2043 27.7023 11.5533L33.4351 32.9481C29.5984 30.9473 23.5649 29.801 16.1935 31.2881L13.6007 21.6116V21.6117ZM35.2811 17.8254L37.7817 17.8476C38.0043 17.8496 38.1914 17.9945 38.249 18.2095L39.2407 21.9105C39.2983 22.1254 39.2088 22.3445 39.017 22.4576L36.8624 23.727L35.2811 17.8254Z" fill="#4661FF"/>
</svg>
