<svg width="50" height="50" viewBox="0 0 50 50" fill="none" xmlns="http://www.w3.org/2000/svg">
<path d="M47.6562 7.61719C47.9797 7.61719 48.2422 7.35473 48.2422 7.03125V2.34375C48.2422 2.02027 47.9797 1.75781 47.6562 1.75781H42.9688C42.6453 1.75781 42.3828 2.02027 42.3828 2.34375V4.10156H7.61719V2.34375C7.61719 2.02027 7.35473 1.75781 7.03125 1.75781H2.34375C2.02027 1.75781 1.75781 2.02027 1.75781 2.34375V7.03125C1.75781 7.35473 2.02027 7.61719 2.34375 7.61719H4.10156V42.3828H2.34375C2.02027 42.3828 1.75781 42.6453 1.75781 42.9688V47.6562C1.75781 47.9797 2.02027 48.2422 2.34375 48.2422H7.03125C7.35473 48.2422 7.61719 47.9797 7.61719 47.6562V45.8984H42.3828V47.6562C42.3828 47.9797 42.6453 48.2422 42.9688 48.2422H47.6562C47.9797 48.2422 48.2422 47.9797 48.2422 47.6562V42.9688C48.2422 42.6453 47.9797 42.3828 47.6562 42.3828H45.8984V7.61719H47.6562ZM44.7266 42.3828H42.9688C42.6453 42.3828 42.3828 42.6453 42.3828 42.9688V44.7266H7.61719V42.9688C7.61719 42.6453 7.35473 42.3828 7.03125 42.3828H5.27344V7.61719H7.03125C7.35473 7.61719 7.61719 7.35473 7.61719 7.03125V5.27344H42.3828V7.03125C42.3828 7.35473 42.6453 7.61719 42.9688 7.61719H44.7266V42.3828Z" fill="#6B61FC"/>
<path d="M25.2816 8.12911C25.1061 8.03297 24.894 8.03297 24.7185 8.12911L10.9395 15.6877L25 23.4993L39.0605 15.6876L25.2816 8.12911Z" fill="#6B61FC"/>
<path d="M10.3516 33.5446C10.3516 33.7574 10.4668 33.9535 10.6529 34.0569L24.4141 41.702V24.5145L10.3516 16.702V33.5446Z" fill="#6B61FC"/>
<path d="M25.5859 41.7019L39.3471 34.0569C39.5332 33.9535 39.6484 33.7574 39.6484 33.5445V16.7018L25.5859 24.5144V41.7019Z" fill="#6B61FC"/>
</svg>
