<svg width="50" height="50" viewBox="0 0 50 50" fill="none" xmlns="http://www.w3.org/2000/svg">
<path d="M48.6253 27.0089H31.2965C30.5392 27.0089 29.9219 27.6262 29.9219 28.3834C29.9219 28.769 30.0858 29.1165 30.3414 29.3671L42.5434 41.5691C42.7941 41.8392 43.1561 42.0082 43.5517 42.0082C44.029 42.0082 44.4485 41.767 44.6945 41.4005C47.6945 37.9182 49.6237 33.4956 49.9711 28.6292C49.9904 28.5473 50 28.4653 50 28.3832C50.0001 27.6262 49.3874 27.0089 48.6253 27.0089Z" fill="#6B61FC"/>
<path d="M26.0631 2.09802C25.3058 2.10265 24.6934 2.71536 24.6934 3.47253V22.7306C24.6934 23.4928 25.3058 24.1101 26.0631 24.1101H45.3261C46.0835 24.1101 46.7006 23.4928 46.7006 22.7306C46.0205 11.6477 37.151 2.77818 26.0631 2.09802Z" fill="#6B61FC"/>
<path d="M36.6498 40.4456L22.4414 26.2371C22.2004 25.9911 22.0557 25.6487 22.0557 25.2773L22.0507 5.20881C22.0507 4.45164 21.4383 3.83908 20.6809 3.83908C9.13958 4.54331 0 14.1312 0 25.8465C0 38.0245 9.87283 47.902 22.0507 47.902C27.6067 47.902 32.6805 45.8474 36.5582 42.4567C36.8573 42.2057 37.0454 41.8298 37.0454 41.4101C37.0454 41.0387 36.8957 40.6962 36.6498 40.4456Z" fill="#6B61FC"/>
</svg>
