<svg width="50" height="50" viewBox="0 0 50 50" fill="none" xmlns="http://www.w3.org/2000/svg">
<g clip-path="url(#clip0_428_1826)">
<path d="M25.001 31.9053C28.8147 31.9053 31.9062 28.8137 31.9062 25C31.9062 21.1863 28.8147 18.0947 25.001 18.0947C21.1873 18.0947 18.0957 21.1863 18.0957 25C18.0957 28.8137 21.1873 31.9053 25.001 31.9053Z" fill="#6B61FC"/>
<path d="M43.2402 27.5811C42.6573 27.8528 42.1356 28.2402 41.707 28.7197L34.5537 26.2881C34.3881 27.5268 33.9817 28.7211 33.3574 29.8037L40.5137 32.2363C40.5882 33.2464 40.9837 34.2063 41.6425 34.9756C42.3013 35.745 43.1888 36.2836 44.1753 36.5127C45.1619 36.7419 46.196 36.6496 47.1264 36.2494C48.0568 35.8492 48.8349 35.1619 49.3471 34.2881C49.8592 33.4143 50.0785 32.3996 49.973 31.3922C49.8675 30.3849 49.4427 29.4376 48.7606 28.6888C48.0786 27.9401 47.175 27.429 46.1818 27.2302C45.1886 27.0314 44.1579 27.1554 43.2402 27.584V27.5811Z" fill="#6B61FC"/>
<path d="M6.76088 12.8691C6.83413 12.8349 6.90639 12.7988 6.9767 12.7617L16.4884 20.4765C17.0771 19.375 17.8729 18.3975 18.8322 17.5976L9.31362 9.87889C9.61292 8.83672 9.54642 7.72349 9.12518 6.72436C8.70394 5.72523 7.95335 4.90042 6.99825 4.38711C6.04314 3.8738 4.9411 3.70293 3.8754 3.90293C2.80971 4.10292 1.84459 4.66172 1.14058 5.48639C0.436571 6.31106 0.0360965 7.35188 0.00576508 8.43576C-0.0245663 9.51963 0.317074 10.5812 0.973863 11.444C1.63065 12.3067 2.563 12.9186 3.61585 13.1779C4.66869 13.4372 5.77857 13.3282 6.76088 12.8691Z" fill="#6B61FC"/>
<path d="M31.4678 38.499L29.7568 33.3818C28.6731 34.0004 27.4788 34.4008 26.2412 34.5605L27.9502 39.6748C27.8525 39.7471 27.7627 39.8213 27.6719 39.8994C26.652 40.7807 25.9739 41.992 25.7556 43.322C25.5374 44.6521 25.7929 46.0166 26.4777 47.1775C27.1625 48.3385 28.233 49.2222 29.5026 49.6747C30.7723 50.1272 32.1604 50.1197 33.4251 49.6535C34.6898 49.1873 35.7507 48.292 36.4228 47.1237C37.095 45.9554 37.3357 44.5882 37.1031 43.2606C36.8705 41.933 36.1793 40.7291 35.1499 39.8589C34.1206 38.9888 32.8185 38.5075 31.4707 38.499H31.4678Z" fill="#6B61FC"/>
<path d="M32.999 19.6289L41.8535 10.7744C43.0583 11.3589 44.4313 11.4975 45.7286 11.1658C47.026 10.8341 48.1639 10.0535 48.9403 8.96251C49.7168 7.8715 50.0816 6.54068 49.97 5.20625C49.8584 3.87182 49.2776 2.62008 48.3307 1.6732C47.3838 0.726314 46.1321 0.145534 44.7977 0.0339338C43.4632 -0.0776661 42.1324 0.287132 41.0414 1.06358C39.9504 1.84003 39.1698 2.97792 38.8381 4.27528C38.5064 5.57264 38.645 6.94556 39.2295 8.15038L30.3711 17.001C31.4079 17.6998 32.3002 18.5921 32.999 19.6289Z" fill="#6B61FC"/>
<path d="M17.0106 30.3877L7.26745 40.1631C6.16216 39.6731 4.92022 39.5856 3.75711 39.9156C2.594 40.2456 1.58313 40.9724 0.899882 41.9698C0.216634 42.9673 -0.0958709 44.1725 0.016588 45.3762C0.129047 46.58 0.659373 47.7064 1.51555 48.5601C2.37173 49.4137 3.49973 49.9407 4.70384 50.0496C5.90795 50.1584 7.11218 49.8423 8.10759 49.1561C9.103 48.4699 9.82678 47.4569 10.1533 46.2928C10.4799 45.1287 10.3886 43.887 9.89538 42.7832L19.6395 33.0078C18.6032 32.3113 17.7106 31.4217 17.0106 30.3877Z" fill="#6B61FC"/>
</g>
<defs>
<clipPath id="clip0_428_1826">
<rect width="50" height="50" fill="white"/>
</clipPath>
</defs>
</svg>
