<svg width="50" height="50" viewBox="0 0 50 50" fill="none" xmlns="http://www.w3.org/2000/svg">
<path fill-rule="evenodd" clip-rule="evenodd" d="M34.1225 17.6875L29.5787 31.325C29.3058 32.1417 29.7475 33.0271 30.5662 33.3C31.385 33.5729 32.2704 33.1313 32.5433 32.3125L37.0871 18.675C37.36 17.8584 36.9183 16.9729 36.0996 16.7C35.2808 16.4271 34.3954 16.8688 34.1225 17.6875Z" fill="#6B61FC"/>
<path fill-rule="evenodd" clip-rule="evenodd" d="M38.1004 21.5604L41.54 25L38.1004 28.4396C37.49 29.05 37.49 30.0396 38.1004 30.65C38.7108 31.2604 39.7004 31.2604 40.3108 30.65L44.8546 26.1042C45.465 25.4938 45.465 24.5063 44.8546 23.8959L40.3108 19.35C39.7004 18.7396 38.7108 18.7396 38.1004 19.35C37.49 19.9604 37.49 20.95 38.1004 21.5604Z" fill="#6B61FC"/>
<path fill-rule="evenodd" clip-rule="evenodd" d="M26.357 19.35L21.8133 23.8959C21.2029 24.5063 21.2029 25.4938 21.8133 26.1042L26.357 30.65C26.9674 31.2604 27.957 31.2604 28.5674 30.65C29.1779 30.0396 29.1779 29.05 28.5674 28.4396L25.1279 25L28.5674 21.5604C29.1779 20.95 29.1779 19.9604 28.5674 19.35C27.957 18.7396 26.9674 18.7396 26.357 19.35Z" fill="#6B61FC"/>
<path fill-rule="evenodd" clip-rule="evenodd" d="M34.8958 31.8417L34.5188 32.9709C33.8833 34.8792 31.8167 35.9125 29.9083 35.2771C28.8542 34.925 28.0667 34.1396 27.6813 33.1834C26.6771 33.2438 25.6521 32.8896 24.8833 32.1229L20.3396 27.5771C18.9146 26.1542 18.9146 23.8459 20.3396 22.4229L24.8833 17.8771C26.3063 16.4542 28.6167 16.4542 30.0396 17.8771C30.6813 18.5188 31.0333 19.3396 31.0979 20.1792L32.1479 17.0292C32.5771 15.7417 33.6542 14.8542 34.8958 14.6063V8.33335C34.8958 6.8146 34.2917 5.35627 33.2188 4.28127C32.1438 3.20835 30.6854 2.60419 29.1667 2.60419C24.075 2.60419 15.5083 2.60419 10.4167 2.60419C8.89792 2.60419 7.43958 3.20835 6.36458 4.28127C5.29167 5.35627 4.6875 6.8146 4.6875 8.33335V41.6667C4.6875 43.1854 5.29167 44.6438 6.36458 45.7188C7.43958 46.7917 8.89792 47.3959 10.4167 47.3959H29.1667C30.6854 47.3959 32.1438 46.7917 33.2188 45.7188C34.2917 44.6438 34.8958 43.1854 34.8958 41.6667V31.8417ZM15.625 42.1875H23.9583C24.8208 42.1875 25.5208 41.4875 25.5208 40.625C25.5208 39.7625 24.8208 39.0625 23.9583 39.0625H15.625C14.7625 39.0625 14.0625 39.7625 14.0625 40.625C14.0625 41.4875 14.7625 42.1875 15.625 42.1875ZM28.125 5.72919H11.4583L12.7563 8.97294C13.2313 10.1604 14.3792 10.9375 15.6583 10.9375H23.925C25.2042 10.9375 26.3521 10.1604 26.8271 8.97294L28.125 5.72919Z" fill="#6B61FC"/>
</svg>
