<svg width="50" height="50" viewBox="0 0 50 50" fill="none" xmlns="http://www.w3.org/2000/svg">
<path fill-rule="evenodd" clip-rule="evenodd" d="M6.31572 20.6263L15.505 12.5837C15.3776 12.2359 15.3082 11.8603 15.3082 11.4684C15.3082 9.67657 16.7607 8.22413 18.5524 8.22413C20.31 8.22413 21.7409 9.62159 21.7951 11.3659L29.058 13.9087C29.653 13.2102 30.539 12.7671 31.5284 12.7671C32.0867 12.7671 32.612 12.9081 33.0707 13.1565L41.4437 6.00265C41.3249 5.66534 41.2601 5.30265 41.2601 4.92472C41.2601 3.13302 42.7126 1.68048 44.5043 1.68048C46.2962 1.68048 47.7487 3.13302 47.7487 4.92472C47.7487 6.71661 46.2962 8.16915 44.5043 8.16915C43.9461 8.16915 43.4207 8.02814 42.9621 7.7798L34.5892 14.9336C34.7079 15.2709 34.7728 15.6336 34.7728 16.0115C34.7728 17.8032 33.3202 19.2558 31.5283 19.2558C29.7709 19.2558 28.34 17.8583 28.2858 16.1141L21.0229 13.5713C20.4278 14.2698 19.542 14.7129 18.5524 14.7129C18.0076 14.7129 17.4943 14.5784 17.0436 14.3411L7.8543 22.3837C7.98164 22.7315 8.05107 23.1071 8.05107 23.499C8.05107 25.2909 6.59854 26.7433 4.80664 26.7433C3.01504 26.7431 1.5625 25.2907 1.5625 23.4988C1.5625 21.7069 3.01504 20.2546 4.80674 20.2546C5.35156 20.2546 5.86494 20.389 6.31572 20.6263ZM42.0363 14.5761C41.2296 14.5761 40.5715 15.2341 40.5715 16.0409V45.9362C40.5715 46.7431 41.2296 47.4011 42.0363 47.4011H46.9727C47.7796 47.4011 48.4376 46.7431 48.4376 45.9362V16.0409C48.4376 15.2341 47.7797 14.5761 46.9727 14.5761H42.0363ZM29.0603 26.5224C28.2534 26.5224 27.5955 27.1804 27.5955 27.9872V46.2425C27.5955 47.0494 28.2535 47.7073 29.0603 47.7073H33.9968C34.8036 47.7073 35.4615 47.0493 35.4615 46.2425C35.4615 40.1575 35.4615 34.0724 35.4615 27.9872C35.4615 27.1804 34.8036 26.5224 33.9968 26.5224C32.3512 26.5224 30.7059 26.5224 29.0603 26.5224ZM16.0844 22.2336C15.2774 22.2336 14.6194 22.8916 14.6194 23.6984V46.5487C14.6194 47.3556 15.2773 48.0136 16.0844 48.0136H21.0207C21.8274 48.0136 22.4855 47.3556 22.4855 46.5487V23.6984C22.4855 22.8916 21.8274 22.2336 21.0207 22.2336H16.0844ZM3.1084 34.8427H8.04463C8.85146 34.8427 9.50957 35.5007 9.50957 36.3075V46.8549C9.50957 47.6617 8.85146 48.3197 8.04463 48.3197H3.1084C2.30156 48.3197 1.64346 47.6617 1.64346 46.8549V36.3075C1.64355 35.5006 2.30166 34.8427 3.1084 34.8427Z" fill="#6B61FC"/>
</svg>
