<svg width="50" height="50" viewBox="0 0 50 50" fill="none" xmlns="http://www.w3.org/2000/svg">
<path fill-rule="evenodd" clip-rule="evenodd" d="M21.5437 21.8597L23.2597 25.9869C23.438 26.4157 23.2551 26.9061 22.8422 27.1185L21.5538 27.7814C21.3237 27.8998 21.081 27.9148 20.838 27.8256C20.5951 27.7364 20.4207 27.5675 20.3209 27.3287L18.3881 22.7053L21.5437 21.8597ZM32.3431 34.2725L47.3535 47.2814C47.4222 47.0824 47.4613 46.8696 47.4613 46.6475V21.9624C47.4613 21.7413 47.4231 21.5303 47.3559 21.3331L32.3431 34.2725ZM25.0587 37.9721L45.8614 20.0425C45.7463 20.0218 45.6293 20.0089 45.5081 20.0089H40.3193C40.3777 21.8463 39.163 23.5689 37.318 24.0633C35.6394 24.5131 33.8912 23.8303 32.9363 22.4551C30.06 21.3483 26.5937 21.0582 23.415 21.2733L25.0631 25.2371C25.6301 26.6009 25.0479 28.1802 23.7356 28.8554L22.4473 29.5183C21.7324 29.886 20.9193 29.9361 20.1647 29.6591C19.4116 29.3825 18.8282 28.8221 18.5189 28.0821L16.4573 23.1506C13.9164 23.4414 11.4313 22.1735 10.1477 20.0089H4.49238C4.48867 20.0089 4.48545 20.0089 4.48174 20.0089L25.0587 37.9721ZM25.6926 40.0054L30.8478 35.5619L45.8559 48.5676C45.7435 48.5883 45.627 48.6008 45.5081 48.6008H4.49229C4.49043 48.6008 4.48955 48.6008 4.4877 48.6008L19.3351 35.5675L24.4133 40.0004C24.5971 40.1616 24.8256 40.2413 25.055 40.2413C25.2826 40.2412 25.5088 40.1625 25.6926 40.0054ZM17.8509 34.2725L2.7501 47.5265C2.6165 47.262 2.53906 46.964 2.53906 46.6475V21.9624C2.53906 21.6477 2.61553 21.352 2.74824 21.0881L17.8509 34.2725ZM41.2066 15.4565L44.276 16.2789C44.7669 16.4104 45.2717 16.1159 45.402 15.6254C45.5325 15.1342 45.2385 14.6302 44.7481 14.4988L41.6788 13.6765C41.1879 13.5449 40.6831 13.8394 40.5528 14.33C40.4222 14.8212 40.7162 15.3252 41.2066 15.4565ZM39.7288 6.39892L41.9757 4.15204C42.3347 3.79306 42.3373 3.20966 41.9786 2.8495C41.6204 2.48983 41.0361 2.4871 40.6767 2.84657L38.4298 5.09345C38.0708 5.45243 38.0682 6.03583 38.4269 6.39599C38.7851 6.75565 39.3693 6.75839 39.7288 6.39892ZM42.4268 10.5345L45.3364 9.75478C45.8304 9.62245 46.1234 9.11483 45.9911 8.62089C45.8588 8.12694 45.3512 7.83388 44.8572 7.9662L41.9475 8.74589C41.4535 8.87821 41.1604 9.38583 41.2928 9.87978C41.4252 10.3737 41.9328 10.6668 42.4268 10.5345ZM36.7052 13.6594C36.8149 13.6453 36.9251 13.6238 37.035 13.5943C38.3611 13.239 39.1481 11.8759 38.7928 10.5497C38.4374 9.22353 37.0743 8.43661 35.7481 8.79188C35.6382 8.82138 35.532 8.8578 35.43 8.90048L33.8372 2.95604C33.5382 1.84003 32.3804 1.17157 31.2644 1.4706C30.2248 1.74911 29.5595 2.78222 29.7357 3.84364L29.7356 3.84374C27.7873 6.49101 24.4811 9.09169 20.4156 10.9751L22.6652 19.3707C27.1295 18.9734 31.2998 19.59 34.3108 20.9085H34.3109C34.6934 21.892 35.7711 22.4555 36.8125 22.1765C37.924 21.8786 38.5958 20.715 38.298 19.6036L36.7052 13.6594ZM20.8201 20.0315L16.8795 21.0874C14.4851 21.729 12.0011 20.2948 11.3595 17.9005C10.7179 15.5061 12.1521 13.022 14.5465 12.3804L18.4871 11.3245C19.2647 14.2268 20.0422 17.1292 20.8201 20.0315Z" fill="#6B61FC"/>
</svg>
