<svg width="50" height="50" viewBox="0 0 50 50" fill="none" xmlns="http://www.w3.org/2000/svg">
<path d="M32.4219 0C22.7287 0 14.8438 7.88496 14.8438 17.5781C14.8438 21.8982 16.417 25.8533 19.0115 28.9171L15.9216 32.007C14.2908 31.2374 12.298 31.4865 10.9513 32.8331L1.34963 42.4424C-2.76707 46.5591 3.46857 52.7517 7.56379 48.6565L17.1669 39.0486C18.5136 37.702 18.7626 35.7091 17.993 34.0783L21.0829 30.9884C24.1467 33.583 28.1018 35.1562 32.4219 35.1562C42.1151 35.1562 50 27.2713 50 17.5781C50 7.88496 42.1151 0 32.4219 0ZM42.5828 13.6985L38.1883 25.4173C37.7138 26.6794 35.9191 26.6794 35.4446 25.4173L32.4219 17.355L29.3992 25.4174C28.97 26.5589 27.0847 26.5589 26.6555 25.4174L22.261 13.6986C21.5809 11.8782 24.3272 10.8642 25.0047 12.6687L28.0274 20.731L31.05 12.6686C31.4792 11.5271 33.3646 11.5271 33.7938 12.6686L36.8164 20.731L39.8391 12.6686C40.5118 10.8679 43.2639 11.8756 42.5828 13.6985Z" fill="#6B61FC"/>
</svg>
