<svg width="50" height="50" viewBox="0 0 50 50" fill="none" xmlns="http://www.w3.org/2000/svg">
<path d="M25 31.9053C28.8137 31.9053 31.9053 28.8137 31.9053 25C31.9053 21.1863 28.8137 18.0947 25 18.0947C21.1863 18.0947 18.0947 21.1863 18.0947 25C18.0947 28.8137 21.1863 31.9053 25 31.9053Z" fill="#70D715"/>
<path d="M43.2402 27.5811C42.6573 27.8528 42.1356 28.2402 41.707 28.7197L34.5537 26.2881C34.3881 27.5268 33.9817 28.7211 33.3574 29.8037L40.5137 32.2363C40.5882 33.2464 40.9837 34.2063 41.6425 34.9756C42.3013 35.745 43.1888 36.2836 44.1753 36.5127C45.1619 36.7419 46.196 36.6496 47.1264 36.2494C48.0568 35.8492 48.8349 35.1619 49.3471 34.2881C49.8592 33.4143 50.0785 32.3996 49.973 31.3922C49.8675 30.3849 49.4427 29.4376 48.7606 28.6888C48.0786 27.9401 47.175 27.429 46.1818 27.2302C45.1886 27.0314 44.1579 27.1554 43.2402 27.584V27.5811Z" fill="#70D715"/>
<path d="M6.75991 12.8692C6.83315 12.835 6.90542 12.7989 6.97573 12.7618L16.4874 20.4766C17.0761 19.375 17.8719 18.3975 18.8312 17.5977L9.31264 9.87895C9.61194 8.83678 9.54544 7.72355 9.1242 6.72442C8.70296 5.72529 7.95237 4.90048 6.99727 4.38717C6.04217 3.87386 4.94012 3.70299 3.87442 3.90299C2.80873 4.10298 1.84362 4.66178 1.1396 5.48645C0.435595 6.31112 0.0351199 7.35194 0.00478852 8.43582C-0.0255429 9.5197 0.316097 10.5813 0.972887 11.444C1.62968 12.3068 2.56203 12.9187 3.61487 13.178C4.66772 13.4372 5.77759 13.3283 6.75991 12.8692Z" fill="#70D715"/>
<path d="M31.4678 38.499L29.7568 33.3818C28.6731 34.0004 27.4788 34.4008 26.2412 34.5605L27.9502 39.6748C27.8525 39.7471 27.7627 39.8213 27.6719 39.8994C26.652 40.7807 25.9739 41.992 25.7556 43.322C25.5374 44.6521 25.7929 46.0166 26.4777 47.1775C27.1625 48.3385 28.233 49.2222 29.5026 49.6747C30.7723 50.1272 32.1604 50.1197 33.4251 49.6535C34.6898 49.1873 35.7507 48.292 36.4228 47.1237C37.095 45.9554 37.3357 44.5882 37.1031 43.2606C36.8705 41.933 36.1793 40.7291 35.1499 39.8589C34.1206 38.9888 32.8185 38.5075 31.4707 38.499H31.4678Z" fill="#70D715"/>
<path d="M32.999 19.629L41.8535 10.7745C43.0583 11.3589 44.4313 11.4976 45.7286 11.1659C47.026 10.8342 48.1639 10.0536 48.9403 8.96257C49.7168 7.87156 50.0816 6.54074 49.97 5.20631C49.8584 3.87188 49.2776 2.62014 48.3307 1.67326C47.3838 0.726375 46.1321 0.145595 44.7977 0.0339949C43.4632 -0.077605 42.1324 0.287193 41.0414 1.06364C39.9504 1.8401 39.1698 2.97798 38.8381 4.27534C38.5064 5.5727 38.645 6.94562 39.2295 8.15044L30.3711 17.001C31.4079 17.6999 32.3002 18.5922 32.999 19.629Z" fill="#70D715"/>
<path d="M17.0096 30.3877L7.26647 40.1631C6.16118 39.6731 4.91924 39.5856 3.75613 39.9156C2.59303 40.2456 1.58215 40.9724 0.898906 41.9698C0.215658 42.9673 -0.0968475 44.1725 0.0156114 45.3762C0.12807 46.58 0.658397 47.7064 1.51458 48.5601C2.37075 49.4137 3.49876 49.9407 4.70287 50.0496C5.90697 50.1584 7.11121 49.8423 8.10662 49.1561C9.10203 48.4699 9.8258 47.4569 10.1524 46.2928C10.4789 45.1287 10.3877 43.887 9.8944 42.7832L19.6385 33.0078C18.6022 32.3113 17.7096 31.4217 17.0096 30.3877Z" fill="#70D715"/>
</svg>
