<svg width="50" height="50" viewBox="0 0 50 50" fill="none" xmlns="http://www.w3.org/2000/svg">
<path d="M49.0435 23.6774L41.8702 21.6231C38.6399 20.7104 35.6973 18.9821 33.3241 16.6038C30.9508 14.2254 29.2263 11.2765 28.3156 8.03912L26.2657 0.850261C26.1626 0.598747 25.9873 0.383624 25.7619 0.232229C25.5365 0.0808332 25.2713 0 25 0C24.7287 0 24.4635 0.0808332 24.2381 0.232229C24.0127 0.383624 23.8374 0.598747 23.7343 0.850261L21.6844 8.03912C20.7737 11.2765 19.0492 14.2254 16.6759 16.6038C14.3027 18.9821 11.3601 20.7104 8.12979 21.6231L0.956466 23.6774C0.681034 23.7557 0.43862 23.922 0.266006 24.1509C0.0933919 24.3798 0 24.6589 0 24.9459C0 25.2328 0.0933919 25.5119 0.266006 25.7408C0.43862 25.9697 0.681034 26.136 0.956466 26.2143L8.12979 28.2687C11.3601 29.1814 14.3027 30.9096 16.6759 33.288C19.0492 35.6663 20.7737 38.6153 21.6844 41.8526L23.7343 49.0415C23.8125 49.3175 23.9783 49.5604 24.2068 49.7334C24.4352 49.9064 24.7137 50 25 50C25.2863 50 25.5648 49.9064 25.7932 49.7334C26.0217 49.5604 26.1875 49.3175 26.2657 49.0415L28.3156 41.8526C29.2263 38.6153 30.9508 35.6663 33.3241 33.288C35.6973 30.9096 38.6399 29.1814 41.8702 28.2687L49.0435 26.2143C49.319 26.136 49.5614 25.9697 49.734 25.7408C49.9066 25.5119 50 25.2328 50 24.9459C50 24.6589 49.9066 24.3798 49.734 24.1509C49.5614 23.922 49.319 23.7557 49.0435 23.6774Z" fill="white"/>
</svg>
