<svg width="52" height="58" viewBox="0 0 52 58" fill="none" xmlns="http://www.w3.org/2000/svg">
<circle cx="26.0992" cy="26.2974" r="25.6529" fill="#6B61FC"/>
<mask id="mask0_45_279" style="mask-type:alpha" maskUnits="userSpaceOnUse" x="0" y="0" width="52" height="52">
<circle cx="26.0992" cy="26.2974" r="25.6529" fill="url(#paint0_linear_45_279)"/>
</mask>
<g mask="url(#mask0_45_279)">
</g>
<path d="M46.3959 57.7134C46.42 54.4312 45.9084 51.1772 44.8904 48.1372C43.8725 45.0972 42.3681 42.3308 40.4631 39.9958C38.5581 37.6609 36.2899 35.8031 33.7879 34.5287C31.2859 33.2543 28.5992 32.5881 25.8811 32.5682C23.163 32.5483 20.4668 33.175 17.9464 34.4127C15.426 35.6504 13.1308 37.4747 11.1919 39.7815C9.25289 42.0883 7.70812 44.8324 6.64575 47.8572C5.58338 50.8819 5.02422 54.1281 5.00018 57.4103L46.3959 57.7134Z" fill="#E1E3F9"/>
<path d="M35.7188 19.8842C35.7188 25.1971 31.4118 29.5041 26.0989 29.5041C20.7861 29.5041 16.4791 25.1971 16.4791 19.8842C16.4791 14.5714 20.7861 10.2644 26.0989 10.2644C31.4118 10.2644 35.7188 14.5714 35.7188 19.8842Z" fill="#E1E3F9"/>
<defs>
<linearGradient id="paint0_linear_45_279" x1="4.45455" y1="5.85527" x2="50.1488" y2="53.1528" gradientUnits="userSpaceOnUse">
<stop stop-color="#5860C2"/>
<stop offset="1" stop-color="#292F8D"/>
</linearGradient>
</defs>
</svg>
