<svg width="168" height="40" viewBox="0 0 168 40" fill="none" xmlns="http://www.w3.org/2000/svg">
<path d="M40 20.0022C40 31.0025 30.9981 40.0034 19.9966 40C14.4975 40 9.51892 37.778 5.9031 34.1866C4.43075 32.7212 5.48194 30.2048 7.56035 30.2048H24.5609C28.6869 30.2048 32.1589 26.9557 32.2548 22.8302C32.354 18.5813 28.9266 15.0926 24.7013 15.0926H15.3741C14.2236 15.0926 13.2203 15.9588 13.145 17.1057C13.0628 18.3622 14.0592 19.4099 15.2987 19.4099H24.6054C26.3482 19.4099 27.848 20.7451 27.9336 22.4844C28.026 24.3434 26.54 25.8841 24.6978 25.8841H5.76271C2.61257 25.8841 0.0342417 23.354 1.02727e-06 20.2042C1.02727e-06 20.1357 1.02727e-06 20.0706 1.02727e-06 20.0022C-0.00342304 9.11481 8.55333 0.305635 19.4384 0.00777294C25.1601 -0.149717 30.3578 2.09624 34.0969 5.81437C35.5693 7.27972 34.5215 9.79613 32.4431 9.79613H15.2987C11.07 9.79613 7.64253 13.2883 7.74525 17.5371C7.84455 21.6592 11.3166 24.9049 15.4391 24.9049H24.6225C25.773 24.9049 26.7762 24.0387 26.8516 22.8918C26.9337 21.6353 25.9373 20.5876 24.6978 20.5876H15.3912C13.6483 20.5876 12.1486 19.2524 12.063 17.5131C11.9706 15.6541 13.4566 14.1134 15.2987 14.1134H34.2373C37.384 14.1134 39.9658 16.6401 39.9966 19.7865C40 19.8584 40 19.9303 40 20.0022Z" fill="#7E9E7E"/>
<path d="M58.16 34.28C56.2933 34.28 54.6133 33.96 53.12 33.32C51.6267 32.6533 50.4533 31.72 49.6 30.52C48.7467 29.32 48.32 27.92 48.32 26.32H53.2C53.3067 27.52 53.7733 28.5067 54.6 29.28C55.4533 30.0533 56.64 30.44 58.16 30.44C59.7333 30.44 60.96 30.0667 61.84 29.32C62.72 28.5467 63.16 27.56 63.16 26.36C63.16 25.4267 62.88 24.6667 62.32 24.08C61.7867 23.4933 61.1067 23.04 60.28 22.72C59.48 22.4 58.36 22.0533 56.92 21.68C55.1067 21.2 53.6267 20.72 52.48 20.24C51.36 19.7333 50.4 18.96 49.6 17.92C48.8 16.88 48.4 15.4933 48.4 13.76C48.4 12.16 48.8 10.76 49.6 9.56C50.4 8.36 51.52 7.44 52.96 6.8C54.4 6.16 56.0667 5.84 57.96 5.84C60.6533 5.84 62.8533 6.52 64.56 7.88C66.2933 9.21333 67.2533 11.0533 67.44 13.4H62.4C62.32 12.3867 61.84 11.52 60.96 10.8C60.08 10.08 58.92 9.72 57.48 9.72C56.1733 9.72 55.1067 10.0533 54.28 10.72C53.4533 11.3867 53.04 12.3467 53.04 13.6C53.04 14.4533 53.2933 15.16 53.8 15.72C54.3333 16.2533 55 16.68 55.8 17C56.6 17.32 57.6933 17.6667 59.08 18.04C60.92 18.5467 62.4133 19.0533 63.56 19.56C64.7333 20.0667 65.72 20.8533 66.52 21.92C67.3467 22.96 67.76 24.36 67.76 26.12C67.76 27.5333 67.3733 28.8667 66.6 30.12C65.8533 31.3733 64.7467 32.3867 63.28 33.16C61.84 33.9067 60.1333 34.28 58.16 34.28ZM71.6206 22.88C71.6206 20.6667 72.074 18.7067 72.9806 17C73.914 15.2933 75.1673 13.9733 76.7406 13.04C78.3406 12.08 80.1006 11.6 82.0206 11.6C83.754 11.6 85.2606 11.9467 86.5406 12.64C87.8473 13.3067 88.8873 14.1467 89.6606 15.16V11.96H94.2606V34H89.6606V30.72C88.8873 31.76 87.834 32.6267 86.5006 33.32C85.1673 34.0133 83.6473 34.36 81.9406 34.36C80.0473 34.36 78.314 33.88 76.7406 32.92C75.1673 31.9333 73.914 30.5733 72.9806 28.84C72.074 27.08 71.6206 25.0933 71.6206 22.88ZM89.6606 22.96C89.6606 21.44 89.3406 20.12 88.7006 19C88.0873 17.88 87.274 17.0267 86.2606 16.44C85.2473 15.8533 84.154 15.56 82.9806 15.56C81.8073 15.56 80.714 15.8533 79.7006 16.44C78.6873 17 77.8606 17.84 77.2206 18.96C76.6073 20.0533 76.3006 21.36 76.3006 22.88C76.3006 24.4 76.6073 25.7333 77.2206 26.88C77.8606 28.0267 78.6873 28.9067 79.7006 29.52C80.7406 30.1067 81.834 30.4 82.9806 30.4C84.154 30.4 85.2473 30.1067 86.2606 29.52C87.274 28.9333 88.0873 28.08 88.7006 26.96C89.3406 25.8133 89.6606 24.48 89.6606 22.96ZM108.25 34.36C106.517 34.36 104.957 34.0533 103.57 33.44C102.21 32.8 101.13 31.9467 100.33 30.88C99.53 29.7867 99.1033 28.5733 99.05 27.24H103.77C103.85 28.1733 104.29 28.96 105.09 29.6C105.917 30.2133 106.943 30.52 108.17 30.52C109.45 30.52 110.437 30.28 111.13 29.8C111.85 29.2933 112.21 28.6533 112.21 27.88C112.21 27.0533 111.81 26.44 111.01 26.04C110.237 25.64 108.997 25.2 107.29 24.72C105.637 24.2667 104.29 23.8267 103.25 23.4C102.21 22.9733 101.303 22.32 100.53 21.44C99.7833 20.56 99.41 19.4 99.41 17.96C99.41 16.7867 99.7567 15.72 100.45 14.76C101.143 13.7733 102.13 13 103.41 12.44C104.717 11.88 106.21 11.6 107.89 11.6C110.397 11.6 112.41 12.24 113.93 13.52C115.477 14.7733 116.303 16.4933 116.41 18.68H111.85C111.77 17.6933 111.37 16.9067 110.65 16.32C109.93 15.7333 108.957 15.44 107.73 15.44C106.53 15.44 105.61 15.6667 104.97 16.12C104.33 16.5733 104.01 17.1733 104.01 17.92C104.01 18.5067 104.223 19 104.65 19.4C105.077 19.8 105.597 20.12 106.21 20.36C106.823 20.5733 107.73 20.8533 108.93 21.2C110.53 21.6267 111.837 22.0667 112.85 22.52C113.89 22.9467 114.783 23.5867 115.53 24.44C116.277 25.2933 116.663 26.4267 116.69 27.84C116.69 29.0933 116.343 30.2133 115.65 31.2C114.957 32.1867 113.97 32.96 112.69 33.52C111.437 34.08 109.957 34.36 108.25 34.36ZM129.617 34.36C127.884 34.36 126.324 34.0533 124.937 33.44C123.577 32.8 122.497 31.9467 121.697 30.88C120.897 29.7867 120.471 28.5733 120.417 27.24H125.137C125.217 28.1733 125.657 28.96 126.457 29.6C127.284 30.2133 128.311 30.52 129.537 30.52C130.817 30.52 131.804 30.28 132.497 29.8C133.217 29.2933 133.577 28.6533 133.577 27.88C133.577 27.0533 133.177 26.44 132.377 26.04C131.604 25.64 130.364 25.2 128.657 24.72C127.004 24.2667 125.657 23.8267 124.617 23.4C123.577 22.9733 122.671 22.32 121.897 21.44C121.151 20.56 120.777 19.4 120.777 17.96C120.777 16.7867 121.124 15.72 121.817 14.76C122.511 13.7733 123.497 13 124.777 12.44C126.084 11.88 127.577 11.6 129.257 11.6C131.764 11.6 133.777 12.24 135.297 13.52C136.844 14.7733 137.671 16.4933 137.777 18.68H133.217C133.137 17.6933 132.737 16.9067 132.017 16.32C131.297 15.7333 130.324 15.44 129.097 15.44C127.897 15.44 126.977 15.6667 126.337 16.12C125.697 16.5733 125.377 17.1733 125.377 17.92C125.377 18.5067 125.591 19 126.017 19.4C126.444 19.8 126.964 20.12 127.577 20.36C128.191 20.5733 129.097 20.8533 130.297 21.2C131.897 21.6267 133.204 22.0667 134.217 22.52C135.257 22.9467 136.151 23.5867 136.897 24.44C137.644 25.2933 138.031 26.4267 138.057 27.84C138.057 29.0933 137.711 30.2133 137.017 31.2C136.324 32.1867 135.337 32.96 134.057 33.52C132.804 34.08 131.324 34.36 129.617 34.36ZM141.464 22.88C141.464 20.6667 141.918 18.7067 142.824 17C143.758 15.2933 145.011 13.9733 146.584 13.04C148.184 12.08 149.944 11.6 151.864 11.6C153.598 11.6 155.104 11.9467 156.384 12.64C157.691 13.3067 158.731 14.1467 159.504 15.16V11.96H164.104V34H159.504V30.72C158.731 31.76 157.678 32.6267 156.344 33.32C155.011 34.0133 153.491 34.36 151.784 34.36C149.891 34.36 148.158 33.88 146.584 32.92C145.011 31.9333 143.758 30.5733 142.824 28.84C141.918 27.08 141.464 25.0933 141.464 22.88ZM159.504 22.96C159.504 21.44 159.184 20.12 158.544 19C157.931 17.88 157.118 17.0267 156.104 16.44C155.091 15.8533 153.998 15.56 152.824 15.56C151.651 15.56 150.558 15.8533 149.544 16.44C148.531 17 147.704 17.84 147.064 18.96C146.451 20.0533 146.144 21.36 146.144 22.88C146.144 24.4 146.451 25.7333 147.064 26.88C147.704 28.0267 148.531 28.9067 149.544 29.52C150.584 30.1067 151.678 30.4 152.824 30.4C153.998 30.4 155.091 30.1067 156.104 29.52C157.118 28.9333 157.931 28.08 158.544 26.96C159.184 25.8133 159.504 24.48 159.504 22.96Z" fill="#1F1F1F"/>
</svg>
