<svg width="126" height="120" viewBox="0 0 126 120" fill="none" xmlns="http://www.w3.org/2000/svg">
<path opacity="0.2" d="M14.1182 81.9009C15.4765 83.921 28.7869 99.2643 39.5259 99.4421C49.2113 99.6027 52.3632 86.0878 62.5341 87.0802C70.1081 87.8193 71.0655 95.5778 79.8403 98.265C88.4645 100.906 99.8733 97.703 105.62 91.7224C135.517 60.6129 119.804 14.3249 94.5936 1.29163C83.2095 -4.5942 76.2689 11.711 52.3522 8.81553C37.9703 7.07435 40.6559 -1.22257 28.2587 4.29026C13.8748 10.6868 -9.41884 46.9056 14.1182 81.9009Z" fill="#7444FD"/>
<path opacity="0.2" d="M63 120C97.7939 120 126 117.811 126 115.111C126 112.41 97.7939 110.221 63 110.221C28.2061 110.221 0 112.41 0 115.111C0 117.811 28.2061 120 63 120Z" fill="#7444FD"/>
<path fill-rule="evenodd" clip-rule="evenodd" d="M114.035 22.2772C109.363 26.7326 93.9787 44.5901 84.5422 56.1085L86.1316 58.4414C93.3879 46.5977 109.482 27.5568 114.215 22.4821C114.804 21.8509 115.217 21.4357 115.415 21.2779C115.349 21.1229 114.858 21.4918 114.035 22.2772Z" fill="#4CA300"/>
<path fill-rule="evenodd" clip-rule="evenodd" d="M118.972 17.6064C117.789 18.0092 116.304 17.6936 115.254 18.7331C114.204 19.7732 113.798 21.2002 114.067 22.4508C115.308 22.7483 116.734 22.3636 117.785 21.3241C118.837 20.2874 118.563 18.8916 118.972 17.6064Z" fill="#4CA300"/>
<path fill-rule="evenodd" clip-rule="evenodd" d="M116.429 26.6652C115.682 26.1413 115.222 25.1302 114.165 24.962C113.103 24.7925 112.094 25.1717 111.485 25.8728C111.852 26.7323 112.692 27.4077 113.749 27.5759C114.811 27.7454 115.504 26.9814 116.429 26.6652Z" fill="#4CA300"/>
<path fill-rule="evenodd" clip-rule="evenodd" d="M111.894 20.1934C111.647 20.8093 111.012 21.2992 111.067 22.0785C111.119 22.8591 111.551 23.5117 112.143 23.8314C112.683 23.4328 113.021 22.7276 112.966 21.9484C112.915 21.1678 112.263 20.7982 111.894 20.1934Z" fill="#4CA300"/>
<path fill-rule="evenodd" clip-rule="evenodd" d="M106.719 22.459C107.327 23.4624 108.581 24.1406 108.713 25.522C108.846 26.9074 108.282 28.1801 107.338 28.9137C106.269 28.3739 105.473 27.2341 105.342 25.8521C105.208 24.4673 106.243 23.6299 106.719 22.459Z" fill="#4CA300"/>
<path fill-rule="evenodd" clip-rule="evenodd" d="M113.345 33.2562C112.272 32.5067 111.612 31.0562 110.09 30.8133C108.567 30.5704 107.123 31.115 106.247 32.1233C106.769 33.3538 107.976 34.3254 109.499 34.5683C111.019 34.8078 112.016 33.7088 113.345 33.2562Z" fill="#4CA300"/>
<path fill-rule="evenodd" clip-rule="evenodd" d="M100.301 25.7881C101.286 27.1493 103.154 27.9659 103.504 29.9251C103.854 31.8843 103.2 33.7653 101.933 34.9251C100.35 34.2815 99.0806 32.7473 98.7306 30.7881C98.3805 28.8282 99.7567 27.5134 100.301 25.7881Z" fill="#4CA300"/>
<path fill-rule="evenodd" clip-rule="evenodd" d="M111.668 41.6275C109.92 40.406 108.842 38.0323 106.356 37.6365C103.871 37.2406 101.509 38.1292 100.078 39.7784C100.933 41.7887 102.904 43.3735 105.39 43.7694C107.874 44.1652 109.503 42.3708 111.668 41.6275Z" fill="#4CA300"/>
<path fill-rule="evenodd" clip-rule="evenodd" d="M90.9433 29.7178C92.618 31.6596 95.5683 32.6479 96.3599 35.5794C97.1536 38.5143 96.4019 41.4631 94.633 43.3995C92.1338 42.6292 90.0059 40.4659 89.2144 37.5351C88.4228 34.6029 90.3429 32.414 90.9433 29.7178Z" fill="#4CA300"/>
<path fill-rule="evenodd" clip-rule="evenodd" d="M109.071 51.2811C106.347 49.7933 104.414 46.5365 100.757 46.3649C97.1016 46.1884 93.8273 47.8493 92.0186 50.4625C93.5735 53.2369 96.6738 55.2043 100.329 55.3808C103.984 55.5573 106.055 52.7026 109.071 51.2811Z" fill="#4CA300"/>
<path fill-rule="evenodd" clip-rule="evenodd" d="M9.02139 13.103C14.2282 19.402 30.8969 44.1467 41.0368 60.034L38.6937 62.7253C31.3405 46.7578 13.9552 20.42 8.76417 13.3342C8.11839 12.4532 7.66173 11.8691 7.43616 11.6407C7.54276 11.4546 8.10463 11.9923 9.02139 13.103Z" fill="#4CA300"/>
<path fill-rule="evenodd" clip-rule="evenodd" d="M3.51392 6.49414C4.94028 7.17788 6.8515 7.00487 8.01583 8.46923C9.18017 9.9336 9.47864 11.7869 8.95459 13.317C7.35148 13.5045 5.61701 12.8063 4.45267 11.3419C3.2849 9.881 3.83715 8.16889 3.51392 6.49414Z" fill="#4CA300"/>
<path fill-rule="evenodd" clip-rule="evenodd" d="M5.36267 18.2549C6.37914 17.7089 7.10677 16.5089 8.45954 16.4563C9.8192 16.403 11.0296 17.0314 11.6912 18.003C11.1032 19.0272 9.94712 19.749 8.59434 19.8016C7.234 19.8549 6.47749 18.7905 5.36267 18.2549Z" fill="#4CA300"/>
<path fill-rule="evenodd" clip-rule="evenodd" d="M12.0205 10.8086C12.2392 11.619 12.9634 12.3304 12.7791 13.3006C12.5982 14.2737 11.9579 15.028 11.1677 15.3408C10.5481 14.7588 10.2289 13.8218 10.4133 12.8522C10.5941 11.8785 11.4676 11.5124 12.0205 10.8086Z" fill="#4CA300"/>
<path fill-rule="evenodd" clip-rule="evenodd" d="M18.1851 14.4326C17.2724 15.6015 15.5964 16.2645 15.2257 17.98C14.8523 19.6998 15.3708 21.3835 16.4478 22.4465C17.8715 21.9295 19.0399 20.6174 19.4106 18.9018C19.784 17.1821 18.6087 15.9752 18.1851 14.4326Z" fill="#4CA300"/>
<path fill-rule="evenodd" clip-rule="evenodd" d="M8.25769 26.9976C9.71569 26.2177 10.7604 24.4952 12.7087 24.419C14.6571 24.3429 16.3902 25.2439 17.3413 26.6426C16.5029 28.1097 14.8421 29.1485 12.8944 29.2246C10.9488 29.2959 9.85874 27.7658 8.25769 26.9976Z" fill="#4CA300"/>
<path fill-rule="evenodd" clip-rule="evenodd" d="M25.7512 19.5801C24.3131 21.142 21.8448 21.886 21.1138 24.2943C20.3827 26.7026 20.9246 29.1635 22.3434 30.8106C24.428 30.2403 26.2498 28.5047 26.9808 26.0964C27.7119 23.688 26.1782 21.8292 25.7512 19.5801Z" fill="#4CA300"/>
<path fill-rule="evenodd" clip-rule="evenodd" d="M9.11865 37.7632C11.4962 36.492 13.2024 33.6726 16.3825 33.5501C19.5626 33.4276 22.3981 34.8982 23.9497 37.1854C22.5769 39.5819 19.8659 41.2761 16.6858 41.3985C13.5057 41.521 11.7272 39.0228 9.11865 37.7632Z" fill="#4CA300"/>
<path fill-rule="evenodd" clip-rule="evenodd" d="M36.9198 25.9233C34.5279 28.1102 30.6759 28.9074 29.2454 32.4701C27.8121 36.0369 28.3183 39.8535 30.2522 42.5518C33.5059 41.9608 36.4996 39.5635 37.9294 36.0009C39.3592 32.4389 37.2733 29.4009 36.9198 25.9233Z" fill="#4CA300"/>
<path fill-rule="evenodd" clip-rule="evenodd" d="M10.9463 50.2792C14.5892 48.8203 17.5011 45.0203 22.1192 45.3553C26.7367 45.6833 30.6025 48.2619 32.4862 51.8169C30.121 55.0674 25.9348 57.0716 21.3167 56.7435C16.6999 56.4162 14.5239 52.5186 10.9463 50.2792Z" fill="#4CA300"/>
<path fill-rule="evenodd" clip-rule="evenodd" d="M21.0787 52.2812H104.923C105.336 52.2812 105.672 52.619 105.672 53.0356V110.98C105.672 111.394 105.337 111.735 104.923 111.735H21.0787C20.6675 111.735 20.3291 111.395 20.3291 110.98V53.0356C20.3291 52.619 20.6668 52.2812 21.0787 52.2812Z" fill="#7444FD"/>
<path fill-rule="evenodd" clip-rule="evenodd" d="M24.8492 56.5908H101.151C101.484 56.5908 101.758 56.8856 101.758 57.2455V107.48C101.758 107.84 101.484 108.135 101.151 108.135H24.8492C24.5157 108.135 24.2419 107.84 24.2419 107.48V57.2455C24.2419 56.8856 24.5157 56.5908 24.8492 56.5908Z" fill="url(#paint0_linear_112_1150)"/>
<path fill-rule="evenodd" clip-rule="evenodd" d="M15.0835 107.11H53.0142C53.3766 107.723 54.0417 108.135 54.7954 108.135H71.2048C71.9606 108.135 72.6236 107.723 72.986 107.11H110.917C112.055 107.11 112.987 108.048 112.987 109.193V112.684C112.987 113.829 112.055 114.765 110.917 114.765H15.0835C13.9453 114.765 13.0134 113.83 13.0134 112.684V109.193C13.0134 108.048 13.9453 107.11 15.0835 107.11Z" fill="#0643A3"/>
<path fill-rule="evenodd" clip-rule="evenodd" d="M101.758 62.2206H24.2419V57.2019C24.2419 56.8663 24.5157 56.5908 24.8492 56.5908H101.151C101.484 56.5908 101.758 56.8663 101.758 57.2019V62.2206Z" fill="#0643A3"/>
<path fill-rule="evenodd" clip-rule="evenodd" d="M28.9541 60.6275C29.6233 60.6275 30.1679 60.0794 30.1679 59.406C30.1679 58.7327 29.6233 58.1846 28.9541 58.1846C28.2849 58.1846 27.7402 58.7327 27.7402 59.406C27.7402 60.0787 28.2849 60.6275 28.9541 60.6275Z" fill="white"/>
<path fill-rule="evenodd" clip-rule="evenodd" d="M32.8032 60.6275C33.4724 60.6275 34.0191 60.0794 34.0191 59.406C34.0191 58.7327 33.4724 58.1846 32.8032 58.1846C32.1361 58.1846 31.5894 58.7327 31.5894 59.406C31.5887 60.0787 32.1361 60.6275 32.8032 60.6275Z" fill="white"/>
<path fill-rule="evenodd" clip-rule="evenodd" d="M36.6826 60.6275C37.3518 60.6275 37.8965 60.0794 37.8965 59.406C37.8965 58.7327 37.3518 58.1846 36.6826 58.1846C36.0134 58.1846 35.4688 58.7327 35.4688 59.406C35.4688 60.0787 36.0134 60.6275 36.6826 60.6275Z" fill="white"/>
<path fill-rule="evenodd" clip-rule="evenodd" d="M44.6433 58.251H82.3608C82.9922 58.251 83.508 58.77 83.508 59.4053C83.508 60.0406 82.9922 60.5596 82.3608 60.5596H44.6433C44.012 60.5596 43.4941 60.0406 43.4941 59.4053C43.4935 58.77 44.012 58.251 44.6433 58.251Z" fill="white"/>
<path fill-rule="evenodd" clip-rule="evenodd" d="M90.6045 57.8369H94.7158C94.887 57.8369 95.0273 57.9781 95.0273 58.1504C95.0273 58.3227 94.887 58.4639 94.7158 58.4639H90.6045C90.4333 58.4639 90.293 58.3227 90.293 58.1504C90.293 57.9781 90.4333 57.8369 90.6045 57.8369Z" fill="white"/>
<path fill-rule="evenodd" clip-rule="evenodd" d="M90.6045 59.1392H94.7158C94.887 59.1392 95.0273 59.2803 95.0273 59.4527C95.0273 59.625 94.887 59.7662 94.7158 59.7662H90.6045C90.4333 59.7662 90.293 59.625 90.293 59.4527C90.293 59.2796 90.4333 59.1392 90.6045 59.1392Z" fill="white"/>
<path fill-rule="evenodd" clip-rule="evenodd" d="M90.6045 60.3472H94.7158C94.887 60.3472 95.0273 60.4883 95.0273 60.6607C95.0273 60.833 94.887 60.9742 94.7158 60.9742H90.6045C90.4333 60.9742 90.293 60.833 90.293 60.6607C90.293 60.4883 90.4333 60.3472 90.6045 60.3472Z" fill="white"/>
<path d="M91.5523 19.6675H34.4482V100.81H91.5523V19.6675Z" fill="#7444FD"/>
<path d="M91.5523 21.2395H34.4482V102.374H91.5523V21.2395Z" fill="#7444FD"/>
<path d="M91.5523 22.4426H34.4482V103.577H91.5523V22.4426Z" fill="#DFE4F2"/>
<path d="M91.5523 23.6384H34.4482V104.773H91.5523V23.6384Z" fill="white"/>
<path d="M47.4321 35.1812H83.4873C84.0003 35.1812 84.4164 34.7625 84.4164 34.2463V34.2387C84.4164 33.7224 84.0003 33.3037 83.4873 33.3037H47.4321C46.919 33.3037 46.5029 33.7224 46.5029 34.2387V34.2463C46.5029 34.7625 46.919 35.1812 47.4321 35.1812Z" fill="#DFE6FF"/>
<path d="M42.5134 38.3043H83.4873C84.0003 38.3043 84.4164 37.8856 84.4164 37.3693V37.3617C84.4164 36.8454 84.0003 36.4268 83.4873 36.4268H42.5134C42.0003 36.4268 41.5842 36.8454 41.5842 37.3617V37.3693C41.5842 37.8863 42.0003 38.3043 42.5134 38.3043Z" fill="#DFE6FF"/>
<path d="M42.5134 41.6588H83.4873C84.0003 41.6588 84.4164 41.2401 84.4164 40.7238V40.7162C84.4164 40.1999 84.0003 39.7812 83.4873 39.7812H42.5134C42.0003 39.7812 41.5842 40.1999 41.5842 40.7162V40.7238C41.5842 41.2408 42.0003 41.6588 42.5134 41.6588Z" fill="#DFE6FF"/>
<path d="M42.5134 44.7823H83.4873C84.0003 44.7823 84.4164 44.3636 84.4164 43.8473V43.8397C84.4164 43.3235 84.0003 42.9048 83.4873 42.9048H42.5134C42.0003 42.9048 41.5842 43.3235 41.5842 43.8397V43.8473C41.5842 44.3636 42.0003 44.7823 42.5134 44.7823Z" fill="#DFE6FF"/>
<path d="M47.4321 51.6077H83.4873C84.0003 51.6077 84.4164 51.189 84.4164 50.6727C84.4164 50.1565 84.0003 49.7378 83.4873 49.7378H47.4321C46.919 49.7378 46.5029 50.1565 46.5029 50.6727C46.5029 51.1897 46.919 51.6077 47.4321 51.6077Z" fill="#DFE6FF"/>
<path d="M42.5134 54.7307H83.4873C84.0003 54.7307 84.4164 54.3121 84.4164 53.7958C84.4164 53.2795 84.0003 52.8608 83.4873 52.8608H42.5134C42.0003 52.8608 41.5842 53.2795 41.5842 53.7958C41.5842 54.3121 42.0003 54.7307 42.5134 54.7307Z" fill="#DFE6FF"/>
<path d="M42.5134 58.0938H83.4873C84.0003 58.0938 84.4164 57.6751 84.4164 57.1589V57.1513C84.4164 56.635 84.0003 56.2163 83.4873 56.2163H42.5134C42.0003 56.2163 41.5842 56.635 41.5842 57.1513V57.1589C41.5842 57.6751 42.0003 58.0938 42.5134 58.0938Z" fill="#DFE6FF"/>
<path d="M42.5134 61.2159H83.4873C84.0003 61.2159 84.4164 60.7972 84.4164 60.2809V60.2733C84.4164 59.7571 84.0003 59.3384 83.4873 59.3384H42.5134C42.0003 59.3384 41.5842 59.7571 41.5842 60.2733V60.2809C41.5842 60.7979 42.0003 61.2159 42.5134 61.2159Z" fill="#DFE6FF"/>
<path d="M42.5134 64.6441H83.4873C84.0003 64.6441 84.4164 64.2254 84.4164 63.7092V63.7016C84.4164 63.1853 84.0003 62.7666 83.4873 62.7666H42.5134C42.0003 62.7666 41.5842 63.1853 41.5842 63.7016V63.7092C41.5842 64.2254 42.0003 64.6441 42.5134 64.6441Z" fill="#DFE6FF"/>
<path d="M42.5134 67.7672H83.4873C84.0003 67.7672 84.4164 67.3485 84.4164 66.8322V66.8246C84.4164 66.3083 84.0003 65.8896 83.4873 65.8896H42.5134C42.0003 65.8896 41.5842 66.3083 41.5842 66.8246V66.8322C41.5842 67.3485 42.0003 67.7672 42.5134 67.7672Z" fill="#DFE6FF"/>
<path d="M42.5134 71.1219H83.4873C84.0003 71.1219 84.4164 70.7032 84.4164 70.1869C84.4164 69.6706 84.0003 69.252 83.4873 69.252H42.5134C42.0003 69.252 41.5842 69.6706 41.5842 70.1869C41.5842 70.7032 42.0003 71.1219 42.5134 71.1219Z" fill="#DFE6FF"/>
<path d="M47.4321 77.368H83.4873C84.0003 77.368 84.4164 76.9493 84.4164 76.433C84.4164 75.9167 84.0003 75.498 83.4873 75.498H47.4321C46.919 75.498 46.5029 75.9167 46.5029 76.433C46.5029 76.95 46.919 77.368 47.4321 77.368Z" fill="#DFE6FF"/>
<path d="M42.5134 80.7589H83.4873C84.0003 80.7589 84.4164 80.3402 84.4164 79.8239V79.8163C84.4164 79.3 84.0003 78.8813 83.4873 78.8813H42.5134C42.0003 78.8813 41.5842 79.3 41.5842 79.8163V79.8239C41.5842 80.3409 42.0003 80.7589 42.5134 80.7589Z" fill="#DFE6FF"/>
<path d="M42.5134 83.8822H83.4873C84.0003 83.8822 84.4164 83.4635 84.4164 82.9472V82.9403C84.4164 82.4241 84.0003 82.0054 83.4873 82.0054H42.5134C42.0003 82.0054 41.5842 82.4241 41.5842 82.9403V82.9472C41.5842 83.4642 42.0003 83.8822 42.5134 83.8822Z" fill="#DFE6FF"/>
<path d="M42.5134 87.2371H83.4873C84.0003 87.2371 84.4164 86.8184 84.4164 86.3021C84.4164 85.7859 84.0003 85.3672 83.4873 85.3672H42.5134C42.0003 85.3672 41.5842 85.7859 41.5842 86.3021C41.5842 86.8191 42.0003 87.2371 42.5134 87.2371Z" fill="#DFE6FF"/>
<path d="M42.5134 90.3601H83.4873C84.0003 90.3601 84.4164 89.9415 84.4164 89.4252C84.4164 88.9089 84.0003 88.4902 83.4873 88.4902H42.5134C42.0003 88.4902 41.5842 88.9089 41.5842 89.4252C41.5842 89.9415 42.0003 90.3601 42.5134 90.3601Z" fill="#DFE6FF"/>
<path fill-rule="evenodd" clip-rule="evenodd" d="M63.5979 60.7397C68.4162 61.8948 72.2358 65.5342 78.0623 67.9114C76.9056 79.29 72.8238 90.4976 63.2121 95.8105H62.787C53.1739 90.4976 49.0935 79.2907 47.9368 67.9114C53.7626 65.5342 57.5836 61.8948 62.4012 60.7397H63.5979Z" fill="#7444FD"/>
<path fill-rule="evenodd" clip-rule="evenodd" d="M63.4957 63.7109C67.4983 64.6708 70.6715 67.6923 75.5111 69.668C74.5496 79.1193 71.1598 88.4273 63.1759 92.8384H62.8237C54.8384 88.4273 51.45 79.1193 50.4885 69.668C55.3281 67.6923 58.5013 64.6708 62.5039 63.7109H63.4957Z" fill="#8DAFDB"/>
<path fill-rule="evenodd" clip-rule="evenodd" d="M63.5979 61.1357C68.4162 62.2908 72.2358 65.9302 78.0623 68.3074C76.9056 79.686 72.8238 90.8936 63.2121 96.2064H62.787C53.1739 90.8936 49.0935 79.6867 47.9368 68.3074C53.7626 65.9302 57.5836 62.2908 62.4012 61.1357H63.5979Z" fill="#7444FD"/>
<path fill-rule="evenodd" clip-rule="evenodd" d="M63.4957 64.1064C67.4983 65.0663 70.6715 68.0878 75.5111 70.0636C74.5496 79.5148 71.1598 88.8228 63.1759 93.2339H62.8237C54.8384 88.8228 51.45 79.5148 50.4885 70.0636C55.3281 68.0878 58.5013 65.0663 62.5039 64.1064H63.4957Z" fill="white"/>
<path fill-rule="evenodd" clip-rule="evenodd" d="M62.8684 64.1064V93.2339H63.1765C71.1604 88.8228 74.5503 79.5148 75.5117 70.0636C70.6721 68.0878 67.4989 65.0663 63.4963 64.1064H62.8684Z" fill="#DFE6FF"/>
<path d="M55.5976 79.4207C55.2682 79.8401 56.1389 81.2145 58.2103 83.5446C59.4138 84.8982 61.4963 84.9681 62.7893 83.7017C70.0944 76.5473 73.5743 72.7715 73.2277 72.3743C72.9058 72.0054 69.2746 74.5584 62.334 80.0352C61.367 80.7985 60.0486 80.9314 58.9503 80.3771C56.991 79.3881 55.8734 79.0691 55.5976 79.4207Z" fill="#7444FD"/>
<path fill-rule="evenodd" clip-rule="evenodd" d="M18.7425 111.502C16.8904 113.562 11.0955 114.407 11.7681 116.103C14.1553 115.55 16.4124 114.661 18.7782 114.618C21.144 114.661 23.4012 115.549 25.7883 116.103C26.4609 114.407 20.6661 113.562 18.814 111.502L18.7775 112.048L18.7425 111.502Z" fill="#3E3938"/>
<path d="M25.8285 116.178L25.7748 116.166C25.0624 116.001 24.3526 115.803 23.6669 115.613C22.0026 115.15 20.4311 114.713 18.7778 114.683C17.1273 114.713 15.5558 115.151 13.8915 115.613C13.2058 115.804 12.496 116.001 11.7836 116.166L11.7299 116.178L11.7093 116.127C11.3131 115.128 12.9348 114.446 14.8123 113.657C16.2497 113.052 17.8796 112.367 18.6953 111.459L18.7586 111.389L18.7613 111.346L18.7792 111.366L18.7971 111.346L18.7998 111.389L18.8631 111.459C19.6794 112.367 21.3087 113.052 22.7461 113.657C24.6236 114.446 26.2453 115.128 25.8491 116.127L25.8285 116.178ZM18.7778 114.553C20.449 114.584 22.0288 115.023 23.7013 115.488C24.3684 115.673 25.0569 115.865 25.7487 116.027C26.0176 115.172 24.4764 114.524 22.6972 113.776C21.3039 113.19 19.7324 112.529 18.87 111.654L18.8438 112.053H18.7159L18.6898 111.654C17.8281 112.529 16.2559 113.19 14.8625 113.776C13.0834 114.524 11.5422 115.172 11.8111 116.027C12.5022 115.865 13.1914 115.673 13.8578 115.488C15.529 115.023 17.1087 114.584 18.7778 114.553Z" fill="#3E3938"/>
<path fill-rule="evenodd" clip-rule="evenodd" d="M18.7791 112.995L17.8025 113.293C18.1278 114.37 18.2365 116.758 18.7791 116.605C19.3217 116.758 19.4304 114.37 19.7632 113.293L18.7791 112.995Z" fill="#595757"/>
<path d="M18.729 116.677C18.6843 116.677 18.641 116.664 18.5997 116.637C18.3116 116.453 18.1692 115.597 18.0186 114.691C17.9354 114.189 17.8487 113.671 17.7407 113.312L17.7222 113.25L18.7785 112.927L19.8431 113.25L19.8239 113.312C19.7118 113.675 19.6238 114.2 19.5378 114.708C19.3865 115.606 19.2441 116.455 18.9567 116.637C18.9003 116.673 18.8404 116.685 18.7785 116.671C18.762 116.676 18.7455 116.677 18.729 116.677ZM18.7785 116.539L18.7957 116.543C18.8287 116.552 18.8576 116.548 18.8879 116.529C19.1265 116.377 19.2778 115.479 19.4106 114.687C19.4917 114.203 19.5763 113.703 19.6815 113.336L18.7778 113.062L17.881 113.336C17.9835 113.699 18.0653 114.192 18.1451 114.67C18.2779 115.469 18.4285 116.375 18.6685 116.529C18.6988 116.548 18.7283 116.553 18.7606 116.543L18.7785 116.539Z" fill="#595757"/>
<path d="M19.4806 97.5542H18.0769V112.026H19.4806V97.5542Z" fill="#424143"/>
<path d="M19.5455 112.091H18.0132V97.4893H19.5455V112.091ZM18.1418 111.962H19.4169V97.6194H18.1418V111.962Z" fill="#424143"/>
<path fill-rule="evenodd" clip-rule="evenodd" d="M13.8376 95.2388H23.7197C24.8338 95.2388 25.7526 96.1557 25.7526 97.2768C25.7526 98.398 24.8338 99.3225 23.7197 99.3225H13.8376C12.7235 99.3225 11.8047 98.398 11.8047 97.2768C11.8047 96.1564 12.7235 95.2388 13.8376 95.2388Z" fill="#15489D"/>
<path d="M23.7204 99.3875H13.8376C12.6815 99.3875 11.7407 98.4408 11.7407 97.2774C11.7407 96.1176 12.6815 95.1743 13.8376 95.1743H23.7197C24.8758 95.1743 25.8166 96.1176 25.8166 97.2774C25.8173 98.4408 24.8765 99.3875 23.7204 99.3875ZM13.8376 95.3037C12.7524 95.3037 11.8686 96.1889 11.8686 97.2774C11.8686 98.3695 12.7517 99.2581 13.8376 99.2581H23.7197C24.8049 99.2581 25.688 98.3695 25.688 97.2774C25.688 96.1889 24.8049 95.3037 23.7197 95.3037H13.8376Z" fill="#15489D"/>
<path fill-rule="evenodd" clip-rule="evenodd" d="M32.9802 72.8086L33.06 71.1152C33.2154 70.138 33.3592 69.1629 33.5146 68.1851C33.7134 66.2806 33.974 68.2771 34.2271 69.6294C35.9361 69.3539 37.6135 67.282 38.7001 67.765C39.5949 68.3173 37.9367 69.9519 37.5798 70.2654C35.8605 71.8328 35.4237 71.7249 33.9183 72.082L32.9802 72.8086Z" fill="#FFCDAD"/>
<path fill-rule="evenodd" clip-rule="evenodd" d="M16.8273 80.9375L16.0928 74.5631L22.6043 77.489L33.0606 70.916L34.0777 72.6378L24.6496 80.2019C23.9955 80.6392 23.543 80.7506 22.6304 80.8019L16.8273 80.9375Z" fill="url(#paint1_linear_112_1150)"/>
<path fill-rule="evenodd" clip-rule="evenodd" d="M14.4204 73.7134L16.9313 74.593C17.619 75.1335 18.5908 75.6006 18.7703 77.3521C19.533 82.1549 20.2943 86.9487 21.057 91.7515C17.7683 95.3619 14.2608 92.0491 10.8613 92.1889C11.067 86.7515 11.2795 81.3037 11.4837 75.8573C11.7685 74.9445 13.3392 74.258 14.4204 73.7134Z" fill="#DFCFFD"/>
<path fill-rule="evenodd" clip-rule="evenodd" d="M16.7186 73.4798L14.2021 72.8452L13.7434 74.7082C14.6897 74.9539 16.4036 78.0584 16.5714 75.4376L16.7186 73.4798Z" fill="#F1AE8E"/>
<path fill-rule="evenodd" clip-rule="evenodd" d="M12.6255 68.1819L18.4492 67.4712C19.0696 69.7937 18.6081 74.2961 16.9974 74.166C13.4659 73.5868 13.0251 72.2844 12.6255 68.1819Z" fill="#FFCDAD"/>
<path d="M18.4919 72.092C18.3076 71.3266 16.3256 72.2504 15.7155 71.7432L13.5657 68.3833C14.4728 70.9307 13.6434 72.492 14.979 73.6055C15.5113 73.8456 16.1688 74.029 16.9988 74.166C17.734 74.22 18.2285 73.3183 18.4919 72.092Z" fill="#060352"/>
<path d="M15.5014 71.9766C15.4891 72.0686 15.487 72.169 15.4939 72.2672C15.5558 72.998 16.1981 73.5364 16.9251 73.4741C17.2882 73.443 17.6018 73.2658 17.8219 73.0139C16.6341 73.0596 15.6397 72.6229 15.5014 71.9766Z" fill="white"/>
<path fill-rule="evenodd" clip-rule="evenodd" d="M14.0553 68.8112L18.5689 67.9953C19.4389 68.0451 20.8439 65.9212 19.106 64.3662C17.3585 63.1468 15.7856 65.7406 13.0856 66.3828C11.0011 67.4499 11.4784 69.9489 13.2816 71.8008C14.6461 71.6264 13.1984 68.9579 14.0553 68.8112Z" fill="#060352"/>
<path fill-rule="evenodd" clip-rule="evenodd" d="M14.0423 70.8192C13.9866 70.4123 13.9226 70.0067 13.8683 69.6088C13.6138 68.6282 12.803 68.84 12.957 69.5839C13.1957 70.5756 13.5251 70.3874 14.0423 70.8192Z" fill="#FFCDAD"/>
<path fill-rule="evenodd" clip-rule="evenodd" d="M24.1087 83.2L24.8714 84.4962C25.4408 85.254 25.8342 84.9017 26.3892 84.4962L27.079 83.8069L28.8595 85.1204C29.0989 85.2719 29.1814 84.9965 29.0232 84.8498L27.6814 83.1854C27.3046 82.6221 26.0735 82.0526 25.2641 81.4775L25.2565 81.4879C25.0343 81.3882 24.7764 81.2941 24.467 81.2083C24.0179 81.0366 23.4849 81.3571 22.9993 81.5252L22.7036 83.5065L24.1087 83.2Z" fill="#FFCDAD"/>
<path fill-rule="evenodd" clip-rule="evenodd" d="M11.0144 77.7137C10.4965 75.8085 13.1065 74.0334 13.6615 75.6071L16.2391 83.9227L23.3565 81.2328L24.0992 83.0833C23.2114 83.7137 19.413 86.376 16.171 86.7712C14.8004 86.7387 13.9531 86.549 13.1367 84.8549L11.0144 77.7137Z" fill="url(#paint2_linear_112_1150)"/>
<path fill-rule="evenodd" clip-rule="evenodd" d="M35.8921 101.007L37.5179 101.759C39.5089 101.567 43.7075 99.6157 43.4991 101.182C41.2474 102.468 38.9958 103.745 36.7442 105.022C36.2834 104.62 35.8659 103.684 35.8577 102.774L35.8921 101.007Z" fill="#DD4A71"/>
<path fill-rule="evenodd" clip-rule="evenodd" d="M35.7693 98.2075L33.4482 99.3625L35.856 102.774C36.2907 102.81 37.2727 102.556 37.5162 101.76L35.7693 98.2075Z" fill="#FFCDAD"/>
<path fill-rule="evenodd" clip-rule="evenodd" d="M30.5971 110.962L31.7794 112.309C33.6748 112.956 38.2991 112.878 37.4731 114.234C34.8996 114.479 32.3268 114.733 29.7533 114.986C29.4926 114.435 29.4926 113.403 29.8489 112.572L30.5971 110.962Z" fill="#DB3A55"/>
<path fill-rule="evenodd" clip-rule="evenodd" d="M31.6154 108.355L29.0247 108.461L29.8506 112.572C30.233 112.773 31.233 112.949 31.7804 112.31L31.6154 108.355Z" fill="#FFCDAD"/>
<path fill-rule="evenodd" clip-rule="evenodd" d="M32.4407 94.3768L31.31 97.2724L32.5624 111.085L28.8328 111.207L26.1898 96.4322L14.1497 96.3097L27.0248 90.3789L32.4407 94.3768Z" fill="#DB3A55"/>
<path fill-rule="evenodd" clip-rule="evenodd" d="M28.1119 93.0381C22.8088 94.2803 9.9949 102.975 10.8903 91.8748C19.366 90.2305 25.9469 86.5647 29.4943 87.1682C32.5629 88.1391 36.536 98.6714 37.1962 100.185C36.2141 100.666 35.2314 101.217 34.2493 101.698C32.1283 98.9336 30.5809 95.5399 28.1119 93.0381Z" fill="#DD4A71"/>
<path fill-rule="evenodd" clip-rule="evenodd" d="M34.0834 87.0935H20.1912C20.141 87.0935 20.1011 87.1343 20.1011 87.1842V87.5966C20.1011 87.6458 20.1417 87.6859 20.1912 87.6859H34.0834C34.1322 87.6859 34.1735 87.6451 34.1735 87.5966V87.1842C34.1735 87.1343 34.1316 87.0935 34.0834 87.0935Z" fill="#194792"/>
<path fill-rule="evenodd" clip-rule="evenodd" d="M37.6595 80.8867C36.2125 80.8923 34.7675 80.8992 33.3247 80.9061C31.8873 80.9116 30.4506 80.9186 29.016 80.9241C28.6852 80.9255 28.3365 81.1802 28.2451 81.4847C27.9548 82.4459 27.666 83.4009 27.3799 84.3469C27.0965 85.2888 26.8146 86.2238 26.534 87.1546C26.4453 87.448 26.6392 87.6854 26.9617 87.6854C28.362 87.6854 29.7629 87.6854 31.1645 87.6854C32.5716 87.6854 33.9801 87.6854 35.3913 87.6854C35.7166 87.6854 36.0605 87.4494 36.1595 87.1573C36.4731 86.221 36.7902 85.2777 37.1093 84.3269C37.4304 83.3698 37.7537 82.4051 38.079 81.4383C38.1815 81.1345 37.993 80.8853 37.6595 80.8867Z" fill="#194792"/>
<path fill-rule="evenodd" clip-rule="evenodd" d="M37.6814 80.8867C36.3025 80.8923 34.927 80.8992 33.5536 80.9061C32.1843 80.9116 30.8157 80.9186 29.4505 80.9241C29.1356 80.9255 28.8034 81.1802 28.716 81.4847C28.4382 82.4459 28.1645 83.4009 27.8921 84.3469C27.6212 85.2888 27.353 86.2238 27.0854 87.1546C27.0022 87.448 27.1865 87.6854 27.4939 87.6854C28.8275 87.6854 30.161 87.6854 31.4952 87.6854C32.8356 87.6854 34.176 87.6854 35.5205 87.6854C35.83 87.6854 36.158 87.4494 36.2522 87.1573C36.5507 86.221 36.8519 85.2777 37.1566 84.3269C37.462 83.3698 37.7708 82.4051 38.0802 81.4383C38.1772 81.1345 37.9984 80.8853 37.6814 80.8867Z" fill="#3862AD"/>
<path fill-rule="evenodd" clip-rule="evenodd" d="M31.7251 84.2091C31.7223 84.2341 31.7209 84.2611 31.7209 84.2873C31.7209 84.7669 32.1081 85.1566 32.5847 85.1566C33.0627 85.1566 33.4499 84.7669 33.4499 84.2873C33.4499 83.9254 33.2305 83.6154 32.9183 83.4839C32.8777 83.9282 32.5084 84.2749 32.0573 84.2749C31.939 84.2742 31.8269 84.2507 31.7251 84.2091Z" fill="white"/>
<path fill-rule="evenodd" clip-rule="evenodd" d="M103.44 79.4502C108.803 79.4502 113.208 83.0149 113.208 87.3727V96.2724C113.208 100.631 108.803 104.195 103.44 104.195C98.0664 104.195 93.6621 100.63 93.6621 96.2724V87.3727C93.6621 83.0149 98.0664 79.4502 103.44 79.4502ZM103.44 83.0149C106.498 83.0149 109.001 85.0454 109.001 87.5257V97.9596C109.001 100.44 106.498 102.47 103.44 102.47C100.372 102.47 97.8779 100.44 97.8779 97.9596V87.5257C97.8779 85.0454 100.372 83.0149 103.44 83.0149Z" fill="white"/>
<path fill-rule="evenodd" clip-rule="evenodd" d="M94.1206 93.9526H112.747C114.543 93.9526 116.016 95.2142 116.016 96.7526V113.627C116.016 115.166 114.543 116.427 112.747 116.427H94.1206C92.3167 116.427 90.8518 115.166 90.8518 113.627V96.7526C90.8518 95.2142 92.3167 93.9526 94.1206 93.9526Z" fill="#7444FD"/>
<path fill-rule="evenodd" clip-rule="evenodd" d="M103.439 98.2432C105.511 98.2432 107.187 99.9366 107.187 102.022C107.187 103.6 106.228 104.957 104.86 105.517L106.074 109.734H103.439H100.797L102.011 105.517C100.643 104.957 99.6843 103.6 99.6843 102.022C99.6836 99.9373 101.36 98.2432 103.439 98.2432Z" fill="white"/>
<defs>
<linearGradient id="paint0_linear_112_1150" x1="63" y1="56.5909" x2="63" y2="108.135" gradientUnits="userSpaceOnUse">
<stop stop-color="#D5F0FF"/>
<stop offset="1" stop-color="#62CBEC"/>
</linearGradient>
<linearGradient id="paint1_linear_112_1150" x1="17.3127" y1="81.4259" x2="30.4859" y2="68.3274" gradientUnits="userSpaceOnUse">
<stop stop-color="#DFCFFD"/>
<stop offset="1" stop-color="#C6B2F9"/>
</linearGradient>
<linearGradient id="paint2_linear_112_1150" x1="10.9468" y1="80.8868" x2="24.0994" y2="80.8868" gradientUnits="userSpaceOnUse">
<stop stop-color="#DFCFFD"/>
<stop offset="1" stop-color="#C6B2F9"/>
</linearGradient>
</defs>
</svg>
