<svg width="136" height="120" viewBox="0 0 136 120" fill="none" xmlns="http://www.w3.org/2000/svg">
<g opacity="0.2">
<path d="M133.717 37.9335C130.955 47.9099 128.183 57.8838 125.423 67.8631C124.045 72.8207 122.57 77.9759 119.551 81.5679C115.524 86.3492 109.609 87.3753 104.096 87.7094C96.1226 88.2145 18.8345 88.6797 14.7469 87.7094C9.80155 86.5255 2.45249 82.2201 0.808473 75.2742C-0.192866 71.0781 1.83638 66.6954 4.21606 63.6832C12.5557 53.1377 -10.8644 17.9619 6.74187 10.6152C16.7812 6.42453 32.4142 20.4955 47.5026 3.46632C53.6644 -3.48501 68.7449 1.40033 73.8604 6.09891C77.3078 9.26321 80.9703 10.4471 85.1958 12.0879C91.0602 14.373 97.3947 12.9754 103.368 11.1767C109.344 9.38592 115.405 7.20261 121.513 7.9883C127.62 8.77937 133.903 13.3762 135.547 20.8697C136.788 26.4925 135.247 32.4337 133.717 37.9335Z" fill="#F93E5E"/>
<path d="M135.234 113.18C130.136 126.189 77.0217 116.94 70.7512 115.008C70.7433 115.005 70.7354 115.003 70.7274 115C69.3377 114.568 67.8629 114.501 66.4438 114.832C57.7676 116.857 47.5186 118.267 37.8373 118.267C14.5067 118.267 3.29742 110.081 3.29742 104.826C3.29742 103.201 8.20702 103.814 8.28672 100.331C8.38223 96.3253 1.21283 95.6312 0.117235 92.7513C-1.76083 87.8057 29.8987 87.9684 29.8987 87.9684H88.9445C88.9445 87.9684 131.89 86.69 134.611 92.2735C137.328 97.8599 113.607 100.254 113.607 100.254C113.607 100.254 137.587 107.177 135.234 113.18Z" fill="#F93E5E"/>
</g>
<path d="M105.073 8.95508H101.91V94.6979H105.073C107.961 94.6979 110.302 92.351 110.302 89.4556V14.1977C110.302 11.302 107.961 8.95508 105.073 8.95508Z" fill="#111228"/>
<path d="M108.308 14.1977V89.4553C108.308 92.3507 105.967 94.6976 103.079 94.6976H66.838C63.9494 94.6976 61.6086 92.3507 61.6086 89.4553V14.1977C61.6086 11.302 63.9497 8.95508 66.838 8.95508H103.079C105.967 8.95508 108.308 11.302 108.308 14.1977Z" fill="#373A50"/>
<path d="M106.624 14.1978V89.4563C106.624 91.4158 105.033 93.0106 103.079 93.0106H66.838C64.8834 93.0106 63.2925 91.4158 63.2925 89.4563V14.1978C63.2925 12.2384 64.8834 10.6436 66.838 10.6436H76.4054L77.1328 12.3275C77.4298 13.012 78.1045 13.4575 78.8487 13.4575H91.0678C91.812 13.4575 92.4866 13.0123 92.7836 12.3275L93.511 10.6436H103.078C105.033 10.6436 106.624 12.2384 106.624 14.1978Z" fill="white"/>
<path d="M111.96 76.7747L111.704 76.7062L111.977 75.677L112.234 75.7455L111.96 76.7747ZM112.507 74.7163L112.25 74.6478L112.523 73.6186L112.78 73.6871L112.507 74.7163ZM113.053 72.6576L112.797 72.5891L113.07 71.5599L113.327 71.6284L113.053 72.6576ZM113.6 70.5989L113.343 70.5304L113.617 69.5012L113.873 69.5697L113.6 70.5989ZM114.147 68.5405L113.89 68.472L114.163 67.4428L114.42 67.5113L114.147 68.5405ZM114.693 66.4818L114.436 66.4133L114.71 65.3841L114.967 65.4526L114.693 66.4818ZM115.24 64.4231L114.983 64.3546L115.257 63.3251L115.513 63.3936L115.24 64.4231ZM115.787 62.3647L115.53 62.2962L115.803 61.267L116.06 61.3355L115.787 62.3647ZM116.334 60.306L116.077 60.2375L116.35 59.2083L116.607 59.2768L116.334 60.306ZM116.88 58.2473L116.623 58.1788L116.896 57.1497L117.153 57.2181L116.88 58.2473ZM117.427 56.1889L117.17 56.1205L117.443 55.0913L117.7 55.1598L117.427 56.1889ZM117.973 54.1302L117.717 54.0618L117.99 53.0326L118.247 53.101L117.973 54.1302ZM118.52 52.0719L118.263 52.0034L118.536 50.9742L118.793 51.0427L118.52 52.0719ZM119.067 50.0132L118.81 49.9447L119.083 48.9155L119.34 48.984L119.067 50.0132ZM119.613 47.9545L119.357 47.886L119.63 46.8568L119.887 46.9253L119.613 47.9545ZM120.16 45.8961L119.903 45.8276L120.176 44.7984L120.433 44.8669L120.16 45.8961ZM120.707 43.8374L120.45 43.7689L120.723 42.7397L120.98 42.8082L120.707 43.8374ZM121.253 41.779L120.996 41.7105L121.27 40.6813L121.526 40.7498L121.253 41.779ZM121.8 39.7203L121.543 39.6518L121.817 38.6226L122.073 38.6911L121.8 39.7203ZM122.347 37.6616L122.09 37.5931L122.363 36.5639L122.62 36.6324L122.347 37.6616ZM122.893 35.6032L122.636 35.5347L122.91 34.5055L123.166 34.574L122.893 35.6032ZM123.44 33.5445L123.183 33.476L123.303 33.0245L123.039 33.021L123.043 32.7547L123.647 32.7626L123.44 33.5445ZM121.966 33.0071L120.897 32.9931L120.901 32.7268L121.97 32.7407L121.966 33.0071ZM119.83 32.9795L118.763 32.9659L118.767 32.6995L119.833 32.7132L119.83 32.9795ZM117.698 32.9519L116.632 32.9383L116.636 32.6719L117.701 32.6856L117.698 32.9519ZM115.567 32.9243L114.502 32.9107L114.505 32.6444L115.57 32.658L115.567 32.9243ZM113.437 32.8971L112.372 32.8834L112.376 32.6171L113.441 32.6307L113.437 32.8971ZM111.308 32.8695L110.244 32.8558L110.247 32.5895L111.311 32.6031L111.308 32.8695ZM109.179 32.8419L108.115 32.8283L108.118 32.5619L109.182 32.5756L109.179 32.8419ZM107.051 32.8146L105.986 32.801L105.99 32.5347L107.054 32.5483L107.051 32.8146ZM104.922 32.787L103.858 32.7734L103.862 32.5071L104.926 32.5207L104.922 32.787ZM102.794 32.7598L101.73 32.7461L101.733 32.4798L102.797 32.4934L102.794 32.7598ZM100.666 32.7322L99.6017 32.7186L99.6052 32.4522L100.669 32.4658L100.666 32.7322ZM98.5352 32.7049L97.4716 32.6913L97.4751 32.4249L98.539 32.4386L98.5352 32.7049ZM96.4111 32.6776L95.3468 32.664L95.3503 32.3977L96.4146 32.4113L96.4111 32.6776ZM94.2826 32.6504L93.2183 32.6367L93.2218 32.3704L94.286 32.384L94.2826 32.6504ZM92.1546 32.6231L91.0903 32.6095L91.0938 32.3431L92.1584 32.3568L92.1546 32.6231ZM90.0257 32.5958L88.9612 32.5822L88.9646 32.3159L90.0286 32.3295L90.0257 32.5958ZM87.8969 32.5686L86.832 32.5549L86.8354 32.2886L87.8997 32.3022L87.8969 32.5686ZM85.7677 32.5416L84.7028 32.528L84.7059 32.2617L85.7712 32.2753L85.7677 32.5416ZM83.6375 32.5144L82.5723 32.501L82.5755 32.2347L83.6407 32.248L83.6375 32.5144ZM81.5068 32.4874L80.4406 32.4741L80.4438 32.2078L81.5099 32.2211L81.5068 32.4874ZM79.3741 32.4605L78.306 32.4471L78.3092 32.1808L79.3773 32.1941L79.3741 32.4605ZM77.2357 32.4341C76.5874 32.4262 76.2107 32.4221 76.1604 32.4221V32.1558C76.2104 32.1558 76.5883 32.1602 77.2386 32.1678L77.2357 32.4341Z" fill="#373A50"/>
<path d="M105.543 88.2848L105.26 87.8536L105.482 87.7071L105.765 88.1383L105.543 88.2848ZM104.676 86.9639L104.091 86.0745L104.313 85.928L104.898 86.8177L104.676 86.9639ZM103.507 85.1848L102.922 84.2952L103.144 84.1487L103.729 85.0384L103.507 85.1848ZM102.338 83.4058L101.753 82.5161L101.975 82.3696L102.56 83.2593L102.338 83.4058ZM101.169 81.6267L100.585 80.7371L100.807 80.5906L101.391 81.4803L101.169 81.6267ZM100 79.8477L99.4159 78.9583L99.6379 78.8118L100.222 79.7015L100 79.8477ZM98.8314 78.0683L98.2469 77.1786L98.4689 77.0322L99.0534 77.9215L98.8314 78.0683ZM97.6628 76.2896L97.0783 75.3999L97.3003 75.2534L97.8848 76.1428L97.6628 76.2896ZM96.4938 74.5102L95.9093 73.6205L96.1313 73.4741L96.7158 74.3634L96.4938 74.5102ZM95.3248 72.7312L94.7406 71.8415L94.9627 71.695L95.5468 72.5847L95.3248 72.7312ZM94.1565 70.9521L93.572 70.0628L93.794 69.9163L94.3785 70.806L94.1565 70.9521ZM43.7856 69.5228L43.7388 69.2606L44.7844 69.0719L44.8312 69.3341L43.7856 69.5228ZM92.9875 69.1731L92.403 68.2834L92.6251 68.1369L93.2095 69.0263L92.9875 69.1731ZM45.8771 69.1452L45.83 68.883L46.8756 68.6943L46.9227 68.9565L45.8771 69.1452ZM47.9684 68.7679L47.9216 68.5057L48.9672 68.317L49.0143 68.5792L47.9684 68.7679ZM44.2154 68.6157L43.9791 68.4942L44.4637 67.5465L44.6999 67.668L44.2154 68.6157ZM50.0596 68.3902L50.0125 68.128L51.0581 67.9394L51.1049 68.2016L50.0596 68.3902ZM52.1512 68.0126L52.1043 67.7504L53.15 67.5618L53.1968 67.824L52.1512 68.0126ZM54.2424 67.635L54.1956 67.3728L55.2412 67.1841L55.288 67.4463L54.2424 67.635ZM91.8185 67.394L91.2341 66.5043L91.4561 66.3579L92.0406 67.2472L91.8185 67.394ZM56.3339 67.2577L56.2868 66.9955L57.3324 66.8068L57.3792 67.069L56.3339 67.2577ZM58.4252 66.8801L58.3781 66.6178L59.4237 66.4292L59.4708 66.6914L58.4252 66.8801ZM45.1851 66.7203L44.9489 66.5988L45.4337 65.6511L45.67 65.7726L45.1851 66.7203ZM60.5164 66.5024L60.4696 66.2402L61.5152 66.0516L61.562 66.3138L60.5164 66.5024ZM62.6077 66.1251L62.5608 65.8629L63.6065 65.6743L63.6533 65.9365L62.6077 66.1251ZM64.6992 65.7475L64.6521 65.4853L65.6977 65.2966L65.7448 65.5589L64.6992 65.7475ZM90.6499 65.6147L90.0654 64.7253L90.2874 64.5788L90.8719 65.4685L90.6499 65.6147ZM66.7904 65.3699L66.7436 65.1077L67.7893 64.919L67.8361 65.1812L66.7904 65.3699ZM68.882 64.9926L68.8349 64.7304L69.8805 64.5417L69.9273 64.8039L68.882 64.9926ZM46.1545 64.8245L45.9182 64.7031L46.4031 63.7554L46.6394 63.8768L46.1545 64.8245ZM70.9732 64.615L70.9264 64.3527L71.9717 64.1641L72.0189 64.4263L70.9732 64.615ZM73.0648 64.2373L73.0177 63.9751L74.0633 63.7865L74.1104 64.0487L73.0648 64.2373ZM75.156 63.8597L75.1089 63.5975L76.1545 63.4088L76.2016 63.6711L75.156 63.8597ZM89.4809 63.8356L88.8964 62.9462L89.1185 62.7998L89.703 63.6894L89.4809 63.8356ZM77.2473 63.4824L77.2001 63.2202L78.2457 63.0315L78.2929 63.2937L77.2473 63.4824ZM79.3388 63.1048L79.2917 62.8426L80.3373 62.6539L80.3844 62.9161L79.3388 63.1048ZM47.1242 62.9291L46.888 62.8077L47.3728 61.86L47.6091 61.9814L47.1242 62.9291ZM81.4304 62.7271L81.3832 62.4649L82.4289 62.2763L82.476 62.5385L81.4304 62.7271ZM83.5216 62.3495L83.4745 62.0873L84.5201 61.8987L84.5672 62.1609L83.5216 62.3495ZM88.3123 62.0566L87.9764 61.5454L87.7044 61.5946L87.6573 61.3324L88.1023 61.2522L88.5346 61.9101L88.3123 62.0566ZM85.6131 61.9722L85.566 61.71L86.6116 61.5214L86.6588 61.7836L85.6131 61.9722ZM48.0939 61.0334L47.8577 60.912L48.3422 59.9643L48.5785 60.0857L48.0939 61.0334ZM49.0633 59.1377L48.8271 59.0162L49.3119 58.0685L49.5482 58.19L49.0633 59.1377ZM50.033 57.2422L49.7968 57.1208L50.2816 56.1731L50.5179 56.2945L50.033 57.2422ZM51.0027 55.3465L50.7665 55.2251L51.2513 54.2774L51.4876 54.3988L51.0027 55.3465ZM51.9725 53.4511L51.7362 53.3297L52.2207 52.382L52.457 52.5034L51.9725 53.4511ZM52.9419 51.5554L52.7056 51.4339L53.1904 50.4862L53.4267 50.6077L52.9419 51.5554ZM53.9116 49.66L53.6753 49.5385L54.1602 48.5908L54.3964 48.7123L53.9116 49.66Z" fill="#373A50"/>
<path d="M76.1133 23.5198C75.9106 23.5198 75.7081 23.5242 75.5098 23.5369C73.7554 18.5377 69.0015 14.96 63.4112 14.96C62.2252 14.96 61.079 15.1274 59.9888 15.4295V47.4353H76.1133C82.6992 47.4353 88.0392 42.082 88.0392 35.4798C88.0392 28.8731 82.6992 23.5198 76.1133 23.5198Z" fill="url(#paint0_linear_113_5668)"/>
<path d="M85.4123 35.4794C85.4123 42.0816 80.072 47.4352 73.4864 47.4352C68.7065 47.4352 45.0222 47.4352 40.3672 47.4352C35.6088 47.4352 31.7471 43.5639 31.7471 38.7936C31.7471 34.6239 34.6951 31.1416 38.6132 30.3337C38.7814 25.7147 42.5698 22.0162 47.2248 22.0162C47.9102 22.0162 48.5782 22.0983 49.2161 22.2495C51.2893 17.9374 55.69 14.9602 60.7843 14.9602C66.3746 14.9602 71.1285 18.5376 72.8829 23.5371C73.0812 23.5241 73.2837 23.5197 73.4864 23.5197C80.072 23.5197 85.4123 28.873 85.4123 35.4794Z" fill="url(#paint1_linear_113_5668)"/>
<path d="M68.5445 31.4C68.5163 31.1809 68.3351 31.0119 68.1137 31.0024L66.2432 30.9304C66.0747 30.9209 65.9247 30.8239 65.8529 30.6704C65.6999 30.3384 65.519 30.0192 65.3127 29.7094C65.216 29.5718 65.2128 29.3901 65.2909 29.243L66.1873 27.5996C66.2935 27.4024 66.2435 27.1615 66.0686 27.0235L64.2731 25.618C64.0951 25.4804 63.8484 25.4927 63.6861 25.643L62.3154 26.9138C62.1904 27.0296 62.0155 27.0673 61.8564 27.0109C61.5098 26.8856 61.154 26.7854 60.7947 26.7166C60.6324 26.6852 60.5012 26.5632 60.4512 26.4005L59.9265 24.6005C59.861 24.3875 59.6548 24.2499 59.4363 24.2781L57.1724 24.5596C56.9538 24.5847 56.7852 24.7692 56.7757 24.9915L56.7039 26.8666C56.6976 27.0356 56.6008 27.1862 56.4478 27.2578C56.1166 27.4113 55.7953 27.593 55.4891 27.8026C55.3487 27.8964 55.1706 27.9028 55.0239 27.8213L53.3783 26.9227C53.1847 26.8162 52.9412 26.8663 52.8068 27.0419L51.4047 28.8419C51.2703 29.0169 51.2798 29.2642 51.4297 29.4272L52.7005 30.8045C52.8128 30.9298 52.8536 31.1051 52.7973 31.2649C52.6692 31.6124 52.5692 31.9691 52.5006 32.3293C52.4693 32.4954 52.3475 32.6267 52.1884 32.6736L50.3897 33.2025C50.1775 33.2653 50.0399 33.4717 50.0681 33.6939L50.3493 35.9603C50.3743 36.1794 50.5583 36.3484 50.78 36.3579L52.6473 36.4299C52.8159 36.4391 52.969 36.5364 53.0376 36.6899C53.1939 37.0219 53.3748 37.3411 53.581 37.6509C53.6746 37.7885 53.6809 37.9702 53.5997 38.1173L52.7033 39.7607C52.5971 39.9547 52.647 40.1988 52.8219 40.3364L54.6206 41.7388C54.7955 41.8764 55.0422 41.8672 55.2045 41.7169L56.5784 40.4427C56.7033 40.3301 56.8782 40.2924 57.0341 40.3488C57.3839 40.4741 57.7366 40.5742 58.0959 40.643C58.2613 40.6744 58.3926 40.7965 58.4425 40.9592L58.9672 42.7591C59.0295 42.9719 59.2389 43.1095 59.4575 43.0816L61.7182 42.8C61.9399 42.775 62.1085 42.5905 62.1148 42.3682L62.1898 40.4931C62.1961 40.3241 62.2929 40.1738 62.446 40.1018C62.7771 39.9452 63.0956 39.767 63.4046 39.5571C63.5419 39.4633 63.7231 39.4569 63.8699 39.5384L65.5123 40.4366C65.7059 40.5432 65.9494 40.4931 66.087 40.3177L67.4891 38.5178C67.6235 38.3424 67.614 38.0951 67.4641 37.9325L66.1901 36.552C66.0778 36.4299 66.0402 36.2546 66.0965 36.0951C66.2246 35.7476 66.3214 35.3909 66.39 35.0307C66.4213 34.868 66.5462 34.7333 66.7053 34.6864L68.5008 34.1572C68.7162 34.0947 68.8506 33.888 68.8257 33.6657L68.5445 31.4ZM62.9925 36.4524C61.4655 38.4185 58.6396 38.7689 56.6786 37.2349C54.7209 35.7041 54.3711 32.8712 55.8981 30.9085C57.4251 28.9427 60.2542 28.5921 62.2119 30.1228C64.1729 31.6568 64.5224 34.4895 62.9925 36.4524Z" fill="white"/>
<path d="M61.018 31.6584C62.1322 32.5294 62.3299 34.1404 61.462 35.2562C60.5941 36.3719 58.9875 36.5723 57.8732 35.7013C56.7602 34.8313 56.5625 33.2203 57.4304 32.1046C58.2983 30.9888 59.905 30.7884 61.018 31.6584Z" fill="white"/>
<path d="M131.253 61.4932V98.19C131.253 99.2572 130.391 100.125 129.326 100.125H106.952C105.887 100.125 105.021 99.2575 105.021 98.19V61.4932C105.021 60.426 105.887 59.561 106.952 59.561H129.326C130.39 59.561 131.253 60.4257 131.253 61.4932Z" fill="url(#paint2_linear_113_5668)"/>
<path d="M129.013 61.4932V98.19C129.013 99.2572 128.151 100.125 127.086 100.125H104.712C103.647 100.125 102.782 99.2575 102.782 98.19V61.4932C102.782 60.426 103.647 59.561 104.712 59.561H127.086C128.151 59.561 129.013 60.4257 129.013 61.4932Z" fill="url(#paint3_linear_113_5668)"/>
<path d="M126.974 63.667V68.4381C126.974 68.8424 126.651 69.1715 126.254 69.1715H105.542C105.145 69.1715 104.822 68.8424 104.822 68.4381V63.667C104.822 63.2627 105.145 62.9336 105.542 62.9336H126.254C126.651 62.9336 126.974 63.2624 126.974 63.667Z" fill="white"/>
<path d="M108.593 64.5591H107.377V67.5452H108.593V64.5591Z" fill="#373A50"/>
<path d="M111.013 64.5591H109.797V67.5452H111.013V64.5591Z" fill="#373A50"/>
<path d="M119.607 65.082H117.603V67.0228H119.607V65.082Z" fill="#70D715"/>
<path d="M122.633 65.082H120.628V67.0228H122.633V65.082Z" fill="#FADF68"/>
<path d="M125.658 65.082H123.653V67.0228H125.658V65.082Z" fill="#FF4129"/>
<path d="M126.974 72.8598V77.631C126.974 78.0353 126.651 78.3644 126.254 78.3644H105.542C105.145 78.3644 104.822 78.0353 104.822 77.631V72.8598C104.822 72.4556 105.145 72.1265 105.542 72.1265H126.254C126.651 72.1265 126.974 72.4556 126.974 72.8598Z" fill="white"/>
<path d="M108.593 73.7524H107.377V76.7386H108.593V73.7524Z" fill="#373A50"/>
<path d="M111.013 73.7524H109.797V76.7386H111.013V73.7524Z" fill="#373A50"/>
<path d="M119.607 74.2749H117.603V76.2157H119.607V74.2749Z" fill="#70D715"/>
<path d="M122.633 74.2749H120.628V76.2157H122.633V74.2749Z" fill="#FADF68"/>
<path d="M125.658 74.2749H123.653V76.2157H125.658V74.2749Z" fill="#FF4129"/>
<path d="M126.974 82.0534V86.8246C126.974 87.2289 126.651 87.558 126.254 87.558H105.542C105.145 87.558 104.822 87.2289 104.822 86.8246V82.0534C104.822 81.6492 105.145 81.3201 105.542 81.3201H126.254C126.651 81.3201 126.974 81.6492 126.974 82.0534Z" fill="white"/>
<path d="M108.593 82.946H107.377V85.9322H108.593V82.946Z" fill="#373A50"/>
<path d="M111.013 82.946H109.797V85.9322H111.013V82.946Z" fill="#373A50"/>
<path d="M119.607 83.4685H117.603V85.4093H119.607V83.4685Z" fill="#70D715"/>
<path d="M122.633 83.4685H120.628V85.4093H122.633V83.4685Z" fill="#FADF68"/>
<path d="M125.658 83.4685H123.653V85.4093H125.658V83.4685Z" fill="#FF4129"/>
<path d="M126.974 91.2466V96.0177C126.974 96.422 126.651 96.7511 126.254 96.7511H105.542C105.145 96.7511 104.822 96.422 104.822 96.0177V91.2466C104.822 90.8423 105.145 90.5132 105.542 90.5132H126.254C126.651 90.5135 126.974 90.8423 126.974 91.2466Z" fill="white"/>
<path d="M108.593 92.1392H107.377V95.1253H108.593V92.1392Z" fill="#373A50"/>
<path d="M111.013 92.1392H109.797V95.1253H111.013V92.1392Z" fill="#373A50"/>
<path d="M119.607 92.6616H117.603V94.6024H119.607V92.6616Z" fill="#70D715"/>
<path d="M122.633 92.6616H120.628V94.6024H122.633V92.6616Z" fill="#FADF68"/>
<path d="M125.658 92.6616H123.653V94.6024H125.658V92.6616Z" fill="#FF4129"/>
<path d="M74.6028 28.16C74.5744 28.0988 74.5061 28.0678 74.4412 28.0862L73.8963 28.2406C73.8473 28.2539 73.7948 28.2399 73.76 28.2028C73.6844 28.1217 73.6021 28.0462 73.5142 27.9771C73.4741 27.946 73.4557 27.8947 73.4649 27.8449L73.5696 27.2872C73.5816 27.2212 73.5446 27.1556 73.4816 27.1327L72.8333 26.8968C72.77 26.874 72.6998 26.9003 72.6672 26.959L72.3908 27.4536C72.3661 27.4977 72.319 27.5256 72.2681 27.5237C72.1561 27.5202 72.0448 27.5253 71.935 27.5389C71.8847 27.5452 71.8354 27.5221 71.8063 27.4802L71.4872 27.0116C71.4492 26.9558 71.3768 26.9358 71.3161 26.9644L70.6911 27.257C70.6304 27.2856 70.5991 27.3541 70.6174 27.4191L70.7714 27.9657C70.785 28.0145 70.7711 28.0675 70.7338 28.102C70.6528 28.1778 70.5776 28.2599 70.5086 28.349C70.4773 28.389 70.4261 28.4077 70.3761 28.3985L69.8191 28.2932C69.7533 28.2805 69.6879 28.3183 69.6651 28.381L69.4298 29.031C69.407 29.0941 69.4333 29.1648 69.4918 29.1975L69.9864 29.4749C70.0304 29.4996 70.0579 29.5469 70.0563 29.5979C70.0522 29.7105 70.0573 29.8221 70.0709 29.9321C70.0775 29.9825 70.0541 30.032 70.0124 30.0608L69.5443 30.3811C69.4889 30.4191 69.4687 30.4917 69.4972 30.5526L69.7891 31.1791C69.8175 31.2403 69.8859 31.2714 69.9507 31.253L70.4953 31.0986C70.5444 31.0853 70.5969 31.0992 70.6316 31.1363C70.7072 31.2175 70.7892 31.293 70.8774 31.3621C70.9172 31.3935 70.9359 31.4448 70.9267 31.4946L70.8224 32.052C70.81 32.118 70.8467 32.1833 70.91 32.2064L71.5583 32.4423C71.6216 32.4655 71.6918 32.4391 71.7247 32.3805L72.0011 31.8852C72.0261 31.8412 72.0729 31.8136 72.1238 31.8155C72.2358 31.819 72.3471 31.8139 72.4569 31.8003C72.5072 31.7942 72.5565 31.8171 72.5856 31.8589L72.9047 32.3275C72.9427 32.383 73.0151 32.403 73.0759 32.3748L73.7008 32.0818C73.7619 32.0533 73.7929 31.9848 73.7745 31.9201L73.6208 31.3735C73.6069 31.3247 73.6211 31.2714 73.6581 31.2368C73.7391 31.1611 73.814 31.0793 73.8833 30.9905C73.9143 30.9502 73.9655 30.9318 74.0155 30.941L74.5725 31.0463C74.6383 31.0586 74.7037 31.0212 74.7265 30.9585L74.9618 30.3085C74.9846 30.2454 74.9583 30.1747 74.8998 30.142L74.4052 29.8646C74.3612 29.8398 74.3337 29.7926 74.3356 29.7419C74.3394 29.6293 74.334 29.518 74.3204 29.408C74.3144 29.3576 74.3372 29.3078 74.3792 29.2793L74.847 28.9587C74.9024 28.9207 74.9223 28.8481 74.8941 28.7872L74.6028 28.16ZM73.2871 30.0662C73.0686 30.6699 72.4031 30.9822 71.8 30.7628C71.1981 30.5437 70.8872 29.8763 71.1057 29.2726C71.3243 28.6689 71.9901 28.3566 72.5919 28.5757C73.1951 28.7951 73.5057 29.4625 73.2871 30.0662Z" fill="white"/>
<path d="M50.5587 38.0428C50.5302 37.9817 50.4619 37.9506 50.397 37.969L49.8521 38.1234C49.8031 38.1367 49.7506 38.1227 49.7158 38.0856C49.6402 38.0045 49.558 37.929 49.47 37.8599C49.4299 37.8288 49.4115 37.7775 49.4207 37.7277L49.5254 37.17C49.5374 37.104 49.5004 37.0384 49.4374 37.0156L48.7891 36.7797C48.7258 36.7568 48.6556 36.7831 48.623 36.8418L48.3466 37.3364C48.3219 37.3805 48.2748 37.4084 48.2239 37.4065C48.1119 37.403 48.0006 37.4081 47.8908 37.4217C47.8406 37.4281 47.7912 37.4049 47.7621 37.3631L47.443 36.8944C47.405 36.8386 47.3326 36.8187 47.2719 36.8472L46.6469 37.1398C46.5862 37.1684 46.5549 37.2369 46.5732 37.3019L46.7273 37.8485C46.7409 37.8973 46.7269 37.9503 46.6896 37.9848C46.6086 38.0606 46.5334 38.1427 46.4644 38.2318C46.4331 38.2718 46.3819 38.2905 46.3319 38.2813L45.7749 38.176C45.7092 38.1633 45.6437 38.2011 45.6209 38.2638L45.3856 38.9138C45.3628 38.9769 45.3891 39.0476 45.4476 39.0803L45.9422 39.3577C45.9862 39.3824 46.0137 39.4297 46.0121 39.4807C46.008 39.5933 46.0131 39.7049 46.0267 39.8149C46.0333 39.8653 46.0099 39.9148 45.9682 39.9437L45.5001 40.2639C45.4447 40.3019 45.4245 40.3745 45.453 40.4354L45.7449 41.0619C45.7734 41.1231 45.8417 41.1542 45.9065 41.1358L46.4511 40.9814C46.5002 40.9681 46.5527 40.982 46.5875 41.0191C46.663 41.1003 46.745 41.1758 46.8332 41.2449C46.8731 41.2763 46.8917 41.3276 46.8825 41.3774L46.7782 41.9348C46.7658 42.0008 46.8025 42.0661 46.8658 42.0892L47.5142 42.3251C47.5774 42.3483 47.6476 42.322 47.6805 42.2633L47.9569 41.768C47.9819 41.724 48.0287 41.6964 48.0797 41.6983C48.1916 41.7018 48.303 41.6967 48.4127 41.6831C48.463 41.677 48.5123 41.6999 48.5414 41.7417L48.8606 42.2103C48.8985 42.2658 48.9709 42.2858 49.0317 42.2576L49.6566 41.9646C49.7177 41.9361 49.7487 41.8676 49.7303 41.8029L49.5766 41.2563C49.5627 41.2075 49.5769 41.1542 49.6139 41.1196C49.6949 41.0439 49.7699 40.9621 49.8391 40.873C49.8701 40.8327 49.9214 40.8143 49.9713 40.8235L50.5283 40.9288C50.5941 40.9411 50.6595 40.9037 50.6823 40.8409L50.9176 40.191C50.9404 40.1279 50.9142 40.0572 50.8556 40.0245L50.361 39.7471C50.317 39.7223 50.2895 39.6751 50.2914 39.6244C50.2952 39.5118 50.2898 39.4005 50.2762 39.2905C50.2702 39.2401 50.293 39.1903 50.335 39.1618L50.8028 38.8412C50.8582 38.8032 50.8781 38.7306 50.85 38.6697L50.5587 38.0428ZM49.2429 39.949C49.0244 40.5527 48.3589 40.865 47.7558 40.6456C47.1539 40.4265 46.843 39.7591 47.0616 39.1554C47.2801 38.5517 47.9459 38.2394 48.5478 38.4585C49.1509 38.6779 49.4615 39.3453 49.2429 39.949Z" fill="white"/>
<path d="M123.475 38.556C126.595 38.556 129.124 36.0207 129.124 32.8932C129.124 29.7658 126.595 27.2305 123.475 27.2305C120.355 27.2305 117.826 29.7658 117.826 32.8932C117.826 36.0207 120.355 38.556 123.475 38.556Z" fill="#F93E5E"/>
<path d="M123.475 36.9852C121.225 36.9852 119.394 35.1497 119.394 32.8935C119.394 30.6372 121.225 28.8018 123.475 28.8018C125.726 28.8018 127.557 30.6372 127.557 32.8935C127.557 35.1497 125.726 36.9852 123.475 36.9852ZM123.475 29.1933C121.44 29.1933 119.784 30.8532 119.784 32.8935C119.784 34.9338 121.44 36.5936 123.475 36.5936C125.51 36.5936 127.166 34.9338 127.166 32.8935C127.166 30.8532 125.51 29.1933 123.475 29.1933Z" fill="white"/>
<path d="M123.476 31.1976C122.465 31.1976 121.494 30.8244 120.742 30.1468L121.003 29.8555C121.683 30.4684 122.562 30.8057 123.476 30.8057C124.389 30.8057 125.268 30.468 125.949 29.8555L126.21 30.1468C125.457 30.8244 124.486 31.1976 123.476 31.1976Z" fill="white"/>
<path d="M121.005 35.9326L120.743 35.6415C121.495 34.9627 122.466 34.5889 123.476 34.5889C124.486 34.5889 125.456 34.9627 126.208 35.6415L125.947 35.9326C125.267 35.3188 124.389 34.9804 123.476 34.9804C122.562 34.9804 121.685 35.3188 121.005 35.9326Z" fill="white"/>
<path d="M123.475 36.9852C122.163 36.9852 121.135 35.1878 121.135 32.8935C121.135 30.5989 122.163 28.8018 123.475 28.8018C124.787 28.8018 125.815 30.5992 125.815 32.8935C125.815 35.1878 124.787 36.9852 123.475 36.9852ZM123.475 29.1933C122.418 29.1933 121.525 30.8877 121.525 32.8935C121.525 34.8992 122.418 36.5936 123.475 36.5936C124.532 36.5936 125.424 34.8992 125.424 32.8935C125.424 30.8877 124.532 29.1933 123.475 29.1933Z" fill="white"/>
<path d="M123.672 28.9971H123.28V36.7889H123.672V28.9971Z" fill="white"/>
<path d="M127.361 32.6973H119.589V33.0888H127.361V32.6973Z" fill="white"/>
<path d="M45.1111 75.0956C48.2309 75.0956 50.7599 72.5603 50.7599 69.4328C50.7599 66.3053 48.2309 63.77 45.1111 63.77C41.9914 63.77 39.4624 66.3053 39.4624 69.4328C39.4624 72.5603 41.9914 75.0956 45.1111 75.0956Z" fill="url(#paint4_linear_113_5668)"/>
<path d="M48.7117 68.617C46.7261 66.6265 43.4963 66.6271 41.511 68.617C41.4104 68.7178 41.2475 68.7178 41.147 68.617C41.0464 68.5162 41.0464 68.3529 41.147 68.2521C42.2043 67.1921 43.6124 66.6084 45.1112 66.6084C46.6104 66.6084 48.0181 67.1921 49.0758 68.2521C49.1763 68.3529 49.1763 68.5162 49.0758 68.617C48.9749 68.7178 48.812 68.7178 48.7117 68.617Z" fill="white"/>
<path d="M47.7411 69.5904C46.2919 68.1376 43.9322 68.137 42.4817 69.5904C42.3811 69.6912 42.2182 69.6912 42.1177 69.5904C42.0171 69.4895 42.0171 69.3263 42.1177 69.2254C43.7686 67.5697 46.4542 67.5704 48.1051 69.2254C48.2057 69.3263 48.2057 69.4895 48.1051 69.5904C48.0046 69.6912 47.8417 69.6912 47.7411 69.5904Z" fill="white"/>
<path d="M46.7701 70.5634C45.8861 69.6772 44.3367 69.6766 43.4527 70.5634C43.3521 70.6643 43.1892 70.6643 43.0886 70.5634C42.988 70.4626 42.988 70.2993 43.0886 70.1985C43.6279 69.6576 44.3465 69.3599 45.1112 69.3599C45.8763 69.3599 46.5949 69.6576 47.1341 70.1985C47.2347 70.2993 47.2347 70.4626 47.1341 70.5634C47.0336 70.6643 46.8707 70.6639 46.7701 70.5634Z" fill="white"/>
<path d="M45.1113 72.49C45.5841 72.49 45.9675 72.1058 45.9675 71.6317C45.9675 71.1577 45.5841 70.7734 45.1113 70.7734C44.6384 70.7734 44.2551 71.1577 44.2551 71.6317C44.2551 72.1058 44.6384 72.49 45.1113 72.49Z" fill="white"/>
<path d="M73.8938 69.3051H96.206C96.6751 69.3051 97.0613 68.9348 97.0818 68.4652L97.8567 50.9486C97.876 50.5111 97.5284 50.1455 97.09 50.1455H74.5599C74.1497 50.1455 73.8125 50.4702 73.7932 50.8814L73.0177 68.3872C72.9956 68.8875 73.3944 69.3051 73.8938 69.3051Z" fill="url(#paint5_linear_113_5668)"/>
<path d="M96.7205 51.5649H74.5588V67.3839H96.7205V51.5649Z" fill="#F8FAFB"/>
<path d="M70.4884 55.0645L71.8386 68.5071C71.8803 68.9592 72.2586 69.3052 72.7115 69.3052H96.0839C96.6 69.3052 97.0042 68.8606 96.9568 68.3454L95.8093 57.0928C95.7726 56.6964 95.4399 56.3936 95.0427 56.3936H80.6131C80.2162 56.3936 79.8844 56.0905 79.848 55.6945L79.7768 54.9237C79.7402 54.5274 79.4087 54.2246 79.0118 54.2246H71.2531C70.8015 54.2243 70.4472 54.614 70.4884 55.0645Z" fill="url(#paint6_linear_113_5668)"/>
<path d="M87.5867 66.3956H79.8582V63.51H80.9847V65.2662H86.4602V63.51H87.5867V66.3956Z" fill="#F8FAFB"/>
<path d="M85.3908 62.1314L83.8499 64.2589C83.787 64.3448 83.6608 64.3448 83.5975 64.2589L82.0544 62.1291C81.9801 62.0274 82.0522 61.8828 82.1806 61.8828H83.0298V59.1094C83.0298 58.9829 83.1335 58.8789 83.2597 58.8789H84.1858C84.312 58.8789 84.4157 58.9829 84.4157 59.1094V61.885H85.2675C85.393 61.8853 85.4651 62.0299 85.3908 62.1314Z" fill="#F8FAFB"/>
<path d="M2.29774 112.398L1.55575 115.505C1.42829 116.161 1.91505 116.775 2.58113 116.798C5.31631 116.89 10.6924 116.799 11.6852 116.79C11.7643 116.789 11.8275 116.727 11.831 116.647C11.8753 115.696 11.2453 115.092 10.3173 114.625L6.73925 112.209C6.73261 112.205 6.72502 112.203 6.71711 112.204L2.29774 112.398Z" fill="#373A50"/>
<path d="M2.29736 112.398C2.33753 113.319 6.75753 113.125 6.71736 112.204L6.80465 108.565L2.66583 108.436L2.29736 112.398Z" fill="#FFDAD9"/>
<path d="M15.5209 112.398L14.7789 115.505C14.6514 116.161 15.1382 116.775 15.8043 116.798C18.5395 116.89 23.9156 116.799 24.9084 116.79C24.9874 116.789 25.0507 116.727 25.0542 116.647C25.0984 115.696 24.4684 115.092 23.5405 114.625L19.9624 112.209C19.9557 112.205 19.9482 112.203 19.9403 112.204L15.5209 112.398Z" fill="#373A50"/>
<path d="M15.52 112.398C15.5602 113.319 19.9802 113.125 19.94 112.204L20.0273 108.565L15.8885 108.436L15.52 112.398Z" fill="#FFDAD9"/>
<path d="M21.6779 71.4536L20.5444 111.026C20.5444 111.357 14.7783 111.357 14.7783 111.026L13.0043 79.0124L7.28407 111.027C7.28407 111.357 1.69067 111.357 1.69067 111.027L4.77439 71.4539H21.6779V71.4536Z" fill="#373A50"/>
<path d="M17.2192 53.1109L18.003 53.706L19.8352 55.0992L23.7026 54.291L24.7881 54.0627C24.3801 52.2954 21.0962 46.9434 21.0962 46.9434L17.2192 53.1109Z" fill="#F93E5E"/>
<path d="M18.0028 53.7055L19.835 55.0987L23.7025 54.2905C23.6455 54.1913 23.5886 54.0898 23.5342 53.9906C23.1063 53.2147 23.1917 52.3057 22.8751 51.4753C22.5832 50.7118 22.0233 49.9448 21.6868 49.2112C21.2194 48.1823 20.8088 49.474 20.5419 49.935C20.1437 50.6192 19.612 51.2217 18.9839 51.7001C18.5414 52.0372 18.0145 52.3644 17.8883 52.905C17.8247 53.1751 17.8791 53.4551 18.0028 53.7055Z" fill="#C70000"/>
<path d="M4.16772 72.0796C4.16772 72.6002 5.68586 72.9769 7.84225 73.2099C13.1513 73.7775 22.3351 73.4579 22.3351 72.1785C22.3721 70.8522 22.6466 49.4469 21.0962 46.943C18.0422 42.0076 6.88519 43.423 4.08106 46.4199C3.38873 47.1586 3.11673 49.8159 3.0772 53.1673C2.99338 60.0964 3.90585 69.9971 4.16772 72.0796Z" fill="#F93E5E"/>
<path d="M4.16772 72.0795C4.16772 72.6001 5.68586 72.9768 7.84225 73.2099C6.80106 71.5167 6.47719 69.4346 6.51673 67.4313C6.56132 65.2252 7.0038 63.046 7.19926 60.8472C7.51585 57.3246 7.20432 53.7798 6.89025 50.2598L6.88772 51.0233C6.30419 51.2116 5.71812 51.3999 5.16432 51.6653C4.38533 52.0372 3.68793 52.5553 3.0772 53.1676C2.99338 60.0964 3.90585 69.997 4.16772 72.0795Z" fill="#C70000"/>
<path d="M10.5837 38.229L10.6166 43.9083C10.6166 43.9083 13.3777 47.5184 14.5799 46.9578C15.7657 46.4048 14.584 44.1457 14.584 44.1457L14.5094 42.615L14.4057 40.5131L12.5526 39.4059L10.5837 38.229Z" fill="#FFDAD9"/>
<path d="M12.5196 40.5128C12.9949 41.4985 14.5317 42.9741 14.5317 42.9741L14.428 40.8723L12.5749 39.7651C12.4326 39.9709 12.3794 40.223 12.5196 40.5128Z" fill="#FECDCB"/>
<path d="M17.6382 42.2425C15.4967 43.3909 10.7035 39.7628 10.2379 39.4096C10.2136 39.3855 10.2016 39.3769 10.2016 39.3769C10.2016 39.3769 8.33298 39.05 8.4421 37.4793C8.59992 35.2877 10.1408 36.7551 10.1408 36.7551L8.9181 32.8187L10.5333 30.4648L18.0592 31.3498C18.0592 31.3498 18.3872 33.0908 18.5937 35.1891C18.8771 38.0379 18.9337 41.5485 17.6382 42.2425Z" fill="#FFDAD9"/>
<path d="M19.2845 34.5062C18.997 34.5874 12.3153 33.9954 11.8415 34.0604C11.2909 34.1375 11.0919 36.999 10.7399 37.1819C10.3876 37.3645 10.1409 36.7558 10.1409 36.7558C10.1409 36.7558 8.59996 35.2884 8.44214 37.48C8.3327 39.0507 10.195 39.3763 10.195 39.3763C10.195 39.3763 10.6156 39.6839 10.64 39.708L10.6112 42.1525C6.57925 39.2508 5.42009 34.3451 7.25388 31.5854C9.08766 28.8298 12.1806 28.7772 14.5245 29.0001C16.8684 29.2233 17.7613 27.5213 19.5426 28.39C21.3242 29.2547 21.3413 33.9298 19.2845 34.5062Z" fill="#111228"/>
<path d="M17.7833 36.2608C17.7184 35.998 17.5132 35.8201 17.3225 35.8689C17.1343 35.9146 17.0343 36.1651 17.102 36.4276" fill="url(#paint7_linear_113_5668)"/>
<path d="M15.0486 36.542C14.9838 36.2791 14.7756 36.1016 14.5878 36.1501C14.3996 36.1957 14.2997 36.4462 14.3645 36.7091" fill="url(#paint8_linear_113_5668)"/>
<path d="M17.7823 36.26C17.7187 35.9978 17.5128 35.8215 17.3231 35.8684C17.1355 35.9153 17.035 36.1645 17.1007 36.4287" fill="url(#paint9_linear_113_5668)"/>
<path d="M15.0482 36.5412C14.9824 36.2793 14.7765 36.1027 14.589 36.1496C14.3989 36.1966 14.2986 36.4458 14.3644 36.7102" fill="url(#paint10_linear_113_5668)"/>
<path d="M14.3643 36.7102C14.4304 36.9746 14.6338 37.1487 14.8235 37.1018C15.0114 37.0571 15.1117 36.8057 15.0481 36.5412C14.9823 36.2793 14.7764 36.1027 14.5889 36.1496C14.3988 36.1969 14.2982 36.4461 14.3643 36.7102Z" fill="#111228"/>
<path d="M17.1007 36.4287C17.1646 36.6931 17.3702 36.8672 17.5578 36.8205C17.7478 36.7758 17.8481 36.5241 17.7823 36.26C17.7187 35.9978 17.5128 35.8215 17.3231 35.8684C17.1355 35.9153 17.035 36.1645 17.1007 36.4287Z" fill="#111228"/>
<path d="M17.8006 35.6343C17.5963 35.5823 17.4255 35.5078 17.2832 35.5417C17.2152 35.5532 17.1472 35.5941 17.0795 35.6489C17.0194 35.7155 16.9508 35.7824 16.8647 35.8464C16.8831 35.7453 16.9119 35.6419 16.9618 35.5471C17.0204 35.4542 17.1187 35.3727 17.2443 35.3461C17.3683 35.3239 17.4872 35.3547 17.5802 35.4121C17.6751 35.4675 17.7427 35.5471 17.8006 35.6343Z" fill="#111228"/>
<path d="M14.8526 35.8573C14.6483 35.8053 14.4775 35.7308 14.3352 35.7647C14.2672 35.7761 14.1992 35.817 14.1315 35.8719C14.0714 35.9385 14.0028 36.0054 13.9167 36.0694C13.9351 35.9683 13.9639 35.8649 14.0138 35.7701C14.0724 35.6772 14.1707 35.5957 14.2963 35.5688C14.4203 35.5466 14.5392 35.5773 14.6322 35.635C14.7271 35.6908 14.7947 35.7704 14.8526 35.8573Z" fill="#111228"/>
<path d="M16.1235 36.23C16.1934 36.4881 16.2506 36.7481 16.2952 37.0093C16.3458 37.27 16.3651 37.5363 16.4533 37.7617C16.496 37.8771 16.5546 37.9707 16.6428 38.062C16.7247 38.1558 16.8433 38.2624 16.8794 38.425C16.9142 38.5845 16.8601 38.7354 16.7807 38.8512C16.6959 38.965 16.5935 39.0525 16.4847 39.1302C16.6475 38.9263 16.8028 38.678 16.7295 38.4659C16.6937 38.3679 16.6064 38.2865 16.5071 38.1932C16.4062 38.0991 16.318 37.9659 16.2677 37.8334C16.1677 37.5607 16.1614 37.2896 16.1415 37.0277C16.1228 36.7636 16.1168 36.4976 16.1235 36.23Z" fill="#111228"/>
<path d="M15.9996 39.9508C16.0511 40.4552 16.449 40.8278 16.8867 40.7831C17.3219 40.7384 17.6363 40.2926 17.5845 39.7881C17.5835 39.7789 17.5807 39.7726 17.5797 39.7656C17.1461 39.9159 16.6201 39.9701 15.9993 39.928C16.0002 39.9346 15.9986 39.9416 15.9996 39.9508Z" fill="white"/>
<path d="M0.473394 54.5496C0.473394 54.5496 -0.782866 62.4397 0.797579 63.9676C3.12286 66.2153 12.4771 61.5335 12.4771 61.5335L12.2311 58.7548L5.50381 59.3943L6.11012 54.7807L0.473394 54.5496Z" fill="#FFDAD9"/>
<path d="M12.2312 58.7546C12.2312 58.7546 16.9419 57.7045 17.3616 58.4331C17.7813 59.162 16.655 59.1592 16.655 59.1592C16.655 59.1592 19.6938 60.1865 18.9164 61.125C18.139 62.0638 12.4776 61.5334 12.4776 61.5334L12.2312 58.7546Z" fill="#FFDAD9"/>
<path d="M17.219 61.9574H31.4819C32.0952 61.9574 32.6243 61.5258 32.7454 60.9234L34.5084 52.1455C34.6691 51.3471 34.0583 50.6011 33.2448 50.6011H20.5573C19.9441 50.6011 19.4174 51.0323 19.2963 51.6347L17.4467 60.8166L17.219 61.9574Z" fill="#373A50"/>
<path d="M11.2017 61.9588H17.2186L17.4475 60.8184H12.3393C11.7115 60.8184 11.2017 61.3295 11.2017 61.9588Z" fill="#111228"/>
<path d="M29.9995 61.7339C29.9995 62.9111 33.4947 62.9111 33.4947 61.7339C33.4947 60.5512 32.7119 59.5972 31.747 59.5972C30.7823 59.5972 29.9995 60.5512 29.9995 61.7339Z" fill="#FFDAD9"/>
<path d="M0.378292 55.214C0.306181 55.7508 6.68363 56.6132 6.75574 56.0761C6.75574 56.0761 8.41241 43.6027 4.59239 45.9249C1.19651 47.9893 0.378292 55.214 0.378292 55.214Z" fill="#F93E5E"/>
<path d="M26.5759 57.4432C27.0706 57.4432 27.5576 56.7961 27.6639 55.9955C27.7702 55.1974 27.4536 54.5503 26.9592 54.5503C26.4646 54.5503 25.9775 55.1974 25.8712 55.9955C25.7647 56.7961 26.0812 57.4432 26.5759 57.4432Z" fill="#111228"/>
<path d="M27.3498 86.8713C26.9164 87.9122 30.3671 90.6805 31.6116 91.6371C30.8984 91.1529 29.5305 90.4408 29.1661 91.8077C28.6664 93.6815 35.2368 97.465 35.2368 97.465C35.2368 97.465 36.2479 92.0188 35.4579 89.1209C35.0742 87.709 34.0372 89.2734 34.0372 89.2734C34.0372 89.2734 34.1953 84.3386 32.9836 83.5722C31.7723 82.8075 31.4563 85.526 31.4563 85.526C31.4563 85.526 28.5608 79.9561 27.0335 80.881C25.527 81.7922 30.0672 86.7359 30.1893 86.8703C30.0963 86.8199 27.8659 85.6297 27.3498 86.8713Z" fill="#70D715"/>
<path d="M27.8931 81.8979C32.2457 88.5877 33.7354 92.8792 33.9463 93.3405C34.1867 94.0184 34.4527 94.689 34.6529 95.3811C34.8945 96.0622 35.0416 96.7676 35.2371 97.4652C34.3812 92.1036 31.0679 85.9672 27.8931 81.8979Z" fill="#30BB93"/>
<path d="M28.802 87.7339C29.0879 87.9127 31.1532 89.3322 32.6388 89.9499C31.782 89.1819 29.8935 87.9999 28.802 87.7339Z" fill="#30BB93"/>
<path d="M32.6392 89.9494C32.9419 88.7354 33.1354 86.3492 32.8389 85.2153C32.7971 85.9179 32.5304 88.3752 32.6392 89.9494Z" fill="#30BB93"/>
<path d="M30.3242 91.9952C31.7181 92.8531 34.0057 94.8931 34.9052 95.675C34.7578 93.8313 34.6496 92.0931 34.9672 90.0312C34.4751 91.6007 34.4346 93.6899 34.5696 95.3227L34.8189 95.1956C33.716 94.2184 31.6833 92.5709 30.3242 91.9952Z" fill="#30BB93"/>
<path d="M43.8289 85.3629C44.3109 86.5202 40.4741 89.5983 39.0904 90.6617C39.8836 90.1234 41.4043 89.3316 41.8094 90.8513C42.3648 92.9345 35.0597 97.1413 35.0597 97.1413C35.0597 97.1413 33.9354 91.086 34.8137 87.864C35.2403 86.2939 36.3932 88.0333 36.3932 88.0333C36.3932 88.0333 36.2173 82.5468 37.5643 81.6945C38.9114 80.8441 39.2624 83.8667 39.2624 83.8667C39.2624 83.8667 42.4815 77.6741 44.18 78.7021C45.8546 79.7151 40.8068 85.2117 40.6712 85.3611C40.7755 85.3059 43.2552 83.9824 43.8289 85.3629Z" fill="#70D715"/>
<path d="M43.2248 79.833C42.7868 80.5065 42.3503 81.1793 41.9385 81.8679C39.723 85.4584 36.8372 90.9223 35.7094 94.8241C35.4409 95.5813 35.277 96.3657 35.0601 97.1412C35.3134 95.5534 35.722 93.988 36.2499 92.4649C37.8749 87.9296 40.5756 83.2285 43.2248 79.833Z" fill="#30BB93"/>
<path d="M42.2145 86.3213C42.0222 86.4354 39.6358 88.0835 37.9485 88.7852C38.9394 87.8977 41.03 86.6105 42.2145 86.3213Z" fill="#30BB93"/>
<path d="M37.9485 88.7851C37.6126 87.435 37.3982 84.7825 37.7268 83.5215C37.7733 84.303 38.069 87.0349 37.9485 88.7851Z" fill="#30BB93"/>
<path d="M40.5219 91.0591C40.0858 91.3274 39.6711 91.6225 39.2685 91.9355C38.048 92.8534 36.3521 94.336 35.4286 95.1505C35.6035 92.9631 35.6949 91.0528 35.3596 88.8755C35.9068 90.6206 35.9517 92.9431 35.8018 94.7589L35.5247 94.6178C36.588 93.6759 37.9582 92.5753 39.1739 91.7991C39.611 91.5306 40.0494 91.2595 40.5219 91.0591Z" fill="#30BB93"/>
<path d="M38.488 95.8911L37.5692 102.44H32.3155L31.4001 95.8911H38.488Z" fill="#7444FD"/>
<path d="M36.8868 21.1322L37.1129 22.5393C37.1392 22.7236 36.9817 22.8872 36.7976 22.8555L35.1577 22.592C34.2168 23.1348 33.1234 23.4455 31.9617 23.4455C28.4188 23.4455 25.5435 20.5685 25.5435 17.0167C25.5435 13.465 28.4188 10.5825 31.9617 10.5825C35.5047 10.5825 38.3746 13.465 38.3746 17.0167C38.3743 18.5817 37.8119 20.0203 36.8868 21.1322Z" fill="url(#paint11_linear_113_5668)"/>
<path d="M35.765 15.3166V18.8849C35.765 19.4007 35.3446 19.8221 34.8259 19.8221H29.0921C28.5731 19.8221 28.1531 19.4007 28.1531 18.8849V15.3166C28.1531 14.8008 28.5734 14.3794 29.0921 14.3794H34.8259C35.3446 14.3794 35.765 14.8005 35.765 15.3166Z" fill="white"/>
<path d="M34.3212 18.8627C34.2542 18.8627 34.1897 18.838 34.1397 18.7933L32.4435 17.3281L32.0377 17.6785C31.982 17.7232 31.9197 17.746 31.8584 17.746C31.797 17.746 31.735 17.7232 31.6831 17.6817L31.2685 17.3253L29.5726 18.7873C29.5242 18.8307 29.4607 18.8548 29.3908 18.8548C29.3133 18.8548 29.2383 18.8215 29.1845 18.7632C29.0817 18.6376 29.0976 18.4629 29.2143 18.3675L30.8444 16.9587L29.2114 15.5503C29.0988 15.4527 29.0843 15.2793 29.1788 15.1635C29.2342 15.0992 29.3114 15.064 29.393 15.064C29.4591 15.064 29.523 15.0877 29.5726 15.1305L31.8584 17.1021L32.2401 16.7742C32.2562 16.7561 32.2727 16.7441 32.2841 16.7352L34.1416 15.1353C34.1916 15.0919 34.2561 15.0678 34.3225 15.0678C34.4022 15.0678 34.4778 15.1026 34.53 15.1632C34.5787 15.2196 34.603 15.2951 34.5964 15.3696C34.5901 15.4435 34.5556 15.5094 34.4993 15.5554L32.867 16.9641L34.5021 18.3754C34.5584 18.4239 34.592 18.4918 34.597 18.5669C34.6018 18.6408 34.578 18.7121 34.53 18.7679C34.4806 18.8272 34.4038 18.8627 34.3212 18.8627Z" fill="url(#paint12_linear_113_5668)"/>
<defs>
<linearGradient id="paint0_linear_113_5668" x1="53.0166" y1="32.7173" x2="67.2461" y2="31.4315" gradientUnits="userSpaceOnUse">
<stop stop-color="#909EFF"/>
<stop offset="1" stop-color="#6977E3"/>
</linearGradient>
<linearGradient id="paint1_linear_113_5668" x1="61.7521" y1="31.1035" x2="48.6542" y2="57.4841" gradientUnits="userSpaceOnUse">
<stop stop-color="#909EFF"/>
<stop offset="1" stop-color="#6977E3"/>
</linearGradient>
<linearGradient id="paint2_linear_113_5668" x1="107.454" y1="78.8797" x2="125.911" y2="80.5353" gradientUnits="userSpaceOnUse">
<stop stop-color="#909EFF"/>
<stop offset="1" stop-color="#6977E3"/>
</linearGradient>
<linearGradient id="paint3_linear_113_5668" x1="124.64" y1="69.5846" x2="101.603" y2="96.4822" gradientUnits="userSpaceOnUse">
<stop stop-color="#909EFF"/>
<stop offset="1" stop-color="#6977E3"/>
</linearGradient>
<linearGradient id="paint4_linear_113_5668" x1="44.5521" y1="66.9106" x2="46.4713" y2="75.5255" gradientUnits="userSpaceOnUse">
<stop stop-color="#909EFF"/>
<stop offset="1" stop-color="#6977E3"/>
</linearGradient>
<linearGradient id="paint5_linear_113_5668" x1="85.4373" y1="61.093" x2="85.4373" y2="58.4467" gradientUnits="userSpaceOnUse">
<stop stop-color="#FADF68"/>
<stop offset="1" stop-color="#EAC250"/>
</linearGradient>
<linearGradient id="paint6_linear_113_5668" x1="83.7228" y1="63.4687" x2="83.7228" y2="69.014" gradientUnits="userSpaceOnUse">
<stop stop-color="#FADF68"/>
<stop offset="1" stop-color="#EAC250"/>
</linearGradient>
<linearGradient id="paint7_linear_113_5668" x1="17.7834" y1="36.144" x2="17.081" y2="36.144" gradientUnits="userSpaceOnUse">
<stop offset="2.4e-07" stop-color="#15A0FF"/>
<stop offset="0.2298" stop-color="#19A4FF"/>
<stop offset="0.4796" stop-color="#26B0FF"/>
<stop offset="0.7389" stop-color="#3CC4FF"/>
<stop offset="1" stop-color="#5AE0FF"/>
</linearGradient>
<linearGradient id="paint8_linear_113_5668" x1="15.0487" y1="36.4256" x2="14.3449" y2="36.4256" gradientUnits="userSpaceOnUse">
<stop offset="2.4e-07" stop-color="#15A0FF"/>
<stop offset="0.2298" stop-color="#19A4FF"/>
<stop offset="0.4796" stop-color="#26B0FF"/>
<stop offset="0.7389" stop-color="#3CC4FF"/>
<stop offset="1" stop-color="#5AE0FF"/>
</linearGradient>
<linearGradient id="paint9_linear_113_5668" x1="17.7824" y1="36.1448" x2="17.0806" y2="36.1448" gradientUnits="userSpaceOnUse">
<stop offset="2.4e-07" stop-color="#15A0FF"/>
<stop offset="0.2298" stop-color="#19A4FF"/>
<stop offset="0.4796" stop-color="#26B0FF"/>
<stop offset="0.7389" stop-color="#3CC4FF"/>
<stop offset="1" stop-color="#5AE0FF"/>
</linearGradient>
<linearGradient id="paint10_linear_113_5668" x1="15.0482" y1="36.4263" x2="14.3441" y2="36.4263" gradientUnits="userSpaceOnUse">
<stop offset="2.4e-07" stop-color="#15A0FF"/>
<stop offset="0.2298" stop-color="#19A4FF"/>
<stop offset="0.4796" stop-color="#26B0FF"/>
<stop offset="0.7389" stop-color="#3CC4FF"/>
<stop offset="1" stop-color="#5AE0FF"/>
</linearGradient>
<linearGradient id="paint11_linear_113_5668" x1="30.3759" y1="14.0603" x2="34.1105" y2="20.9971" gradientUnits="userSpaceOnUse">
<stop stop-color="#D1DEFF"/>
<stop offset="1" stop-color="#B2C7FF"/>
</linearGradient>
<linearGradient id="paint12_linear_113_5668" x1="31.8852" y1="16.0466" x2="31.7974" y2="18.935" gradientUnits="userSpaceOnUse">
<stop stop-color="#D1DEFF"/>
<stop offset="1" stop-color="#B2C7FF"/>
</linearGradient>
</defs>
</svg>
