<svg width="150" height="120" viewBox="0 0 150 120" fill="none" xmlns="http://www.w3.org/2000/svg">
<path d="M145.131 95.2906C145.334 95.444 145.378 95.7369 145.228 95.9449C145.078 96.1529 144.791 96.1972 144.588 96.0438C144.384 95.8904 144.341 95.5974 144.491 95.3894C144.641 95.1814 144.928 95.1372 145.131 95.2906Z" fill="white"/>
<path d="M129.426 104.801C128.351 104.574 127.24 104.687 126.143 104.691C125.506 104.693 124.845 104.651 124.281 104.349C124.05 104.225 123.836 104.053 123.708 103.82C123.412 103.277 123.663 102.602 123.626 101.98C123.559 100.876 122.605 100.073 121.711 99.4509C120.817 98.8283 119.822 98.1291 119.597 97.0473C119.494 96.5521 119.64 95.9349 120.101 95.7515C120.455 95.611 120.93 95.7451 121.172 95.4465C121.27 95.3259 121.299 95.1632 121.32 95.0084C121.655 92.5677 121.067 89.9961 121.849 87.6649C122.026 87.1397 122.31 86.5974 122.811 86.3837C123.207 86.2153 123.676 86.2917 124.043 86.5172C124.41 86.7426 124.685 87.1012 124.884 87.489C125.343 88.3863 125.425 89.4388 125.358 90.4495C125.291 91.4603 125.086 92.4567 125.007 93.4664C124.992 93.6673 124.982 93.8749 125.05 94.064C125.208 94.505 125.743 94.7347 125.849 95.1921C126.958 95.2196 127.377 93.344 128.487 93.3251C128.622 93.323 128.768 93.3576 128.854 93.4639C128.91 93.5317 128.934 93.6202 128.952 93.7061C129.059 94.2131 129.018 94.7522 128.836 95.2363C128.637 95.7626 128.273 96.236 128.222 96.7979C128.205 96.9785 128.224 97.1676 128.31 97.326C128.486 97.6492 128.891 97.7634 129.252 97.7573C129.613 97.7512 129.974 97.6574 130.333 97.6974C130.904 97.7605 131.4 98.1622 131.708 98.6574C132.017 99.1526 132.162 99.7342 132.268 100.311C132.459 101.357 132.529 102.426 132.482 103.489C132.439 104.436 132.412 105.824 131.947 106.655C131.349 105.666 130.567 105.042 129.426 104.801Z" fill="#70D715"/>
<path d="M134.42 104.408C135.137 102.439 137.892 101.718 138.298 99.6589C138.386 99.2136 138.247 98.6242 137.81 98.5472C137.623 98.514 137.434 98.5896 137.244 98.5935C136.648 98.606 136.245 97.8903 136.326 97.286C136.407 96.6816 136.807 96.181 137.176 95.7019C138.113 94.4864 138.951 93.1909 139.678 91.8334C139.98 91.2697 140.223 90.4709 139.735 90.0667C139.574 89.9329 139.364 89.8808 139.161 89.8315C138.557 89.6845 137.897 89.494 137.553 88.9653C137.181 88.3945 137.309 87.6413 137.414 86.9638C137.615 85.6748 137.682 84.3679 137.699 83.0628C137.709 82.3161 137.673 81.4884 137.164 80.9522C136.481 80.2311 135.225 80.4366 134.519 81.1348C133.813 81.833 133.532 82.8598 133.343 83.8456C133.069 85.272 132.926 86.7237 132.899 88.1768C132.881 89.1191 132.904 90.1016 132.506 90.9511C132.45 91.0699 132.382 91.1901 132.272 91.2597C132.141 91.3428 131.977 91.3393 131.823 91.3328C131.493 91.3193 131.164 91.3057 130.835 91.2918C130.574 91.2811 130.301 91.2729 130.068 91.391C129.585 91.6354 129.481 92.2997 129.56 92.8452C129.809 94.5624 131.211 95.9663 131.309 97.6995C131.321 97.9067 131.311 98.1262 131.205 98.3038C131.008 98.636 130.569 98.7016 130.261 98.9285C129.884 99.2065 129.73 99.7234 129.776 100.196C129.821 100.669 130.036 101.107 130.276 101.514C131.017 102.771 132.014 103.837 132.85 105.025C133.091 105.368 133.402 106.274 133.932 106.05C134.412 105.846 134.263 104.84 134.42 104.408Z" fill="#70D715"/>
<path d="M140.209 103.979C140.539 103.988 140.872 104.027 141.197 103.97C141.509 103.915 141.799 103.774 142.077 103.622C142.506 103.387 142.93 103.109 143.204 102.698C143.479 102.288 143.57 101.715 143.314 101.292C143.045 100.848 142.46 100.651 142.265 100.167C142.104 99.7676 142.279 99.291 142.584 98.9934C142.89 98.6959 143.301 98.5425 143.706 98.4208C144.792 98.094 146.015 97.8792 146.736 96.9866C146.905 96.7775 147.041 96.5217 147.03 96.2506C147.005 95.6483 146.278 95.116 146.544 94.578C146.709 94.2441 147.146 94.1952 147.512 94.1749C148.005 94.1477 148.506 94.091 148.957 93.8855C149.409 93.68 149.808 93.3036 149.939 92.8166C150.001 92.5847 150.001 92.3403 150 92.0999C149.999 91.9828 149.995 91.8548 149.919 91.7674C149.866 91.7056 149.786 91.676 149.71 91.65C147.83 91.0089 145.726 91.0827 143.894 91.8548C143.421 92.0538 142.959 92.3032 142.599 92.6743C142.085 93.2041 141.822 93.9344 141.381 94.5291C140.939 95.1235 140.158 95.5945 139.496 95.2809C139 95.0457 138.761 94.4621 138.331 94.1156C138.022 93.8663 137.613 93.7503 137.222 93.8013C137.166 93.8085 137.108 93.8206 137.067 93.8595C137.022 93.9016 137.007 93.9665 136.996 94.0279C136.878 94.6447 136.887 95.2862 137.021 95.8995C137.159 96.5285 137.422 97.2067 137.146 97.7861C136.809 98.4943 135.872 98.6292 135.318 99.1772C134.815 99.6763 134.694 100.449 134.659 101.165C134.572 102.92 134.677 105.044 135.209 106.722C135.544 106.642 135.902 105.926 136.163 105.661C136.524 105.294 136.934 104.978 137.377 104.723C138.235 104.225 139.221 103.953 140.209 103.979Z" fill="#70D715"/>
<path d="M132.694 110.823C132.256 108.791 131.726 104.797 130.727 102.936C130.419 102.362 129.922 101.532 129.167 100.954C128.796 100.67 128.387 100.464 127.993 100.263L126.465 99.4882C126.042 99.2741 125.606 99.0525 125.249 98.7525C124.853 98.4189 124.538 97.9758 124.25 97.5505C123.551 96.5205 122.879 95.3942 122.688 94.138C122.52 93.0345 122.731 91.9331 122.955 90.7675C123.151 89.7507 123.353 88.699 123.283 87.6372L122.65 87.6811C122.714 88.6576 122.52 89.6665 122.333 90.6427C122.108 91.8122 121.876 93.0216 122.06 94.2382C122.272 95.6239 122.987 96.827 123.728 97.9208C124.042 98.3836 124.387 98.8677 124.846 99.2541C125.259 99.6016 125.728 99.8399 126.182 100.07L127.711 100.845C128.08 101.033 128.462 101.226 128.787 101.475C129.286 101.857 129.726 102.42 130.17 103.249C131.107 104.994 131.62 108.884 132.043 110.824H132.694V110.823Z" fill="#70D715"/>
<path d="M144.006 93.4285C142.597 94.6719 141.544 96.2681 140.525 97.8115L140.489 97.8657C140.155 98.372 139.809 98.8954 139.394 99.3406C139.221 99.5261 139.037 99.6978 138.842 99.8793C138.65 100.059 138.451 100.245 138.264 100.444C137.792 100.95 137.423 101.513 137.023 102.143C136.443 103.059 135.779 104.132 135.262 105.265C134.737 106.416 134.359 109.576 134.134 110.823H134.781C134.998 109.672 135.352 106.604 135.837 105.54C136.337 104.444 136.987 103.394 137.556 102.496C137.938 101.894 138.289 101.357 138.723 100.893C138.895 100.709 139.077 100.539 139.27 100.359C139.464 100.178 139.665 99.9903 139.853 99.7884C140.306 99.3035 140.666 98.7569 141.015 98.2286L141.051 98.1743C142.047 96.6659 143.076 95.1064 144.42 93.9194C145.909 92.6047 147.66 91.944 149.219 92.1067L149.283 91.4609C147.549 91.2808 145.626 91.9975 144.006 93.4285Z" fill="#70D715"/>
<path d="M134.047 110.823C133.048 105.386 133.36 98.6255 134.985 94.5643C135.044 94.4184 135.104 94.2728 135.164 94.1276C135.368 93.6356 135.579 93.1269 135.719 92.5913C135.985 91.5713 135.982 90.5217 135.978 89.5067L135.952 82.0298L135.317 82.0323L135.344 89.5092C135.347 90.4818 135.351 91.4875 135.106 92.424C134.977 92.9153 134.784 93.3812 134.58 93.8743C134.519 94.0224 134.457 94.1701 134.398 94.3188C132.738 98.4678 132.405 105.31 133.401 110.823H134.047V110.823Z" fill="#57AD69"/>
<g opacity="0.3">
<path d="M141.398 103.183C141.592 103.017 141.617 102.722 141.455 102.524C141.292 102.326 141.003 102.3 140.81 102.467C140.616 102.633 140.591 102.928 140.754 103.126C140.916 103.324 141.205 103.35 141.398 103.183Z" fill="white"/>
</g>
<g opacity="0.3">
<path d="M138.801 95.964C139.004 96.1174 139.047 96.4103 138.897 96.6183C138.747 96.8263 138.461 96.8705 138.258 96.7171C138.054 96.5637 138.011 96.2708 138.161 96.0628C138.311 95.8548 138.597 95.8105 138.801 95.964Z" fill="white"/>
</g>
<g opacity="0.3">
<path d="M137.935 91.7621C137.941 91.5036 137.742 91.2888 137.489 91.2821C137.236 91.2755 137.026 91.4797 137.02 91.7381C137.013 91.9965 137.213 92.2114 137.466 92.218C137.718 92.2247 137.928 92.0205 137.935 91.7621Z" fill="white"/>
</g>
<g opacity="0.3">
<path d="M135.66 98.4062C135.745 98.1628 135.621 97.8949 135.383 97.8078C135.145 97.7208 134.883 97.8476 134.798 98.091C134.713 98.3344 134.836 98.6023 135.075 98.6893C135.313 98.7764 135.574 98.6496 135.66 98.4062Z" fill="white"/>
</g>
<g opacity="0.3">
<path d="M131.752 93.1933C131.837 92.9499 131.713 92.682 131.475 92.5949C131.237 92.5079 130.976 92.6347 130.89 92.8781C130.805 93.1215 130.929 93.3894 131.167 93.4765C131.405 93.5635 131.667 93.4367 131.752 93.1933Z" fill="white"/>
</g>
<g opacity="0.3">
<path d="M133.955 87.2287C134.207 87.2287 134.412 87.0191 134.412 86.7606C134.412 86.5021 134.207 86.2925 133.955 86.2925C133.702 86.2925 133.497 86.5021 133.497 86.7606C133.497 87.0191 133.702 87.2287 133.955 87.2287Z" fill="white"/>
</g>
<g opacity="0.3">
<path d="M121.788 97.1935C121.847 96.942 121.695 96.6895 121.449 96.6294C121.203 96.5693 120.956 96.7245 120.898 96.9759C120.839 97.2273 120.991 97.4799 121.236 97.5399C121.482 97.6 121.729 97.4449 121.788 97.1935Z" fill="white"/>
</g>
<g opacity="0.3">
<path d="M127.669 98.5147C127.901 98.4125 128.008 98.1372 127.908 97.8997C127.808 97.6623 127.539 97.5526 127.307 97.6548C127.075 97.757 126.968 98.0323 127.068 98.2698C127.168 98.5072 127.437 98.6169 127.669 98.5147Z" fill="white"/>
</g>
<g opacity="0.3">
<path d="M128.135 103.721C128.368 103.623 128.479 103.349 128.382 103.11C128.286 102.871 128.018 102.758 127.784 102.857C127.551 102.955 127.44 103.229 127.537 103.468C127.633 103.707 127.901 103.82 128.135 103.721Z" fill="white"/>
</g>
<path d="M139.549 111.348L137.432 119.03C137.35 119.485 136.965 119.812 136.514 119.812H130.8C130.349 119.812 129.964 119.485 129.882 119.03L129.448 117.455L127.768 111.348C127.662 110.761 128.101 110.222 128.686 110.222H138.628C138.705 110.222 138.776 110.23 138.848 110.245C138.947 110.268 139.042 110.309 139.124 110.364C139.438 110.566 139.62 110.946 139.549 111.348Z" fill="#D1DCF8"/>
<path d="M139.549 111.348L137.433 119.03C137.35 119.485 136.965 119.812 136.514 119.812H130.8C130.349 119.812 129.964 119.485 129.882 119.03L129.448 117.455C130.889 116.985 132.295 116.399 133.696 115.812C135.031 115.252 136.394 114.671 137.473 113.691C138.405 112.842 139.104 111.625 139.124 110.365C139.438 110.566 139.62 110.946 139.549 111.348Z" fill="#BBCAEA"/>
<path d="M111.462 76.5088C111.462 76.6807 111.2 76.8363 110.67 76.9076H109.324C108.795 76.8363 108.532 76.6807 108.532 76.5045C108.532 76.3282 108.794 76.177 109.324 76.1013H110.67C111.2 76.1773 111.462 76.3282 111.462 76.5088Z" fill="#BBCAEA"/>
<path d="M116.736 76.5085C116.736 76.6805 116.474 76.836 115.944 76.9074H114.597C114.068 76.836 113.806 76.6805 113.806 76.5042C113.806 76.328 114.068 76.1767 114.597 76.1011H115.944C116.474 76.1771 116.736 76.328 116.736 76.5085Z" fill="#BBCAEA"/>
<path d="M122.009 76.5085C122.009 76.6805 121.747 76.836 121.217 76.9074H119.871C119.341 76.836 119.079 76.6805 119.079 76.5042C119.079 76.328 119.341 76.1767 119.871 76.1011H121.217C121.747 76.1771 122.009 76.328 122.009 76.5085Z" fill="#BBCAEA"/>
<path d="M127.283 76.5085C127.283 76.6805 127.021 76.836 126.491 76.9074H125.144C124.615 76.836 124.353 76.6805 124.353 76.5042C124.353 76.328 124.615 76.1767 125.144 76.1011H126.491C127.021 76.1771 127.283 76.328 127.283 76.5085Z" fill="#BBCAEA"/>
<path d="M132.556 76.5085C132.556 76.6805 132.294 76.836 131.764 76.9074H130.417C129.888 76.836 129.626 76.6805 129.626 76.5042C129.626 76.328 129.888 76.1767 130.417 76.1011H131.764C132.294 76.1771 132.556 76.328 132.556 76.5085Z" fill="#BBCAEA"/>
<path d="M137.829 76.5085C137.829 76.6805 137.567 76.836 137.037 76.9074H135.691C135.162 76.836 134.899 76.6805 134.899 76.5042C134.899 76.328 135.161 76.1767 135.691 76.1011H137.037C137.567 76.1771 137.829 76.328 137.829 76.5085Z" fill="#BBCAEA"/>
<path d="M142.819 76.211C142.921 76.211 143.016 76.308 143.091 76.5046L143.148 76.6526L142.815 76.7868C142.689 76.8375 142.521 76.8792 142.311 76.9074H140.964C140.435 76.836 140.173 76.6805 140.173 76.5042C140.173 76.328 140.435 76.1767 140.964 76.1011H142.311C142.522 76.131 142.69 76.1731 142.815 76.2242L142.542 76.5042C142.617 76.308 142.713 76.211 142.819 76.211Z" fill="#BBCAEA"/>
<path d="M142.82 70.8174C142.988 70.8174 143.14 71.0853 143.21 71.6273V73.0044C143.14 73.5456 142.988 73.8139 142.816 73.8139C142.643 73.8139 142.495 73.546 142.421 73.0044V71.6273C142.495 71.0853 142.643 70.8174 142.82 70.8174Z" fill="#BBCAEA"/>
<path d="M142.82 65.4238C142.988 65.4238 143.14 65.6918 143.21 66.2337V67.6109C143.14 68.1521 142.988 68.4204 142.816 68.4204C142.643 68.4204 142.495 68.1524 142.421 67.6109V66.2337C142.495 65.6921 142.643 65.4238 142.82 65.4238Z" fill="#BBCAEA"/>
<path d="M142.82 60.0303C142.988 60.0303 143.14 60.2982 143.21 60.8401V62.2173C143.14 62.7585 142.988 63.0268 142.816 63.0268C142.643 63.0268 142.495 62.7589 142.421 62.2173V60.8401C142.495 60.2986 142.643 60.0303 142.82 60.0303Z" fill="#BBCAEA"/>
<path d="M142.82 54.6372C142.988 54.6372 143.14 54.9051 143.21 55.4471V56.8242C143.14 57.3655 142.988 57.6337 142.816 57.6337C142.643 57.6337 142.495 57.3658 142.421 56.8242V55.4471C142.495 54.9051 142.643 54.6372 142.82 54.6372Z" fill="#BBCAEA"/>
<path d="M142.82 49.2437C142.988 49.2437 143.14 49.5116 143.21 50.0535V51.4307C143.14 51.9719 142.988 52.2402 142.816 52.2402C142.643 52.2402 142.495 51.9723 142.421 51.4307V50.0535C142.495 49.5116 142.643 49.2437 142.82 49.2437Z" fill="#BBCAEA"/>
<path d="M141.296 45.4C141.296 45.228 141.558 45.0725 142.088 45.0015H143.21V46.0375C143.14 46.5788 142.988 46.8471 142.816 46.8471C142.643 46.8471 142.495 46.5791 142.421 46.0375V45.8074H142.088C141.558 45.7318 141.296 45.5809 141.296 45.4Z" fill="#BBCAEA"/>
<path d="M136.022 45.4C136.022 45.228 136.284 45.0725 136.814 45.0015H138.161C138.69 45.0728 138.952 45.228 138.952 45.4046C138.952 45.5809 138.69 45.7321 138.161 45.8074H136.814C136.284 45.7318 136.022 45.5809 136.022 45.4Z" fill="#BBCAEA"/>
<path d="M130.749 45.4C130.749 45.228 131.011 45.0725 131.541 45.0015H132.888C133.417 45.0728 133.679 45.228 133.679 45.4046C133.679 45.5809 133.417 45.7321 132.888 45.8074H131.541C131.011 45.7318 130.749 45.5809 130.749 45.4Z" fill="#BBCAEA"/>
<path d="M125.476 45.4C125.476 45.228 125.738 45.0725 126.268 45.0015H127.614C128.144 45.0728 128.406 45.228 128.406 45.4046C128.406 45.5809 128.144 45.7321 127.614 45.8074H126.268C125.738 45.7318 125.476 45.5809 125.476 45.4Z" fill="#BBCAEA"/>
<path d="M121.347 46.5792C121.263 46.5792 121.183 46.5121 121.115 46.3773C121.081 46.3098 121.051 46.2256 121.024 46.1243C121.012 46.0729 121 46.0184 120.987 45.9595L120.971 45.8674C120.966 45.8357 120.961 45.8129 120.957 45.7312V45.0005H122.341C122.87 45.0718 123.132 45.227 123.132 45.4036C123.132 45.5799 122.87 45.7312 122.341 45.8064H121.746C121.741 45.7925 121.736 45.8357 121.731 45.8671L121.715 45.9591C121.701 46.018 121.689 46.0729 121.677 46.124C121.65 46.2253 121.619 46.3095 121.585 46.3769C121.516 46.5125 121.436 46.5792 121.347 46.5792Z" fill="#BBCAEA"/>
<path d="M121.347 51.9731C121.179 51.9731 121.027 51.7052 120.957 51.1632V49.7861C121.027 49.2445 121.179 48.9766 121.351 48.9766C121.524 48.9766 121.672 49.2445 121.746 49.7861V51.1632C121.671 51.7048 121.524 51.9731 121.347 51.9731Z" fill="#BBCAEA"/>
<path d="M121.347 57.3662C121.179 57.3662 121.027 57.0982 120.957 56.5563V55.1791C121.027 54.6376 121.179 54.3696 121.351 54.3696C121.524 54.3696 121.672 54.6376 121.746 55.1791V56.5563C121.671 57.0979 121.524 57.3662 121.347 57.3662Z" fill="#BBCAEA"/>
<path d="M122.276 61.8185C122.276 61.9045 122.21 61.9862 122.078 62.0558C121.923 62.125 121.855 62.1817 121.222 62.2174H120.957V60.5727C121.027 60.0311 121.179 59.7632 121.351 59.7632C121.524 59.7632 121.671 60.0311 121.745 60.5727V61.4115C121.641 61.4493 121.97 61.506 122.078 61.5759C122.21 61.6455 122.276 61.7283 122.276 61.8185Z" fill="#BBCAEA"/>
<path d="M127.549 61.8186C127.549 61.9905 127.287 62.1461 126.757 62.2171H125.411C124.882 62.1457 124.62 61.9905 124.62 61.8143C124.62 61.6377 124.882 61.4868 125.411 61.4111H126.757C127.287 61.4868 127.549 61.638 127.549 61.8186Z" fill="#BBCAEA"/>
<path d="M131.193 60.1436C131.361 60.1436 131.513 60.4115 131.583 60.9534V62.2171H130.684C130.155 62.1458 129.893 61.9906 129.893 61.8143C129.893 61.6377 130.155 61.4868 130.684 61.4112H130.795V60.9534C130.869 60.4115 131.017 60.1436 131.193 60.1436Z" fill="#BBCAEA"/>
<path d="M131.193 54.75C131.361 54.75 131.514 55.0179 131.583 55.5599V56.937C131.514 57.4786 131.361 57.7465 131.189 57.7465C131.017 57.7465 130.869 57.4786 130.795 56.937V55.5599C130.869 55.0183 131.017 54.75 131.193 54.75Z" fill="#BBCAEA"/>
<path d="M131.193 49.3569C131.361 49.3569 131.514 49.6249 131.583 50.1668V51.544C131.514 52.0855 131.361 52.3535 131.189 52.3535C131.017 52.3535 130.869 52.0855 130.795 51.544V50.1668C130.869 49.6252 131.017 49.3569 131.193 49.3569Z" fill="#BBCAEA"/>
<path d="M131.193 43.9634C131.361 43.9634 131.514 44.2313 131.583 44.7733V46.1504C131.514 46.692 131.361 46.9599 131.189 46.9599C131.017 46.9599 130.869 46.692 130.795 46.1504V44.7733C130.869 44.2313 131.017 43.9634 131.193 43.9634Z" fill="#BBCAEA"/>
<path d="M131.193 38.5698C131.361 38.5698 131.514 38.8378 131.583 39.3797V40.7568C131.514 41.2984 131.361 41.5664 131.189 41.5664C131.017 41.5664 130.869 41.2984 130.795 40.7568V39.3797C130.869 38.8378 131.017 38.5698 131.193 38.5698Z" fill="#BBCAEA"/>
<path d="M131.193 33.1768C131.361 33.1768 131.514 33.4447 131.583 33.9866V35.3638C131.514 35.9054 131.361 36.1733 131.189 36.1733C131.017 36.1733 130.869 35.9054 130.795 35.3638V33.9866C130.869 33.4447 131.017 33.1768 131.193 33.1768Z" fill="#BBCAEA"/>
<path d="M131.193 27.7832C131.361 27.7832 131.514 28.0511 131.583 28.5931V29.9702C131.514 30.5118 131.361 30.7797 131.189 30.7797C131.017 30.7797 130.869 30.5118 130.795 29.9702V28.5931C130.869 28.0511 131.017 27.7832 131.193 27.7832Z" fill="#BBCAEA"/>
<path d="M131.193 22.3896C131.361 22.3896 131.514 22.6576 131.583 23.1995V24.5767C131.514 25.1183 131.361 25.3862 131.189 25.3862C131.017 25.3862 130.869 25.1183 130.795 24.5767V23.1995C130.869 22.6579 131.017 22.3896 131.193 22.3896Z" fill="#BBCAEA"/>
<path d="M129.872 18.3393C129.872 18.1673 130.134 18.0118 130.664 17.9404H131.583V19.1834C131.513 19.725 131.361 19.9929 131.189 19.9929C131.017 19.9929 130.869 19.725 130.795 19.1834V18.7467H130.664C130.134 18.6711 129.872 18.5198 129.872 18.3393Z" fill="#BBCAEA"/>
<path d="M124.599 18.3393C124.599 18.1673 124.861 18.0118 125.39 17.9404H126.737C127.266 18.0118 127.528 18.1673 127.528 18.3436C127.528 18.5198 127.266 18.6711 126.737 18.7467H125.39C124.861 18.6711 124.599 18.5198 124.599 18.3393Z" fill="#BBCAEA"/>
<path d="M119.325 18.3393C119.325 18.1673 119.587 18.0118 120.117 17.9404H121.464C121.993 18.0118 122.255 18.1673 122.255 18.3436C122.255 18.5198 121.993 18.6711 121.464 18.7467H120.117C119.587 18.6711 119.325 18.5198 119.325 18.3393Z" fill="#BBCAEA"/>
<path d="M114.052 18.3393C114.052 18.1673 114.314 18.0118 114.844 17.9404H116.19C116.72 18.0118 116.982 18.1673 116.982 18.3436C116.982 18.5198 116.72 18.6711 116.19 18.7467H114.844C114.314 18.6711 114.052 18.5198 114.052 18.3393Z" fill="#BBCAEA"/>
<path d="M111.129 18.3393C111.129 18.1673 111.181 18.0118 111.285 17.9404H111.551C111.656 18.0118 111.708 18.1673 111.708 18.3436C111.708 18.5198 111.656 18.6711 111.551 18.7467H111.285C111.181 18.6711 111.129 18.5198 111.129 18.3393Z" fill="#BBCAEA"/>
<path d="M112.87 9.33105V110.425C112.87 115.581 108.782 119.762 103.74 119.762H60.4736C55.435 119.762 51.3501 115.585 51.3501 110.431V9.33105C51.3501 4.17782 55.4346 0 60.4736 0H103.746C108.785 0 112.87 4.17746 112.87 9.33105Z" fill="#E4ECF9"/>
<path d="M110.825 9.32202V110.423C110.825 114.427 107.651 117.673 103.743 117.673H60.4768C56.5612 117.673 53.3948 114.427 53.3948 110.429V9.32915C53.3948 5.33151 56.5615 2.08594 60.4768 2.08594H67.4358C68.1195 2.08594 68.753 2.51228 68.9703 3.17517C69.4311 4.58264 70.7312 5.59623 72.2647 5.59623H91.9548C92.9082 5.59623 93.7729 5.19272 94.4064 4.55873C94.7818 4.17056 95.0723 3.70034 95.2461 3.17481C95.4648 2.51264 96.0965 2.08594 96.7802 2.08594H103.75C107.657 2.08594 110.825 5.3258 110.825 9.32202Z" fill="white"/>
<path d="M95.5342 104.915C95.5342 106.229 95.0145 107.418 94.1717 108.28C93.3289 109.142 92.1666 109.674 90.8814 109.674H70.4299C67.8792 109.674 65.8092 107.576 65.7802 104.978C65.7771 104.958 65.7771 104.935 65.7771 104.915C65.7771 103.601 66.2969 102.412 67.1396 101.55C67.9824 100.688 69.1448 100.156 70.4299 100.156H90.8814C91.3562 100.156 91.8177 100.229 92.2506 100.368C94.1521 100.962 95.5342 102.772 95.5342 104.915Z" fill="#70D715"/>
<path d="M95.5343 104.915C95.5343 106.229 95.0145 107.418 94.1717 108.28C93.3289 109.142 92.1666 109.674 90.8815 109.674H70.4299C67.8792 109.674 65.8092 107.576 65.7803 104.978C72.0635 107.368 79.1348 107.623 85.5377 105.562C88.305 104.674 91.2042 103.085 92.2503 100.367C94.1522 100.962 95.5343 102.772 95.5343 104.915Z" fill="#4CA300"/>
<path d="M71.7161 106.327C71.6714 106.308 71.6341 106.277 71.6045 106.233C71.5748 106.189 71.5598 106.143 71.5598 106.093C71.5598 106.029 71.5811 105.973 71.624 105.925C71.6669 105.878 71.7217 105.854 71.7887 105.854C71.8253 105.854 71.8609 105.862 71.8944 105.877C72.2359 106.032 72.6028 106.111 72.9928 106.111C73.6434 106.111 73.9685 105.892 73.9685 105.454C73.9685 105.34 73.9267 105.245 73.8433 105.169C73.7599 105.093 73.6567 105.033 73.5339 104.989C73.4114 104.946 73.2363 104.893 73.0096 104.832C72.7085 104.753 72.4647 104.675 72.2788 104.601C72.0928 104.528 71.9331 104.416 71.7991 104.268C71.6652 104.119 71.5982 103.922 71.5982 103.675C71.5982 103.458 71.6544 103.261 71.766 103.084C71.8776 102.908 72.0419 102.767 72.2592 102.662C72.4766 102.558 72.7382 102.505 73.0427 102.505C73.4519 102.505 73.822 102.568 74.1527 102.693C74.257 102.732 74.309 102.808 74.309 102.922C74.309 102.983 74.2884 103.038 74.2476 103.087C74.2064 103.137 74.1527 103.161 74.0857 103.161C74.0634 103.161 74.0338 103.153 73.9964 103.138C73.7062 103.036 73.4069 102.984 73.0985 102.984C72.8052 102.984 72.5659 103.041 72.382 103.155C72.1978 103.27 72.1057 103.429 72.1057 103.635C72.1057 103.772 72.1494 103.883 72.2369 103.968C72.3245 104.054 72.4337 104.12 72.5659 104.168C72.6981 104.215 72.877 104.266 73.1045 104.319C73.3978 104.391 73.635 104.463 73.815 104.536C73.9954 104.608 74.1499 104.72 74.278 104.872C74.406 105.024 74.4702 105.229 74.4702 105.488C74.4702 105.701 74.4105 105.892 74.2923 106.061C74.1733 106.23 74.0055 106.363 73.7899 106.458C73.5747 106.553 73.3253 106.6 73.0427 106.6C72.5711 106.601 72.1288 106.509 71.7161 106.327Z" fill="white"/>
<path d="M75.3599 106.204C75.1053 105.94 74.9783 105.568 74.9783 105.089C74.9783 104.819 75.0264 104.57 75.123 104.342C75.2197 104.114 75.3686 103.929 75.5692 103.788C75.7701 103.648 76.0171 103.578 76.3108 103.578C76.5861 103.578 76.824 103.643 77.0249 103.775C77.2251 103.906 77.3779 104.081 77.4822 104.299C77.5865 104.518 77.6385 104.757 77.6385 105.015C77.6385 105.088 77.6151 105.148 77.5687 105.198C77.5216 105.247 77.4599 105.272 77.3818 105.272H75.4911C75.5207 105.538 75.6177 105.745 75.7813 105.893C75.9449 106.042 76.1737 106.116 76.4675 106.116C76.6237 106.116 76.7605 106.1 76.877 106.07C76.9942 106.04 77.1086 105.996 77.2202 105.939C77.2499 105.924 77.283 105.916 77.3204 105.916C77.38 105.916 77.432 105.937 77.4766 105.979C77.5213 106.021 77.5436 106.074 77.5436 106.139C77.5436 106.223 77.4951 106.293 77.3989 106.35C77.2534 106.434 77.1104 106.496 76.9691 106.538C76.8278 106.58 76.6457 106.601 76.4225 106.601C75.9686 106.601 75.6146 106.469 75.3599 106.204ZM77.1362 104.85C77.1254 104.664 77.0779 104.507 76.9942 104.382C76.9105 104.257 76.8072 104.165 76.6848 104.105C76.5623 104.046 76.4375 104.017 76.3112 104.017C76.1846 104.017 76.0607 104.046 75.9376 104.105C75.8151 104.165 75.7126 104.257 75.631 104.382C75.549 104.507 75.5029 104.663 75.4914 104.85H77.1362Z" fill="white"/>
<path d="M78.5779 106.498C78.4384 106.43 78.3278 106.33 78.2462 106.199C78.1642 106.068 78.123 105.917 78.123 105.746C78.123 105.464 78.2319 105.24 78.4492 105.073C78.6672 104.905 78.9861 104.821 79.4061 104.821H80.0807V104.776C80.0807 104.525 80.02 104.344 79.8993 104.234C79.7786 104.124 79.5899 104.069 79.3335 104.069C79.1922 104.069 79.067 104.08 78.9571 104.103C78.8479 104.126 78.7258 104.16 78.5919 104.206C78.5622 104.214 78.5382 104.217 78.5193 104.217C78.4639 104.217 78.415 104.196 78.3746 104.154C78.3334 104.113 78.3132 104.061 78.3132 104.001C78.3132 103.898 78.3613 103.826 78.4579 103.784C78.7736 103.647 79.0953 103.578 79.4228 103.578C79.6792 103.578 79.8962 103.631 80.0727 103.738C80.2489 103.845 80.3793 103.982 80.463 104.151C80.5464 104.321 80.5883 104.504 80.5883 104.702V106.316C80.5883 106.388 80.5632 106.449 80.5126 106.499C80.4627 106.548 80.402 106.573 80.3319 106.573C80.2611 106.573 80.2014 106.548 80.1533 106.499C80.1048 106.449 80.0807 106.388 80.0807 106.316V106.168C79.8055 106.457 79.4563 106.601 79.0325 106.601C78.8685 106.601 78.7171 106.566 78.5779 106.498ZM79.6959 106.022C79.848 105.94 79.9764 105.839 80.0804 105.717V105.237H79.4727C78.9114 105.237 78.6303 105.388 78.6303 105.688C78.6303 105.825 78.676 105.935 78.767 106.019C78.858 106.103 79.0094 106.145 79.2212 106.145C79.3855 106.145 79.5432 106.104 79.6959 106.022Z" fill="white"/>
<path d="M81.5142 106.498C81.4657 106.449 81.4417 106.388 81.4417 106.316V103.869C81.4417 103.797 81.4657 103.735 81.5142 103.684C81.5624 103.632 81.6217 103.607 81.6921 103.607C81.7629 103.607 81.8236 103.632 81.8735 103.684C81.9237 103.735 81.9492 103.797 81.9492 103.869V104.114C82.2094 103.757 82.5014 103.578 82.8248 103.578H82.8527C82.9232 103.578 82.9814 103.603 83.0285 103.652C83.0749 103.701 83.0976 103.762 83.0976 103.834C83.0976 103.907 83.0735 103.965 83.0254 104.011C82.9769 104.057 82.9155 104.08 82.8412 104.08H82.8133C82.6354 104.08 82.4718 104.124 82.3228 104.214C82.1742 104.303 82.0493 104.426 81.9492 104.582V106.315C81.9492 106.388 81.9241 106.448 81.8735 106.498C81.8236 106.547 81.7629 106.572 81.6921 106.572C81.6217 106.572 81.562 106.547 81.5142 106.498Z" fill="white"/>
<path d="M84.0685 106.419C83.8414 106.297 83.6604 106.122 83.525 105.894C83.389 105.665 83.3213 105.398 83.3213 105.09C83.3213 104.781 83.389 104.513 83.525 104.285C83.6607 104.057 83.8414 103.882 84.0685 103.76C84.2952 103.639 84.5422 103.578 84.8101 103.578C85.0069 103.578 85.1774 103.603 85.3205 103.655C85.4635 103.706 85.5964 103.772 85.7192 103.852C85.7931 103.901 85.8301 103.968 85.8301 104.051C85.8301 104.108 85.8088 104.161 85.7659 104.208C85.7237 104.256 85.6745 104.279 85.6184 104.279C85.5779 104.279 85.5364 104.268 85.4959 104.245C85.3728 104.181 85.2681 104.134 85.1806 104.105C85.093 104.077 84.9842 104.062 84.8544 104.062C84.5345 104.062 84.2841 104.157 84.1013 104.345C83.9192 104.533 83.8285 104.781 83.8285 105.089C83.8285 105.397 83.9195 105.645 84.1013 105.833C84.2837 106.021 84.5345 106.115 84.8544 106.115C84.9842 106.115 85.093 106.101 85.1806 106.073C85.2681 106.044 85.3728 105.997 85.4959 105.933C85.5364 105.91 85.5779 105.898 85.6184 105.898C85.6745 105.898 85.7237 105.922 85.7659 105.97C85.8088 106.018 85.8301 106.07 85.8301 106.127C85.8301 106.211 85.7928 106.277 85.7192 106.326C85.5961 106.406 85.4635 106.472 85.3205 106.523C85.1774 106.575 85.0069 106.6 84.8101 106.6C84.5422 106.601 84.2952 106.54 84.0685 106.419Z" fill="white"/>
<path d="M86.5386 106.498C86.4901 106.449 86.4661 106.388 86.4661 106.316V102.614C86.4661 102.542 86.4901 102.48 86.5386 102.429C86.5868 102.378 86.6461 102.352 86.7165 102.352C86.7873 102.352 86.848 102.377 86.8979 102.429C86.9482 102.48 86.9736 102.542 86.9736 102.614V104.103C87.1149 103.943 87.2673 103.815 87.431 103.721C87.5946 103.626 87.7882 103.578 88.0111 103.578C88.2155 103.578 88.3927 103.628 88.5434 103.727C88.6937 103.825 88.8095 103.96 88.8894 104.132C88.969 104.303 89.0091 104.491 89.0091 104.696V106.316C89.0091 106.388 88.984 106.449 88.9341 106.499C88.8838 106.548 88.8232 106.573 88.7527 106.573C88.6819 106.573 88.6222 106.548 88.5741 106.499C88.5256 106.449 88.5015 106.388 88.5015 106.316V104.753C88.5015 104.289 88.2971 104.058 87.8883 104.058C87.7023 104.058 87.5359 104.107 87.3894 104.206C87.2422 104.305 87.1037 104.438 86.974 104.605V106.316C86.974 106.388 86.9489 106.449 86.8983 106.499C86.8484 106.548 86.7877 106.573 86.7169 106.573C86.6464 106.572 86.5868 106.548 86.5386 106.498Z" fill="white"/>
<path d="M106.134 26.1773V44.3738C106.134 45.5597 105.193 46.5223 104.031 46.5223H60.1852C59.0256 46.5223 58.0845 45.5597 58.0845 44.3738V26.1773C58.0845 24.9914 59.0256 24.0288 60.1852 24.0288H104.031C105.193 24.0288 106.134 24.9914 106.134 26.1773Z" fill="#E4ECF9"/>
<path d="M104.032 40.7828C104.032 41.6162 103.702 42.3718 103.168 42.9152C102.634 43.4614 101.898 43.7989 101.083 43.7989H82.8731C81.2434 43.7989 79.9241 42.4496 79.9241 40.7828C79.9241 39.9522 80.2537 39.1965 80.7881 38.6503C81.3198 38.1038 82.0583 37.7666 82.8731 37.7666H101.083C102.712 37.7666 104.032 39.1184 104.032 40.7828Z" fill="white"/>
<path d="M83.7288 39.0688L84.1446 40.3782H85.4907L84.4017 41.1874L84.8178 42.4964L83.7288 41.6872L82.6397 42.4964L83.0559 41.1874L81.9668 40.3782H83.313L83.7288 39.0688Z" fill="#70D715"/>
<path d="M87.969 39.0688L88.3848 40.3782H89.7306L88.6419 41.1874L89.0577 42.4964L87.969 41.6872L86.8799 42.4964L87.2957 41.1874L86.207 40.3782H87.5528L87.969 39.0688Z" fill="#70D715"/>
<path d="M92.2087 39.0688L92.6246 40.3782H93.9707L92.8817 41.1874L93.2978 42.4964L92.2087 41.6872L91.1197 42.4964L91.5358 41.1874L90.4468 40.3782H91.7929L92.2087 39.0688Z" fill="#70D715"/>
<path d="M96.449 39.0688L96.8648 40.3782H98.2106L97.1219 41.1874L97.5377 42.4964L96.449 41.6872L95.3599 42.4964L95.7757 41.1874L94.687 40.3782H96.0328L96.449 39.0688Z" fill="#70D715"/>
<path d="M100.688 39.0688L101.104 40.3782H102.45L101.361 41.1874L101.778 42.4964L100.688 41.6872L99.5994 42.4964L100.016 41.1874L98.9265 40.3782H100.273L100.688 39.0688Z" fill="#D1DCF8"/>
<path d="M69.0836 42.9249C73.3966 42.9249 76.893 39.3489 76.893 34.9378C76.893 30.5266 73.3966 26.9507 69.0836 26.9507C64.7706 26.9507 61.2742 30.5266 61.2742 34.9378C61.2742 39.3489 64.7706 42.9249 69.0836 42.9249Z" fill="white"/>
<mask id="mask0_112_1777" style="mask-type:luminance" maskUnits="userSpaceOnUse" x="61" y="26" width="16" height="17">
<path d="M69.0836 42.9249C73.3966 42.9249 76.893 39.3489 76.893 34.9378C76.893 30.5266 73.3966 26.9507 69.0836 26.9507C64.7706 26.9507 61.2742 30.5266 61.2742 34.9378C61.2742 39.3489 64.7706 42.9249 69.0836 42.9249Z" fill="white"/>
</mask>
<g mask="url(#mask0_112_1777)">
<path d="M74.6088 50.0018L75.5304 55.2032C68.8516 56.1012 62.6779 54.4476 62.6779 54.4476L62.9911 51.1374L63.1656 49.2965C61.8365 48.8683 60.333 44.6877 60.333 44.6877C60.333 44.6877 61.271 43.282 63.0131 41.5816C64.4161 40.2105 66.1826 39.2729 68.0998 38.9632C69.8897 38.6739 71.6611 38.9265 73.2347 39.9297C73.4559 40.0707 73.6844 40.2394 73.9174 40.4296C76.443 42.4932 79.4831 47.1237 79.4831 47.1237C77.3388 50.1663 74.6088 50.0018 74.6088 50.0018Z" fill="#FE4C40"/>
<path d="M71.1699 39.0494C70.9899 39.5939 70.3226 39.9681 69.8171 40.1105C69.3374 40.2453 68.8295 40.2564 68.3485 40.1265C67.2647 39.8336 67.2378 39.1472 67.2378 39.1472C67.4209 39.0865 67.5099 38.6092 67.5517 38.0951C67.6048 37.4472 67.5842 36.7422 67.5842 36.7422H70.4624C70.4624 36.7422 70.5469 37.637 70.6382 38.3259C70.6571 38.4647 70.7045 38.5978 70.7785 38.713C70.8441 38.8172 70.9299 38.9082 71.0342 38.9767C71.1123 39.0284 71.1699 39.0494 71.1699 39.0494Z" fill="#FEC9AC"/>
<g opacity="0.5">
<path d="M70.7781 38.713C69.7944 39.0769 68.6335 38.9581 67.8004 38.3127C67.7129 38.2449 67.6302 38.1725 67.551 38.0951C67.604 37.4472 67.5835 36.7422 67.5835 36.7422H70.4617C70.4617 36.7422 70.5461 37.637 70.6375 38.3259C70.6567 38.4647 70.7042 38.5978 70.7781 38.713Z" fill="#FFAB90"/>
</g>
<path d="M71.3475 39.9096C71.4082 39.966 71.3949 40.1123 71.2588 40.331C71.1228 40.5465 70.858 40.8365 70.4066 41.0859C69.6169 41.4527 68.7022 41.518 67.8706 41.2782C67.3983 41.1116 67.047 40.838 66.9085 40.5736C66.7651 40.3078 66.8255 40.1376 66.9012 40.1166C67.0826 40.0802 67.2587 40.3627 68.0827 40.5015C68.7409 40.691 69.4623 40.6396 70.0836 40.3502C70.8444 40.067 71.2062 39.7755 71.3475 39.9096Z" fill="white"/>
<path d="M71.4278 35.7479C71.3504 36.3116 71.2384 36.9064 70.862 37.3256C70.5278 37.6973 70.0248 37.8743 69.5312 37.8982C69.2633 37.9114 68.9919 37.8832 68.739 37.7926C68.2255 37.6096 67.8285 37.1918 67.472 36.7733C67.3395 36.6188 67.2094 36.4611 67.0862 36.2981C66.9589 36.1293 66.7998 35.9902 66.6292 35.8678C66.6285 35.8671 66.6275 35.8667 66.6268 35.866C66.4908 35.7683 66.3795 35.6377 66.2745 35.5075C66.1901 35.4036 66.1049 35.2934 66.0833 35.1621C66.0634 35.0433 66.0997 34.9191 66.167 34.8214C66.2085 34.7632 66.2584 34.7129 66.3153 34.6708C66.2051 34.0611 66.2689 33.4164 66.5058 32.8449C66.8211 32.0839 67.4385 31.4591 68.1868 31.1466L70.9747 30.6992C70.9869 31.1256 71.1652 31.5244 71.2918 31.9297C71.6759 33.152 71.6016 34.475 71.4278 35.7479Z" fill="#FEC9AC"/>
<path d="M72.3817 31.5181C72.0283 31.3536 71.7241 31.0786 71.5214 30.74C71.4381 30.6008 71.3708 30.451 71.2958 30.3076C71.2452 30.2116 71.1914 30.1178 71.1269 30.0314C70.9214 29.7574 70.6176 29.573 70.296 29.4706C69.9733 29.3682 69.6339 29.3411 69.2966 29.3368C68.7716 29.3315 68.2389 29.3821 67.7446 29.5623C67.2489 29.7425 66.7916 30.0607 66.5024 30.5092C66.2959 30.8306 66.1829 31.2038 66.0733 31.5713C66.0015 31.8139 65.93 32.0576 65.8762 32.3048C65.8403 32.4686 65.812 32.6337 65.797 32.8007C65.759 33.2203 65.8215 33.6502 66.0036 34.028C66.125 34.2799 66.2673 34.5143 66.3346 34.8044C66.3747 34.6609 66.5055 34.5575 66.6468 34.5218C66.8272 34.4754 67.0201 34.5239 67.19 34.5906C67.3176 34.6413 67.6096 34.844 67.6096 34.844C67.6096 34.844 67.9047 33.9552 68.0006 33.7073C68.2644 33.0323 68.9948 32.5813 69.7016 32.658C69.6015 32.7422 69.4222 32.7476 69.3956 32.8771L69.5708 32.892C69.7699 32.9102 69.9695 32.8781 70.1592 32.8132C70.3333 32.7561 70.5273 32.7354 70.6706 32.8014C70.8869 32.8985 71.0913 33.0355 71.3244 33.0669C71.6048 33.1036 71.8884 32.9773 72.0963 32.7811C72.2101 32.6737 72.3025 32.5463 72.382 32.4108V31.5181H72.3817Z" fill="#2E363A"/>
<g opacity="0.5">
<path d="M67.0664 35.6552C67.0726 35.7198 67.0221 35.7847 66.96 35.7922C66.9293 35.7965 66.9 35.789 66.8714 35.7772C66.7723 35.7373 66.6962 35.6531 66.631 35.5671C66.5117 35.4108 66.4064 35.2296 66.4022 35.0312C66.4011 34.9688 66.4116 34.9017 66.4527 34.8553C66.5107 34.7897 66.6129 34.7854 66.6973 34.809C66.8672 34.8553 67.0074 34.9988 67.0548 35.1714L67.0664 35.6552Z" fill="#FFAB90"/>
</g>
<path d="M71.0702 31.5695C70.8602 31.7033 70.5884 31.6569 70.3488 31.593C69.9755 31.4939 69.597 31.3611 69.2143 31.4107C68.8348 31.4582 68.4835 31.6965 68.2906 32.0329C68.2432 32.1171 68.2041 32.2067 68.1473 32.2841C68.0081 32.4728 67.7729 32.5656 67.5431 32.5827C67.3121 32.5998 67.0833 32.5503 66.8576 32.5007C66.6361 32.4532 66.416 32.4047 66.1955 32.3562C66.0891 32.3323 65.9845 32.3098 65.876 32.3044C65.9297 32.0576 66.0016 31.8139 66.0731 31.5713C66.1826 31.2034 66.2956 30.8306 66.5021 30.5092C66.791 30.0607 67.2486 29.7425 67.7443 29.5623C68.239 29.3821 68.7713 29.3315 69.2963 29.3368C69.6336 29.3411 69.9734 29.3682 70.2957 29.4706C70.6174 29.573 70.9208 29.7574 71.1267 30.0314C71.1908 30.1178 71.2449 30.2116 71.2955 30.3076C71.3143 30.4671 71.3461 30.628 71.3576 30.7885C71.3799 31.0807 71.3136 31.415 71.0702 31.5695Z" fill="#2E363A"/>
<path d="M68.4887 34.1663C68.4775 34.1595 68.4758 34.1342 68.4936 34.0924C68.5117 34.0514 68.5501 33.9925 68.6237 33.9383C68.7524 33.8538 68.9181 33.827 69.066 33.8673C69.1525 33.8959 69.2066 33.9394 69.2359 33.9729C69.2652 34.0072 69.2711 34.0321 69.262 34.0421C69.2422 34.0664 69.1752 34.0189 69.0349 33.9925C68.9181 33.9615 68.7925 33.9815 68.6903 34.0478C68.5651 34.1171 68.5159 34.1831 68.4887 34.1663Z" fill="#4F2D2A"/>
<path d="M70.2958 33.7953C70.2787 33.7785 70.3164 33.6922 70.4678 33.6094C70.5993 33.5509 70.7444 33.5277 70.8871 33.5423C71.0556 33.5737 71.1173 33.644 71.1058 33.6661C71.0936 33.6943 71.0179 33.6751 70.8745 33.6711C70.7538 33.6587 70.6289 33.6786 70.5177 33.7282C70.3827 33.7767 70.3167 33.8188 70.2958 33.7953Z" fill="#4F2D2A"/>
<path d="M69.7065 35.9971C69.7173 35.9871 69.7529 36.0164 69.8196 36.0638C69.8527 36.0863 69.8959 36.1131 69.9465 36.1241C69.9947 36.1348 70.0637 36.1256 70.0993 36.0852C70.1635 36.026 70.1175 35.8473 70.1014 35.7085C70.0787 35.5629 70.0491 35.4188 70.0125 35.2761C69.935 34.9379 69.8858 34.7702 69.9137 34.7588C69.9368 34.7488 70.032 34.9004 70.1346 35.2433C70.1722 35.3899 70.2029 35.5383 70.2263 35.6882C70.2382 35.7634 70.2476 35.8373 70.2559 35.9147C70.2594 35.9543 70.2615 35.9971 70.2539 36.0435C70.2465 36.0895 70.2256 36.1398 70.1883 36.1773C70.0944 36.2604 69.9894 36.2511 69.9176 36.2272C69.8443 36.1994 69.8004 36.1562 69.7693 36.1216C69.71 36.0499 69.6968 36.0057 69.7065 35.9971Z" fill="#4F2D2A"/>
<path d="M69.9078 36.8341C69.9109 36.8466 69.8844 36.8694 69.822 36.8894C69.7602 36.909 69.6608 36.929 69.5286 36.914C69.3067 36.8794 69.0943 36.7767 68.9377 36.6033C68.8501 36.4955 68.8205 36.3846 68.8243 36.3132C68.8278 36.2408 68.8522 36.2112 68.8641 36.2141C68.8955 36.218 68.87 36.3493 69.0319 36.5173C69.1623 36.6625 69.3524 36.7574 69.5467 36.7863C69.7773 36.8291 69.9005 36.8006 69.9078 36.8341Z" fill="#4F2D2A"/>
<path d="M70.8877 34.6714C70.8877 34.8184 70.8228 34.9376 70.7429 34.9376C70.663 34.9376 70.5981 34.8184 70.5981 34.6714C70.5981 34.5244 70.663 34.4053 70.7429 34.4053C70.8228 34.4049 70.8877 34.5244 70.8877 34.6714Z" fill="#4F2D2A"/>
<path d="M69.1892 34.8179C69.1892 34.9649 69.1243 35.0841 69.0444 35.0841C68.9645 35.0841 68.8997 34.9649 68.8997 34.8179C68.8997 34.6709 68.9645 34.5518 69.0444 34.5518C69.1243 34.5518 69.1892 34.6709 69.1892 34.8179Z" fill="#4F2D2A"/>
<path d="M63.166 49.2957C63.166 49.2957 62.8573 52.0235 59.2276 52.5765C55.598 53.1278 53.5242 42.1327 53.5242 42.1327C53.5242 42.1327 54.646 41.426 55.1804 41.0171C55.2432 41.0171 58.1135 46.8496 58.2656 47.1604C58.4159 47.4729 60.3328 44.6872 60.3328 44.6872L63.166 49.2957Z" fill="#FEC9AC"/>
</g>
<path d="M102.603 28.4859H80.7713C80.3031 28.4859 79.9236 28.0977 79.9236 27.6189C79.9236 27.1401 80.3031 26.752 80.7713 26.752H102.603C103.071 26.752 103.451 27.1401 103.451 27.6189C103.451 28.0977 103.071 28.4859 102.603 28.4859Z" fill="#D1DCF8"/>
<path d="M102.603 32.1067H80.7713C80.3031 32.1067 79.9236 31.7186 79.9236 31.2398C79.9236 30.761 80.3031 30.3728 80.7713 30.3728H102.603C103.071 30.3728 103.451 30.761 103.451 31.2398C103.451 31.7186 103.071 32.1067 102.603 32.1067Z" fill="#D1DCF8"/>
<path d="M89.9879 33.9937H80.7713C80.3031 33.9937 79.9236 34.3818 79.9236 34.8606C79.9236 35.3394 80.3031 35.7276 80.7713 35.7276H89.9879C90.456 35.7276 90.8355 35.3394 90.8355 34.8606C90.8355 34.3818 90.456 33.9937 89.9879 33.9937Z" fill="#D1DCF8"/>
<path d="M106.134 51.8174V70.0139C106.134 71.1999 105.193 72.1624 104.031 72.1624H60.1852C59.0256 72.1624 58.0845 71.1999 58.0845 70.0139V51.8174C58.0845 50.6315 59.0256 49.6689 60.1852 49.6689H104.031C105.193 49.6693 106.134 50.6315 106.134 51.8174Z" fill="#E4ECF9"/>
<path d="M104.032 66.4229C104.032 67.2563 103.702 68.012 103.168 68.5553C102.634 69.1016 101.898 69.4391 101.083 69.4391H82.8731C81.2434 69.4391 79.9241 68.0897 79.9241 66.4229C79.9241 65.5923 80.2537 64.8367 80.7881 64.2905C81.3198 63.7439 82.0583 63.4067 82.8731 63.4067H101.083C102.712 63.4067 104.032 64.7589 104.032 66.4229Z" fill="white"/>
<path d="M83.7288 64.709L84.1446 66.0183H85.4907L84.4017 66.8275L84.8178 68.1369L83.7288 67.3277L82.6397 68.1369L83.0559 66.8275L81.9668 66.0183H83.313L83.7288 64.709Z" fill="#70D715"/>
<path d="M87.969 64.709L88.3848 66.0183H89.7306L88.6419 66.8275L89.0577 68.1369L87.969 67.3277L86.8799 68.1369L87.2957 66.8275L86.207 66.0183H87.5528L87.969 64.709Z" fill="#70D715"/>
<path d="M92.2087 64.709L92.6246 66.0183H93.9707L92.8817 66.8275L93.2978 68.1369L92.2087 67.3277L91.1197 68.1369L91.5358 66.8275L90.4468 66.0183H91.7929L92.2087 64.709Z" fill="#70D715"/>
<path d="M96.449 64.709L96.8648 66.0183H98.2106L97.1219 66.8275L97.5377 68.1369L96.449 67.3277L95.3599 68.1369L95.7757 66.8275L94.687 66.0183H96.0328L96.449 64.709Z" fill="#70D715"/>
<path d="M100.688 64.709L101.104 66.0183H102.45L101.361 66.8275L101.778 68.1369L100.688 67.3277L99.5994 68.1369L100.016 66.8275L98.9265 66.0183H100.273L100.688 64.709Z" fill="#D1DCF8"/>
<path d="M69.0836 68.565C73.3966 68.565 76.893 64.989 76.893 60.5779C76.893 56.1668 73.3966 52.5908 69.0836 52.5908C64.7706 52.5908 61.2742 56.1668 61.2742 60.5779C61.2742 64.989 64.7706 68.565 69.0836 68.565Z" fill="white"/>
<mask id="mask1_112_1777" style="mask-type:luminance" maskUnits="userSpaceOnUse" x="61" y="52" width="16" height="17">
<path d="M69.0836 68.565C73.3966 68.565 76.893 64.989 76.893 60.5779C76.893 56.1668 73.3966 52.5908 69.0836 52.5908C64.7706 52.5908 61.2742 56.1668 61.2742 60.5779C61.2742 64.989 64.7706 68.565 69.0836 68.565Z" fill="white"/>
</mask>
<g mask="url(#mask1_112_1777)">
<path d="M74.6088 75.6422L75.5304 80.8436C68.8516 81.7416 62.6779 80.0879 62.6779 80.0879L62.9911 76.7778L63.1656 74.9368C61.8365 74.5087 60.333 70.328 60.333 70.328C60.333 70.328 61.271 68.9224 63.0131 67.222C64.4161 65.8509 66.1826 64.9133 68.0998 64.6036C69.8897 64.3143 71.6611 64.5669 73.2347 65.5701C73.4559 65.7111 73.6844 65.8798 73.9174 66.07C76.443 68.1335 79.4831 72.7641 79.4831 72.7641C77.3388 75.807 74.6088 75.6422 74.6088 75.6422Z" fill="#70D715"/>
<path d="M71.1699 64.6898C70.9899 65.2343 70.3226 65.6085 69.8171 65.7509C69.3374 65.8857 68.8295 65.8968 68.3485 65.7669C67.2647 65.474 67.2378 64.7876 67.2378 64.7876C67.4209 64.7269 67.5099 64.2496 67.5517 63.7355C67.6048 63.0875 67.5842 62.3826 67.5842 62.3826H70.4624C70.4624 62.3826 70.5469 63.2774 70.6382 63.9663C70.6571 64.1051 70.7045 64.2381 70.7785 64.3534C70.8441 64.4576 70.9299 64.5485 71.0342 64.617C71.1123 64.6691 71.1699 64.6898 71.1699 64.6898Z" fill="#FEC9AC"/>
<g opacity="0.5">
<path d="M70.7781 64.3534C69.7944 64.7173 68.6335 64.5985 67.8004 63.9531C67.7129 63.8853 67.6302 63.8129 67.551 63.7355C67.604 63.0875 67.5835 62.3826 67.5835 62.3826H70.4617C70.4617 62.3826 70.5461 63.2774 70.6375 63.9663C70.6567 64.1051 70.7042 64.2381 70.7781 64.3534Z" fill="#FFAB90"/>
</g>
<path d="M71.3475 65.5506C71.4082 65.607 71.3949 65.7533 71.2588 65.972C71.1228 66.1871 70.858 66.4775 70.4066 66.7269C69.6169 67.0937 68.7022 67.159 67.8706 66.9192C67.3983 66.7522 67.047 66.4789 66.9085 66.2146C66.7651 65.9488 66.8255 65.7786 66.9012 65.7576C67.0826 65.7212 67.2587 66.0037 68.0827 66.1425C68.7409 66.332 69.4623 66.2806 70.0836 65.9912C70.8444 65.708 71.2062 65.4161 71.3475 65.5506Z" fill="white"/>
<path d="M71.4278 61.3881C71.3504 61.9518 71.2384 62.5465 70.862 62.9657C70.5278 63.3375 70.0248 63.5144 69.5312 63.5383C69.2633 63.5515 68.9919 63.5233 68.739 63.4327C68.2255 63.2497 67.8285 62.8319 67.472 62.4134C67.3395 62.2589 67.2094 62.1013 67.0862 61.9382C66.9589 61.7695 66.7998 61.6303 66.6292 61.5079C66.6285 61.5072 66.6275 61.5069 66.6268 61.5061C66.4908 61.4084 66.3795 61.2778 66.2745 61.1476C66.1901 61.0438 66.1049 60.9335 66.0833 60.8022C66.0634 60.6834 66.0997 60.5593 66.167 60.4615C66.2085 60.4034 66.2584 60.3531 66.3153 60.311C66.2051 59.7012 66.2689 59.0565 66.5058 58.485C66.8211 57.724 67.4385 57.0993 68.1868 56.7868L70.9747 56.3394C70.9869 56.7657 71.1652 57.1646 71.2918 57.5699C71.6759 58.7922 71.6016 60.1154 71.4278 61.3881Z" fill="#FEC9AC"/>
<path d="M72.3817 57.1583C72.0283 56.9938 71.7241 56.7187 71.5214 56.3801C71.4381 56.241 71.3708 56.0911 71.2958 55.9477C71.2452 55.8517 71.1914 55.7579 71.1269 55.6716C70.9214 55.3976 70.6176 55.2131 70.296 55.1107C69.9733 55.0083 69.6339 54.9812 69.2966 54.9769C68.7716 54.9716 68.2389 55.0223 67.7446 55.2024C67.2489 55.3826 66.7916 55.7008 66.5024 56.1493C66.2959 56.4708 66.1829 56.8439 66.0733 57.2114C66.0015 57.454 65.93 57.6977 65.8762 57.9449C65.8403 58.1087 65.812 58.2739 65.797 58.4409C65.759 58.8604 65.8215 59.2903 66.0036 59.6682C66.125 59.92 66.2673 60.1544 66.3346 60.4445C66.3747 60.3011 66.5055 60.1976 66.6468 60.1619C66.8272 60.1155 67.0201 60.1641 67.19 60.2308C67.3176 60.2814 67.6096 60.4841 67.6096 60.4841C67.6096 60.4841 67.9047 59.5954 68.0006 59.3474C68.2644 58.6724 68.9948 58.2214 69.7016 58.2981C69.6015 58.3823 69.4222 58.3877 69.3956 58.5172L69.5708 58.5322C69.7699 58.5504 69.9695 58.5183 70.1592 58.4533C70.3333 58.3963 70.5273 58.3756 70.6706 58.4416C70.8869 58.5386 71.0913 58.6756 71.3244 58.707C71.6048 58.7438 71.8884 58.6175 72.0963 58.4212C72.2101 58.3138 72.3025 58.1865 72.382 58.0509V57.1583H72.3817Z" fill="#2E363A"/>
<g opacity="0.5">
<path d="M67.0664 61.2959C67.0726 61.3604 67.0221 61.4254 66.96 61.4328C66.9293 61.4371 66.9 61.4296 66.8714 61.4179C66.7723 61.3779 66.6962 61.2937 66.631 61.2077C66.5117 61.0515 66.4064 60.8702 66.4022 60.6719C66.4011 60.6094 66.4116 60.5423 66.4527 60.496C66.5107 60.4303 66.6129 60.426 66.6973 60.4496C66.8672 60.496 67.0074 60.6394 67.0548 60.8121L67.0664 61.2959Z" fill="#FFAB90"/>
</g>
<path d="M71.0702 57.2096C70.8602 57.3434 70.5884 57.297 70.3488 57.2332C69.9755 57.134 69.597 57.0013 69.2143 57.0509C68.8348 57.0983 68.4835 57.3366 68.2906 57.6731C68.2432 57.7573 68.2041 57.8468 68.1473 57.9242C68.0081 58.113 67.7729 58.2057 67.5431 58.2229C67.3121 58.24 67.0833 58.1904 66.8576 58.1408C66.6361 58.0934 66.416 58.0448 66.1955 57.9963C66.0891 57.9724 65.9845 57.9499 65.876 57.9446C65.9297 57.6977 66.0016 57.454 66.0731 57.2114C66.1826 56.8436 66.2956 56.4708 66.5021 56.1493C66.791 55.7008 67.2486 55.3826 67.7443 55.2024C68.239 55.0223 68.7713 54.9716 69.2963 54.9769C69.6336 54.9812 69.9734 55.0083 70.2957 55.1107C70.6174 55.2131 70.9208 55.3976 71.1267 55.6716C71.1908 55.7579 71.2449 55.8517 71.2955 55.9477C71.3143 56.1072 71.3461 56.2681 71.3576 56.4286C71.3799 56.7212 71.3136 57.0555 71.0702 57.2096Z" fill="#2E363A"/>
<path d="M68.4887 59.8066C68.4775 59.7998 68.4758 59.7744 68.4936 59.7327C68.5117 59.6917 68.5501 59.6328 68.6237 59.5789C68.7524 59.4944 68.9181 59.4676 69.066 59.5079C69.1525 59.5365 69.2066 59.58 69.2359 59.6135C69.2652 59.6478 69.2711 59.6728 69.262 59.6828C69.2422 59.707 69.1752 59.6596 69.0349 59.6332C68.9181 59.6021 68.7925 59.6221 68.6903 59.6885C68.5651 59.7573 68.5159 59.8237 68.4887 59.8066Z" fill="#4F2D2A"/>
<path d="M70.2958 59.4354C70.2787 59.4187 70.3164 59.3323 70.4678 59.2496C70.5993 59.191 70.7444 59.1679 70.8871 59.1825C71.0556 59.2139 71.1173 59.2842 71.1058 59.3063C71.0936 59.3345 71.0179 59.3152 70.8745 59.3113C70.7538 59.2988 70.6289 59.3188 70.5177 59.3684C70.3827 59.4169 70.3167 59.459 70.2958 59.4354Z" fill="#4F2D2A"/>
<path d="M69.7065 61.6373C69.7173 61.6273 69.7529 61.6565 69.8196 61.704C69.8527 61.7265 69.8959 61.7532 69.9465 61.7643C69.9947 61.775 70.0637 61.7657 70.0993 61.7254C70.1635 61.6662 70.1175 61.4874 70.1014 61.3486C70.0787 61.2031 70.0491 61.0589 70.0125 60.9162C69.935 60.578 69.8858 60.4103 69.9137 60.3989C69.9368 60.3889 70.032 60.5405 70.1346 60.8834C70.1722 61.03 70.2029 61.1785 70.2263 61.3283C70.2382 61.4036 70.2476 61.4774 70.2559 61.5549C70.2594 61.5945 70.2615 61.6373 70.2539 61.6836C70.2465 61.7297 70.2256 61.78 70.1883 61.8174C70.0944 61.9006 69.9894 61.8913 69.9176 61.8674C69.8443 61.8396 69.8004 61.7964 69.7693 61.7618C69.71 61.6901 69.6968 61.6462 69.7065 61.6373Z" fill="#4F2D2A"/>
<path d="M69.9078 62.4748C69.9109 62.4872 69.8844 62.5101 69.822 62.53C69.7602 62.5497 69.6608 62.5693 69.5286 62.5547C69.3067 62.5201 69.0943 62.4173 68.9377 62.2439C68.8501 62.1362 68.8205 62.0252 68.8243 61.9539C68.8278 61.8814 68.8522 61.8518 68.8641 61.8547C68.8955 61.8586 68.87 61.9899 69.0319 62.1579C69.1623 62.3031 69.3524 62.398 69.5467 62.4269C69.7773 62.4701 69.9005 62.4412 69.9078 62.4748Z" fill="#4F2D2A"/>
<path d="M70.8877 60.3116C70.8877 60.4586 70.8228 60.5777 70.7429 60.5777C70.663 60.5777 70.5981 60.4586 70.5981 60.3116C70.5981 60.1646 70.663 60.0454 70.7429 60.0454C70.8228 60.0454 70.8877 60.1646 70.8877 60.3116Z" fill="#4F2D2A"/>
<path d="M69.1892 60.4581C69.1892 60.605 69.1243 60.7242 69.0444 60.7242C68.9645 60.7242 68.8997 60.605 68.8997 60.4581C68.8997 60.3111 68.9645 60.1919 69.0444 60.1919C69.1243 60.1919 69.1892 60.3111 69.1892 60.4581Z" fill="#4F2D2A"/>
<path d="M63.166 74.9358C63.166 74.9358 62.8573 77.6637 59.2276 78.2167C55.598 78.7679 53.5242 67.7729 53.5242 67.7729C53.5242 67.7729 54.646 67.0661 55.1804 66.6572C55.2432 66.6572 58.1135 72.4898 58.2656 72.8005C58.4159 73.113 60.3328 70.3273 60.3328 70.3273L63.166 74.9358Z" fill="#FEC9AC"/>
</g>
<path d="M102.603 54.1265H80.7713C80.3031 54.1265 79.9236 53.7383 79.9236 53.2595C79.9236 52.7807 80.3031 52.3926 80.7713 52.3926H102.603C103.071 52.3926 103.451 52.7807 103.451 53.2595C103.451 53.7383 103.071 54.1265 102.603 54.1265Z" fill="#D1DCF8"/>
<path d="M102.603 57.7469H80.7713C80.3031 57.7469 79.9236 57.3587 79.9236 56.8799C79.9236 56.4011 80.3031 56.0129 80.7713 56.0129H102.603C103.071 56.0129 103.451 56.4011 103.451 56.8799C103.451 57.3587 103.071 57.7469 102.603 57.7469Z" fill="#D1DCF8"/>
<path d="M89.9879 59.634H80.7713C80.3031 59.634 79.9236 60.0222 79.9236 60.501C79.9236 60.9798 80.3031 61.368 80.7713 61.368H89.9879C90.456 61.368 90.8355 60.9798 90.8355 60.501C90.8355 60.0222 90.456 59.634 89.9879 59.634Z" fill="#D1DCF8"/>
<path d="M29.9419 111.189H26.074V117.631H29.9419V111.189Z" fill="#FEC9AC"/>
<path d="M26.074 112.104V114.382C27.3664 114.461 28.6686 114.369 29.9419 114.106V112.104H26.074Z" fill="#FFAB90"/>
<path d="M24.5882 120H36.8696C37.1623 120 37.4299 119.874 37.6242 119.666C37.8185 119.458 37.9392 119.172 37.9392 118.858C37.9392 118.381 37.6622 117.954 37.245 117.784C35.9526 117.265 33.6924 116.689 33.2149 116.177C32.5751 115.495 31.4578 114.353 30.6586 114.411C29.8594 114.469 29.3822 115.836 28.1564 116.634C27.2875 117.2 26.3484 115.802 25.8803 114.943C25.7212 114.653 25.3232 114.65 25.1735 114.943C24.1807 116.863 24.5882 120 24.5882 120Z" fill="#2E363A"/>
<path d="M15.7644 111.189H11.8965V117.631H15.7644V111.189Z" fill="#FEC9AC"/>
<path d="M15.7644 110.775V114.382C14.4719 114.461 13.1697 114.369 11.8965 114.106V110.776H15.7644V110.775Z" fill="#FFAB90"/>
<path d="M17.2507 120H4.96919C4.67652 120 4.40896 119.874 4.21466 119.666C4.02036 119.458 3.89966 119.172 3.89966 118.858C3.89966 118.381 4.17663 117.954 4.59384 117.784C5.88628 117.265 8.14639 116.689 8.62395 116.177C9.26371 115.495 10.381 114.353 11.1802 114.411C11.9794 114.469 12.4566 115.836 13.6824 116.634C14.5514 117.2 15.4904 115.802 15.9586 114.943C16.1176 114.653 16.5157 114.65 16.6653 114.943C17.6581 116.863 17.2507 120 17.2507 120Z" fill="#2E363A"/>
<path d="M32.563 112.474C32.563 112.474 29.4954 112.724 26.8997 112.605C26.5372 112.59 26.1839 112.565 25.8486 112.534C24.9012 112.437 24.1062 112.275 23.6796 112.001C22.0254 110.945 22.1565 76.0244 22.1565 76.0244C22.1565 76.0244 18.1596 111.948 17.4895 112.31C17.2456 112.441 16.2769 112.387 15.0888 112.219C13.002 111.92 10.2358 111.257 9.54122 110.602C8.80692 109.911 9.69052 86.0697 10.3456 70.5846C10.5863 64.8363 10.7995 60.2375 10.8849 58.4055C10.9094 57.8478 10.9247 57.5457 10.9247 57.5457L12.3413 57.6049L33.3706 58.5022C33.5624 59.0848 33.6601 61.219 33.6873 64.3286C33.815 78.414 32.563 112.474 32.563 112.474Z" fill="#3A4146"/>
<path d="M33.687 64.328C28.752 64.8607 23.8533 65.7487 19.0401 66.9795C16.4263 67.6496 13.8096 68.4312 11.485 69.8241C11.095 70.0578 10.7144 70.31 10.3457 70.5844C10.5864 64.836 10.7995 60.2372 10.885 58.4052C11.1316 58.2589 11.3786 58.1155 11.6284 57.9814C11.8628 57.8536 12.1007 57.7291 12.341 57.6042L33.3703 58.5015C33.5622 59.0841 33.6598 61.2187 33.687 64.328Z" fill="#2E363A"/>
<path d="M34.5795 49.2445L36.533 60.2688C22.3772 62.1725 9.29165 58.6672 9.29165 58.6672C9.38339 57.6986 8.93444 62.4397 10.3256 47.7492C7.5084 46.842 4.32178 37.9808 4.32178 37.9808C4.32178 37.9808 6.3098 35.0017 10.0022 31.3973C12.9761 28.4913 16.7201 26.5041 20.7837 25.848C24.5773 25.2344 28.3318 25.7702 31.6677 27.8962C32.1366 28.1945 32.6208 28.5523 33.1147 28.9559C38.4683 33.3299 44.9117 43.1444 44.9117 43.1444C40.3656 49.5934 34.5795 49.2445 34.5795 49.2445Z" fill="#70D715"/>
<path d="M34.4471 48.7528C34.4471 48.7528 26.111 51.6391 18.8883 51.5638C15.4157 51.5278 12.199 50.8082 10.2913 48.7528L11.1592 40.8289C11.1592 40.8289 18.8618 43.1886 28.7077 41.7094C30.1055 41.4989 31.5448 41.2117 33.0131 40.8289L34.4471 48.7528Z" fill="white"/>
<path d="M62.7498 56.3834C62.3592 56.7901 46.8342 55.1671 45.4483 54.2231C44.062 53.2755 37.5325 49.4744 37.5325 49.4744L43.0458 43.6765C43.0458 43.6765 46.1777 46.459 46.8485 47.0883C47.519 47.7141 62.5081 53.2684 62.5081 53.2684C62.5081 53.2684 63.1437 55.9731 62.7498 56.3834Z" fill="#FEC9AC"/>
<path d="M34.5796 49.2446L36.5331 60.2692C25.9518 62.9768 9.36431 59.5867 9.29175 58.6677L9.95593 51.6514C10.6449 51.813 11.3412 51.9432 12.0434 52.0374C15.1152 52.4473 18.3416 52.1102 21.0985 50.6617C23.9474 49.1661 26.1346 46.5755 27.7065 43.7206C29.2769 40.8657 30.2886 37.7322 31.2908 34.6197C31.8981 32.7324 32.5072 30.8436 33.1148 28.9563C38.4684 33.3303 44.9118 43.1448 44.9118 43.1448C40.3657 49.5935 34.5796 49.2446 34.5796 49.2446Z" fill="#70D715"/>
<path d="M27.2897 26.0309C26.9084 27.1851 25.3508 30.5063 24.3378 30.974C22.8392 31.6665 18.4746 26.6428 18.9549 26.2375C19.3428 26.1094 19.5319 25.0969 19.6205 24.0076C19.7325 22.6344 19.6892 21.1399 19.6892 21.1399H25.79C25.79 21.1399 25.969 23.0361 26.1629 24.4964C26.2456 25.1011 26.5774 25.5967 27.0022 25.8764C27.1679 25.9863 27.2897 26.0309 27.2897 26.0309Z" fill="#FEC9AC"/>
<g opacity="0.5">
<path d="M26.4603 25.3178C24.3753 26.0892 21.9143 25.8377 20.1488 24.4698C19.9633 24.326 19.7878 24.1722 19.6204 24.0081C19.7323 22.6349 19.6891 21.1404 19.6891 21.1404H25.7899C25.7899 21.1404 25.9688 23.0366 26.1628 24.4969C26.2029 24.7912 26.3034 25.0731 26.4603 25.3178Z" fill="#FFAB90"/>
</g>
<path d="M36.8332 46.7038C36.7858 46.5215 37.4475 46.2482 38.6716 45.5789C39.7313 45.0587 40.7109 44.3655 41.5603 43.5346C42.6033 42.6006 43.0864 42.0633 43.2403 42.1756C43.369 42.263 43.1213 43.0023 42.1041 44.1183C41.1947 45.0073 40.1482 45.7476 39.0141 46.3049C37.6327 46.8858 36.8688 46.8619 36.8332 46.7038Z" fill="white"/>
<path d="M9.50629 44.0192C9.41176 44.1452 8.84176 43.939 8.01362 43.0959C7.36444 42.3403 6.82165 41.4901 6.40619 40.5785C5.98514 39.465 6.02944 38.8485 6.18432 38.8096C6.36188 38.7604 6.60642 39.2734 7.1199 40.2371C7.50362 41.0798 8.0063 41.8668 8.60629 42.5654C9.2635 43.4338 9.62455 43.8694 9.50629 44.0192Z" fill="white"/>
<path d="M34.4472 48.7528C34.4472 48.7528 26.1111 51.6391 18.8884 51.5638C19.6492 51.333 20.3898 51.0336 21.0987 50.6608C23.9476 49.1663 26.1345 46.5758 27.706 43.7201C28.067 43.0637 28.3998 42.3915 28.7075 41.7094C30.1053 41.4989 31.5446 41.2117 33.0128 40.8289L34.4472 48.7528Z" fill="#E4ECF9"/>
<path d="M25.8487 112.533C24.9013 112.437 24.1063 112.275 23.6797 112.001C22.0255 110.945 22.1566 76.0241 22.1566 76.0241C22.1566 76.0241 18.1597 111.948 17.4896 112.309C17.2457 112.44 16.277 112.387 15.0889 112.219C16.938 99.7813 21.6205 71.435 22.9059 71.4036L25.8487 112.533Z" fill="#2E363A"/>
<path d="M22.3076 54.3934C22.5573 55.1395 18.4829 57.2804 15.319 57.6058C14.5798 57.6807 13.5183 57.5923 12.2949 57.3593C14.6067 57.2355 16.9027 56.7717 19.0794 55.9643C20.1389 55.569 21.2482 55.0239 21.9172 54.1355C22.1241 54.1822 22.2657 54.2664 22.3076 54.3934Z" fill="#FFAB90"/>
<path d="M27.8369 19.0327C27.6726 20.2276 27.4354 21.488 26.6376 22.3768C25.9294 23.1649 24.863 23.5398 23.8172 23.5905C23.2493 23.6183 22.6744 23.5588 22.1376 23.3665C21.0496 22.9783 20.2082 22.0931 19.4522 21.2062C19.1714 20.8787 18.8952 20.5447 18.6346 20.199C18.3649 19.8412 18.028 19.5465 17.6662 19.2871C17.6645 19.286 17.6627 19.2846 17.6613 19.2835C17.3728 19.0763 17.1374 18.7998 16.9148 18.5236C16.7359 18.3035 16.5552 18.0702 16.5095 17.7919C16.4676 17.5396 16.544 17.2767 16.6867 17.0694C16.7742 16.9463 16.8803 16.8396 17.0006 16.7501C16.7669 15.4582 16.9019 14.0914 17.4042 12.8798C18.0723 11.2668 19.3814 9.94286 20.9676 9.28033L26.8769 8.33203C26.9023 9.23574 27.2805 10.0816 27.5487 10.9404C28.3626 13.5306 28.2056 16.3348 27.8369 19.0327Z" fill="#FEC9AC"/>
<path d="M30.2272 11.218C29.9903 11.7802 29.6931 12.329 29.2529 12.745C28.8127 13.1609 28.2116 13.4282 27.6168 13.3508C27.1229 13.2844 26.6893 12.9943 26.2313 12.7885C25.9274 12.649 25.5162 12.6925 25.1474 12.8138C24.7452 12.9508 24.3228 13.0197 23.9003 12.9804L23.5295 12.9487C23.5853 12.6743 23.9652 12.6629 24.1777 12.4845C22.6805 12.3222 21.1316 13.2776 20.5728 14.7086C20.3694 15.2345 19.7436 17.1179 19.7436 17.1179C19.7436 17.1179 19.1244 16.6884 18.8541 16.5806C18.4941 16.439 18.0852 16.3362 17.7033 16.4343C17.4036 16.5096 17.1266 16.729 17.0419 17.0334C16.8989 16.4183 16.5978 15.9213 16.34 15.3876C15.9535 14.5866 15.8216 13.6754 15.9019 12.7863C15.9797 11.9069 16.2416 11.0125 16.4876 10.1805C16.7199 9.40127 16.9592 8.6103 17.3973 7.92922C18.0095 6.97842 18.9797 6.30412 20.03 5.92237C21.0783 5.54063 22.2067 5.43324 23.3199 5.44465C24.035 5.45393 24.7546 5.51101 25.4384 5.72829C26.12 5.94521 26.7636 6.33623 27.1993 6.9167C27.5446 7.37979 27.7389 7.92387 28.0351 8.41836C28.4687 9.14297 29.1214 9.73057 29.8787 10.0777C30.0127 10.1394 30.1557 10.1965 30.252 10.3132C30.4529 10.5551 30.3521 10.9254 30.2272 11.218Z" fill="#2E363A"/>
<g opacity="0.5">
<path d="M18.5924 18.836C18.6056 18.973 18.4985 19.1104 18.3667 19.1264C18.3018 19.1357 18.2393 19.1196 18.179 19.0943C17.969 19.0098 17.8082 18.8314 17.6693 18.6487C17.4168 18.3173 17.1932 17.9334 17.1845 17.5127C17.1824 17.38 17.2047 17.2384 17.2919 17.1403C17.4147 17.0008 17.6317 16.9919 17.8103 17.0422C18.1703 17.1403 18.4675 17.4442 18.5679 17.8103L18.5924 18.836Z" fill="#FFAB90"/>
</g>
<path d="M27.0782 10.1758C26.6334 10.4591 26.0568 10.361 25.5496 10.2261C24.7584 10.016 23.9561 9.73486 23.1447 9.83975C22.3403 9.94036 21.5958 10.4455 21.187 11.1587C21.0865 11.3371 21.0039 11.5266 20.8832 11.6914C20.5881 12.0913 20.0899 12.2879 19.6026 12.3247C19.1132 12.3611 18.6283 12.2562 18.15 12.1509C17.6809 12.0503 17.2138 11.9476 16.7467 11.8448C16.521 11.7945 16.2998 11.7463 16.0696 11.7349C16.1836 11.2115 16.3354 10.6949 16.4875 10.1805C16.7198 9.40127 16.9591 8.6103 17.3973 7.92922C18.0095 6.97842 18.9796 6.30412 20.0299 5.92237C21.0782 5.54063 22.2067 5.43324 23.3198 5.44465C24.0349 5.45393 24.7546 5.51101 25.4383 5.72829C26.1199 5.94521 26.7635 6.33623 27.1992 6.9167C27.3356 7.09973 27.4497 7.29845 27.5568 7.50181C27.5969 7.84003 27.6642 8.18075 27.6886 8.52111C27.735 9.14011 27.5944 9.84866 27.0782 10.1758Z" fill="#2E363A"/>
<path d="M21.6074 15.6803C21.5837 15.666 21.5798 15.6125 21.6175 15.5236C21.6555 15.4366 21.7371 15.3121 21.8934 15.1972C22.1662 15.0181 22.5178 14.9614 22.8311 15.0463C23.0142 15.1066 23.129 15.199 23.1914 15.27C23.2535 15.3428 23.2661 15.3952 23.2473 15.417C23.2051 15.4683 23.0627 15.3677 22.7655 15.3121C22.5178 15.2461 22.2513 15.2889 22.0354 15.4295C21.7692 15.5757 21.6646 15.7163 21.6074 15.6803Z" fill="#4F2D2A"/>
<path d="M25.4379 14.894C25.402 14.8584 25.4815 14.6753 25.8024 14.5002C26.0808 14.3764 26.3888 14.3271 26.6913 14.3582C27.0485 14.4245 27.1793 14.574 27.1552 14.6204C27.1291 14.6803 26.9693 14.6389 26.6655 14.6307C26.4094 14.6043 26.145 14.6464 25.9092 14.7517C25.6217 14.8544 25.4818 14.944 25.4379 14.894Z" fill="#4F2D2A"/>
<path d="M24.1883 19.5603C24.2109 19.5392 24.2866 19.601 24.4276 19.7016C24.498 19.7494 24.5894 19.8061 24.6969 19.8293C24.7991 19.8521 24.9452 19.8325 25.0206 19.7469C25.1566 19.6213 25.059 19.2428 25.0251 18.9484C24.9773 18.6402 24.9138 18.3341 24.8364 18.0319C24.6721 17.3148 24.5678 16.9594 24.6275 16.9355C24.6763 16.9148 24.8783 17.2359 25.0956 17.9623C25.2194 18.445 25.3021 18.912 25.3527 19.3851C25.36 19.4693 25.3649 19.5599 25.3482 19.6584C25.3325 19.7562 25.2882 19.8625 25.2093 19.9417C25.0105 20.1183 24.7879 20.0987 24.6355 20.0476C24.4799 19.9888 24.3871 19.8971 24.3215 19.8239C24.1956 19.6723 24.1677 19.5788 24.1883 19.5603Z" fill="#4F2D2A"/>
<path d="M24.6999 21.1165C24.7065 21.1426 24.65 21.1911 24.5178 21.2342C24.3866 21.2756 24.1763 21.3177 23.8962 21.2863C23.4259 21.2132 22.9759 20.9949 22.6439 20.6274C22.4586 20.399 22.3955 20.1636 22.4035 20.0123C22.4108 19.8589 22.4628 19.7961 22.4879 19.8022C22.5542 19.8104 22.5001 20.089 22.8437 20.4447C23.12 20.7522 23.5233 20.9535 23.9352 21.0152C24.4236 21.1065 24.6845 21.0455 24.6999 21.1165Z" fill="#4F2D2A"/>
<path d="M26.3847 17.3154C26.5544 17.3154 26.692 17.0627 26.692 16.7509C26.692 16.4392 26.5544 16.1865 26.3847 16.1865C26.215 16.1865 26.0774 16.4392 26.0774 16.7509C26.0774 17.0627 26.215 17.3154 26.3847 17.3154Z" fill="#4F2D2A"/>
<path d="M22.7846 17.6254C22.9544 17.6254 23.0919 17.3727 23.0919 17.061C23.0919 16.7493 22.9544 16.4966 22.7846 16.4966C22.6149 16.4966 22.4773 16.7493 22.4773 17.061C22.4773 17.3727 22.6149 17.6254 22.7846 17.6254Z" fill="#4F2D2A"/>
<path d="M14.9092 58.3947C15.4039 59.5877 16.7507 60.1447 17.9172 59.6384L48.8276 46.2287C54.2503 56.3036 66.35 60.7533 76.9285 56.1902C88.0047 51.4123 93.3936 38.2937 88.9616 26.8652C84.3437 14.9572 71.0764 9.32944 59.6074 14.305C49.0188 18.8985 43.7186 30.9064 47.0357 41.9086L16.1253 55.3182C14.9591 55.8241 14.4146 57.2016 14.9092 58.3947ZM61.0432 17.7661C70.4792 13.6724 81.3727 18.1771 85.3742 27.8253C89.3767 37.476 84.9723 48.6173 75.5363 52.7109C66.1027 56.8035 55.2092 52.2989 51.2067 42.6481C47.2052 32.9996 51.6096 21.8586 61.0432 17.7661Z" fill="#7444FD"/>
<g opacity="0.05">
<path d="M69.1675 16.2759L82.2307 47.7729C83.813 45.9298 85.0217 43.7981 85.8049 41.5087L76.0556 18.0016C73.9015 16.9866 71.5633 16.3936 69.1675 16.2759Z" fill="#64D3FF"/>
</g>
<g opacity="0.05">
<path d="M51.9885 26.1748L63.3323 53.5264C67.2327 54.6374 71.5164 54.4558 75.535 52.7101C76.9101 52.1136 78.1805 51.3676 79.3303 50.4981L65.2363 16.5151C63.8235 16.7552 62.417 17.1684 61.0419 17.7649C57.0205 19.5095 53.9158 22.5332 51.9885 26.1748Z" fill="#64D3FF"/>
</g>
<path d="M40.8138 42.7136L11.5632 54.8927C10.6873 55.2574 10.2687 56.2799 10.6252 57.1757L12.24 61.2326C12.5965 62.1284 13.5931 62.558 14.469 62.1934L43.7196 50.0142C44.5956 49.6496 45.0187 48.6289 44.6618 47.733L43.0471 43.6761C42.6909 42.7803 41.6898 42.3489 40.8138 42.7136Z" fill="#FE4C40"/>
<path d="M15.0075 59.7264C15.4351 58.6615 15.8761 57.6119 16.2211 56.5255C14.907 55.8291 8.06526 50.5463 8.12875 49.8734C8.12561 49.8609 8.12875 49.8485 8.13503 49.8331C8.43956 49.2131 9.44107 47.5455 9.59037 47.4146C7.59119 45.853 6.35457 42.6812 4.79911 39.4268C4.79911 39.4268 -0.955643 46.4245 0.138308 49.8238C0.27854 50.2662 0.47947 50.7243 0.747725 51.1885C2.52993 54.2792 10.174 59.2048 14.1891 59.9715C14.4001 60.0119 14.623 60.0636 14.8498 60.1203C14.9014 59.9901 14.9541 59.8592 15.0075 59.7264Z" fill="#FEC9AC"/>
<path d="M22.683 59.9351C22.5633 60.4898 22.3599 61.0478 21.9598 61.441C21.6755 61.7182 21.3075 61.8902 20.9395 62.0254C20.3454 62.2434 19.7091 62.3754 19.083 62.303C18.6117 62.2502 18.1596 62.0882 17.7267 61.8934C16.9324 61.5334 16.1897 61.071 15.46 60.5955C15.1854 60.4139 14.8791 60.2201 14.5579 60.0332L16.2211 56.5254C17.0897 56.9678 18.0947 57.1744 19.0087 56.8376C19.1733 56.7748 19.3704 56.7056 19.5155 56.8112C19.593 56.8672 19.6348 56.9664 19.6477 57.062C19.7091 57.4583 19.3927 57.8083 19.0568 58.0131C18.7565 58.1947 18.424 58.3103 18.0818 58.3599C18.873 58.7759 19.8124 58.7231 20.6841 58.8883C21.2977 59.0071 21.882 59.2351 22.4663 59.4631C22.5309 59.4895 22.602 59.5191 22.6505 59.5754C22.7283 59.6711 22.7088 59.8131 22.683 59.9351Z" fill="#FEC9AC"/>
<path d="M138.051 26.4638V34.6014C138.051 35.224 137.559 35.7277 136.95 35.7277H124.647C124.351 35.7277 124.081 35.6139 123.885 35.4191C123.795 35.3271 123.716 35.2243 123.657 35.1052C123.583 34.9535 123.541 34.7801 123.541 34.6018V26.4641C123.541 25.8415 124.039 25.3381 124.647 25.3381H136.95C137.559 25.3374 138.051 25.8412 138.051 26.4638Z" fill="white"/>
<path d="M138.051 26.4639V34.6015C138.051 34.867 137.961 35.116 137.807 35.3108C137.664 35.4842 137.479 35.6194 137.262 35.6843C137.167 35.7114 137.061 35.7275 136.95 35.7275H124.647C124.536 35.7275 124.43 35.7111 124.335 35.6786C124.16 35.6297 124.006 35.5434 123.885 35.4189C123.848 35.3811 123.816 35.3432 123.784 35.3051C123.736 35.2455 123.694 35.1752 123.657 35.1049C123.583 34.9533 123.541 34.7799 123.541 34.6015V26.4639C123.541 25.8413 124.039 25.3379 124.647 25.3379H136.95C137.559 25.3375 138.051 25.8413 138.051 26.4639Z" fill="#E4ECF9"/>
<path d="M137.808 35.3097C137.667 35.4859 137.479 35.6194 137.265 35.6836C136.91 35.3632 136.56 35.0371 136.21 34.7167C134.872 33.4452 133.556 32.1579 132.266 30.7851C131.775 31.2071 131.289 31.6292 130.798 32.0459C130.307 31.6292 129.816 31.2071 129.325 30.7851C128.035 32.1579 126.718 33.4455 125.381 34.7167C125.031 35.0371 124.682 35.3578 124.337 35.6782C124.159 35.6301 124.008 35.5448 123.882 35.4163C123.845 35.3789 123.814 35.3414 123.783 35.3043C124.227 34.8716 124.676 34.4388 125.131 34.0114C126.421 32.8148 127.716 31.6395 129.043 30.5335C128.578 30.1329 128.118 29.7215 127.659 29.2995L125.961 27.729C125.413 27.1895 124.849 26.6604 124.31 26.0889C124.922 26.4949 125.517 26.9437 126.123 27.3818L127.904 28.744C128.886 29.4918 129.842 30.2824 130.798 31.0783C131.748 30.2824 132.704 29.4918 133.681 28.744L135.462 27.3818C136.073 26.9437 136.669 26.4949 137.28 26.0889C136.742 26.6604 136.173 27.1895 135.624 27.729L133.937 29.2995C133.477 29.7162 133.018 30.1275 132.553 30.5335C133.874 31.6392 135.17 32.8148 136.465 34.0114C136.915 34.4388 137.364 34.8716 137.808 35.3097Z" fill="#D1DCF8"/>
<path d="M58.0268 60.3171C58.247 59.6376 57.0779 58.63 55.4156 58.0665C53.7533 57.503 52.2273 57.597 52.0071 58.2765C51.7869 58.956 52.9559 59.9636 54.6182 60.5271C56.2805 61.0906 57.8066 60.9965 58.0268 60.3171Z" fill="#FEC9AC"/>
</svg>
