<svg width="220" height="120" viewBox="0 0 220 120" fill="none" xmlns="http://www.w3.org/2000/svg">
<path d="M62.5103 34.4517H11.3572V68.9369H62.5103V34.4517Z" fill="white"/>
<path d="M62.6737 69.1039H11.1902V34.2849H62.677V69.1039H62.6737ZM11.5238 68.7701H62.3434V34.6187H11.5238V68.7701Z" fill="#EBEBEB"/>
<path d="M16.2991 37.0618C16.2991 37.7126 15.7717 38.24 15.1208 38.24C14.47 38.24 13.9426 37.7126 13.9426 37.0618C13.9426 36.4109 14.47 35.8835 15.1208 35.8835C15.7717 35.8835 16.2991 36.4109 16.2991 37.0618Z" fill="#37474F"/>
<path d="M21.1101 37.0618C21.1101 37.7126 20.5827 38.24 19.9319 38.24C19.281 38.24 18.7537 37.7126 18.7537 37.0618C18.7537 36.4109 19.281 35.8835 19.9319 35.8835C20.5827 35.8835 21.1101 36.4109 21.1101 37.0618Z" fill="#EBEBEB"/>
<path d="M25.9211 37.0618C25.9211 37.7126 25.3938 38.24 24.7429 38.24C24.0921 38.24 23.5647 37.7126 23.5647 37.0618C23.5647 36.4109 24.0921 35.8835 24.7429 35.8835C25.3938 35.8835 25.9211 36.4109 25.9211 37.0618Z" fill="#F3BA0E"/>
<path d="M62.5103 39.4814H11.3572V39.8152H62.5103V39.4814Z" fill="#EBEBEB"/>
<path d="M216.647 58.5103H165.494V92.9955H216.647V58.5103Z" fill="white"/>
<path d="M216.814 93.1623H165.327V58.3433H216.814V93.1623ZM165.661 92.8285H216.48V58.677H165.661V92.8285Z" fill="#EBEBEB"/>
<path d="M170.436 61.1201C170.436 61.771 169.909 62.2983 169.258 62.2983C168.607 62.2983 168.08 61.771 168.08 61.1201C168.08 60.4693 168.607 59.9419 169.258 59.9419C169.909 59.9419 170.436 60.4693 170.436 61.1201Z" fill="#37474F"/>
<path d="M175.247 61.1201C175.247 61.771 174.72 62.2983 174.069 62.2983C173.418 62.2983 172.891 61.771 172.891 61.1201C172.891 60.4693 173.418 59.9419 174.069 59.9419C174.72 59.9419 175.247 60.4693 175.247 61.1201Z" fill="#EBEBEB"/>
<path d="M180.058 61.1201C180.058 61.771 179.531 62.2983 178.88 62.2983C178.229 62.2983 177.702 61.771 177.702 61.1201C177.702 60.4693 178.229 59.9419 178.88 59.9419C179.531 59.9419 180.058 60.4693 180.058 61.1201Z" fill="#F3BA0E"/>
<path d="M216.647 63.54H165.494V63.8738H216.647V63.54Z" fill="#EBEBEB"/>
<path d="M47.303 68.2965C47.303 71.2938 44.8774 73.7136 41.8881 73.7136C41.7913 73.7136 41.7012 73.7136 41.6111 73.7069C41.6111 73.7069 32.1292 73.727 31.9757 73.727C28.983 73.727 26.5608 71.3004 26.5608 68.3099C26.5608 65.3159 28.9863 62.8928 31.9757 62.8928H41.5211C41.6445 62.8861 41.7646 62.8794 41.8881 62.8794C44.8774 62.8761 47.303 65.3026 47.303 68.2965Z" fill="#A6A6A6"/>
<path d="M32.0356 68.4732C32.039 68.2629 32.1157 68.0794 32.2225 67.9091C32.2692 67.8324 32.3226 67.7589 32.3726 67.6855L32.6996 67.3584C32.8264 67.2683 32.9498 67.1715 33.0799 67.0847C33.6037 66.7376 34.1843 66.5373 34.7948 66.4172C36.2161 66.1368 37.6374 66.1435 39.0587 66.4238C39.6626 66.544 40.2364 66.7409 40.7536 67.0814C40.887 67.1715 41.0171 67.2683 41.1473 67.3617L41.4642 67.6755C41.5443 67.8023 41.6344 67.9191 41.6978 68.0527C41.7578 68.1761 41.7845 68.3163 41.8312 68.4599C41.7812 68.4632 41.7578 68.4665 41.7345 68.4665C40.837 68.4665 39.9395 68.4699 39.042 68.4699C38.9886 68.4699 38.9586 68.4532 38.9352 68.4064C38.7618 68.096 38.4982 67.9225 38.1379 67.8991C37.3271 67.8491 36.5164 67.8457 35.7023 67.8991C35.3453 67.9225 35.0817 68.0994 34.9083 68.4098C34.8882 68.4465 34.8682 68.4732 34.8182 68.4732C33.9073 68.4732 32.9965 68.4732 32.0857 68.4732C32.069 68.4765 32.0557 68.4732 32.0356 68.4732Z" fill="white"/>
<path d="M32.0325 70.0484C32.0325 69.7314 32.0325 69.4143 32.0325 69.0972C32.0325 69.0738 32.0358 69.0471 32.0358 69.0304C32.9566 69.0304 33.8708 69.0271 34.795 69.0271C34.7916 69.0872 34.785 69.1573 34.785 69.2307C34.785 69.501 34.785 69.7714 34.785 70.0418C34.785 70.2754 34.6682 70.3922 34.4347 70.3922C33.7507 70.3922 33.0634 70.3956 32.3795 70.3956C32.1492 70.3922 32.0358 70.2787 32.0325 70.0484Z" fill="white"/>
<path d="M39.0589 70.0619C39.0622 69.7148 39.0756 69.371 39.0856 69.0238C39.9697 69.0238 40.8839 69.0205 41.8047 69.0205C41.8047 69.0372 41.8081 69.0572 41.8081 69.0806C41.8081 69.4044 41.8114 69.7248 41.8081 70.0452C41.8081 70.2655 41.6913 70.3823 41.4711 70.3823C40.7771 70.3823 40.0832 70.3856 39.3925 70.3823C39.1823 70.3856 39.0556 70.2688 39.0589 70.0619Z" fill="white"/>
<path d="M213.724 59.5847C213.424 59.1007 213.441 58.4966 213.734 58.0126C213.814 57.8791 213.891 57.7456 213.964 57.6088C214.038 57.4686 214.108 57.3318 214.175 57.1882C214.415 56.6776 214.909 56.3304 215.473 56.3137L217.408 56.2537L217.211 49.9487L215.262 50.0088C214.698 50.0255 214.185 49.7084 213.914 49.2144C213.768 48.9474 213.607 48.6837 213.434 48.4334C213.11 47.9628 213.054 47.3587 213.324 46.8547L214.235 45.1524L208.676 42.1719L207.766 43.8741C207.495 44.3781 206.961 44.6685 206.391 44.6551C206.084 44.6485 205.777 44.6585 205.473 44.6852C204.91 44.7352 204.362 44.4816 204.065 44.0009L203.038 42.3454L197.68 45.6698L198.704 47.322C198.998 47.7959 198.994 48.39 198.707 48.8673C198.624 49.0075 198.54 49.1477 198.464 49.2912C198.387 49.4347 198.314 49.5816 198.244 49.7284C198.007 50.2358 197.51 50.5662 196.949 50.5829L195.014 50.643L195.211 56.9479L197.139 56.8878C197.696 56.8711 198.22 57.1615 198.484 57.6522C198.644 57.9459 198.821 58.2296 199.011 58.5066C199.328 58.9606 199.358 59.558 199.094 60.0486L198.183 61.7509L203.742 64.7315L204.653 63.0292C204.923 62.5252 205.457 62.2348 206.031 62.2482C206.338 62.2549 206.644 62.2449 206.951 62.2182C207.515 62.1714 208.062 62.4218 208.363 62.9024L209.384 64.5546L214.742 61.2302L213.724 59.5847ZM204.389 58.283C201.21 57.0614 200.045 53.2063 202.02 50.4294C203.365 48.5402 205.88 47.7826 208.046 48.6137C211.225 49.8353 212.386 53.6803 210.411 56.4606C209.067 58.3531 206.554 59.1141 204.389 58.283Z" fill="#EBEBEB"/>
<path d="M191.441 40.9402C191.097 40.74 190.907 40.3628 190.927 39.9656C190.933 39.8588 190.933 39.7487 190.933 39.6419C190.933 39.5317 190.93 39.4216 190.927 39.3148C190.907 38.9176 191.097 38.5404 191.441 38.3435L192.615 37.6659L190.406 33.8342L189.232 34.5118C188.888 34.7121 188.465 34.692 188.131 34.4717C187.947 34.3516 187.757 34.2414 187.56 34.1413C187.207 33.9611 186.98 33.6039 186.98 33.2068V31.855H182.563V33.2068C182.563 33.6039 182.336 33.9611 181.982 34.1413C181.785 34.2414 181.595 34.3516 181.411 34.4717C181.078 34.6887 180.654 34.7087 180.31 34.5118L179.136 33.8342L176.927 37.6626L178.105 38.3435C178.449 38.5404 178.636 38.9176 178.616 39.3148C178.609 39.4216 178.609 39.5317 178.609 39.6385C178.609 39.7487 178.612 39.8555 178.616 39.9623C178.636 40.3595 178.445 40.74 178.102 40.9369L176.924 41.6144L179.133 45.4428L180.304 44.7652C180.647 44.565 181.071 44.585 181.405 44.802C181.588 44.9221 181.778 45.0323 181.975 45.1324C182.329 45.3126 182.556 45.6698 182.556 46.0669V47.4187H186.973V46.0669C186.973 45.6698 187.2 45.3126 187.554 45.1324C187.751 45.0323 187.941 44.9221 188.124 44.802C188.458 44.585 188.882 44.565 189.225 44.7652L190.396 45.4428L192.605 41.6144L191.441 40.9402ZM184.775 43.2599C182.776 43.2599 181.155 41.6378 181.155 39.6385C181.155 37.6392 182.776 36.0204 184.775 36.0204C186.773 36.0204 188.391 37.6392 188.391 39.6385C188.391 41.6378 186.773 43.2599 184.775 43.2599Z" fill="#EBEBEB"/>
<path d="M31.2185 30.6901L33.4272 34.5185L34.5982 33.8409C34.9419 33.6407 35.3656 33.6607 35.6992 33.8776C35.8827 33.9978 36.0729 34.1079 36.2698 34.2081C36.6234 34.3883 36.8503 34.7454 36.8503 35.1426V36.4944H41.2676V35.1426C41.2676 34.7454 41.4945 34.3883 41.8482 34.2081C42.045 34.1079 42.2352 33.9978 42.4187 33.8776C42.7523 33.6607 43.176 33.6407 43.5197 33.8409L44.6908 34.5185L46.8994 30.6901L45.7217 30.0126C45.378 29.8123 45.1879 29.4351 45.2079 29.038C45.2146 28.9312 45.2146 28.821 45.2146 28.7142C45.2146 28.6041 45.2112 28.4973 45.2079 28.3904C45.1879 27.9933 45.3747 27.6194 45.7184 27.4192L46.8961 26.7383L44.6874 22.9099L43.513 23.5875C43.1694 23.7877 42.7457 23.7677 42.412 23.5474C42.2285 23.4273 42.0383 23.3171 41.8415 23.217C41.4878 23.0368 41.261 22.6796 41.261 22.2824V20.9307H36.8436V22.2824C36.8436 22.6796 36.6167 23.0368 36.2631 23.217C36.0662 23.3171 35.8761 23.4273 35.6926 23.5474C35.3589 23.7644 34.9352 23.7844 34.5916 23.5875L33.4172 22.9099L31.2085 26.7383L32.3829 27.4158C32.7265 27.6128 32.9167 27.9899 32.8967 28.3871C32.89 28.4939 32.89 28.6041 32.89 28.7142C32.89 28.8243 32.8934 28.9312 32.8967 29.038C32.9167 29.4351 32.7265 29.8156 32.3829 30.0126L31.2185 30.6901ZM35.439 28.7109C35.439 26.7116 37.0571 25.0928 39.0556 25.0928C41.0541 25.0928 42.6756 26.7116 42.6756 28.7109C42.6756 30.7102 41.0541 32.3323 39.0556 32.3323C37.0571 32.3323 35.439 30.7102 35.439 28.7109Z" fill="#EBEBEB"/>
<path d="M119.34 34.1777C121.958 23.658 115.555 13.0085 105.039 10.3915C94.5233 7.77439 83.8761 14.1807 81.2581 24.7004C78.6401 35.2201 85.0427 45.8696 95.5587 48.4867C106.075 51.1037 116.722 44.6974 119.34 34.1777Z" fill="#EBEBEB"/>
<path d="M114.822 33.0837C116.832 25.0571 111.958 16.9201 103.934 14.9093C95.9107 12.8985 87.7771 17.7753 85.7671 25.802C83.7571 33.8286 88.6319 41.9655 96.6553 43.9763C104.679 45.9871 112.812 41.1103 114.822 33.0837Z" fill="white"/>
<path d="M110.676 32.0535C112.12 26.3191 108.645 20.4989 102.913 19.0536C97.1806 17.6084 91.3628 21.0854 89.9181 26.8197C88.4734 32.554 91.949 38.3743 97.681 39.8195C103.413 41.2648 109.231 37.7878 110.676 32.0535Z" fill="#EBEBEB"/>
<path d="M106.032 30.8927C106.836 27.7248 104.92 24.5049 101.754 23.7009C98.5868 22.8969 95.3682 24.8132 94.5646 27.9812C93.7609 31.1491 95.6765 34.3691 98.8431 35.1731C102.01 35.9771 105.228 34.0607 106.032 30.8927Z" fill="white"/>
<path d="M102.892 30.1021C103.257 28.6695 102.392 27.2121 100.96 26.8468C99.5281 26.4815 98.0713 27.3466 97.7061 28.7792C97.3409 30.2117 98.2058 31.6692 99.6377 32.0345C101.07 32.3998 102.527 31.5346 102.892 30.1021Z" fill="#EBEBEB"/>
<path d="M124.047 5.13916L101.572 27.6238L102.112 28.1642L124.587 5.67962L124.047 5.13916Z" fill="#C7C7C7"/>
<path d="M103.234 28.6545L100.298 29.4422L101.082 26.5017L103.234 28.6545Z" fill="#A6A6A6"/>
<path d="M128.08 3.94519L123.866 8.16072L120.56 9.16871L121.567 5.86437L125.784 1.64551L124.773 4.95318L128.08 3.94519Z" fill="#A6A6A6"/>
<path d="M0 109.814L27.5017 109.734L55 109.704L110 109.647L165 109.704L192.498 109.734L220 109.814L192.498 109.898L165 109.924L110 109.981L55 109.924L27.5017 109.898L0 109.814Z" fill="#263238"/>
<path d="M69.5899 111.783H23.6114L20.0515 80.5425H66.03L69.5899 111.783Z" fill="#37474F"/>
<path d="M67.0843 109.687H25.6399L22.5571 82.6382H64.0048L67.0843 109.687Z" fill="white"/>
<path d="M95.5801 109.687H48.3872V111.783H95.5801V109.687Z" fill="#37474F"/>
<path d="M95.577 109.687H71.8254V111.783H95.577V109.687Z" fill="#263238"/>
<path d="M52.4444 82.6382L25.6166 109.477L24.8159 102.458L44.6239 82.6382H52.4444Z" fill="#EBEBEB"/>
<path d="M66.3837 103.525L60.2247 109.687H52.4043L65.5829 96.5029L66.3837 103.525Z" fill="#EBEBEB"/>
<path d="M27.6917 82.6382L23.0841 87.2476L22.8105 84.8544L25.0259 82.6382H27.6917Z" fill="#EBEBEB"/>
<path d="M65.069 91.9907L47.3795 109.687H44.7104L64.7954 89.5942L65.069 91.9907Z" fill="#EBEBEB"/>
<path d="M31.1684 82.6382L23.4381 90.3717L23.3713 89.7709L30.5012 82.6382H31.1684Z" fill="#EBEBEB"/>
<path d="M56.2779 82.6382L29.24 109.687H28.5728L55.6107 82.6382H56.2779Z" fill="#EBEBEB"/>
<path d="M64.6186 88.0354L42.9756 109.687H42.3083L64.5519 87.4346L64.6186 88.0354Z" fill="#EBEBEB"/>
<path d="M150.136 111.783H196.115L199.675 80.5425H153.696L150.136 111.783Z" fill="#37474F"/>
<path d="M152.642 109.687H194.09L197.172 82.6382H155.725L152.642 109.687Z" fill="white"/>
<path d="M171.342 109.687H124.149V111.783H171.342V109.687Z" fill="#37474F"/>
<path d="M147.901 109.687H124.149V111.783H147.901V109.687Z" fill="#263238"/>
<path d="M195.978 93.1152L194.971 101.947L187.234 109.687H179.413L195.978 93.1152Z" fill="#EBEBEB"/>
<path d="M181.281 82.6382L154.247 109.687H152.642L153.443 102.668L173.464 82.6382H181.281Z" fill="#EBEBEB"/>
<path d="M163.669 82.6382L154.704 91.6066L155.048 88.5927L161 82.6382H163.669Z" fill="#EBEBEB"/>
<path d="M193.159 82.6382L166.121 109.687H163.452L190.49 82.6382H193.159Z" fill="#EBEBEB"/>
<path d="M196.362 89.7441L196.278 90.4985L177.098 109.687H176.43L196.362 89.7441Z" fill="#EBEBEB"/>
<path d="M195.958 82.6382L168.924 109.687H168.256L195.294 82.6382H195.958Z" fill="#EBEBEB"/>
<path d="M170.775 82.6382L153.786 99.6338L153.873 98.8795L170.108 82.6382H170.775Z" fill="#EBEBEB"/>
<path d="M66.3337 64.7349C72.0389 76.2533 80.4799 87.7484 82.7453 89.9212C88.8242 95.7589 105.052 99.9544 109.837 100.085C111.902 100.141 114.758 86.4166 113.236 84.8145C111.715 83.2124 91.6768 78.8567 90.6024 78.0323C89.8551 77.4615 80.2997 68.373 73.964 62.9759C66.0835 56.2738 64.8357 61.7109 66.3337 64.7349Z" fill="#F7A9A0"/>
<path d="M108.806 82.912L103.634 99.2501C103.634 99.2501 86.6754 94.7676 82.138 90.4185C77.6005 86.0695 68.202 70.4257 66.367 65.2756C64.532 60.1255 65.7264 56.0501 74.0239 62.7389C82.3215 69.4243 89.3879 76.2633 90.8592 77.3647C92.3339 78.4662 108.806 82.912 108.806 82.912Z" fill="#455A64"/>
<path d="M103.554 83.566C103.624 84.0233 104.048 84.3337 104.505 84.2669C104.962 84.1968 105.273 83.7729 105.206 83.3157C105.136 82.8584 104.712 82.548 104.255 82.6147C103.798 82.6848 103.484 83.1121 103.554 83.566Z" fill="#263238"/>
<path d="M99.4002 82.3677C99.4703 82.825 99.8941 83.1354 100.351 83.0687C100.809 82.9986 101.119 82.5747 101.052 82.1174C100.982 81.6602 100.558 81.3497 100.101 81.4165C99.6438 81.4866 99.3301 81.9138 99.4002 82.3677Z" fill="#263238"/>
<path d="M91.1229 95.2014C87.4095 93.7595 83.8696 92.0807 82.138 90.4218C77.6006 86.0694 68.202 70.4289 66.367 65.2755C65.1926 61.9812 65.256 59.1308 67.6248 59.2476L91.1229 95.2014Z" fill="#263238"/>
<path d="M39.2889 109.681L82.0945 109.691C82.2646 108.125 73.4566 64.4913 69.2662 59.0208C68.3687 57.8526 65.4093 57.5255 62.8937 57.8392C62.1964 57.9227 61.5358 58.0562 60.9586 58.2364C60.9453 58.2431 60.9219 58.2498 60.8952 58.2531C60.3113 58.4434 59.8142 58.677 59.4706 58.9507C52.4742 64.538 38.9519 109.297 39.2889 109.681Z" fill="#455A64"/>
<path d="M65.7832 68.8833L67.6049 65.3386L69.9537 67.902L69.3765 70.4553L67.0577 70.7524L65.7832 68.8833Z" fill="#263238"/>
<path d="M67.0579 70.7526L65.9502 96.8301L70.8346 105.455L73.3703 95.7487L69.3766 70.4556L67.0579 70.7526Z" fill="#263238"/>
<path d="M66.9908 64.8648C66.3169 64.8381 61.8461 61.3402 60.4715 58.6133C60.3781 58.4264 60.7251 56.5005 61.0321 54.1441C61.2156 52.7122 61.3824 51.1134 61.4324 49.6448C61.4424 49.3445 62.45 49.9319 62.45 49.9319L64.3351 50.4559L70.5741 52.1949C70.5741 52.1949 69.5665 55.2455 69.4964 57.8089C69.4931 58.0225 69.5064 58.2228 69.5398 58.413C69.5431 58.4397 69.5498 58.4731 69.5498 58.5131C69.6999 59.6647 68.0951 64.9082 66.9908 64.8648Z" fill="#F7A9A0"/>
<path d="M69.5399 58.4133C69.5433 58.44 69.5499 58.4734 69.5499 58.5134C69.2597 58.5435 68.9461 58.5501 68.6024 58.5335C62.4001 58.1863 61.8896 50.2693 61.8896 50.2693L64.3385 50.4595L70.5775 52.1985C70.5775 52.1985 69.57 55.2492 69.4999 57.8125C69.4932 58.0195 69.5099 58.2197 69.5399 58.4133Z" fill="#263238"/>
<path d="M59.9878 38.8441C59.0536 42.1351 60.9586 51.5474 63.3241 53.6101C66.7539 56.6007 72.2789 56.7876 74.7946 52.6822C77.2334 48.7037 74.531 36.481 71.8986 34.6152C68.0184 31.8683 61.369 33.9844 59.9878 38.8441Z" fill="#F7A9A0"/>
<path d="M69.3063 44.3247C69.2963 44.3013 69.2629 44.3647 69.2696 44.3914C69.4165 45.0222 69.4765 45.7699 68.9425 46.0936C68.9258 46.1037 68.9358 46.1337 68.9559 46.127C69.6367 45.8867 69.5466 44.8987 69.3063 44.3247Z" fill="#263238"/>
<path d="M68.6093 43.7743C67.5746 43.8978 67.8983 45.9605 68.8563 45.847C69.8042 45.7335 69.4771 43.6675 68.6093 43.7743Z" fill="#263238"/>
<path d="M73.0231 43.8475C73.0231 43.8208 73.0765 43.8708 73.0798 43.8975C73.1599 44.5384 73.3602 45.2626 73.971 45.3828C73.991 45.3861 73.9944 45.4195 73.971 45.4195C73.25 45.4295 72.993 44.4683 73.0231 43.8475Z" fill="#263238"/>
<path d="M73.487 43.0896C74.5017 42.8493 74.9089 44.8987 73.9676 45.1223C73.0397 45.3392 72.6359 43.2899 73.487 43.0896Z" fill="#263238"/>
<path d="M67.6484 42.9564C67.9188 42.8429 68.1491 42.6894 68.4027 42.5492C68.6898 42.389 68.9368 42.2922 69.0936 41.9885C69.1771 41.8249 69.0903 41.5679 68.9401 41.4711C68.5863 41.2441 68.1858 41.3543 67.832 41.5312C67.4482 41.7248 67.2012 41.9718 67.0243 42.3623C66.854 42.7428 67.2913 43.1099 67.6484 42.9564Z" fill="#263238"/>
<path d="M74.1214 41.9248C73.8276 41.9215 73.5573 41.8714 73.2669 41.8413C72.9398 41.8046 72.6761 41.8113 72.4125 41.591C72.2723 41.4709 72.2522 41.2038 72.3524 41.0536C72.5894 40.7099 73.0032 40.6531 73.3971 40.6798C73.8276 40.7099 74.1481 40.84 74.4651 41.1338C74.7722 41.4208 74.5085 41.9281 74.1214 41.9248Z" fill="#263238"/>
<path d="M69.6465 50.3495C69.8234 50.4763 70.007 50.6565 70.2439 50.6398C70.4709 50.6231 70.7146 50.483 70.9048 50.3695C70.9248 50.3595 70.9482 50.3761 70.9382 50.3995C70.8114 50.6699 70.4843 50.8801 70.1805 50.8735C69.8835 50.8668 69.6999 50.6398 69.5898 50.3862C69.5764 50.3528 69.6231 50.3294 69.6465 50.3495Z" fill="#263238"/>
<path d="M72.0831 48.7771C72.0831 48.7771 71.7393 49.4346 71.1753 49.7417C70.9683 49.8552 70.7347 49.9253 70.4777 49.8952C69.947 49.8418 69.8602 49.3745 69.8902 48.9607C69.9136 48.6202 70.0238 48.3098 70.0238 48.3098C70.0238 48.3098 70.8749 48.8906 72.0831 48.7771Z" fill="white"/>
<path d="M70.0204 48.33C70.4642 48.8273 71.038 49.0476 71.6252 49.071C71.8855 49.081 72.1557 49.0476 72.4126 48.9842C72.4627 48.9742 72.516 48.9609 72.5594 48.9442C72.6061 48.9308 72.6462 48.9175 72.6962 48.9008C72.7696 48.8774 72.7996 48.8107 72.803 48.7372V48.7339C72.7996 48.7105 72.7963 48.6905 72.7863 48.6705C72.7863 48.6705 72.7863 48.6705 72.7863 48.6671L72.7763 48.6104C72.7129 48.1164 72.5461 47.3754 72.5461 47.3754C72.7396 47.4355 73.7205 47.7059 73.6671 47.4522C73.2067 45.3428 72.6929 42.9997 71.7887 40.9971C71.762 40.9303 71.6586 40.9637 71.6753 41.0305C72.0389 43.0731 72.7596 45.039 73.1566 47.0884C72.8463 47.0216 72.3359 46.8915 72.0823 46.9382C72.0156 46.9682 72.426 48.3634 72.4393 48.5904C72.4393 48.5904 72.4426 48.6004 72.4393 48.6137C71.6286 48.8507 70.968 48.6972 70.0772 48.27C70.0171 48.2332 69.9737 48.2833 70.0204 48.33Z" fill="#263238"/>
<path d="M61.0957 46.187C63.3411 45.8499 63.1843 41.7045 63.1843 41.7045C63.1843 41.7045 66.951 40.5096 67.0878 37.519C67.0878 37.519 71.0914 39.3247 73.8206 37.8595C76.5497 36.3942 75.4688 33.2234 75.0484 32.5725C74.628 31.9217 73.2201 33.4503 73.2201 33.4503C73.2201 33.4503 72.7696 31.6313 72.2492 31.5178C71.7287 31.401 71.3584 32.5959 71.3584 32.5959C71.3584 32.5959 67.4648 31.8916 64.1118 32.4791C60.7587 33.0665 59.5877 36.7046 59.5877 36.7046C59.5877 36.7046 57.8427 37.3488 57.4424 38.6972C57.0387 40.0423 59.6611 46.4007 61.0957 46.187Z" fill="#263238"/>
<path d="M62.2766 41.865C65.3193 41.825 67.0109 39.552 67.0275 36.6281C67.0275 36.5914 67.0809 36.5881 67.0843 36.6248C67.3879 39.3016 65.3327 42.636 62.2699 42.0019C62.1931 41.9852 62.1965 41.865 62.2766 41.865Z" fill="#263238"/>
<path d="M59.6543 36.638C59.6876 36.6246 59.711 36.6747 59.681 36.6947C58.9036 37.2054 57.9861 37.636 57.5123 38.4804C56.9385 39.5051 57.2654 40.69 57.6825 41.6946C58.3297 43.2567 59.4708 45.2393 61.0589 45.9802C61.149 46.0236 61.0822 46.1571 60.9888 46.1204C59.1038 45.3494 57.6925 42.766 57.1753 40.8936C56.5982 38.7975 57.7492 37.3856 59.6543 36.638Z" fill="#263238"/>
<path d="M70.4773 37.8763C71.9086 38.4771 73.8637 38.2267 75.0214 37.1353C76.4294 35.8069 75.8322 34.0479 74.9314 32.6361C74.888 32.566 74.9814 32.4725 75.0448 32.536C76.1691 33.7275 76.5395 35.7335 75.4218 37.0619C74.2674 38.4337 71.9553 38.7341 70.3805 38.0732C70.2471 38.0198 70.3438 37.8195 70.4773 37.8763Z" fill="#263238"/>
<path d="M68.7757 48.0695C67.5412 48.1162 66.3802 47.3251 66.0165 46.0869C65.5861 44.6216 66.4235 43.0796 67.8882 42.6457C69.3529 42.2118 70.8943 43.0529 71.328 44.5181C71.7584 45.9834 70.921 47.5254 69.4563 47.9593C69.2294 48.0227 68.9992 48.0594 68.7757 48.0695ZM68.5788 42.9027C68.3853 42.9094 68.1851 42.9427 67.9916 42.9995C66.7238 43.3733 65.9965 44.7117 66.3702 45.9801C66.7438 47.2484 68.0817 47.976 69.3495 47.6022C70.6173 47.2284 71.3447 45.8899 70.971 44.6216C70.654 43.5502 69.6498 42.8626 68.5788 42.9027Z" fill="#455A64"/>
<path d="M75.0449 47.0548C73.9873 47.0949 72.9864 46.0468 72.7629 44.6183C72.6494 43.8974 72.7495 43.1864 73.0431 42.6157C73.3467 42.0249 73.8172 41.6511 74.3743 41.5643C74.9315 41.4775 75.492 41.6878 75.9624 42.1584C76.4162 42.6123 76.7265 43.2599 76.8366 43.9808C77.0701 45.4894 76.3495 46.8579 75.2284 47.0348C75.1684 47.0482 75.1083 47.0548 75.0449 47.0548ZM74.5712 41.9181C74.5245 41.9214 74.4778 41.9248 74.431 41.9314C73.9973 41.9982 73.6203 42.3019 73.3734 42.7859C73.1165 43.2899 73.0298 43.9207 73.1299 44.5616C73.3334 45.8699 74.2475 46.8145 75.1717 46.671C76.0925 46.5275 76.6764 45.3459 76.4729 44.0409C76.3728 43.3967 76.0992 42.8226 75.6989 42.4221C75.3552 42.0816 74.9615 41.9047 74.5712 41.9181Z" fill="#455A64"/>
<path d="M71.2816 44.8489L71.0012 44.6053C71.3617 44.1914 72.2495 43.5739 73.0272 44.1847L72.8003 44.4751C72.106 43.9277 71.315 44.8122 71.2816 44.8489Z" fill="#455A64"/>
<path d="M59.2072 47.4521L58.8569 47.3353C58.9137 47.1717 59.4141 45.7265 60.2115 45.4695C60.9555 45.2292 65.93 44.9221 66.1402 44.9121L66.1636 45.2826C64.7389 45.3694 60.9021 45.6364 60.3283 45.8233C59.7978 45.9935 59.3407 47.0583 59.2072 47.4521Z" fill="#455A64"/>
<path d="M62.5235 46.6041C62.5235 46.6041 60.2715 43.6335 58.9136 44.4513C57.559 45.2657 59.3373 49.6314 60.9855 50.1721C62.6336 50.7128 63.1675 49.1975 63.1675 49.1975L62.5235 46.6041Z" fill="#F7A9A0"/>
<path d="M59.4573 45.6897C59.4307 45.6897 59.4273 45.7264 59.4507 45.7331C60.6084 46.1503 61.249 47.185 61.7127 48.2631C61.3557 47.8559 60.8853 47.6423 60.3381 48.0661C60.3081 48.0895 60.3381 48.1329 60.3715 48.1262C60.8353 48.0094 61.1756 48.0762 61.5059 48.4366C61.7394 48.6936 61.9062 49.0207 62.0764 49.3211C62.1331 49.4213 62.3166 49.3578 62.2732 49.2444C62.2699 49.2343 62.2666 49.2277 62.2632 49.2177C62.2299 47.7658 61.0221 45.7731 59.4573 45.6897Z" fill="#263238"/>
<path d="M69.5732 58.6336L67.3445 64.1041L60.5917 57.1951L58.6699 59.4046C58.6699 59.4046 65.2659 70.3723 65.3093 69.8784L67.5647 65.1855L70.7976 68.4598L70.5507 60.2557L69.5732 58.6336Z" fill="#455A64"/>
<path d="M70.9045 64.3977C70.8178 63.0459 70.7711 61.6808 70.6209 60.3324C70.6143 60.2857 70.5409 60.2623 70.5275 60.319C70.2539 61.6241 70.6109 66.7975 70.6009 68.0392C70.5976 68.0358 70.5909 68.0292 70.5876 68.0258C70.4541 67.8856 67.5915 65.1454 67.5615 65.1888C67.0744 65.9331 65.4195 69.3509 65.3061 69.6613C64.2618 67.919 60.2649 61.584 59.0271 59.9385C58.9904 59.8918 58.917 59.9285 58.947 59.9853C59.8678 61.8243 65.1593 70.3522 65.2427 70.3288C65.2994 70.3722 67.3546 66.1634 67.6015 65.369C68.0853 65.9664 70.9746 69.0572 70.9846 68.8569C71.0513 67.4951 70.9913 65.7528 70.9045 64.3977Z" fill="#263238"/>
<path d="M83.5659 115.702L50.2323 119.003L50.1255 93.152L83.4591 89.8477L83.5659 115.702Z" fill="#F3BA0E"/>
<path d="M61.0054 89.2136L50.0955 90.295L50.1255 93.1521L61.7994 91.9939L61.0054 89.2136Z" fill="#F3BA0E"/>
<g opacity="0.1">
<path d="M83.5659 115.702L50.2323 119.003L50.1255 93.152L83.4591 89.8477L83.5659 115.702Z" fill="black"/>
<path d="M61.0054 89.2136L50.0955 90.295L50.1255 93.1521L61.7994 91.9939L61.0054 89.2136Z" fill="black"/>
</g>
<path d="M83.5426 115.705L51.3934 118.889L46.7959 92.9652L81.0637 90.0881L83.5426 115.705Z" fill="#EBEBEB"/>
<path d="M83.5426 115.705L50.576 118.969L45.6482 94.0532L80.303 90.6221L83.5426 115.705Z" fill="white"/>
<path d="M83.4824 115.712L50.0754 119.019L45.2009 94.6407L78.608 91.333L83.4824 115.712Z" fill="#F3BA0E"/>
<path d="M54.9899 62.8456C43.5963 73.1858 35.3755 91.0158 35.6257 95.8188C35.9593 102.164 47.4498 113.015 54.9332 116.155C56.8283 116.95 64.1483 101.45 61.3791 100.645C58.4564 99.794 51.697 93.6626 51.37 93.3856C50.666 92.7915 56.1143 79.2304 58.393 70.9996C60.962 61.7007 59.7843 58.4932 54.9899 62.8456Z" fill="#F7A9A0"/>
<path d="M50.7026 113.785C57.9492 119.019 67.8015 120.154 69.5031 119.983C70.951 119.84 71.6984 119.753 71.6984 119.753C74.3041 119.55 75.2383 118.311 75.2383 118.311C75.2383 118.311 78.3211 118.962 79.0217 117.163C79.8158 115.15 75.3317 114.63 73.0429 112.837C67.7948 108.729 61.4824 101.422 60.0878 100.084L50.7026 113.785Z" fill="#F7A9A0"/>
<path d="M64.5155 112.397C66.0835 113.575 67.5949 114.773 69.3131 115.735C71.2015 116.786 73.1933 117.483 75.2018 118.244C75.2652 118.268 75.2385 118.358 75.1718 118.345C71.315 117.547 67.1979 115.301 64.4054 112.53C64.3386 112.464 64.4354 112.34 64.5155 112.397Z" fill="#263238"/>
<path d="M61.5761 115.207C63.1676 116.269 65.9735 118.118 71.7154 119.69C71.7354 119.696 71.732 119.73 71.7087 119.727C67.8452 119.203 64.4988 117.781 61.476 115.371C61.3793 115.297 61.4694 115.137 61.5761 115.207Z" fill="#263238"/>
<path d="M67.0276 107.487C66.5572 106.683 66.9742 106.429 68.519 107.036C70.0837 107.647 75.6588 111.359 76.7898 109.296C77.9275 107.227 69.9503 102.103 67.3012 101.289C64.6521 100.468 60.0813 100.084 60.0813 100.084C61.4359 101.396 64.4086 104.884 67.0276 107.487Z" fill="#F7A9A0"/>
<path d="M50.9631 114.951L60.0413 99.7072C60.0413 99.7072 51.5469 93.7494 51.5069 93.152C51.4668 92.5545 57.4756 76.1297 59.294 68.0491C61.1123 59.9685 60.2115 56.1101 52.2576 65.1219C44.3037 74.1337 34.1044 89.2969 34.6449 95.7954C35.1854 102.294 50.9631 114.951 50.9631 114.951Z" fill="#455A64"/>
<path d="M57.7825 75.7757C57.4522 76.3531 57.0985 76.9205 56.8016 77.5146C56.7048 77.7082 56.6081 77.9018 56.5113 78.0954C56.5847 77.8618 56.6614 77.6281 56.7348 77.3945C57.2019 75.9292 57.6523 74.4573 58.046 72.972C58.056 72.9353 57.9993 72.9119 57.9826 72.9487C56.9317 75.472 56.0676 78.072 55.2068 80.6654C54.3393 83.2755 53.5253 85.9056 52.7479 88.5458C52.3142 90.021 51.8671 91.4996 51.5268 92.9983C51.5201 93.0317 51.5668 93.0417 51.5768 93.0116C52.0773 91.7266 52.501 90.4082 52.9347 89.1032C53.3684 87.7948 53.8055 86.4897 54.2326 85.1814C54.9098 83.092 55.5805 81.0025 56.2477 78.9098C56.5513 78.5326 56.7549 78.0854 56.9751 77.6515C57.282 77.044 57.5322 76.4132 57.8058 75.789C57.8158 75.7723 57.7925 75.759 57.7825 75.7757Z" fill="#263238"/>
<path d="M49.3516 111.122C49.2081 111.559 49.4484 112.03 49.8857 112.173C50.3229 112.317 50.7935 112.077 50.937 111.639C51.0806 111.202 50.8402 110.731 50.403 110.588C49.9658 110.444 49.4951 110.685 49.3516 111.122Z" fill="#263238"/>
<path d="M46.1788 108.188C46.0352 108.625 46.2756 109.096 46.7128 109.24C47.15 109.383 47.6207 109.143 47.7642 108.706C47.9077 108.268 47.6674 107.798 47.2301 107.654C46.7929 107.511 46.3223 107.748 46.1788 108.188Z" fill="#263238"/>
<path d="M40.4734 105.181C41.5243 106.079 42.5119 107.036 43.4895 108.004C43.9732 108.492 44.4603 108.979 44.9374 109.476C45.4179 109.97 45.885 110.474 46.3554 110.982C45.2411 110.157 44.2368 109.209 43.2559 108.241C42.2817 107.263 41.3375 106.259 40.4734 105.181Z" fill="#263238"/>
<path d="M156.693 36.3712C157.407 34.0748 160.529 29.0215 165.571 30.5469C172.764 32.723 172.49 46.965 175.723 51.7146C181.582 60.3259 181.051 68.2496 175.51 69.0006C169.301 69.8417 164.006 62.7591 165.564 48.6673C166.538 39.8557 164.42 35.7103 162.635 35.8071C160.85 35.9039 159.679 38.0367 159.679 38.0367L156.693 36.3712Z" fill="#263238"/>
<path d="M157.019 35.5131C157.48 34.4618 158.074 33.4638 158.781 32.5459C159.495 31.6347 160.366 30.8136 161.42 30.2529C162.461 29.6788 163.705 29.4352 164.903 29.592C166.084 29.7422 167.235 30.1695 168.219 30.8604C169.2 31.5546 169.981 32.4925 170.568 33.5072C171.152 34.5285 171.589 35.6199 171.923 36.7281C172.563 38.9576 172.86 41.254 172.99 43.5437C172.61 41.2807 172.146 39.0344 171.442 36.8816C171.059 35.8169 170.628 34.7722 170.044 33.8209C169.471 32.8697 168.743 32.0085 167.846 31.3877C166.958 30.7502 165.904 30.3564 164.82 30.1995C163.745 30.0259 162.638 30.2262 161.647 30.7035C160.656 31.1841 159.772 31.9117 159.021 32.7528C158.634 33.1667 158.287 33.6173 157.95 34.0746C157.626 34.5419 157.316 35.0225 157.019 35.5131Z" fill="#263238"/>
<path d="M165.978 43.8008C165.921 45.2093 165.707 46.6045 165.55 47.9996C165.37 49.3914 165.197 50.7833 165.067 52.1784C164.943 53.5703 164.843 54.9654 164.853 56.3572C164.856 57.7457 164.947 59.1376 165.217 60.486C165.477 61.8344 165.924 63.1495 166.658 64.291C167.399 65.4158 168.386 66.4338 169.477 67.2449C170.582 68.0526 171.863 68.6267 173.227 68.8503C173.908 68.9671 174.602 69.0005 175.296 68.9337C175.643 68.9037 175.987 68.847 176.327 68.7668C176.664 68.6867 177.008 68.5933 177.311 68.4164C176.721 68.8069 176.013 68.9838 175.319 69.104C174.619 69.2174 173.898 69.2341 173.187 69.164C172.477 69.0873 171.773 68.9104 171.099 68.66C170.425 68.403 169.788 68.0593 169.19 67.6587C168.593 67.2582 168.039 66.7909 167.532 66.2836L167.159 65.8964L166.805 65.4926C166.568 65.2222 166.345 64.9285 166.144 64.6248C165.34 63.4065 164.866 62.0113 164.583 60.6095C164.049 57.7824 164.213 54.9154 164.566 52.1217C164.743 50.7199 164.987 49.3347 165.24 47.9496C165.504 46.5677 165.777 45.1926 165.978 43.8008Z" fill="#263238"/>
<path d="M156.269 36.3711C156.249 35.7102 156.726 34.8624 157.153 34.7456C157.58 34.6288 160.743 35.9872 161.016 36.7983C161.287 37.6093 159.882 38.327 159.882 38.327L156.269 36.3711Z" fill="#455A64"/>
<path d="M158.711 65.5162C156.833 69.6082 142.843 88.8468 135.9 89.3708C128.634 89.9215 111.201 78.0393 109.533 77.0513C104.952 74.3378 117.724 61.8314 119.932 64.0509C123.622 67.7625 132.447 74.7616 134.606 74.2877C139.14 73.2931 148.588 65.356 155.288 61.2272C159.328 58.734 160.789 60.9869 158.711 65.5162Z" fill="#AD6359"/>
<path d="M110.627 77.6853C109.836 77.1613 103.481 73.6267 101.095 70.2189C99.8307 68.4132 96.918 63.0628 97.919 62.155C98.8331 61.3272 99.9908 62.5989 99.9908 62.5989C99.9908 62.5989 98.7264 60.1924 100.011 59.0576C101.295 57.9227 103.14 60.1657 103.14 60.1657C103.14 60.1657 102.023 57.6023 103.384 56.561C104.745 55.5196 106.223 58.0896 106.223 58.0896C106.223 58.0896 105.092 55.7933 106.573 55.4061C108.355 54.9422 109.963 59.4147 111.691 61.1336C112.085 61.5241 120.213 68.4799 120.213 68.4799L110.627 77.6853Z" fill="#AD6359"/>
<path d="M106.323 58.0928C107.514 61.3771 108.602 62.6087 111.318 64.7182C111.371 64.7582 111.321 64.8483 111.261 64.8083C108.412 62.9859 106.824 61.6375 106.16 58.1396C106.13 57.9693 106.267 57.936 106.323 58.0928Z" fill="#263238"/>
<path d="M103.244 60.1555C104.778 63.4599 105.946 64.805 108.629 67.2248C108.665 67.2582 108.612 67.3283 108.572 67.2949C105.743 65.1421 104.188 63.7636 103.09 60.259C103.037 60.1021 103.174 60.0053 103.244 60.1555Z" fill="#263238"/>
<path d="M100.128 62.7157C101.842 65.8064 103.06 67.3384 105.966 69.351C106.036 69.3978 105.973 69.5046 105.899 69.4612C102.737 67.6955 101.202 65.7964 100.041 62.7757C99.9607 62.5721 100.021 62.5187 100.128 62.7157Z" fill="#263238"/>
<path d="M122.965 67.4821C122.965 67.4821 121.16 63.4936 119.982 61.9148C118.805 60.3361 112.249 56.0772 111.248 57.439C109.957 59.2013 113.256 62.4055 115.078 63.7639C115.078 63.7639 112.085 67.8359 113.957 70.6496C115.829 73.4666 122.965 67.4821 122.965 67.4821Z" fill="#AD6359"/>
<path d="M111.051 58.0395C111.031 60.4961 113.537 62.1249 115.205 63.5768C115.332 63.6869 115.288 63.8271 115.185 63.9072C114.044 65.6962 112.956 68.5567 113.82 70.6227C113.847 70.6828 113.763 70.7262 113.73 70.6694C112.502 68.5767 113.343 65.6829 114.718 63.8004C112.983 62.3385 110.541 60.5962 111.028 58.0362C111.031 58.0262 111.051 58.0262 111.051 58.0395Z" fill="#263238"/>
<path d="M158.521 66.6775C156.342 71.0198 143.647 89.5441 136.788 89.8378C129.928 90.1316 115.558 84.2739 115.558 84.2739L126.205 68.0559C126.205 68.0559 133.575 73.3763 134.729 73.4196C135.883 73.463 151.361 63.2329 154.978 60.9867C158.591 58.7404 162.061 59.6149 158.521 66.6775Z" fill="#F3BA0E"/>
<path d="M125.277 84.3976C125.214 83.8936 125.254 83.403 125.314 82.9157C125.387 82.4317 125.484 81.9477 125.681 81.4805C125.744 81.9845 125.704 82.4751 125.644 82.9624C125.571 83.4464 125.474 83.927 125.277 84.3976Z" fill="white"/>
<path d="M146.466 81.1501C146.403 80.6461 146.443 80.1554 146.503 79.6681C146.577 79.1842 146.673 78.7002 146.87 78.2329C146.934 78.7369 146.894 79.2275 146.834 79.7149C146.764 80.1988 146.663 80.6795 146.466 81.1501Z" fill="white"/>
<path d="M147.641 68.8104C147.137 68.8738 146.647 68.8338 146.159 68.7737C145.676 68.7002 145.192 68.6035 144.725 68.4065C145.229 68.3431 145.719 68.3798 146.206 68.4432C146.69 68.5133 147.174 68.6101 147.641 68.8104Z" fill="white"/>
<path d="M130.562 74.4077C130.058 74.4711 129.567 74.4311 129.08 74.371C128.597 74.2975 128.113 74.2008 127.646 74.0038C128.15 73.9404 128.64 73.9805 129.127 74.0405C129.614 74.1106 130.095 74.2074 130.562 74.4077Z" fill="white"/>
<path d="M133.054 89.4741C133.034 89.5008 133.014 89.5275 132.991 89.5509C132.964 89.5476 132.934 89.5442 132.904 89.5375C132.954 89.5175 133.004 89.4941 133.054 89.4741Z" fill="white"/>
<path d="M121.013 78.573C121.327 78.1725 121.697 77.8521 122.088 77.5517C122.482 77.2613 122.892 76.9876 123.363 76.7974C123.053 77.1979 122.679 77.5183 122.288 77.8187C121.891 78.1124 121.484 78.3828 121.013 78.573Z" fill="white"/>
<path d="M138.77 74.8885C139.083 74.4879 139.454 74.1675 139.844 73.8671C140.238 73.5767 140.649 73.303 141.119 73.1128C140.809 73.5133 140.435 73.8337 140.045 74.1341C139.651 74.4245 139.24 74.6982 138.77 74.8885Z" fill="white"/>
<path d="M132.877 79.9751C133.278 80.2888 133.598 80.6627 133.899 81.0498C134.189 81.4437 134.463 81.8542 134.653 82.3248C134.253 82.0144 133.932 81.6406 133.632 81.2501C133.341 80.8529 133.068 80.4457 132.877 79.9751Z" fill="white"/>
<path d="M149.74 72.3682C150.14 72.6819 150.46 73.0557 150.761 73.4429C151.051 73.8368 151.325 74.2473 151.515 74.7179C151.115 74.4075 150.794 74.0337 150.494 73.6432C150.2 73.246 149.93 72.8388 149.74 72.3682Z" fill="white"/>
<path d="M128.507 70.6928C127.166 73.116 125.874 75.5659 124.426 77.9323C122.998 80.2654 121.53 82.6051 119.862 84.7746C119.832 84.8147 119.759 84.7713 119.786 84.7246C121.067 82.3047 122.531 79.9683 123.956 77.6319C125.391 75.2755 126.922 72.9792 128.357 70.6227C128.41 70.5326 128.557 70.5994 128.507 70.6928Z" fill="#263238"/>
<path d="M158.521 66.6773C156.342 71.0197 143.644 89.544 136.784 89.8377C135.119 89.9078 133.011 89.6174 130.775 89.1334C136.107 83.4293 151.017 67.3415 157.92 59.8951C160.015 59.7683 161.033 61.6641 158.521 66.6773Z" fill="#263238"/>
<path d="M145.866 109.681H186.129C186.129 109.681 170.475 70.0319 162.138 62.0548C159.872 59.8853 154.274 60.0455 151.531 63.7036C149.283 66.7009 143.04 78.6399 142.757 82.9322C142.483 87.2345 145.839 91.4633 145.839 91.4633L145.866 109.681Z" fill="#F3BA0E"/>
<path d="M151.01 94.8244C150.947 94.3204 150.987 93.8298 151.047 93.3424C151.121 92.8585 151.217 92.3745 151.414 91.9072C151.478 92.4112 151.438 92.9019 151.378 93.3892C151.304 93.8765 151.207 94.3571 151.01 94.8244Z" fill="white"/>
<path d="M178.675 102.287C178.612 101.783 178.652 101.293 178.712 100.805C178.786 100.321 178.882 99.8374 179.079 99.3701C179.143 99.8741 179.103 100.365 179.043 100.852C178.969 101.339 178.872 101.82 178.675 102.287Z" fill="white"/>
<path d="M161.307 108.809C161.243 108.305 161.283 107.815 161.343 107.327C161.417 106.843 161.513 106.359 161.71 105.892C161.774 106.396 161.734 106.887 161.674 107.374C161.6 107.861 161.503 108.342 161.307 108.809Z" fill="white"/>
<path d="M157.303 78.88C157.24 78.3761 157.28 77.8854 157.34 77.3981C157.413 76.9141 157.51 76.4302 157.707 75.9629C157.77 76.4669 157.73 76.9575 157.67 77.4448C157.6 77.9321 157.503 78.4128 157.303 78.88Z" fill="white"/>
<path d="M168.003 90.9328C167.939 90.4288 167.979 89.9382 168.039 89.4508C168.113 88.9669 168.21 88.4829 168.406 88.0156C168.47 88.5196 168.433 89.0103 168.37 89.4976C168.3 89.9815 168.203 90.4622 168.003 90.9328Z" fill="white"/>
<path d="M146.466 81.1496C146.403 80.6456 146.443 80.1549 146.503 79.6676C146.577 79.1837 146.673 78.6997 146.87 78.2324C146.934 78.7364 146.894 79.2271 146.834 79.7144C146.764 80.1983 146.663 80.679 146.466 81.1496Z" fill="white"/>
<path d="M160.626 92.9989C160.122 93.0623 159.632 93.0222 159.145 92.9622C158.661 92.8887 158.177 92.7919 157.71 92.595C158.214 92.5316 158.704 92.5683 159.191 92.6317C159.675 92.7052 160.159 92.8019 160.626 92.9989Z" fill="white"/>
<path d="M172.77 81.48C172.267 81.5434 171.776 81.5033 171.289 81.4432C170.805 81.3698 170.322 81.273 169.854 81.0761C170.358 81.0127 170.849 81.0527 171.336 81.1128C171.82 81.1829 172.3 81.283 172.77 81.48Z" fill="white"/>
<path d="M151.101 106.546C150.597 106.61 150.106 106.57 149.619 106.51C149.135 106.436 148.652 106.339 148.185 106.143C148.688 106.079 149.179 106.119 149.666 106.179C150.153 106.249 150.633 106.346 151.101 106.546Z" fill="white"/>
<path d="M173.691 96.5667C173.187 96.6301 172.697 96.5901 172.21 96.53C171.726 96.4566 171.242 96.3598 170.775 96.1629C171.279 96.0995 171.769 96.1362 172.256 96.1996C172.74 96.273 173.224 96.3698 173.691 96.5667Z" fill="white"/>
<path d="M154.63 102.04C154.944 101.64 155.315 101.319 155.705 101.019C156.099 100.729 156.51 100.455 156.98 100.265C156.67 100.665 156.296 100.986 155.905 101.286C155.512 101.58 155.101 101.85 154.63 102.04Z" fill="white"/>
<path d="M169.854 104.951C170.168 104.55 170.539 104.23 170.929 103.93C171.323 103.639 171.734 103.366 172.204 103.175C171.894 103.576 171.52 103.896 171.129 104.197C170.736 104.487 170.325 104.761 169.854 104.951Z" fill="white"/>
<path d="M173.885 90.7024C174.198 90.3019 174.569 89.9815 174.959 89.6811C175.353 89.3907 175.764 89.117 176.234 88.9268C175.924 89.3273 175.55 89.6477 175.16 89.9481C174.766 90.2418 174.355 90.5122 173.885 90.7024Z" fill="white"/>
<path d="M149.846 85.5823C150.16 85.1818 150.53 84.8613 150.921 84.561C151.315 84.2706 151.725 83.9969 152.196 83.8066C151.886 84.2072 151.512 84.5276 151.121 84.828C150.727 85.1184 150.317 85.3921 149.846 85.5823Z" fill="white"/>
<path d="M165.414 75.7762C165.727 75.3756 166.098 75.0552 166.488 74.7548C166.882 74.4644 167.293 74.1907 167.763 74.0005C167.453 74.401 167.079 74.7214 166.689 75.0218C166.295 75.3122 165.884 75.5859 165.414 75.7762Z" fill="white"/>
<path d="M146.904 97.311C146.597 97.7049 146.23 98.022 145.846 98.319V97.9118C146.173 97.6782 146.52 97.4679 146.904 97.311Z" fill="white"/>
<path d="M157.483 69.4944C157.797 69.0939 158.17 68.7735 158.558 68.4731C158.951 68.1827 159.362 67.909 159.833 67.7188C159.522 68.1193 159.148 68.4397 158.758 68.7401C158.364 69.0305 157.957 69.3042 157.483 69.4944Z" fill="white"/>
<path d="M144.208 87.615C144.608 87.9287 144.928 88.2992 145.229 88.6897C145.519 89.0836 145.793 89.4941 145.983 89.9647C145.583 89.6543 145.262 89.2805 144.962 88.89C144.671 88.4961 144.398 88.0889 144.208 87.615Z" fill="white"/>
<path d="M149.739 72.3682C150.14 72.6819 150.46 73.0557 150.761 73.4429C151.051 73.8368 151.325 74.2473 151.515 74.7179C151.114 74.4075 150.794 74.0337 150.494 73.6432C150.2 73.246 149.93 72.8388 149.739 72.3682Z" fill="white"/>
<path d="M163.702 97.0239C164.103 97.3377 164.423 97.7115 164.723 98.0987C165.014 98.4925 165.288 98.903 165.478 99.3737C165.077 99.0633 164.757 98.6894 164.456 98.2989C164.163 97.9051 163.892 97.4945 163.702 97.0239Z" fill="white"/>
<path d="M178.195 106.707C178.596 107.02 178.916 107.394 179.217 107.781C179.507 108.175 179.781 108.586 179.971 109.056C179.57 108.746 179.25 108.372 178.95 107.982C178.659 107.588 178.386 107.18 178.195 106.707Z" fill="white"/>
<path d="M163.432 65.1689C163.832 65.4827 164.153 65.8532 164.453 66.2437C164.743 66.6375 165.017 67.0481 165.207 67.5187C164.807 67.2083 164.486 66.8345 164.186 66.4439C163.892 66.0468 163.622 65.6396 163.432 65.1689Z" fill="white"/>
<path d="M160.833 83.96C161.233 84.2737 161.554 84.6442 161.854 85.0347C162.144 85.4286 162.418 85.8391 162.608 86.3097C162.208 85.9993 161.887 85.6255 161.587 85.235C161.297 84.8411 161.023 84.4306 160.833 83.96Z" fill="white"/>
<path d="M159.458 62.4386C159.235 63.0327 155.792 66.6341 153.009 66.1402C152.101 65.9766 152.769 60.9867 152.769 60.9867L152.732 60.6062L152.248 55.2893L158.818 52.1852L159.762 51.7847C159.762 51.7847 159.798 53.2466 159.825 55.069C159.829 55.1524 159.829 55.2392 159.829 55.3293C159.832 55.4328 159.839 55.5296 159.839 55.6264C159.845 55.9001 159.852 56.1771 159.852 56.4541C159.852 56.6644 159.855 56.8713 159.849 57.0916C159.849 57.3153 159.842 57.5289 159.842 57.7525C159.792 59.942 159.552 62.1883 159.458 62.4386Z" fill="#AD6359"/>
<path d="M159.829 55.069C157.817 58.9874 154.317 60.2391 152.735 60.6062L152.252 55.2893L158.821 52.1852L159.765 51.7847C159.765 51.7847 159.802 53.2466 159.829 55.069Z" fill="#263238"/>
<path d="M145.492 47.4622C144.748 56.8011 150.257 58.2997 152.268 58.4566C154.097 58.6001 160.336 58.8571 162.041 49.645C163.742 40.433 159.638 37.1353 155.478 36.5879C151.314 36.0405 146.236 38.1233 145.492 47.4622Z" fill="#AD6359"/>
<path d="M147.067 45.4763C147.288 45.453 147.488 45.3929 147.702 45.3495C147.945 45.2994 148.142 45.2827 148.322 45.0958C148.419 44.9957 148.413 44.7921 148.326 44.6886C148.122 44.4483 147.808 44.4383 147.511 44.4884C147.191 44.5418 146.957 44.6653 146.747 44.9089C146.543 45.1492 146.777 45.5097 147.067 45.4763Z" fill="#263238"/>
<path d="M153.28 45.61C153.059 45.5833 152.862 45.5199 152.649 45.4698C152.408 45.4131 152.208 45.3931 152.031 45.2061C151.938 45.106 151.945 44.9024 152.035 44.7989C152.245 44.562 152.559 44.5586 152.852 44.612C153.173 44.6721 153.403 44.8023 153.61 45.0493C153.814 45.2896 153.57 45.6467 153.28 45.61Z" fill="#263238"/>
<path d="M151.818 47.9665C151.825 47.9431 151.868 47.9998 151.865 48.0232C151.825 48.6607 151.885 49.395 152.452 49.6253C152.469 49.632 152.465 49.6654 152.445 49.662C151.748 49.5385 151.678 48.5606 151.818 47.9665Z" fill="#263238"/>
<path d="M152.409 47.3188C153.437 47.2754 153.45 49.3348 152.496 49.3748C151.561 49.4149 151.548 47.3555 152.409 47.3188Z" fill="#263238"/>
<path d="M152.812 47.4259C152.992 47.5427 153.169 47.7463 153.386 47.7663C153.637 47.7897 153.827 47.5727 153.987 47.3658C154.004 47.3457 154.02 47.3624 154.024 47.3891C154.034 47.783 153.884 48.1902 153.46 48.2503C153.076 48.307 152.795 47.9599 152.695 47.5627C152.679 47.4859 152.742 47.3791 152.812 47.4259Z" fill="#263238"/>
<path d="M148.278 47.8224C148.272 47.7991 148.228 47.8525 148.232 47.8792C148.262 48.5167 148.188 49.251 147.614 49.4712C147.597 49.4779 147.597 49.5113 147.621 49.508C148.322 49.4012 148.408 48.4232 148.278 47.8224Z" fill="#263238"/>
<path d="M147.701 47.1653C146.673 47.1018 146.623 49.1612 147.574 49.2179C148.509 49.278 148.562 47.2187 147.701 47.1653Z" fill="#263238"/>
<path d="M147.268 47.2923C147.101 47.3957 146.937 47.5926 146.74 47.5993C146.513 47.6093 146.353 47.3824 146.216 47.1654C146.203 47.1421 146.186 47.1587 146.183 47.1854C146.163 47.5793 146.283 47.9932 146.657 48.0766C147.001 48.1534 147.261 47.8229 147.364 47.4324C147.388 47.3623 147.334 47.2489 147.268 47.2923Z" fill="#263238"/>
<path d="M151.865 53.0131C151.722 53.1699 151.578 53.3835 151.348 53.4136C151.128 53.4436 150.861 53.3568 150.654 53.2901C150.634 53.2834 150.614 53.3068 150.627 53.3235C150.804 53.5604 151.161 53.6939 151.455 53.6272C151.742 53.5604 151.872 53.3068 151.925 53.0364C151.936 52.9997 151.885 52.9897 151.865 53.0131Z" fill="#263238"/>
<path d="M149.212 50.6898C149.212 50.6898 149.076 51.641 149.072 52.0916C149.072 52.135 149.182 52.1551 149.333 52.1651C149.339 52.1684 149.343 52.1717 149.349 52.1651C150.143 52.2919 150.941 52.0249 151.428 51.3774C151.458 51.334 151.401 51.2872 151.361 51.314C150.767 51.7445 150.113 51.8547 149.409 51.8613C149.379 51.7378 149.7 50.2392 149.626 50.2325C149.379 50.2092 148.895 50.3761 148.605 50.4595C148.832 48.4669 149.376 46.531 149.576 44.5451C149.583 44.475 149.479 44.4516 149.459 44.515C148.745 46.5077 148.432 48.7906 148.145 50.8433C148.105 51.1003 149.032 50.7666 149.212 50.6898Z" fill="#263238"/>
<path d="M149.429 52.0716C149.429 52.0716 149.863 52.6724 150.467 52.896C150.688 52.9795 150.928 53.0129 151.181 52.9494C151.699 52.8193 151.719 52.3453 151.629 51.9381C151.555 51.6043 151.405 51.314 151.405 51.314C151.405 51.314 150.641 52.0115 149.429 52.0716Z" fill="#263238"/>
<path d="M150.467 52.8959C150.687 52.9794 150.927 53.0127 151.181 52.9493C151.698 52.8191 151.718 52.3452 151.628 51.938C151.071 51.9881 150.52 52.3585 150.467 52.8959Z" fill="#EB9481"/>
<path d="M161.627 50.5765C159.572 49.5952 159.492 47.439 159.492 47.439C156.939 46.3342 155.565 44.3349 155.425 44.1313C155.488 44.3249 155.932 45.7134 156.179 46.4143C150.273 45.2829 148.465 40.7502 148.465 40.7502C146.54 42.6561 146.153 43.8777 145.873 44.4851C145.873 44.4851 145.846 40.857 147.721 38.4372C150.016 35.4733 157.723 34.7056 161.27 38.6008C165.09 42.8029 161.627 50.5765 161.627 50.5765Z" fill="#263238"/>
<path d="M151.691 45.4164C152.629 45.9505 153.676 46.3143 154.717 46.5446C154.727 46.5479 154.727 46.5346 154.721 46.5312C153.059 46.0506 151.568 45.1728 150.393 43.8878C149.896 43.3437 149.472 42.7463 149.125 42.0987C148.765 41.4212 148.411 40.6135 148.351 39.8425C148.348 39.7824 148.255 39.7924 148.261 39.8491C148.325 40.6669 148.395 41.4178 148.718 42.1822C149.029 42.9065 149.472 43.5807 150.023 44.1448C150.513 44.6454 151.077 45.066 151.691 45.4164Z" fill="#263238"/>
<path d="M160.503 50.2461C160.503 50.2461 162.524 47.3089 163.856 48.0265C165.187 48.7474 163.682 52.9964 162.127 53.5871C160.576 54.1779 159.999 52.7494 159.999 52.7494L160.503 50.2461Z" fill="#AD6359"/>
<path d="M163.392 49.2346C163.419 49.2313 163.422 49.268 163.402 49.2746C162.315 49.7252 161.747 50.7432 161.35 51.7946C161.671 51.3874 162.111 51.1638 162.658 51.5476C162.688 51.5676 162.658 51.611 162.628 51.6077C162.181 51.5142 161.858 51.5943 161.557 51.9548C161.344 52.2085 161.2 52.5322 161.05 52.826C161 52.9228 160.823 52.8727 160.86 52.7592C160.863 52.7525 160.867 52.7425 160.87 52.7325C160.833 51.3407 161.901 49.3848 163.392 49.2346Z" fill="#263238"/>
<path d="M160.826 53.3732C160.826 53.7504 161.133 54.0574 161.51 54.0574C161.888 54.0574 162.195 53.7504 162.195 53.3732C162.195 52.996 161.888 52.689 161.51 52.689C161.133 52.689 160.826 52.996 160.826 53.3732Z" fill="white"/>
<path d="M149.733 64.3446C149.733 64.3446 147.821 69.7717 151.274 70.1555C154.727 70.5394 163.746 63.8673 163.746 63.8673C163.746 63.8673 161.24 59.812 157.243 60.2459C153.93 60.6063 149.733 64.3446 149.733 64.3446Z" fill="#AD6359"/>
<path d="M166.041 70.6993C166.034 77.4014 162.19 97.4978 158.494 100.205C151.097 105.622 133.751 105.248 128.967 105.331C126.902 105.368 124.189 91.6134 125.727 90.028C127.265 88.4426 148.398 87.8618 149.482 87.0474C150.233 86.4833 156.198 76.7005 159.652 70.4123C164.319 61.9111 166.044 67.3215 166.041 70.6993Z" fill="#AD6359"/>
<path d="M129.408 89.2934C129.408 89.2934 123.165 88.6025 119.058 88.3421C116.77 88.1986 112.819 88.2987 111.091 88.9629C108.502 89.9542 98.3061 95.7585 99.6607 98.2618C100.885 100.528 104.001 98.0215 104.001 98.0215C104.001 98.0215 100.341 100.441 102.246 102.314C104.168 104.206 107.908 100.545 107.908 100.545C107.908 100.545 103.844 102.844 106.066 104.65C107.998 106.219 112.763 102.471 112.763 102.471C112.763 102.471 108.232 104.417 110.05 106.216C112.062 108.205 119.912 103.485 119.912 103.485C125.02 105.188 128.317 105.518 132.224 105.271C132.944 105.231 129.408 89.2934 129.408 89.2934Z" fill="#AD6359"/>
<path d="M106.77 101.372C107.077 101.099 107.391 100.832 107.695 100.555C108.295 100.017 108.889 99.4965 109.55 99.0326C110.19 98.5854 110.847 98.1681 111.518 97.7676C112.225 97.3471 112.983 96.9933 113.68 96.556C113.737 96.5193 113.783 96.6028 113.727 96.6361C113.023 97.0333 112.376 97.5573 111.722 98.0313C111.074 98.5019 110.437 98.9792 109.797 99.4565C109.173 99.9238 108.519 100.348 107.881 100.795C107.564 101.019 107.254 101.259 106.947 101.496C106.66 101.719 106.377 101.986 106.056 102.157C106.023 102.173 105.996 102.13 106.016 102.103C106.22 101.826 106.514 101.603 106.77 101.372Z" fill="#263238"/>
<path d="M103.247 98.5418C103.671 97.9911 106.003 96.0886 106.627 95.638C107.835 94.7668 109.126 93.9992 110.48 93.385C110.527 93.365 110.57 93.4318 110.527 93.4651C109.323 94.343 108.102 95.2074 106.887 96.0685C106.293 96.4891 103.647 98.4884 103.344 98.6619C103.27 98.7053 103.204 98.6019 103.247 98.5418Z" fill="#263238"/>
<path d="M110.01 104.123C110.441 103.616 112.639 101.853 113.236 101.449C113.797 101.072 116.296 99.7939 117.077 99.5436C117.127 99.5269 117.167 99.597 117.123 99.6237C115.896 100.355 114.661 101.059 113.47 101.847C112.889 102.23 110.667 103.893 110.08 104.213C110.027 104.243 109.973 104.166 110.01 104.123Z" fill="#263238"/>
<path d="M133.618 106.343L127.913 88.2058C127.913 88.2058 148.675 86.8774 149.349 86.5303C150.023 86.1831 157.423 73.1026 160.349 68.0193C163.275 62.9326 167.809 65.0287 166.118 76.5038C164.416 88.0489 162.551 97.024 159.962 99.6908C156.823 102.928 145.346 106.266 133.618 106.343Z" fill="#F3BA0E"/>
<path d="M151.011 94.8244C150.947 94.3204 150.987 93.8298 151.047 93.3424C151.121 92.8585 151.218 92.3745 151.415 91.9072C151.478 92.4112 151.438 92.9019 151.378 93.3892C151.304 93.8765 151.208 94.3571 151.011 94.8244Z" fill="white"/>
<path d="M139.54 105.205C139.477 104.701 139.517 104.21 139.577 103.723C139.65 103.239 139.747 102.755 139.944 102.288C140.007 102.792 139.967 103.282 139.907 103.77C139.834 104.257 139.737 104.737 139.54 105.205Z" fill="white"/>
<path d="M157.303 78.88C157.24 78.3761 157.28 77.8854 157.34 77.3981C157.413 76.9141 157.51 76.4302 157.707 75.9629C157.77 76.4669 157.73 76.9575 157.67 77.4448C157.6 77.9321 157.503 78.4128 157.303 78.88Z" fill="white"/>
<path d="M160.626 92.9989C160.122 93.0623 159.632 93.0222 159.145 92.9622C158.661 92.8887 158.177 92.7919 157.71 92.595C158.214 92.5316 158.704 92.5683 159.191 92.6317C159.675 92.7052 160.159 92.8019 160.626 92.9989Z" fill="white"/>
<path d="M140.695 93.5693C140.191 93.6327 139.7 93.5927 139.213 93.5326C138.729 93.4592 138.246 93.3624 137.779 93.1655C138.282 93.102 138.773 93.1421 139.26 93.2022C139.744 93.2756 140.224 93.3724 140.695 93.5693Z" fill="white"/>
<path d="M154.631 102.04C154.944 101.64 155.315 101.319 155.705 101.019C156.099 100.729 156.51 100.455 156.98 100.265C156.67 100.665 156.296 100.986 155.906 101.286C155.512 101.58 155.101 101.85 154.631 102.04Z" fill="white"/>
<path d="M130.705 91.2464C131.019 90.8458 131.39 90.5254 131.78 90.225C132.174 89.9346 132.584 89.661 133.055 89.4707C132.745 89.8712 132.371 90.1916 131.98 90.492C131.586 90.7858 131.176 91.0561 130.705 91.2464Z" fill="white"/>
<path d="M152.196 83.8066C151.885 84.2072 151.511 84.5276 151.121 84.828C150.817 85.0516 150.503 85.2652 150.16 85.4388C150.263 85.2786 150.377 85.1017 150.493 84.9114C150.493 84.9081 150.497 84.9081 150.497 84.9081C150.634 84.7879 150.777 84.6711 150.921 84.561C151.315 84.2706 151.725 83.9969 152.196 83.8066Z" fill="white"/>
<path d="M166.315 74.8916C166.305 75.0318 166.288 75.172 166.271 75.3155C166.004 75.4924 165.721 75.6526 165.414 75.7761C165.681 75.4356 165.991 75.1553 166.315 74.8916Z" fill="white"/>
<path d="M144.555 99.0867C144.869 98.6862 145.239 98.3658 145.63 98.0654C146.024 97.775 146.434 97.5013 146.905 97.311C146.594 97.7116 146.22 98.032 145.83 98.3324C145.436 98.6228 145.026 98.8964 144.555 99.0867Z" fill="white"/>
<path d="M144.208 87.6147C144.608 87.9285 144.929 88.299 145.229 88.6895C145.519 89.0833 145.793 89.4939 145.983 89.9645C145.583 89.6541 145.262 89.2803 144.962 88.8897C144.672 88.4959 144.398 88.0887 144.208 87.6147Z" fill="white"/>
<path d="M165.204 67.5152C164.804 67.2048 164.486 66.831 164.186 66.4438C163.942 66.1167 163.715 65.7796 163.539 65.4058C163.602 65.4058 163.662 65.4091 163.722 65.4158C163.993 65.6694 164.226 65.9498 164.45 66.2402C164.744 66.6374 165.014 67.0446 165.204 67.5152Z" fill="white"/>
<path d="M160.833 83.96C161.234 84.2737 161.554 84.6442 161.854 85.0347C162.145 85.4286 162.418 85.8391 162.609 86.3097C162.208 85.9993 161.888 85.6255 161.587 85.235C161.297 84.8411 161.023 84.4306 160.833 83.96Z" fill="white"/>
<path d="M155.845 75.6893C155.168 76.704 154.544 77.7486 153.917 78.7934C153.9 78.8234 153.883 78.8501 153.863 78.8801C153.893 78.8 153.927 78.7233 153.957 78.6432C154.16 78.1258 154.34 77.5951 154.561 77.0811C154.574 77.0511 154.527 77.0244 154.514 77.0544C154.29 77.5584 154.04 78.049 153.823 78.5564C153.68 78.9002 153.55 79.2473 153.426 79.5977C152.963 80.3721 152.499 81.1464 152.042 81.9275C151.428 82.9788 150.817 84.0302 150.197 85.0783C150.047 85.3353 149.896 85.5923 149.743 85.8459C149.609 86.0662 149.459 86.2632 149.206 86.3433C148.942 86.43 148.629 86.4267 148.355 86.4567C148.051 86.4901 147.748 86.5268 147.444 86.5635C146.063 86.7304 144.692 86.9607 143.31 87.141C143.277 87.1443 143.277 87.1944 143.31 87.1944C144.578 87.1009 145.853 87.0509 147.121 86.9474C147.744 86.8973 148.375 86.8539 148.996 86.7738C149.232 86.7438 149.459 86.6937 149.65 86.5402C149.83 86.3933 149.95 86.1897 150.067 85.9895C151.324 83.8133 152.582 81.6371 153.837 79.4576C154.547 78.2226 155.268 76.9943 155.922 75.7293C155.952 75.6826 155.875 75.6426 155.845 75.6893Z" fill="#263238"/>
<path d="M166.154 80.5324C166.118 80.9396 165.968 81.3635 165.858 81.7574C165.757 82.1145 165.661 82.4716 165.554 82.8254C165.43 83.226 165.294 83.6232 165.154 84.0203C165.434 82.2547 165.657 80.479 165.821 78.6934C165.824 78.64 165.734 78.6299 165.727 78.6833C165.394 81.1766 164.933 83.6565 164.413 86.1164C163.889 88.5797 163.255 91.0262 162.538 93.4394C162.184 94.6276 161.814 95.8125 161.397 96.9807C161.04 97.982 160.613 98.9933 159.942 99.8277C159.211 100.736 158.217 101.306 157.176 101.787C156.072 102.294 154.934 102.742 153.78 103.119C151.154 103.98 148.435 104.527 145.753 105.171C145.726 105.178 145.733 105.228 145.759 105.221C148.225 104.858 150.674 104.407 153.079 103.74C154.29 103.402 155.508 103.025 156.669 102.541C157.74 102.094 158.844 101.607 159.709 100.812C160.526 100.061 161.077 99.0667 161.497 98.0521C161.947 96.9606 162.301 95.8258 162.651 94.6977C163.415 92.2344 164.059 89.7512 164.583 87.2245C164.733 86.4936 164.873 85.7593 165 85.025C165.31 84.3374 165.534 83.5998 165.727 82.8688C165.831 82.485 165.928 82.1012 166.001 81.7107C166.074 81.3235 166.104 80.9129 166.211 80.5358C166.215 80.5024 166.158 80.4924 166.154 80.5324Z" fill="#263238"/>
<path d="M137.228 104.881C136.287 102.274 135.293 99.6905 134.466 97.0437C133.652 94.4336 132.854 91.7868 132.32 89.1033C132.31 89.0532 132.391 89.0298 132.407 89.0766C133.385 91.6332 134.179 94.2734 135 96.8868C135.827 99.5203 136.548 102.184 137.378 104.814C137.412 104.911 137.268 104.981 137.228 104.881Z" fill="#263238"/>
<path d="M133.732 87.7817C133.238 87.745 132.734 87.775 132.24 87.785C131.743 87.7983 131.246 87.8184 130.749 87.8384C129.755 87.8818 128.764 87.9552 127.773 88.0387C127.699 88.0453 127.623 88.1188 127.656 88.1989C127.789 88.5393 127.936 88.9465 128.163 89.2369C128.176 89.2569 128.213 89.2502 128.21 89.2235C128.186 88.9098 128.066 88.5794 127.95 88.279C128.897 88.2156 129.845 88.1588 130.792 88.0854C131.289 88.0487 131.786 88.0153 132.28 87.9752C132.764 87.9385 133.258 87.9218 133.735 87.8451C133.782 87.8417 133.765 87.785 133.732 87.7817Z" fill="#263238"/>
<path d="M111.321 83.8936C112.559 84.5077 118.214 84.7413 119.865 86.7707C120.963 88.1191 120.853 89.4842 121.494 93.5128C122.047 97.0108 119.151 96.1763 118.317 94.3873C117.01 91.5736 115.885 88.4896 115.885 88.4896C114.561 88.3995 112.989 88.533 112.989 88.533L111.321 83.8936Z" fill="#F7A9A0"/>
<path d="M115.398 97.1208C117.357 95.8791 123.619 103.786 120.49 105.882C117.36 107.978 113.18 98.5259 115.398 97.1208Z" fill="#F7A9A0"/>
<path d="M112.225 98.8063C114.184 97.5647 120.446 105.472 117.317 107.568C114.187 109.664 110.007 100.211 112.225 98.8063Z" fill="#F7A9A0"/>
<path d="M109.977 99.1165C111.928 98.262 116.523 106.323 113.383 107.788C110.25 109.256 107.768 100.084 109.977 99.1165Z" fill="#F7A9A0"/>
<path d="M107.678 98.8929C109.73 98.6493 111.725 107.427 108.399 107.905C105.072 108.385 105.352 99.1699 107.678 98.8929Z" fill="#F7A9A0"/>
<path d="M114.951 99.8577C115.325 100.242 115.622 100.692 115.925 101.129C116.249 101.6 116.569 102.077 116.85 102.575C117.116 103.052 117.377 103.543 117.584 104.05C117.804 104.591 117.961 105.161 118.194 105.692C118.221 105.752 118.134 105.789 118.111 105.725C117.911 105.208 117.587 104.711 117.313 104.23C117.04 103.746 116.786 103.249 116.516 102.762C116.252 102.288 116.002 101.807 115.732 101.336C115.455 100.856 115.138 100.395 114.888 99.9011C114.871 99.8644 114.918 99.8243 114.951 99.8577Z" fill="#263238"/>
<path d="M111.692 99.814C111.895 100.408 112.566 102.678 112.793 103.265C113.023 103.856 113.27 104.443 113.527 105.021C113.787 105.608 114.017 106.232 114.331 106.797C114.361 106.85 114.281 106.893 114.251 106.843C113.934 106.276 113.57 105.745 113.283 105.161C112.999 104.584 112.746 103.996 112.516 103.395C112.286 102.791 111.678 100.452 111.598 99.824C111.588 99.7673 111.675 99.7639 111.692 99.814Z" fill="#263238"/>
<path d="M109.233 100.378C109.39 101.226 109.493 102.084 109.653 102.932C109.733 103.349 109.813 103.766 109.89 104.187C109.927 104.39 109.96 104.594 109.997 104.794C110.037 105.011 110.044 105.285 110.127 105.488C110.15 105.545 110.047 105.572 110.037 105.502C110.007 105.258 109.87 104.994 109.8 104.757C109.74 104.561 109.683 104.364 109.633 104.163C109.53 103.749 109.45 103.336 109.379 102.915C109.249 102.091 109.122 101.23 109.119 100.395C109.119 100.332 109.223 100.315 109.233 100.378Z" fill="#263238"/>
<path d="M139.764 44.2513C140.585 42.9996 141.048 41.5911 141.048 40.0991C141.048 34.8389 135.276 30.5767 128.16 30.5767C121.043 30.5767 115.275 34.8423 115.275 40.0991C115.275 45.356 121.043 49.6216 128.16 49.6216C131.61 49.6216 134.739 48.6203 137.051 46.9882L141.492 48.1163L139.764 44.2513Z" fill="#F3BA0E"/>
<path d="M123.522 40.0992C123.522 40.8368 122.925 41.4376 122.185 41.4376C121.447 41.4376 120.847 40.8401 120.847 40.0992C120.847 39.3615 121.444 38.7607 122.185 38.7607C122.925 38.7607 123.522 39.3582 123.522 40.0992Z" fill="#263238"/>
<path d="M128.16 41.4376C128.899 41.4376 129.498 40.8384 129.498 40.0992C129.498 39.36 128.899 38.7607 128.16 38.7607C127.421 38.7607 126.822 39.36 126.822 40.0992C126.822 40.8384 127.421 41.4376 128.16 41.4376Z" fill="#263238"/>
<path d="M135.467 40.0992C135.467 40.8368 134.869 41.4376 134.129 41.4376C133.391 41.4376 132.791 40.8401 132.791 40.0992C132.791 39.3615 133.388 38.7607 134.129 38.7607C134.869 38.7607 135.467 39.3582 135.467 40.0992Z" fill="#263238"/>
<path d="M93.2415 15.6872C92.4974 21.912 88.4971 23.0502 87.8232 24.709C87.4629 25.6068 86.9824 27.8932 86.9824 27.8932L80.4765 27.8765C80.4765 27.8765 80.0128 25.5902 79.6524 24.689C78.9918 23.0268 74.9882 21.872 74.2809 15.6438C73.8105 11.5518 76.9033 5.09662 83.7862 5.11331C90.6691 5.12666 93.7252 11.5951 93.2415 15.6872Z" fill="#F3BA0E"/>
<path d="M80.3891 17.9223L80.0608 17.9827L81.9668 28.3394L82.2951 28.279L80.3891 17.9223Z" fill="white"/>
<path d="M87.1121 17.9343L85.1594 28.2817L85.4874 28.3437L87.44 17.9963L87.1121 17.9343Z" fill="white"/>
<path d="M83.7496 21.398C83.2358 21.398 82.722 20.9908 82.3016 20.2531C82.2816 20.2197 82.2649 20.1864 82.2449 20.1497C82.0647 20.3499 81.8746 20.4534 81.6877 20.4534C80.7135 20.45 80.3265 18.4407 80.3098 18.354L80.4733 18.3239C80.4766 18.344 80.847 20.2832 81.6877 20.2865C81.8379 20.2865 82.0047 20.1797 82.1648 19.9894C81.7511 19.1417 81.5242 18.0335 81.8178 17.5295C81.9179 17.356 82.0748 17.2659 82.2683 17.2659C82.5051 17.2659 82.6886 17.3727 82.8054 17.5729C83.099 18.0836 82.8821 19.135 82.4951 19.8025C82.4518 19.876 82.4084 19.9461 82.3617 20.0095C82.3884 20.0629 82.4184 20.1163 82.4484 20.1697C82.6753 20.5669 83.1457 21.2277 83.7496 21.2311C83.7496 21.2311 83.7496 21.2311 83.7529 21.2311C84.1566 21.2311 84.5603 20.914 84.8973 20.3366C84.924 20.2898 84.9507 20.2398 84.9774 20.1897C84.894 20.0962 84.8172 19.9894 84.7472 19.8693C84.3468 19.1684 84.2634 18.1303 84.5704 17.603C84.6971 17.386 84.8773 17.2725 85.0975 17.2725C85.271 17.2725 85.4111 17.3593 85.5079 17.5262C85.7948 18.0269 85.6347 19.2184 85.1776 20.1563C85.3444 20.3099 85.5579 20.4267 85.8282 20.43C86.422 20.43 86.9525 19.0082 87.106 18.4608L87.2661 18.5042C87.2428 18.5909 86.6723 20.5936 85.8282 20.5936C85.5579 20.5936 85.311 20.4968 85.0975 20.3099C85.0775 20.3466 85.0575 20.38 85.0374 20.4167C84.7772 20.8673 84.3435 21.398 83.7496 21.398ZM85.0942 17.4428C84.9374 17.4428 84.8072 17.5262 84.7138 17.6898C84.4369 18.1637 84.5203 19.145 84.8906 19.7892C84.9373 19.8693 84.9907 19.9494 85.0541 20.0295C85.4612 19.155 85.6146 18.0536 85.3611 17.613C85.2943 17.4995 85.2076 17.4428 85.0942 17.4428ZM82.2649 17.4361C82.1281 17.4361 82.028 17.4962 81.958 17.6163C81.7278 18.0135 81.8779 18.9915 82.2716 19.8392C82.295 19.8025 82.3216 19.7625 82.345 19.7224C82.6986 19.1116 82.9155 18.1136 82.6553 17.6597C82.5719 17.5095 82.4417 17.4361 82.2649 17.4361Z" fill="white"/>
<path d="M87.7454 27.6125L79.7214 27.5935L79.7177 29.1622L87.7417 29.1812L87.7454 27.6125Z" fill="#455A64"/>
<path d="M87.7386 29.4347L79.7146 29.4158L79.7109 30.9845L87.7349 31.0034L87.7386 29.4347Z" fill="#455A64"/>
<path d="M87.7354 31.2606L79.7114 31.2417L79.7077 32.8104L87.7317 32.8293L87.7354 31.2606Z" fill="#455A64"/>
<path d="M84.0832 0C84.2066 0.433902 84.23 0.867806 84.23 1.29837C84.22 1.73227 84.1833 2.16284 84.0431 2.5934C83.9163 2.1595 83.8962 1.7256 83.8962 1.29503C83.9063 0.864467 83.943 0.430565 84.0832 0Z" fill="#263238"/>
<path d="M76.8064 1.77881C77.1302 2.09255 77.3671 2.45636 77.5841 2.83019C77.791 3.21069 77.9746 3.6012 78.0681 4.04511C77.741 3.73137 77.5073 3.36756 77.2904 2.99374C77.0868 2.61324 76.9032 2.22272 76.8064 1.77881Z" fill="#263238"/>
<path d="M71.3982 6.95898C71.8354 7.06913 72.2226 7.26605 72.5964 7.483C72.9636 7.70997 73.3207 7.95696 73.6245 8.29073C73.1839 8.18392 72.8 7.987 72.4262 7.76671C72.0557 7.53975 71.6986 7.29276 71.3982 6.95898Z" fill="#263238"/>
<path d="M69.2998 14.1486C69.7335 14.0251 70.1673 14.0017 70.5977 14.0017C71.0314 14.0117 71.4618 14.0484 71.8922 14.1886C71.4584 14.3155 71.0247 14.3355 70.5943 14.3355C70.1606 14.3255 69.7302 14.2888 69.2998 14.1486Z" fill="#263238"/>
<path d="M71.0781 21.4282C71.3919 21.1044 71.7557 20.8674 72.1295 20.6505C72.51 20.4435 72.9005 20.26 73.3444 20.1665C73.0307 20.4936 72.6669 20.7272 72.2931 20.9442C71.9126 21.1478 71.5187 21.3314 71.0781 21.4282Z" fill="#263238"/>
<path d="M96.1284 21.9821C95.6911 21.872 95.3039 21.6751 94.9301 21.4581C94.563 21.2312 94.2058 20.9842 93.9021 20.6504C94.3427 20.7572 94.7265 20.9541 95.1003 21.1744C95.4708 21.398 95.8246 21.645 96.1284 21.9821Z" fill="#263238"/>
<path d="M98.2259 14.7893C97.7922 14.9128 97.3584 14.9361 96.9281 14.9361C96.4943 14.9261 96.0639 14.8894 95.6335 14.7492C96.0673 14.6224 96.501 14.599 96.9314 14.6023C97.3618 14.6157 97.7955 14.6524 98.2259 14.7893Z" fill="#263238"/>
<path d="M96.4487 7.51318C96.1349 7.83694 95.7711 8.07392 95.3973 8.29087C95.0168 8.49781 94.6263 8.68138 94.1824 8.77484C94.4961 8.44774 94.8599 8.2141 95.2337 7.99715C95.6142 7.79355 96.0081 7.60664 96.4487 7.51318Z" fill="#263238"/>
<path d="M91.2702 2.09961C91.1601 2.53685 90.9632 2.92402 90.7462 3.29785C90.5192 3.66499 90.2722 4.02213 89.9385 4.32586C90.0453 3.88528 90.2422 3.50145 90.4625 3.12762C90.6895 2.76047 90.9364 2.40334 91.2702 2.09961Z" fill="#263238"/>
</svg>
