<svg width="140" height="152" viewBox="0 0 140 152" fill="none" xmlns="http://www.w3.org/2000/svg">
<path opacity="0.1" d="M63.616 5.29498C67.3181 2.22436 72.6819 2.22436 76.384 5.29498L134.981 53.896C138.031 56.426 139.3 60.5188 138.215 64.3305L115.329 144.737C114.106 149.035 110.18 152 105.711 152H34.2886C29.82 152 25.8938 149.035 24.6706 144.737L1.78505 64.3305C0.700153 60.5188 1.96863 56.426 5.01905 53.896L63.616 5.29498Z" fill="white"/>
<path opacity="0.1" d="M63.7689 10.9641C67.4151 8.05928 72.5848 8.05927 76.2311 10.9641L134.728 57.5671C137.915 60.1057 139.242 64.3234 138.085 68.2296L115.384 144.841C114.125 149.087 110.224 152 105.796 152H34.2042C29.7756 152 25.8745 149.087 24.6163 144.841L1.91496 68.2296C0.757508 64.3234 2.0854 60.1057 5.27182 57.5671L63.7689 10.9641Z" fill="white"/>
<path d="M32.7087 82.6968C32.6387 81.3151 33.0311 77.9735 34.8905 75.882C36.7453 73.7906 39.2214 73.5556 40.2212 73.5227C39.8474 74.5896 38.9925 76.9865 37.4227 79.0309C35.8296 81.066 33.6758 82.2691 32.7087 82.6968Z" stroke="#E0E0E0" stroke-miterlimit="10"/>
<path d="M32.6897 78.4714C31.7367 78.0531 29.4661 76.8312 28.457 73.7669C28.2047 73.0008 28.0505 72.1783 28.0085 71.3558C27.9804 70.9423 27.9664 70.5287 27.9711 70.1198C27.9898 69.7156 28.0225 69.3161 28.0645 68.926C28.1393 68.1458 28.2748 67.4174 28.443 66.7923C28.6018 66.1625 28.742 65.622 28.8961 65.2319C29.2605 65.6173 29.8632 66.3223 30.4519 67.2905C30.7462 67.7746 31.0265 68.3197 31.2835 68.9307C31.5591 69.5464 31.7974 70.2185 31.9749 70.947C32.1571 71.6801 32.3113 72.4321 32.3861 73.1559C32.4795 73.8891 32.5589 74.6081 32.5823 75.2755C32.6804 76.615 32.671 77.7711 32.6897 78.4714Z" stroke="#E0E0E0" stroke-miterlimit="10"/>
<path d="M35.2037 93.3744C34.9514 92.7259 34.7131 91.5697 34.5496 90.2819C34.4982 89.6287 34.5356 88.9237 34.6104 88.2328C34.6851 87.5419 34.8159 86.8557 35.1056 86.2072C35.6195 84.9194 36.4838 84.0076 37.2967 83.3872C38.0956 82.7669 38.9085 82.4191 39.3897 82.2405C39.3757 82.5225 39.371 82.8938 39.3617 83.3308C39.3524 83.7679 39.2776 84.2755 39.2496 84.816C39.1141 85.9111 38.9786 87.1377 38.5114 88.3785C38.0536 89.6146 37.4929 90.6532 36.8389 91.518C36.1988 92.3828 35.5774 93.0219 35.2037 93.3744Z" stroke="#E0E0E0" stroke-miterlimit="10"/>
<path d="M33.8537 89.375C33.3351 89.328 32.4614 89.1964 31.4476 88.764C30.9431 88.5431 30.3871 88.2564 29.8545 87.8522C29.3359 87.448 28.8173 86.9405 28.3221 86.3013C27.3644 85.0229 26.7383 83.3827 26.3926 81.8552C26.0656 80.3278 25.9768 78.9225 26.0049 78.0859C26.9673 78.5794 29.1117 79.9706 30.7515 82.4897C30.9571 82.8046 31.144 83.1289 31.3215 83.4579C31.513 83.7869 31.6906 84.1159 31.8541 84.4448C32.0176 84.7738 32.1624 85.1075 32.2979 85.4318C32.4521 85.7561 32.5923 86.0757 32.7184 86.3859C32.8445 86.6961 32.9613 86.9969 33.0641 87.2883C33.1809 87.5749 33.293 87.8475 33.3958 88.1013C33.5967 88.6042 33.7509 89.0413 33.8537 89.375Z" stroke="#E0E0E0" stroke-miterlimit="10"/>
<path d="M40.9834 102.675C40.591 102.097 39.8902 101.162 39.3809 99.9542C39.138 99.3432 38.9184 98.6852 38.7549 98.0132C38.5867 97.3458 38.5774 96.6032 38.6054 95.9217C38.6615 94.5494 39.2034 93.4026 39.7827 92.5472C40.3621 91.6919 40.9928 91.1185 41.3852 90.7942C41.7636 91.8517 42.4738 94.3144 42.5111 96.8711C42.4597 98.1965 42.2495 99.3761 41.9365 100.387C41.6235 101.392 41.2357 102.205 40.9834 102.675Z" stroke="#E0E0E0" stroke-miterlimit="10"/>
<path d="M38.4227 99.3245C37.9135 99.4514 37.0351 99.6159 35.9232 99.5407C34.8347 99.4514 33.5592 99.0848 32.1997 98.2013C31.5223 97.7595 30.9616 97.172 30.401 96.5563C29.8544 95.9359 29.3311 95.2827 28.9667 94.6012C28.1865 93.2523 27.6072 91.9693 27.397 91.1609C27.9389 91.2361 28.7892 91.4382 29.8544 91.8424C30.9243 92.2466 32.1296 92.8622 33.2696 93.8069C33.8863 94.2628 34.4516 94.7704 34.9561 95.2968C35.2131 95.5599 35.442 95.8325 35.685 96.091C35.9372 96.3448 36.1755 96.5986 36.3998 96.8524C36.8483 97.3553 37.2314 97.8394 37.5537 98.2765C37.9181 98.6901 38.2125 99.0472 38.4227 99.3245Z" stroke="#E0E0E0" stroke-miterlimit="10"/>
<path d="M49.444 109.594C48.3041 108.828 45.6878 106.75 45.0197 103.977C44.9263 103.644 44.8609 103.324 44.8188 103.009C44.7908 102.68 44.7861 102.361 44.8001 102.06C44.8235 101.449 44.9216 100.894 45.0524 100.396C45.3187 99.4044 45.7158 98.6665 46.0008 98.2153C46.3419 98.6571 46.9118 99.3809 47.4444 100.344C48.0565 101.223 48.5891 102.408 49.0282 103.601C49.2338 104.217 49.3599 104.842 49.444 105.453C49.5468 106.031 49.5935 106.595 49.6122 107.122C49.6402 108.174 49.5375 109.067 49.444 109.594Z" stroke="#E0E0E0" stroke-miterlimit="10"/>
<path d="M45.944 107.263C45.5048 107.545 44.7106 108.01 43.6547 108.273C42.6129 108.522 41.2534 108.626 39.6976 108.222C36.6235 107.357 33.811 104.504 32.8906 103.118C33.4186 103.019 34.3296 102.906 35.4368 102.967C36.53 103.033 37.9316 103.179 39.3145 103.705C39.9919 103.982 40.7348 104.236 41.3795 104.575C42.0429 104.894 42.6269 105.284 43.2343 105.585C44.4116 106.224 45.3319 106.91 45.944 107.263Z" stroke="#E0E0E0" stroke-miterlimit="10"/>
<path d="M59.6612 113.41C58.3203 113.105 55.2088 111.892 53.6765 109.538C52.9009 108.4 52.6393 107.136 52.5599 106.135C52.4851 105.129 52.6486 104.255 52.7701 103.747C53.2093 104.105 54.0128 104.546 54.8164 105.308C55.2322 105.665 55.6854 106.013 56.1105 106.459C56.3254 106.68 56.5357 106.915 56.7412 107.164C56.9515 107.399 57.157 107.629 57.3533 107.888C58.8903 109.993 59.5023 112.334 59.6612 113.41Z" stroke="#E0E0E0" stroke-miterlimit="10"/>
<path d="M55.5969 112.352C54.9381 113.203 53.2095 115.017 49.9906 115.261C46.7763 115.482 43.2583 113.612 41.9175 112.644C42.8752 112.084 45.1785 111.107 48.1872 111.107C48.5609 111.111 48.9254 111.144 49.2991 111.172C49.6775 111.191 50.0513 111.224 50.4157 111.266C51.1492 111.346 51.8313 111.516 52.4947 111.633C53.8262 111.835 54.9054 112.221 55.5969 112.352Z" stroke="#E0E0E0" stroke-miterlimit="10"/>
<path d="M34.3349 69.8237C32.653 74.8761 32.2045 80.3326 33.0268 85.5964C33.4239 88.2331 34.2041 90.7945 35.1572 93.2713C35.7178 94.4792 36.2037 95.7199 36.9045 96.8573C37.2455 97.4307 37.5258 98.037 37.9089 98.5774L39.0302 100.222C40.6233 102.337 42.3706 104.368 44.4309 106.05L45.1831 106.703L45.982 107.296C46.5193 107.686 47.0472 108.09 47.5938 108.466C48.7338 109.143 49.827 109.899 51.037 110.445C55.751 112.889 61.0629 114.045 66.3516 114.054" stroke="#E0E0E0" stroke-miterlimit="10"/>
<path d="M34.0267 70.8531C33.9706 70.5382 33.8958 70.1058 33.8585 69.5842C33.8351 69.0672 33.8304 68.4562 33.8725 67.7841C33.9332 67.1167 34.064 66.393 34.2509 65.6316C34.4845 64.8937 34.7508 64.1041 35.1713 63.3709C35.5917 62.6331 36.0543 61.9516 36.5915 61.3829C36.8532 61.0962 37.1148 60.8236 37.3764 60.5745C37.6521 60.3348 37.9277 60.1139 38.194 59.9119C39.2405 59.08 40.273 58.6523 40.8383 58.3938C40.7168 59.0424 40.3992 60.0528 40.0254 61.2701C39.9273 61.5709 39.8152 61.8764 39.6937 62.1913C39.5862 62.5109 39.4648 62.8399 39.3293 63.1689C39.0443 63.8127 38.7593 64.4989 38.3809 65.1616C38.0025 65.8243 37.638 66.4635 37.2036 67.0274C36.8205 67.6196 36.3906 68.1507 35.9889 68.6348C35.6058 69.1283 35.2227 69.5701 34.8723 69.9413C34.5312 70.3079 34.2509 70.6228 34.0267 70.8531Z" stroke="#E0E0E0" stroke-miterlimit="10"/>
<path d="M109.291 82.6968C109.361 81.3151 108.968 77.9735 107.109 75.882C105.254 73.7906 102.778 73.5556 101.778 73.5227C102.152 74.5896 103.007 76.9865 104.577 79.0309C106.175 81.066 108.324 82.2691 109.291 82.6968Z" stroke="#E0E0E0" stroke-miterlimit="10"/>
<path d="M109.31 78.4714C110.263 78.0531 112.534 76.8312 113.543 73.7669C113.795 73.0008 113.949 72.1783 113.991 71.3558C114.019 70.9423 114.033 70.5287 114.029 70.1198C114.01 69.7156 113.977 69.3161 113.935 68.926C113.861 68.1458 113.725 67.4174 113.557 66.7923C113.398 66.1625 113.258 65.622 113.104 65.2319C112.739 65.6173 112.137 66.3223 111.548 67.2905C111.254 67.7746 110.973 68.3197 110.716 68.9307C110.441 69.5464 110.202 70.2185 110.025 70.947C109.843 71.6801 109.688 72.4321 109.614 73.1559C109.52 73.8891 109.441 74.6081 109.418 75.2755C109.319 76.615 109.329 77.7711 109.31 78.4714Z" stroke="#E0E0E0" stroke-miterlimit="10"/>
<path d="M106.796 93.3744C107.048 92.7259 107.286 91.5697 107.45 90.2819C107.501 89.6287 107.464 88.9237 107.389 88.2328C107.314 87.5419 107.184 86.8557 106.894 86.2072C106.38 84.9194 105.516 84.0076 104.703 83.3872C103.904 82.7669 103.091 82.4191 102.61 82.2405C102.624 82.5225 102.629 82.8938 102.638 83.3308C102.647 83.7679 102.722 84.2755 102.75 84.816C102.886 85.9111 103.021 87.1377 103.488 88.3785C103.946 89.6146 104.507 90.6532 105.161 91.518C105.805 92.3828 106.422 93.0219 106.796 93.3744Z" stroke="#E0E0E0" stroke-miterlimit="10"/>
<path d="M108.146 89.375C108.665 89.328 109.538 89.1964 110.552 88.764C111.057 88.5431 111.613 88.2564 112.145 87.8522C112.664 87.448 113.182 86.9405 113.678 86.3013C114.635 85.0229 115.261 83.3827 115.607 81.8552C115.934 80.3278 116.023 78.9225 115.995 78.0859C115.032 78.5794 112.888 79.9706 111.248 82.4897C111.043 82.8046 110.856 83.1289 110.678 83.4579C110.487 83.7869 110.309 84.1159 110.146 84.4448C109.982 84.7738 109.837 85.1075 109.702 85.4318C109.548 85.7561 109.407 86.0757 109.281 86.3859C109.155 86.6961 109.038 86.9969 108.936 87.2883C108.819 87.5749 108.707 87.8475 108.604 88.1013C108.403 88.6042 108.253 89.0413 108.146 89.375Z" stroke="#E0E0E0" stroke-miterlimit="10"/>
<path d="M101.017 102.675C101.41 102.097 102.111 101.162 102.62 99.9542C102.863 99.3432 103.082 98.6852 103.246 98.0132C103.414 97.3458 103.424 96.6032 103.395 95.9217C103.339 94.5494 102.797 93.4026 102.218 92.5472C101.639 91.6919 101.008 91.1185 100.616 90.7942C100.237 91.8517 99.5271 94.3144 99.4897 96.8711C99.5411 98.1965 99.7514 99.3761 100.064 100.387C100.377 101.392 100.765 102.205 101.017 102.675Z" stroke="#E0E0E0" stroke-miterlimit="10"/>
<path d="M103.578 99.3245C104.087 99.4514 104.965 99.6159 106.077 99.5407C107.166 99.4514 108.441 99.0848 109.801 98.2013C110.478 97.7595 111.039 97.172 111.599 96.5563C112.146 95.9359 112.669 95.2827 113.034 94.6012C113.814 93.2523 114.393 91.9693 114.603 91.1609C114.061 91.2361 113.211 91.4382 112.146 91.8424C111.076 92.2466 109.871 92.8622 108.731 93.8069C108.114 94.2628 107.549 94.7704 107.044 95.2968C106.787 95.5599 106.558 95.8325 106.315 96.091C106.063 96.3448 105.825 96.5986 105.601 96.8524C105.152 97.3553 104.769 97.8394 104.447 98.2765C104.087 98.6901 103.788 99.0472 103.578 99.3245Z" stroke="#E0E0E0" stroke-miterlimit="10"/>
<path d="M92.5565 109.594C93.6965 108.828 96.3127 106.75 96.9808 103.977C97.0743 103.644 97.1397 103.324 97.1817 103.009C97.2097 102.68 97.2144 102.361 97.2004 102.06C97.177 101.449 97.0789 100.894 96.9481 100.396C96.6818 99.4044 96.2847 98.6665 95.9997 98.2153C95.6587 98.6571 95.0887 99.3809 94.5561 100.344C93.9441 101.223 93.4115 102.408 92.9723 103.601C92.7668 104.217 92.6406 104.842 92.5565 105.453C92.4537 106.031 92.407 106.595 92.3883 107.122C92.3603 108.174 92.4677 109.067 92.5565 109.594Z" stroke="#E0E0E0" stroke-miterlimit="10"/>
<path d="M96.0601 107.263C96.4992 107.545 97.2934 108.01 98.3493 108.273C99.3911 108.522 100.751 108.626 102.306 108.222C105.381 107.357 108.193 104.504 109.113 103.118C108.585 103.019 107.674 102.906 106.567 102.967C105.474 103.033 104.072 103.179 102.69 103.705C102.012 103.982 101.269 104.236 100.625 104.575C99.9611 104.894 99.3771 105.284 98.7698 105.585C97.5878 106.224 96.6674 106.91 96.0601 107.263Z" stroke="#E0E0E0" stroke-miterlimit="10"/>
<path d="M82.3389 113.41C83.6797 113.105 86.7912 111.892 88.3236 109.538C89.0991 108.4 89.3608 107.136 89.4402 106.135C89.5149 105.129 89.3514 104.255 89.2299 103.747C88.7908 104.105 87.9872 104.546 87.1837 105.308C86.7679 105.665 86.3147 106.013 85.8895 106.459C85.6746 106.68 85.4644 106.915 85.2588 107.164C85.0486 107.399 84.843 107.629 84.6468 107.888C83.1097 109.993 82.4977 112.334 82.3389 113.41Z" stroke="#E0E0E0" stroke-miterlimit="10"/>
<path d="M86.4038 112.352C87.0625 113.203 88.7912 115.017 92.0101 115.261C95.2244 115.482 98.7424 113.612 100.083 112.644C99.1254 112.084 96.8222 111.107 93.8135 111.107C93.4397 111.111 93.0753 111.144 92.7016 111.172C92.3231 111.191 91.9494 111.224 91.585 111.266C90.8515 111.346 90.1694 111.516 89.506 111.633C88.1745 111.835 87.0953 112.221 86.4038 112.352Z" stroke="#E0E0E0" stroke-miterlimit="10"/>
<path d="M107.665 69.8237C109.347 74.8761 109.795 80.3326 108.973 85.5964C108.576 88.2331 107.796 90.7945 106.843 93.2713C106.282 94.4792 105.796 95.7199 105.096 96.8573C104.754 97.4307 104.474 98.037 104.091 98.5774L102.97 100.222C101.377 102.337 99.6294 104.368 97.5691 106.05L96.8169 106.703L96.018 107.296C95.4807 107.686 94.9528 108.09 94.4062 108.466C93.2662 109.143 92.173 109.899 90.963 110.445C86.249 112.889 80.937 114.045 75.6484 114.054" stroke="#E0E0E0" stroke-miterlimit="10"/>
<path d="M107.974 70.8531C108.03 70.5382 108.105 70.1058 108.142 69.5842C108.165 69.0672 108.17 68.4562 108.128 67.7841C108.067 67.1167 107.936 66.393 107.75 65.6316C107.516 64.8937 107.25 64.1041 106.829 63.3709C106.409 62.6331 105.946 61.9516 105.409 61.3829C105.147 61.0962 104.886 60.8236 104.624 60.5745C104.348 60.3348 104.073 60.1139 103.806 59.9119C102.76 59.08 101.727 58.6523 101.162 58.3938C101.284 59.0424 101.601 60.0528 101.975 61.2701C102.073 61.5709 102.185 61.8764 102.307 62.1913C102.414 62.5109 102.536 62.8399 102.671 63.1689C102.956 63.8127 103.241 64.4989 103.62 65.1616C103.998 65.8243 104.362 66.4635 104.797 67.0274C105.18 67.6196 105.61 68.1507 106.012 68.6348C106.395 69.1283 106.778 69.5701 107.128 69.9413C107.469 70.3079 107.75 70.6228 107.974 70.8531Z" stroke="#E0E0E0" stroke-miterlimit="10"/>
<path d="M70.5005 122C62.1856 116.55 47.2813 110.822 44.002 109.595V56.5677C45.7712 55.1015 55.144 48 70.5005 48C85.8482 48 95.2166 55.097 96.9902 56.5677V109.59C93.7108 110.822 78.8065 116.55 70.5005 122Z" fill="#7A8392"/>
<path d="M70.5004 121.43C62.3086 116.14 48.0276 110.602 44.4761 109.259V56.7974C46.5658 55.1104 55.741 48.4814 70.5004 48.4814C85.2511 48.4814 94.4264 55.1104 96.516 56.7974V109.263C92.9645 110.602 78.6879 116.14 70.5004 121.43Z" fill="#7A8392"/>
<path d="M69.5302 119.306C62.3919 115.071 52.3518 110.942 47.0047 108.853L45.8369 108.398V57.3539L46.5964 56.8151C49.5729 54.6909 57.8657 49.7578 70.5004 49.7578C83.1218 49.7578 91.4147 54.6953 94.3956 56.8195L95.155 57.3583V108.402L93.9873 108.857C88.6402 110.942 78.6001 115.071 71.4662 119.311L70.496 119.885L69.5302 119.306Z" fill="#5C6574"/>
<path d="M93.298 58.2726V107.179C88.2186 109.158 77.8273 113.41 70.5003 117.761C63.1689 113.406 52.7732 109.158 47.6982 107.179V58.2726C50.7493 56.0998 58.5461 51.5598 70.5003 51.5598C82.4369 51.5598 90.2337 56.091 93.298 58.2726Z" fill="url(#paint0_linear_201_644)"/>
<path d="M70.5002 115.658C63.7395 111.781 54.9506 108.093 49.5552 105.96V59.2085C52.738 57.1152 59.9158 53.3657 70.5046 53.3657C81.0803 53.3657 88.2581 57.1152 91.4453 59.2085V105.96C86.0411 108.097 77.2566 111.785 70.5002 115.658Z" fill="url(#paint1_linear_201_644)"/>
<path d="M56.1406 59.9241L56.584 60.8338L57.585 60.9796L56.8606 61.6906L57.0318 62.6931L56.1406 62.2206L55.245 62.6931L55.4163 61.6906L54.6919 60.9796L55.6928 60.8338L56.1406 59.9241Z" fill="white"/>
<path d="M62.8 57.8486L63.3312 58.935L64.5209 59.1073L63.6605 59.9508L63.8624 61.1432L62.8 60.5779L61.7332 61.1432L61.9396 59.9508L61.0791 59.1073L62.2688 58.935L62.8 57.8486Z" fill="white"/>
<path d="M84.8516 59.9241L84.4038 60.8338L83.4072 60.9796L84.1272 61.6906L83.9604 62.6931L84.8516 62.2206L85.7471 62.6931L85.5759 61.6906L86.3003 60.9796L85.2993 60.8338L84.8516 59.9241Z" fill="white"/>
<path d="M78.1916 57.8486L77.6604 58.935L76.4707 59.1073L77.3312 59.9508L77.1292 61.1432L78.1916 60.5779L79.254 61.1432L79.0521 59.9508L79.9125 59.1073L78.7228 58.935L78.1916 57.8486Z" fill="white"/>
<path d="M70.8736 55.6006L71.6024 57.0801L73.2223 57.3185L72.0501 58.4712L72.3267 60.0964L70.8736 59.328L69.4205 60.0964L69.6971 58.4712L68.5249 57.3185L70.1492 57.0801L70.8736 55.6006Z" fill="white"/>
<path d="M59.5036 69.6626H59.4685L57.5852 70.6872L57.2998 69.561L59.6704 68.2847H60.9216V79.1974H59.5036V69.6626Z" fill="white"/>
<path d="M66.8658 77.4171C67.5156 77.819 68.4682 78.1546 69.4691 78.1546C70.953 78.1546 71.8222 77.3641 71.8222 76.2247C71.8222 75.1692 71.2208 74.5642 69.7018 73.9768C67.8668 73.3232 66.7297 72.3648 66.7297 70.7705C66.7297 69.0084 68.1828 67.6968 70.3691 67.6968C71.5193 67.6968 72.3534 67.9662 72.8539 68.2488L72.4544 69.4412C72.0856 69.2381 71.3349 68.9024 70.3164 68.9024C68.7799 68.9024 68.196 69.8254 68.196 70.5983C68.196 71.6538 68.8809 72.1749 70.4306 72.78C72.3315 73.5175 73.3017 74.4405 73.3017 76.1055C73.3017 77.8499 72.0154 79.3603 69.3638 79.3603C68.2794 79.3603 67.0941 79.0423 66.4927 78.6404L66.8658 77.4171Z" fill="white"/>
<path d="M79.0961 69.1238H75.6763V67.8828H84.0042V69.1238H80.5668V79.1975H79.1005V69.1238H79.0961Z" fill="white"/>
<path d="M60.597 88.7849C60.3731 88.8953 59.9297 89.0101 59.3546 89.0101C58.0288 89.0101 57.0322 88.1666 57.0322 86.6165C57.0322 85.137 58.0288 84.1345 59.4863 84.1345C60.0702 84.1345 60.4433 84.2626 60.6014 84.3465L60.4565 84.8456C60.2282 84.7351 59.8989 84.6512 59.5082 84.6512C58.4063 84.6512 57.6732 85.3578 57.6732 86.6032C57.6732 87.7603 58.3361 88.5023 59.4775 88.5023C59.8463 88.5023 60.2238 88.4272 60.4697 88.308L60.597 88.7849Z" fill="white"/>
<path d="M62.6649 84.2092V86.1877H64.939V84.2092H65.5536V88.9391H64.939V86.7221H62.6649V88.9391H62.0591V84.2092H62.6649Z" fill="white"/>
<path d="M71.3174 86.5238C71.3174 88.1534 70.334 89.0146 69.1356 89.0146C67.8932 89.0146 67.0239 88.0474 67.0239 86.6165C67.0239 85.1149 67.9502 84.1345 69.2058 84.1345C70.4877 84.1345 71.3174 85.1238 71.3174 86.5238ZM67.6693 86.6032C67.6693 87.6146 68.2136 88.5199 69.1707 88.5199C70.1321 88.5199 70.6765 87.6278 70.6765 86.5547C70.6765 85.614 70.1892 84.6336 69.1751 84.6336C68.1741 84.6336 67.6693 85.5654 67.6693 86.6032Z" fill="white"/>
<path d="M73.412 84.2092V88.9391H72.8062V84.2092H73.412Z" fill="white"/>
<path d="M78.4515 88.7849C78.2276 88.8953 77.7842 89.0101 77.2091 89.0101C75.8833 89.0101 74.8867 88.1666 74.8867 86.6165C74.8867 85.137 75.8833 84.1345 77.3408 84.1345C77.9246 84.1345 78.2978 84.2626 78.4559 84.3465L78.311 84.8456C78.0827 84.7351 77.7534 84.6512 77.3627 84.6512C76.2608 84.6512 75.5277 85.3578 75.5277 86.6032C75.5277 87.7603 76.1906 88.5023 77.332 88.5023C77.7008 88.5023 78.0783 88.4272 78.3241 88.308L78.4515 88.7849Z" fill="white"/>
<path d="M82.3457 86.7221H80.5194V88.4268H82.5564V88.9391H79.9136V84.2092H82.451V84.7215H80.5194V86.2142H82.3457V86.7221Z" fill="white"/>
<path d="M57.5098 93.6165H57.7161V95.0562H58.401V95.2328H57.5098V93.6165Z" fill="white"/>
<path d="M59.9022 94.6409C59.9022 95.0693 59.608 95.2547 59.3271 95.2547C59.0154 95.2547 58.7739 95.0251 58.7739 94.6585C58.7739 94.2699 59.0242 94.0447 59.3446 94.0447C59.6783 94.0447 59.9022 94.2876 59.9022 94.6409ZM58.989 94.6497C58.989 94.9014 59.1339 95.0958 59.3402 95.0958C59.5422 95.0958 59.6915 94.9059 59.6915 94.6453C59.6915 94.451 59.5949 94.1992 59.3446 94.1992C59.0944 94.1992 58.989 94.4333 58.989 94.6497Z" fill="white"/>
<path d="M60.4028 94.4333C60.4028 94.2964 60.3984 94.1816 60.394 94.0712H60.5784L60.5872 94.2964H60.596C60.6487 94.1418 60.776 94.0447 60.9165 94.0447C60.9384 94.0447 60.956 94.0491 60.9779 94.0535V94.2522C60.956 94.2478 60.934 94.2434 60.9077 94.2434C60.7584 94.2434 60.6574 94.3538 60.6267 94.5128C60.6223 94.5393 60.6179 94.5746 60.6179 94.61V95.2283H60.4116V94.4333H60.4028Z" fill="white"/>
<path d="M61.531 94.6895C61.5354 94.9721 61.7154 95.0913 61.9262 95.0913C62.0754 95.0913 62.1676 95.0648 62.2466 95.0295L62.2818 95.1797C62.2071 95.215 62.0798 95.2503 61.8998 95.2503C61.5442 95.2503 61.3335 95.0163 61.3335 94.6674C61.3335 94.3185 61.5398 94.0447 61.8735 94.0447C62.251 94.0447 62.3476 94.3759 62.3476 94.5879C62.3476 94.632 62.3432 94.663 62.3388 94.685H61.531V94.6895ZM62.1457 94.5349C62.15 94.4024 62.0886 94.1948 61.8559 94.1948C61.6452 94.1948 61.553 94.3892 61.5354 94.5349H62.1457Z" fill="white"/>
<path d="M62.8437 94.3847C62.8437 94.2655 62.8394 94.1683 62.835 94.0712H63.0193L63.0281 94.2567H63.0369C63.1028 94.1463 63.2081 94.0447 63.3969 94.0447C63.5549 94.0447 63.6735 94.1418 63.7218 94.2787H63.7261C63.7613 94.2125 63.8052 94.1639 63.8535 94.1286C63.9237 94.0756 63.9983 94.0491 64.1081 94.0491C64.2617 94.0491 64.4856 94.1507 64.4856 94.5526V95.2327H64.2793V94.579C64.2793 94.3582 64.2003 94.2213 64.0291 94.2213C63.9105 94.2213 63.8183 94.3097 63.7832 94.4112C63.7744 94.4377 63.7657 94.4775 63.7657 94.5172V95.2327H63.5593V94.5393C63.5593 94.3538 63.4803 94.2213 63.3179 94.2213C63.1862 94.2213 63.094 94.3273 63.0589 94.4333C63.0457 94.4642 63.0413 94.4996 63.0413 94.5349V95.2327H62.835V94.3847H62.8437Z" fill="white"/>
<path d="M66.0349 93.7445C66.0393 93.8152 65.9866 93.8726 65.9032 93.8726C65.8286 93.8726 65.7759 93.8152 65.7759 93.7445C65.7759 93.6695 65.8286 93.6121 65.9076 93.6121C65.9822 93.6121 66.0349 93.6695 66.0349 93.7445ZM65.8022 95.2284V94.0714H66.0129V95.2284H65.8022Z" fill="white"/>
<path d="M66.5928 94.4466C66.5928 94.2964 66.5884 94.1772 66.584 94.0668H66.7728L66.7815 94.2655H66.7859C66.8737 94.1242 67.0054 94.0403 67.1942 94.0403C67.4708 94.0403 67.6815 94.2788 67.6815 94.6277C67.6815 95.0428 67.4313 95.2504 67.1591 95.2504C67.0054 95.2504 66.8737 95.1841 66.8035 95.0693H66.7991V95.6964H66.5928V94.4466ZM66.8035 94.7557C66.8035 94.7866 66.8079 94.8176 66.8123 94.8396C66.8518 94.9854 66.9747 95.087 67.1284 95.087C67.3479 95.087 67.4796 94.9059 67.4796 94.6409C67.4796 94.4068 67.3566 94.2081 67.1371 94.2081C66.9923 94.2081 66.8606 94.3097 66.8211 94.4687C66.8123 94.4952 66.8079 94.5261 66.8079 94.557V94.7557H66.8035Z" fill="white"/>
<path d="M68.1557 95.0119C68.2172 95.0516 68.3269 95.0958 68.4323 95.0958C68.5859 95.0958 68.6562 95.0207 68.6562 94.9235C68.6562 94.8219 68.5947 94.769 68.4411 94.7115C68.2347 94.6365 68.1381 94.5216 68.1381 94.3847C68.1381 94.1993 68.2874 94.0447 68.5333 94.0447C68.6518 94.0447 68.7528 94.08 68.8142 94.1153L68.7615 94.2699C68.7176 94.2434 68.6342 94.2037 68.5245 94.2037C68.4015 94.2037 68.3313 94.2743 68.3313 94.3627C68.3313 94.4598 68.4015 94.4996 68.5508 94.557C68.7528 94.6321 68.8537 94.7336 68.8537 94.9059C68.8537 95.109 68.6957 95.2547 68.4235 95.2547C68.2962 95.2547 68.182 95.2238 68.0986 95.1753L68.1557 95.0119Z" fill="white"/>
<path d="M70.3247 94.9148C70.3247 95.0341 70.3291 95.14 70.3335 95.2284H70.1491L70.1359 95.0385H70.1315C70.0789 95.1312 69.9559 95.2549 69.7496 95.2549C69.5696 95.2549 69.3545 95.1533 69.3545 94.747V94.0713H69.5652V94.7117C69.5652 94.9325 69.6311 95.0782 69.8198 95.0782C69.9603 95.0782 70.0569 94.9811 70.0964 94.8883C70.1096 94.8574 70.114 94.8176 70.114 94.7823V94.0713H70.3247V94.9148Z" fill="white"/>
<path d="M70.9082 94.3847C70.9082 94.2655 70.9038 94.1683 70.8994 94.0712H71.0838L71.0926 94.2567H71.1014C71.1672 94.1463 71.2726 94.0447 71.4613 94.0447C71.6194 94.0447 71.7379 94.1418 71.7862 94.2787H71.7906C71.8257 94.2125 71.8696 94.1639 71.9179 94.1286C71.9881 94.0756 72.0628 94.0491 72.1725 94.0491C72.3262 94.0491 72.5501 94.1507 72.5501 94.5526V95.2327H72.3437V94.579C72.3437 94.3582 72.2647 94.2213 72.0935 94.2213C71.975 94.2213 71.8828 94.3097 71.8477 94.4112C71.8389 94.4377 71.8301 94.4775 71.8301 94.5172V95.2327H71.6238V94.5393C71.6238 94.3538 71.5448 94.2213 71.3823 94.2213C71.2506 94.2213 71.1584 94.3273 71.1233 94.4333C71.1101 94.4642 71.1057 94.4996 71.1057 94.5349V95.2327H70.8994V94.3847H70.9082Z" fill="white"/>
<path d="M74.8598 93.5283V94.9283C74.8598 95.0299 74.8642 95.1491 74.8686 95.2286H74.6798L74.671 95.0255H74.6666C74.6008 95.1536 74.4603 95.2507 74.2759 95.2507C73.9994 95.2507 73.7842 95.0122 73.7842 94.6633C73.7798 94.2791 74.0213 94.0406 74.3023 94.0406C74.4779 94.0406 74.5964 94.1245 74.6491 94.2173H74.6535V93.5239H74.8598V93.5283ZM74.6491 94.5441C74.6491 94.5176 74.6447 94.4823 74.6403 94.4558C74.6096 94.3233 74.4954 94.2129 74.3374 94.2129C74.1223 94.2129 73.9906 94.4028 73.9906 94.6589C73.9906 94.893 74.1047 95.0873 74.3286 95.0873C74.4691 95.0873 74.5964 94.9946 74.6359 94.8356C74.6447 94.8047 74.6447 94.7782 74.6447 94.7428V94.5441H74.6491Z" fill="white"/>
<path d="M76.4837 94.6409C76.4837 95.0693 76.1896 95.2547 75.9086 95.2547C75.5969 95.2547 75.3555 95.0251 75.3555 94.6585C75.3555 94.2699 75.6057 94.0447 75.9262 94.0447C76.2598 94.0447 76.4837 94.2876 76.4837 94.6409ZM75.5706 94.6497C75.5706 94.9014 75.7155 95.0958 75.9218 95.0958C76.1237 95.0958 76.273 94.9059 76.273 94.6453C76.273 94.451 76.1764 94.1992 75.9262 94.1992C75.6759 94.1992 75.5706 94.4333 75.5706 94.6497Z" fill="white"/>
<path d="M76.9844 93.5283H77.1951V95.2286H76.9844V93.5283Z" fill="white"/>
<path d="M78.8236 94.6409C78.8236 95.0693 78.5294 95.2547 78.2485 95.2547C77.9368 95.2547 77.6953 95.0251 77.6953 94.6585C77.6953 94.2699 77.9455 94.0447 78.266 94.0447C78.5997 94.0447 78.8236 94.2876 78.8236 94.6409ZM77.9104 94.6497C77.9104 94.9014 78.0553 95.0958 78.2616 95.0958C78.4636 95.0958 78.6128 94.9059 78.6128 94.6453C78.6128 94.451 78.5163 94.1992 78.266 94.1992C78.0158 94.1992 77.9104 94.4333 77.9104 94.6497Z" fill="white"/>
<path d="M79.3242 94.4333C79.3242 94.2964 79.3198 94.1816 79.3154 94.0712H79.4998L79.5086 94.2964H79.5174C79.5701 94.1418 79.6974 94.0447 79.8378 94.0447C79.8598 94.0447 79.8774 94.0491 79.8993 94.0535V94.2522C79.8774 94.2478 79.8554 94.2434 79.8291 94.2434C79.6798 94.2434 79.5788 94.3538 79.5481 94.5128C79.5437 94.5393 79.5393 94.5746 79.5393 94.61V95.2283H79.333V94.4333H79.3242Z" fill="white"/>
<path d="M81.0488 95.0119C81.1102 95.0516 81.22 95.0958 81.3253 95.0958C81.479 95.0958 81.5492 95.0207 81.5492 94.9235C81.5492 94.8219 81.4878 94.769 81.3341 94.7115C81.1278 94.6365 81.0312 94.5216 81.0312 94.3847C81.0312 94.1993 81.1805 94.0447 81.4263 94.0447C81.5448 94.0447 81.6458 94.08 81.7073 94.1153L81.6546 94.2699C81.6107 94.2434 81.5273 94.2037 81.4175 94.2037C81.2946 94.2037 81.2244 94.2743 81.2244 94.3627C81.2244 94.4598 81.2946 94.4996 81.4439 94.557C81.6458 94.6321 81.7468 94.7336 81.7468 94.9059C81.7468 95.109 81.5887 95.2547 81.3166 95.2547C81.1892 95.2547 81.0751 95.2238 80.9917 95.1753L81.0488 95.0119Z" fill="white"/>
<path d="M82.4895 93.7445C82.4939 93.8152 82.4412 93.8726 82.3578 93.8726C82.2832 93.8726 82.2305 93.8152 82.2305 93.7445C82.2305 93.6695 82.2832 93.6121 82.3622 93.6121C82.4412 93.6121 82.4895 93.6695 82.4895 93.7445ZM82.2568 95.2284V94.0714H82.4675V95.2284H82.2568Z" fill="white"/>
<path d="M83.3014 93.74V94.0712H83.5999V94.2302H83.3014V94.8529C83.3014 94.9986 83.3409 95.0781 83.4594 95.0781C83.5121 95.0781 83.556 95.0693 83.5823 95.0649L83.5911 95.2239C83.5516 95.2415 83.4858 95.2504 83.4067 95.2504C83.3102 95.2504 83.2311 95.2195 83.1828 95.162C83.1214 95.1002 83.1038 94.9986 83.1038 94.8617V94.2302H82.9238V94.0712H83.1038V93.793L83.3014 93.74Z" fill="white"/>
<path d="M59.7795 98.5718L59.762 98.426H59.7532C59.6873 98.5188 59.5644 98.5983 59.402 98.5983C59.1693 98.5983 59.0508 98.4349 59.0508 98.267C59.0508 97.9888 59.2966 97.8342 59.7444 97.8342V97.8122C59.7444 97.715 59.7181 97.5428 59.481 97.5428C59.3756 97.5428 59.2615 97.5781 59.1825 97.6267L59.1342 97.4898C59.2308 97.4279 59.3669 97.3882 59.5117 97.3882C59.8629 97.3882 59.9507 97.6311 59.9507 97.8607V98.2935C59.9507 98.3951 59.9551 98.4923 59.9683 98.5718H59.7795ZM59.7488 97.98C59.5205 97.9756 59.2615 98.0153 59.2615 98.2405C59.2615 98.3774 59.3537 98.4437 59.4591 98.4437C59.6083 98.4437 59.7049 98.3465 59.7356 98.2494C59.7444 98.2273 59.7488 98.2052 59.7488 98.1831V97.98Z" fill="white"/>
<path d="M60.5254 97.7282C60.5254 97.609 60.521 97.5118 60.5166 97.4147H60.701L60.7098 97.6002H60.7185C60.7844 97.4898 60.8898 97.3882 61.0785 97.3882C61.2366 97.3882 61.3551 97.4853 61.4034 97.6222H61.4078C61.4429 97.556 61.4868 97.5074 61.5351 97.4721C61.6053 97.4191 61.68 97.3926 61.7897 97.3926C61.9434 97.3926 62.1673 97.4942 62.1673 97.8961V98.5762H61.9609V97.9226C61.9609 97.7017 61.8819 97.5648 61.7107 97.5648C61.5922 97.5648 61.5 97.6532 61.4649 97.7547C61.4561 97.7812 61.4473 97.821 61.4473 97.8607V98.5762H61.241V97.8828C61.241 97.6973 61.1619 97.5648 60.9995 97.5648C60.8678 97.5648 60.7756 97.6708 60.7405 97.7768C60.7273 97.8077 60.7229 97.8431 60.7229 97.8784V98.5762H60.5166V97.7282H60.5254Z" fill="white"/>
<path d="M62.8616 98.033C62.866 98.3156 63.046 98.4349 63.2567 98.4349C63.406 98.4349 63.4982 98.4084 63.5772 98.373L63.6123 98.5232C63.5377 98.5585 63.4104 98.5938 63.2304 98.5938C62.8748 98.5938 62.6641 98.3598 62.6641 98.0109C62.6641 97.662 62.8704 97.3882 63.204 97.3882C63.5816 97.3882 63.6782 97.7194 63.6782 97.9314C63.6782 97.9756 63.6738 98.0065 63.6694 98.0286H62.8616V98.033ZM63.4762 97.8828C63.4806 97.7503 63.4192 97.5428 63.1865 97.5428C62.9758 97.5428 62.8836 97.7371 62.866 97.8828H63.4762Z" fill="white"/>
<path d="M64.4244 97.083V97.4142H64.7229V97.5732H64.4244V98.1959C64.4244 98.3417 64.4639 98.4212 64.5825 98.4212C64.6351 98.4212 64.679 98.4123 64.7054 98.4079L64.7142 98.5669C64.6747 98.5846 64.6088 98.5934 64.5298 98.5934C64.4332 98.5934 64.3542 98.5625 64.3059 98.5051C64.2444 98.4432 64.2269 98.3417 64.2269 98.2048V97.5732H64.0469V97.4142H64.2269V97.136L64.4244 97.083Z" fill="white"/>
<path d="M65.0605 98.8672C65.1132 98.7259 65.1791 98.4697 65.201 98.2975L65.4337 98.2754C65.381 98.4785 65.2757 98.7435 65.2098 98.8583L65.0605 98.8672Z" fill="white"/>
<path d="M67.4839 98.5317C67.4313 98.5582 67.3083 98.598 67.1547 98.598C66.8079 98.598 66.5796 98.3595 66.5796 98.0062C66.5796 97.6485 66.821 97.3923 67.1986 97.3923C67.3215 97.3923 67.4313 97.4232 67.4883 97.4542L67.44 97.6176C67.3918 97.5911 67.3127 97.5646 67.1986 97.5646C66.9352 97.5646 66.7903 97.7589 66.7903 98.0018C66.7903 98.2712 66.9615 98.4346 67.1898 98.4346C67.3083 98.4346 67.3874 98.4037 67.4444 98.3772L67.4839 98.5317Z" fill="white"/>
<path d="M69.0072 97.9844C69.0072 98.4128 68.713 98.5983 68.4321 98.5983C68.1204 98.5983 67.8789 98.3686 67.8789 98.0021C67.8789 97.6134 68.1291 97.3882 68.4496 97.3882C68.7833 97.3882 69.0072 97.6311 69.0072 97.9844ZM68.094 97.9976C68.094 98.2494 68.2389 98.4437 68.4452 98.4437C68.6472 98.4437 68.7964 98.2538 68.7964 97.9932C68.7964 97.7989 68.6999 97.5472 68.4496 97.5472C68.1994 97.5472 68.094 97.7768 68.094 97.9976Z" fill="white"/>
<path d="M69.5078 97.7282C69.5078 97.609 69.5034 97.5118 69.499 97.4147H69.6834L69.6966 97.6046H69.701C69.758 97.4942 69.8897 97.3882 70.0829 97.3882C70.2409 97.3882 70.4912 97.4853 70.4912 97.8828V98.5762H70.2805V97.9093C70.2805 97.7238 70.2102 97.5693 70.0127 97.5693C69.8766 97.5693 69.7668 97.6664 69.7317 97.7857C69.7229 97.8122 69.7185 97.8475 69.7185 97.8828V98.5806H69.5078V97.7282Z" fill="white"/>
<path d="M71.0351 98.3595C71.0966 98.3993 71.2063 98.4434 71.3117 98.4434C71.4653 98.4434 71.5356 98.3683 71.5356 98.2712C71.5356 98.1696 71.4741 98.1166 71.3205 98.0592C71.1141 97.9841 71.0175 97.8693 71.0175 97.7324C71.0175 97.5469 71.1668 97.3923 71.4126 97.3923C71.5312 97.3923 71.6322 97.4277 71.6936 97.463L71.6409 97.6176C71.597 97.5911 71.5136 97.5513 71.4039 97.5513C71.2809 97.5513 71.2107 97.622 71.2107 97.7103C71.2107 97.8075 71.2809 97.8472 71.4302 97.9046C71.6322 97.9797 71.7331 98.0813 71.7331 98.2535C71.7331 98.4567 71.5751 98.6024 71.3029 98.6024C71.1756 98.6024 71.0614 98.5715 70.978 98.5229L71.0351 98.3595Z" fill="white"/>
<path d="M72.3572 98.033C72.3616 98.3156 72.5416 98.4349 72.7523 98.4349C72.9016 98.4349 72.9938 98.4084 73.0728 98.373L73.1079 98.5232C73.0333 98.5585 72.906 98.5938 72.726 98.5938C72.3704 98.5938 72.1597 98.3598 72.1597 98.0109C72.1597 97.662 72.366 97.3882 72.6997 97.3882C73.0772 97.3882 73.1738 97.7194 73.1738 97.9314C73.1738 97.9756 73.1694 98.0065 73.165 98.0286H72.3572V98.033ZM72.9718 97.8828C72.9762 97.7503 72.9148 97.5428 72.6821 97.5428C72.4714 97.5428 72.3792 97.7371 72.3616 97.8828H72.9718Z" fill="white"/>
<path d="M74.4864 98.5317C74.4337 98.5582 74.3108 98.598 74.1571 98.598C73.8103 98.598 73.582 98.3595 73.582 98.0062C73.582 97.6485 73.8235 97.3923 74.201 97.3923C74.324 97.3923 74.4337 97.4232 74.4908 97.4542L74.4425 97.6176C74.3942 97.5911 74.3152 97.5646 74.201 97.5646C73.9376 97.5646 73.7928 97.7589 73.7928 98.0018C73.7928 98.2712 73.964 98.4346 74.1923 98.4346C74.3108 98.4346 74.3898 98.4037 74.4469 98.3772L74.4864 98.5317Z" fill="white"/>
<path d="M75.2193 97.083V97.4142H75.5179V97.5732H75.2193V98.1959C75.2193 98.3417 75.2589 98.4212 75.3774 98.4212C75.4301 98.4212 75.474 98.4123 75.5003 98.4079L75.5091 98.5669C75.4696 98.5846 75.4037 98.5934 75.3247 98.5934C75.2281 98.5934 75.1491 98.5625 75.1008 98.5051C75.0393 98.4432 75.0218 98.3417 75.0218 98.2048V97.5732H74.8418V97.4142H75.0218V97.136L75.2193 97.083Z" fill="white"/>
<path d="M76.1106 98.033C76.115 98.3156 76.295 98.4349 76.5057 98.4349C76.655 98.4349 76.7472 98.4084 76.8262 98.373L76.8613 98.5232C76.7867 98.5585 76.6594 98.5938 76.4794 98.5938C76.1238 98.5938 75.9131 98.3598 75.9131 98.0109C75.9131 97.662 76.1194 97.3882 76.4531 97.3882C76.8306 97.3882 76.9272 97.7194 76.9272 97.9314C76.9272 97.9756 76.9228 98.0065 76.9184 98.0286H76.1106V98.033ZM76.7209 97.8828C76.7252 97.7503 76.6638 97.5428 76.4311 97.5428C76.2204 97.5428 76.1282 97.7371 76.1106 97.8828H76.7209Z" fill="white"/>
<path d="M77.6734 97.083V97.4142H77.972V97.5732H77.6734V98.1959C77.6734 98.3417 77.713 98.4212 77.8315 98.4212C77.8842 98.4212 77.9281 98.4123 77.9544 98.4079L77.9632 98.5669C77.9237 98.5846 77.8578 98.5934 77.7788 98.5934C77.6822 98.5934 77.6032 98.5625 77.5549 98.5051C77.4935 98.4432 77.4759 98.3417 77.4759 98.2048V97.5732H77.2959V97.4142H77.4759V97.136L77.6734 97.083Z" fill="white"/>
<path d="M79.4072 98.2581C79.4072 98.3773 79.4116 98.4833 79.416 98.5716H79.2316L79.2184 98.3817H79.2141C79.1614 98.4745 79.0384 98.5981 78.8321 98.5981C78.6521 98.5981 78.437 98.4966 78.437 98.0902V97.4146H78.6433V98.0549C78.6433 98.2757 78.7092 98.4215 78.898 98.4215C79.0385 98.4215 79.135 98.3243 79.1745 98.2316C79.1877 98.2007 79.1921 98.1609 79.1921 98.1256V97.4146H79.4028V98.2581H79.4072Z" fill="white"/>
<path d="M80.1058 98.033C80.1101 98.3156 80.2901 98.4349 80.5009 98.4349C80.6501 98.4349 80.7423 98.4084 80.8213 98.373L80.8565 98.5232C80.7818 98.5585 80.6545 98.5938 80.4745 98.5938C80.1189 98.5938 79.9082 98.3598 79.9082 98.0109C79.9082 97.662 80.1145 97.3882 80.4482 97.3882C80.8257 97.3882 80.9223 97.7194 80.9223 97.9314C80.9223 97.9756 80.9179 98.0065 80.9135 98.0286H80.1058V98.033ZM80.7204 97.8828C80.7248 97.7503 80.6633 97.5428 80.4306 97.5428C80.2199 97.5428 80.1277 97.7371 80.1101 97.8828H80.7204Z" fill="white"/>
<path d="M81.418 97.7768C81.418 97.6399 81.4136 97.5251 81.4092 97.4147H81.5936L81.6023 97.6399H81.6111C81.6638 97.4853 81.7911 97.3882 81.9316 97.3882C81.9536 97.3882 81.9711 97.3926 81.9931 97.397V97.5958C81.9711 97.5913 81.9492 97.5869 81.9228 97.5869C81.7736 97.5869 81.6726 97.6973 81.6419 97.8563C81.6375 97.8828 81.6331 97.9181 81.6331 97.9535V98.5718H81.4267V97.7768H81.418Z" fill="white"/>
<path d="M56.5881 101.919L56.5706 101.773H56.5618C56.4959 101.866 56.373 101.945 56.2106 101.945C55.9779 101.945 55.8594 101.782 55.8594 101.614C55.8594 101.336 56.1052 101.181 56.553 101.181V101.159C56.553 101.062 56.5267 100.89 56.2896 100.89C56.1842 100.89 56.0701 100.925 55.9911 100.974L55.9428 100.837C56.0394 100.775 56.1755 100.735 56.3203 100.735C56.6715 100.735 56.7593 100.978 56.7593 101.208V101.641C56.7593 101.742 56.7637 101.839 56.7769 101.919H56.5881ZM56.5574 101.327C56.3291 101.323 56.0701 101.362 56.0701 101.588C56.0701 101.725 56.1623 101.791 56.2677 101.791C56.4169 101.791 56.5135 101.694 56.5442 101.597C56.553 101.574 56.5574 101.552 56.5574 101.53V101.327Z" fill="white"/>
<path d="M58.3266 100.219V101.619C58.3266 101.72 58.331 101.84 58.3354 101.919H58.1466L58.1378 101.716H58.1334C58.0676 101.844 57.9271 101.941 57.7427 101.941C57.4662 101.941 57.251 101.703 57.251 101.354C57.2466 100.97 57.4881 100.731 57.7691 100.731C57.9447 100.731 58.0632 100.815 58.1159 100.908H58.1203V100.214H58.3266V100.219ZM58.1203 101.23C58.1203 101.204 58.1159 101.168 58.1115 101.142C58.0808 101.009 57.9666 100.899 57.8086 100.899C57.5935 100.899 57.4618 101.089 57.4618 101.345C57.4618 101.579 57.5759 101.773 57.7998 101.773C57.9403 101.773 58.0676 101.681 58.1071 101.522C58.1159 101.491 58.1159 101.464 58.1159 101.429V101.23H58.1203Z" fill="white"/>
<path d="M59.1428 100.435C59.1472 100.506 59.0945 100.563 59.0111 100.563C58.9365 100.563 58.8838 100.506 58.8838 100.435C58.8838 100.36 58.9365 100.302 59.0155 100.302C59.0945 100.302 59.1428 100.36 59.1428 100.435ZM58.9101 101.919V100.762H59.1209V101.919H58.9101Z" fill="white"/>
<path d="M59.7051 101.138C59.7051 100.987 59.7007 100.868 59.6963 100.758H59.8851L59.8938 100.956H59.8982C59.986 100.815 60.1177 100.731 60.3065 100.731C60.5831 100.731 60.7938 100.97 60.7938 101.319C60.7938 101.734 60.5436 101.941 60.2714 101.941C60.1177 101.941 59.986 101.875 59.9158 101.76H59.9114V102.387H59.7051V101.138ZM59.9114 101.447C59.9114 101.478 59.9158 101.508 59.9202 101.531C59.9597 101.676 60.0826 101.778 60.2363 101.778C60.4558 101.778 60.5875 101.597 60.5875 101.332C60.5875 101.098 60.4646 100.899 60.245 100.899C60.1002 100.899 59.9685 101.001 59.929 101.16C59.9202 101.186 59.9158 101.217 59.9158 101.248V101.447H59.9114Z" fill="white"/>
<path d="M61.5266 100.435C61.531 100.506 61.4783 100.563 61.3949 100.563C61.3203 100.563 61.2676 100.506 61.2676 100.435C61.2676 100.36 61.3203 100.302 61.3993 100.302C61.4739 100.302 61.5266 100.36 61.5266 100.435ZM61.2939 101.919V100.762H61.5046V101.919H61.2939Z" fill="white"/>
<path d="M62.058 101.703C62.1195 101.742 62.2293 101.786 62.3346 101.786C62.4883 101.786 62.5585 101.711 62.5585 101.614C62.5585 101.513 62.4971 101.46 62.3434 101.402C62.1371 101.327 62.0405 101.212 62.0405 101.075C62.0405 100.89 62.1898 100.735 62.4356 100.735C62.5541 100.735 62.6551 100.771 62.7166 100.806L62.6639 100.961C62.62 100.934 62.5366 100.894 62.4268 100.894C62.3039 100.894 62.2337 100.965 62.2337 101.053C62.2337 101.15 62.3039 101.19 62.4532 101.248C62.6551 101.323 62.7561 101.424 62.7561 101.597C62.7561 101.8 62.598 101.945 62.3258 101.945C62.1985 101.945 62.0844 101.915 62.001 101.866L62.058 101.703Z" fill="white"/>
<path d="M64.0816 101.875C64.0289 101.901 63.906 101.941 63.7523 101.941C63.4055 101.941 63.1772 101.703 63.1772 101.349C63.1772 100.991 63.4187 100.735 63.7962 100.735C63.9192 100.735 64.0289 100.766 64.086 100.797L64.0377 100.961C63.9894 100.934 63.9104 100.908 63.7962 100.908C63.5328 100.908 63.388 101.102 63.388 101.345C63.388 101.614 63.5592 101.778 63.7875 101.778C63.906 101.778 63.985 101.747 64.0421 101.72L64.0816 101.875Z" fill="white"/>
<path d="M64.7971 100.435C64.8015 100.506 64.7488 100.563 64.6654 100.563C64.5908 100.563 64.5381 100.506 64.5381 100.435C64.5381 100.36 64.5908 100.302 64.6698 100.302C64.7488 100.302 64.7971 100.36 64.7971 100.435ZM64.5644 101.919V100.762H64.7752V101.919H64.5644Z" fill="white"/>
<path d="M65.3594 101.071C65.3594 100.952 65.355 100.855 65.3506 100.758H65.535L65.5481 100.948H65.5525C65.6096 100.837 65.7413 100.731 65.9345 100.731C66.0925 100.731 66.3427 100.828 66.3427 101.226V101.919H66.132V101.252C66.132 101.067 66.0618 100.912 65.8642 100.912C65.7281 100.912 65.6184 101.009 65.5833 101.129C65.5745 101.155 65.5701 101.19 65.5701 101.226V101.924H65.3594V101.071Z" fill="white"/>
<path d="M67.9056 100.758C67.9013 100.842 67.8969 100.934 67.8969 101.076V101.747C67.8969 102.012 67.8442 102.175 67.7344 102.277C67.6247 102.383 67.4622 102.414 67.3174 102.414C67.1813 102.414 67.0276 102.378 66.9354 102.317L66.9881 102.158C67.0628 102.206 67.1813 102.25 67.3262 102.25C67.5413 102.25 67.6949 102.14 67.6949 101.844V101.716H67.6905C67.6247 101.822 67.5018 101.91 67.3262 101.91C67.0408 101.91 66.8345 101.667 66.8345 101.345C66.8345 100.952 67.0891 100.731 67.3525 100.731C67.5544 100.731 67.6598 100.837 67.7125 100.93H67.7169L67.7257 100.753H67.9056V100.758ZM67.6861 101.217C67.6861 101.182 67.6818 101.151 67.673 101.12C67.6335 100.996 67.5325 100.899 67.3788 100.899C67.1813 100.899 67.0364 101.067 67.0364 101.336C67.0364 101.561 67.1506 101.751 67.3745 101.751C67.5018 101.751 67.6203 101.672 67.6642 101.535C67.6774 101.5 67.6818 101.46 67.6818 101.425V101.217H67.6861Z" fill="white"/>
<path d="M69.3367 101.376C69.3411 101.659 69.5211 101.778 69.7318 101.778C69.8811 101.778 69.9733 101.751 70.0523 101.716L70.0874 101.866C70.0128 101.902 69.8855 101.937 69.7055 101.937C69.3499 101.937 69.1392 101.703 69.1392 101.354C69.1392 101.005 69.3455 100.731 69.6791 100.731C70.0567 100.731 70.1533 101.062 70.1533 101.274C70.1533 101.319 70.1489 101.349 70.1445 101.372H69.3367V101.376ZM69.9469 101.226C69.9513 101.093 69.8899 100.886 69.6572 100.886C69.4465 100.886 69.3543 101.08 69.3367 101.226H69.9469Z" fill="white"/>
<path d="M70.6445 100.219H70.8553V101.919H70.6445V100.219Z" fill="white"/>
<path d="M71.6765 100.435C71.6809 100.506 71.6282 100.563 71.5448 100.563C71.4702 100.563 71.4175 100.506 71.4175 100.435C71.4175 100.36 71.4702 100.302 71.5492 100.302C71.6282 100.302 71.6765 100.36 71.6765 100.435ZM71.4438 101.919V100.762H71.6545V101.919H71.4438Z" fill="white"/>
<path d="M72.4889 100.427V100.758H72.7874V100.917H72.4889V101.539C72.4889 101.685 72.5284 101.765 72.6469 101.765C72.6996 101.765 72.7435 101.756 72.7698 101.751L72.7786 101.91C72.7391 101.928 72.6733 101.937 72.5942 101.937C72.4977 101.937 72.4186 101.906 72.3703 101.849C72.3089 101.787 72.2913 101.685 72.2913 101.548V100.917H72.1113V100.758H72.2913V100.48L72.4889 100.427Z" fill="white"/>
<path d="M73.1255 102.211C73.1782 102.07 73.244 101.813 73.2704 101.641L73.503 101.619C73.4504 101.822 73.345 102.087 73.2791 102.202L73.1255 102.211Z" fill="white"/>
<path d="M74.7016 101.703C74.7631 101.742 74.8728 101.786 74.9782 101.786C75.1318 101.786 75.2021 101.711 75.2021 101.614C75.2021 101.513 75.1406 101.46 74.987 101.402C74.7806 101.327 74.684 101.212 74.684 101.075C74.684 100.89 74.8333 100.735 75.0792 100.735C75.1977 100.735 75.2987 100.771 75.3601 100.806L75.3074 100.961C75.2635 100.934 75.1801 100.894 75.0704 100.894C74.9474 100.894 74.8772 100.965 74.8772 101.053C74.8772 101.15 74.9474 101.19 75.0967 101.248C75.2987 101.323 75.3996 101.424 75.3996 101.597C75.3996 101.8 75.2416 101.945 74.9694 101.945C74.8421 101.945 74.7279 101.915 74.6445 101.866L74.7016 101.703Z" fill="white"/>
<path d="M76.0227 101.376C76.0271 101.659 76.2071 101.778 76.4179 101.778C76.5671 101.778 76.6593 101.751 76.7383 101.716L76.7735 101.866C76.6988 101.902 76.5715 101.937 76.3915 101.937C76.0359 101.937 75.8252 101.703 75.8252 101.354C75.8252 101.005 76.0315 100.731 76.3652 100.731C76.7427 100.731 76.8393 101.062 76.8393 101.274C76.8393 101.319 76.8349 101.349 76.8305 101.372H76.0227V101.376ZM76.6374 101.226C76.6417 101.093 76.5803 100.886 76.3476 100.886C76.1369 100.886 76.0447 101.08 76.0271 101.226H76.6374Z" fill="white"/>
<path d="M78.3276 100.219V101.619C78.3276 101.72 78.332 101.84 78.3364 101.919H78.1476L78.1388 101.716H78.1344C78.0686 101.844 77.9281 101.941 77.7437 101.941C77.4671 101.941 77.252 101.703 77.252 101.354C77.2476 100.97 77.4891 100.731 77.77 100.731C77.9456 100.731 78.0642 100.815 78.1169 100.908H78.1212V100.214H78.3276V100.219ZM78.1212 101.23C78.1212 101.204 78.1169 101.168 78.1125 101.142C78.0817 101.009 77.9676 100.899 77.8096 100.899C77.5944 100.899 77.4627 101.089 77.4627 101.345C77.4627 101.579 77.5769 101.773 77.8008 101.773C77.9413 101.773 78.0686 101.681 78.1081 101.522C78.1169 101.491 78.1169 101.464 78.1169 101.429V101.23H78.1212Z" fill="white"/>
<path d="M80.6455 100.219V101.619C80.6455 101.72 80.6498 101.84 80.6542 101.919H80.4655L80.4567 101.716H80.4523C80.3864 101.844 80.246 101.941 80.0616 101.941C79.785 101.941 79.5699 101.703 79.5699 101.354C79.5655 100.97 79.8069 100.731 80.0879 100.731C80.2635 100.731 80.382 100.815 80.4347 100.908H80.4391V100.214H80.6455V100.219ZM80.4391 101.23C80.4391 101.204 80.4347 101.168 80.4303 101.142C80.3996 101.009 80.2855 100.899 80.1274 100.899C79.9123 100.899 79.7806 101.089 79.7806 101.345C79.7806 101.579 79.8947 101.773 80.1186 101.773C80.2591 101.773 80.3864 101.681 80.4259 101.522C80.4347 101.491 80.4347 101.464 80.4347 101.429V101.23H80.4391Z" fill="white"/>
<path d="M81.4621 100.435C81.4665 100.506 81.4138 100.563 81.3304 100.563C81.2558 100.563 81.2031 100.506 81.2031 100.435C81.2031 100.36 81.2558 100.302 81.3348 100.302C81.4139 100.302 81.4621 100.36 81.4621 100.435ZM81.2295 101.919V100.762H81.4402V101.919H81.2295Z" fill="white"/>
<path d="M82.6604 101.919L82.6428 101.773H82.634C82.5682 101.866 82.4453 101.945 82.2828 101.945C82.0502 101.945 81.9316 101.782 81.9316 101.614C81.9316 101.336 82.1775 101.181 82.6253 101.181V101.159C82.6253 101.062 82.5989 100.89 82.3619 100.89C82.2565 100.89 82.1424 100.925 82.0633 100.974L82.015 100.837C82.1116 100.775 82.2477 100.735 82.3926 100.735C82.7438 100.735 82.8316 100.978 82.8316 101.208V101.641C82.8316 101.742 82.836 101.839 82.8492 101.919H82.6604ZM82.6297 101.327C82.4014 101.323 82.1424 101.362 82.1424 101.588C82.1424 101.725 82.2346 101.791 82.3399 101.791C82.4892 101.791 82.5858 101.694 82.6165 101.597C82.6253 101.574 82.6297 101.552 82.6297 101.53V101.327Z" fill="white"/>
<path d="M83.4067 101.071C83.4067 100.952 83.4023 100.855 83.3979 100.758H83.5823L83.5911 100.943H83.5999C83.6657 100.833 83.7711 100.731 83.9599 100.731C84.1179 100.731 84.2365 100.828 84.2847 100.965H84.2891C84.3243 100.899 84.3682 100.85 84.4164 100.815C84.4867 100.762 84.5613 100.736 84.6711 100.736C84.8247 100.736 85.0486 100.837 85.0486 101.239V101.919H84.8423V101.266C84.8423 101.045 84.7633 100.908 84.5921 100.908C84.4735 100.908 84.3813 100.996 84.3462 101.098C84.3374 101.124 84.3286 101.164 84.3286 101.204V101.919H84.1223V101.226C84.1223 101.04 84.0433 100.908 83.8809 100.908C83.7492 100.908 83.657 101.014 83.6218 101.12C83.6087 101.151 83.6043 101.186 83.6043 101.221V101.919H83.3979V101.071H83.4067Z" fill="white"/>
<path d="M56.1665 104.418C56.1665 104.299 56.1621 104.202 56.1577 104.105H56.3421L56.3553 104.295H56.3597C56.4167 104.184 56.5484 104.078 56.7416 104.078C56.8996 104.078 57.1499 104.176 57.1499 104.573V105.266H56.9391V104.599C56.9391 104.414 56.8689 104.259 56.6714 104.259C56.5353 104.259 56.4255 104.357 56.3904 104.476C56.3816 104.502 56.3772 104.538 56.3772 104.573V105.271H56.1665V104.418Z" fill="white"/>
<path d="M58.7611 104.675C58.7611 105.103 58.4669 105.288 58.186 105.288C57.8743 105.288 57.6328 105.059 57.6328 104.692C57.6328 104.304 57.883 104.078 58.2035 104.078C58.5372 104.078 58.7611 104.321 58.7611 104.675ZM57.8479 104.683C57.8479 104.935 57.9928 105.129 58.1991 105.129C58.4011 105.129 58.5503 104.94 58.5503 104.679C58.5503 104.485 58.4538 104.233 58.2035 104.233C57.9533 104.233 57.8479 104.467 57.8479 104.683Z" fill="white"/>
<path d="M59.2612 104.418C59.2612 104.299 59.2568 104.202 59.2524 104.105H59.4368L59.45 104.295H59.4544C59.5115 104.184 59.6432 104.078 59.8363 104.078C59.9944 104.078 60.2446 104.176 60.2446 104.573V105.266H60.0339V104.599C60.0339 104.414 59.9636 104.259 59.7661 104.259C59.63 104.259 59.5202 104.357 59.4851 104.476C59.4763 104.502 59.4719 104.538 59.4719 104.573V105.271H59.2612V104.418Z" fill="white"/>
<path d="M61.7812 104.944C61.7812 105.064 61.7856 105.17 61.79 105.258H61.6056L61.5925 105.068H61.5881C61.5354 105.161 61.4125 105.284 61.2061 105.284C61.0261 105.284 60.811 105.183 60.811 104.777V104.101H61.0218V104.741C61.0218 104.962 61.0876 105.108 61.2764 105.108C61.4169 105.108 61.5134 105.011 61.553 104.918C61.5661 104.887 61.5705 104.847 61.5705 104.812V104.101H61.7812V104.944Z" fill="white"/>
<path d="M62.3608 104.418C62.3608 104.299 62.3564 104.202 62.3521 104.105H62.5364L62.5452 104.29H62.554C62.6198 104.18 62.7252 104.078 62.914 104.078C63.072 104.078 63.1906 104.176 63.2388 104.312H63.2432C63.2784 104.246 63.3223 104.198 63.3706 104.162C63.4408 104.109 63.5154 104.083 63.6252 104.083C63.7788 104.083 64.0027 104.184 64.0027 104.586V105.266H63.7964V104.613C63.7964 104.392 63.7174 104.255 63.5462 104.255C63.4276 104.255 63.3354 104.343 63.3003 104.445C63.2915 104.471 63.2827 104.511 63.2827 104.551V105.266H63.0764V104.573C63.0764 104.388 62.9974 104.255 62.835 104.255C62.7033 104.255 62.6111 104.361 62.5759 104.467C62.5628 104.498 62.5584 104.533 62.5584 104.569V105.266H62.3521V104.418H62.3608Z" fill="white"/>
<path d="M64.582 104.418C64.582 104.299 64.5776 104.202 64.5732 104.105H64.7576L64.7664 104.29H64.7752C64.841 104.18 64.9464 104.078 65.1352 104.078C65.2932 104.078 65.4117 104.176 65.46 104.312H65.4644C65.4995 104.246 65.5435 104.198 65.5917 104.162C65.662 104.109 65.7366 104.083 65.8464 104.083C66 104.083 66.2239 104.184 66.2239 104.586V105.266H66.0176V104.613C66.0176 104.392 65.9386 104.255 65.7673 104.255C65.6488 104.255 65.5566 104.343 65.5215 104.445C65.5127 104.471 65.5039 104.511 65.5039 104.551V105.266H65.2976V104.573C65.2976 104.388 65.2186 104.255 65.0562 104.255C64.9245 104.255 64.8323 104.361 64.7971 104.467C64.784 104.498 64.7796 104.533 64.7796 104.569V105.266H64.5732V104.418H64.582Z" fill="white"/>
<path d="M66.8738 104.105L67.124 104.79C67.1504 104.865 67.1767 104.957 67.1986 105.028H67.203C67.225 104.957 67.2469 104.869 67.2777 104.785L67.506 104.105H67.7255L67.4094 104.931C67.2601 105.328 67.1591 105.531 67.0143 105.655C66.9133 105.748 66.8079 105.783 66.7553 105.792L66.7026 105.615C66.7553 105.598 66.8255 105.567 66.887 105.514C66.944 105.47 67.0143 105.386 67.0626 105.28C67.0713 105.258 67.0801 105.24 67.0801 105.231C67.0801 105.218 67.0757 105.2 67.067 105.174L66.6411 104.105H66.8738Z" fill="white"/>
<path d="M68.8975 104.418C68.8975 104.299 68.8931 104.202 68.8887 104.105H69.0731L69.0862 104.295H69.0906C69.1477 104.184 69.2794 104.078 69.4726 104.078C69.6306 104.078 69.8808 104.176 69.8808 104.573V105.266H69.6701V104.599C69.6701 104.414 69.5999 104.259 69.4023 104.259C69.2662 104.259 69.1565 104.357 69.1213 104.476C69.1126 104.502 69.1082 104.538 69.1082 104.573V105.271H68.8975V104.418Z" fill="white"/>
<path d="M70.6843 103.778C70.6887 103.849 70.636 103.906 70.5526 103.906C70.478 103.906 70.4253 103.849 70.4253 103.778C70.4253 103.703 70.478 103.646 70.557 103.646C70.636 103.646 70.6843 103.703 70.6843 103.778ZM70.4516 105.262V104.105H70.6624V105.262H70.4516Z" fill="white"/>
<path d="M71.2329 105.262C71.2373 105.183 71.2417 105.068 71.2417 104.962V103.562H71.448V104.29H71.4524C71.527 104.162 71.6587 104.078 71.8431 104.078C72.1285 104.078 72.3304 104.317 72.326 104.67C72.326 105.085 72.067 105.289 71.808 105.289C71.6412 105.289 71.5095 105.222 71.4217 105.072H71.4129L71.4041 105.262H71.2329ZM71.4524 104.798C71.4524 104.825 71.4568 104.851 71.4612 104.873C71.5007 105.019 71.6236 105.121 71.7773 105.121C71.9968 105.121 72.1285 104.94 72.1285 104.675C72.1285 104.441 72.01 104.242 71.7861 104.242C71.6412 104.242 71.5095 104.339 71.4656 104.498C71.4612 104.52 71.4524 104.551 71.4524 104.586V104.798Z" fill="white"/>
<path d="M72.8311 103.562H73.0418V104.286H73.0462C73.0813 104.224 73.134 104.176 73.1954 104.136C73.2569 104.101 73.3315 104.074 73.4105 104.074C73.5642 104.074 73.8144 104.171 73.8144 104.569V105.258H73.6037V104.591C73.6037 104.405 73.5335 104.246 73.3359 104.246C73.1998 104.246 73.0945 104.343 73.055 104.458C73.0418 104.485 73.0418 104.52 73.0418 104.56V105.258H72.8311V103.562Z" fill="white"/>
<path d="M75.2459 104.723C75.2503 105.006 75.4303 105.125 75.641 105.125C75.7903 105.125 75.8825 105.099 75.9615 105.063L75.9966 105.213C75.922 105.249 75.7947 105.284 75.6147 105.284C75.2591 105.284 75.0483 105.05 75.0483 104.701C75.0483 104.352 75.2547 104.078 75.5883 104.078C75.9659 104.078 76.0624 104.41 76.0624 104.622C76.0624 104.666 76.0581 104.697 76.0537 104.719H75.2459V104.723ZM75.8605 104.569C75.8649 104.436 75.8034 104.229 75.5708 104.229C75.36 104.229 75.2678 104.423 75.2503 104.569H75.8605Z" fill="white"/>
<path d="M77.5195 104.944C77.5195 105.064 77.5239 105.17 77.5283 105.258H77.3439L77.3307 105.068H77.3264C77.2737 105.161 77.1508 105.284 76.9444 105.284C76.7644 105.284 76.5493 105.183 76.5493 104.777V104.101H76.76V104.741C76.76 104.962 76.8259 105.108 77.0147 105.108C77.1551 105.108 77.2517 105.011 77.2912 104.918C77.3044 104.887 77.3088 104.847 77.3088 104.812V104.101H77.5195V104.944Z" fill="white"/>
<path d="M78.3366 103.778C78.341 103.849 78.2884 103.906 78.2049 103.906C78.1303 103.906 78.0776 103.849 78.0776 103.778C78.0776 103.703 78.1303 103.646 78.2093 103.646C78.284 103.646 78.3366 103.703 78.3366 103.778ZM78.104 105.262V104.105H78.3147V105.262H78.104Z" fill="white"/>
<path d="M78.8676 105.046C78.9291 105.085 79.0388 105.129 79.1442 105.129C79.2978 105.129 79.3681 105.054 79.3681 104.957C79.3681 104.856 79.3066 104.803 79.153 104.745C78.9466 104.67 78.8501 104.555 78.8501 104.418C78.8501 104.233 78.9993 104.078 79.2452 104.078C79.3637 104.078 79.4647 104.114 79.5261 104.149L79.4734 104.304C79.4295 104.277 79.3461 104.237 79.2364 104.237C79.1135 104.237 79.0432 104.308 79.0432 104.396C79.0432 104.494 79.1135 104.533 79.2627 104.591C79.4647 104.666 79.5656 104.767 79.5656 104.94C79.5656 105.143 79.4076 105.288 79.1354 105.288C79.0081 105.288 78.894 105.258 78.8105 105.209L78.8676 105.046Z" fill="white"/>
<path d="M80.0747 104.418C80.0747 104.299 80.0703 104.202 80.0659 104.105H80.2503L80.2591 104.29H80.2679C80.3337 104.18 80.4391 104.078 80.6278 104.078C80.7859 104.078 80.9044 104.176 80.9527 104.312H80.9571C80.9922 104.246 81.0361 104.198 81.0844 104.162C81.1547 104.109 81.2293 104.083 81.339 104.083C81.4927 104.083 81.7166 104.184 81.7166 104.586V105.266H81.5103V104.613C81.5103 104.392 81.4312 104.255 81.26 104.255C81.1415 104.255 81.0493 104.343 81.0142 104.445C81.0054 104.471 80.9966 104.511 80.9966 104.551V105.266H80.7903V104.573C80.7903 104.388 80.7113 104.255 80.5488 104.255C80.4171 104.255 80.3249 104.361 80.2898 104.467C80.2766 104.498 80.2723 104.533 80.2723 104.569V105.266H80.0659V104.418H80.0747Z" fill="white"/>
<path d="M83.3323 104.675C83.3323 105.103 83.0382 105.288 82.7572 105.288C82.4456 105.288 82.2041 105.059 82.2041 104.692C82.2041 104.304 82.4543 104.078 82.7748 104.078C83.1085 104.078 83.3323 104.321 83.3323 104.675ZM82.4192 104.683C82.4192 104.935 82.5641 105.129 82.7704 105.129C82.9724 105.129 83.1216 104.94 83.1216 104.679C83.1216 104.485 83.025 104.233 82.7748 104.233C82.5246 104.233 82.4192 104.467 82.4192 104.683Z" fill="white"/>
<path d="M84.8251 103.562V104.962C84.8251 105.064 84.8295 105.183 84.8339 105.262H84.6451L84.6364 105.059H84.632C84.5661 105.187 84.4256 105.284 84.2413 105.284C83.9647 105.284 83.7496 105.046 83.7496 104.697C83.7452 104.313 83.9866 104.074 84.2676 104.074C84.4432 104.074 84.5617 104.158 84.6144 104.251H84.6188V103.558H84.8251V103.562ZM84.6188 104.573C84.6188 104.547 84.6144 104.512 84.61 104.485C84.5793 104.353 84.4651 104.242 84.3071 104.242C84.092 104.242 83.9603 104.432 83.9603 104.688C83.9603 104.922 84.0744 105.117 84.2983 105.117C84.4388 105.117 84.5661 105.024 84.6056 104.865C84.6144 104.834 84.6144 104.807 84.6144 104.772V104.573H84.6188Z" fill="white"/>
<defs>
<linearGradient id="paint0_linear_201_644" x1="70.4958" y1="42.6966" x2="70.4958" y2="123.91" gradientUnits="userSpaceOnUse">
<stop stop-color="#1A1A1A"/>
<stop offset="0.2446" stop-color="#121212"/>
<stop offset="0.5769"/>
</linearGradient>
<linearGradient id="paint1_linear_201_644" x1="70.4952" y1="42.8978" x2="70.4952" y2="122.999" gradientUnits="userSpaceOnUse">
<stop stop-color="#333333"/>
<stop offset="0.2485" stop-color="#2B2B2B"/>
<stop offset="0.5702" stop-color="#1A1A1A"/>
</linearGradient>
</defs>
</svg>
